<?xml version="1.0" encoding="UTF-8"?>
<!DOCTYPE svg PUBLIC "-//W3C//DTD SVG 1.1//EN" "http://www.w3.org/Graphics/SVG/1.1/DTD/svg11.dtd">
<svg xmlns="http://www.w3.org/2000/svg" version="1.1" width="512px" height="512px" style="shape-rendering:geometricPrecision; text-rendering:geometricPrecision; image-rendering:optimizeQuality; fill-rule:evenodd; clip-rule:evenodd" xmlns:xlink="http://www.w3.org/1999/xlink">
<g><path style="opacity:0.934" fill="#000000" d="M 246.5,-0.5 C 252.5,-0.5 258.5,-0.5 264.5,-0.5C 290.168,9.61253 298.668,27.9459 290,54.5C 287.552,58.6149 284.719,62.4482 281.5,66C 289.184,70.0142 296.017,75.1809 302,81.5C 296.486,65.0687 300.319,51.2354 313.5,40C 328.768,31.5077 342.935,33.0077 356,44.5C 367.494,59.5359 367.327,74.3692 355.5,89C 372.141,98.6614 380.974,113.161 382,132.5C 382.913,147.213 382.58,161.88 381,176.5C 379.5,179.333 377.333,181.5 374.5,183C 339.894,184.646 305.227,184.98 270.5,184C 264.842,182.171 263.008,178.337 265,172.5C 265.833,171 267,169.833 268.5,169C 278.828,168.5 289.161,168.334 299.5,168.5C 299.667,150.83 299.5,133.164 299,115.5C 294.516,91.0173 279.849,77.684 255,75.5C 232.01,77.8257 217.677,90.1591 212,112.5C 211.5,131.164 211.333,149.83 211.5,168.5C 221.172,168.334 230.839,168.5 240.5,169C 246.787,174.26 246.453,179.26 239.5,184C 205.833,184.667 172.167,184.667 138.5,184C 134,182.167 130.833,179 129,174.5C 128.086,156.794 128.419,139.128 130,121.5C 133.684,107.303 141.851,96.4699 154.5,89C 144.426,75.2116 143.926,61.0449 153,46.5C 166.121,33.1665 180.955,30.9999 197.5,40C 210.849,51.8281 214.349,65.9947 208,82.5C 213.819,75.5213 220.652,69.8546 228.5,65.5C 212.302,45.211 213.302,25.711 231.5,7C 236.313,3.92666 241.313,1.42666 246.5,-0.5 Z M 249.5,15.5 C 268.772,14.2722 277.939,23.2722 277,42.5C 270.925,57.7845 260.092,62.6178 244.5,57C 232.867,48.3991 230.367,37.5658 237,24.5C 240.299,20.1179 244.466,17.1179 249.5,15.5 Z M 174.5,50.5 C 186.096,49.7593 193.096,55.0926 195.5,66.5C 193.769,78.0693 187.103,83.5693 175.5,83C 163.046,78.3236 159.546,69.8236 165,57.5C 167.825,54.524 170.992,52.1907 174.5,50.5 Z M 328.5,50.5 C 342.315,50.1472 348.815,56.8138 348,70.5C 343.427,82.3582 335.261,85.8582 323.5,81C 314.158,73.273 313.158,64.6064 320.5,55C 323.099,53.205 325.766,51.705 328.5,50.5 Z M 306.5,87.5 C 307.289,87.7828 307.956,88.2828 308.5,89C 307.184,89.5281 306.517,89.0281 306.5,87.5 Z M 172.5,99.5 C 181.434,98.6503 189.767,100.484 197.5,105C 196.751,106.734 196.251,108.567 196,110.5C 195.5,129.83 195.333,149.164 195.5,168.5C 178.5,168.5 161.5,168.5 144.5,168.5C 144.333,155.163 144.5,141.829 145,128.5C 148.569,113.433 157.736,103.766 172.5,99.5 Z M 325.5,99.5 C 349.052,98.34 362.552,109.34 366,132.5C 366.5,144.495 366.667,156.495 366.5,168.5C 349.5,168.5 332.5,168.5 315.5,168.5C 315.667,149.83 315.5,131.164 315,112.5C 314.713,110.109 314.213,107.776 313.5,105.5C 317.324,102.921 321.324,100.921 325.5,99.5 Z"/></g>
<g><path style="opacity:0.94" fill="#000000" d="M 406.5,511.5 C 357.5,511.5 308.5,511.5 259.5,511.5C 258.152,510.399 256.652,509.399 255,508.5C 253.348,509.399 251.848,510.399 250.5,511.5C 201.833,511.5 153.167,511.5 104.5,511.5C 101.979,509.981 99.4795,508.314 97,506.5C 95.4138,504.33 94.0804,501.996 93,499.5C 92.3333,464.167 92.3333,428.833 93,393.5C 96.3522,384.566 102.852,380.233 112.5,380.5C 109.838,364.014 104.672,348.348 97,333.5C 74.7212,301.555 52.0545,269.888 29,238.5C 23.9631,230.088 20.2964,221.088 18,211.5C 16.37,179.206 16.0367,146.873 17,114.5C 24.5865,94.4565 38.7532,87.2898 59.5,93C 62.9411,94.776 66.1078,96.9426 69,99.5C 88.8847,91.5738 103.551,97.2404 113,116.5C 115,123.5 115,130.5 113,137.5C 105,160.167 97,182.833 89,205.5C 88.3333,207.167 88.3333,208.833 89,210.5C 91,212.5 93,214.5 95,216.5C 101.707,200.226 113.874,192.726 131.5,194C 136.519,194.673 141.186,196.34 145.5,199C 163.279,216.779 181.113,234.613 199,252.5C 210.035,263.867 220.702,275.534 231,287.5C 235.179,293.535 237.845,300.202 239,307.5C 239.5,331.831 239.667,356.164 239.5,380.5C 244.966,380.014 250.132,381.014 255,383.5C 259.9,381.158 265.067,380.158 270.5,380.5C 270.091,355.472 270.591,330.472 272,305.5C 274.418,296.663 278.418,288.663 284,281.5C 310.5,254.333 337,227.167 363.5,200C 381.372,189.593 397.205,192.093 411,207.5C 412.92,210.339 414.587,213.339 416,216.5C 418.948,214.225 421.114,211.391 422.5,208C 413.799,183.564 405.299,159.064 397,134.5C 394.567,111.934 404.567,98.9337 427,95.5C 432.321,95.7723 437.321,97.1056 442,99.5C 455.395,88.3684 469.229,87.8684 483.5,98C 488.913,102.655 492.413,108.488 494,115.5C 494.667,144.833 494.667,174.167 494,203.5C 492.238,216.453 487.905,228.453 481,239.5C 458.946,269.221 437.279,299.221 416,329.5C 406.871,345.387 401.038,362.387 398.5,380.5C 408.654,380.154 415.154,384.821 418,394.5C 418.667,413.5 418.667,432.5 418,451.5C 414.702,456.774 410.369,457.774 405,454.5C 404.333,453.167 403.667,451.833 403,450.5C 402.501,445.511 402.334,440.511 402.5,435.5C 356.167,435.5 309.833,435.5 263.5,435.5C 263.174,455.409 263.507,475.243 264.5,495C 309.416,496.656 354.416,496.989 399.5,496C 400.416,495.626 401.25,495.126 402,494.5C 402.333,490.167 402.667,485.833 403,481.5C 405.477,475.55 409.643,474.05 415.5,477C 416.701,477.903 417.535,479.069 418,480.5C 421.891,494.022 418.057,504.356 406.5,511.5 Z M 172.5,99.5 C 157.736,103.766 148.569,113.433 145,128.5C 144.5,141.829 144.333,155.163 144.5,168.5C 161.5,168.5 178.5,168.5 195.5,168.5C 195.333,149.164 195.5,129.83 196,110.5C 196.251,108.567 196.751,106.734 197.5,105C 189.767,100.484 181.434,98.6503 172.5,99.5 Z M 325.5,99.5 C 321.324,100.921 317.324,102.921 313.5,105.5C 314.213,107.776 314.713,110.109 315,112.5C 315.5,131.164 315.667,149.83 315.5,168.5C 332.5,168.5 349.5,168.5 366.5,168.5C 366.667,156.495 366.5,144.495 366,132.5C 362.552,109.34 349.052,98.34 325.5,99.5 Z M 46.5,106.5 C 53.8232,107.082 58.9898,110.749 62,117.5C 62.0502,146.201 62.7169,174.868 64,203.5C 65.497,207.165 67.497,210.498 70,213.5C 94.7607,242.264 120.261,270.431 146.5,298C 156.698,299.432 160.198,295.265 157,285.5C 142.966,271.134 129.3,256.468 116,241.5C 107.559,232.474 107.392,223.308 115.5,214C 122.604,208.594 129.937,208.26 137.5,213C 164.364,240.196 190.864,267.696 217,295.5C 219.551,299.935 221.551,304.601 223,309.5C 223.5,333.164 223.667,356.831 223.5,380.5C 191.833,380.5 160.167,380.5 128.5,380.5C 126.188,360.251 120.021,341.251 110,323.5C 89.0542,293.554 67.7209,263.888 46,234.5C 37.153,222.293 32.4863,208.626 32,193.5C 31.3333,169.833 31.3333,146.167 32,122.5C 33.2687,113.739 38.102,108.406 46.5,106.5 Z M 461.5,106.5 C 469.827,106.736 475.327,110.736 478,118.5C 478.667,146.167 478.667,173.833 478,201.5C 476.072,214.014 471.406,225.348 464,235.5C 441.557,265.277 419.891,295.61 399,326.5C 389.782,343.376 384.282,361.376 382.5,380.5C 350.5,380.5 318.5,380.5 286.5,380.5C 286.333,358.831 286.5,337.164 287,315.5C 287.648,306.884 290.648,299.217 296,292.5C 321.833,266 347.667,239.5 373.5,213C 383.512,207.555 392.012,209.388 399,218.5C 402.333,224.5 402.333,230.5 399,236.5C 384,252.833 369,269.167 354,285.5C 350.5,296.667 354.333,300.5 365.5,297C 393.292,268.201 419.792,238.368 445,207.5C 445.862,205.913 446.529,204.246 447,202.5C 447.333,175.167 447.667,147.833 448,120.5C 449.75,113.068 454.25,108.401 461.5,106.5 Z M 81.5,111.5 C 91.5164,112.02 97.1831,117.187 98.5,127C 92.4518,146.609 85.9518,166.109 79,185.5C 78.8236,161.457 78.3236,137.457 77.5,113.5C 78.9492,112.828 80.2825,112.161 81.5,111.5 Z M 424.5,111.5 C 427.568,111.547 430.568,112.047 433.5,113C 432.736,115.069 432.236,117.236 432,119.5C 431.667,140.833 431.333,162.167 431,183.5C 423.955,165.088 417.789,146.421 412.5,127.5C 413.115,119.561 417.115,114.227 424.5,111.5 Z M 109.5,396.5 C 154.835,396.333 200.168,396.5 245.5,397C 246,397.5 246.5,398 247,398.5C 247.5,405.492 247.666,412.492 247.5,419.5C 201.167,419.5 154.833,419.5 108.5,419.5C 108.201,411.747 108.534,404.08 109.5,396.5 Z M 265.5,396.5 C 310.501,396.333 355.501,396.5 400.5,397C 402.444,404.222 403.111,411.722 402.5,419.5C 356.167,419.5 309.833,419.5 263.5,419.5C 262.919,411.559 263.586,403.892 265.5,396.5 Z M 108.5,435.5 C 154.833,435.5 201.167,435.5 247.5,435.5C 247.667,454.836 247.5,474.17 247,493.5C 246.5,494.667 245.667,495.5 244.5,496C 199.138,496.818 153.805,496.651 108.5,495.5C 108.5,475.5 108.5,455.5 108.5,435.5 Z"/></g>
</svg>
