<?xml version="1.0" standalone="no"?>
<!DOCTYPE svg PUBLIC "-//W3C//DTD SVG 20010904//EN"
 "http://www.w3.org/TR/2001/REC-SVG-20010904/DTD/svg10.dtd">
<svg version="1.0" xmlns="http://www.w3.org/2000/svg"
 width="512.000000pt" height="512.000000pt" viewBox="0 0 512.000000 512.000000"
 preserveAspectRatio="xMidYMid meet">

<g transform="translate(0.000000,512.000000) scale(0.100000,-0.100000)"
fill="#000000" stroke="none">
<path d="M3245 5108 c-28 -16 -35 -28 -35 -64 0 -18 8 -38 20 -49 11 -10 20
-24 20 -30 0 -7 -18 -65 -41 -128 l-41 -116 -47 1 c-64 2 -116 -26 -145 -76
-14 -22 -63 -151 -110 -285 -48 -135 -88 -246 -89 -247 -2 -2 -31 37 -66 85
-304 431 -834 661 -1356 586 -605 -86 -1078 -531 -1206 -1135 -29 -138 -32
-388 -6 -530 83 -449 373 -829 792 -1038 139 -69 418 -142 469 -123 48 19 62
85 25 120 -12 11 -49 24 -87 31 -276 50 -491 161 -688 355 -450 442 -510 1135
-143 1649 279 389 756 592 1228 521 260 -39 503 -160 697 -347 453 -438 520
-1122 160 -1648 -64 -95 -209 -241 -306 -309 -145 -103 -355 -190 -532 -221
-70 -13 -92 -28 -103 -71 -10 -39 30 -81 75 -81 88 1 294 59 425 121 l80 37
35 -38 c30 -32 56 -46 175 -88 163 -59 227 -70 272 -47 43 23 78 68 98 127 12
37 22 50 36 50 28 0 69 44 69 73 0 13 -8 35 -19 48 -19 24 -18 25 33 169 29
80 69 193 90 252 l38 108 41 11 c73 19 107 66 161 222 27 75 52 137 56 137 4
0 33 -9 65 -20 63 -22 135 -26 165 -10 15 8 29 1 73 -35 78 -63 123 -120 149
-184 19 -48 22 -81 26 -243 l4 -186 -115 -4 c-109 -3 -118 -5 -159 -33 -27
-19 -52 -48 -68 -80 -25 -50 -25 -50 -28 -387 l-3 -338 -724 0 c-398 0 -731
-3 -740 -6 -24 -10 -46 -60 -39 -89 8 -32 40 -55 76 -55 l28 0 0 -111 c0 -128
17 -173 80 -212 34 -22 43 -22 438 -25 l403 -3 104 -132 c58 -73 105 -135 105
-139 0 -5 -278 -8 -619 -8 l-618 0 -33 -23 c-70 -47 -75 -63 -75 -222 0 -130
2 -146 21 -172 42 -57 79 -73 169 -73 l82 0 5 -83 c7 -118 51 -192 148 -243
33 -18 85 -19 1147 -22 1101 -2 1112 -2 1166 18 61 23 119 79 144 138 8 20 18
72 21 114 l5 78 74 0 c90 0 131 16 169 66 29 37 29 38 29 179 0 141 0 142 -29
179 -36 48 -79 66 -156 66 l-60 0 0 278 c0 266 -1 279 -20 300 -30 32 -82 30
-109 -4 -20 -26 -21 -39 -21 -300 l0 -274 -505 0 -505 0 -1 333 c0 182 -1 357
-1 387 -1 559 3 719 18 734 14 14 72 16 488 16 445 0 474 -1 489 -18 15 -16
17 -52 17 -304 0 -273 1 -286 21 -312 27 -34 79 -36 109 -4 19 21 20 34 20
322 0 339 -3 351 -75 414 -52 46 -73 52 -181 52 l-94 0 0 183 c0 271 -30 417
-118 577 -85 155 -186 257 -469 474 -1 1 2 19 7 39 17 78 -27 153 -108 183
-26 9 -61 23 -79 30 l-31 12 67 190 c37 104 71 203 74 219 7 38 -7 93 -33 126
l-20 25 46 130 46 130 39 6 c30 5 42 13 54 36 19 36 11 76 -19 95 -25 16 -558
205 -577 205 -8 0 -23 -6 -34 -12z m276 -228 c62 -22 114 -42 116 -44 4 -3
-45 -150 -76 -228 l-10 -27 -113 40 c-62 22 -116 44 -120 48 -4 3 8 49 26 101
47 131 55 150 60 150 3 0 56 -18 117 -40z m-161 -390 c123 -44 227 -84 231
-88 6 -6 -495 -1438 -514 -1469 -5 -8 -28 -4 -83 14 -61 20 -74 28 -69 42 4 9
13 45 20 81 54 253 40 509 -41 749 l-34 104 106 301 c59 165 111 311 115 324
5 12 17 22 26 22 10 0 119 -36 243 -80z m273 -705 c20 -8 37 -21 37 -28 0 -10
-107 -319 -175 -504 -3 -9 -21 -6 -64 10 -34 12 -61 26 -61 30 0 7 130 381
175 506 6 15 29 11 88 -14z m227 -321 c178 -142 247 -221 310 -358 64 -137 72
-185 77 -428 l5 -218 -151 0 -151 0 0 169 c0 92 -4 190 -9 217 -25 132 -100
249 -220 343 l-69 55 52 148 c28 81 53 148 56 148 3 0 48 -34 100 -76z m-958
-642 c14 -6 5 -38 -68 -245 -46 -131 -87 -244 -91 -251 -6 -11 -25 -7 -90 16
l-82 30 57 67 c76 88 162 218 208 314 20 42 39 77 43 76 3 0 13 -3 23 -7z
m-225 -647 c9 -3 8 -15 -3 -50 -9 -25 -19 -45 -22 -45 -4 0 -67 21 -139 46
-147 52 -158 63 -101 107 l31 25 111 -39 c61 -22 116 -41 123 -44z m233 -805
l0 -100 -362 2 -363 3 -3 98 -3 97 366 0 365 0 0 -100z m520 -215 l0 -315 -33
0 c-32 0 -43 12 -185 192 l-152 191 0 124 0 123 185 0 185 0 0 -315z m1420
-560 l0 -95 -1445 0 -1445 0 0 95 0 95 1445 0 1445 0 0 -95z m-282 -297 c2
-25 -4 -62 -12 -81 -30 -72 47 -68 -1166 -65 l-1090 3 -27 27 c-23 24 -28 38
-31 98 l-4 70 1163 -2 1164 -3 3 -47z"/>
<path d="M1495 4563 c-506 -25 -949 -373 -1089 -854 -38 -133 -49 -234 -43
-393 11 -289 118 -546 318 -760 497 -532 1363 -491 1808 85 315 406 336 963
54 1388 -117 176 -306 338 -494 425 -167 77 -373 117 -554 109z m175 -158
c258 -19 544 -183 710 -405 152 -206 219 -422 207 -678 -16 -358 -202 -666
-516 -852 -292 -174 -674 -185 -986 -30 -272 135 -474 387 -551 690 -29 114
-27 384 4 498 102 376 388 660 760 757 65 16 227 34 272 29 14 -2 59 -6 100
-9z"/>
<path d="M1935 4111 c-151 -69 -185 -280 -63 -387 53 -46 117 -68 182 -61 64
6 101 24 144 68 86 88 93 215 17 314 -57 76 -191 107 -280 66z m146 -144 c46
-35 47 -101 2 -137 -84 -65 -183 49 -110 128 23 25 81 30 108 9z"/>
<path d="M1280 3996 c-73 -16 -127 -45 -179 -97 -175 -175 -122 -472 102 -575
54 -25 74 -29 152 -29 77 0 98 4 147 27 190 89 264 320 160 505 -71 128 -237
201 -382 169z m170 -166 c180 -91 127 -371 -74 -388 -116 -9 -201 53 -227 168
-22 95 49 209 146 235 56 15 104 11 155 -15z"/>
<path d="M1859 3557 c-89 -33 -149 -117 -149 -206 1 -194 248 -285 377 -138
87 99 62 256 -51 322 -53 31 -127 40 -177 22z m96 -149 c58 -26 38 -111 -27
-116 -28 -2 -40 2 -52 20 -23 33 -20 64 10 87 31 24 35 25 69 9z"/>
<path d="M893 3288 c-63 -13 -122 -71 -138 -134 -33 -130 54 -244 185 -244
113 0 190 79 190 195 0 123 -113 210 -237 183z m82 -188 c0 -32 -3 -35 -32
-38 -39 -4 -60 25 -43 59 9 15 19 19 43 17 29 -3 32 -6 32 -38z"/>
<path d="M1413 3129 c-140 -55 -228 -224 -193 -370 47 -193 247 -298 434 -228
165 61 249 269 174 431 -31 66 -91 128 -156 160 -66 32 -187 36 -259 7z m206
-150 c57 -32 86 -82 86 -149 0 -98 -72 -170 -170 -170 -93 0 -162 62 -172 154
-15 134 137 232 256 165z"/>
<path d="M2090 3053 c-8 -3 -34 -24 -57 -46 -34 -32 -43 -48 -43 -74 0 -42 30
-73 71 -73 44 0 119 74 119 118 0 49 -49 90 -90 75z"/>
</g>
</svg>
