<?xml version="1.0" standalone="no"?>
<!DOCTYPE svg PUBLIC "-//W3C//DTD SVG 20010904//EN"
 "http://www.w3.org/TR/2001/REC-SVG-20010904/DTD/svg10.dtd">
<svg version="1.0" xmlns="http://www.w3.org/2000/svg"
 width="512.000000pt" height="512.000000pt" viewBox="0 0 512.000000 512.000000"
 preserveAspectRatio="xMidYMid meet">

<g transform="translate(0.000000,512.000000) scale(0.100000,-0.100000)"
fill="#000000" stroke="none">
<path d="M825 5101 c-40 -24 -61 -49 -80 -94 -13 -32 -15 -299 -15 -2437 0
-2144 2 -2405 15 -2438 21 -49 52 -81 100 -103 36 -17 70 -19 356 -19 305 0
317 1 343 21 36 28 36 80 0 108 -26 20 -38 21 -333 21 -226 0 -310 3 -319 12
-17 17 -17 4779 0 4796 9 9 130 12 485 12 l473 0 14 -22 c7 -13 17 -48 20 -78
4 -30 16 -98 28 -151 l21 -96 -51 -67 c-197 -256 -292 -562 -279 -891 16 -365
160 -690 421 -950 202 -201 416 -316 699 -377 145 -31 419 -31 559 0 121 26
232 64 321 109 l67 33 68 -54 68 -55 -13 -73 c-31 -173 25 -358 143 -471 l52
-51 -35 -100 c-141 -405 -380 -682 -697 -805 -136 -53 -233 -72 -408 -78 -176
-7 -223 0 -526 73 -136 33 -232 52 -248 48 -29 -8 -54 -40 -54 -72 0 -49 34
-65 243 -116 l198 -48 -3 -254 c-3 -213 -5 -256 -18 -264 -9 -6 -144 -10 -316
-10 -288 0 -301 -1 -322 -20 -30 -28 -30 -82 0 -110 22 -20 30 -21 349 -18
l326 3 41 28 c23 15 52 46 64 70 22 40 23 55 26 295 l4 254 24 -6 c42 -11 317
-8 389 4 294 49 523 172 728 389 153 163 266 366 357 639 38 115 65 175 110
249 74 120 95 178 87 246 -11 92 -65 147 -192 197 -104 41 -158 71 -228 128
-37 30 -69 58 -72 62 -2 4 28 31 66 60 189 144 361 387 448 633 34 96 71 264
71 321 0 46 -29 76 -73 76 -49 0 -65 -25 -83 -124 -49 -282 -162 -505 -354
-696 -221 -222 -498 -346 -815 -366 -234 -15 -503 50 -704 170 -443 265 -678
755 -606 1261 65 461 395 858 836 1006 192 64 398 83 584 55 525 -82 930 -459
1044 -973 11 -46 27 -93 37 -104 38 -42 124 -11 124 45 0 79 -65 287 -131 418
-188 374 -501 622 -932 740 -74 21 -104 23 -322 23 -257 0 -261 -1 -450 -62
-147 -47 -343 -157 -448 -250 -20 -18 -41 -33 -46 -33 -5 0 -16 51 -26 113
-20 129 -40 176 -92 212 l-38 25 -525 0 c-494 0 -527 -1 -555 -19z m3235
-2861 c105 -45 116 -63 80 -140 -13 -27 -40 -75 -60 -105 l-37 -56 -28 33
c-56 66 -93 191 -80 274 5 35 9 42 23 37 9 -4 55 -23 102 -43z"/>
<path d="M2845 4885 c-114 -16 -169 -30 -273 -71 -160 -63 -288 -150 -417
-285 -215 -225 -318 -486 -318 -804 0 -256 58 -447 202 -665 45 -68 178 -209
251 -265 328 -252 769 -311 1155 -156 152 61 293 159 410 282 428 452 428
1156 0 1608 -194 205 -438 327 -725 361 -105 12 -170 11 -285 -5z m308 -150
c174 -26 321 -87 462 -192 436 -324 541 -931 239 -1384 -207 -312 -587 -492
-949 -450 -137 16 -230 42 -350 101 -271 131 -463 367 -541 665 -23 87 -27
120 -27 250 0 130 4 163 27 250 75 285 256 516 509 650 103 55 214 92 325 110
116 18 188 18 305 0z"/>
<path d="M3400 4463 c-8 -3 -34 -19 -57 -34 -140 -96 -124 -317 29 -393 158
-79 338 29 338 204 0 94 -57 179 -142 214 -36 15 -137 20 -168 9z m139 -169
c28 -36 27 -79 -4 -109 -60 -61 -164 3 -134 82 14 37 38 52 81 53 28 0 41 -6
57 -26z"/>
<path d="M2727 4340 c-60 -15 -116 -48 -164 -96 -155 -156 -132 -413 49 -537
147 -101 343 -78 462 54 157 174 98 458 -114 553 -67 30 -170 42 -233 26z
m169 -159 c80 -37 134 -139 115 -221 -24 -105 -102 -170 -207 -170 -48 0 -128
46 -160 92 -25 36 -29 50 -29 113 0 92 29 140 106 179 63 31 117 33 175 7z"/>
<path d="M3285 3896 c-59 -27 -77 -46 -104 -106 -28 -62 -26 -115 5 -179 65
-129 232 -156 336 -54 104 101 77 272 -53 337 -66 32 -118 33 -184 2z m138
-158 c17 -23 19 -31 9 -53 -6 -14 -23 -31 -37 -37 -22 -10 -30 -8 -53 9 -35
26 -40 65 -12 93 28 28 67 23 93 -12z"/>
<path d="M2325 3631 c-65 -29 -115 -104 -115 -171 0 -37 24 -94 53 -127 39
-44 82 -63 142 -63 60 0 103 19 142 63 29 33 53 90 53 127 0 98 -94 190 -195
190 -22 0 -58 -9 -80 -19z m117 -156 c8 -19 8 -28 -2 -40 -32 -38 -94 1 -70
45 16 29 58 26 72 -5z"/>
<path d="M2871 3488 c-66 -25 -137 -93 -171 -163 -34 -70 -35 -188 -2 -260 44
-96 133 -165 235 -184 272 -49 472 247 325 481 -81 129 -243 181 -387 126z
m203 -151 c46 -26 86 -93 86 -145 0 -105 -114 -192 -212 -163 -75 23 -128 90
-128 164 0 18 10 53 23 77 42 84 148 115 231 67z"/>
<path d="M3515 3401 c-44 -26 -85 -78 -85 -107 0 -32 42 -74 75 -74 28 0 110
69 121 102 10 31 -14 76 -48 87 -17 6 -31 11 -32 11 -1 0 -15 -8 -31 -19z"/>
</g>
</svg>
