<?xml version="1.0" encoding="UTF-8"?>
<!DOCTYPE svg PUBLIC "-//W3C//DTD SVG 1.1//EN" "http://www.w3.org/Graphics/SVG/1.1/DTD/svg11.dtd">
<svg xmlns="http://www.w3.org/2000/svg" version="1.1" width="512px" height="512px" style="shape-rendering:geometricPrecision; text-rendering:geometricPrecision; image-rendering:optimizeQuality; fill-rule:evenodd; clip-rule:evenodd" xmlns:xlink="http://www.w3.org/1999/xlink">
<g><path style="opacity:0.931" fill="#000000" d="M -0.5,375.5 C -0.5,340.167 -0.5,304.833 -0.5,269.5C 2.42918,232.106 10.5958,195.772 24,160.5C 34.6116,134.239 51.445,113.073 74.5,97C 93.723,86.0222 114.39,81.0222 136.5,82C 151.676,85.1573 161.843,93.9906 167,108.5C 168.259,125.122 168.925,141.789 169,158.5C 173.164,156.419 177.164,154.086 181,151.5C 181.333,106.5 181.667,61.5 182,16.5C 189.237,1.98886 200.07,-1.51114 214.5,6C 218.104,8.70757 220.604,12.2076 222,16.5C 222.667,36.1667 222.667,55.8333 222,75.5C 220.471,78.516 217.971,79.8494 214.5,79.5C 211.675,79.8809 209.509,78.8809 208,76.5C 206.718,57.8851 206.052,39.2185 206,20.5C 203.333,17.8333 200.667,17.8333 198,20.5C 197.98,66.879 197.313,113.212 196,159.5C 194.093,163.039 191.26,165.539 187.5,167C 166.339,178.413 145.339,190.08 124.5,202C 120.739,202.738 117.072,202.405 113.5,201C 101.047,195.607 88.7138,189.94 76.5,184C 73.3779,182.096 70.0445,181.429 66.5,182C 63.8333,184.667 63.8333,187.333 66.5,190C 74.2882,193.394 81.9549,197.061 89.5,201C 95.1423,206.432 95.9756,212.599 92,219.5C 80.4118,226.712 68.5785,233.546 56.5,240C 53.344,244.209 54.1773,247.376 59,249.5C 102.823,224.92 146.823,200.587 191,176.5C 202.967,173.158 214.133,174.992 224.5,182C 254.005,198.92 283.672,215.587 313.5,232C 318.333,232.063 322.999,231.063 327.5,229C 322.083,226.21 316.916,223.043 312,219.5C 308.024,212.599 308.858,206.432 314.5,201C 322.167,197.333 329.833,193.667 337.5,190C 341.167,184 339.5,181.333 332.5,182C 318.5,188.333 304.5,194.667 290.5,201C 287.262,202.368 283.928,202.701 280.5,202C 256.628,189.481 233.128,176.314 210,162.5C 208.438,160.043 207.438,157.376 207,154.5C 206.333,138.5 206.333,122.5 207,106.5C 208.465,100.347 212.298,98.1802 218.5,100C 220.333,100.5 221.5,101.667 222,103.5C 222.333,119.5 222.667,135.5 223,151.5C 226.836,154.086 230.836,156.419 235,158.5C 235.333,143.167 235.667,127.833 236,112.5C 242.081,89.8574 256.914,79.6908 280.5,82C 314.106,84.7171 340.94,99.5504 361,126.5C 380.876,156.948 393.542,190.281 399,226.5C 462.406,244.238 499.406,285.571 510,350.5C 514.219,411.564 490.719,458.397 439.5,491C 391.508,516.998 343.508,516.998 295.5,491C 240.078,455.149 217.244,404.316 227,338.5C 228.741,329.532 231.408,320.865 235,312.5C 235.833,277.162 235.667,241.829 234.5,206.5C 224.229,199.947 213.395,194.614 202,190.5C 199.815,190.921 197.649,191.421 195.5,192C 186.706,196.633 178.039,201.466 169.5,206.5C 168.961,242.862 168.128,279.195 167,315.5C 159.775,343.058 142.609,361.225 115.5,370C 103.897,371.84 92.2302,373.173 80.5,374C 65.2343,376.966 51.9009,383.633 40.5,394C 30.3356,401.846 19.6689,402.513 8.5,396C 2.85808,390.213 -0.141916,383.38 -0.5,375.5 Z M 123.5,97.5 C 136.121,95.7257 145.287,100.392 151,111.5C 152.13,121.43 152.63,131.43 152.5,141.5C 152.167,150.5 151.833,159.5 151.5,168.5C 141.114,174.693 130.447,180.36 119.5,185.5C 104.505,179.003 89.505,172.503 74.5,166C 54.1658,165.003 45.9991,174.503 50,194.5C 51.3999,197.902 53.5665,200.736 56.5,203C 62.1444,205.822 67.8111,208.656 73.5,211.5C 63.0814,217.458 52.9147,223.791 43,230.5C 35.2489,243.385 37.4155,254.219 49.5,263C 55.0392,265.805 60.7059,266.138 66.5,264C 94.8333,248.167 123.167,232.333 151.5,216.5C 152.667,246.828 152.833,277.161 152,307.5C 148.708,328.246 137.541,343.079 118.5,352C 107.821,355.688 96.8207,357.355 85.5,357C 62.906,359.8 43.2393,368.8 26.5,384C 22.328,385.291 19.1613,384.124 17,380.5C 15.9192,373.209 15.2525,365.876 15,358.5C 12.5434,313.561 14.8767,268.894 22,224.5C 27.2713,190.315 39.938,159.315 60,131.5C 76.9719,112.101 98.1386,100.767 123.5,97.5 Z M 268.5,97.5 C 302.309,97.1548 329.142,110.488 349,137.5C 366.049,163.967 377.215,192.8 382.5,224C 372.181,223.395 361.848,223.395 351.5,224C 344.663,219.747 337.663,215.747 330.5,212C 336.04,208.73 341.707,205.73 347.5,203C 355.512,195.726 357.679,186.893 354,176.5C 348.293,167.399 340.126,163.899 329.5,166C 314.495,172.503 299.495,179.003 284.5,185.5C 273.856,179.872 263.19,174.206 252.5,168.5C 251.334,150.509 251.167,132.509 252,114.5C 254.314,105.687 259.814,100.02 268.5,97.5 Z M 251.5,216.5 C 266.94,224.722 282.273,233.222 297.5,242C 278.907,251.589 263.741,265.089 252,282.5C 251.5,260.503 251.333,238.503 251.5,216.5 Z M 356.5,239.5 C 421.55,238.425 465.716,268.092 489,328.5C 501.989,375.867 492.322,417.867 460,454.5C 418.732,493.888 371.232,503.721 317.5,484C 263.615,457.386 238.115,413.886 241,353.5C 249.328,299.512 279.162,263.345 330.5,245C 339.193,242.613 347.86,240.78 356.5,239.5 Z M 412.5,306.5 C 420.656,305.821 424.156,309.488 423,317.5C 417.67,324.311 412.67,323.977 408,316.5C 407.596,312.308 409.096,308.975 412.5,306.5 Z M 346.5,318.5 C 361.755,319.919 368.921,328.252 368,343.5C 362.98,357.194 353.48,362.027 339.5,358C 325.179,347.768 323.846,336.101 335.5,323C 339.053,320.879 342.72,319.379 346.5,318.5 Z M 403.5,362.5 C 410.009,363.207 412.176,366.54 410,372.5C 402.33,376.333 398.997,373.999 400,365.5C 401.145,364.364 402.312,363.364 403.5,362.5 Z M 304.5,390.5 C 310.016,390.473 311.349,392.64 308.5,397C 302.738,397.418 301.404,395.251 304.5,390.5 Z M 361.5,404.5 C 373.839,403.341 381.173,408.841 383.5,421C 379.843,435.995 370.843,440.662 356.5,435C 349.128,428.344 347.628,420.51 352,411.5C 354.529,408.115 357.696,405.782 361.5,404.5 Z"/></g>
<g><path style="opacity:0.926" fill="#000000" d="M 366.5,246.5 C 418.397,248.678 455.564,273.011 478,319.5C 497.472,374.108 485.972,420.941 443.5,460C 426.275,473.526 406.775,482.026 385,485.5C 378.099,484.25 375.766,480.25 378,473.5C 379.214,471.951 380.714,470.785 382.5,470C 437.003,457.334 466.67,423.167 471.5,367.5C 468.888,318.739 444.888,285.572 399.5,268C 350.589,255.634 311.089,269.467 281,309.5C 255.799,353.008 258.466,394.675 289,434.5C 306.988,454.081 329.155,466.248 355.5,471C 357.429,474.256 357.929,477.756 357,481.5C 355.786,483.049 354.286,484.215 352.5,485C 305.716,477.9 273.216,452.4 255,408.5C 237.963,351.289 252.796,304.455 299.5,268C 319.969,254.676 342.303,247.509 366.5,246.5 Z M 412.5,306.5 C 409.096,308.975 407.596,312.308 408,316.5C 412.67,323.977 417.67,324.311 423,317.5C 424.156,309.488 420.656,305.821 412.5,306.5 Z M 346.5,318.5 C 342.72,319.379 339.053,320.879 335.5,323C 323.846,336.101 325.179,347.768 339.5,358C 353.48,362.027 362.98,357.194 368,343.5C 368.921,328.252 361.755,319.919 346.5,318.5 Z M 403.5,362.5 C 402.312,363.364 401.145,364.364 400,365.5C 398.997,373.999 402.33,376.333 410,372.5C 412.176,366.54 410.009,363.207 403.5,362.5 Z M 304.5,390.5 C 301.404,395.251 302.738,397.418 308.5,397C 311.349,392.64 310.016,390.473 304.5,390.5 Z M 361.5,404.5 C 357.696,405.782 354.529,408.115 352,411.5C 347.628,420.51 349.128,428.344 356.5,435C 370.843,440.662 379.843,435.995 383.5,421C 381.173,408.841 373.839,403.341 361.5,404.5 Z"/></g>
<g><path style="opacity:0.927" fill="#000000" d="M 409.5,290.5 C 427.412,288.748 437.745,296.748 440.5,314.5C 437.967,331.866 427.967,339.7 410.5,338C 392.903,331.225 387.736,319.058 395,301.5C 398.857,296.468 403.69,292.801 409.5,290.5 Z M 412.5,306.5 C 409.096,308.975 407.596,312.308 408,316.5C 412.67,323.977 417.67,324.311 423,317.5C 424.156,309.488 420.656,305.821 412.5,306.5 Z"/></g>
<g><path style="opacity:0.928" fill="#000000" d="M 346.5,302.5 C 367.187,303.738 379.687,314.405 384,334.5C 385.396,355.757 375.896,369.257 355.5,375C 332.027,377.521 317.527,367.354 312,344.5C 311.029,320.053 322.529,306.053 346.5,302.5 Z M 346.5,318.5 C 342.72,319.379 339.053,320.879 335.5,323C 323.846,336.101 325.179,347.768 339.5,358C 353.48,362.027 362.98,357.194 368,343.5C 368.921,328.252 361.755,319.919 346.5,318.5 Z"/></g>
<g><path style="opacity:0.929" fill="#000000" d="M 401.5,346.5 C 418.633,346.799 427.133,355.466 427,372.5C 420.993,389.956 409.493,394.789 392.5,387C 382.672,377.986 380.838,367.486 387,355.5C 391.053,351.066 395.886,348.066 401.5,346.5 Z M 403.5,362.5 C 402.312,363.364 401.145,364.364 400,365.5C 398.997,373.999 402.33,376.333 410,372.5C 412.176,366.54 410.009,363.207 403.5,362.5 Z"/></g>
<g><path style="opacity:0.929" fill="#000000" d="M 305.5,373.5 C 320.389,375.297 327.223,383.631 326,398.5C 320.214,412.991 310.048,417.157 295.5,411C 283.5,399.667 283.5,388.333 295.5,377C 298.85,375.514 302.184,374.347 305.5,373.5 Z M 304.5,390.5 C 301.404,395.251 302.738,397.418 308.5,397C 311.349,392.64 310.016,390.473 304.5,390.5 Z"/></g>
<g><path style="opacity:0.928" fill="#000000" d="M 358.5,388.5 C 382.391,386.567 396.058,397.4 399.5,421C 396.08,444.751 382.413,455.417 358.5,453C 339.326,446.798 331.159,433.631 334,413.5C 337.683,400.651 345.85,392.318 358.5,388.5 Z M 361.5,404.5 C 357.696,405.782 354.529,408.115 352,411.5C 347.628,420.51 349.128,428.344 356.5,435C 370.843,440.662 379.843,435.995 383.5,421C 381.173,408.841 373.839,403.341 361.5,404.5 Z"/></g>
<g><path style="opacity:0.878" fill="#000000" d="M 422.5,397.5 C 429.185,398.208 432.019,401.875 431,408.5C 428.537,411.965 425.704,415.131 422.5,418C 414.346,419.836 410.512,416.669 411,408.5C 413.437,403.226 417.271,399.56 422.5,397.5 Z"/></g>
</svg>
