<?xml version="1.0" standalone="no"?>
<!DOCTYPE svg PUBLIC "-//W3C//DTD SVG 20010904//EN"
 "http://www.w3.org/TR/2001/REC-SVG-20010904/DTD/svg10.dtd">
<svg version="1.0" xmlns="http://www.w3.org/2000/svg"
 width="512.000000pt" height="512.000000pt" viewBox="0 0 512.000000 512.000000"
 preserveAspectRatio="xMidYMid meet">

<g transform="translate(0.000000,512.000000) scale(0.100000,-0.100000)"
fill="#000000" stroke="none">
<path d="M4145 5091 c-22 -10 -66 -46 -99 -79 -99 -101 -107 -203 -24 -297
l41 -47 -273 -273 -274 -274 -118 115 c-64 63 -133 121 -152 129 -41 17 -113
20 -151 5 -40 -15 -145 -120 -166 -165 -34 -73 -18 -158 39 -218 l26 -28
-1041 -1042 c-860 -860 -1047 -1052 -1070 -1097 -23 -47 -27 -67 -28 -140 0
-73 4 -94 29 -147 l28 -62 -46 -139 c-25 -77 -46 -153 -46 -169 0 -38 21 -89
54 -128 l25 -30 -450 -450 c-487 -488 -478 -477 -424 -530 53 -54 42 -63 530
425 l451 451 20 -22 c10 -11 38 -32 61 -46 64 -37 115 -33 270 20 l133 46 57
-27 c49 -23 71 -27 143 -27 73 1 93 5 140 28 45 23 237 210 1097 1070 l1042
1041 28 -26 c60 -57 145 -73 218 -39 45 21 150 126 165 166 15 38 12 110 -5
151 -8 19 -66 88 -129 153 l-115 117 89 89 c75 74 90 95 90 121 0 38 -36 74
-74 74 -20 0 -49 -21 -119 -90 l-93 -89 -202 202 -202 202 275 275 275 275
202 -202 203 -203 -72 -72 c-39 -40 -76 -83 -82 -95 -24 -46 14 -103 69 -103
18 0 48 23 107 82 l81 81 46 -40 c62 -55 120 -69 190 -49 42 13 65 29 118 83
73 77 94 122 84 191 -9 63 -29 92 -164 225 -107 106 -122 117 -155 117 -39 0
-77 -36 -77 -73 0 -12 49 -70 125 -147 76 -77 125 -135 125 -147 0 -22 -91
-113 -112 -113 -17 0 -748 731 -748 748 0 22 91 112 113 112 13 0 72 -51 158
-137 116 -115 143 -136 168 -136 43 0 71 28 71 71 0 32 -13 49 -137 174 -79
79 -155 147 -178 158 -51 25 -108 25 -160 1z m-433 -1388 c339 -339 528 -535
528 -548 0 -26 -79 -105 -105 -105 -27 0 -1075 1047 -1075 1075 0 26 79 105
105 105 13 0 196 -176 547 -527z m-227 -233 l380 -380 -65 -65 -65 -65 -382
382 -383 383 62 62 c34 35 65 63 68 63 3 0 176 -171 385 -380z m60 -700 l-85
-85 -67 67 c-38 36 -78 71 -90 77 -48 24 -103 -14 -103 -71 0 -22 18 -47 74
-106 l75 -77 -86 -87 -87 -87 -78 74 c-59 57 -85 75 -106 75 -57 0 -95 -55
-71 -103 6 -12 41 -52 77 -90 l67 -67 -88 -87 -87 -88 -67 67 c-38 36 -78 71
-90 77 -48 24 -103 -14 -103 -71 0 -21 18 -47 75 -106 l74 -78 -87 -87 -87
-86 -77 75 c-59 56 -84 74 -106 74 -57 0 -95 -55 -71 -103 6 -12 41 -52 77
-90 l67 -67 -88 -87 -87 -88 -67 67 c-38 36 -78 71 -90 77 -48 24 -103 -14
-103 -71 0 -21 18 -47 75 -106 l74 -78 -87 -87 -87 -86 -77 75 c-59 56 -84 74
-106 74 -57 0 -95 -55 -71 -103 6 -12 41 -52 77 -89 l66 -68 -59 -61 c-95 -97
-173 -121 -260 -79 -55 27 -569 543 -590 593 -19 46 -19 98 0 145 11 26 286
308 933 954 l917 918 382 -382 383 -383 -85 -85z m-2185 -1751 c0 -4 -42 -21
-92 -38 l-93 -31 -102 102 c-57 57 -103 107 -103 113 0 5 14 49 32 98 l31 89
164 -164 c89 -89 163 -166 163 -169z"/>
</g>
</svg>
