<?xml version="1.0" encoding="UTF-8"?>
<!DOCTYPE svg PUBLIC "-//W3C//DTD SVG 1.1//EN" "http://www.w3.org/Graphics/SVG/1.1/DTD/svg11.dtd">
<svg xmlns="http://www.w3.org/2000/svg" version="1.1" width="512px" height="512px" style="shape-rendering:geometricPrecision; text-rendering:geometricPrecision; image-rendering:optimizeQuality; fill-rule:evenodd; clip-rule:evenodd" xmlns:xlink="http://www.w3.org/1999/xlink">
<g><path style="opacity:0.951" fill="#000000" d="M 82.5,-0.5 C 118.833,-0.5 155.167,-0.5 191.5,-0.5C 195.01,1.35748 197.843,4.02414 200,7.5C 202.032,16.2764 204.198,24.9431 206.5,33.5C 226.708,15.7294 250.041,4.3961 276.5,-0.5C 292.167,-0.5 307.833,-0.5 323.5,-0.5C 387.301,13.9687 425.968,53.3021 439.5,117.5C 439.051,122.749 436.218,125.415 431,125.5C 428.594,125.297 426.594,124.297 425,122.5C 413.212,65.3804 379.046,29.8804 322.5,16C 277.089,9.46894 238.589,22.6356 207,55.5C 171.26,99.6207 165.593,147.287 190,198.5C 218.044,245.442 259.544,266.942 314.5,263C 356.796,256.784 388.629,235.284 410,198.5C 417.952,182.312 423.285,165.312 426,147.5C 429.529,143.963 433.363,143.63 437.5,146.5C 439.174,148.349 440.174,150.516 440.5,153C 435.204,195.284 415.538,228.95 381.5,254C 386.543,258.712 391.877,263.045 397.5,267C 405.833,270.667 414.167,274.333 422.5,278C 429.815,284.618 432.315,292.784 430,302.5C 425.538,312.088 420.538,321.421 415,330.5C 406.785,364.779 389.952,393.945 364.5,418C 334.035,442.12 299.368,451.62 260.5,446.5C 260.667,463.17 260.5,479.837 260,496.5C 258.264,503.237 254.097,507.737 247.5,510C 225.167,510.667 202.833,510.667 180.5,510C 175.167,505.333 175.167,500.667 180.5,496C 200.5,495.667 220.5,495.333 240.5,495C 241.624,494.751 242.624,494.251 243.5,493.5C 244.486,476.547 244.819,459.547 244.5,442.5C 231.045,439.908 217.712,436.742 204.5,433C 201.098,429.281 200.598,425.114 203,420.5C 206.256,418.571 209.756,418.071 213.5,419C 232.279,424.112 251.279,428.112 270.5,431C 322.918,433.555 361.084,411.722 385,365.5C 389.998,355.168 394.165,344.501 397.5,333.5C 379.795,317.21 373.629,297.21 379,273.5C 374.978,269.977 370.811,266.643 366.5,263.5C 331.874,280.789 295.874,284.289 258.5,274C 208.854,257.018 177.021,223.185 163,172.5C 152.49,126.045 162.324,84.5449 192.5,48C 189.794,37.267 187.46,26.4337 185.5,15.5C 184.624,14.7492 183.624,14.2492 182.5,14C 167.333,13.8333 152.167,13.6667 137,13.5C 121.078,13.3476 105.244,13.8476 89.5,15C 88.8742,15.7504 88.3742,16.5838 88,17.5C 87.3333,175.5 87.3333,333.5 88,491.5C 88.5,493.333 89.6667,494.5 91.5,495C 112.167,495.333 132.833,495.667 153.5,496C 158.833,500.667 158.833,505.333 153.5,510C 130.833,510.667 108.167,510.667 85.5,510C 79.3333,507.833 75.1667,503.667 73,497.5C 72.3333,335.5 72.3333,173.5 73,11.5C 74.8915,6.44706 78.0582,2.44706 82.5,-0.5 Z M 345.5,79.5 C 353.345,80.1552 356.179,84.1552 354,91.5C 350.756,95.7714 346.922,96.4381 342.5,93.5C 337.922,87.6343 338.922,82.9676 345.5,79.5 Z M 239.5,161.5 C 244.594,163.872 244.761,166.539 240,169.5C 235.544,167.031 235.377,164.365 239.5,161.5 Z M 295.5,175.5 C 309.828,175.994 315.995,183.327 314,197.5C 308.564,208.09 300.397,210.924 289.5,206C 282.044,199.356 280.544,191.522 285,182.5C 287.998,179.262 291.498,176.929 295.5,175.5 Z M 393.5,283.5 C 400.651,285.826 407.484,288.826 414,292.5C 414.667,294.833 414.667,297.167 414,299.5C 410.919,305.331 407.585,310.998 404,316.5C 395.426,307.229 391.926,296.229 393.5,283.5 Z"/></g>
<g><path style="opacity:0.928" fill="#000000" d="M 286.5,21.5 C 336.52,18.4259 375.02,37.7592 402,79.5C 422.667,119.167 422.667,158.833 402,198.5C 375.042,240.396 336.542,259.562 286.5,256C 233.511,247.346 199.678,217.179 185,165.5C 175.508,110.339 194.008,67.5057 240.5,37C 255.045,29.0967 270.378,23.93 286.5,21.5 Z M 287.5,37.5 C 331.921,34.6251 365.754,51.9585 389,89.5C 408.817,130.182 405.151,168.515 378,204.5C 349.259,235.856 314.092,246.69 272.5,237C 230.785,223.286 206.285,194.786 199,151.5C 195.635,107.061 212.802,73.2277 250.5,50C 262.309,43.8973 274.643,39.7307 287.5,37.5 Z M 345.5,79.5 C 338.922,82.9676 337.922,87.6343 342.5,93.5C 346.922,96.4381 350.756,95.7714 354,91.5C 356.179,84.1552 353.345,80.1552 345.5,79.5 Z M 275.5,92.5 C 292.44,91.6072 300.607,99.6072 300,116.5C 294.346,130.408 284.513,134.575 270.5,129C 259.999,120.822 258.166,110.989 265,99.5C 268.154,96.4884 271.654,94.1551 275.5,92.5 Z M 334.5,135.5 C 340.665,134.829 343.165,137.496 342,143.5C 338.619,147.485 335.286,147.485 332,143.5C 331.023,140.183 331.856,137.516 334.5,135.5 Z M 239.5,161.5 C 235.377,164.365 235.544,167.031 240,169.5C 244.761,166.539 244.594,163.872 239.5,161.5 Z M 295.5,175.5 C 291.498,176.929 287.998,179.262 285,182.5C 280.544,191.522 282.044,199.356 289.5,206C 300.397,210.924 308.564,208.09 314,197.5C 315.995,183.327 309.828,175.994 295.5,175.5 Z"/></g>
<g><path style="opacity:0.925" fill="#000000" d="M 342.5,63.5 C 358.059,62.3562 367.559,69.3562 371,84.5C 370.683,102.484 361.516,111.317 343.5,111C 328.273,107.082 321.773,97.2485 324,81.5C 326.891,71.9986 333.058,65.9986 342.5,63.5 Z M 345.5,79.5 C 338.922,82.9676 337.922,87.6343 342.5,93.5C 346.922,96.4381 350.756,95.7714 354,91.5C 356.179,84.1552 353.345,80.1552 345.5,79.5 Z"/></g>
<g><path style="opacity:0.927" fill="#000000" d="M 280.5,75.5 C 309.373,80.2364 320.54,96.9031 314,125.5C 303.832,145.452 287.999,151.952 266.5,145C 246.813,134.108 240.646,117.942 248,96.5C 255.033,83.5697 265.866,76.5697 280.5,75.5 Z M 275.5,92.5 C 271.654,94.1551 268.154,96.4884 265,99.5C 258.166,110.989 259.999,120.822 270.5,129C 284.513,134.575 294.346,130.408 300,116.5C 300.607,99.6072 292.44,91.6072 275.5,92.5 Z"/></g>
<g><path style="opacity:0.93" fill="#000000" d="M 330.5,119.5 C 350.377,117.676 359.543,126.676 358,146.5C 351.203,162.101 340.036,166.268 324.5,159C 315.116,150.951 312.949,141.118 318,129.5C 321.191,124.837 325.358,121.503 330.5,119.5 Z M 334.5,135.5 C 331.856,137.516 331.023,140.183 332,143.5C 335.286,147.485 338.619,147.485 342,143.5C 343.165,137.496 340.665,134.829 334.5,135.5 Z"/></g>
<g><path style="opacity:0.928" fill="#000000" d="M 238.5,145.5 C 254.426,146.931 261.259,155.598 259,171.5C 252.397,185.146 242.231,188.646 228.5,182C 219.654,173.727 218.154,164.227 224,153.5C 227.853,148.845 232.686,146.178 238.5,145.5 Z M 239.5,161.5 C 235.377,164.365 235.544,167.031 240,169.5C 244.761,166.539 244.594,163.872 239.5,161.5 Z"/></g>
<g><path style="opacity:0.929" fill="#000000" d="M 295.5,159.5 C 321.067,161.289 332.567,174.956 330,200.5C 323.533,218.654 310.7,226.488 291.5,224C 275.472,219.306 266.806,208.64 265.5,192C 267.438,173.567 277.438,162.733 295.5,159.5 Z M 295.5,175.5 C 291.498,176.929 287.998,179.262 285,182.5C 280.544,191.522 282.044,199.356 289.5,206C 300.397,210.924 308.564,208.09 314,197.5C 315.995,183.327 309.828,175.994 295.5,175.5 Z"/></g>
<g><path style="opacity:0.886" fill="#000000" d="M 351.5,169.5 C 361.058,169.22 364.225,173.553 361,182.5C 358.122,186.396 354.455,189.063 350,190.5C 342.615,188.266 340.615,183.6 344,176.5C 346.396,173.933 348.896,171.6 351.5,169.5 Z"/></g>
</svg>
