<?xml version="1.0" encoding="UTF-8"?>
<svg version="1.1" xmlns="http://www.w3.org/2000/svg" width="512" height="512">
<path d="M0 0 C21.27009916 18.24937653 34.01755471 40.65237242 36.484375 68.74853516 C36.61787576 71.79186567 36.64392631 74.83149107 36.66015625 77.87744141 C36.68333725 79.58904248 36.70745386 81.30063109 36.73242188 83.01220703 C36.76755267 85.66716141 36.79692846 88.32164757 36.81030273 90.97680664 C36.82585778 93.56923378 36.86607876 96.16036208 36.91015625 98.75244141 C36.90729362 99.92777184 36.90729362 99.92777184 36.90437317 101.12684631 C37.01452495 106.14421782 38.05713994 109.64769181 40.53190613 114.02183533 C43.87546712 120.08326826 43.45876072 128.29832392 41.625 134.79150391 C39.09903327 141.13387688 39.09903327 141.13387688 37.484375 142.74853516 C37.38716816 144.56730563 37.35921484 146.38981553 37.35839844 148.21118164 C37.35268829 149.96452065 37.35268829 149.96452065 37.34686279 151.75328064 C37.34532196 153.66712303 37.34532196 153.66712303 37.34375 155.61962891 C37.33011294 157.61661979 37.3164454 159.61361097 37.30104446 161.61058903 C37.26308989 166.54519123 37.23174334 171.47954192 37.23388672 176.41430664 C37.234525 179.17531897 37.22192702 181.93566814 37.19488525 184.69654846 C37.1696932 187.29534017 37.16306446 189.89439813 37.17767334 192.49327087 C37.07147182 200.23910794 36.03126677 206.32405535 31.484375 212.74853516 C26.26805846 217.66279545 20.71237439 217.88942866 13.87890625 217.84619141 C13.03970139 217.84477646 12.20049652 217.84336151 11.33586121 217.84190369 C8.65616284 217.83630731 5.9765481 217.8237555 3.296875 217.81103516 C1.47981892 217.80601969 -0.33723848 217.80145686 -2.15429688 217.79736328 C-6.60810513 217.78633907 -11.06185089 217.76907694 -15.515625 217.74853516 C-14.86970526 220.79742159 -14.86970526 220.79742159 -12.81103516 221.72294617 C-11.69414307 222.14686394 -11.69414307 222.14686394 -10.5546875 222.5793457 C-9.70461624 222.90845444 -8.85454498 223.23756317 -7.97871399 223.5766449 C-6.57385994 224.10065636 -6.57385994 224.10065636 -5.140625 224.63525391 C-3.67697762 225.19666832 -3.67697762 225.19666832 -2.1837616 225.76942444 C-0.07016847 226.57854641 2.04542846 227.38244879 4.16275024 228.1817627 C7.49633106 229.44054986 10.82433108 230.71313454 14.15112305 231.98974609 C19.82712311 234.16595499 25.50709629 236.33155683 31.18841553 238.49383545 C39.02658867 241.47765659 46.86075196 244.47140674 54.68432617 247.49331665 C57.23105476 248.4732098 59.78228456 249.44061276 62.33398438 250.4074707 C83.52022983 258.52589618 99.02353031 269.27243494 109.01171875 290.29541016 C112.56277453 298.62202371 114.0553104 306.73817863 114.484375 315.74853516 C114.56365234 317.10398437 114.56365234 317.10398437 114.64453125 318.48681641 C114.81201341 323.40205376 114.80214219 326.81636663 111.484375 330.74853516 C108.484375 332.74853516 108.484375 332.74853516 104.984375 332.56103516 C101.45596501 331.74193998 100.57594285 331.51262788 98.484375 328.74853516 C98.02368164 326.57885742 98.02368164 326.57885742 97.89453125 324.06494141 C97.83499268 323.14293945 97.7754541 322.2209375 97.71411133 321.27099609 C97.65892334 320.29420898 97.60373535 319.31742187 97.546875 318.31103516 C96.23390777 300.91175673 90.90269949 288.32703665 77.484375 276.74853516 C68.48736536 270.04020775 57.52285949 266.72339103 47.109375 262.87353516 C43.49604023 261.52558558 39.88469022 260.17236362 36.2734375 258.81884766 C34.9467807 258.32327362 34.9467807 258.32327362 33.59332275 257.81768799 C24.16215456 254.28150962 14.81930628 250.53017218 5.484375 246.74853516 C5.18724609 247.52342285 4.89011719 248.29831055 4.58398438 249.09667969 C-0.68363493 261.80025005 -13.36887278 268.99316201 -25.421875 274.17041016 C-46.65866888 282.6855477 -71.92200602 282.59199939 -93.08984375 273.94775391 C-105.27973014 268.6452912 -115.08606772 262.06344765 -122.515625 250.74853516 C-122.88327202 249.4242525 -123.22283899 248.09135504 -123.515625 246.74853516 C-124.0519455 246.95849625 -124.58826599 247.16845734 -125.14083862 247.38478088 C-130.82052342 249.60824256 -136.50031987 251.83141883 -142.18017578 254.05444336 C-144.28827624 254.87956831 -146.39635001 255.70476144 -148.50439453 256.5300293 C-150.55215689 257.33168781 -152.59997771 258.13319699 -154.64785767 258.93455505 C-156.67836373 259.72937011 -158.70861731 260.52483049 -160.73861694 261.32093811 C-165.43257249 263.16010131 -170.12990417 264.9880587 -174.84228516 266.77954102 C-175.66230011 267.09289902 -176.48231506 267.40625702 -177.32717896 267.72911072 C-178.83260852 268.30338259 -180.33970474 268.87331481 -181.84884644 269.4377594 C-187.79600776 271.71216358 -192.68132123 274.63576926 -197.515625 278.74853516 C-198.55203125 279.56837891 -198.55203125 279.56837891 -199.609375 280.40478516 C-204.16381269 284.39867667 -207.08851206 289.01155343 -209.890625 294.31103516 C-210.22465332 294.91681396 -210.55868164 295.52259277 -210.90283203 296.14672852 C-216.78320015 308.03608834 -215.83807994 323.09706812 -215.9296875 336.05712891 C-215.94845224 337.76205832 -215.96802933 339.46697896 -215.9883728 341.17189026 C-216.03914077 345.60546638 -216.07905808 350.03907244 -216.11651611 354.47277832 C-216.15690793 359.01854515 -216.20783751 363.56419349 -216.2578125 368.10986328 C-216.35391418 376.98933667 -216.43852372 385.86887784 -216.515625 394.74853516 C-215.35627441 394.73282471 -214.19692383 394.71711426 -213.00244141 394.70092773 C-208.66006546 394.64621772 -204.31771936 394.61203707 -199.97509766 394.58374023 C-198.10330057 394.56874651 -196.23153806 394.54834465 -194.35986328 394.5222168 C-171.31730121 394.20883795 -171.31730121 394.20883795 -164.078125 399.54541016 C-163.5625 400.18994141 -163.046875 400.83447266 -162.515625 401.49853516 C-161.979375 402.13275391 -161.443125 402.76697266 -160.890625 403.42041016 C-157.90093457 408.48249964 -157.26601273 413.7229878 -157.28857422 419.51000977 C-157.28872528 420.81082993 -157.28887634 422.11165009 -157.28903198 423.45188904 C-157.29924219 424.85155392 -157.30967413 426.25121721 -157.3203125 427.65087891 C-157.32404767 429.09818831 -157.32689226 430.54550026 -157.32888794 431.99281311 C-157.33648476 435.78218703 -157.35609875 439.57140501 -157.3782959 443.36071777 C-157.39883997 447.23541149 -157.40790788 451.11013067 -157.41796875 454.98486328 C-157.43934883 462.57282461 -157.47343638 470.16065794 -157.515625 477.74853516 C-156.45962097 477.73965271 -155.40361694 477.73077026 -154.31561279 477.72161865 C-144.36880538 477.64056834 -134.42206487 477.58058684 -124.47500229 477.54128647 C-119.3609619 477.52040251 -114.24718787 477.49206999 -109.13330078 477.44677734 C-104.19904204 477.4033486 -99.26503965 477.37940414 -94.33060455 477.36902618 C-92.44709486 477.36162948 -90.56359936 477.34718555 -88.68019867 477.32561493 C-86.04397652 477.29662024 -83.40881662 477.29257747 -80.77246094 477.29443359 C-79.99202927 477.28005249 -79.2115976 477.26567139 -78.40751648 477.25085449 C-74.9100948 477.27753838 -72.89439622 477.47268372 -70.03082275 479.5581665 C-67.80930393 482.76959232 -67.97142274 484.93911937 -68.515625 488.74853516 C-70.62163353 491.52697593 -71.80536251 492.61865855 -75.26839924 493.25189972 C-76.33227454 493.25340782 -77.39614985 493.25491592 -78.49226379 493.25646973 C-79.71611282 493.26774902 -80.93996185 493.27902832 -82.20089722 493.29064941 C-83.55426262 493.28287233 -84.90762569 493.27467966 -86.26098633 493.26611328 C-87.68863133 493.27153451 -89.11627073 493.27865718 -90.54389954 493.28735352 C-94.42018152 493.30559502 -98.29603781 493.29851487 -102.17232728 493.28583717 C-106.23165167 493.27570778 -110.29093968 493.28510322 -114.3502655 493.29138184 C-121.17050717 493.29866093 -127.99057565 493.28906635 -134.81079102 493.27001953 C-142.68728103 493.24827634 -150.56335646 493.25528233 -158.43983632 493.27732515 C-165.20688535 493.29550303 -171.97380985 493.29802506 -178.74087542 493.28757048 C-182.7803763 493.28134525 -186.81968266 493.28047249 -190.85917091 493.29371643 C-194.66045487 493.30530827 -198.46120722 493.2971891 -202.26243401 493.2741394 C-203.65435022 493.26886886 -205.04631149 493.27033773 -206.43820953 493.27919006 C-215.01532294 493.3286916 -220.75673716 493.11262736 -227.2578125 487.15087891 C-231.08649738 482.19999328 -231.64187004 479.05719421 -231.66279602 472.88299561 C-231.66647271 472.18047771 -231.6701494 471.47795981 -231.6739375 470.75415349 C-231.68497325 468.39387491 -231.68881812 466.03364036 -231.69262695 463.67333984 C-231.69889213 461.98296977 -231.70553898 460.29260107 -231.71253967 458.60223389 C-231.73359167 453.04163575 -231.74394923 447.48103732 -231.75390625 441.92041016 C-231.75795463 440.00304398 -231.76207158 438.08567795 -231.76625633 436.16831207 C-231.78531753 427.15171726 -231.79954158 418.13513064 -231.8078683 409.11851954 C-231.81761769 398.73388997 -231.843873 388.34947486 -231.88436919 377.96492076 C-231.91463184 369.92647401 -231.92934712 361.88808833 -231.93264931 353.84958577 C-231.93499 349.05525401 -231.94382042 344.26115108 -231.96911049 339.4668808 C-231.99257159 334.94585061 -231.9965528 330.42519692 -231.98634911 325.9041214 C-231.98585784 324.25592285 -231.99205567 322.60770464 -232.00590515 320.95956421 C-232.16209717 301.24846637 -227.29399261 284.51107188 -213.515625 269.74853516 C-202.28481639 259.27656497 -189.18355045 253.52093446 -174.99813843 248.29473877 C-171.3274228 246.94234998 -167.66575544 245.5662081 -164.00343323 244.19128418 C-162.09179181 243.47372773 -160.17970847 242.75734759 -158.26719666 242.04211426 C-147.7062124 238.08744208 -137.20337356 233.98618275 -126.703125 229.87353516 C-124.93663281 229.18278974 -123.17011337 228.492114 -121.40356445 227.80151367 C-117.10627083 226.12050692 -112.80960914 224.43798092 -108.515625 222.74853516 C-107.54665283 222.4157959 -106.57768066 222.08305664 -105.5793457 221.74023438 C-104.89831787 221.41297363 -104.21729004 221.08571289 -103.515625 220.74853516 C-103.185625 219.75853516 -102.855625 218.76853516 -102.515625 217.74853516 C-103.63533691 217.76424561 -104.75504883 217.77995605 -105.90869141 217.79614258 C-110.07951611 217.8506141 -114.25030962 217.88494768 -118.42138672 217.91333008 C-120.22352392 217.92837755 -122.02562473 217.94882045 -123.82763672 217.97485352 C-126.42424521 218.01141537 -129.02036775 218.02830197 -131.6171875 218.04150391 C-132.81754135 218.06472969 -132.81754135 218.06472969 -134.04214478 218.08842468 C-139.75755603 218.09012797 -143.92397452 217.03561133 -148.34375 213.13525391 C-148.81296875 212.57451172 -149.2821875 212.01376953 -149.765625 211.43603516 C-150.24515625 210.88302734 -150.7246875 210.33001953 -151.21875 209.76025391 C-155.31817417 203.40120738 -154.79945384 196.58331546 -154.77441406 189.29589844 C-154.7779187 188.04300522 -154.78142334 186.790112 -154.78503418 185.49925232 C-154.79231821 182.07087145 -154.79062255 178.64273269 -154.78427601 175.21436548 C-154.77919111 171.60904282 -154.78391538 168.00373008 -154.78704834 164.39840698 C-154.79068542 158.33410808 -154.78590055 152.2698579 -154.77636719 146.20556641 C-154.76553222 139.23363046 -154.76897295 132.26181196 -154.78002 125.28987896 C-154.78915924 119.27765796 -154.79034457 113.26547191 -154.78514266 107.25324619 C-154.78205279 103.67464144 -154.7815291 100.09609143 -154.78821564 96.51749039 C-154.8420793 63.14686772 -151.70227086 33.74253567 -127.515625 8.74853516 C-126.65195313 7.85521484 -125.78828125 6.96189453 -124.8984375 6.04150391 C-92.0942615 -25.64324175 -35.64380398 -29.43140129 0 0 Z M-113.515625 17.74853516 C-114.14597656 18.28736328 -114.77632812 18.82619141 -115.42578125 19.38134766 C-129.41482209 32.06389493 -137.05247673 52.33578574 -138.515625 70.74853516 C-138.66649674 75.02055653 -138.68279651 79.29003421 -138.69262695 83.56445312 C-138.69919815 84.81915909 -138.70576935 86.07386505 -138.71253967 87.36659241 C-138.73214896 91.49130503 -138.74390993 95.61597915 -138.75390625 99.74072266 C-138.75795875 101.16617984 -138.76207581 102.59163684 -138.76625633 104.01709366 C-138.7852486 110.70461349 -138.79950254 117.39212257 -138.8078683 124.07966411 C-138.81767578 131.79010137 -138.84411075 139.50025426 -138.88436919 147.2105912 C-138.91448164 153.18274712 -138.92933175 159.15482109 -138.93264931 165.12705147 C-138.93500156 168.69021628 -138.94398733 172.25307509 -138.96911049 175.81615829 C-138.99662151 179.78052811 -138.99257514 183.74451759 -138.9855957 187.70898438 C-138.99840576 188.89030441 -139.01121582 190.07162445 -139.02441406 191.28874207 C-139.01747025 192.36528549 -139.01052643 193.44182892 -139.00337219 194.55099487 C-139.00576055 195.48783049 -139.0081489 196.4246661 -139.01060963 197.38989067 C-138.71375481 199.88568328 -138.71375481 199.88568328 -136.68564129 201.55209541 C-133.58219554 203.26318203 -131.08828442 203.0863232 -127.5625 203.04150391 C-126.57216766 203.03513664 -126.57216766 203.03513664 -125.56182861 203.02864075 C-123.46267109 203.0119095 -121.36449004 202.97427067 -119.265625 202.93603516 C-117.83855558 202.920981 -116.41147104 202.90729387 -114.984375 202.89501953 C-111.49447683 202.86202517 -108.0051463 202.81028258 -104.515625 202.74853516 C-105.30026123 201.96712158 -106.08489746 201.18570801 -106.89331055 200.38061523 C-123.87393241 183.33675672 -129.68714818 163.29441447 -129.75585938 139.7121582 C-129.76562148 137.68676524 -129.79675379 135.66236554 -129.828125 133.63720703 C-129.87728277 121.29246241 -129.87728277 121.29246241 -126.515625 115.74853516 C-123.0500915 112.72730082 -119.52811029 111.34268573 -115.265625 109.68603516 C-98.27452866 102.80516881 -83.15515744 91.16516832 -69.78125 78.82666016 C-67.7138462 76.93035185 -65.59812407 75.1182391 -63.453125 73.31103516 C-60.30795979 70.60885096 -57.69366269 67.66182412 -55.015625 64.49853516 C-51.29377623 60.3106573 -48.22134034 57.38757527 -42.515625 56.74853516 C-34.32477946 57.28563978 -29.52114256 62.57480673 -23.515625 67.74853516 C-16.08231661 73.99441409 -8.25359556 77.92865701 0.66772461 81.60400391 C1.50440674 81.95591797 2.34108887 82.30783203 3.203125 82.67041016 C3.95529297 82.9755957 4.70746094 83.28078125 5.48242188 83.59521484 C9.49345135 85.90595914 10.96197119 89.53264767 12.484375 93.74853516 C15.124375 94.07853516 17.764375 94.40853516 20.484375 94.74853516 C21.14736738 65.04647639 17.81495929 40.89485448 -3.203125 18.49853516 C-20.43445398 2.118136 -41.35300259 -3.98939232 -64.74609375 -3.55615234 C-83.37312601 -2.81899097 -99.91395212 5.2249038 -113.515625 17.74853516 Z M-42.515625 73.74853516 C-44.28913793 75.56683377 -45.96979875 77.40220429 -47.640625 79.31103516 C-52.01207316 84.17691112 -56.45331968 88.59378128 -61.515625 92.74853516 C-62.62038741 93.69966654 -63.72449007 94.6515645 -64.828125 95.60400391 C-79.88081194 108.40923428 -96.64802719 118.3833656 -114.515625 126.74853516 C-115.19762009 149.66357003 -114.85707723 168.67968204 -98.578125 186.49853516 C-85.54144907 198.94099796 -70.15464527 202.39463938 -52.66796875 202.06103516 C-39.17268497 201.47438996 -26.74806311 194.44259517 -17.515625 184.74853516 C-6.36018389 171.1760818 -3.17162889 157.51846421 -3.3203125 140.30322266 C-3.3231424 139.05219757 -3.32597229 137.80117249 -3.32888794 136.51223755 C-3.33812332 133.22101952 -3.35602382 129.93000555 -3.3782959 126.63885498 C-3.39892639 123.26658599 -3.40792605 119.89428686 -3.41796875 116.52197266 C-3.43992107 109.93074846 -3.47331702 103.33965846 -3.515625 96.74853516 C-4.0584613 96.49782761 -4.60129761 96.24712006 -5.1605835 95.98881531 C-7.65128273 94.83473162 -10.13813036 93.67256539 -12.625 92.51025391 C-13.47884277 92.11608276 -14.33268555 91.72191162 -15.21240234 91.3157959 C-23.65213264 87.35789543 -30.54625787 82.3638249 -37.578125 76.24853516 C-40.12658504 73.53249561 -40.12658504 73.53249561 -42.515625 73.74853516 Z M12.484375 109.74853516 C12.484375 119.97853516 12.484375 130.20853516 12.484375 140.74853516 C18.65603712 138.69131445 21.79947962 137.36302798 25.296875 131.93603516 C26.87759551 127.69304853 27.40741141 124.23082516 25.79296875 119.88916016 C23.55107664 115.49917896 20.87266681 113.12552656 16.484375 110.74853516 C15.164375 110.41853516 13.844375 110.08853516 12.484375 109.74853516 Z M11.484375 157.74853516 C10.09460126 160.86397271 10.09460126 160.86397271 9.484375 164.62353516 C6.22691239 179.06524073 -1.47864725 192.79796196 -13.515625 201.74853516 C-13.515625 202.07853516 -13.515625 202.40853516 -13.515625 202.74853516 C-9.31644315 202.8228401 -5.11761226 202.87720929 -0.91796875 202.91333008 C0.50983346 202.92839197 1.9375896 202.94884578 3.36523438 202.97485352 C5.42068873 203.01135358 7.47553005 203.02828682 9.53125 203.04150391 C10.76713867 203.05721436 12.00302734 203.0729248 13.27636719 203.08911133 C16.40686713 202.89108217 16.40686713 202.89108217 18.89453125 201.85009766 C21.61413432 198.25514323 20.97024113 194.19913772 20.875 189.83056641 C20.86651031 188.37199471 20.86651031 188.37199471 20.85784912 186.88395691 C20.83544429 183.77581716 20.78523981 180.66882692 20.734375 177.56103516 C20.71431533 175.454932 20.69606364 173.3488108 20.6796875 171.24267578 C20.63556593 166.07751879 20.5665096 160.91322191 20.484375 155.74853516 C16.90947028 155.74853516 14.71080464 156.17822498 11.484375 157.74853516 Z M-86.515625 212.74853516 C-87.40673507 219.49441522 -87.40673507 219.49441522 -85.23828125 225.67431641 C-83.416951 227.27262663 -81.60450059 228.52142003 -79.515625 229.74853516 C-78.56042969 230.33054688 -78.56042969 230.33054688 -77.5859375 230.92431641 C-68.56019153 235.90841308 -59.60553637 236.4864505 -49.515625 234.74853516 C-43.04954796 232.7152382 -35.77973914 229.13738665 -31.515625 223.74853516 C-31.15348932 221.23563841 -31.15348932 221.23563841 -31.328125 218.56103516 C-31.35519531 217.65998047 -31.38226563 216.75892578 -31.41015625 215.83056641 C-31.44496094 215.14349609 -31.47976563 214.45642578 -31.515625 213.74853516 C-32.17949219 213.88130859 -32.84335937 214.01408203 -33.52734375 214.15087891 C-36.19010417 214.68343099 -38.85286458 215.21598307 -41.515625 215.74853516 C-42.67578125 216.00521973 -42.67578125 216.00521973 -43.859375 216.26708984 C-57.95634673 218.82216597 -73.00924703 217.19769496 -86.515625 212.74853516 Z M-97.515625 235.74853516 C-102.960625 238.22353516 -102.960625 238.22353516 -108.515625 240.74853516 C-103.15724497 251.91182688 -92.35487874 256.80199431 -81.1484375 261.01416016 C-62.71773065 266.74098811 -42.52345444 265.16750907 -25.390625 256.31103516 C-19.11797649 252.67460481 -13.57087517 248.91251541 -9.515625 242.74853516 C-10.010625 241.26353516 -10.010625 241.26353516 -10.515625 239.74853516 C-13.06964348 238.49903464 -13.06964348 238.49903464 -16.078125 237.56103516 C-17.59599609 237.04476563 -17.59599609 237.04476563 -19.14453125 236.51806641 C-19.92699219 236.26412109 -20.70945312 236.01017578 -21.515625 235.74853516 C-21.94230469 236.18423828 -22.36898437 236.61994141 -22.80859375 237.06884766 C-33.61256693 247.36046747 -46.78861236 251.04503265 -61.46533203 250.7734375 C-73.66562413 250.25334884 -83.8126163 246.04073471 -93.515625 238.74853516 C-94.835625 237.75853516 -96.155625 236.76853516 -97.515625 235.74853516 Z M-216.515625 410.74853516 C-216.60833275 418.89357338 -216.67939323 427.03839093 -216.72287369 435.18382645 C-216.74374295 438.9661651 -216.77204748 442.74814263 -216.81738281 446.53027344 C-216.86086574 450.18073827 -216.88476709 453.83085591 -216.89513397 457.48155975 C-216.9025211 458.8738527 -216.91694675 460.26612678 -216.93854523 461.65827179 C-216.96760541 463.60906927 -216.96925912 465.56021661 -216.96972656 467.51123047 C-216.97860901 468.62153625 -216.98749146 469.73184204 -216.99664307 470.87579346 C-216.39849384 474.44806725 -215.40650923 475.61841828 -212.515625 477.74853516 C-210.55509115 478.31619881 -210.55509115 478.31619881 -208.48144531 478.20263672 C-207.31068451 478.20218353 -207.31068451 478.20218353 -206.11627197 478.20172119 C-205.28383972 478.18107605 -204.45140747 478.16043091 -203.59375 478.13916016 C-202.73376404 478.13350037 -201.87377808 478.12784058 -200.98773193 478.12200928 C-198.24645851 478.09965466 -195.50650196 478.04946118 -192.765625 477.99853516 C-190.90496682 477.97846892 -189.04428811 477.96021836 -187.18359375 477.94384766 C-182.62709834 477.899793 -178.07158478 477.8307727 -173.515625 477.74853516 C-173.42298739 469.45584138 -173.35189242 461.16336339 -173.30837631 452.87028027 C-173.28749175 449.01953558 -173.25915927 445.16914461 -173.21386719 441.31860352 C-173.17043887 437.60330538 -173.14649444 433.88834767 -173.13611603 430.17281532 C-173.12871909 428.75457715 -173.11427448 427.33635782 -173.09270477 425.91826439 C-173.06371698 423.93373119 -173.0619915 421.94885618 -173.06152344 419.96411133 C-173.04819977 418.26867439 -173.04819977 418.26867439 -173.03460693 416.53898621 C-173.26331178 413.66719258 -173.26331178 413.66719258 -175.29187012 411.88134766 C-177.63129535 410.68961103 -178.94972777 410.38263356 -181.54980469 410.40795898 C-182.33031189 410.40818558 -183.11081909 410.40841217 -183.91497803 410.40864563 C-184.74741028 410.42412949 -185.57984253 410.43961334 -186.4375 410.45556641 C-187.29748596 410.45981125 -188.15747192 410.46405609 -189.04351807 410.46842957 C-191.7845417 410.485194 -194.52482439 410.5228417 -197.265625 410.56103516 C-199.12629145 410.5760849 -200.98696945 410.5897728 -202.84765625 410.60205078 C-207.4039304 410.63509017 -211.95965216 410.68685682 -216.515625 410.74853516 Z " fill="#000000" transform="translate(314.515625,19.25146484375)"/>
<path d="M0 0 C2.90717073 2.21863029 3.83981643 3.51944929 5 7 C5.09545305 8.56354903 5.1348925 10.13083074 5.14044189 11.69728088 C5.14615204 12.66299515 5.15186218 13.62870941 5.15774536 14.62368774 C5.15942215 16.21097183 5.15942215 16.21097183 5.16113281 17.83032227 C5.16609772 18.9461116 5.17106262 20.06190094 5.17617798 21.21150208 C5.19081487 24.91314303 5.19760548 28.61474108 5.203125 32.31640625 C5.20887683 34.88891094 5.21463456 37.46141562 5.22039795 40.03392029 C5.22956875 44.74445877 5.23586617 49.4549801 5.2388947 54.16552597 C5.24336537 61.08013417 5.26086596 67.9945437 5.2898953 74.90909153 C5.31421083 80.91105085 5.32184374 86.91291702 5.32357025 92.91493034 C5.32659046 95.46052059 5.33459758 98.00611013 5.34775543 100.55166817 C5.36488994 104.12256837 5.36291689 107.6929909 5.35644531 111.26391602 C5.3656601 112.30793579 5.37487488 113.35195557 5.3843689 114.4276123 C5.34265253 121.80925861 4.75676439 129.4817906 0.0625 135.47265625 C-0.618125 135.99730469 -1.29875 136.52195312 -2 137.0625 C-2.680625 137.61035156 -3.36125 138.15820312 -4.0625 138.72265625 C-7.64844837 141.08677947 -10.69475335 141.13209563 -14.87657166 141.15390015 C-16.1033815 141.16250061 -17.33019135 141.17110107 -18.59417725 141.17996216 C-19.95593219 141.18439718 -21.31768759 141.18869555 -22.67944336 141.19287109 C-24.11180317 141.20077355 -25.54416099 141.20904259 -26.97651672 141.21765137 C-31.68093978 141.24384614 -36.38537166 141.25917245 -41.08984375 141.2734375 C-42.7090461 141.27879747 -44.3282484 141.28417498 -45.94745064 141.28956985 C-52.68071058 141.31119127 -59.41396813 141.32992978 -66.14725399 141.34119225 C-75.80082345 141.35744565 -85.45399135 141.39066515 -95.10740942 141.44759309 C-101.89388825 141.48625281 -108.68025948 141.50581996 -115.46684557 141.51111281 C-119.52146984 141.51477062 -123.57566558 141.52683735 -127.63017082 141.55921555 C-131.44292562 141.58922835 -135.25499104 141.59563289 -139.06783867 141.58383179 C-140.46749945 141.5836105 -141.86719162 141.59196105 -143.26674271 141.60948563 C-145.17650956 141.63209875 -147.08658768 141.62092195 -148.9964447 141.60800171 C-150.06551528 141.61131186 -151.13458586 141.614622 -152.23605251 141.61803246 C-155 141 -155 141 -157.37912846 138.68856239 C-159 136 -159 136 -158.9375 132.375 C-157.66379657 127.78966766 -157.66379657 127.78966766 -155 126 C-152.20989569 125.71943861 -149.64570789 125.62105541 -146.85668945 125.65942383 C-145.61245209 125.65876671 -145.61245209 125.65876671 -144.34307861 125.65809631 C-141.59957391 125.66018741 -138.85667928 125.6835334 -136.11328125 125.70703125 C-134.21185134 125.71262607 -132.3104171 125.7168967 -130.40898132 125.71989441 C-125.40294467 125.73135218 -120.39716889 125.76082742 -115.39123535 125.79400635 C-110.28364593 125.82468712 -105.17601438 125.83839548 -100.06835938 125.85351562 C-90.04545826 125.88569619 -80.02275082 125.93690384 -70 126 C-70.00999275 124.83061386 -70.00999275 124.83061386 -70.02018738 123.63760376 C-70.08055859 116.25323324 -70.12610558 108.86898414 -70.15543652 101.48443031 C-70.17102331 97.6888937 -70.19213188 93.8935628 -70.22631836 90.09814453 C-70.25916373 86.42821638 -70.27690541 82.75848478 -70.28463173 79.08842087 C-70.29013047 77.69552903 -70.30086686 76.30264667 -70.31719017 74.90983963 C-70.51890329 56.96786347 -70.51890329 56.96786347 -65.2734375 49.5625 C-64.64695312 49.046875 -64.02046875 48.53125 -63.375 48 C-62.76398438 47.46375 -62.15296875 46.9275 -61.5234375 46.375 C-55.08647938 42.86755533 -47.76518356 42.71286307 -40.58984375 42.8046875 C-39.73693253 42.8075174 -38.8840213 42.81034729 -38.00526428 42.81326294 C-35.31585882 42.82434169 -32.62680258 42.84942207 -29.9375 42.875 C-28.09961423 42.88504575 -26.26172317 42.89416879 -24.42382812 42.90234375 C-19.94908687 42.92424049 -15.47460237 42.95868327 -11 43 C-11.02094727 41.83952148 -11.04189453 40.67904297 -11.06347656 39.48339844 C-11.13591807 35.17476762 -11.18181471 30.86619055 -11.21972656 26.55712891 C-11.23983261 24.69277899 -11.2671218 22.82849206 -11.30175781 20.96435547 C-11.35032121 18.28337052 -11.37297838 15.60321977 -11.390625 12.921875 C-11.41127014 12.08944275 -11.43191528 11.2570105 -11.45318604 10.39935303 C-11.45465966 6.59239289 -11.45499387 4.6365977 -9.19433594 1.47363281 C-5.97244719 -0.6900655 -3.78918175 -0.54131168 0 0 Z M-54 63 C-54.57751029 65.94038019 -54.57751029 65.94038019 -54.45410156 69.23730469 C-54.45379944 70.49830994 -54.45349731 71.75931519 -54.45318604 73.05853271 C-54.43276105 74.42965326 -54.41189709 75.80076733 -54.390625 77.171875 C-54.38316117 78.57862544 -54.3774689 79.98538631 -54.37347412 81.39215088 C-54.3582286 85.08808282 -54.31895731 88.78338227 -54.2746582 92.47906494 C-54.23368143 96.25288335 -54.21545804 100.02680432 -54.1953125 103.80078125 C-54.15246099 111.20080864 -54.08422405 118.60031557 -54 126 C-48.5190965 126.09893328 -43.03871355 126.17149865 -37.55712891 126.21972656 C-35.69277899 126.23983261 -33.82849206 126.2671218 -31.96435547 126.30175781 C-29.28337052 126.35032121 -26.60321977 126.37297838 -23.921875 126.390625 C-22.67322662 126.42159271 -22.67322662 126.42159271 -21.39935303 126.45318604 C-20.61884583 126.45348816 -19.83833862 126.45379028 -19.03417969 126.45410156 C-18.00825714 126.46742523 -18.00825714 126.46742523 -16.96160889 126.48101807 C-13.98283597 125.75057501 -12.82658707 124.4283779 -11 122 C-10.42248971 119.05961981 -10.42248971 119.05961981 -10.54589844 115.76269531 C-10.54620056 114.50169006 -10.54650269 113.24068481 -10.54681396 111.94146729 C-10.56723895 110.57034674 -10.58810291 109.19923267 -10.609375 107.828125 C-10.61683883 106.42137456 -10.6225311 105.01461369 -10.62652588 103.60784912 C-10.6417714 99.91191718 -10.68104269 96.21661773 -10.7253418 92.52093506 C-10.76631857 88.74711665 -10.78454196 84.97319568 -10.8046875 81.19921875 C-10.84753901 73.79919136 -10.91577595 66.39968443 -11 59 C-16.4809035 58.90106672 -21.96128645 58.82850135 -27.44287109 58.78027344 C-29.30722101 58.76016739 -31.17150794 58.7328782 -33.03564453 58.69824219 C-35.71662948 58.64967879 -38.39678023 58.62702162 -41.078125 58.609375 C-42.32677338 58.57840729 -42.32677338 58.57840729 -43.60064697 58.54681396 C-44.38115417 58.54651184 -45.16166138 58.54620972 -45.96582031 58.54589844 C-46.64976868 58.53701599 -47.33371704 58.52813354 -48.03839111 58.51898193 C-51.01716403 59.24942499 -52.17341293 60.5716221 -54 63 Z " fill="#000000" transform="translate(424,371)"/>
<path d="M0 0 C0.99 0.66 1.98 1.32 3 2 C3.53109375 1.65066406 4.0621875 1.30132812 4.609375 0.94140625 C5.31578125 0.48636719 6.0221875 0.03132813 6.75 -0.4375 C7.44609375 -0.88996094 8.1421875 -1.34242188 8.859375 -1.80859375 C14.78140938 -5.10461653 22.24390336 -4.90364064 28.6953125 -3.3515625 C35.67266392 -0.85507896 40.67920091 2.84046691 44.31640625 9.359375 C46.82737976 14.99375458 47.67333473 19.88738319 47 26 C46.9175 26.77988281 46.835 27.55976563 46.75 28.36328125 C44.51984225 42.92899906 35.15868037 55.66129875 23.5625 64.375 C21.72744924 65.61217104 19.87305328 66.82115528 18 68 C17.06800781 68.60070312 16.13601563 69.20140625 15.17578125 69.8203125 C10.55659869 72.59053356 6.08196945 75.19976593 0.56640625 74.765625 C-14.83012111 70.17244484 -28.31713573 56.99773572 -36.21875 43.41015625 C-41.0642964 34.13348518 -42.59021092 23.99080985 -40.53125 13.64453125 C-38.36456813 6.97682574 -34.09072121 1.84282216 -27.875 -1.375 C-18.46008815 -5.72325246 -8.94919627 -5.10849954 0 0 Z M-23 15 C-25.89994038 19.34991057 -25.77457016 22.89613591 -25 28 C-20.77150205 39.97038022 -12.27517015 50.06197936 -1 56 C2.4047575 56.97720962 4.15868868 57.37587619 7.421875 55.91796875 C17.64052355 48.32256387 27.62402138 40.23613429 30.62109375 27.32421875 C31.18673309 23.38806872 31.31618752 20.78214807 29.8125 17.0625 C26.96873207 13.82648822 25.40512713 12.14636741 21 11.6875 C16.30444482 12.17662033 14.32032691 13.48173813 11.375 17.0625 C10.59125 18.031875 9.8075 19.00125 9 20 C5.69862141 21.6506893 2.53879771 21.78089056 -1 21 C-3.32394039 19.42318787 -5.24012954 17.69634289 -7.23828125 15.7265625 C-9.71792566 13.29640101 -11.38469662 12.0668808 -14.875 11.6875 C-18.41058347 12.04105835 -20.17556707 12.8816753 -23 15 Z " fill="#000000" transform="translate(309,340)"/>
</svg>
