<?xml version="1.0" encoding="UTF-8"?>
<!DOCTYPE svg PUBLIC "-//W3C//DTD SVG 1.1//EN" "http://www.w3.org/Graphics/SVG/1.1/DTD/svg11.dtd">
<svg xmlns="http://www.w3.org/2000/svg" version="1.1" width="512px" height="512px" style="shape-rendering:geometricPrecision; text-rendering:geometricPrecision; image-rendering:optimizeQuality; fill-rule:evenodd; clip-rule:evenodd" xmlns:xlink="http://www.w3.org/1999/xlink">
<g><path style="opacity:0.943" fill="#000000" d="M 248.5,-0.5 C 253.5,-0.5 258.5,-0.5 263.5,-0.5C 275.213,3.72318 282.047,12.0565 284,24.5C 284.499,30.4908 284.666,36.4908 284.5,42.5C 300.17,42.3334 315.837,42.5001 331.5,43C 357.645,47.8185 376.145,62.3185 387,86.5C 389.454,93.3144 391.12,100.314 392,107.5C 392.667,139.5 392.667,171.5 392,203.5C 390.171,209.158 386.337,210.992 380.5,209C 379,208.167 377.833,207 377,205.5C 376.5,196.84 376.334,188.173 376.5,179.5C 349.498,179.333 322.498,179.5 295.5,180C 311.601,197.588 315.768,217.754 308,240.5C 304.947,247.444 300.781,253.611 295.5,259C 322.498,259.5 349.498,259.667 376.5,259.5C 376.055,250.06 376.555,240.726 378,231.5C 381.344,228.804 384.844,228.304 388.5,230C 390.487,231.319 391.654,233.152 392,235.5C 392.667,269.167 392.667,302.833 392,336.5C 386.48,373.52 365.313,395.186 328.5,401.5C 328.666,405.514 328.499,409.514 328,413.5C 325.565,418.224 321.731,419.724 316.5,418C 315.333,416.833 314.167,415.667 313,414.5C 312.501,410.514 312.334,406.514 312.5,402.5C 303.167,402.5 293.833,402.5 284.5,402.5C 284.622,407.7 282.789,412.033 279,415.5C 278.907,426.558 278.24,437.558 277,448.5C 274,454.167 269.667,458.5 264,461.5C 263.667,476.833 263.333,492.167 263,507.5C 261.968,509.027 260.801,510.36 259.5,511.5C 256.833,511.5 254.167,511.5 251.5,511.5C 249.73,509.887 248.564,507.887 248,505.5C 247.833,490.489 247.333,475.489 246.5,460.5C 240.469,457.969 236.302,453.635 234,447.5C 232.792,436.882 232.125,426.215 232,415.5C 228.239,411.973 226.739,407.639 227.5,402.5C 217.833,402.5 208.167,402.5 198.5,402.5C 198.666,406.514 198.499,410.514 198,414.5C 196.471,417.516 193.971,418.849 190.5,418.5C 187.675,418.881 185.509,417.881 184,415.5C 182.691,410.934 182.191,406.267 182.5,401.5C 154.593,397.46 135.093,382.46 124,356.5C 122.798,353.226 121.798,349.893 121,346.5C 119.347,265.202 119.014,183.869 120,102.5C 127.167,70 147,50.1667 179.5,43C 195.163,42.5001 210.83,42.3334 226.5,42.5C 225.605,32.0976 227.105,22.0976 231,12.5C 235.603,6.38115 241.437,2.04782 248.5,-0.5 Z M 250.5,15.5 C 259.163,14.0151 264.997,17.3484 268,25.5C 268.499,31.1569 268.666,36.8236 268.5,42.5C 259.833,42.5 251.167,42.5 242.5,42.5C 242.226,35.7695 242.726,29.1028 244,22.5C 245.862,19.8334 248.028,17.5001 250.5,15.5 Z M 181.5,58.5 C 230.834,58.3333 280.168,58.5 329.5,59C 356.226,64.9492 371.726,81.4492 376,108.5C 376.5,126.83 376.667,145.164 376.5,163.5C 368.833,163.5 361.167,163.5 353.5,163.5C 353.666,157.158 353.5,150.825 353,144.5C 350.35,135.25 344.183,130.417 334.5,130C 324.167,129.833 313.833,129.667 303.5,129.5C 292.099,129.366 280.765,129.866 269.5,131C 267.667,131.5 266.5,132.667 266,134.5C 264.622,138.987 265.788,142.487 269.5,145C 290.833,145.333 312.167,145.667 333.5,146C 334.766,146.309 335.933,146.809 337,147.5C 337.499,152.823 337.666,158.156 337.5,163.5C 282.833,163.5 228.167,163.5 173.5,163.5C 173.334,158.489 173.501,153.489 174,148.5C 174.903,147.299 176.069,146.465 177.5,146C 199.167,145.667 220.833,145.333 242.5,145C 247.833,140.333 247.833,135.667 242.5,131C 230.888,129.876 219.221,129.376 207.5,129.5C 197.167,129.667 186.833,129.833 176.5,130C 168.531,130.644 162.698,134.477 159,141.5C 157.652,148.761 157.152,156.094 157.5,163.5C 149.833,163.5 142.167,163.5 134.5,163.5C 134.333,147.163 134.5,130.83 135,114.5C 137.277,84.7327 152.777,66.066 181.5,58.5 Z M 134.5,179.5 C 161.502,179.333 188.502,179.5 215.5,180C 197.172,201.359 194.672,224.526 208,249.5C 210.5,252.667 213,255.833 215.5,259C 188.502,259.5 161.502,259.667 134.5,259.5C 134.5,232.833 134.5,206.167 134.5,179.5 Z M 248.5,179.5 C 272.335,178.182 287.835,188.849 295,211.5C 297.523,228.949 291.69,242.782 277.5,253C 255.841,264.125 237.341,260.292 222,241.5C 210.997,219.846 214.83,201.346 233.5,186C 238.367,183.226 243.367,181.059 248.5,179.5 Z M 134.5,275.5 C 142.167,275.5 149.833,275.5 157.5,275.5C 157.333,295.836 157.5,316.169 158,336.5C 161.093,349.428 168.927,358.094 181.5,362.5C 182.833,370.167 182.833,377.833 181.5,385.5C 152.694,377.862 137.194,359.196 135,329.5C 134.5,311.503 134.333,293.503 134.5,275.5 Z M 173.5,275.5 C 228.167,275.5 282.833,275.5 337.5,275.5C 337.667,295.169 337.5,314.836 337,334.5C 334.833,340.667 330.667,344.833 324.5,347C 278.5,347.667 232.5,347.667 186.5,347C 179.93,344.762 175.763,340.262 174,333.5C 173.5,314.17 173.333,294.836 173.5,275.5 Z M 353.5,275.5 C 361.167,275.5 368.833,275.5 376.5,275.5C 376.894,297.53 376.394,319.53 375,341.5C 368.22,364.779 353.053,379.446 329.5,385.5C 328.503,377.862 328.169,370.196 328.5,362.5C 339.592,359.246 347.425,352.246 352,341.5C 353.456,319.553 353.956,297.553 353.5,275.5 Z M 198.5,363.5 C 208.167,363.5 217.833,363.5 227.5,363.5C 227.5,371.167 227.5,378.833 227.5,386.5C 217.833,386.5 208.167,386.5 198.5,386.5C 198.5,378.833 198.5,371.167 198.5,363.5 Z M 242.5,363.5 C 251.167,363.5 259.833,363.5 268.5,363.5C 268.5,376.833 268.5,390.167 268.5,403.5C 259.833,403.5 251.167,403.5 242.5,403.5C 242.5,390.167 242.5,376.833 242.5,363.5 Z M 284.5,363.5 C 293.833,363.5 303.167,363.5 312.5,363.5C 312.5,371.167 312.5,378.833 312.5,386.5C 303.167,386.5 293.833,386.5 284.5,386.5C 284.5,378.833 284.5,371.167 284.5,363.5 Z M 248.5,418.5 C 253.167,418.5 257.833,418.5 262.5,418.5C 262.666,426.507 262.5,434.507 262,442.5C 256.583,448.225 252.25,447.558 249,440.5C 248.5,433.174 248.334,425.841 248.5,418.5 Z"/></g>
<g><path style="opacity:0.924" fill="#000000" d="M 253.5,192.5 C 256.747,192.415 259.581,193.415 262,195.5C 263.379,200.036 263.879,204.703 263.5,209.5C 269.024,208.898 274.19,209.898 279,212.5C 281,216.167 281,219.833 279,223.5C 278.25,224.126 277.416,224.626 276.5,225C 272.179,225.499 267.846,225.666 263.5,225.5C 263.666,229.846 263.499,234.179 263,238.5C 257.6,245.154 252.6,244.82 248,237.5C 247.501,233.514 247.334,229.514 247.5,225.5C 243.154,225.666 238.821,225.499 234.5,225C 229.595,220.833 229.262,216.333 233.5,211.5C 237.997,209.783 242.663,209.116 247.5,209.5C 247.335,205.818 247.501,202.152 248,198.5C 249.021,195.65 250.854,193.65 253.5,192.5 Z"/></g>
</svg>
