<?xml version="1.0" encoding="UTF-8"?>
<svg version="1.1" xmlns="http://www.w3.org/2000/svg" width="512" height="512">
<path d="M0 0 C20.37526658 17.02278662 32.77437521 39.5378724 35.63745117 66.02459717 C36.3176684 74.18649238 36.1751097 82.44294933 36.19335938 90.62792969 C36.20292007 93.18732793 36.23668342 95.7455549 36.2734375 98.3046875 C36.26586929 99.45649002 36.26586929 99.45649002 36.25814819 100.63156128 C36.34786664 105.60354352 37.41056757 109.05780753 39.85879517 113.39212036 C43.19888157 119.46105019 42.78874672 127.6681991 40.953125 134.16796875 C38.42715827 140.51034173 38.42715827 140.51034173 36.8125 142.125 C36.71529316 143.94377047 36.68733984 145.76628037 36.68652344 147.58764648 C36.68081329 149.34098549 36.68081329 149.34098549 36.67498779 151.12974548 C36.67344696 153.04358788 36.67344696 153.04358788 36.671875 154.99609375 C36.65823794 156.99308463 36.6445704 158.99007581 36.62916946 160.98705387 C36.59121489 165.92165607 36.55986834 170.85600676 36.56201172 175.79077148 C36.56265 178.55178381 36.55005202 181.31213299 36.52301025 184.07301331 C36.4978182 186.67180501 36.49118946 189.27086297 36.50579834 191.86973572 C36.39959682 199.61557279 35.35939177 205.7005202 30.8125 212.125 C25.59618346 217.03926029 20.04049939 217.2658935 13.20703125 217.22265625 C12.36782639 217.2212413 11.52862152 217.21982635 10.66398621 217.21836853 C7.98428784 217.21277215 5.3046731 217.20022035 2.625 217.1875 C0.80794392 217.18248453 -1.00911348 217.17792171 -2.82617188 217.17382812 C-7.27998013 217.16280391 -11.73372589 217.14554178 -16.1875 217.125 C-15.54158026 220.17388643 -15.54158026 220.17388643 -13.48291016 221.09941101 C-12.36601807 221.52332878 -12.36601807 221.52332878 -11.2265625 221.95581055 C-10.37649124 222.28491928 -9.52641998 222.61402802 -8.65058899 222.95310974 C-7.24573494 223.4771212 -7.24573494 223.4771212 -5.8125 224.01171875 C-4.34885262 224.57313316 -4.34885262 224.57313316 -2.8556366 225.14588928 C-0.74204347 225.95501126 1.37355346 226.75891363 3.49087524 227.55822754 C6.82445606 228.81701471 10.15245608 230.08959938 13.47924805 231.36621094 C19.15524811 233.54241983 24.83522129 235.70802167 30.51654053 237.87030029 C38.35471367 240.85412143 46.18887696 243.84787158 54.01245117 246.86978149 C56.55917976 247.84967465 59.11040956 248.8170776 61.66210938 249.78393555 C82.84835483 257.90236102 98.35165531 268.64889979 108.33984375 289.671875 C113.39924682 301.53530289 113.96562396 313.55711297 113.98046875 326.3046875 C113.98379715 327.32047882 113.98712555 328.33627014 113.99055481 329.38284302 C113.99557644 331.50880485 113.99796463 333.63477443 113.99780273 335.76074219 C114.00000848 339.01249928 114.01826675 342.26392685 114.03710938 345.515625 C114.04004048 347.59114468 114.04202717 349.66666596 114.04296875 351.7421875 C114.05015427 352.7099411 114.05733978 353.6776947 114.06474304 354.67477417 C114.03514862 363.38095881 114.03514862 363.38095881 111.8125 367.125 C108.29996854 369.46668764 106.94780644 369.62123677 102.8125 369.125 C100.15698242 367.78100586 100.15698242 367.78100586 97.8125 365.125 C97.05956959 361.50986464 97.13938078 357.93527421 97.17578125 354.25390625 C97.16540329 353.18059555 97.15502533 352.10728485 97.14433289 351.00144958 C97.11461534 347.56314341 97.11801968 344.12591133 97.125 340.6875 C97.11318366 336.18866823 97.08761248 331.69010118 97.05078125 327.19140625 C97.03801651 325.5798616 97.03801651 325.5798616 97.0249939 323.9357605 C96.79772892 306.61182542 93.21127263 292.82107743 81.0625 279.9375 C72.62226471 272.01343922 62.37994761 268.15158345 51.6875 264.25 C50.33559791 263.74830998 48.98403266 263.2457113 47.6328125 262.7421875 C44.36318111 261.52598638 41.08920006 260.32204685 37.8125 259.125 C38.6736268 262.0028205 38.6736268 262.0028205 39.84375 264.015625 C41.65771281 267.96538273 41.50634454 271.89126341 40.8125 276.125 C36.72882032 285.17484946 26.06069858 292.40402744 18.625 298.6875 C15.80827557 300.81426968 15.80827557 300.81426968 14.8125 303.125 C15.36808594 303.37636719 15.92367187 303.62773437 16.49609375 303.88671875 C19.19767741 305.33090428 21.46996595 307.04031628 23.875 308.9375 C25.16083984 309.93716797 25.16083984 309.93716797 26.47265625 310.95703125 C29.46852509 313.73283627 31.45042371 316.27873711 32.24609375 320.3359375 C32.24738281 321.05007813 32.24867188 321.76421875 32.25 322.5 C32.27900391 323.56347656 32.27900391 323.56347656 32.30859375 324.6484375 C31.28473163 329.75968619 28.51092489 333.60083207 24.83203125 337.140625 C16.58942921 345.25530712 14.73998651 351.98886881 14.5625 363.5625 C14.55727312 367.75610738 14.62806541 371.93550433 14.8125 376.125 C15.4012793 376.10107178 15.99005859 376.07714355 16.59667969 376.05249023 C23.47955 375.88991937 28.10228738 377.12884771 33.8125 381.125 C38.54727049 386.0764648 39.93158911 390.68071974 39.98950195 397.3972168 C40.00233719 398.6925383 40.01517242 399.9878598 40.02839661 401.32243347 C40.03656613 402.73969133 40.04400946 404.15695353 40.05078125 405.57421875 C40.05485678 406.28963144 40.0589323 407.00504414 40.06313133 407.742136 C40.08398056 411.53145685 40.09828518 415.32074165 40.10766602 419.11010742 C40.1187066 423.00946094 40.15308176 426.90824006 40.19283772 430.80739117 C40.21908466 433.81786604 40.22736512 436.82820596 40.23094749 439.83878517 C40.23579548 441.27520422 40.24735817 442.71161797 40.26598549 444.14792442 C40.36400037 452.20897176 40.32148831 458.29024575 35.8125 465.125 C33.77734375 467.18359375 33.77734375 467.18359375 31.75 468.5625 C31.07839844 469.03558594 30.40679687 469.50867188 29.71484375 469.99609375 C26.24556569 472.05486451 23.26627794 472.31122939 19.3125 472.375 C18.3534375 472.40078125 17.394375 472.4265625 16.40625 472.453125 C13.8125 472.125 13.8125 472.125 12.0234375 470.7890625 C10.17817099 468.25330917 9.93687568 466.23439193 9.8125 463.125 C10.625 460.5 10.625 460.5 12.8125 458.125 C16.1125 456.805 19.4125 455.485 22.8125 454.125 C22.8125 434.325 22.8125 414.525 22.8125 394.125 C18.23587784 391.83668892 11.83752708 392.93997295 6.8125 392.9375 C5.5028125 392.92525391 4.193125 392.91300781 2.84375 392.90039062 C1.5959375 392.89845703 0.348125 392.89652344 -0.9375 392.89453125 C-2.66226563 392.88836792 -2.66226563 392.88836792 -4.421875 392.88208008 C-7.32990961 392.83906031 -7.32990961 392.83906031 -9.1875 395.125 C-9.48073962 397.75537501 -9.48073962 397.75537501 -9.41455078 400.85986328 C-9.41439972 402.06095734 -9.41424866 403.26205139 -9.41409302 404.49954224 C-9.40377045 405.80164642 -9.39344788 407.10375061 -9.3828125 408.4453125 C-9.37908276 409.78766673 -9.37623561 411.13002367 -9.37423706 412.47238159 C-9.36659744 416.007014 -9.3469463 419.54148228 -9.3248291 423.0760498 C-9.30437765 426.6821877 -9.29523685 430.28835209 -9.28515625 433.89453125 C-9.2637006 440.97142135 -9.22956079 448.04819997 -9.1875 455.125 C-8.26517578 455.28935547 -8.26517578 455.28935547 -7.32421875 455.45703125 C-6.51597656 455.61558594 -5.70773437 455.77414062 -4.875 455.9375 C-3.67423828 456.16373047 -3.67423828 456.16373047 -2.44921875 456.39453125 C0.11106467 457.22142762 1.17661855 458.00946196 2.8125 460.125 C3.9239336 464.12616096 4.20784422 466.24018198 2.5 470.0625 C-1.51549999 473.14416279 -5.29871065 472.54483878 -10.1875 472.125 C-10.1875 473.775 -10.1875 475.425 -10.1875 477.125 C9.6125 477.125 29.4125 477.125 49.8125 477.125 C49.77769531 467.29332031 49.74289062 457.46164062 49.70703125 447.33203125 C49.6917065 441.11132577 49.67714086 434.89063394 49.66601562 428.66992188 C49.64820721 418.79153782 49.62725954 408.91323047 49.58618164 399.03491211 C49.5562805 391.8409266 49.53692529 384.64700326 49.53023452 377.45295733 C49.52632345 373.64372385 49.51713118 369.8346682 49.49530983 366.02549171 C49.4749333 362.43944035 49.46866849 358.85363993 49.47317696 355.26753616 C49.47195933 353.32542469 49.45582325 351.38334049 49.4392395 349.44129944 C49.44336349 348.28168701 49.44748749 347.12207458 49.45173645 345.92732239 C49.44897107 344.92164624 49.44620569 343.9159701 49.44335651 342.87981892 C49.9163458 339.35002664 51.27774431 336.65975569 53.8125 334.125 C61.063149 333.53068451 61.063149 333.53068451 63.91402817 335.7917366 C66.2900817 338.71195835 66.30698266 340.15330324 66.29351807 343.88299561 C66.30176605 345.64559471 66.30176605 345.64559471 66.31018066 347.44380188 C66.28860901 349.37185921 66.28860901 349.37185921 66.26660156 351.33886719 C66.26547302 352.70889757 66.26610708 354.07893037 66.26837158 355.44895935 C66.26951941 359.16575815 66.24599951 362.88204077 66.21807575 366.5987196 C66.19307333 370.48377555 66.19072102 374.36884329 66.18597412 378.25396729 C66.17354089 385.60984463 66.14071473 392.96548423 66.10057616 400.32125688 C66.05586914 408.69600554 66.03387413 417.07076556 66.01379442 425.44560385 C65.97198229 442.67220676 65.90162364 459.89857824 65.8125 477.125 C69.74577952 477.05610195 73.67812514 476.96812821 77.6105957 476.86254883 C79.6054063 476.81298681 81.60057257 476.77848867 83.59570312 476.74414062 C85.47612305 476.6909668 85.47612305 476.6909668 87.39453125 476.63671875 C88.55186768 476.61053467 89.7092041 476.58435059 90.90161133 476.55737305 C93.78947325 476.35065423 93.78947325 476.35065423 95.69080544 474.8060751 C97.59655281 471.94994603 97.20714414 468.72877255 97.16552734 465.41235352 C97.16876762 464.23627533 97.16876762 464.23627533 97.17207336 463.03643799 C97.17516131 461.33402523 97.17155158 459.63159022 97.16205978 457.92920113 C97.14834133 455.23502023 97.15474655 452.54157756 97.16690063 449.84739685 C97.19789401 442.18784782 97.1929719 434.52846931 97.17285156 426.86889648 C97.16194285 422.18386581 97.17510537 417.49938959 97.20274734 412.81443596 C97.20819349 411.02865889 97.20410972 409.24282655 97.19034958 407.45709419 C97.17133051 404.9597936 97.18268091 402.46430966 97.20068359 399.96704102 C97.18734482 399.22872543 97.17400604 398.49040985 97.16026306 397.72972107 C97.22028016 393.98846222 97.5436026 392.41510951 100.12417603 389.63096619 C103.79108755 387.57680723 105.82370978 388.01700272 109.8125 389.125 C112.39705285 391.02033875 112.77525506 392.01326517 113.8125 395.125 C113.9185801 397.61201579 113.96972867 400.07142208 113.97363281 402.55883789 C113.97859772 403.31374512 113.98356262 404.06865234 113.98867798 404.84643555 C114.00329408 407.34685173 114.01010293 409.84720434 114.015625 412.34765625 C114.02137972 414.09061179 114.02713741 415.83356731 114.03289795 417.57652283 C114.0434083 421.23583267 114.04924982 424.89512055 114.05273438 428.55444336 C114.05819975 433.22247768 114.08218545 437.89021747 114.11070633 442.55815983 C114.12942351 446.16233639 114.13454326 449.76644355 114.13607025 453.3706646 C114.1390801 455.09009843 114.14705166 456.80953154 114.16025543 458.52891731 C114.31086212 479.66035641 114.31086212 479.66035641 108.875 486.59765625 C108.194375 487.12230469 107.51375 487.64695312 106.8125 488.1875 C106.131875 488.73535156 105.45125 489.28320312 104.75 489.84765625 C101.16405163 492.21177947 98.11774665 492.25709563 93.93592834 492.27890015 C92.7091185 492.28750061 91.48230865 492.29610107 90.21832275 492.30496216 C88.85656781 492.30939718 87.49481241 492.31369555 86.13305664 492.31787109 C84.70069683 492.32577355 83.26833901 492.33404259 81.83598328 492.34265137 C77.13156022 492.36884614 72.42712834 492.38417245 67.72265625 492.3984375 C66.1034539 492.40379747 64.4842516 492.40917498 62.86504936 492.41456985 C56.13178942 492.43619127 49.39853187 492.45492978 42.66524601 492.46619225 C33.01167655 492.48244565 23.35850865 492.51566515 13.70509058 492.57259309 C6.91861175 492.61125281 0.13224052 492.63081996 -6.65434557 492.63611281 C-10.70896984 492.63977062 -14.76316558 492.65183735 -18.81767082 492.68421555 C-22.63042562 492.71422835 -26.44249104 492.72063289 -30.25533867 492.70883179 C-31.65499945 492.7086105 -33.05469162 492.71696105 -34.45424271 492.73448563 C-36.36400956 492.75709875 -38.27408768 492.74592195 -40.1839447 492.73300171 C-41.25301528 492.73631186 -42.32208586 492.739622 -43.42355251 492.74303246 C-46.1875 492.125 -46.1875 492.125 -48.56662846 489.81356239 C-50.1875 487.125 -50.1875 487.125 -50.125 483.5 C-49.1875 480.125 -49.1875 480.125 -46.1875 477.125 C-39.5875 477.125 -32.9875 477.125 -26.1875 477.125 C-26.1875 409.145 -26.1875 341.165 -26.1875 271.125 C-29.4875 272.775 -32.7875 274.425 -36.1875 276.125 C-50.50826985 281.33255267 -66.72234969 282.54943137 -81.1875 277.125 C-85.1475 275.145 -89.1075 273.165 -93.1875 271.125 C-93.5175 339.105 -93.8475 407.085 -94.1875 477.125 C-87.2575 477.125 -80.3275 477.125 -73.1875 477.125 C-69.1875 481.125 -69.1875 481.125 -68.6875 484.625 C-69.27427547 488.73242826 -69.96382709 489.62978976 -73.1875 492.125 C-75.94027424 492.62836456 -75.94027424 492.62836456 -79.16413879 492.63293457 C-80.38798782 492.64421387 -81.61183685 492.65549316 -82.87277222 492.66711426 C-84.22613762 492.65933717 -85.57950069 492.65114451 -86.93286133 492.64257812 C-88.36050633 492.64799935 -89.78814573 492.65512202 -91.21577454 492.66381836 C-95.09205652 492.68205986 -98.96791281 492.67497972 -102.84420228 492.66230202 C-106.90352667 492.65217263 -110.96281468 492.66156807 -115.0221405 492.66784668 C-121.84238217 492.67512577 -128.66245065 492.6655312 -135.48266602 492.64648438 C-143.35915603 492.62474118 -151.23523146 492.63174717 -159.11171132 492.65379 C-165.87876035 492.67196788 -172.64568485 492.6744899 -179.41275042 492.66403532 C-183.4522513 492.6578101 -187.49155766 492.65693733 -191.53104591 492.67018127 C-195.33232987 492.68177311 -199.13308222 492.67365394 -202.93430901 492.65060425 C-204.32622522 492.6453337 -205.71818649 492.64680257 -207.11008453 492.65565491 C-215.68719794 492.70515644 -221.42861216 492.48909221 -227.9296875 486.52734375 C-231.75837238 481.57645812 -232.31374504 478.43365905 -232.33467102 472.25946045 C-232.33834771 471.55694255 -232.3420244 470.85442465 -232.3458125 470.13061833 C-232.35684825 467.77033975 -232.36069312 465.41010521 -232.36450195 463.04980469 C-232.37076713 461.35943461 -232.37741398 459.66906592 -232.38441467 457.97869873 C-232.40546667 452.41810059 -232.41582423 446.85750216 -232.42578125 441.296875 C-232.42982963 439.37950883 -232.43394658 437.4621428 -232.43813133 435.54477692 C-232.45719253 426.5281821 -232.47141658 417.51159548 -232.4797433 408.49498439 C-232.48949269 398.11035481 -232.515748 387.7259397 -232.55624419 377.3413856 C-232.58650684 369.30293886 -232.60122212 361.26455318 -232.60452431 353.22605062 C-232.606865 348.43171885 -232.61569542 343.63761592 -232.64098549 338.84334564 C-232.66444659 334.32231546 -232.6684278 329.80166177 -232.65822411 325.28058624 C-232.65773284 323.6323877 -232.66393067 321.98416949 -232.67778015 320.33602905 C-232.83397217 300.62493121 -227.96586761 283.88753672 -214.1875 269.125 C-202.95669139 258.65302981 -189.85542545 252.8973993 -175.67001343 247.67120361 C-171.9992978 246.31881482 -168.33763044 244.94267294 -164.67530823 243.56774902 C-162.76366681 242.85019257 -160.85158347 242.13381243 -158.93907166 241.4185791 C-148.3780874 237.46390692 -137.87524856 233.36264759 -127.375 229.25 C-125.60850781 228.55925459 -123.84198837 227.86857884 -122.07543945 227.17797852 C-117.77814583 225.49697177 -113.48148414 223.81444576 -109.1875 222.125 C-108.21852783 221.79226074 -107.24955566 221.45952148 -106.2512207 221.11669922 C-105.57019287 220.78943848 -104.88916504 220.46217773 -104.1875 220.125 C-103.8575 219.135 -103.5275 218.145 -103.1875 217.125 C-104.30721191 217.14071045 -105.42692383 217.1564209 -106.58056641 217.17260742 C-110.75139111 217.22707894 -114.92218462 217.26141252 -119.09326172 217.28979492 C-120.89539892 217.3048424 -122.69749973 217.3252853 -124.49951172 217.35131836 C-127.09612021 217.38788021 -129.69224275 217.40476681 -132.2890625 217.41796875 C-133.48941635 217.44119453 -133.48941635 217.44119453 -134.71401978 217.46488953 C-140.42943103 217.46659282 -144.59584952 216.41207617 -149.015625 212.51171875 C-149.48484375 211.95097656 -149.9540625 211.39023438 -150.4375 210.8125 C-150.91703125 210.25949219 -151.3965625 209.70648438 -151.890625 209.13671875 C-155.99004917 202.77767222 -155.47132884 195.9597803 -155.44628906 188.67236328 C-155.4497937 187.41947006 -155.45329834 186.16657684 -155.45690918 184.87571716 C-155.46419321 181.44733629 -155.46249755 178.01919753 -155.45615101 174.59083033 C-155.45106611 170.98550766 -155.45579038 167.38019493 -155.45892334 163.77487183 C-155.46256042 157.71057292 -155.45777555 151.64632274 -155.44824219 145.58203125 C-155.43740722 138.6100953 -155.44084795 131.6382768 -155.451895 124.66634381 C-155.46103424 118.6541228 -155.46221957 112.64193676 -155.45701766 106.62971103 C-155.45392779 103.05110629 -155.4534041 99.47255627 -155.46009064 95.89395523 C-155.5139543 62.52333256 -152.37414586 33.11900052 -128.1875 8.125 C-127.32382813 7.23167969 -126.46015625 6.33835937 -125.5703125 5.41796875 C-91.56793472 -27.4240905 -36.9199653 -28.70284783 0 0 Z M-114.1875 17.125 C-114.81785156 17.66382812 -115.44820312 18.20265625 -116.09765625 18.7578125 C-130.08669709 31.44035978 -137.72435173 51.71225059 -139.1875 70.125 C-139.33837174 74.39702137 -139.35467151 78.66649905 -139.36450195 82.94091797 C-139.37107315 84.19562393 -139.37764435 85.4503299 -139.38441467 86.74305725 C-139.40402396 90.86776987 -139.41578493 94.99244399 -139.42578125 99.1171875 C-139.42983375 100.54264468 -139.43395081 101.96810169 -139.43813133 103.3935585 C-139.4571236 110.08107833 -139.47137754 116.76858742 -139.4797433 123.45612895 C-139.48955078 131.16656622 -139.51598575 138.87671911 -139.55624419 146.58705604 C-139.58635664 152.55921196 -139.60120675 158.53128593 -139.60452431 164.50351632 C-139.60687656 168.06668112 -139.61586233 171.62953994 -139.64098549 175.19262314 C-139.66849651 179.15699295 -139.66445014 183.12098243 -139.6574707 187.08544922 C-139.67028076 188.26676926 -139.68309082 189.44808929 -139.69628906 190.66520691 C-139.68934525 191.74175034 -139.68240143 192.81829376 -139.67524719 193.92745972 C-139.67763555 194.86429533 -139.6800239 195.80113094 -139.68248463 196.76635551 C-139.38562981 199.26214812 -139.38562981 199.26214812 -137.35751629 200.92856026 C-134.25407054 202.63964688 -131.76015942 202.46278804 -128.234375 202.41796875 C-127.24404266 202.41160149 -127.24404266 202.41160149 -126.23370361 202.40510559 C-124.13454609 202.38837435 -122.03636504 202.35073551 -119.9375 202.3125 C-118.51043058 202.29744584 -117.08334604 202.28375871 -115.65625 202.27148438 C-112.16635183 202.23849001 -108.6770213 202.18674743 -105.1875 202.125 C-105.97213623 201.34358643 -106.75677246 200.56217285 -107.56518555 199.75708008 C-124.54580741 182.71322156 -130.35902318 162.67087932 -130.42773438 139.08862305 C-130.43749648 137.06323008 -130.46862879 135.03883038 -130.5 133.01367188 C-130.54920999 120.65581334 -130.54920999 120.65581334 -127.1875 115.125 C-123.05370767 111.61127652 -118.14967677 109.7153964 -113.234375 107.5234375 C-90.36113762 97.02520803 -68.9495574 80.15138283 -52.7734375 60.8671875 C-49.3106442 57.0632323 -46.19211353 56.37112853 -41.1875 56.125 C-34.0659719 57.66799776 -30.23395895 61.65139115 -25.015625 66.5703125 C-17.43319795 73.41963196 -8.66764706 77.47603694 0.70727539 81.28564453 C6.12583891 83.54947275 8.62192076 85.36786912 11 90.875 C11.268125 91.6175 11.53625 92.36 11.8125 93.125 C14.4525 93.455 17.0925 93.785 19.8125 94.125 C20.47549238 64.42294124 17.14308429 40.27131932 -3.875 17.875 C-21.10632898 1.49460085 -42.02487759 -4.61292747 -65.41796875 -4.1796875 C-84.04500101 -3.44252613 -100.58582712 4.60136865 -114.1875 17.125 Z M-44.7734375 74.48046875 C-47.35446792 77.12348899 -49.85947267 79.70173893 -52.125 82.625 C-55.10949501 86.2425697 -58.61236676 89.10442539 -62.1875 92.125 C-63.03054687 92.8675 -63.87359375 93.61 -64.7421875 94.375 C-76.87930501 104.86469713 -90.12596942 113.56700941 -104.63671875 120.40625 C-108.26783095 122.16388407 -111.70779701 124.08810069 -115.1875 126.125 C-115.88706626 149.63042621 -115.26800738 168.09845396 -98.6875 186.4375 C-85.88210014 198.58875404 -70.37536909 201.76249733 -53.33984375 201.4375 C-39.84455997 200.85085481 -27.41993811 193.81906002 -18.1875 184.125 C-7.03205889 170.55254665 -3.84350389 156.89492906 -3.9921875 139.6796875 C-3.9950174 138.42866241 -3.99784729 137.17763733 -4.00076294 135.88870239 C-4.00999832 132.59748436 -4.02789882 129.30647039 -4.0501709 126.01531982 C-4.07080139 122.64305083 -4.07980105 119.2707517 -4.08984375 115.8984375 C-4.11179607 109.3072133 -4.14519202 102.7161233 -4.1875 96.125 C-4.7303363 95.87429245 -5.27317261 95.6235849 -5.8324585 95.36528015 C-8.32315773 94.21119647 -10.81000536 93.04903023 -13.296875 91.88671875 C-14.15071777 91.49254761 -15.00456055 91.09837646 -15.88427734 90.69226074 C-24.32400764 86.73436028 -31.21813287 81.74028974 -38.25 75.625 C-41.49924173 72.55560413 -41.49924173 72.55560413 -44.7734375 74.48046875 Z M11.8125 109.125 C11.8125 119.355 11.8125 129.585 11.8125 140.125 C17.98416212 138.06777929 21.12760462 136.73949282 24.625 131.3125 C26.20572051 127.06951338 26.73553641 123.60729 25.12109375 119.265625 C22.87920164 114.8756438 20.20079181 112.5019914 15.8125 110.125 C14.4925 109.795 13.1725 109.465 11.8125 109.125 Z M10.8125 157.125 C9.42272626 160.24043755 9.42272626 160.24043755 8.8125 164 C5.49240808 178.77405507 -2.26974127 191.69010767 -14.1875 201.125 C-14.1875 201.455 -14.1875 201.785 -14.1875 202.125 C-9.98831815 202.19930494 -5.78948726 202.25367413 -1.58984375 202.28979492 C-0.16204154 202.30485681 1.2657146 202.32531062 2.69335938 202.35131836 C4.74881373 202.38781842 6.80365505 202.40475166 8.859375 202.41796875 C10.09526367 202.4336792 11.33115234 202.44938965 12.60449219 202.46557617 C15.73499213 202.26754702 15.73499213 202.26754702 18.22265625 201.2265625 C20.94225932 197.63160808 20.29836613 193.57560256 20.203125 189.20703125 C20.19463531 187.74845955 20.19463531 187.74845955 20.18597412 186.26042175 C20.16356929 183.152282 20.11336481 180.04529176 20.0625 176.9375 C20.04244033 174.83139685 20.02418864 172.72527564 20.0078125 170.61914062 C19.96369093 165.45398364 19.8946346 160.28968676 19.8125 155.125 C16.23759528 155.125 14.03892964 155.55468983 10.8125 157.125 Z M-87.1875 212.125 C-87.28546875 213.06601563 -87.3834375 214.00703125 -87.484375 214.9765625 C-89.04632353 227.98382353 -89.04632353 227.98382353 -94.1875 233.125 C-95.22982074 242.54443842 -95.22982074 242.54443842 -93.046875 251.53125 C-86.14223429 258.90513813 -74.29712025 263.5793849 -64.42578125 264.4609375 C-50.15122639 264.60297287 -38.74518996 261.13693296 -27.57226562 251.77099609 C-25.0421553 248.76359063 -25.71686027 245.08139161 -25.75 241.3125 C-25.73001953 240.51779297 -25.71003906 239.72308594 -25.68945312 238.90429688 C-25.69404668 233.35069196 -26.89505653 230.70933557 -30.1875 226.125 C-31.015625 222.6953125 -31.015625 222.6953125 -31.4375 219.25 C-31.58703125 218.09757813 -31.7365625 216.94515625 -31.890625 215.7578125 C-31.98859375 214.88898438 -32.0865625 214.02015625 -32.1875 213.125 C-32.85136719 213.25777344 -33.51523437 213.39054688 -34.19921875 213.52734375 C-36.86197917 214.05989583 -39.52473958 214.59244792 -42.1875 215.125 C-43.34765625 215.38168457 -43.34765625 215.38168457 -44.53125 215.64355469 C-58.62822173 218.19863081 -73.68112203 216.5741598 -87.1875 212.125 Z M-10.1875 240.125 C-10.1875 278.075 -10.1875 316.025 -10.1875 355.125 C-7.56957151 352.50707151 -5.41413984 350.26091076 -3.234375 347.3671875 C-2.43422974 346.31156616 -2.43422974 346.31156616 -1.61791992 345.23461914 C-0.78611206 344.12848267 -0.78611206 344.12848267 0.0625 343 C4.44324953 337.20857384 8.87489595 331.49329517 13.51953125 325.91015625 C15.00803 324.22240733 15.00803 324.22240733 14.8125 322.125 C12.92446053 320.6139747 11.03719311 319.20167364 9.0625 317.8125 C4.17576867 314.33631069 -0.13554144 311.2107451 -2.125 305.375 C-2.22910265 299.96166202 -0.90590553 295.24552358 2.54125977 290.99169922 C4.64909009 288.88614272 6.82162325 286.90066126 9.0625 284.9375 C9.80113281 284.26525391 10.53976562 283.59300781 11.30078125 282.90039062 C15.73013812 278.88897131 20.26073055 274.99641238 24.8125 271.125 C23.18267372 268.25243119 21.52841407 265.40040279 19.83203125 262.56640625 C18.55155565 260.38439658 17.33175565 258.16467532 16.19921875 255.90234375 C10.90701937 246.27905706 3.58263982 243.71365043 -6.43505859 240.57714844 C-8.20862478 240.04172365 -8.20862478 240.04172365 -10.1875 240.125 Z M-131.9140625 249.65234375 C-133.88805018 252.39311947 -135.54785754 255.17364357 -137.1875 258.125 C-138.56138764 260.104939 -139.93635632 262.08412838 -141.3125 264.0625 C-143.16598367 266.58518344 -143.16598367 266.58518344 -144.1875 269.125 C-142.3445526 275.83128082 -134.10443137 281.39303835 -129 285.75 C-119.10913455 294.37483467 -119.10913455 294.37483467 -118.1875 300.625 C-117.99551954 304.7845766 -118.53228763 308.2628378 -120.1875 312.125 C-121.50801969 312.81670079 -122.84463289 313.47775187 -124.1875 314.125 C-126.13290315 315.6302421 -128.04787127 317.1753094 -129.9375 318.75 C-130.92234375 319.56726563 -131.9071875 320.38453125 -132.921875 321.2265625 C-133.66953125 321.85304688 -134.4171875 322.47953125 -135.1875 323.125 C-130.99358339 328.79245488 -126.67674625 334.35333658 -122.30981445 339.88769531 C-118.97714977 344.11170058 -115.6853646 348.36465184 -112.4296875 352.6484375 C-112.01976562 353.13570313 -111.60984375 353.62296875 -111.1875 354.125 C-110.8575 354.125 -110.5275 354.125 -110.1875 354.125 C-110.1875 316.505 -110.1875 278.885 -110.1875 240.125 C-116.99168391 240.125 -127.05130787 245.14489067 -131.9140625 249.65234375 Z M-172.73681641 263.86743164 C-174.77885026 264.67420554 -176.82832536 265.45939623 -178.87890625 266.24414062 C-186.51967859 269.23231269 -193.0519046 272.56093952 -199.1875 278.125 C-199.82864746 278.68300293 -200.46979492 279.24100586 -201.13037109 279.81591797 C-212.00381033 289.48996478 -216.27586289 303.06838259 -217.1875 317.125 C-217.3380002 322.25578311 -217.35518472 327.38463017 -217.36450195 332.51708984 C-217.37077945 334.04900258 -217.37742735 335.58091383 -217.38441467 337.11282349 C-217.40527532 342.10385105 -217.41578853 347.09487837 -217.42578125 352.0859375 C-217.42983322 353.81009562 -217.43395026 355.53425359 -217.43813133 357.25841141 C-217.45713011 365.34858032 -217.47138155 373.43874033 -217.4797433 381.52892721 C-217.48954675 390.85747683 -217.5159689 400.18579116 -217.55624419 409.51425779 C-217.58636285 416.73824337 -217.60120744 423.9621612 -217.60452431 431.18620837 C-217.60687626 435.49663521 -217.61585817 439.80680906 -217.64098549 444.11716843 C-217.66420214 448.16386215 -217.66852564 452.21013493 -217.65822411 456.2568779 C-217.65772735 457.74199827 -217.66408891 459.227139 -217.67778015 460.71219635 C-217.69541204 462.73769097 -217.68603609 464.76336728 -217.67524719 466.78890991 C-217.67763555 467.9226322 -217.6800239 469.05635448 -217.68248463 470.22443199 C-217.38392424 473.19246332 -217.38392424 473.19246332 -215.56424236 475.49659157 C-212.42793533 477.64541043 -210.45418707 477.58439431 -206.671875 477.515625 C-205.42148438 477.50273437 -204.17109375 477.48984375 -202.8828125 477.4765625 C-201.58085937 477.44304687 -200.27890625 477.40953125 -198.9375 477.375 C-197.62007812 477.35695313 -196.30265625 477.33890625 -194.9453125 477.3203125 C-191.69197692 477.27316271 -188.44010375 477.20736044 -185.1875 477.125 C-185.18511165 476.41139659 -185.18272329 475.69779318 -185.18026257 474.96256542 C-185.12116745 457.61173865 -185.04565282 440.26106155 -184.95178509 422.91038799 C-184.90678901 414.51977988 -184.86738323 406.12921458 -184.84106445 397.73852539 C-184.81811514 390.42655165 -184.78475172 383.11471296 -184.73879844 375.80284625 C-184.7148246 371.93001814 -184.69612321 368.05732411 -184.68988609 364.18442345 C-184.6838539 360.54083349 -184.66392248 356.89758677 -184.63322449 353.25412369 C-184.62020588 351.27591692 -184.62201929 349.29763009 -184.6242218 347.31938171 C-184.61168365 346.14569031 -184.59914551 344.9719989 -184.58622742 343.76274109 C-184.57931397 342.22933846 -184.57931397 342.22933846 -184.57226086 340.664958 C-184.1875 338.125 -184.1875 338.125 -182.78367329 336.29974079 C-180.80266942 334.841775 -179.63203589 334.6921298 -177.1875 334.6875 C-176.506875 334.66816406 -175.82625 334.64882813 -175.125 334.62890625 C-172.30875984 335.35 -171.67109362 336.66630992 -170.1875 339.125 C-169.80273914 341.77238846 -169.80273914 341.77238846 -169.78877258 344.84503174 C-169.77623444 346.01168365 -169.76369629 347.17833557 -169.7507782 348.38034058 C-169.75221329 349.65636139 -169.75364838 350.9323822 -169.75512695 352.24707031 C-169.74610876 353.607258 -169.7357814 354.96743755 -169.72424316 356.3276062 C-169.69665337 360.01735574 -169.68738602 363.70695117 -169.68138909 367.3967905 C-169.67201053 371.25390804 -169.64580758 375.11091022 -169.62138367 378.96795654 C-169.57770066 386.27057293 -169.5491648 393.57316696 -169.52606028 400.87587428 C-169.49901823 409.19026449 -169.45510614 417.50453876 -169.40977156 425.81884623 C-169.31689944 442.92085093 -169.24745759 460.02284342 -169.1875 477.125 C-149.7175 477.125 -130.2475 477.125 -110.1875 477.125 C-110.1875 462.605 -110.1875 448.085 -110.1875 433.125 C-114.1475 435.105 -114.1475 435.105 -118.1875 437.125 C-126.93675676 439.30338638 -133.6007389 437.41838055 -141.4375 433.5 C-146.74103552 428.91967387 -149.28429781 423.54955012 -150.1875 416.625 C-150.5444097 409.55620521 -148.76077687 403.56937722 -144.1875 398.125 C-144.1875 397.465 -144.1875 396.805 -144.1875 396.125 C-140.85416667 394.45833333 -137.52083333 392.79166667 -134.1875 391.125 C-133.91234912 385.54270809 -133.71453791 379.96448341 -133.58325195 374.37695312 C-133.52845571 372.48334918 -133.45378059 370.59019899 -133.35766602 368.69824219 C-132.85382629 358.51367445 -132.60318115 350.33381343 -139.41796875 342.2265625 C-140.8337383 340.66979178 -142.28060595 339.15664657 -143.75863647 337.65899658 C-147.83523125 333.28245373 -150.91582439 328.95042639 -151.5 322.875 C-151.12324872 318.35398468 -150.15674683 315.48602245 -147.1875 312.125 C-143.3239775 308.91396069 -139.3141434 305.98639896 -135.1875 303.125 C-136.57526947 299.95549959 -138.16364617 297.96020662 -140.70703125 295.62890625 C-141.39990234 294.98759766 -142.09277344 294.34628906 -142.80664062 293.68554688 C-143.53044922 293.02619141 -144.25425781 292.36683594 -145 291.6875 C-146.42385485 290.37703812 -147.84704671 289.06585545 -149.26953125 287.75390625 C-150.28067993 286.82251831 -150.28067993 286.82251831 -151.31225586 285.87231445 C-159.97146456 277.80383943 -159.97146456 277.80383943 -160.5 271.25 C-160.41857327 267.28229764 -159.16050019 264.57775033 -157.1875 261.125 C-157.1875 260.465 -157.1875 259.805 -157.1875 259.125 C-162.64477641 259.125 -167.70799001 261.87007854 -172.73681641 263.86743164 Z M-2.1875 371.125 C-3.21763277 372.77321244 -4.21864628 374.44003702 -5.1875 376.125 C-3.8675 376.125 -2.5475 376.125 -1.1875 376.125 C-1.1875 374.475 -1.1875 372.825 -1.1875 371.125 C-1.5175 371.125 -1.8475 371.125 -2.1875 371.125 Z M-118.1875 372.125 C-118.1875 378.395 -118.1875 384.665 -118.1875 391.125 C-114.2275 393.105 -114.2275 393.105 -110.1875 395.125 C-109.219303 385.95209016 -109.219303 385.95209016 -111.7109375 377.34765625 C-113.43868042 375.39777495 -115.10476624 373.68829896 -117.1875 372.125 C-117.5175 372.125 -117.8475 372.125 -118.1875 372.125 Z M-132.1875 408.125 C-134.24946218 410.3390989 -134.24946218 410.3390989 -135.1875 413.125 C-134.42710803 416.92695984 -133.41786592 419.85177954 -130.1875 422.125 C-127.01054865 423.29545576 -125.69866739 423.34407174 -122.5625 422 C-119.84037411 419.85095325 -118.46644294 418.35997332 -117.1875 415.125 C-117.94789197 411.32304016 -118.95713408 408.39822046 -122.1875 406.125 C-126.51643596 404.53012886 -128.61821803 405.30714581 -132.1875 408.125 Z " fill="#000000" transform="translate(315.1875,19.875)"/>
</svg>
