<?xml version="1.0" encoding="UTF-8"?>
<svg version="1.1" xmlns="http://www.w3.org/2000/svg" width="512" height="512">
<path d="M0 0 C1.82917969 -0.04253906 1.82917969 -0.04253906 3.6953125 -0.0859375 C6.875 0.375 6.875 0.375 9.2734375 2.1796875 C11.60738937 5.37890933 11.42623305 7.51636862 10.875 11.375 C8.79136719 14.06302674 7.45673691 15.21575592 4.15478516 16.11962891 C3.12659668 16.23741699 2.0984082 16.35520508 1.0390625 16.4765625 C-0.11561523 16.62383789 -1.27029297 16.77111328 -2.45996094 16.92285156 C-3.66942383 17.07206055 -4.87888672 17.22126953 -6.125 17.375 C-8.51483107 17.74634399 -10.90288457 18.12930071 -13.2890625 18.5234375 C-14.51496094 18.72453125 -15.74085938 18.925625 -17.00390625 19.1328125 C-18.24011719 19.33648438 -19.47632813 19.54015625 -20.75 19.75 C-22.56951172 20.04390625 -22.56951172 20.04390625 -24.42578125 20.34375 C-34.72860968 22.04473944 -44.92070285 24.16602116 -55.125 26.375 C-54.92455078 26.9343222 -54.72410156 27.49364441 -54.51757812 28.06991577 C-52.43761678 33.87566389 -50.36204959 39.68296905 -48.2890625 45.49121094 C-47.51415505 47.66056174 -46.7381165 49.82950883 -45.9609375 51.99804688 C-44.84600114 55.10962947 -43.7351001 58.22262676 -42.625 61.3359375 C-42.27501953 62.309935 -41.92503906 63.2839325 -41.56445312 64.28744507 C-41.24412109 65.18822784 -40.92378906 66.08901062 -40.59375 67.01708984 C-40.16739258 68.20955826 -40.16739258 68.20955826 -39.73242188 69.42611694 C-39.125 71.375 -39.125 71.375 -39.125 73.375 C-38.36469482 73.25906494 -37.60438965 73.14312988 -36.82104492 73.02368164 C-33.31869859 72.49158878 -29.81561356 71.96451708 -26.3125 71.4375 C-24.5190918 71.16389648 -24.5190918 71.16389648 -22.68945312 70.88476562 C-8.74738216 68.79535444 4.85755008 68.10419125 18.9375 68.0625 C19.87499084 68.05888458 20.81248169 68.05526917 21.77838135 68.05154419 C41.56788824 68.0210794 61.45881188 69.31245959 80.875 73.375 C81.13780762 72.08408447 81.40061523 70.79316895 81.67138672 69.46313477 C82.78272175 64.47381641 84.37435226 59.75825328 86.1328125 54.96484375 C86.44072723 54.11193253 86.74864197 53.2590213 87.06588745 52.38026428 C88.03876596 49.68910723 89.01923756 47.00079252 90 44.3125 C90.66587115 42.47479284 91.33124048 40.63690378 91.99609375 38.79882812 C93.61660655 34.32209645 95.24392933 29.84789521 96.875 25.375 C96.31069275 25.31794891 95.7463855 25.26089783 95.16497803 25.20211792 C90.23456375 24.68247098 85.39053431 23.99130301 80.515625 23.0703125 C79.14796782 22.81541122 77.78029132 22.56061364 76.41259766 22.3059082 C74.98339721 22.03727864 73.55419802 21.76864245 72.125 21.5 C61.42725869 19.50009073 50.75384364 17.60825375 39.93066406 16.40087891 C35.8554261 15.89766818 33.48875504 15.60526136 30.875 12.375 C29.75196867 8.68503991 29.53761153 7.06511278 31.25 3.5625 C32.875 1.375 32.875 1.375 33.875 0.375 C45.03793414 -0.41245973 55.67459665 1.16417761 66.625 3.125 C68.21947241 3.40270623 69.81403708 3.67988327 71.40869141 3.95654297 C75.2302875 4.62451869 79.04827381 5.3106523 82.86462402 6.00793457 C84.66991679 6.33755479 86.47602236 6.66271597 88.28222656 6.98730469 C90.94251869 7.47171609 93.59701157 7.97725979 96.25 8.5 C96.96639648 8.63374023 97.68279297 8.76748047 98.42089844 8.90527344 C103.89938192 10.05507861 108.15056534 12.23432249 111.6875 16.625 C115.11120678 24.55358413 113.37647168 30.35390993 110.5625 38.125 C110.03293701 39.65894409 110.03293701 39.65894409 109.49267578 41.22387695 C107.64823881 46.52952391 105.72331033 51.80393971 103.76112366 57.06692505 C103.04839575 58.98151529 102.34160494 60.89820936 101.63598633 62.81542969 C100.72371316 65.28179723 99.79554563 67.74235327 98.8503418 70.19628906 C98.43308838 71.32131836 98.01583496 72.44634766 97.5859375 73.60546875 C97.20743652 74.59957764 96.82893555 75.59368652 96.43896484 76.61791992 C95.60646993 80.68777495 97.01253919 83.02155999 99.171875 86.41015625 C99.65140625 87.07917969 100.1309375 87.74820313 100.625 88.4375 C106.89533499 97.69006749 111.20737348 107.52261029 113.875 118.375 C114.14207764 119.40886841 114.14207764 119.40886841 114.41455078 120.46362305 C116.84623468 131.4040275 116.23365331 142.85578082 116.25585938 154.00415039 C116.26541576 156.86126963 116.29919799 159.71733735 116.3359375 162.57421875 C116.32836929 163.87138069 116.32836929 163.87138069 116.32064819 165.19474792 C116.40500297 170.44040453 117.30460242 174.1092805 119.92129517 178.67658997 C122.08583535 182.53132221 122.13518935 186.0967741 122.25 190.4375 C122.29898437 191.68660156 122.34796875 192.93570313 122.3984375 194.22265625 C122.23323233 197.71823011 121.16832395 199.77872195 119.37768555 202.75708008 C116.05590097 209.22970657 116.2148728 215.26257826 116.30859375 222.4140625 C116.30562553 223.74824899 116.29988014 225.08243186 116.29151917 226.41659546 C116.27095478 230.6112976 116.29035634 234.80534168 116.3125 239 C116.33078985 243.20173224 116.34117355 247.40308172 116.32276917 251.60482788 C116.3135241 254.21145862 116.32253515 256.81823711 116.35240173 259.42471313 C116.32882824 267.24958857 115.81633404 273.38281004 110.05859375 279.21484375 C109.48238281 279.57707031 108.90617187 279.93929688 108.3125 280.3125 C107.73371094 280.69277344 107.15492188 281.07304687 106.55859375 281.46484375 C102.24662834 283.79590626 98.02237859 283.50272883 93.26953125 283.47265625 C92.43032639 283.4712413 91.59112152 283.46982635 90.72648621 283.46836853 C88.04678784 283.46277215 85.3671731 283.45022035 82.6875 283.4375 C80.87044392 283.43248453 79.05338652 283.42792171 77.23632812 283.42382812 C72.78251987 283.41280391 68.32877411 283.39554178 63.875 283.375 C63.875 284.365 63.875 285.355 63.875 286.375 C64.40989548 286.5481926 64.94479095 286.72138519 65.49589539 286.89982605 C71.31999222 288.81018893 77.04977791 290.91208118 82.76953125 293.11328125 C83.7032103 293.47078461 84.63688934 293.82828796 85.59886169 294.19662476 C88.62934032 295.35783692 91.65858716 296.52221009 94.6875 297.6875 C95.72346313 298.08595123 96.75942627 298.48440247 97.82678223 298.89492798 C102.0784163 300.53048352 106.32999291 302.16618409 110.58078003 303.80393982 C116.39502417 306.04267432 122.2145728 308.26619668 128.04325867 310.46705627 C131.31337891 311.70319006 134.57990186 312.94863866 137.84579468 314.19589233 C139.3428958 314.76512552 140.84157777 315.33022162 142.34194946 315.89077759 C163.22049066 323.69825819 179.85953488 335.96685046 189.55078125 356.515625 C194.11121869 368.78442773 194.37764249 381.03719404 194.32104492 393.95532227 C194.31242485 396.96372584 194.34157654 399.9702933 194.37304688 402.97851562 C194.37465662 404.90364527 194.3740857 406.82877826 194.37109375 408.75390625 C194.38232773 409.64662735 194.39356171 410.53934845 194.40513611 411.4591217 C194.35829384 415.63029592 194.22085497 417.81978029 191.96899414 421.43481445 C189.72196894 423.51679058 188.88953792 424.05887769 185.875 424 C185.215 424.01289063 184.555 424.02578125 183.875 424.0390625 C180.64953473 422.96810724 179.66833395 421.23161173 177.875 418.375 C177.30497416 415.28853015 177.34113242 412.25268883 177.37109375 409.12109375 C177.3569619 407.77604515 177.3569619 407.77604515 177.34254456 406.40382385 C177.31393386 403.53981704 177.31081223 400.67663787 177.3125 397.8125 C177.28760798 378.35523872 176.43781206 361.451905 162.22680664 346.57202148 C155.03858593 339.85689658 146.21441535 335.94653332 137.125 332.5 C136.05967041 332.08508301 134.99434082 331.67016602 133.89672852 331.24267578 C131.67993565 330.38025405 129.46124477 329.52269582 127.24072266 328.66992188 C122.79027612 326.95766535 118.35306621 325.21239697 113.91503906 323.46826172 C109.57141173 321.76266679 105.22359746 320.06787562 100.875 318.375 C100.64941406 319.09558594 100.42382812 319.81617188 100.19140625 320.55859375 C98.59250808 323.97938182 96.56910078 325.87128316 93.8125 328.4375 C89.56457497 332.19231784 89.56457497 332.19231784 87.875 337.375 C88.77863281 338.02726562 89.68226563 338.67953125 90.61328125 339.3515625 C91.80515833 340.23373924 92.99653853 341.11658756 94.1875 342 C94.78240234 342.42667969 95.37730469 342.85335938 95.99023438 343.29296875 C99.84835451 346.18117041 102.45945449 348.60258943 103.875 353.375 C103.78138642 360.90870612 100.02115424 365.24975381 94.875 370.3125 C94.17383057 371.02978271 93.47266113 371.74706543 92.75024414 372.48608398 C90.47691218 374.80151004 88.17873919 377.08985088 85.875 379.375 C84.26904326 380.98128309 82.66357683 382.58805653 81.05859375 384.1953125 C78.73985452 386.51617426 76.41834793 388.83333055 74.08007812 391.13452148 C70.77217075 394.40066615 67.55829324 397.68201789 64.53515625 401.21484375 C59.49925939 407.06717829 53.91185599 412.39496303 48.41796875 417.81152344 C43.16782557 422.9944478 37.99741878 428.19191092 33.21484375 433.81640625 C32.15435864 435.05003179 31.02531749 436.22468251 29.875 437.375 C29.54302252 439.96328428 29.54302252 439.96328428 29.55615234 443.01806641 C29.53609131 444.21568604 29.51603027 445.41330566 29.49536133 446.6472168 C29.47832153 448.54274292 29.47832153 448.54274292 29.4609375 450.4765625 C29.44329346 451.63438232 29.42564941 452.79220215 29.4074707 453.98510742 C29.34425379 458.3232619 29.29817089 462.66165236 29.25 467 C29.12625 476.69375 29.0025 486.3875 28.875 496.375 C57.255 496.375 85.635 496.375 114.875 496.375 C114.67713237 474.83415956 114.67713237 474.83415956 114.42456055 453.29394531 C114.40995994 450.59701523 114.39721827 447.90007416 114.38671875 445.203125 C114.37365189 444.50370789 114.36058502 443.80429077 114.34712219 443.0836792 C114.31046354 441.01775418 114.305471 438.95389731 114.30737305 436.88769531 C114.29626999 435.72409485 114.28516693 434.56049438 114.27372742 433.3616333 C114.875 430.375 114.875 430.375 117.18391418 427.96405029 C119.875 426.375 119.875 426.375 123.5 426.4375 C128.01785714 427.69246032 128.01785714 427.69246032 129.875 430.375 C130.96795916 433.65387749 130.99541382 436.04767573 130.98852539 439.4987793 C130.98844986 440.75986008 130.98837433 442.02094086 130.98829651 443.32023621 C130.98318989 444.69656412 130.97797389 446.07289163 130.97265625 447.44921875 C130.97079086 448.85740611 130.96936753 450.26559411 130.96836853 451.67378235 C130.96455288 455.3776733 130.95473072 459.08152495 130.94366455 462.78540039 C130.93342997 466.56591246 130.92881172 470.34643108 130.92382812 474.12695312 C130.91363844 481.54300344 130.89406441 488.95894589 130.875 496.375 C146.055 496.375 161.235 496.375 176.875 496.375 C176.90078125 492.96800781 176.9265625 489.56101562 176.953125 486.05078125 C176.99154759 482.747719 177.03670731 479.44481274 177.08251953 476.1418457 C177.11072882 473.84797626 177.13194353 471.55400962 177.14599609 469.26000977 C177.16742551 465.96059407 177.21407783 462.66234698 177.265625 459.36328125 C177.26685364 458.33914627 177.26808228 457.31501129 177.26934814 456.25984192 C177.36114537 451.78782139 177.42683201 449.1118234 179.78808594 445.22973633 C182.03186471 443.23558713 182.91392988 442.6921666 185.875 442.75 C186.535 442.73710937 187.195 442.72421875 187.875 442.7109375 C191.17863712 443.80784826 192.07702538 445.39465037 193.875 448.375 C194.46549091 452.11258608 194.41154238 455.81263792 194.37109375 459.58984375 C194.37254898 460.67834122 194.37400421 461.76683868 194.37550354 462.88832092 C194.3738457 465.18721191 194.3622974 467.48611412 194.34155273 469.78491211 C194.31263142 473.29654309 194.32094071 476.80666081 194.33398438 480.31835938 C194.32774566 482.55469481 194.31935368 484.79102549 194.30859375 487.02734375 C194.31152939 488.07437973 194.31446503 489.12141571 194.31748962 490.20018005 C194.22698033 497.22480055 193.27496941 501.65924515 188.5 507.0625 C184.18445898 510.86428613 181.10059034 512.74912014 175.28175545 512.75531673 C174.16143051 512.76375668 173.04110558 512.77219662 171.8868314 512.78089231 C170.66106699 512.77488227 169.43530258 512.76887222 168.1723938 512.76268005 C166.86632388 512.76806559 165.56025396 512.77345113 164.21460617 512.77899987 C160.5908421 512.79347268 156.96730511 512.7892041 153.34352851 512.78183305 C149.43476705 512.77710816 145.5260552 512.78960526 141.61730957 512.79985046 C133.9600984 512.81705756 126.30296923 512.81787447 118.64574374 512.81263756 C112.42213444 512.80859793 106.19854939 512.81003696 99.97494125 512.81538582 C99.08952417 512.81613424 98.20410708 512.81688266 97.29185917 512.81765376 C95.49318695 512.81918523 93.69451474 512.82072357 91.89584254 512.82226873 C75.02311806 512.83600086 58.15043993 512.83055124 41.2777165 512.81908352 C25.84065204 512.80915192 10.40370744 512.82208926 -5.03333853 512.84601771 C-20.88196703 512.87039913 -36.73053968 512.88001884 -52.57918656 512.87336498 C-61.47783336 512.86987043 -70.37638797 512.87212028 -79.2750206 512.88961601 C-86.85086365 512.9043261 -94.42654961 512.90498919 -102.00238954 512.8875451 C-105.86759848 512.87902253 -109.73252667 512.87691593 -113.5977211 512.89219666 C-117.78818467 512.90855816 -121.97796862 512.89391995 -126.16842651 512.87620544 C-128.00038096 512.89061295 -128.00038096 512.89061295 -129.86934459 512.90531152 C-137.46580471 512.83907324 -142.14021331 512.02921021 -147.8671875 506.77734375 C-151.19687315 502.47171575 -152.24725691 499.62906255 -152.27217102 494.25579834 C-152.27932632 493.19634003 -152.28648163 492.13688171 -152.29385376 491.0453186 C-152.29654266 489.88277557 -152.29923157 488.72023254 -152.30200195 487.52246094 C-152.30857315 486.29766022 -152.31514435 485.0728595 -152.32191467 483.8109436 C-152.34167637 479.74375159 -152.35332573 475.67659913 -152.36328125 471.609375 C-152.36733085 470.20463288 -152.37144784 468.79989096 -152.37563133 467.39514923 C-152.39469247 460.78553878 -152.40891405 454.17593948 -152.4172433 447.56630683 C-152.42697933 439.96742642 -152.4531989 432.36884013 -152.49374419 424.77006316 C-152.52407721 418.88021804 -152.53872884 412.99045629 -152.54202431 407.10053468 C-152.54435796 403.59166803 -152.55309292 400.08311514 -152.57848549 396.57433319 C-152.74812234 371.83959842 -150.71354072 353.19732091 -133.125 334.375 C-120.86834952 322.39642361 -103.61465156 316.77014829 -87.88140869 310.8767395 C-84.81201734 309.72639541 -81.74709355 308.56480048 -78.68310547 307.40014648 C-71.54073666 304.68665599 -64.39319855 301.98690584 -57.2454834 299.28753662 C-52.02977743 297.31651808 -46.81793478 295.33594699 -41.61193848 293.3394165 C-39.28716472 292.45169151 -36.95771598 291.57710394 -34.62792969 290.70263672 C-33.23343293 290.16840227 -31.83920943 289.63345378 -30.4453125 289.09765625 C-29.24148926 288.64140869 -28.03766602 288.18516113 -26.79736328 287.71508789 C-23.81143396 286.61143506 -23.81143396 286.61143506 -23.125 283.375 C-24.23423828 283.40118408 -25.34347656 283.42736816 -26.48632812 283.4543457 C-30.63097692 283.54535419 -34.77553875 283.60243163 -38.92089844 283.6496582 C-40.70946136 283.67468775 -42.49792317 283.70872244 -44.28613281 283.75219727 C-46.86809323 283.81336411 -49.44869322 283.84132445 -52.03125 283.86328125 C-52.82116333 283.88908768 -53.61107666 283.9148941 -54.42492676 283.94148254 C-61.65813707 283.94507596 -66.39050675 281.0375329 -71.5 276.0625 C-75.80073765 268.94974157 -75.41233408 261.03456209 -75.38378906 252.98657227 C-75.3872937 251.764254 -75.39079834 250.54193573 -75.39440918 249.28257751 C-75.40167684 245.94721738 -75.40000828 242.61210715 -75.39365101 239.27676129 C-75.38855374 235.76400773 -75.39329369 232.25126416 -75.39642334 228.73851013 C-75.4000565 222.83159494 -75.39528549 216.92472984 -75.38574219 211.01782227 C-75.37490429 204.2321796 -75.37835171 197.44665759 -75.389395 190.66101795 C-75.39854105 184.80245497 -75.39971644 178.94392783 -75.39451766 173.08535999 C-75.39143193 169.60120899 -75.3908923 166.11711417 -75.39759064 162.632967 C-75.49359075 104.50675471 -75.49359075 104.50675471 -56.09375 84.4140625 C-53.95699534 79.91653859 -56.08478535 74.16784836 -57.59960938 69.65893555 C-58.21422566 67.94015856 -58.83767794 66.22452217 -59.46875 64.51171875 C-59.79790405 63.59791946 -60.12705811 62.68412018 -60.46618652 61.74263 C-61.51135826 58.84637265 -62.56791265 55.95442685 -63.625 53.0625 C-64.33540583 51.10119034 -65.0450489 49.13960422 -65.75390625 47.17773438 C-67.30949261 42.87468141 -68.87242126 38.57437525 -70.4420166 34.27641296 C-72.47267043 28.62311081 -73.00519152 23.86887598 -71 18.1875 C-67.8156193 13.41092895 -64.46720414 10.46543555 -58.90234375 9.10473633 C-57.29273017 8.78636214 -55.67904544 8.48809854 -54.0625 8.20703125 C-53.19415527 8.04128098 -52.32581055 7.8755307 -51.43115234 7.70475769 C-48.66536699 7.18157176 -45.89558879 6.68454353 -43.125 6.1875 C-41.29526469 5.84343197 -39.46583348 5.49774262 -37.63671875 5.15039062 C-10.87164408 0.11740436 -10.87164408 0.11740436 0 0 Z M-19.51235962 85.80316162 C-21.23653957 85.9743088 -22.96279581 86.12582276 -24.69052124 86.25640869 C-34.90260738 86.88101818 -34.90260738 86.88101818 -43.1394043 92.29174805 C-45.531257 95.45087223 -47.36935153 98.82325156 -49.125 102.375 C-49.63901367 103.35364014 -50.15302734 104.33228027 -50.68261719 105.34057617 C-58.09661143 119.94499091 -59.2766843 135.07730564 -59.27026367 151.14257812 C-59.27362228 152.36831543 -59.2769809 153.59405273 -59.28044128 154.85693359 C-59.28825274 158.18284304 -59.29161493 161.50869004 -59.29225707 164.83460426 C-59.29297187 166.91532783 -59.29511401 168.996045 -59.29775429 171.07676697 C-59.30696763 178.34219779 -59.31109326 185.6076104 -59.31030273 192.87304688 C-59.30969944 199.63914122 -59.32031059 206.40515649 -59.3360464 213.17123079 C-59.34910668 218.99480962 -59.35448744 224.81836249 -59.35384732 230.64195585 C-59.35359237 234.11444619 -59.35644365 237.58686574 -59.36702538 241.05934143 C-59.37847494 244.92045226 -59.37396898 248.78145305 -59.36791992 252.64257812 C-59.37353943 253.79270386 -59.37915894 254.94282959 -59.38494873 256.12780762 C-59.38075424 257.17621826 -59.37655975 258.22462891 -59.37223816 259.30480957 C-59.37278293 260.21692451 -59.37332769 261.12903946 -59.37388897 262.06879425 C-59.27496854 264.65078575 -59.27496854 264.65078575 -57.125 267.375 C-53.92074675 267.79354048 -53.92074675 267.79354048 -50.1484375 267.66796875 C-49.46319 267.66372391 -48.7779425 267.65947906 -48.07192993 267.65510559 C-45.88088871 267.63829753 -43.69076368 267.60064405 -41.5 267.5625 C-40.01563827 267.54745579 -38.53126215 267.53376693 -37.046875 267.52148438 C-33.40595167 267.4883879 -29.76556522 267.43659207 -26.125 267.375 C-26.51824463 266.91681885 -26.91148926 266.4586377 -27.31665039 265.98657227 C-28.40338368 264.719688 -29.48937152 263.45216398 -30.57470703 262.18408203 C-31.7113402 260.85771167 -32.85244664 259.5351712 -33.99609375 258.21484375 C-47.60740376 241.68439992 -50.30059341 222.96449258 -50.3125 202.1875 C-50.32474609 201.05119141 -50.33699219 199.91488281 -50.34960938 198.74414062 C-50.37402443 184.78686964 -50.37402443 184.78686964 -46.12890625 180.234375 C-41.938909 177.64082663 -37.54793562 175.65231553 -33.0625 173.625 C-24.84609672 169.80341708 -17.40452133 165.80886366 -10.125 160.375 C-9.6000293 159.98844238 -9.07505859 159.60188477 -8.53417969 159.20361328 C0.60745401 152.45315677 9.12267507 145.20820197 17.09765625 137.1015625 C17.85272461 136.33593994 18.60779297 135.57031738 19.38574219 134.78149414 C20.89807914 133.24140641 22.40290761 131.69390249 23.89941406 130.13842773 C24.59905273 129.42372314 25.29869141 128.70901855 26.01953125 127.97265625 C26.64190674 127.32820557 27.26428223 126.68375488 27.90551758 126.01977539 C31.06433235 123.38175194 34.09749635 122.49461595 38.125 121.875 C45.18287998 122.81605066 50.00859462 127.5055174 55.0625 132.25 C63.16583252 139.63335002 73.13451322 144.42095828 83.3515625 148.171875 C86.18634812 149.52344462 87.85406028 150.98493887 89.875 153.375 C90.1225 154.24125 90.37 155.1075 90.625 156 C91.60813841 158.51761296 91.60813841 158.51761296 93.74707031 159.04443359 C94.47506836 159.20250488 95.20306641 159.36057617 95.953125 159.5234375 C96.6843457 159.68763184 97.41556641 159.85182617 98.16894531 160.02099609 C98.73194336 160.13781738 99.29494141 160.25463867 99.875 160.375 C99.95058065 156.50139496 100.0042563 152.62808994 100.03979492 148.75390625 C100.06185261 146.80713762 100.10001918 144.86057235 100.13867188 142.9140625 C100.28014124 124.42873156 95.08543585 105.80832373 83.16259766 91.28979492 C80.25836472 88.85885587 78.26729873 88.6112549 74.52734375 88.14453125 C72.65852539 87.89993164 72.65852539 87.89993164 70.75195312 87.65039062 C69.45193359 87.49763672 68.15191406 87.34488281 66.8125 87.1875 C65.53955078 87.02314453 64.26660156 86.85878906 62.95507812 86.68945312 C59.26456072 86.2212673 55.57184873 85.78992865 51.875 85.375 C50.97434814 85.26897461 50.07369629 85.16294922 49.14575195 85.05371094 C26.58599442 82.66505628 3.00998861 83.49806398 -19.51235962 85.80316162 Z M36.10351562 140.09643555 C35.33716797 140.893479 34.57082031 141.69052246 33.78125 142.51171875 C13.38638452 163.48765092 -8.25693507 179.50543714 -35.125 191.375 C-35.51165769 215.70171699 -35.09243522 234.30790087 -17.875 253.125 C-6.48748303 263.84417512 8.08738701 268.00634049 23.39941406 267.77758789 C37.53007067 267.24261129 50.31668766 261.73191987 60.5546875 251.921875 C69.89691979 241.66743821 76.01852352 229.40048195 75.98852539 215.39135742 C75.98844986 214.21051071 75.98837433 213.029664 75.98829651 211.81303406 C75.98313522 210.54828751 75.97797394 209.28354095 75.97265625 207.98046875 C75.9712413 206.67797684 75.96982635 205.37548492 75.96836853 204.03352356 C75.96456355 200.58283546 75.95475064 197.13218992 75.94366455 193.68151855 C75.93340689 190.15552343 75.9288616 186.62952139 75.92382812 183.10351562 C75.91312644 176.19399301 75.89607443 169.28449855 75.875 162.375 C74.78815918 161.83738037 73.70131836 161.29976074 72.58154297 160.74584961 C71.13503728 160.02728941 69.68858847 159.3086147 68.2421875 158.58984375 C67.52828857 158.23708374 66.81438965 157.88432373 66.07885742 157.52087402 C56.58013626 152.79328702 48.50649994 147.40381461 40.7734375 140.09765625 C38.39284196 137.78981376 38.39284196 137.78981376 36.10351562 140.09643555 Z M91.875 175.375 C91.875 185.605 91.875 195.835 91.875 206.375 C100.71340282 202.77906507 100.71340282 202.77906507 105.875 195.375 C106.59927331 190.74301952 106.32477085 187.25788353 104.1875 183.0625 C100.21349346 178.44405997 97.96136384 176.59227277 91.875 175.375 Z M90.875 223.375 C89.52042771 226.42386741 89.52042771 226.42386741 88.9375 230.125 C85.58622629 245.10716481 77.7011473 256.61818759 66.875 267.375 C71.25323917 267.42438149 75.63133146 267.4607104 80.00976562 267.48486328 C81.4997032 267.49493043 82.98962097 267.50858518 84.47949219 267.52587891 C86.61919028 267.55009653 88.75862753 267.56147564 90.8984375 267.5703125 C92.18669434 267.58078613 93.47495117 267.59125977 94.80224609 267.60205078 C97.98200806 267.70337664 97.98200806 267.70337664 99.875 265.375 C100.16636164 263.39560859 100.16636164 263.39560859 100.10205078 261.10888672 C100.10182419 259.78774368 100.10182419 259.78774368 100.10159302 258.43991089 C100.09127045 257.48778717 100.08094788 256.53566345 100.0703125 255.5546875 C100.06606766 254.09399338 100.06606766 254.09399338 100.06173706 252.60379028 C100.05051913 249.48573651 100.0254117 246.36796732 100 243.25 C99.98997228 241.13932706 99.98084607 239.02864962 99.97265625 236.91796875 C99.95057458 231.73688165 99.91708129 226.55596115 99.875 221.375 C96.30550886 221.375 94.0983032 221.81270657 90.875 223.375 Z M-7.125 278.375 C-8.00452634 290.18019804 -5.83718688 301.17511847 -2.125 312.375 C-1.14866535 313.57071386 -1.14866535 313.57071386 0.66566467 313.49525452 C1.83481667 313.4919236 1.83481667 313.4919236 3.02758789 313.48852539 C3.90842545 313.48844986 4.789263 313.48837433 5.6967926 313.48829651 C7.13272011 313.48055458 7.13272011 313.48055458 8.59765625 313.47265625 C9.57286728 313.4712413 10.54807831 313.46982635 11.55284119 313.46836853 C14.68109143 313.46275133 17.80927123 313.45019593 20.9375 313.4375 C23.05273334 313.43248722 25.16796781 313.42792393 27.28320312 313.42382812 C32.48049296 313.41277631 37.67774145 313.39602146 42.875 313.375 C43.71453873 310.40282467 44.53893699 307.42772128 45.35546875 304.44921875 C45.5913269 303.61998901 45.82718506 302.79075928 46.07019043 301.93640137 C48.23191235 293.97001985 48.38485804 286.58937946 47.875 278.375 C46.97523438 278.66375 46.07546875 278.9525 45.1484375 279.25 C29.34845272 283.94921453 12.68284081 284.21771949 -3.125 279.375 C-4.45647953 279.03433718 -5.78912421 278.69799344 -7.125 278.375 Z M-33.25 307.1875 C-34.18199219 307.54392578 -35.11398438 307.90035156 -36.07421875 308.26757812 C-37.40259766 308.79448242 -37.40259766 308.79448242 -38.7578125 309.33203125 C-39.57137207 309.65147705 -40.38493164 309.97092285 -41.22314453 310.30004883 C-43.4686883 311.2889159 -43.4686883 311.2889159 -44.125 314.375 C-43.45911865 315.0251709 -43.45911865 315.0251709 -42.77978516 315.68847656 C-40.76458268 317.66201429 -38.75725711 319.64338304 -36.75 321.625 C-36.05132812 322.30691406 -35.35265625 322.98882812 -34.6328125 323.69140625 C-33.9625 324.35527344 -33.2921875 325.01914062 -32.6015625 325.703125 C-31.98361816 326.3105957 -31.36567383 326.91806641 -30.72900391 327.54394531 C-28.48798759 330.10218312 -27.13116513 332.18924078 -27.11328125 335.62890625 C-27.22027344 336.39074219 -27.32726562 337.15257812 -27.4375 337.9375 C-27.53675781 338.70191406 -27.63601562 339.46632813 -27.73828125 340.25390625 C-28.125 342.375 -28.125 342.375 -29.125 345.375 C-30.43885675 346.07927456 -31.77712542 346.73824546 -33.125 347.375 C-34.90156574 348.7154996 -36.65049007 350.09316295 -38.375 351.5 C-39.26703125 352.22445312 -40.1590625 352.94890625 -41.078125 353.6953125 C-42.09132813 354.52675781 -42.09132813 354.52675781 -43.125 355.375 C-41.77268813 358.40477429 -40.27019457 360.45972613 -37.89453125 362.765625 C-37.25580078 363.39339844 -36.61707031 364.02117187 -35.95898438 364.66796875 C-35.29189453 365.31378906 -34.62480469 365.95960938 -33.9375 366.625 C-30.10119868 370.35823651 -26.3245944 374.07780508 -22.84375 378.1484375 C-18.12424971 383.62992304 -12.94566432 388.66126778 -7.8125 393.75 C-6.80119663 394.75627363 -5.79012737 395.76278261 -4.77929688 396.76953125 C-2.23037572 399.30722088 0.32222103 401.84119103 2.875 404.375 C3.865 405.365 3.865 405.365 4.875 406.375 C3.21059058 395.48047452 0.33851805 384.84987013 -2.3515625 374.17578125 C-2.86467935 372.12891772 -3.37748154 370.0819753 -3.88998413 368.03495789 C-5.23160926 362.67984377 -6.57747264 357.32580385 -7.92425537 351.97198486 C-9.30104937 346.495644 -10.67378553 341.01828627 -12.046875 335.54101562 C-14.73563811 324.81801772 -17.42888485 314.09615153 -20.125 303.375 C-24.86867192 303.375 -28.883034 305.44863139 -33.25 307.1875 Z M61.875 303.375 C58.3955511 315.70418872 55.10743367 328.0701256 51.9765625 340.4921875 C51.75924847 341.35329258 51.54193443 342.21439766 51.31803513 343.10159683 C50.17530817 347.63134638 49.03547255 352.16181216 47.89794922 356.69287109 C46.7256523 361.35964115 45.54235341 366.02355297 44.35683632 370.68697929 C43.44129481 374.29702479 42.53404734 377.9091171 41.62907028 381.52182388 C41.19603821 383.24421817 40.75982994 384.9658172 40.32036209 386.68658066 C39.71075516 389.07653263 39.11299074 391.46915058 38.51806641 393.86279297 C38.33531158 394.56819214 38.15255676 395.27359131 37.96426392 396.00036621 C37.12705509 399.42201377 36.55795593 402.03047233 37.875 405.375 C40.23352656 403.04604031 42.58596674 400.7110189 44.9375 398.375 C45.59427734 397.72660156 46.25105469 397.07820313 46.92773438 396.41015625 C50.14184082 393.21188284 53.25551908 389.98558822 56.203125 386.5390625 C61.55761826 380.32642387 67.53907352 374.70475953 73.40039062 368.9765625 C74.75487305 367.63851562 74.75487305 367.63851562 76.13671875 366.2734375 C77.35814575 365.07726807 77.35814575 365.07726807 78.60424805 363.85693359 C81.06749418 361.16460372 82.92774614 358.45366444 84.875 355.375 C83.88757813 354.62734375 82.90015625 353.8796875 81.8828125 353.109375 C80.58823165 352.11498681 79.29397782 351.12017277 78 350.125 C77.34902344 349.63386719 76.69804687 349.14273438 76.02734375 348.63671875 C75.40214844 348.15332031 74.77695312 347.66992188 74.1328125 347.171875 C73.5567627 346.73198242 72.98071289 346.29208984 72.38720703 345.83886719 C69.5351916 343.07802048 68.90657818 340.58201255 68.3125 336.6875 C68.54167651 328.95279293 75.65534599 323.5347532 80.8125 318.5 C81.58464844 317.78070313 82.35679687 317.06140625 83.15234375 316.3203125 C85.20648152 314.43374389 85.20648152 314.43374389 84.875 311.375 C81.60756344 310.0332322 78.33553092 308.70305641 75.0625 307.375 C74.13373047 306.9934375 73.20496094 306.611875 72.24804688 306.21875 C70.9090332 305.67734375 70.9090332 305.67734375 69.54296875 305.125 C68.72078857 304.78984375 67.8986084 304.4546875 67.05151367 304.109375 C64.78408534 303.21514944 64.78408534 303.21514944 61.875 303.375 Z M-66.41601562 319.91625977 C-67.30454224 320.25403946 -68.19306885 320.59181915 -69.10852051 320.93983459 C-70.07302124 321.31160324 -71.03752197 321.68337189 -72.03125 322.06640625 C-73.02572144 322.44933334 -74.02019287 322.83226044 -75.0447998 323.22679138 C-77.15729307 324.04276495 -79.26896477 324.86086815 -81.37988281 325.6809082 C-84.57946188 326.91986648 -87.78558954 328.14067393 -90.9921875 329.36132812 C-93.04731113 330.15772964 -95.10201209 330.95522289 -97.15625 331.75390625 C-98.10455688 332.11150528 -99.05286377 332.46910431 -100.02990723 332.83753967 C-108.88824656 336.32607461 -116.71981787 341.25813096 -123.125 348.375 C-123.59292969 348.8390625 -124.06085938 349.303125 -124.54296875 349.78125 C-131.88460016 357.48147009 -136.24750694 367.98884959 -136.25198364 378.60113525 C-136.25480347 379.63309021 -136.25762329 380.66504517 -136.26052856 381.72827148 C-136.25850433 382.84951416 -136.2564801 383.97075684 -136.25439453 385.12597656 C-136.25614685 386.31503601 -136.25789917 387.50409546 -136.25970459 388.72918701 C-136.26334652 391.98093429 -136.26250055 395.23264074 -136.2593255 398.4843874 C-136.25679086 401.88719581 -136.25914231 405.29000153 -136.26071167 408.69281006 C-136.26252914 414.40230803 -136.26013708 420.11179306 -136.25537109 425.82128906 C-136.24991886 432.42936113 -136.25169978 439.03740239 -136.2571975 445.64547372 C-136.26172823 451.31773272 -136.26237969 456.98998243 -136.25975883 462.66224265 C-136.25819717 466.05089813 -136.25799947 469.43953911 -136.26129532 472.82819366 C-136.26381951 476.59935122 -136.25998504 480.37044853 -136.25439453 484.14160156 C-136.25641876 485.27094116 -136.25844299 486.40028076 -136.26052856 487.56384277 C-136.25770874 488.58451843 -136.25488892 489.60519409 -136.25198364 490.65679932 C-136.25160662 491.54905338 -136.25122959 492.44130745 -136.25084114 493.36059952 C-136.34816631 495.37238152 -136.34816631 495.37238152 -135.125 496.375 C-133.68210213 496.46795815 -132.23470215 496.49246513 -130.78881836 496.48852539 C-129.8679393 496.48844986 -128.94706024 496.48837433 -127.99827576 496.48829651 C-126.49672691 496.48055458 -126.49672691 496.48055458 -124.96484375 496.47265625 C-123.94524063 496.4712413 -122.92563751 496.46982635 -121.87513733 496.46836853 C-118.60422893 496.46275097 -115.33338787 496.4501955 -112.0625 496.4375 C-109.85091244 496.43248726 -107.63932382 496.42792396 -105.42773438 496.42382812 C-99.99346643 496.41277584 -94.55923803 496.39602063 -89.125 496.375 C-89.11691315 495.56733688 -89.10882629 494.75967377 -89.10049438 493.92753601 C-89.02258854 486.32008016 -88.93531023 478.71281722 -88.83747292 471.10559368 C-88.78750385 467.19453677 -88.741174 463.28350694 -88.703125 459.37231445 C-88.66627969 455.59855715 -88.61992207 451.82502617 -88.56693649 448.05146217 C-88.54838847 446.61099017 -88.53328199 445.17046965 -88.52165604 443.72992516 C-88.50480135 441.71397807 -88.47463106 439.69815556 -88.44384766 437.68237305 C-88.43052399 436.53431686 -88.41720032 435.38626068 -88.4034729 434.20341492 C-88.125 431.375 -88.125 431.375 -86.125 428.375 C-82.65354767 427.53927999 -80.16850124 427.01801273 -76.75 428.1875 C-75.125 429.375 -75.125 429.375 -74.125 431.375 C-74.00451849 433.43723352 -73.94759073 435.50328629 -73.91967773 437.56884766 C-73.89949585 438.88828369 -73.87931396 440.20771973 -73.85852051 441.56713867 C-73.8417507 442.9744451 -73.82510744 444.38175304 -73.80859375 445.7890625 C-73.78994263 447.06483154 -73.7712915 448.34060059 -73.7520752 449.6550293 C-73.68359672 454.43661341 -73.62356367 459.21831545 -73.5625 464 C-73.418125 474.68375 -73.27375 485.3675 -73.125 496.375 C-44.745 496.375 -16.365 496.375 12.875 496.375 C17.38692673 461.10776474 17.38692673 461.10776474 6.81225586 427.22235107 C2.84040192 423.22417044 -1.75038818 420.05480172 -6.52783203 417.10400391 C-9.73295484 414.97026827 -11.8703923 412.53691809 -14.28100586 409.5690918 C-18.22781134 404.8729524 -22.75861593 400.67992692 -27.125 396.375 C-32.76774013 390.81168182 -38.34034757 385.25190235 -43.49365234 379.22460938 C-46.88435624 375.38025548 -50.6291426 371.8712598 -54.31445312 368.3125 C-54.90806641 367.72984375 -55.50167969 367.1471875 -56.11328125 366.546875 C-56.91052612 365.7748877 -56.91052612 365.7748877 -57.72387695 364.98730469 C-60.2798491 362.04608843 -61.08382262 359.82795122 -61.4375 355.9375 C-60.9919785 350.85855485 -59.22517653 348.38853558 -55.49609375 344.953125 C-54.52800781 344.18484375 -53.55992187 343.4165625 -52.5625 342.625 C-51.59183594 341.84640625 -50.62117188 341.0678125 -49.62109375 340.265625 C-47.125 338.375 -47.125 338.375 -45.125 337.375 C-46.62655517 333.80678826 -48.70438258 331.64701317 -51.5 329 C-54.1742718 326.40299448 -56.58479926 323.97832514 -58.5625 320.8125 C-59.078125 320.008125 -59.59375 319.20375 -60.125 318.375 C-62.55184971 318.375 -64.14457423 319.04941555 -66.41601562 319.91625977 Z M2.875 329.375 C4.48307521 338.32110696 4.48307521 338.32110696 6.47900391 347.1315918 C6.77916412 348.33200607 7.07932434 349.53242035 7.38858032 350.76921082 C7.70636444 352.02486343 8.02414856 353.28051605 8.3515625 354.57421875 C8.68531898 355.90363385 9.01875843 357.23312858 9.35189819 358.56269836 C10.22004131 362.02393913 11.09242191 365.48409751 11.96575928 368.94403076 C12.85999671 372.49002492 13.7501259 376.03704994 14.640625 379.58398438 C16.3814493 386.51532404 18.12676264 393.445526 19.875 400.375 C22.02969077 397.14296384 22.66349391 394.76845217 23.57080078 391.00756836 C23.72714996 390.36660721 23.88349915 389.72564606 24.04458618 389.06526184 C24.55900288 386.94982279 25.06477561 384.83242085 25.5703125 382.71484375 C25.92571895 381.2440754 26.28159089 379.77341947 26.63790894 378.3028717 C27.38289308 375.22288887 28.12390367 372.14198727 28.86181641 369.06030273 C29.80890295 365.10541681 30.76323396 361.15232585 31.72020149 357.19982052 C32.45476817 354.16433994 33.18681796 351.12825729 33.91796494 348.09195137 C34.26915984 346.63374981 34.6208358 345.17566403 34.97299576 343.71769524 C35.4636952 341.68336878 35.95131863 339.64833083 36.43798828 337.61303711 C36.71619415 336.45404404 36.99440002 335.29505096 37.28103638 334.10093689 C37.94596602 331.51429134 37.94596602 331.51429134 37.875 329.375 C26.325 329.375 14.775 329.375 2.875 329.375 Z " fill="#000000" transform="translate(235.125,-0.375)"/>
<path d="M0 0 C4.83445946 1.43243243 4.83445946 1.43243243 6.375 4 C7.0625 7.6875 7.0625 7.6875 7.375 11 C8.468125 11.103125 9.56125 11.20625 10.6875 11.3125 C14.375 12 14.375 12 16.25 13.1875 C17.89761692 15.84199392 18.25033099 17.88327487 18.375 21 C16.24456522 25.56521739 16.24456522 25.56521739 13.375 27 C11.37539988 27.039992 9.37452758 27.04346799 7.375 27 C7.2925 28.258125 7.21 29.51625 7.125 30.8125 C6.75540174 33.63443265 6.57802229 34.75012641 4.75 37 C1.39604287 38.41219248 -1.02345988 38.45019252 -4.625 38 C-7.0625 36.4375 -7.0625 36.4375 -8.625 34 C-8.875 30.25 -8.875 30.25 -8.625 27 C-10.23375 27.12375 -10.23375 27.12375 -11.875 27.25 C-15.625 27 -15.625 27 -18.0625 25.4375 C-20.21379747 22.08147594 -20.11447291 19.91578329 -19.625 16 C-18.625 13.625 -18.625 13.625 -16.625 12 C-13.92135095 11.37074835 -11.41474201 11.1829339 -8.625 11 C-8.728125 10.113125 -8.83125 9.22625 -8.9375 8.3125 C-8.625 5 -8.625 5 -6.5625 2.0625 C-3.625 0 -3.625 0 0 0 Z " fill="#000000" transform="translate(256.625,22)"/>
</svg>
