<?xml version="1.0" encoding="UTF-8"?>
<!DOCTYPE svg PUBLIC "-//W3C//DTD SVG 1.1//EN" "http://www.w3.org/Graphics/SVG/1.1/DTD/svg11.dtd">
<svg xmlns="http://www.w3.org/2000/svg" version="1.1" width="512px" height="512px" style="shape-rendering:geometricPrecision; text-rendering:geometricPrecision; image-rendering:optimizeQuality; fill-rule:evenodd; clip-rule:evenodd" xmlns:xlink="http://www.w3.org/1999/xlink">
<g><path style="opacity:0.93" fill="#000000" d="M 511.5,225.5 C 511.5,230.833 511.5,236.167 511.5,241.5C 504.37,262.07 490.037,270.237 468.5,266C 458.188,262.854 450.854,256.354 446.5,246.5C 436.129,245.984 425.795,246.651 415.5,248.5C 417.521,302.787 397.855,347.454 356.5,382.5C 361.639,390.139 366.973,397.639 372.5,405C 394.881,399.44 410.381,407.273 419,428.5C 422.198,453.437 411.365,467.77 386.5,471.5C 365.207,469.708 353.874,458.208 352.5,437C 352.565,429.213 354.898,422.213 359.5,416C 355.797,410.098 351.964,404.264 348,398.5C 346.434,396.007 344.434,394.007 342,392.5C 295.942,419.588 247.776,423.922 197.5,405.5C 192.399,414.038 188.066,423.038 184.5,432.5C 200.916,449.408 201.583,466.908 186.5,485C 170.569,496.589 154.902,496.255 139.5,484C 125.38,465.5 126.713,448.167 143.5,432C 151.638,427.154 160.304,424.987 169.5,425.5C 173.637,416.726 177.637,407.893 181.5,399C 135.264,372.056 107.097,332.223 97,279.5C 87.1953,280.812 77.362,281.978 67.5,283C 61.226,304.641 46.8927,313.974 24.5,311C 11.6253,307.291 3.29195,299.124 -0.5,286.5C -0.5,281.167 -0.5,275.833 -0.5,270.5C 5.75931,251.19 19.0926,242.69 39.5,245C 51.382,247.595 59.7153,254.429 64.5,265.5C 75.5376,266.016 86.5376,265.349 97.5,263.5C 96.8286,210.521 116.495,166.854 156.5,132.5C 150,123.5 143.5,114.5 137,105.5C 118.19,111.229 103.857,105.562 94,88.5C 87.7546,72.241 91.2546,58.4076 104.5,47C 122.708,36.3743 138.875,38.8743 153,54.5C 161.024,69.1459 160.191,83.1459 150.5,96.5C 157.194,105.36 163.694,114.36 170,123.5C 191.782,109.516 215.615,101.183 241.5,98.5C 249.205,99.9165 251.705,104.25 249,111.5C 248.097,112.701 246.931,113.535 245.5,114C 223.37,116.266 202.703,122.933 183.5,134C 182.272,134.779 181.272,135.779 180.5,137C 183.028,140.391 185.028,144.058 186.5,148C 184.81,155.344 180.477,157.677 173.5,155C 171.276,152.035 168.942,149.202 166.5,146.5C 130.579,176.2 112.912,214.533 113.5,261.5C 118.695,260.539 123.695,260.872 128.5,262.5C 132.702,267.328 132.368,271.828 127.5,276C 123.176,276.87 118.842,277.703 114.5,278.5C 122.84,324.977 147.34,359.977 188,383.5C 189.858,378.952 192.358,374.785 195.5,371C 202.472,368.319 206.472,370.652 207.5,378C 206.67,381.989 205.337,385.822 203.5,389.5C 205.153,391.121 207.153,392.288 209.5,393C 269.84,410.791 321.673,396.958 365,351.5C 399.899,308.331 408.566,260.331 391,207.5C 369.324,155.167 330.491,124.334 274.5,115C 268.741,111.108 268.074,106.441 272.5,101C 274.199,100.042 276.033,99.5419 278,99.5C 290.085,100.982 301.751,103.982 313,108.5C 317.098,98.4723 321.598,88.639 326.5,79C 309.248,60.9906 309.248,42.9906 326.5,25C 340.5,16.3333 354.5,16.3333 368.5,25C 385.464,42.37 385.798,60.0367 369.5,78C 360.865,84.0786 351.198,86.9119 340.5,86.5C 336.403,95.6253 332.403,104.792 328.5,114C 375.456,139.877 404.122,179.21 414.5,232C 424.416,231.067 434.416,230.234 444.5,229.5C 449.768,206.522 464.101,197.022 487.5,201C 499.761,205.094 507.761,213.26 511.5,225.5 Z M 342.5,34.5 C 357.622,33.4582 365.122,40.4582 365,55.5C 359.321,69.2533 349.821,72.7533 336.5,66C 328.8,58.7667 327.633,50.6 333,41.5C 335.529,38.1151 338.696,35.7818 342.5,34.5 Z M 120.5,56.5 C 131.211,55.1011 138.378,59.4344 142,69.5C 143.389,82.3893 137.723,90.056 125,92.5C 109.148,88.9815 104.148,79.6481 110,64.5C 112.855,60.7893 116.355,58.1226 120.5,56.5 Z M 307.5,189.5 C 316.158,188.327 319.992,191.994 319,200.5C 315.108,206.259 310.441,206.926 305,202.5C 302.458,197.438 303.292,193.105 307.5,189.5 Z M 475.5,215.5 C 493.185,217.367 499.018,226.7 493,243.5C 485.732,252.072 477.232,253.572 467.5,248C 458.167,238.333 458.167,228.667 467.5,219C 470.158,217.522 472.825,216.355 475.5,215.5 Z M 27.5,260.5 C 38.5736,258.783 46.0736,263.117 50,273.5C 51.3003,289.779 43.8003,296.946 27.5,295C 15.7461,289.314 12.5795,280.481 18,268.5C 20.772,265.217 23.9386,262.55 27.5,260.5 Z M 173.5,261.5 C 179.704,261.314 181.037,263.814 177.5,269C 171.812,268.79 170.479,266.29 173.5,261.5 Z M 306.5,268.5 C 314.744,268.228 317.078,271.728 313.5,279C 306.243,281.746 303.077,279.246 304,271.5C 304.698,270.309 305.531,269.309 306.5,268.5 Z M 233.5,312.5 C 251.182,312.011 258.015,320.344 254,337.5C 247.662,346.388 239.495,348.555 229.5,344C 219.666,335.325 218.999,325.992 227.5,316C 229.727,315.059 231.727,313.892 233.5,312.5 Z M 382.5,419.5 C 397.639,419.804 404.472,427.47 403,442.5C 398.536,453.148 390.703,456.982 379.5,454C 368.262,447.278 365.762,438.112 372,426.5C 374.998,423.262 378.498,420.929 382.5,419.5 Z M 161.5,441.5 C 176.796,443.275 182.963,451.608 180,466.5C 172.763,478.346 163.263,480.512 151.5,473C 143.041,463.069 143.707,453.735 153.5,445C 156.158,443.522 158.825,442.355 161.5,441.5 Z"/></g>
<g><path style="opacity:0.922" fill="#000000" d="M 225.5,172.5 C 238.952,172.808 249.452,178.474 257,189.5C 258.495,199.009 254.661,202.509 245.5,200C 234.049,186.229 221.883,185.395 209,197.5C 201.418,213.431 205.918,224.264 222.5,230C 231.075,231.475 238.075,228.808 243.5,222C 250.105,218.919 254.438,220.919 256.5,228C 254.693,234.479 250.693,239.146 244.5,242C 228.787,249.212 214.12,247.546 200.5,237C 190.044,225.673 186.877,212.507 191,197.5C 197.626,182.366 209.126,174.033 225.5,172.5 Z"/></g>
<g><path style="opacity:0.929" fill="#000000" d="M 310.5,172.5 C 329.421,174.922 337.587,185.589 335,204.5C 328.558,219.563 317.391,224.73 301.5,220C 286.955,211.157 283.455,198.991 291,183.5C 296.068,177.055 302.568,173.388 310.5,172.5 Z M 307.5,189.5 C 303.292,193.105 302.458,197.438 305,202.5C 310.441,206.926 315.108,206.259 319,200.5C 319.992,191.994 316.158,188.327 307.5,189.5 Z"/></g>
<g><path style="opacity:0.929" fill="#000000" d="M 169.5,245.5 C 188.65,243.816 197.15,252.482 195,271.5C 186.731,286.869 175.397,289.535 161,279.5C 151.666,265.017 154.5,253.683 169.5,245.5 Z M 173.5,261.5 C 170.479,266.29 171.812,268.79 177.5,269C 181.037,263.814 179.704,261.314 173.5,261.5 Z"/></g>
<g><path style="opacity:0.882" fill="#000000" d="M 257.5,249.5 C 263.698,250.179 268.531,253.179 272,258.5C 273.891,266.604 270.724,270.438 262.5,270C 257.091,267.591 253.424,263.591 251.5,258C 252.187,254.16 254.187,251.327 257.5,249.5 Z"/></g>
<g><path style="opacity:0.929" fill="#000000" d="M 302.5,252.5 C 319.531,250.057 329.197,257.223 331.5,274C 330.667,288.167 323.167,295.667 309,296.5C 292.066,294.212 285.066,284.545 288,267.5C 291.047,260.622 295.881,255.622 302.5,252.5 Z M 306.5,268.5 C 305.531,269.309 304.698,270.309 304,271.5C 303.077,279.246 306.243,281.746 313.5,279C 317.078,271.728 314.744,268.228 306.5,268.5 Z"/></g>
<g><path style="opacity:0.926" fill="#000000" d="M 230.5,296.5 C 254.848,294.156 268.848,304.989 272.5,329C 270.564,349.77 259.23,360.937 238.5,362.5C 224.127,362.231 213.961,355.565 208,342.5C 201.933,320.304 209.433,304.97 230.5,296.5 Z M 233.5,312.5 C 231.727,313.892 229.727,315.059 227.5,316C 218.999,325.992 219.666,335.325 229.5,344C 239.495,348.555 247.662,346.388 254,337.5C 258.015,320.344 251.182,312.011 233.5,312.5 Z"/></g>
<g><path style="opacity:0.882" fill="#000000" d="M 314.5,312.5 C 324.058,312.22 327.225,316.553 324,325.5C 321.151,329.357 317.485,332.023 313,333.5C 305.766,331.796 303.433,327.462 306,320.5C 308.729,317.601 311.562,314.934 314.5,312.5 Z"/></g>
</svg>
