<?xml version="1.0" encoding="UTF-8"?>
<!DOCTYPE svg PUBLIC "-//W3C//DTD SVG 1.1//EN" "http://www.w3.org/Graphics/SVG/1.1/DTD/svg11.dtd">
<svg xmlns="http://www.w3.org/2000/svg" version="1.1" width="512px" height="512px" style="shape-rendering:geometricPrecision; text-rendering:geometricPrecision; image-rendering:optimizeQuality; fill-rule:evenodd; clip-rule:evenodd" xmlns:xlink="http://www.w3.org/1999/xlink">
<g><path style="opacity:0.927" fill="#000000" d="M 205.5,-0.5 C 210.5,-0.5 215.5,-0.5 220.5,-0.5C 239.177,8.35224 244.343,22.3522 236,41.5C 228.478,52.0116 218.311,55.8449 205.5,53C 190.305,47.4554 183.805,36.6221 186,20.5C 188.923,10.0805 195.423,3.0805 205.5,-0.5 Z M 208.5,15.5 C 220.495,14.5353 225.328,19.8687 223,31.5C 217.431,38.6742 211.097,39.3409 204,33.5C 199.885,26.0708 201.385,20.0708 208.5,15.5 Z"/></g>
<g><path style="opacity:0.928" fill="#000000" d="M 257.5,47.5 C 276.447,49.2742 283.281,59.2742 278,77.5C 270.132,88.1123 260.299,90.279 248.5,84C 238.261,73.6205 237.928,62.9538 247.5,52C 250.815,50.1702 254.149,48.6702 257.5,47.5 Z M 259.5,63.5 C 264.245,64.6958 265.245,67.1958 262.5,71C 258,71.8333 256.167,70 257,65.5C 257.995,64.9341 258.828,64.2674 259.5,63.5 Z"/></g>
<g><path style="opacity:0.936" fill="#000000" d="M 382.5,511.5 C 375.833,511.5 369.167,511.5 362.5,511.5C 342.406,505.904 329.906,492.904 325,472.5C 301.171,494.055 273.338,507.055 241.5,511.5C 230.167,511.5 218.833,511.5 207.5,511.5C 152.313,502.487 113.147,472.487 90,421.5C 68.4579,361.553 79.2912,308.386 122.5,262C 136.78,248.853 152.78,238.186 170.5,230C 172.123,227.92 173.623,225.754 175,223.5C 176.473,197.231 176.973,170.898 176.5,144.5C 170.437,145.162 164.77,143.996 159.5,141C 157.383,139.269 155.883,137.102 155,134.5C 154.333,126.5 154.333,118.5 155,110.5C 157.281,104.263 161.781,100.763 168.5,100C 181.833,99.3333 195.167,99.3333 208.5,100C 216.167,103.667 217.167,108.667 211.5,115C 197.837,115.5 184.171,115.667 170.5,115.5C 170.5,119.833 170.5,124.167 170.5,128.5C 206.833,128.5 243.167,128.5 279.5,128.5C 279.5,124.167 279.5,119.833 279.5,115.5C 265.829,115.667 252.163,115.5 238.5,115C 234.024,111.339 233.357,107.006 236.5,102C 238.087,101.138 239.754,100.471 241.5,100C 254.833,99.3333 268.167,99.3333 281.5,100C 292.932,102.838 297.599,110.171 295.5,122C 296.584,138.416 288.917,145.916 272.5,144.5C 272.046,170.543 272.546,196.543 274,222.5C 275.4,225.902 277.567,228.736 280.5,231C 296.352,238.534 310.852,248.034 324,259.5C 324.667,221.167 324.667,182.833 324,144.5C 313.612,140.4 309.445,132.733 311.5,121.5C 309.557,109.861 314.223,102.695 325.5,100C 358.206,99.0363 390.873,99.3696 423.5,101C 427.667,102.5 430.5,105.333 432,109.5C 434.495,119.432 433.828,129.098 430,138.5C 427.448,141.359 424.281,143.026 420.5,143.5C 420.667,192.834 420.5,242.168 420,291.5C 414.535,298.385 409.535,298.052 405,290.5C 404.5,277.171 404.333,263.837 404.5,250.5C 383.167,250.5 361.833,250.5 340.5,250.5C 340.333,323.834 340.5,397.167 341,470.5C 346.937,489.39 359.77,497.557 379.5,495C 392.777,491.39 400.944,482.89 404,469.5C 404.333,419.833 404.667,370.167 405,320.5C 407.541,315.931 411.375,314.431 416.5,316C 418.049,317.214 419.215,318.714 420,320.5C 420.973,372.198 420.64,423.865 419,475.5C 413.588,494.413 401.421,506.413 382.5,511.5 Z M 327.5,115.5 C 357.5,115.5 387.5,115.5 417.5,115.5C 417.5,119.833 417.5,124.167 417.5,128.5C 387.5,128.5 357.5,128.5 327.5,128.5C 327.5,124.167 327.5,119.833 327.5,115.5 Z M 192.5,144.5 C 213.833,144.5 235.167,144.5 256.5,144.5C 256.333,169.502 256.5,194.502 257,219.5C 258.221,229.44 262.721,237.607 270.5,244C 291.196,253.372 309.029,266.539 324,283.5C 324.499,288.155 324.666,292.821 324.5,297.5C 254.833,297.667 185.166,297.5 115.5,297C 131.784,272.668 153.45,254.668 180.5,243C 186.534,237.436 190.367,230.602 192,222.5C 192.5,196.502 192.667,170.502 192.5,144.5 Z M 340.5,144.5 C 361.833,144.5 383.167,144.5 404.5,144.5C 404.5,164.833 404.5,185.167 404.5,205.5C 383.167,205.5 361.833,205.5 340.5,205.5C 340.5,185.167 340.5,164.833 340.5,144.5 Z M 340.5,221.5 C 361.833,221.5 383.167,221.5 404.5,221.5C 404.5,225.833 404.5,230.167 404.5,234.5C 383.167,234.5 361.833,234.5 340.5,234.5C 340.5,230.167 340.5,225.833 340.5,221.5 Z M 106.5,313.5 C 179.167,313.5 251.833,313.5 324.5,313.5C 324.667,358.835 324.5,404.168 324,449.5C 283.454,493.445 234.621,505.945 177.5,487C 131.618,466.434 104.451,431.267 96,381.5C 93.3335,357.835 96.8335,335.169 106.5,313.5 Z M 171.5,352.5 C 177.158,351.679 178.825,353.846 176.5,359C 170.741,360.139 169.074,357.972 171.5,352.5 Z M 221.5,393.5 C 232.318,392.817 237.151,397.817 236,408.5C 232.677,414.908 227.511,417.075 220.5,415C 212.273,407.345 212.607,400.178 221.5,393.5 Z"/></g>
<g><path style="opacity:0.933" fill="#000000" d="M 173.5,335.5 C 189.273,337.691 195.773,346.691 193,362.5C 187.299,374.296 178.132,378.13 165.5,374C 156.228,368.88 152.728,361.047 155,350.5C 157.876,341.326 164.042,336.326 173.5,335.5 Z M 171.5,352.5 C 169.074,357.972 170.741,360.139 176.5,359C 178.825,353.846 177.158,351.679 171.5,352.5 Z"/></g>
<g><path style="opacity:0.93" fill="#000000" d="M 218.5,377.5 C 238.787,375.47 250.12,384.47 252.5,404.5C 251.331,421.337 242.331,430.67 225.5,432.5C 208.719,430.885 199.385,421.718 197.5,405C 198.732,391.285 205.732,382.119 218.5,377.5 Z M 221.5,393.5 C 212.607,400.178 212.273,407.345 220.5,415C 227.511,417.075 232.677,414.908 236,408.5C 237.151,397.817 232.318,392.817 221.5,393.5 Z"/></g>
</svg>
