<?xml version="1.0" encoding="UTF-8"?>
<svg version="1.1" xmlns="http://www.w3.org/2000/svg" width="512" height="512">
<path d="M0 0 C2.92152243 2.69898772 5.70500564 5.51965996 8.48217773 8.36621094 C9.2769754 9.1719606 10.07177307 9.97771027 10.89065552 10.80787659 C12.60162841 12.54304386 14.31040792 14.2803762 16.01717949 16.01967621 C18.72340404 18.77490619 21.43819079 21.5214201 24.15577698 24.26544189 C31.87690605 32.06259827 39.59132817 39.86618935 47.27856445 47.69677734 C51.99338187 52.49931886 56.72661348 57.28304301 61.4705677 62.05683136 C63.26909482 63.87326905 65.06117841 65.69611103 66.84652519 67.52550507 C69.34448942 70.0838773 71.86357247 72.61956893 74.38842773 75.15136719 C75.47745644 76.28285942 75.47745644 76.28285942 76.58848572 77.43721008 C81.07274054 81.87828248 84.49058635 83.68164627 90.57984161 85.17732811 C94.95100626 86.66319544 97.80016184 89.78089441 101 93 C101.69135984 93.66617466 102.38271969 94.33234932 103.09502983 95.01871109 C105.39592855 97.24500712 107.66754579 99.49826926 109.93530273 101.75830078 C110.79008209 102.60650894 111.64486145 103.4547171 112.52554321 104.32862854 C115.3311217 107.11462382 118.13280117 109.90450862 120.93359375 112.6953125 C121.90662215 113.66428493 122.87968108 114.63322671 123.85276985 115.60213852 C128.42634891 120.15672028 132.99754742 124.71367478 137.56582111 129.27357781 C142.8033862 134.50138152 148.04912157 139.72080284 153.30198139 144.9332372 C157.38665592 148.98757213 161.46345305 153.04972424 165.53463322 157.1176089 C167.95506309 159.53570935 170.37855521 161.95051958 172.81051445 164.35702896 C184.78685738 176.22515563 195.88973001 187.60549135 203.3125 202.9375 C203.63806885 203.59862793 203.9636377 204.25975586 204.29907227 204.94091797 C209.94913903 216.81299511 212.17761929 228.80453251 212.0625 241.875 C212.05798828 242.84953125 212.05347656 243.8240625 212.04882812 244.828125 C212.03710906 247.21881434 212.02070219 249.6093744 212 252 C212.89203125 252.27585937 213.7840625 252.55171875 214.703125 252.8359375 C236.37896549 260.48925559 252.46467135 281.0827323 262.31713867 300.96484375 C273.0670204 323.71057257 273.12008598 351.62840847 264.94873047 375.16015625 C255.9810618 399.77954168 238.82053939 419.83842247 215.45703125 431.81640625 C192.45752679 442.18567436 165.13771766 445.17567856 141 437 C140.34999023 436.78037598 139.69998047 436.56075195 139.03027344 436.33447266 C132.03550519 433.89166308 125.86551134 430.97655031 119.75 426.75 C116.94535116 424.89324227 116.94535116 424.89324227 114 424 C109.72141316 425.0979916 106.58206579 427.48790191 103 430 C93.24913324 435.09607343 80.2713431 441.41528781 69 439 C66.78333476 437.41808453 66.1054808 436.52455317 65.56640625 433.84375 C65.56511719 433.0703125 65.56382812 432.296875 65.5625 431.5 C65.53349609 430.33984375 65.53349609 430.33984375 65.50390625 429.15625 C66.18637643 426.18992294 67.48341969 425.63416436 70 424 C72.14379883 423.15966797 72.14379883 423.15966797 74.45703125 422.4921875 C75.31594971 422.23219971 76.17486816 421.97221191 77.05981445 421.7043457 C77.96820068 421.43066162 78.87658691 421.15697754 79.8125 420.875 C86.87997363 418.63268949 93.42989097 416.1110536 99.8125 412.3125 C100.44583252 411.94431152 101.07916504 411.57612305 101.73168945 411.19677734 C103.66256385 410.03723303 103.66256385 410.03723303 106 408 C106.41064859 404.04767808 106.41064859 404.04767808 104.23523712 401.74304581 C103.40193626 400.91343212 102.56863541 400.08381844 101.71008301 399.22906494 C101.24864159 398.76420583 100.78720017 398.29934671 100.31177568 397.82040095 C98.75952453 396.26154896 97.19338475 394.7174439 95.62695312 393.17285156 C94.51280789 392.05983433 93.39954213 390.94593612 92.28709412 389.83122253 C89.26095968 386.80393818 86.22263078 383.78916388 83.18201256 380.77643681 C80.00781185 377.62720328 76.84489892 374.46667513 73.68078613 371.30731201 C67.68575593 365.32472534 61.68060013 359.3524099 55.67176676 353.3836906 C48.83211063 346.58870924 42.00377885 339.78239665 35.17638874 332.97509432 C21.13018312 318.97072422 7.06977141 304.98069143 -7 291 C-12.65279382 292.88426461 -15.36368057 299.85962221 -18 305 C-19.22930362 307.69288426 -20.32946432 310.41850291 -21.375 313.1875 C-21.61323486 313.815354 -21.85146973 314.44320801 -22.09692383 315.09008789 C-25.16755866 323.67035694 -26.37105065 332.16022372 -26.3125 341.25 C-26.30758545 342.16458984 -26.3026709 343.07917969 -26.29760742 344.02148438 C-25.91494589 366.32967062 -16.6926228 386.25143202 -1 402 C-0.41089844 402.61230469 0.17820313 403.22460938 0.78515625 403.85546875 C10.89509705 413.56545585 23.96080761 418.78068434 37.16870117 422.70507812 C38.02826416 422.96482422 38.88782715 423.22457031 39.7734375 423.4921875 C40.54091309 423.71245605 41.30838867 423.93272461 42.09912109 424.15966797 C44 425 44 425 46 428 C46.54888508 434.03773585 46.54888508 434.03773585 44.75 437.19140625 C43 439 43 439 41.01171875 439.53125 C22.90391691 439.28778376 5.81802409 430.11795042 -8 419 C-9.03833984 418.20722656 -9.03833984 418.20722656 -10.09765625 417.3984375 C-28.8468518 402.26489199 -40.32654319 376.41661725 -43 353 C-44.39944501 325.73794328 -39.41394924 299.172655 -20.95166016 278.14306641 C-15.66697969 272.36799732 -9.89302047 267.14341904 -4 262 C-3.34 261.34 -2.68 260.68 -2 260 C-2.46940506 259.53947739 -2.93881012 259.07895477 -3.42243958 258.60447693 C-8.31731393 253.79827261 -13.19791067 248.97790631 -18.07055664 244.14916992 C-19.88954129 242.35026844 -21.71210413 240.55497747 -23.53833008 238.76342773 C-26.16662268 236.18379397 -28.78166404 233.59133919 -31.39453125 230.99609375 C-32.21025101 230.20101913 -33.02597076 229.40594452 -33.8664093 228.58677673 C-39.16249668 223.29279316 -41.87991278 219.23023232 -43.8046875 211.9609375 C-45.433016 207.9273656 -47.99319887 205.56787577 -51.125 202.625 C-51.68832031 202.07972656 -52.25164062 201.53445312 -52.83203125 200.97265625 C-54.21238671 199.6390925 -55.60498709 198.31822321 -57 197 C-57.42866416 203.47759181 -57.48515522 208.44840834 -53.97265625 214.05078125 C-51.74888792 218.50724871 -51.87153635 223.59101782 -51.85473633 228.47680664 C-51.84835648 229.74154312 -51.84197662 231.0062796 -51.83540344 232.30934143 C-51.83387497 233.67627931 -51.8327609 235.04321771 -51.83203125 236.41015625 C-51.82881443 237.82449883 -51.82545004 239.23884109 -51.82194519 240.65318298 C-51.81597526 243.60937268 -51.81410323 246.56553322 -51.81469727 249.52172852 C-51.81479909 253.30340432 -51.80111646 257.08489324 -51.78392506 260.8665247 C-51.77279363 263.78422399 -51.77077836 266.70187813 -51.77130699 269.61959648 C-51.77012978 271.01380498 -51.76572252 272.40801476 -51.75797462 273.80220222 C-51.74814653 275.75230604 -51.75232431 277.70246511 -51.75708008 279.65258789 C-51.75565506 280.76034073 -51.75423004 281.86809357 -51.75276184 283.00941467 C-52.00794801 286.09613889 -52.60398885 288.24569954 -54 291 C-56.90348571 293.41957143 -58.32650931 294.02693963 -62.125 293.875 C-65 293 -65 293 -68 290 C-68 275.15 -68 260.3 -68 245 C-120.47 245 -172.94 245 -227 245 C-226.87625 261.314375 -226.7525 277.62875 -226.625 294.4375 C-226.59100098 299.55564209 -226.55700195 304.67378418 -226.52197266 309.94702148 C-226.48198596 314.60506017 -226.48198596 314.60506017 -226.43954468 319.26307678 C-226.42206068 321.30980346 -226.40816971 323.35656304 -226.39730835 325.40333557 C-226.24526241 352.83239703 -224.24973469 378.96583737 -204.265625 399.765625 C-203.51796875 400.50296875 -202.7703125 401.2403125 -202 402 C-200.97132813 403.04414062 -200.97132813 403.04414062 -199.921875 404.109375 C-184.51919464 418.82749179 -164.40025305 424.54908042 -143.47265625 424.20703125 C-125.7896087 423.58890199 -107.30006197 416.61499192 -94.828125 403.76171875 C-93 402 -93 402 -91 402 C-90.74476563 401.42636719 -90.48953125 400.85273438 -90.2265625 400.26171875 C-88.87119047 397.76248179 -87.26256327 395.9369487 -85.375 393.8125 C-72.69608254 378.15438335 -69.17081075 359.16648012 -68.82421875 339.50390625 C-68.80037109 338.20388672 -68.77652344 336.90386719 -68.75195312 335.56445312 C-68.71660805 333.54780679 -68.68729877 331.53181431 -68.67407227 329.51489258 C-68.65861871 327.53184467 -68.61678191 325.54905755 -68.57421875 323.56640625 C-68.55963623 322.40052979 -68.54505371 321.23465332 -68.5300293 320.03344727 C-67.89245329 316.38449198 -66.94630685 315.18773417 -64 313 C-60.5 312.5 -60.5 312.5 -57 313 C-54.09282927 315.21863029 -53.16018357 316.51944929 -52 320 C-50.10261414 352.8837697 -53.9142324 381.80375056 -75 408 C-76.175625 409.5778125 -76.175625 409.5778125 -77.375 411.1875 C-93.0438267 427.97552861 -116.20685863 439.85038455 -139.28295898 441.1262207 C-164.31627382 441.90657639 -189.36462154 436.38358247 -208.5625 419.3125 C-210.05460726 417.88843672 -211.53591915 416.45286184 -213 415 C-213.886875 414.154375 -214.77375 413.30875 -215.6875 412.4375 C-216.8321875 411.2309375 -216.8321875 411.2309375 -218 410 C-218.52980469 409.44183594 -219.05960938 408.88367188 -219.60546875 408.30859375 C-235.96980238 390.42703713 -242.12799613 368.88752385 -242.17700195 345.20532227 C-242.18327561 343.80841914 -242.18992319 342.41151764 -242.19691467 341.01461792 C-242.21783912 336.44855893 -242.22830177 331.88250003 -242.23828125 327.31640625 C-242.24233227 325.73938416 -242.24644929 324.16236224 -242.25063133 322.5853405 C-242.26965245 315.17859139 -242.28389346 307.77185208 -242.2922433 300.36508328 C-242.30202364 291.83231024 -242.32837669 283.29979605 -242.36874419 274.76711422 C-242.39893342 268.15798336 -242.41371457 261.54892666 -242.41702431 254.9397282 C-242.41937028 250.99800171 -242.42827239 247.05655276 -242.45348549 243.11490059 C-242.47682277 239.40720353 -242.48097709 235.69996577 -242.47072411 231.9922142 C-242.46999555 229.99229234 -242.48904346 227.99239349 -242.50878906 225.99256897 C-242.47242599 219.68696506 -242.11541879 215.43219693 -238.90814877 210.0108366 C-236.97546022 205.73144868 -237.45066562 200.90934848 -237.48583984 196.29833984 C-237.47871475 195.14923126 -237.47158966 194.00012268 -237.46424866 192.81619263 C-237.44500825 189.03093128 -237.45324272 185.24623138 -237.4609375 181.4609375 C-237.45102442 178.8154723 -237.43908086 176.17001401 -237.42520142 173.52456665 C-237.39500545 167.27286524 -237.3832541 161.0212906 -237.37962496 154.76952231 C-237.3729792 143.60489252 -237.34357268 132.44035348 -237.2945286 121.27583086 C-237.27558539 116.74278575 -237.27398538 112.2099264 -237.27645874 107.67684937 C-237.22662975 77.41165546 -231.85332085 52.07263226 -210 30 C-192.60511667 13.42869078 -169.80823499 4.9791984 -145.93359375 4.79296875 C-143 5 -143 5 -139.16015625 5.80078125 C-131.45868342 7.60272061 -131.45868342 7.60272061 -124.2421875 5.22265625 C-122.61957163 3.48490427 -121.05081716 1.69573332 -119.53125 -0.1328125 C-89.25559769 -34.42652978 -31.71249969 -26.18005679 0 0 Z M-109 12 C-109.75925781 12.67804687 -110.51851562 13.35609375 -111.30078125 14.0546875 C-120.27212855 22.52846428 -125.88340108 32.43431731 -130 44 C-130.48146484 45.31291016 -130.48146484 45.31291016 -130.97265625 46.65234375 C-136.882815 65.81225374 -132.8800058 85.86449453 -124.26953125 103.390625 C-117.0272252 115.67942688 -105.73776099 125.52377629 -95.71484375 135.48046875 C-94.0457495 137.14582594 -92.37710138 138.81163037 -90.70887756 140.4778595 C-86.34863567 144.83051954 -81.98241838 149.17713591 -77.61486816 153.52246094 C-73.14647499 157.97027746 -68.68384344 162.42386678 -64.22070312 166.87695312 C-55.48605311 175.59024952 -46.74507052 184.29716301 -38 193 C-34.57317121 191.52122394 -32.34962891 189.59673853 -29.72259521 186.96310425 C-28.87568115 186.11893951 -28.02876709 185.27477478 -27.15618896 184.4050293 C-26.23549622 183.477146 -25.31480347 182.5492627 -24.36621094 181.59326172 C-23.38084147 180.60732795 -22.39503107 179.62183467 -21.40881348 178.63674927 C-18.73521735 175.96372691 -16.06783214 173.28458338 -13.40151501 170.60430288 C-10.61307269 167.80335733 -7.81896487 165.00807521 -5.02545166 162.21218872 C0.26249589 156.91802522 5.54532455 151.61878415 10.82633567 146.31770241 C16.83929384 140.28238886 22.85793262 134.25275394 28.8770566 128.22359061 C41.25770525 115.82203735 53.63119696 103.41336738 66 91 C64.67324686 88.06287035 63.22955816 85.976164 60.9617157 83.69429016 C60.33827774 83.06232224 59.71483978 82.43035431 59.07250977 81.77923584 C58.38946777 81.09710022 57.70642578 80.4149646 57.00268555 79.7121582 C56.28200394 78.98475937 55.56132233 78.25736053 54.81880188 77.50791931 C52.43009203 75.10018728 50.03388376 72.70009353 47.63671875 70.30078125 C45.96663408 68.62426704 44.29669915 66.94760364 42.62690735 65.27079773 C39.11901869 61.75092251 35.60700799 58.23521852 32.0925293 54.72192383 C27.61512567 50.24472242 23.1515815 45.75398239 18.69159222 41.25944233 C15.24182498 37.78729478 11.78285997 34.32442052 8.32135963 30.86397362 C6.67371184 29.2139825 5.0292666 27.56078634 3.38825035 25.9041996 C-5.52023014 16.91920574 -14.16798148 8.62676903 -25 2 C-26.05922417 1.34376396 -26.05922417 1.34376396 -27.1398468 0.67427063 C-52.24553089 -14.13666073 -88.26464777 -6.59568174 -109 12 Z M-193 37 C-194.24716797 37.98419922 -194.24716797 37.98419922 -195.51953125 38.98828125 C-210.20729802 51.32961523 -218.94181134 68.99840044 -221 88 C-221.51116193 96.7157668 -221.35113553 105.45734401 -221.29296875 114.18359375 C-221.28854833 116.41214777 -221.2854937 118.64070492 -221.28381348 120.8692627 C-221.26819574 129.05872317 -221.22631224 137.24811661 -221.1875 145.4375 C-221.125625 163.773125 -221.06375 182.10875 -221 201 C-172.49 201 -123.98 201 -74 201 C-72.2630103 182.0032308 -72.2630103 182.0032308 -80.53309727 169.85773087 C-81.03486453 169.41985119 -81.53663179 168.98197151 -82.05360413 168.53082275 C-82.62550035 168.01872505 -83.19739658 167.50662735 -83.786623 166.97901154 C-84.37395147 166.45484398 -84.96127995 165.93067642 -85.56640625 165.390625 C-86.76534724 164.24053865 -87.95918504 163.08511154 -89.1481781 161.92474365 C-92.26116483 158.91167819 -95.43278493 155.969361 -98.62432861 153.03991699 C-102.48068285 149.47854258 -106.26572261 145.84175731 -110.05731869 142.21172714 C-113.00992286 139.38639912 -115.97178984 136.57471083 -118.97377014 133.80181885 C-127.44092846 125.92741945 -134.09536282 117.61241092 -139.1875 107.1875 C-139.52209229 106.51025879 -139.85668457 105.83301758 -140.20141602 105.13525391 C-150.20684939 84.31478348 -151.43648039 58.88041347 -144 37 C-142.78962339 33.9951697 -141.51546527 31.08777516 -140.05078125 28.19921875 C-139.06144028 26.12859063 -138.4663737 24.23961876 -138 22 C-156.63670999 17.03021067 -178.61731494 25.47007892 -193 37 Z M74.25430298 103.98379517 C72.90408051 105.30863922 72.90408051 105.30863922 71.52658081 106.6602478 C70.54687698 107.65161696 69.56748678 108.64329615 68.58837891 109.63525391 C67.54441069 110.6710902 66.49917073 111.70564611 65.45275879 112.73901367 C62.61672625 115.54769226 59.80000289 118.37502208 56.98715258 121.2068944 C54.04129036 124.16794619 51.08081825 127.11433172 48.12265015 130.06307983 C43.1573424 135.01747135 38.20482029 139.98438047 33.25927734 144.95849609 C27.54115614 150.7092709 21.80173963 156.43811045 16.05078185 162.15603316 C11.1139317 167.06565648 6.18886941 171.986875 1.27347124 176.91797578 C-1.66239991 179.8632017 -4.60217563 182.80422222 -7.55262375 185.73485184 C-10.32586373 188.49076082 -13.0840165 191.26093187 -15.83120728 194.0428009 C-16.84188661 195.06141467 -17.85770844 196.07495539 -18.87895584 197.08297348 C-20.27190164 198.45952864 -21.64462921 199.85645376 -23.01620483 201.25430298 C-24.17703614 202.41852752 -24.17703614 202.41852752 -25.36131859 203.60627174 C-27.17196263 205.94208063 -27.17196263 205.94208063 -27.6864872 208.92160606 C-27.06466974 213.15765169 -27.06466974 213.15765169 -20 218 C16.63 181.37 53.26 144.74 91 107 C86.15765169 99.93533026 86.15765169 99.93533026 81.92160606 99.3135128 C78.31563678 100.16080422 76.87179038 101.37393666 74.25430298 103.98379517 Z M100.14342403 119.73352814 C98.91697847 120.96135639 98.91697847 120.96135639 97.66575623 122.21398926 C97.21162749 122.66726357 96.75749875 123.12053788 96.28960854 123.58754778 C94.75635455 125.11914418 93.22672059 126.65430683 91.69702148 128.18945312 C90.60350651 129.28324994 89.50977174 130.37682707 88.41583252 131.47019958 C85.43647014 134.44927386 82.46021121 137.43143165 79.4844768 140.41412926 C76.37790951 143.5269279 73.26852925 146.63691397 70.15943909 149.74719238 C64.26779355 155.64195189 58.37870277 161.53925693 52.49051291 167.43746805 C45.78883304 174.15030704 39.08432937 180.86032267 32.37958038 187.57009602 C18.58322997 201.3769123 4.79045127 215.18729169 -9 229 C-8.04555267 230.12016253 -7.09015927 231.23951899 -6.1343689 232.35853577 C-5.60243612 232.98196397 -5.07050335 233.60539217 -4.5224514 234.24771214 C-2.73031302 236.3104002 -0.85396321 238.25959386 1.0859375 240.18359375 C1.78847656 240.88291016 2.49101562 241.58222656 3.21484375 242.30273438 C3.92769531 243.00720703 4.64054688 243.71167969 5.375 244.4375 C6.11105469 245.16904297 6.84710938 245.90058594 7.60546875 246.65429688 C9.40136074 248.43852723 11.19955985 250.22036124 13 252 C13.63921387 251.80809082 14.27842773 251.61618164 14.93701172 251.41845703 C16.73362803 250.87923755 18.53034566 250.34035561 20.32714844 249.80175781 C22.47121807 249.15861526 24.61462477 248.5132628 26.7578125 247.8671875 C27.86898437 247.53976562 28.98015625 247.21234375 30.125 246.875 C31.24132812 246.54242188 32.35765625 246.20984375 33.5078125 245.8671875 C49.02700088 242.01342931 66.67017103 242.80103858 82 247 C83.52947266 247.41765625 83.52947266 247.41765625 85.08984375 247.84375 C94.11524051 250.59525072 103.09217697 254.74970032 110.9609375 259.9609375 C114.09875261 261.41129604 114.09875261 261.41129604 117.453125 259.53515625 C118.73005317 258.72855992 119.99513406 257.90300858 121.25 257.0625 C144.22136131 242.93850837 170.90853612 241.44821814 197 246 C196.58925005 232.67116414 194.09629235 220.69401789 188.25 208.6875 C187.95150146 208.06633301 187.65300293 207.44516602 187.34545898 206.80517578 C180.73643629 193.95889847 169.38545203 184.10594451 159.28515625 174.0546875 C157.66194237 172.4326674 156.03909982 170.81027561 154.41661072 169.18753052 C151.03498 165.80745572 147.65004042 162.43074341 144.26245117 159.05664062 C139.91031319 154.7216072 135.56490353 150.37990356 131.22168827 146.03593254 C127.88070595 142.69522118 124.53713184 139.35711443 121.19265556 136.01990128 C119.58799509 134.41843048 117.98394618 132.81634667 116.38051033 131.21364975 C114.15209801 128.98739127 111.92043434 126.76444756 109.68774414 124.54248047 C108.68808372 123.54214027 108.68808372 123.54214027 107.66822815 122.52159119 C104.19567726 117.98537944 104.19567726 117.98537944 100.14342403 119.73352814 Z M-226 220 C-226.33 222.97 -226.66 225.94 -227 229 C-174.53 229 -122.06 229 -68 229 C-68.01089951 220.36440544 -68.01089951 220.36440544 -72 217 C-74.81518569 216.54606297 -74.81518569 216.54606297 -78.07312012 216.61904907 C-79.34344589 216.6105896 -80.61377167 216.60213013 -81.92259216 216.59341431 C-83.33316168 216.59924741 -84.74372993 216.60539193 -86.15429688 216.61181641 C-87.63754157 216.60775201 -89.12078325 216.60241087 -90.60401917 216.59588623 C-94.63498141 216.58219104 -98.66571372 216.58752027 -102.69668007 216.59702349 C-106.91135919 216.60460872 -111.12601837 216.59757764 -115.34069824 216.59286499 C-122.41906272 216.58740411 -129.49733336 216.59460773 -136.57568359 216.60888672 C-144.7640197 216.6252139 -152.95213173 216.61992563 -161.1404624 216.6034075 C-168.16558423 216.58980207 -175.19063854 216.58786835 -182.21576929 216.59572351 C-186.41385732 216.60040523 -190.61183997 216.60101124 -194.80992126 216.59111404 C-198.75636748 216.58246031 -202.70252425 216.58843685 -206.64893913 216.60579681 C-208.09897823 216.60977022 -209.54904161 216.60861303 -210.99907112 216.60200882 C-212.97499864 216.5938378 -214.95097928 216.60589097 -216.92687988 216.61904907 C-218.58717602 216.62074569 -218.58717602 216.62074569 -220.28101349 216.62247658 C-223.37687814 216.77373717 -223.37687814 216.77373717 -226 220 Z M4 277 C5.5397666 280.65544568 7.73594764 282.98265286 10.53042603 285.77093506 C11.22515143 286.46822373 11.22515143 286.46822373 11.93391168 287.17959905 C13.48459534 288.73357279 15.04231113 290.28029752 16.60009766 291.82714844 C17.71410858 292.94059514 18.82767915 294.05448258 19.94084167 295.16877747 C22.96302414 298.19153403 25.99133586 301.20808206 29.02077532 304.22356319 C32.18607221 307.37636236 35.34571082 310.53482159 38.50595093 313.69268799 C44.49072545 319.67124494 50.48058023 325.64468511 56.47227132 331.6163094 C63.29354114 338.41522889 70.10913663 345.21982445 76.92425847 352.02490568 C90.94319545 366.02293437 104.96925255 380.01381006 119 394 C123.34502325 392.10328606 125.10930326 389.24112312 127.4375 385.25 C127.83074463 384.58186279 128.22398926 383.91372559 128.62915039 383.2253418 C139.64461777 363.92838832 141.9220437 341.39650111 136.54785156 319.95849609 C130.13968218 297.05014726 115.59125711 280.5270515 95.51953125 268.515625 C66.18726844 252.596608 29.71212228 256.0271884 4 277 Z M127 271 C128.62960464 274.7606261 131.0369202 277.59302341 133.625 280.75 C138.87556737 287.3474063 142.57139126 294.41994138 146.08374023 302.05639648 C146.38610596 302.69778564 146.68847168 303.3391748 147 304 C147.34594208 304.85510666 147.69188416 305.71021332 148.04830933 306.5912323 C150.73831025 311.28951179 154.30580051 314.69916916 158.14331055 318.48388672 C158.97280212 319.31381638 159.8022937 320.14374603 160.65692139 320.99882507 C163.39313451 323.73295266 166.13981129 326.45630795 168.88671875 329.1796875 C170.78964055 331.07534286 172.6903028 332.97325744 174.59101868 334.87112427 C179.07921061 339.35000846 183.57499178 343.8211931 188.0735777 348.28963482 C193.19677764 353.37925112 198.31141663 358.47743377 203.42536867 363.57633948 C213.94077386 374.06042447 224.46683848 384.53375339 235 395 C246.75346965 383.63632548 253.68752262 364.5818835 254.3359375 348.43359375 C254.73487613 322.27709551 247.4931725 301.17736678 229.375 281.875 C212.00848652 265.09537331 190.01662793 258.38513492 166.2890625 258.71875 C152.47185043 259.22101143 138.71644892 263.7299013 127 271 Z M155 338 C154.94054199 338.8818396 154.94054199 338.8818396 154.87988281 339.78149414 C153.04032967 365.83759561 146.87594034 388.19909905 129.4375 408.1875 C126.78168982 410.63160157 126.78168982 410.63160157 127 413 C148.48849231 424.91555697 171.19673973 429.15028118 195.33251953 422.34204102 C205.74973725 419.06138817 215.39984438 413.71231658 224 407 C220.07017884 402.29721831 215.98385177 397.83867174 211.64331055 393.51391602 C211.03931931 392.90817245 210.43532806 392.30242889 209.81303406 391.67832947 C207.84008284 389.70101941 205.86354761 387.72733903 203.88671875 385.75390625 C202.50748836 384.37400163 201.12840639 382.99394864 199.74946594 381.61375427 C196.87227773 378.73509765 193.99330293 375.85824321 191.11303711 372.98266602 C187.41277421 369.28813218 183.71706194 365.58908376 180.0226469 361.88870335 C177.18242869 359.04488378 174.33984823 356.20343511 171.49653053 353.36271477 C170.13176791 351.99862094 168.76775244 350.63377919 167.4044857 349.26819038 C165.50863029 347.36981198 163.60962807 345.47464031 161.7097168 343.58032227 C161.14299255 343.01157379 160.57626831 342.44282532 159.99237061 341.85684204 C157.8517824 339.20637322 157.8517824 339.20637322 155 338 Z " fill="#000000" transform="translate(242,47)"/>
</svg>
