<?xml version="1.0" encoding="UTF-8"?>
<svg version="1.1" xmlns="http://www.w3.org/2000/svg" width="512" height="512">
<path d="M0 0 C0.72445312 0.54011719 1.44890625 1.08023437 2.1953125 1.63671875 C20.16250746 16.07594223 31.31624934 39.4406803 34 62 C34.50892591 69.69106471 34.40225651 77.4263904 34.36035156 85.13061523 C34.35175125 87.75299478 34.37347227 90.37384911 34.3984375 92.99609375 C34.38509369 93.78269882 34.37174988 94.56930389 34.35800171 95.37974548 C34.42836079 100.69064661 35.71369552 103.90691139 38.79922485 108.23085022 C42.33009451 113.43302092 42.76339978 119.92179166 42 126 C39.66644417 135.79534514 34.41022872 143.39318085 26 149 C21.23121648 151.51540229 17.47423133 153.26985647 12 153 C11.87044922 153.96486328 11.87044922 153.96486328 11.73828125 154.94921875 C9.29339458 170.67275597 2.35529747 184.76976087 -9 196 C-10.28269775 196.7271521 -10.28269775 196.7271521 -11.59130859 197.46899414 C-14.79509485 200.83547013 -14.52104705 202.95695283 -14.43945312 207.4609375 C-14.39755859 208.38132813 -14.35566406 209.30171875 -14.3125 210.25 C-14.28994141 211.18585938 -14.26738281 212.12171875 -14.24414062 213.0859375 C-14.18530595 215.39225674 -14.10317146 217.69530838 -14 220 C-13.47716934 220.20250366 -12.95433868 220.40500732 -12.41566467 220.61364746 C-9.85129825 221.60693681 -7.28697492 222.60033737 -4.72265625 223.59375 C-3.74547638 223.97227112 -2.76829651 224.35079224 -1.76150513 224.74078369 C3.69920616 226.8564452 9.15917056 228.97400773 14.61791992 231.09472656 C16.88328095 231.97466044 19.14866196 232.85454286 21.4140625 233.734375 C22.55255142 234.17654358 23.69104034 234.61871216 24.86402893 235.07427979 C31.26771802 237.55906862 37.67655273 240.0296386 44.09294128 242.48144531 C47.79772186 243.89809906 51.49953516 245.32240318 55.20095825 246.74780273 C56.92111702 247.4079256 58.64266843 248.06443263 60.36569214 248.71704102 C82.48565817 257.09917227 99.03682173 267.4665963 109.52734375 289.546875 C114.58674682 301.41030289 115.15312396 313.43211297 115.16796875 326.1796875 C115.17129715 327.19547882 115.17462555 328.21127014 115.17805481 329.25784302 C115.18307644 331.38380485 115.18546463 333.50977443 115.18530273 335.63574219 C115.18750848 338.88749928 115.20576675 342.13892685 115.22460938 345.390625 C115.22754048 347.46614468 115.22952717 349.54166596 115.23046875 351.6171875 C115.23765427 352.5849411 115.24483978 353.5526947 115.25224304 354.54977417 C115.22264862 363.25595881 115.22264862 363.25595881 113 367 C109.48746854 369.34168764 108.13530644 369.49623677 104 369 C101.34448242 367.65600586 101.34448242 367.65600586 99 365 C98.24706959 361.38486464 98.32688078 357.81027421 98.36328125 354.12890625 C98.35290329 353.05559555 98.34252533 351.98228485 98.33183289 350.87644958 C98.30211534 347.43814341 98.30551968 344.00091133 98.3125 340.5625 C98.30068366 336.06366823 98.27511248 331.56510118 98.23828125 327.06640625 C98.22551651 325.4548616 98.22551651 325.4548616 98.2124939 323.8107605 C97.98522892 306.48682542 94.39877263 292.69607743 82.25 279.8125 C73.80976471 271.88843922 63.56744761 268.02658345 52.875 264.125 C51.52309791 263.62330998 50.17153266 263.1207113 48.8203125 262.6171875 C45.55068111 261.40098638 42.27670006 260.19704685 39 259 C39.8611268 261.8778205 39.8611268 261.8778205 41.03125 263.890625 C42.84521281 267.84038273 42.69384454 271.76626341 42 276 C37.91632032 285.04984946 27.24819858 292.27902744 19.8125 298.5625 C16.99577557 300.68926968 16.99577557 300.68926968 16 303 C16.55558594 303.25136719 17.11117187 303.50273437 17.68359375 303.76171875 C20.38517741 305.20590428 22.65746595 306.91531628 25.0625 308.8125 C26.34833984 309.81216797 26.34833984 309.81216797 27.66015625 310.83203125 C30.65602509 313.60783627 32.63792371 316.15373711 33.43359375 320.2109375 C33.43488281 320.92507813 33.43617188 321.63921875 33.4375 322.375 C33.46650391 323.43847656 33.46650391 323.43847656 33.49609375 324.5234375 C32.47223163 329.63468619 29.69842489 333.47583207 26.01953125 337.015625 C17.77692921 345.13030712 15.92748651 351.86386881 15.75 363.4375 C15.74477312 367.63110738 15.81556541 371.81050433 16 376 C16.5887793 375.97607178 17.17755859 375.95214355 17.78417969 375.92749023 C24.66705 375.76491937 29.28978738 377.00384771 35 381 C39.73477049 385.9514648 41.11908911 390.55571974 41.17700195 397.2722168 C41.18983719 398.5675383 41.20267242 399.8628598 41.21589661 401.19743347 C41.22406613 402.61469133 41.23150946 404.03195353 41.23828125 405.44921875 C41.24235678 406.16463144 41.2464323 406.88004414 41.25063133 407.617136 C41.27148056 411.40645685 41.28578518 415.19574165 41.29516602 418.98510742 C41.3062066 422.88446094 41.34058176 426.78324006 41.38033772 430.68239117 C41.40658466 433.69286604 41.41486512 436.70320596 41.41844749 439.71378517 C41.42329548 441.15020422 41.43485817 442.58661797 41.45348549 444.02292442 C41.55150037 452.08397176 41.50898831 458.16524575 37 465 C34.96484375 467.05859375 34.96484375 467.05859375 32.9375 468.4375 C32.26589844 468.91058594 31.59429687 469.38367188 30.90234375 469.87109375 C27.43306569 471.92986451 24.45377794 472.18622939 20.5 472.25 C19.5409375 472.27578125 18.581875 472.3015625 17.59375 472.328125 C15 472 15 472 13.2109375 470.6640625 C11.36567099 468.12830917 11.12437568 466.10939193 11 463 C11.8125 460.375 11.8125 460.375 14 458 C17.3 456.68 20.6 455.36 24 454 C24 434.2 24 414.4 24 394 C19.42337784 391.71168892 13.02502708 392.81497295 8 392.8125 C6.6903125 392.80025391 5.380625 392.78800781 4.03125 392.77539062 C2.7834375 392.77345703 1.535625 392.77152344 0.25 392.76953125 C-1.47476563 392.76336792 -1.47476563 392.76336792 -3.234375 392.75708008 C-6.14240961 392.71406031 -6.14240961 392.71406031 -8 395 C-8.29323962 397.63037501 -8.29323962 397.63037501 -8.22705078 400.73486328 C-8.22689972 401.93595734 -8.22674866 403.13705139 -8.22659302 404.37454224 C-8.21627045 405.67664642 -8.20594788 406.97875061 -8.1953125 408.3203125 C-8.19158276 409.66266673 -8.18873561 411.00502367 -8.18673706 412.34738159 C-8.17909744 415.882014 -8.1594463 419.41648228 -8.1373291 422.9510498 C-8.11687765 426.5571877 -8.10773685 430.16335209 -8.09765625 433.76953125 C-8.0762006 440.84642135 -8.04206079 447.92319997 -8 455 C-7.07767578 455.16435547 -7.07767578 455.16435547 -6.13671875 455.33203125 C-5.32847656 455.49058594 -4.52023437 455.64914062 -3.6875 455.8125 C-2.48673828 456.03873047 -2.48673828 456.03873047 -1.26171875 456.26953125 C1.29856467 457.09642762 2.36411855 457.88446196 4 460 C5.1114336 464.00116096 5.39534422 466.11518198 3.6875 469.9375 C-0.32799999 473.01916279 -4.11121065 472.41983878 -9 472 C-9 473.65 -9 475.3 -9 477 C10.8 477 30.6 477 51 477 C50.96519531 467.16832031 50.93039062 457.33664062 50.89453125 447.20703125 C50.8792065 440.98632577 50.86464086 434.76563394 50.85351562 428.54492188 C50.83570721 418.66653782 50.81475954 408.78823047 50.77368164 398.90991211 C50.7437805 391.7159266 50.72442529 384.52200326 50.71773452 377.32795733 C50.71382345 373.51872385 50.70463118 369.7096682 50.68280983 365.90049171 C50.6624333 362.31444035 50.65616849 358.72863993 50.66067696 355.14253616 C50.65945933 353.20042469 50.64332325 351.25834049 50.6267395 349.31629944 C50.63086349 348.15668701 50.63498749 346.99707458 50.63923645 345.80232239 C50.63647107 344.79664624 50.63370569 343.7909701 50.63085651 342.75481892 C51.1038458 339.22502664 52.46524431 336.53475569 55 334 C62.250649 333.40568451 62.250649 333.40568451 65.10152817 335.6667366 C67.4775817 338.58695835 67.49448266 340.02830324 67.48101807 343.75799561 C67.48926605 345.52059471 67.48926605 345.52059471 67.49768066 347.31880188 C67.47610901 349.24685921 67.47610901 349.24685921 67.45410156 351.21386719 C67.45297302 352.58389757 67.45360708 353.95393037 67.45587158 355.32395935 C67.45701941 359.04075815 67.43349951 362.75704077 67.40557575 366.4737196 C67.38057333 370.35877555 67.37822102 374.24384329 67.37347412 378.12896729 C67.36104089 385.48484463 67.32821473 392.84048423 67.28807616 400.19625688 C67.24336914 408.57100554 67.22137413 416.94576556 67.20129442 425.32060385 C67.15948229 442.54720676 67.08912364 459.77357824 67 477 C70.93327952 476.93110195 74.86562514 476.84312821 78.7980957 476.73754883 C80.7929063 476.68798681 82.78807257 476.65348867 84.78320312 476.61914062 C86.66362305 476.5659668 86.66362305 476.5659668 88.58203125 476.51171875 C89.73936768 476.48553467 90.8967041 476.45935059 92.08911133 476.43237305 C94.97697325 476.22565423 94.97697325 476.22565423 96.87830544 474.6810751 C98.78405281 471.82494603 98.39464414 468.60377255 98.35302734 465.28735352 C98.35626762 464.11127533 98.35626762 464.11127533 98.35957336 462.91143799 C98.36266131 461.20902523 98.35905158 459.50659022 98.34955978 457.80420113 C98.33584133 455.11002023 98.34224655 452.41657756 98.35440063 449.72239685 C98.38539401 442.06284782 98.3804719 434.40346931 98.36035156 426.74389648 C98.34944285 422.05886581 98.36260537 417.37438959 98.39024734 412.68943596 C98.39569349 410.90365889 98.39160972 409.11782655 98.37784958 407.33209419 C98.35883051 404.8347936 98.37018091 402.33930966 98.38818359 399.84204102 C98.37484482 399.10372543 98.36150604 398.36540985 98.34776306 397.60472107 C98.40778016 393.86346222 98.7311026 392.29010951 101.31167603 389.50596619 C104.97858755 387.45180723 107.01120978 387.89200272 111 389 C113.58455285 390.89533875 113.96275506 391.88826517 115 395 C115.1060801 397.48701579 115.15722867 399.94642208 115.16113281 402.43383789 C115.16609772 403.18874512 115.17106262 403.94365234 115.17617798 404.72143555 C115.19079408 407.22185173 115.19760293 409.72220434 115.203125 412.22265625 C115.20887972 413.96561179 115.21463741 415.70856731 115.22039795 417.45152283 C115.2309083 421.11083267 115.23674982 424.77012055 115.24023438 428.42944336 C115.24569975 433.09747768 115.26968545 437.76521747 115.29820633 442.43315983 C115.31692351 446.03733639 115.32204326 449.64144355 115.32357025 453.2456646 C115.3265801 454.96509843 115.33455166 456.68453154 115.34775543 458.40391731 C115.49836212 479.53535641 115.49836212 479.53535641 110.0625 486.47265625 C109.381875 486.99730469 108.70125 487.52195312 108 488.0625 C107.319375 488.61035156 106.63875 489.15820312 105.9375 489.72265625 C102.33442775 492.0980688 99.2801541 492.12884157 95.07873535 492.14044189 C93.84206619 492.14615204 92.60539703 492.15186218 91.33125305 492.15774536 C89.95846568 492.15899068 88.58567819 492.16011579 87.21289062 492.16113281 C85.76905694 492.16576139 84.32522447 492.1707861 82.88139343 492.17617798 C78.95794152 492.18929695 75.03450672 492.19574552 71.1110363 492.20018864 C68.6611648 492.20311912 66.21129798 492.2072238 63.76142883 492.21169281 C56.09998582 492.22536409 48.4385535 492.23503354 40.77709913 492.2388947 C31.92563273 492.24337994 23.07432041 492.2609509 14.22290087 492.2898953 C7.3846303 492.31148281 0.54640318 492.32159735 -6.29190111 492.32293582 C-10.37822929 492.32398561 -14.46441257 492.32993066 -18.55070496 492.34775543 C-22.39206231 492.36418645 -26.23316502 492.36641606 -30.07454491 492.35761642 C-31.48589445 492.35684347 -32.89725741 492.36122268 -34.30857277 492.37107468 C-36.23191912 492.38371602 -38.15536696 492.37615427 -40.07873535 492.36749268 C-41.15610207 492.36895924 -42.23346878 492.3704258 -43.34348297 492.3719368 C-46 492 -46 492 -47.81539154 490.65671921 C-49.62977766 488.1192324 -49.87625254 486.09368659 -50 483 C-48.86220128 480.67268444 -47.83159286 478.83159286 -46 477 C-39.07 477 -32.14 477 -25 477 C-25 409.02 -25 341.04 -25 271 C-28.3 272.65 -31.6 274.3 -35 276 C-49.32076985 281.20755267 -65.53484969 282.42443137 -80 277 C-83.96 275.02 -87.92 273.04 -92 271 C-92.33 338.98 -92.66 406.96 -93 477 C-86.4 477 -79.8 477 -73 477 C-69 481 -69 481 -68.5 484.5 C-69.08667724 488.60674069 -69.77838973 489.50385771 -73 492 C-75.73715687 492.50336456 -75.73715687 492.50336456 -78.93867493 492.50793457 C-80.1541098 492.51921387 -81.36954468 492.53049316 -82.62181091 492.54211426 C-83.96573114 492.53433719 -85.30964902 492.52614452 -86.65356445 492.51757812 C-88.07135741 492.5229994 -89.48914473 492.5301221 -90.90692139 492.53881836 C-94.7563457 492.55705933 -98.60534134 492.54997994 -102.45477319 492.53730202 C-106.48607043 492.52717231 -110.51733106 492.53656816 -114.54862976 492.54284668 C-121.32179344 492.5501257 -128.09478272 492.54053142 -134.86791992 492.52148438 C-142.68987935 492.49974137 -150.5114213 492.50674705 -158.33337051 492.52879 C-165.05371104 492.54696831 -171.77392619 492.54948968 -178.49428338 492.53903532 C-182.50583906 492.53281031 -186.51719887 492.53193674 -190.52874184 492.54518127 C-194.30376232 492.55677374 -198.07824752 492.54865282 -201.85321045 492.52560425 C-203.23545126 492.52033403 -204.61773744 492.52180201 -205.99995995 492.53065491 C-214.54902093 492.58034274 -220.26226101 492.34469786 -226.7421875 486.40234375 C-230.57087238 481.45145812 -231.12624504 478.30865905 -231.14717102 472.13446045 C-231.15084771 471.43194255 -231.1545244 470.72942465 -231.1583125 470.00561833 C-231.16934825 467.64533975 -231.17319312 465.28510521 -231.17700195 462.92480469 C-231.18326713 461.23443461 -231.18991398 459.54406592 -231.19691467 457.85369873 C-231.21796667 452.29310059 -231.22832423 446.73250216 -231.23828125 441.171875 C-231.24232963 439.25450883 -231.24644658 437.3371428 -231.25063133 435.41977692 C-231.26969253 426.4031821 -231.28391658 417.38659548 -231.2922433 408.36998439 C-231.30199269 397.98535481 -231.328248 387.6009397 -231.36874419 377.2163856 C-231.39900684 369.17793886 -231.41372212 361.13955318 -231.41702431 353.10105062 C-231.419365 348.30671885 -231.42819542 343.51261592 -231.45348549 338.71834564 C-231.47694659 334.19731546 -231.4809278 329.67666177 -231.47072411 325.15558624 C-231.47023284 323.5073877 -231.47643067 321.85916949 -231.49028015 320.21102905 C-231.64647217 300.49993121 -226.77836761 283.76253672 -213 269 C-201.76919139 258.52802981 -188.66792545 252.7723993 -174.48251343 247.54620361 C-170.8117978 246.19381482 -167.15013044 244.81767294 -163.48780823 243.44274902 C-161.57616681 242.72519257 -159.66408347 242.00881243 -157.75157166 241.2935791 C-147.1905874 237.33890692 -136.68774856 233.23764759 -126.1875 229.125 C-124.42100781 228.43425459 -122.65448837 227.74357884 -120.88793945 227.05297852 C-111.93310224 223.55398577 -111.93310224 223.55398577 -103 220 C-101.54031971 208.60995425 -101.54031971 208.60995425 -104.91015625 198.15625 C-106.62452033 196.73600402 -108.39128862 195.37717522 -110.19921875 194.078125 C-120.93798139 186.11017281 -127.05801512 172.24667854 -129.125 159.375 C-129.64771637 156.43031694 -129.64771637 156.43031694 -131 154 C-133.93297809 152.37503193 -136.67297759 151.62853863 -139.92578125 150.8359375 C-149.06351886 148.35121596 -154.24079584 140.5986736 -158.875 132.875 C-161.47782554 126.13554102 -161.07729996 117.11448877 -158.6875 110.375 C-157 107 -157 107 -155.42211914 105.24316406 C-153.39568439 102.04678939 -153.59749176 99.49746614 -153.55859375 95.734375 C-153.54538589 95.02331604 -153.53217804 94.31225708 -153.51856995 93.57965088 C-153.47778675 91.30306314 -153.45610345 89.02686869 -153.4375 86.75 C-153.09653323 55.20196387 -146.94875394 28.56530668 -124.5 5.125 C-90.20479146 -27.67651479 -36.890135 -28.35737524 0 0 Z M-112 16 C-112.91265625 16.77537109 -112.91265625 16.77537109 -113.84375 17.56640625 C-128.01131716 30.41381374 -135.53575008 50.35239844 -137 69 C-137.11037146 72.85557539 -137.09568159 76.70577775 -137.0625 80.5625 C-137.05798828 81.57119141 -137.05347656 82.57988281 -137.04882812 83.61914062 C-137.03716769 86.07949147 -137.02080378 88.53971239 -137 91 C-133.5551094 90.72751436 -133.5551094 90.72751436 -130 90 C-128.24169437 87.15007835 -128.24169437 87.15007835 -127 84 C-124.21461515 81.43865697 -122.18499619 80.59032097 -118.4375 80.3125 C-117.10525391 80.21195313 -117.10525391 80.21195313 -115.74609375 80.109375 C-113.15424879 80.00614362 -110.59290908 80.01455715 -108 80.0625 C-85.55917665 80.18839522 -63.00031952 74.58267145 -43.27734375 63.94921875 C-41.75524292 63.13142944 -41.75524292 63.13142944 -40.20239258 62.29711914 C-38.19278155 61.20518531 -36.19326059 60.09441427 -34.20581055 58.96264648 C-28.40662217 55.78144335 -23.66721365 53.69992722 -17 55 C-12.56821315 56.88190369 -9.44718662 60.27906431 -6.125 63.6875 C-5.5990625 64.22133301 -5.073125 64.75516602 -4.53125 65.30517578 C11.17682084 81.35661886 11.17682084 81.35661886 12 90 C14.97 90.495 14.97 90.495 18 91 C18.71676295 64.843666 16.72276981 42.46557942 -1 22 C-1.90878906 20.79537109 -1.90878906 20.79537109 -2.8359375 19.56640625 C-13.72878595 6.64835312 -31.43489476 -1.91996926 -48 -4 C-71.99917514 -5.97472507 -93.94133774 -0.47516016 -112 16 Z M-29.9375 74.5 C-44.51596474 83.12696392 -60.54264397 88.30557293 -77 92 C-78.01707031 92.23460938 -79.03414062 92.46921875 -80.08203125 92.7109375 C-91.43191653 94.95168738 -103.45407104 95 -115 95 C-115.10247897 102.53975646 -115.17191236 110.07932955 -115.21972656 117.61962891 C-115.2396859 120.1779654 -115.26686311 122.73625722 -115.30175781 125.29443359 C-115.94126268 152.10613984 -115.94126268 152.10613984 -105 176 C-104.36320312 176.84046875 -103.72640625 177.6809375 -103.0703125 178.546875 C-93.63882602 189.94757294 -80.51109295 196.60367272 -66 199 C-51.40888734 200.14994557 -36.95385879 197.26987618 -25.4453125 187.92578125 C-13.42809206 177.42408565 -5.21345696 165.95729953 -3.6815033 149.59909058 C-3.52402734 145.79944906 -3.45351527 142.0098465 -3.42578125 138.20703125 C-3.41101815 136.80702089 -3.39613855 135.40701175 -3.38114929 134.00700378 C-3.35436657 131.09324576 -3.34065836 128.17973855 -3.33422852 125.26586914 C-3.32331028 121.54969046 -3.26137351 117.83619515 -3.1875124 114.1208086 C-3.13896201 111.23722971 -3.12669645 108.35429519 -3.12416649 105.47034264 C-3.11698489 104.10081335 -3.09669732 102.73128183 -3.06246376 101.36216164 C-2.77791645 93.47786544 -2.77791645 93.47786544 -5.76208496 86.41741943 C-7.74610293 84.42412194 -9.77034367 82.70782598 -12 81 C-13.31203369 79.55996302 -14.61067658 78.10710161 -15.875 76.625 C-17.54193493 74.67895038 -19.18703291 72.81296709 -21 71 C-24.93227766 71 -26.5944471 72.43295183 -29.9375 74.5 Z M12 106 C12 116.23 12 126.46 12 137 C18.62743785 134.79085405 21.30812218 132.74516878 25 127 C26.44812429 123.05992579 26.28778836 119.89933864 25 115.875 C21.51677287 110.867861 17.96820578 107.49205144 12 106 Z M-141.875 113.6875 C-144.62653264 117.97665382 -144.93709036 121.03788345 -144 126 C-141.4331955 131.56140975 -137.294033 134.26212481 -132 137 C-131.67 137 -131.34 137 -131 137 C-131 127.1 -131 117.2 -131 107 C-135.41507484 107 -138.8230731 110.83461181 -141.875 113.6875 Z M-86 210 C-86.09796875 211.08539063 -86.1959375 212.17078125 -86.296875 213.2890625 C-86.44704676 214.73446565 -86.59813732 216.17977353 -86.75 217.625 C-86.811875 218.33785156 -86.87375 219.05070313 -86.9375 219.78515625 C-87.53887172 225.24761608 -89.02385656 229.02385656 -93 233 C-94.04232074 242.41943842 -94.04232074 242.41943842 -91.859375 251.40625 C-84.95473429 258.78013813 -73.10962025 263.4543849 -63.23828125 264.3359375 C-48.96372639 264.47797287 -37.55768996 261.01193296 -26.38476562 251.64599609 C-23.8546553 248.63859063 -24.52936027 244.95639161 -24.5625 241.1875 C-24.54251953 240.39279297 -24.52253906 239.59808594 -24.50195312 238.77929688 C-24.50657543 233.19093411 -25.7686944 230.64692519 -29 226 C-29.72882511 223.23198225 -30.00288832 220.47193246 -30.25 217.625 C-30.32734375 216.88894531 -30.4046875 216.15289062 -30.484375 215.39453125 C-30.67104528 213.59782982 -30.83761464 211.79905887 -31 210 C-32.258125 210.28875 -33.51625 210.5775 -34.8125 210.875 C-36.54147886 211.25086497 -38.27065686 211.62581464 -40 212 C-40.81984375 212.19078125 -41.6396875 212.3815625 -42.484375 212.578125 C-57.51843282 215.76716757 -71.31361653 213.74430074 -86 210 Z M-9 240 C-9 277.95 -9 315.9 -9 355 C-6.38207151 352.38207151 -4.22663984 350.13591076 -2.046875 347.2421875 C-1.24672974 346.18656616 -1.24672974 346.18656616 -0.43041992 345.10961914 C0.40138794 344.00348267 0.40138794 344.00348267 1.25 342.875 C5.63074953 337.08357384 10.06239595 331.36829517 14.70703125 325.78515625 C16.19553 324.09740733 16.19553 324.09740733 16 322 C14.11196053 320.4889747 12.22469311 319.07667364 10.25 317.6875 C0.93076872 311.05824006 0.93076872 311.05824006 -0.875 305.125 C-1.10838631 299.29034223 0.40051665 295.40475428 4.125 291 C7.16708318 287.73211271 10.39879509 284.76234385 13.80078125 281.875 C16.41015844 279.65030896 18.95467348 277.36011491 21.5 275.0625 C22.3559375 274.29035156 23.211875 273.51820313 24.09375 272.72265625 C25.03734375 271.86994141 25.03734375 271.86994141 26 271 C24.37017372 268.12743119 22.71591407 265.27540279 21.01953125 262.44140625 C19.73905565 260.25939658 18.51925565 258.03967532 17.38671875 255.77734375 C12.09451937 246.15405706 4.77013982 243.58865043 -5.24755859 240.45214844 C-7.02112478 239.91672365 -7.02112478 239.91672365 -9 240 Z M-130.7265625 249.52734375 C-132.70055018 252.26811947 -134.36035754 255.04864357 -136 258 C-137.37388764 259.979939 -138.74885632 261.95912838 -140.125 263.9375 C-141.97848367 266.46018344 -141.97848367 266.46018344 -143 269 C-141.1570526 275.70628082 -132.91693137 281.26803835 -127.8125 285.625 C-117.92163455 294.24983467 -117.92163455 294.24983467 -117 300.5 C-116.80801954 304.6595766 -117.34478763 308.1378378 -119 312 C-120.32051969 312.69170079 -121.65713289 313.35275187 -123 314 C-124.94540315 315.5052421 -126.86037127 317.0503094 -128.75 318.625 C-129.73484375 319.44226563 -130.7196875 320.25953125 -131.734375 321.1015625 C-132.48203125 321.72804688 -133.2296875 322.35453125 -134 323 C-129.80608339 328.66745488 -125.48924625 334.22833658 -121.12231445 339.76269531 C-117.78964977 343.98670058 -114.4978646 348.23965184 -111.2421875 352.5234375 C-110.83226562 353.01070313 -110.42234375 353.49796875 -110 354 C-109.67 354 -109.34 354 -109 354 C-109 316.38 -109 278.76 -109 240 C-115.80418391 240 -125.86380787 245.01989067 -130.7265625 249.52734375 Z M-170.63989258 263.31518555 C-172.5265439 264.04852392 -174.41995068 264.76184835 -176.31445312 265.47460938 C-192.59422362 271.80898275 -204.26641443 281.16358604 -212 297 C-216.56887409 308.3134025 -216.15521178 320.3888303 -216.17700195 332.39208984 C-216.18327945 333.92400258 -216.18992735 335.45591383 -216.19691467 336.98782349 C-216.21777532 341.97885105 -216.22828853 346.96987837 -216.23828125 351.9609375 C-216.24233322 353.68509562 -216.24645026 355.40925359 -216.25063133 357.13341141 C-216.26963011 365.22358032 -216.28388155 373.31374033 -216.2922433 381.40392721 C-216.30204675 390.73247683 -216.3284689 400.06079116 -216.36874419 409.38925779 C-216.39886285 416.61324337 -216.41370744 423.8371612 -216.41702431 431.06120837 C-216.41937626 435.37163521 -216.42835817 439.68180906 -216.45348549 443.99216843 C-216.47670214 448.03886215 -216.48102564 452.08513493 -216.47072411 456.1318779 C-216.47022735 457.61699827 -216.47658891 459.102139 -216.49028015 460.58719635 C-216.50791204 462.61269097 -216.49853609 464.63836728 -216.48774719 466.66390991 C-216.49013555 467.7976322 -216.4925239 468.93135448 -216.49498463 470.09943199 C-216.19642424 473.06746332 -216.19642424 473.06746332 -214.37674236 475.37159157 C-211.24043533 477.52041043 -209.26668707 477.45939431 -205.484375 477.390625 C-204.23398438 477.37773437 -202.98359375 477.36484375 -201.6953125 477.3515625 C-200.39335937 477.31804687 -199.09140625 477.28453125 -197.75 477.25 C-196.43257812 477.23195313 -195.11515625 477.21390625 -193.7578125 477.1953125 C-190.50447692 477.14816271 -187.25260375 477.08236044 -184 477 C-183.99761165 476.28639659 -183.99522329 475.57279318 -183.99276257 474.83756542 C-183.93366745 457.48673865 -183.85815282 440.13606155 -183.76428509 422.78538799 C-183.71928901 414.39477988 -183.67988323 406.00421458 -183.65356445 397.61352539 C-183.63061514 390.30155165 -183.59725172 382.98971296 -183.55129844 375.67784625 C-183.5273246 371.80501814 -183.50862321 367.93232411 -183.50238609 364.05942345 C-183.4963539 360.41583349 -183.47642248 356.77258677 -183.44572449 353.12912369 C-183.43270588 351.15091692 -183.43451929 349.17263009 -183.4367218 347.19438171 C-183.42418365 346.02069031 -183.41164551 344.8469989 -183.39872742 343.63774109 C-183.39181397 342.10433846 -183.39181397 342.10433846 -183.38476086 340.539958 C-183 338 -183 338 -181.59617329 336.17474079 C-179.61516942 334.716775 -178.44453589 334.5671298 -176 334.5625 C-175.319375 334.54316406 -174.63875 334.52382813 -173.9375 334.50390625 C-171.12125984 335.225 -170.48359362 336.54130992 -169 339 C-168.61523914 341.64738846 -168.61523914 341.64738846 -168.60127258 344.72003174 C-168.58873444 345.88668365 -168.57619629 347.05333557 -168.5632782 348.25534058 C-168.56471329 349.53136139 -168.56614838 350.8073822 -168.56762695 352.12207031 C-168.55860876 353.482258 -168.5482814 354.84243755 -168.53674316 356.2026062 C-168.50915337 359.89235574 -168.49988602 363.58195117 -168.49388909 367.2717905 C-168.48451053 371.12890804 -168.45830758 374.98591022 -168.43388367 378.84295654 C-168.39020066 386.14557293 -168.3616648 393.44816696 -168.33856028 400.75087428 C-168.31151823 409.06526449 -168.26760614 417.37953876 -168.22227156 425.69384623 C-168.12939944 442.79585093 -168.05995759 459.89784342 -168 477 C-148.53 477 -129.06 477 -109 477 C-109 462.48 -109 447.96 -109 433 C-112.96 434.98 -112.96 434.98 -117 437 C-125.74925676 439.17838638 -132.4132389 437.29338055 -140.25 433.375 C-145.55353552 428.79467387 -148.09679781 423.42455012 -149 416.5 C-149.3569097 409.43120521 -147.57327687 403.44437722 -143 398 C-143 397.34 -143 396.68 -143 396 C-139.66666667 394.33333333 -136.33333333 392.66666667 -133 391 C-132.72484912 385.41770809 -132.52703791 379.83948341 -132.39575195 374.25195312 C-132.34095571 372.35834918 -132.26628059 370.46519899 -132.17016602 368.57324219 C-131.66632629 358.38867445 -131.41568115 350.20881343 -138.23046875 342.1015625 C-139.6462383 340.54479178 -141.09310595 339.03164657 -142.57113647 337.53399658 C-146.64773125 333.15745373 -149.72832439 328.82542639 -150.3125 322.75 C-149.93574872 318.22898468 -148.96924683 315.36102245 -146 312 C-142.1364775 308.78896069 -138.1266434 305.86139896 -134 303 C-135.38776947 299.83049959 -136.97614617 297.83520662 -139.51953125 295.50390625 C-140.21240234 294.86259766 -140.90527344 294.22128906 -141.61914062 293.56054688 C-142.34294922 292.90119141 -143.06675781 292.24183594 -143.8125 291.5625 C-145.23635485 290.25203812 -146.65954671 288.94085545 -148.08203125 287.62890625 C-149.09317993 286.69751831 -149.09317993 286.69751831 -150.12475586 285.74731445 C-158.78396456 277.67883943 -158.78396456 277.67883943 -159.3125 271.125 C-159.23107327 267.15729764 -157.97300019 264.45275033 -156 261 C-156 260.34 -156 259.68 -156 259 C-161.19175261 259 -165.84854022 261.44307585 -170.63989258 263.31518555 Z M-1 371 C-2.03013277 372.64821244 -3.03114628 374.31503702 -4 376 C-2.68 376 -1.36 376 0 376 C0 374.35 0 372.7 0 371 C-0.33 371 -0.66 371 -1 371 Z M-117 372 C-117 378.27 -117 384.54 -117 391 C-113.04 392.98 -113.04 392.98 -109 395 C-108.031803 385.82709016 -108.031803 385.82709016 -110.5234375 377.22265625 C-112.25118042 375.27277495 -113.91726624 373.56329896 -116 372 C-116.33 372 -116.66 372 -117 372 Z M-131 408 C-133.06196218 410.2140989 -133.06196218 410.2140989 -134 413 C-133.23960803 416.80195984 -132.23036592 419.72677954 -129 422 C-125.82304865 423.17045576 -124.51116739 423.21907174 -121.375 421.875 C-118.65287411 419.72595325 -117.27894294 418.23497332 -116 415 C-116.76039197 411.19804016 -117.76963408 408.27322046 -121 406 C-125.32893596 404.40512886 -127.43071803 405.18214581 -131 408 Z " fill="#000000" transform="translate(314,20)"/>
</svg>
