<?xml version="1.0" encoding="UTF-8"?>
<!DOCTYPE svg PUBLIC "-//W3C//DTD SVG 1.1//EN" "http://www.w3.org/Graphics/SVG/1.1/DTD/svg11.dtd">
<svg xmlns="http://www.w3.org/2000/svg" version="1.1" width="512px" height="512px" style="shape-rendering:geometricPrecision; text-rendering:geometricPrecision; image-rendering:optimizeQuality; fill-rule:evenodd; clip-rule:evenodd" xmlns:xlink="http://www.w3.org/1999/xlink">
<g><path style="opacity:0.929" fill="#000000" d="M 222.5,-0.5 C 243.833,-0.5 265.167,-0.5 286.5,-0.5C 372.044,12.9113 436.544,56.9113 480,131.5C 515.119,200.334 520.119,271.334 495,344.5C 466.5,416.333 416.333,466.5 344.5,495C 259.034,523.985 179.034,513.318 104.5,463C 45.5317,418.584 10.5317,359.751 -0.5,286.5C -0.5,265.167 -0.5,243.833 -0.5,222.5C 14.1009,130.75 62.7676,63.9165 145.5,22C 170.24,10.9031 195.907,3.40314 222.5,-0.5 Z M 233.5,14.5 C 316.664,10.1469 385.497,39.1469 440,101.5C 492.622,168.866 507.288,243.866 484,326.5C 453.296,413.538 393.129,468.038 303.5,490C 209.757,505.979 131.591,478.479 69,407.5C 16.3782,340.134 1.71151,265.134 25,182.5C 55.7039,95.4623 115.871,40.9623 205.5,19C 214.95,17.3238 224.283,15.8238 233.5,14.5 Z M 237.5,80.5 C 266.097,78.5614 293.763,82.728 320.5,93C 308.962,117.909 297.295,142.742 285.5,167.5C 264.833,160.833 244.167,160.833 223.5,167.5C 211.705,142.742 200.038,117.909 188.5,93C 204.518,87.0795 220.851,82.9129 237.5,80.5 Z M 243.5,178.5 C 276.351,176.011 301.851,188.344 320,215.5C 338.346,252.098 332.846,284.598 303.5,313C 281.62,330.037 257.286,334.704 230.5,327C 191.283,310.41 174.449,280.91 180,238.5C 189.075,205.589 210.242,185.589 243.5,178.5 Z M 160.5,270.5 C 162.124,270.36 163.29,271.027 164,272.5C 168.481,293.465 178.648,311.131 194.5,325.5C 178.821,347.538 163.154,369.538 147.5,391.5C 111.008,362.707 89.008,325.207 81.5,279C 107.855,275.953 134.188,273.12 160.5,270.5 Z M 345.5,270.5 C 372.964,272.95 400.298,275.783 427.5,279C 419.992,325.207 397.992,362.707 361.5,391.5C 345.846,369.538 330.179,347.538 314.5,325.5C 330.811,310.546 341.144,292.213 345.5,270.5 Z"/></g>
<g><path style="opacity:0.928" fill="#000000" d="M 234.5,31.5 C 329.153,27.3991 400.987,65.3991 450,145.5C 482.57,208.848 486.237,273.848 461,340.5C 423.818,421.199 360.985,466.865 272.5,477.5C 264.278,475.428 262.278,470.595 266.5,463C 351.559,452.926 411.725,409.092 447,331.5C 474.844,253.562 462.844,182.562 411,118.5C 353.658,57.1683 283.825,35.6683 201.5,54C 125.301,77.2249 75.9681,127.058 53.5,203.5C 35.5902,292.623 61.9235,365.456 132.5,422C 164.862,444.791 200.862,458.125 240.5,462C 243.516,463.529 244.849,466.029 244.5,469.5C 244.227,474.44 241.561,477.106 236.5,477.5C 148.015,466.865 85.1818,421.199 48,340.5C 22.7632,273.848 26.4299,208.848 59,145.5C 98.6199,78.7598 157.12,40.7598 234.5,31.5 Z M 237.5,80.5 C 220.851,82.9129 204.518,87.0795 188.5,93C 200.038,117.909 211.705,142.742 223.5,167.5C 244.167,160.833 264.833,160.833 285.5,167.5C 297.295,142.742 308.962,117.909 320.5,93C 293.763,82.728 266.097,78.5614 237.5,80.5 Z M 243.5,178.5 C 210.242,185.589 189.075,205.589 180,238.5C 174.449,280.91 191.283,310.41 230.5,327C 257.286,334.704 281.62,330.037 303.5,313C 332.846,284.598 338.346,252.098 320,215.5C 301.851,188.344 276.351,176.011 243.5,178.5 Z M 160.5,270.5 C 134.188,273.12 107.855,275.953 81.5,279C 89.008,325.207 111.008,362.707 147.5,391.5C 163.154,369.538 178.821,347.538 194.5,325.5C 178.648,311.131 168.481,293.465 164,272.5C 163.29,271.027 162.124,270.36 160.5,270.5 Z M 345.5,270.5 C 341.144,292.213 330.811,310.546 314.5,325.5C 330.179,347.538 345.846,369.538 361.5,391.5C 397.992,362.707 419.992,325.207 427.5,279C 400.298,275.783 372.964,272.95 345.5,270.5 Z"/></g>
<g><path style="opacity:0.929" fill="#000000" d="M 235.5,64.5 C 266.85,62.2809 297.183,66.7809 326.5,78C 336.154,82.8224 338.987,90.3224 335,100.5C 323.355,124.955 311.855,149.455 300.5,174C 330.175,192.503 345.508,219.336 346.5,254.5C 375.498,257.242 404.498,260.076 433.5,263C 440.175,265.513 443.508,270.346 443.5,277.5C 436.12,331.12 411.12,374.287 368.5,407C 359.558,410.462 352.392,408.296 347,400.5C 331.746,378.325 316.246,356.325 300.5,334.5C 269.833,350.5 239.167,350.5 208.5,334.5C 191.745,358.343 174.745,382.01 157.5,405.5C 150.745,409.584 144.078,409.417 137.5,405C 95.4864,371.145 71.653,327.312 66,273.5C 67.4056,268.427 70.5723,264.927 75.5,263C 104.502,260.076 133.502,257.242 162.5,254.5C 163.492,219.336 178.825,192.503 208.5,174C 197.145,149.455 185.645,124.955 174,100.5C 170.013,90.3224 172.846,82.8224 182.5,78C 199.85,71.7464 217.516,67.2464 235.5,64.5 Z M 237.5,80.5 C 220.851,82.9129 204.518,87.0795 188.5,93C 200.038,117.909 211.705,142.742 223.5,167.5C 244.167,160.833 264.833,160.833 285.5,167.5C 297.295,142.742 308.962,117.909 320.5,93C 293.763,82.728 266.097,78.5614 237.5,80.5 Z M 243.5,178.5 C 210.242,185.589 189.075,205.589 180,238.5C 174.449,280.91 191.283,310.41 230.5,327C 257.286,334.704 281.62,330.037 303.5,313C 332.846,284.598 338.346,252.098 320,215.5C 301.851,188.344 276.351,176.011 243.5,178.5 Z M 160.5,270.5 C 134.188,273.12 107.855,275.953 81.5,279C 89.008,325.207 111.008,362.707 147.5,391.5C 163.154,369.538 178.821,347.538 194.5,325.5C 178.648,311.131 168.481,293.465 164,272.5C 163.29,271.027 162.124,270.36 160.5,270.5 Z M 345.5,270.5 C 341.144,292.213 330.811,310.546 314.5,325.5C 330.179,347.538 345.846,369.538 361.5,391.5C 397.992,362.707 419.992,325.207 427.5,279C 400.298,275.783 372.964,272.95 345.5,270.5 Z"/></g>
<g><path style="opacity:0.925" fill="#000000" d="M 245.5,195.5 C 275.83,193.408 297.33,206.074 310,233.5C 311.329,242.501 307.496,246.001 298.5,244C 294.957,239.084 291.79,233.917 289,228.5C 272.586,209.984 253.419,206.484 231.5,218C 213.621,230.994 207.788,248.161 214,269.5C 225.533,293.015 244.033,301.515 269.5,295C 277.338,291.995 283.838,287.161 289,280.5C 291.79,275.083 294.957,269.916 298.5,265C 307.496,262.999 311.329,266.499 310,275.5C 296.301,305.435 273.134,317.602 240.5,312C 224.18,308.086 211.68,298.919 203,284.5C 191.934,261.69 193.267,239.69 207,218.5C 217.032,205.933 229.865,198.266 245.5,195.5 Z"/></g>
</svg>
