<?xml version="1.0" encoding="UTF-8"?>
<!DOCTYPE svg PUBLIC "-//W3C//DTD SVG 1.1//EN" "http://www.w3.org/Graphics/SVG/1.1/DTD/svg11.dtd">
<svg xmlns="http://www.w3.org/2000/svg" version="1.1" width="512px" height="512px" style="shape-rendering:geometricPrecision; text-rendering:geometricPrecision; image-rendering:optimizeQuality; fill-rule:evenodd; clip-rule:evenodd" xmlns:xlink="http://www.w3.org/1999/xlink">
<g><path style="opacity:0.928" fill="#000000" d="M 340.5,-0.5 C 345.167,-0.5 349.833,-0.5 354.5,-0.5C 366.313,4.50983 371.813,13.5098 371,26.5C 369.733,31.9999 367.733,36.9999 365,41.5C 377.667,54.1667 390.333,66.8333 403,79.5C 407.571,89.4557 404.405,93.9557 393.5,93C 379.191,78.3588 364.525,64.0255 349.5,50C 341.333,48.8333 337.833,52.3333 339,60.5C 376.167,97.6667 413.333,134.833 450.5,172C 458.667,173.167 462.167,169.667 461,161.5C 445.974,145.475 430.641,129.808 415,114.5C 413.978,103.59 418.478,100.424 428.5,105C 442.167,118.667 455.833,132.333 469.5,146C 473.075,144.5 476.742,142.834 480.5,141C 495.216,137.691 505.55,142.858 511.5,156.5C 511.5,161.167 511.5,165.833 511.5,170.5C 510.379,172.741 509.213,175.075 508,177.5C 475.167,210.333 442.333,243.167 409.5,276C 375.081,302.682 337.081,309.182 295.5,295.5C 308.581,334.529 303.415,370.862 280,404.5C 271.864,413.637 263.364,422.47 254.5,431C 247.515,433.673 243.182,431.34 241.5,424C 242.196,422.107 243.03,420.274 244,418.5C 259.449,405.396 271.449,389.729 280,371.5C 288.289,349.288 288.623,326.955 281,304.5C 268.136,268.242 255.469,231.909 243,195.5C 241.023,185.948 240.023,176.281 240,166.5C 230.823,148.361 235.657,135.528 254.5,128C 261.302,120.197 268.469,112.697 276,105.5C 277.184,88.3164 286.35,79.1497 303.5,78C 309.667,71.8333 315.833,65.6667 322,59.5C 322.805,42.6954 331.638,33.8621 348.5,33C 352.663,30.1639 354.829,26.3306 355,21.5C 352.523,15.5497 348.357,14.0497 342.5,17C 311.333,48.1667 280.167,79.3333 249,110.5C 224.574,140.051 218.574,173.051 231,209.5C 243.531,244.758 255.864,280.091 268,315.5C 269.977,325.052 270.977,334.719 271,344.5C 280.19,362.594 275.357,375.427 256.5,383C 249.698,390.803 242.531,398.303 235,405.5C 233.82,422.68 224.653,431.847 207.5,433C 201.333,439.167 195.167,445.333 189,451.5C 188.195,468.305 179.362,477.138 162.5,478C 156.338,482.08 154.838,487.247 158,493.5C 160.579,495.347 163.412,495.847 166.5,495C 184.472,478.029 202.138,460.696 219.5,443C 229.68,439.34 233.846,442.84 232,453.5C 213.833,471.667 195.667,489.833 177.5,508C 175.075,509.213 172.741,510.379 170.5,511.5C 165.833,511.5 161.167,511.5 156.5,511.5C 144.687,506.49 139.187,497.49 140,484.5C 141.267,479 143.267,474 146,469.5C 111.167,434.667 76.3333,399.833 41.5,365C 37.9247,366.5 34.2581,368.166 30.5,370C 15.7838,373.309 5.45048,368.142 -0.5,354.5C -0.5,349.833 -0.5,345.167 -0.5,340.5C 0.620727,338.259 1.78739,335.925 3,333.5C 35.8333,300.667 68.6667,267.833 101.5,235C 135.883,208.109 173.883,201.609 215.5,215.5C 201.609,173.881 208.109,135.881 235,101.5C 267.833,68.6667 300.667,35.8333 333.5,3C 335.925,1.78739 338.259,0.620727 340.5,-0.5 Z M 329.5,74.5 C 365.299,109.799 400.965,145.299 436.5,181C 432.667,184.833 428.833,188.667 425,192.5C 389.5,157 354,121.5 318.5,86C 322.37,82.2977 326.037,78.4643 329.5,74.5 Z M 299.5,94.5 C 302.467,94.9886 305.133,96.1552 307.5,98C 342.667,133.167 377.833,168.333 413,203.5C 418.085,210.416 416.585,215.416 408.5,218.5C 407.205,217.902 405.872,217.402 404.5,217C 367.667,180.167 330.833,143.333 294,106.5C 291.881,100.693 293.714,96.6928 299.5,94.5 Z M 283.5,120.5 C 319.416,154.915 354.916,189.915 390,225.5C 390.667,226.167 390.667,226.833 390,227.5C 386.333,231.167 382.667,234.833 379,238.5C 344.167,202.333 308.667,166.833 272.5,132C 276.37,128.298 280.037,124.464 283.5,120.5 Z M 255.5,144.5 C 259.219,144.002 262.553,144.836 265.5,147C 298.333,179.833 331.167,212.667 364,245.5C 368.898,254.929 366.065,259.429 355.5,259C 321,224.5 286.5,190 252,155.5C 250.662,150.96 251.829,147.293 255.5,144.5 Z M 486.5,155.5 C 494.687,156.54 497.187,160.873 494,168.5C 462.833,199.667 431.667,230.833 400.5,262C 377.033,281.819 350.033,289.486 319.5,285C 308.655,282.329 297.989,279.162 287.5,275.5C 285.709,269.461 283.709,263.461 281.5,257.5C 281.833,257.167 282.167,256.833 282.5,256.5C 293.387,260.629 304.387,264.463 315.5,268C 325.052,269.977 334.719,270.977 344.5,271C 362.639,280.177 375.472,275.343 383,256.5C 390.803,249.698 398.303,242.531 405.5,235C 422.68,233.82 431.847,224.653 433,207.5C 439.167,201.333 445.333,195.167 451.5,189C 468.324,188.176 477.157,179.343 478,162.5C 480.441,159.546 483.275,157.213 486.5,155.5 Z M 257.5,184.5 C 280.632,207.132 303.632,229.965 326.5,253C 323.793,253.328 321.126,252.995 318.5,252C 304.167,247 289.833,242 275.5,237C 271.093,227.454 267.259,217.62 264,207.5C 261.114,200.012 258.947,192.346 257.5,184.5 Z M 164.5,224.5 C 173.546,224.236 182.546,224.736 191.5,226C 202.34,228.67 213.007,231.836 223.5,235.5C 225.291,241.539 227.291,247.539 229.5,253.5C 229.167,253.833 228.833,254.167 228.5,254.5C 217.613,250.371 206.613,246.537 195.5,243C 185.948,241.023 176.281,240.023 166.5,240C 148.361,230.823 135.528,235.657 128,254.5C 120.197,261.302 112.697,268.469 105.5,276C 88.3197,277.18 79.1531,286.347 78,303.5C 71.8333,309.667 65.6667,315.833 59.5,322C 42.6379,322.862 33.8045,331.695 33,348.5C 28.9195,354.662 23.7529,356.162 17.5,353C 15.077,349.621 14.9103,346.121 17,342.5C 48.8333,310.667 80.6667,278.833 112.5,247C 127.854,234.82 145.188,227.32 164.5,224.5 Z M 148.5,251.5 C 150.857,251.337 153.19,251.503 155.5,252C 190,286.5 224.5,321 259,355.5C 259.429,366.065 254.929,368.898 245.5,364C 212.667,331.167 179.833,298.333 147,265.5C 143.333,260.343 143.833,255.677 148.5,251.5 Z M 184.5,258.5 C 184.917,257.876 185.584,257.543 186.5,257.5C 202.928,262.698 219.261,268.198 235.5,274C 240.241,284.548 244.408,295.381 248,306.5C 250.721,312.979 252.388,319.645 253,326.5C 230.299,303.632 207.465,280.965 184.5,258.5 Z M 131.5,272.5 C 166.633,308.466 202.299,343.966 238.5,379C 234.833,382.667 231.167,386.333 227.5,390C 226.833,390.667 226.167,390.667 225.5,390C 190.667,355.167 155.833,320.333 121,285.5C 120.333,284.833 120.333,284.167 121,283.5C 124.704,279.964 128.204,276.298 131.5,272.5 Z M 101.5,292.5 C 103.179,292.892 104.846,293.392 106.5,294C 143.333,330.833 180.167,367.667 217,404.5C 219.286,410.766 217.119,414.766 210.5,416.5C 207.912,415.806 205.579,414.64 203.5,413C 168.333,377.833 133.167,342.667 98,307.5C 93.1031,301.033 94.2697,296.033 101.5,292.5 Z M 85.5,318.5 C 121.299,353.799 156.965,389.299 192.5,425C 188.667,428.833 184.833,432.667 181,436.5C 145.5,401 110,365.5 74.5,330C 78.3705,326.298 82.0371,322.464 85.5,318.5 Z M 54.5,338.5 C 56.5273,338.338 58.5273,338.505 60.5,339C 97.6667,376.167 134.833,413.333 172,450.5C 172.242,460.797 167.742,463.631 158.5,459C 121.972,422.806 85.8054,386.306 50,349.5C 48.7758,344.626 50.2758,340.959 54.5,338.5 Z"/></g>
</svg>
