<?xml version="1.0" encoding="UTF-8"?>
<!DOCTYPE svg PUBLIC "-//W3C//DTD SVG 1.1//EN" "http://www.w3.org/Graphics/SVG/1.1/DTD/svg11.dtd">
<svg xmlns="http://www.w3.org/2000/svg" version="1.1" width="512px" height="512px" style="shape-rendering:geometricPrecision; text-rendering:geometricPrecision; image-rendering:optimizeQuality; fill-rule:evenodd; clip-rule:evenodd" xmlns:xlink="http://www.w3.org/1999/xlink">
<g><path style="opacity:0.934" fill="#000000" d="M 18.5,-0.5 C 30.8333,-0.5 43.1667,-0.5 55.5,-0.5C 68.0033,8.84991 70.1699,20.1832 62,33.5C 56.8509,38.49 50.6842,40.8234 43.5,40.5C 43.3333,86.1679 43.5,131.835 44,177.5C 46.8985,202.883 56.3985,225.383 72.5,245C 75.4403,246.152 78.4403,247.152 81.5,248C 93.9675,258.74 107.634,267.74 122.5,275C 133.664,278.957 144.997,282.29 156.5,285C 161.34,292.499 159.34,297.332 150.5,299.5C 122.262,294.879 97.5949,283.046 76.5,264C 66.4641,259.34 60.1308,262.34 57.5,273C 57.9339,277.535 59.9339,281.202 63.5,284C 89.2329,305.693 118.9,319.026 152.5,324C 156.325,326.488 158.492,329.988 159,334.5C 159.333,344.833 159.667,355.167 160,365.5C 163.379,372.073 168.213,373.573 174.5,370C 176.487,368.681 177.654,366.848 178,364.5C 178.333,353.833 178.667,343.167 179,332.5C 180.5,327.667 183.667,324.5 188.5,323C 219.288,318.6 246.621,306.6 270.5,287C 273.704,284.131 276.537,280.965 279,277.5C 280.358,264.858 274.858,260.024 262.5,263C 241.115,282.775 215.948,294.941 187,299.5C 179.856,298.556 177.189,294.556 179,287.5C 180.167,286.333 181.333,285.167 182.5,284C 209.594,280.118 232.928,268.785 252.5,250C 256.54,247.573 260.874,245.906 265.5,245C 283.258,223.074 292.758,197.908 294,169.5C 294.5,126.501 294.667,83.5013 294.5,40.5C 275.891,39.3959 268.391,29.7292 272,11.5C 273.963,6.04369 277.463,2.04369 282.5,-0.5C 294.833,-0.5 307.167,-0.5 319.5,-0.5C 328.059,3.56618 333.559,10.2328 336,19.5C 336.667,48.8333 336.667,78.1667 336,107.5C 333.045,111.277 329.212,112.443 324.5,111C 322.951,109.786 321.785,108.286 321,106.5C 320.667,78.5 320.333,50.5 320,22.5C 318.895,19.0629 316.728,16.5629 313.5,15C 306.223,13.5328 298.889,13.1994 291.5,14C 285.888,16.437 285.222,19.7703 289.5,24C 294.833,24.3333 300.167,24.6667 305.5,25C 308.108,26.3783 309.608,28.545 310,31.5C 310.667,77.8333 310.667,124.167 310,170.5C 308.682,199.281 299.849,225.447 283.5,249C 285.478,250.978 287.478,252.978 289.5,255C 290.332,255.688 290.998,255.521 291.5,254.5C 306.225,234.173 315.392,211.507 319,186.5C 320.206,169.864 320.872,153.197 321,136.5C 325.561,129.045 330.561,128.712 336,135.5C 341.572,183.011 330.905,226.344 304,265.5C 301.667,268.167 299.333,270.833 297,273.5C 295.309,284.038 290.142,292.538 281.5,299C 256.174,319.575 227.341,332.742 195,338.5C 194.667,348.167 194.333,357.833 194,367.5C 192.638,371.723 191.138,375.889 189.5,380C 191.241,418.173 209.241,445.507 243.5,462C 285.885,476.091 320.718,465.591 348,430.5C 355.431,418.877 360.097,406.21 362,392.5C 362.333,361.167 362.667,329.833 363,298.5C 363.591,292.711 364.758,287.044 366.5,281.5C 354.623,244.974 363.623,214.807 393.5,191C 424.652,172.588 454.986,173.921 484.5,195C 499.137,208.115 508.137,224.281 511.5,243.5C 511.5,249.833 511.5,256.167 511.5,262.5C 506.026,293.489 488.359,314.322 458.5,325C 440.532,330.322 423.032,329.155 406,321.5C 405.852,347.185 405.185,372.851 404,398.5C 393.895,455.939 360.728,492.439 304.5,508C 237.467,518.236 188.634,493.403 158,433.5C 150.628,415.237 146.961,396.237 147,376.5C 145.803,373.911 144.803,371.244 144,368.5C 143.667,358.5 143.333,348.5 143,338.5C 108.744,332.786 78.5772,318.619 52.5,296C 46.0626,290.228 42.2293,283.062 41,274.5C 19.0101,248.17 6.01008,217.836 2,183.5C 1.33333,128.5 1.33333,73.5 2,18.5C 4.73797,9.64255 10.238,3.30922 18.5,-0.5 Z M 28.5,13.5 C 35.2569,13.1226 41.9236,13.6226 48.5,15C 52.0883,18.2894 51.7549,21.2894 47.5,24C 42.5,24.3333 37.5,24.6667 32.5,25C 30.3333,25.8333 28.8333,27.3333 28,29.5C 27.3333,79.1667 27.3333,128.833 28,178.5C 30.7336,204.376 39.5669,227.876 54.5,249C 52.3171,251.35 49.9837,253.517 47.5,255.5C 30.7865,233.716 20.9532,209.05 18,181.5C 16.4096,129.514 16.0763,77.5143 17,25.5C 18.348,18.9875 22.1813,14.9875 28.5,13.5 Z M 435.5,193.5 C 465.449,195.557 484.949,210.89 494,239.5C 498.809,274.056 484.976,297.556 452.5,310C 436.391,314.07 421.057,312.07 406.5,304C 405.337,299.946 406.004,296.113 408.5,292.5C 426.168,303.887 444.168,304.387 462.5,294C 482.739,278.613 488.906,258.779 481,234.5C 466.725,207.96 445.225,199.46 416.5,209C 399.973,217.531 390.473,231.031 388,249.5C 384.297,252.867 380.964,256.534 378,260.5C 376.046,229.906 389.212,208.739 417.5,197C 423.556,195.374 429.556,194.208 435.5,193.5 Z M 409.5,236.5 C 417.792,223.785 429.458,218.952 444.5,222C 462.15,228.322 469.984,240.822 468,259.5C 462.452,277.52 450.286,286.02 431.5,285C 426.864,284.121 422.531,282.455 418.5,280C 426.651,275.795 435.317,273.462 444.5,273C 457.393,264.812 460.227,253.979 453,240.5C 445.368,232.885 436.202,230.385 425.5,233C 420.08,233.855 414.747,235.022 409.5,236.5 Z M 426.5,248.5 C 430.514,248.334 434.514,248.501 438.5,249C 440.444,251.153 440.944,253.653 440,256.5C 423.191,257.905 409.191,264.905 398,277.5C 394.863,282.108 392.53,287.108 391,292.5C 389.931,327.137 388.931,361.804 388,396.5C 380.325,443.177 354.158,474.343 309.5,490C 257.432,502.758 215.266,487.925 183,445.5C 171.416,427.916 164.916,408.582 163.5,387.5C 167.167,388.833 170.833,388.833 174.5,387.5C 179.322,436.974 205.655,468.474 253.5,482C 301.507,490.236 338.674,474.07 365,433.5C 372.201,421.098 376.534,407.765 378,393.5C 378.333,362.167 378.667,330.833 379,299.5C 383.668,272.002 399.501,255.002 426.5,248.5 Z"/></g>
</svg>
