<?xml version="1.0" encoding="UTF-8"?>
<!DOCTYPE svg PUBLIC "-//W3C//DTD SVG 1.1//EN" "http://www.w3.org/Graphics/SVG/1.1/DTD/svg11.dtd">
<svg xmlns="http://www.w3.org/2000/svg" version="1.1" width="512px" height="512px" style="shape-rendering:geometricPrecision; text-rendering:geometricPrecision; image-rendering:optimizeQuality; fill-rule:evenodd; clip-rule:evenodd" xmlns:xlink="http://www.w3.org/1999/xlink">
<g><path style="opacity:0.945" fill="#000000" d="M 511.5,235.5 C 511.5,244.167 511.5,252.833 511.5,261.5C 501.024,308.8 471.524,334.133 423,337.5C 375.021,333.852 346.021,308.519 336,261.5C 332.628,209.731 355.795,176.564 405.5,162C 415.13,160.88 424.796,160.214 434.5,160C 418.035,102.598 380.035,71.4314 320.5,66.5C 286.669,67.4871 258.336,80.3204 235.5,105C 230.833,108.333 226.167,108.333 221.5,105C 183.661,67.0314 139.661,57.6981 89.5,77C 41.1713,102.473 18.338,142.64 21,197.5C 23.8561,211.403 28.6894,224.569 35.5,237C 66.5054,237.833 97.5054,237.667 128.5,236.5C 136.821,208.217 144.988,179.884 153,151.5C 156.77,144.586 162.27,142.753 169.5,146C 171.049,147.214 172.215,148.714 173,150.5C 188.873,201.951 205.04,253.284 221.5,304.5C 227.96,285.285 234.127,265.951 240,246.5C 240.883,243.898 242.383,241.731 244.5,240C 265.077,238.357 285.744,238.024 306.5,239C 312.109,242.277 313.942,247.11 312,253.5C 310.125,256.187 307.625,258.021 304.5,259C 288.926,259.175 273.426,259.675 258,260.5C 249,289.167 240,317.833 231,346.5C 226.518,352.328 221.018,353.495 214.5,350C 213.299,349.097 212.465,347.931 212,346.5C 196,295.167 180,243.833 164,192.5C 157.949,211.326 152.282,230.326 147,249.5C 146.167,254.333 143.333,257.167 138.5,258C 108.5,258.333 78.5,258.667 48.5,259C 69.8335,289.442 93.6668,317.942 120,344.5C 154.236,378.916 190.403,410.916 228.5,440.5C 256.865,418.309 284.198,394.809 310.5,370C 317.068,366.19 322.568,367.357 327,373.5C 327.667,376.5 327.667,379.5 327,382.5C 298.367,410.804 268.2,437.304 236.5,462C 234.119,463.766 231.452,464.932 228.5,465.5C 225.548,464.932 222.881,463.766 220.5,462C 162.592,417.099 109.426,366.932 61,311.5C 47.3359,294.835 34.8359,277.335 23.5,259C 18.1667,258.667 12.8333,258.333 7.5,258C 4.27885,256.896 1.61218,255.063 -0.5,252.5C -0.5,249.5 -0.5,246.5 -0.5,243.5C 2.20259,239.142 6.20259,236.809 11.5,236.5C 6.25763,224.443 2.25763,212.109 -0.5,199.5C -0.5,189.833 -0.5,180.167 -0.5,170.5C 7.82492,116.007 37.1583,77.5067 87.5,55C 139.6,37.1877 186.6,46.021 228.5,81.5C 268.257,47.5146 313.257,38.0146 363.5,53C 406.399,68.8987 435.565,98.3987 451,141.5C 453.381,149.74 455.381,158.073 457,166.5C 486.672,180.557 504.839,203.557 511.5,235.5 Z M 414.5,181.5 C 447.642,179.835 471.475,193.835 486,223.5C 497.199,258.573 487.699,286.407 457.5,307C 429.977,321.305 403.977,318.972 379.5,300C 357.09,278.525 350.923,253.025 361,223.5C 371.719,200.247 389.552,186.247 414.5,181.5 Z"/></g>
<g><path style="opacity:0.962" fill="#000000" d="M 421.5,201.5 C 426.545,201.338 430.378,203.338 433,207.5C 433.5,217.828 433.666,228.161 433.5,238.5C 443.506,238.334 453.506,238.5 463.5,239C 470.235,242.322 472.069,247.489 469,254.5C 467.833,255.667 466.667,256.833 465.5,258C 454.898,259.403 444.231,259.903 433.5,259.5C 433.666,269.506 433.5,279.506 433,289.5C 429.252,295.542 424.085,297.042 417.5,294C 415.951,292.786 414.785,291.286 414,289.5C 413.5,279.506 413.334,269.506 413.5,259.5C 402.769,259.903 392.102,259.403 381.5,258C 376.064,253.215 375.23,247.715 379,241.5C 380.419,240.54 381.919,239.707 383.5,239C 393.494,238.5 403.494,238.334 413.5,238.5C 413.334,228.161 413.5,217.828 414,207.5C 415.707,204.41 418.207,202.41 421.5,201.5 Z"/></g>
<g><path style="opacity:0.893" fill="#000000" d="M 341.5,340.5 C 352.486,339.653 356.986,344.653 355,355.5C 349.105,363.09 342.771,363.423 336,356.5C 333.752,349.742 335.586,344.409 341.5,340.5 Z"/></g>
</svg>
