<?xml version="1.0" encoding="UTF-8"?>
<!DOCTYPE svg PUBLIC "-//W3C//DTD SVG 1.1//EN" "http://www.w3.org/Graphics/SVG/1.1/DTD/svg11.dtd">
<svg xmlns="http://www.w3.org/2000/svg" version="1.1" width="512px" height="512px" style="shape-rendering:geometricPrecision; text-rendering:geometricPrecision; image-rendering:optimizeQuality; fill-rule:evenodd; clip-rule:evenodd" xmlns:xlink="http://www.w3.org/1999/xlink">
<g><path style="opacity:0.937" fill="#000000" d="M 184.5,38.5 C 205.487,37.2187 224.487,42.7187 241.5,55C 246.021,59.0223 250.688,62.8556 255.5,66.5C 267.95,54.9373 282.283,46.4373 298.5,41C 333.448,33.5655 360.614,44.7321 380,74.5C 393.678,101.971 392.344,128.637 376,154.5C 336.347,195.319 296.181,235.653 255.5,275.5C 213.79,234.957 172.957,193.624 133,151.5C 113.6,114.402 119.1,81.5687 149.5,53C 160.088,45.367 171.754,40.5337 184.5,38.5 Z M 184.5,59.5 C 203.302,57.1128 219.635,62.2794 233.5,75C 240.681,82.348 248.014,89.5146 255.5,96.5C 263.319,89.1812 270.986,81.6812 278.5,74C 295.693,59.2031 315.027,55.5364 336.5,63C 360.412,74.6467 370.912,93.8134 368,120.5C 366.406,128.956 363.073,136.623 358,143.5C 323.986,177.68 289.82,211.68 255.5,245.5C 221.18,211.68 187.014,177.68 153,143.5C 140.184,124.147 139.184,104.147 150,83.5C 158.51,71.1647 170.01,63.1647 184.5,59.5 Z"/></g>
<g><path style="opacity:0.949" fill="#000000" d="M -0.5,298.5 C -0.5,227.167 -0.5,155.833 -0.5,84.5C 7.17143,63.3245 22.1714,55.1578 44.5,60C 57.4751,64.6455 64.9751,73.8122 67,87.5C 70.9088,128.923 75.4088,170.257 80.5,211.5C 85.1122,213.139 89.4455,215.306 93.5,218C 126.199,249.034 159.199,279.701 192.5,310C 205.433,321.695 213.266,336.195 216,353.5C 216.5,393.165 216.667,432.832 216.5,472.5C 176.833,472.5 137.167,472.5 97.5,472.5C 97.6666,453.497 97.4999,434.497 97,415.5C 95.2359,408.639 91.9026,402.639 87,397.5C 62,372.5 37,347.5 12,322.5C 5.95289,315.403 1.78622,307.403 -0.5,298.5 Z M 31.5,78.5 C 38.8365,78.9135 43.6699,82.5802 46,89.5C 50.9272,130.771 54.9272,172.104 58,213.5C 40.8804,223.761 35.5471,238.427 42,257.5C 44.4476,261.615 47.2809,265.448 50.5,269C 75.9657,291.464 101.132,314.297 126,337.5C 131.2,332.635 136.033,327.468 140.5,322C 117.132,300.297 93.4652,278.963 69.5,258C 62.3571,253.243 59.5237,246.743 61,238.5C 65.3246,232.059 71.1579,230.226 78.5,233C 114.635,266.133 150.468,299.633 186,333.5C 190.376,339.544 193.376,346.211 195,353.5C 195.5,386.165 195.667,418.832 195.5,451.5C 169.833,451.5 144.167,451.5 118.5,451.5C 118.866,437.459 118.366,423.459 117,409.5C 115.501,403.501 113.168,397.834 110,392.5C 82,363.833 54,335.167 26,306.5C 23.8061,303.446 22.1395,300.112 21,296.5C 19.35,227.536 19.0167,158.536 20,89.5C 21.7889,83.5412 25.6223,79.8745 31.5,78.5 Z"/></g>
<g><path style="opacity:0.949" fill="#000000" d="M 511.5,84.5 C 511.5,155.833 511.5,227.167 511.5,298.5C 509.214,307.403 505.047,315.403 499,322.5C 475,346.5 451,370.5 427,394.5C 422.952,398.88 419.285,403.546 416,408.5C 415.489,410.878 414.822,413.212 414,415.5C 413.5,434.497 413.333,453.497 413.5,472.5C 373.833,472.5 334.167,472.5 294.5,472.5C 294.333,432.832 294.5,393.165 295,353.5C 297.734,336.195 305.567,321.695 318.5,310C 351.801,279.701 384.801,249.034 417.5,218C 421.554,215.306 425.888,213.139 430.5,211.5C 435.591,170.257 440.091,128.923 444,87.5C 446.636,72.1983 455.47,62.6983 470.5,59C 491.303,56.3866 504.97,64.8866 511.5,84.5 Z M 476.5,78.5 C 483.837,78.9135 488.67,82.5802 491,89.5C 491.983,158.536 491.65,227.536 490,296.5C 488.861,300.112 487.194,303.446 485,306.5C 457,335.167 429,363.833 401,392.5C 397.832,397.834 395.499,403.501 394,409.5C 392.634,423.459 392.134,437.459 392.5,451.5C 366.833,451.5 341.167,451.5 315.5,451.5C 315.333,418.832 315.5,386.165 316,353.5C 317.624,346.211 320.624,339.544 325,333.5C 360.199,299.967 395.699,266.8 431.5,234C 442.203,229.352 448.87,232.685 451.5,244C 449.788,249.729 446.455,254.396 441.5,258C 417.535,278.963 393.868,300.297 370.5,322C 374.967,327.468 379.8,332.635 385,337.5C 409.534,314.63 434.368,292.13 459.5,270C 472.861,256.506 475.027,241.339 466,224.5C 462.253,220.082 457.92,216.416 453,213.5C 456.073,172.104 460.073,130.771 465,89.5C 466.789,83.5412 470.622,79.8745 476.5,78.5 Z"/></g>
</svg>
