<?xml version="1.0" encoding="UTF-8"?>
<svg version="1.1" xmlns="http://www.w3.org/2000/svg" width="512" height="512">
<path d="M0 0 C6.9077047 7.09958539 9.59491617 13.54474394 9.6328125 23.40844727 C9.44109412 31.73921005 6.3549294 37.33945024 0.75 43.3125 C-4.1912043 47.92984259 -9.62000846 51.94250916 -15.01904297 56.00048828 C-17.85497293 58.15003519 -20.64515793 60.35681478 -23.4375 62.5625 C-28.85818028 66.83428998 -34.29946659 71.07887527 -39.75 75.3125 C-45.09490823 79.46460372 -50.4323819 83.62549696 -55.75 87.8125 C-61.83970936 92.60743471 -67.95720917 97.36608699 -74.078125 102.12109375 C-78.64613978 105.67140456 -83.20448382 109.23343702 -87.75 112.8125 C-93.83359588 117.60262105 -99.94355781 122.3583244 -106.06054688 127.10571289 C-110.2183153 130.33474113 -114.36072127 133.58148783 -118.48510742 136.85302734 C-133.92502676 149.07424998 -147.18007055 157.63313021 -167.33203125 157.61328125 C-168.30863205 157.61756638 -169.28523285 157.6218515 -170.29142761 157.62626648 C-172.33937814 157.63197262 -174.38734891 157.63253771 -176.43530273 157.62817383 C-179.57114717 157.62499122 -182.7060672 157.64859727 -185.84179688 157.67382812 C-187.83854048 157.67609921 -189.83528661 157.6768055 -191.83203125 157.67578125 C-192.76747269 157.684991 -193.70291412 157.69420074 -194.66670227 157.70368958 C-201.07665883 157.65788063 -201.07665883 157.65788063 -204.30737305 156.00073242 C-206.68023755 153.22389065 -206.75 150.89280024 -206.75 147.3125 C-204.98358828 144.51060554 -203.71950178 142.79725089 -200.75 141.3125 C-197.75686826 141.20341648 -194.78292672 141.15103691 -191.7890625 141.13671875 C-189.93618693 141.11349075 -188.08332235 141.08937228 -186.23046875 141.06445312 C-183.31682302 141.02957523 -180.40357355 141.00013298 -177.48974609 140.98657227 C-158.31442499 141.0200383 -158.31442499 141.0200383 -141.375 132.75 C-140.47136719 132.05003906 -139.56773437 131.35007812 -138.63671875 130.62890625 C-137.68410156 129.86449219 -136.73148437 129.10007812 -135.75 128.3125 C-134.69525617 127.48668767 -133.63921814 126.66252621 -132.58203125 125.83984375 C-130.25462045 124.02446333 -127.93533654 122.19932234 -125.62109375 120.3671875 C-121.3504989 116.99012909 -117.05065006 113.65114463 -112.75 110.3125 C-107.40497106 106.16055287 -102.06761704 101.9995022 -96.75 97.8125 C-90.66029064 93.01756529 -84.54279083 88.25891301 -78.421875 83.50390625 C-73.85386022 79.95359544 -69.29551618 76.39156298 -64.75 72.8125 C-59.43238137 68.62549655 -54.09484789 64.46468198 -48.75 60.3125 C-42.76028834 55.65880929 -36.77624034 50.99836103 -30.82104492 46.30053711 C-27.85299436 43.95953337 -24.87445204 41.63388243 -21.87890625 39.328125 C-21.24049805 38.83401123 -20.60208984 38.33989746 -19.94433594 37.83081055 C-18.72557496 36.88796263 -17.50375017 35.94905647 -16.27832031 35.01489258 C-12.24795414 31.88692658 -9.37517533 29.36664752 -7.875 24.4375 C-7.71518373 20.44209324 -8.52083709 18.62029013 -10.75 15.3125 C-13.39778612 12.74171786 -13.39778612 12.74171786 -16.75 11.3125 C-21.79860095 11.63111 -25.30737981 12.83832153 -29.64453125 15.3828125 C-31.30476318 16.34489624 -31.30476318 16.34489624 -32.99853516 17.32641602 C-34.1866167 18.02995321 -35.37460247 18.73365215 -36.5625 19.4375 C-37.80973359 20.16509738 -39.0576295 20.8915605 -40.30615234 21.61694336 C-42.87324955 23.11033122 -45.43678077 24.60957231 -47.99755859 26.11376953 C-52.54403333 28.78205142 -57.11309367 31.41067453 -61.68286133 34.03881836 C-64.89503102 35.88652224 -68.10416735 37.7393926 -71.3125 39.59375 C-75.64408507 42.0967949 -79.97744603 44.59671773 -84.3125 47.09375 C-85.39837402 47.71942871 -86.48424805 48.34510742 -87.60302734 48.98974609 C-89.76461 50.23521254 -91.92639021 51.48033619 -94.08837891 52.72509766 C-99.62245445 55.91552809 -105.14425233 59.12546807 -110.6484375 62.3671875 C-111.75687012 63.01872803 -112.86530273 63.67026855 -114.00732422 64.34155273 C-116.12837494 65.5898778 -118.24728476 66.84184949 -120.36376953 68.09790039 C-121.77698486 68.92922485 -121.77698486 68.92922485 -123.21875 69.77734375 C-124.04826172 70.268396 -124.87777344 70.75944824 -125.73242188 71.26538086 C-127.75 72.3125 -127.75 72.3125 -129.75 72.3125 C-130.0903125 73.364375 -130.0903125 73.364375 -130.4375 74.4375 C-133.72188134 81.63185913 -138.68824163 85.1416568 -145.75 88.3125 C-148.54516051 89.13612569 -151.04656159 89.44240067 -153.95579529 89.45967102 C-154.7870694 89.46682632 -155.61834351 89.47398163 -156.47480774 89.48135376 C-157.37829453 89.48404266 -158.28178131 89.48673157 -159.21264648 89.48950195 C-160.17080261 89.49607315 -161.12895874 89.50264435 -162.1161499 89.50941467 C-165.28446533 89.52911421 -168.45273351 89.54080058 -171.62109375 89.55078125 C-172.70340837 89.55485678 -173.785723 89.5589323 -174.90083504 89.56313133 C-180.62537571 89.58397411 -186.3498925 89.59828568 -192.07446289 89.60766602 C-197.99067764 89.61874888 -203.90651818 89.65317573 -209.82260036 89.69283772 C-214.37019053 89.71895348 -218.91769064 89.7273532 -223.4653492 89.73094749 C-225.64666342 89.73582359 -227.82797335 89.74746652 -230.0092144 89.76598549 C-233.05910057 89.79027752 -236.10800613 89.78943034 -239.15795898 89.7824707 C-240.05942154 89.79528076 -240.96088409 89.80809082 -241.8896637 89.82128906 C-246.05186381 89.78663882 -248.20045613 89.65448353 -251.81019592 87.40812683 C-253.90273629 85.14749453 -254.41300172 84.3393754 -254.3125 81.3125 C-254.31378906 80.6525 -254.31507813 79.9925 -254.31640625 79.3125 C-253.45252737 76.26211389 -252.30382885 75.22204004 -249.75 73.3125 C-246.63625081 72.71330755 -243.55756557 72.77968571 -240.39501953 72.81420898 C-239.44822327 72.80869019 -238.501427 72.80317139 -237.52593994 72.79748535 C-235.47107136 72.78816271 -233.416145 72.78806235 -231.3612709 72.79607964 C-228.10773065 72.80869097 -224.85504112 72.79743619 -221.60153198 72.78004456 C-215.86630263 72.75331131 -210.13128102 72.74774996 -204.39599609 72.74914551 C-195.2229933 72.75137166 -186.0502481 72.73725501 -176.87734604 72.69355965 C-173.67436963 72.6837214 -170.47179745 72.69243971 -167.26882935 72.70225525 C-165.30047339 72.69611003 -163.33211962 72.68919796 -161.36376953 72.68139648 C-160.47525299 72.68911575 -159.58673645 72.69683502 -158.67129517 72.70478821 C-153.61478623 72.66347364 -150.13712433 72.11296808 -145.75 69.3125 C-143.11520936 65.9591301 -143.32330525 62.43721594 -143.75 58.3125 C-145.86770754 54.30398216 -147.52416488 51.95527502 -151.75 50.3125 C-154.10999995 50.05452385 -154.10999995 50.05452385 -156.65673828 50.15234375 C-157.63447708 50.16433304 -158.61221588 50.17632233 -159.61958313 50.18867493 C-161.20394417 50.21903084 -161.20394417 50.21903084 -162.8203125 50.25 C-165.09022783 50.26671963 -167.36017183 50.27985022 -169.63012695 50.28979492 C-171.40741684 50.29805801 -171.40741684 50.29805801 -173.22061157 50.30648804 C-193.51079389 50.33986813 -210.0643608 49.84382898 -228.33398438 40.46289062 C-236.63568253 36.51002061 -246.61355383 34.74670734 -255.75 34.3125 C-256.39066406 34.2609375 -257.03132812 34.209375 -257.69140625 34.15625 C-280.37583239 33.12318315 -300.5223916 43.85955869 -316.9375 58.625 C-325.65219925 66.73156449 -334.78798202 76.42113924 -339.75 87.3125 C-338.64588316 97.23909655 -324.64265225 108.79309482 -318 116 C-317.47088516 116.57615932 -316.94177032 117.15231865 -316.3966217 117.74593735 C-302.37929156 132.86509548 -290.0510932 142.9380802 -268.90106201 143.85145569 C-258.41502146 144.09967001 -247.75050987 143.34895258 -237.3651123 141.95767212 C-229.42123988 140.93932137 -229.42123988 140.93932137 -225.55175781 143.09057617 C-223.47023319 145.65750783 -222.83050336 147.01186219 -222.75 150.3125 C-223.81399073 154.12513347 -224.3751651 155.06261007 -227.75 157.3125 C-229.78117371 157.5909729 -229.78117371 157.5909729 -232.12963867 157.63134766 C-233.45066841 157.66115219 -233.45066841 157.66115219 -234.79838562 157.69155884 C-236.21882927 157.70888565 -236.21882927 157.70888565 -237.66796875 157.7265625 C-238.64034988 157.74592865 -239.61273102 157.7652948 -240.61457825 157.7852478 C-243.72212944 157.8450555 -246.82971765 157.8914339 -249.9375 157.9375 C-252.043636 157.97567867 -254.14975637 158.01473033 -256.25585938 158.0546875 C-261.42044605 158.15075811 -266.58510582 158.23478491 -271.75 158.3125 C-271.29560547 158.73023682 -270.84121094 159.14797363 -270.37304688 159.57836914 C-268.313611 161.49179629 -266.28211117 163.43259464 -264.25 165.375 C-263.53457031 166.03177734 -262.81914062 166.68855469 -262.08203125 167.36523438 C-256.87873296 172.39508939 -256.87873296 172.39508939 -256.20751953 177.1784668 C-256.78312419 180.50386599 -257.29808013 181.74982603 -259.625 184.125 C-260.25277344 184.78113281 -260.88054687 185.43726563 -261.52734375 186.11328125 C-262.26082031 186.83902344 -262.99429688 187.56476563 -263.75 188.3125 C-264.63816406 189.21355469 -265.52632812 190.11460937 -266.44140625 191.04296875 C-268.8612201 193.48343535 -271.29776708 195.90467371 -273.75 198.3125 C-269.43938737 203.53061003 -264.83567044 208.13299682 -259.82421875 212.6875 C-257.09644273 216.13960072 -256.47413217 217.89861477 -256.75 222.3125 C-257.96661377 224.07214355 -257.96661377 224.07214355 -259.66503906 225.91992188 C-260.30588943 226.62084961 -260.94673981 227.32177734 -261.60700989 228.04394531 C-262.31419662 228.79256836 -263.02138336 229.54119141 -263.75 230.3125 C-264.47607956 231.08174805 -265.20215912 231.85099609 -265.95024109 232.64355469 C-270.69465542 237.61194943 -275.51173106 242.50990902 -280.33878231 247.39791107 C-282.76668073 249.85651397 -285.18588285 252.32250851 -287.58666992 254.80761719 C-290.37780417 257.69643115 -293.20096468 260.55190474 -296.02734375 263.40625 C-296.88279282 264.29985229 -297.73824188 265.19345459 -298.61961365 266.11413574 C-305.38357302 272.85639346 -305.38357302 272.85639346 -309.85766602 273.30664062 C-318.01659639 271.99672078 -324.94144757 262.26959036 -330.52099609 256.68676758 C-331.35775879 255.85336349 -332.19452148 255.01995941 -333.05664062 254.16130066 C-335.798206 251.42916955 -338.53604605 248.69334389 -341.2734375 245.95703125 C-342.22180462 245.01008942 -343.17025719 244.06323316 -344.11879349 243.1164608 C-349.07731851 238.16715029 -354.03329181 233.21530141 -358.98681641 228.26098633 C-363.59709809 223.65010174 -368.21295383 219.04484931 -372.83140123 214.44214517 C-376.80795478 210.4786627 -380.78064802 206.51133895 -384.75035155 202.54099578 C-387.11666434 200.17442829 -389.48493722 197.80991427 -391.85621262 195.44831276 C-394.49402335 192.82026616 -397.12546246 190.1859998 -399.75537109 187.55004883 C-400.5397757 186.77126373 -401.3241803 185.99247864 -402.13235474 185.19009399 C-402.84716003 184.47109421 -403.56196533 183.75209442 -404.2984314 183.01130676 C-404.92039083 182.38989209 -405.54235027 181.76847742 -406.18315697 181.128232 C-408.97917391 177.88807499 -409.79042186 176.0805154 -409.5625 171.75 C-408.75 168.3125 -408.75 168.3125 -407.6875 166.375 C-404.27298286 164.50252286 -401.41469769 164.26592634 -397.75 165.3125 C-395.66239929 166.82591248 -395.66239929 166.82591248 -393.4206543 168.91967773 C-392.10235123 170.15087845 -392.10235123 170.15087845 -390.75741577 171.4069519 C-384.618867 177.30633248 -378.59695126 183.32276863 -372.58203125 189.34765625 C-371.13350227 190.79551 -369.68482501 192.24321542 -368.23600769 193.69078064 C-365.21634098 196.70898162 -362.19846834 199.72896177 -359.18188477 202.75024414 C-355.33229676 206.60553901 -351.47822179 210.45631214 -347.62279224 214.3057642 C-344.63628118 217.28864791 -341.65217293 220.27392628 -338.66876793 223.25991631 C-337.24905278 224.68029418 -335.82860651 226.09994169 -334.40738869 227.51881599 C-320.8573271 241.05142233 -320.8573271 241.05142233 -316.25028992 246.69578552 C-314.3024169 248.79481617 -311.98608692 250.52363046 -309.75 252.3125 C-299.19 241.7525 -288.63 231.1925 -277.75 220.3125 C-281.5117582 215.92378209 -285.11991097 211.81821774 -289.17904663 207.76319885 C-289.69053367 207.25085739 -290.20202071 206.73851592 -290.72900736 206.21064895 C-292.42163424 204.51639174 -294.11777898 202.82570334 -295.81396484 201.13500977 C-297.03672415 199.91253288 -298.25926261 198.68983506 -299.4815979 197.4669342 C-302.78468749 194.16355881 -306.09084166 190.8632663 -309.39757109 187.56353498 C-312.85869191 184.1086838 -316.31696341 180.65098285 -319.77554321 177.19358826 C-326.31820926 170.65402489 -332.86341929 164.1170139 -339.40955603 157.58092493 C-346.86498019 150.13669495 -354.31755032 142.68961055 -361.76988673 135.24228966 C-377.09342639 119.92919033 -392.42053152 104.61966402 -407.75 89.3125 C-408.85333701 90.24927845 -409.95538255 91.18757808 -411.05690002 92.12649536 C-411.67074334 92.64884325 -412.28458666 93.17119114 -412.91703129 93.70936775 C-415.70005538 96.14342767 -418.30219913 98.74076585 -420.90234375 101.3671875 C-421.44734024 101.91359894 -421.99233673 102.46001038 -422.55384827 103.02297974 C-424.26746118 104.74212058 -425.97753444 106.46473204 -427.6875 108.1875 C-428.85979204 109.36481638 -430.03231614 110.54190174 -431.20507812 111.71875 C-434.05606982 114.58067489 -436.90389615 117.44571457 -439.75 120.3125 C-438.2494769 123.84573172 -436.212001 126.05786516 -433.46875 128.71875 C-432.62699219 129.54503906 -431.78523438 130.37132812 -430.91796875 131.22265625 C-429.59732422 132.50462891 -429.59732422 132.50462891 -428.25 133.8125 C-426.50577577 135.50564885 -424.76599179 137.20338708 -423.03125 138.90625 C-422.25845703 139.65583984 -421.48566406 140.40542969 -420.68945312 141.17773438 C-418.84814876 143.20446717 -417.69616201 144.75606769 -416.75 147.3125 C-416.92642395 150.66455511 -417.18730713 153.28641301 -418.8125 156.25 C-422.12898132 158.06871556 -425.16350675 158.19259851 -428.75 157.3125 C-430.50146484 156.13549805 -430.50146484 156.13549805 -432.2734375 154.51171875 C-433.31165649 153.56039062 -433.31165649 153.56039062 -434.37084961 152.58984375 C-438.67624635 148.46867999 -442.91980734 144.29034 -447.12524414 140.06762695 C-448.70539644 138.48204204 -450.29091976 136.90196558 -451.87695312 135.32226562 C-452.88573806 134.31282108 -453.89421338 133.30306701 -454.90234375 132.29296875 C-455.80976318 131.38442139 -456.71718262 130.47587402 -457.65209961 129.53979492 C-460.53588629 126.47814173 -461.49162732 124.00575807 -461.41409302 119.71871948 C-459.86227701 114.09599825 -454.57249257 110.04713691 -450.49609375 106.06640625 C-449.43537546 105.00537774 -448.37599243 103.94301282 -447.31788635 102.87937927 C-445.0999366 100.65866594 -442.86873687 98.4524986 -440.62670898 96.25610352 C-437.76012053 93.44628725 -434.92573473 90.6064201 -432.10018826 87.75540257 C-429.91771457 85.55898799 -427.72069944 83.37760823 -425.51887703 81.20060539 C-424.4682427 80.15897384 -423.42172177 79.11317568 -422.37951469 78.06311226 C-420.91749695 76.59524212 -419.437431 75.1483371 -417.95092773 73.70532227 C-416.69517189 72.46577538 -416.69517189 72.46577538 -415.41404724 71.20118713 C-412.12133236 68.86680352 -409.7558267 68.45991977 -405.75 68.3125 C-401.27779277 70.68550792 -397.62316495 74.07859529 -393.75 77.3125 C-393.30197021 76.83304932 -392.85394043 76.35359863 -392.39233398 75.85961914 C-390.34016987 73.68221674 -388.26442774 71.52878321 -386.1875 69.375 C-385.48302734 68.62025391 -384.77855469 67.86550781 -384.05273438 67.08789062 C-380.73607393 63.67952529 -378.56843022 61.56841781 -373.96484375 60.12890625 C-370.39068777 60.33301965 -369.36395374 60.69854626 -366.875 63.1875 C-366.21757812 63.82558594 -365.56015625 64.46367187 -364.8828125 65.12109375 C-364.17898438 65.84425781 -363.47515625 66.56742187 -362.75 67.3125 C-361.92242187 68.12847656 -361.09484375 68.94445312 -360.2421875 69.78515625 C-358.05972432 71.94367391 -355.89799124 74.11975894 -353.75 76.3125 C-353.01136719 75.29671875 -352.27273438 74.2809375 -351.51171875 73.234375 C-331.84523758 46.43932553 -307.81282998 23.50046842 -273.75 18.0625 C-258.43145953 16.16462773 -244.21177014 17.89933123 -229.4375 22 C-228.2309375 22.32895264 -228.2309375 22.32895264 -227 22.66455078 C-222.88531646 23.85874563 -219.09603349 25.14045993 -215.24682617 27.05419922 C-202.0095417 33.58899094 -189.21546409 33.22717341 -174.6875 33.0625 C-171.10339873 33.04366554 -167.5198283 33.03503309 -163.9356842 33.04278564 C-161.72408113 33.04543914 -159.51237837 33.03203269 -157.30101013 32.99969482 C-147.32294713 32.97191567 -141.02383934 35.36313403 -133.671875 42.24609375 C-130.9254724 45.19903475 -128.75 48.17556487 -128.75 52.3125 C-120.84464461 48.46868294 -113.18491929 44.35712732 -105.625 39.875 C-103.51597714 38.63481764 -101.40658939 37.39525562 -99.296875 36.15625 C-98.21857422 35.52203125 -97.14027344 34.8878125 -96.02929688 34.234375 C-90.66005208 31.08765858 -85.26788065 27.98097977 -79.875 24.875 C-78.80749512 24.25963379 -77.73999023 23.64426758 -76.64013672 23.01025391 C-72.17196532 20.43491003 -67.70296571 17.86100634 -63.23339844 15.28808594 C-60.87653709 13.93134742 -58.51993076 12.57416779 -56.16357422 11.21655273 C-53.95993131 9.94703881 -51.75586045 8.67826732 -49.55126953 7.41040039 C-43.94211393 4.17856094 -38.36999322 0.89978047 -32.85131836 -2.48461914 C-22.01002728 -8.69061904 -10.11603923 -6.20756953 0 0 Z M-375.81640625 82.28125 C-376.64011719 83.1165625 -377.46382813 83.951875 -378.3125 84.8125 C-379.13878906 85.6478125 -379.96507812 86.483125 -380.81640625 87.34375 C-381.77353516 88.31828125 -381.77353516 88.31828125 -382.75 89.3125 C-378.04596268 94.96638366 -373.01744481 100.18142527 -367.80712891 105.36889648 C-366.9284314 106.24774002 -366.04973389 107.12658356 -365.14440918 108.03205872 C-362.75407883 110.42181511 -360.36156392 112.8093428 -357.96801805 115.19587588 C-355.45981475 117.69779346 -352.95447611 120.20257639 -350.44882202 122.70704651 C-345.71237186 127.44039866 -340.97338023 132.17119768 -336.2334522 136.90106684 C-330.83360458 142.28970561 -325.43662373 147.68121174 -320.03987241 153.0729512 C-308.94641732 164.15597658 -297.8493981 175.23542622 -286.75 186.3125 C-283.8090231 184.90571502 -281.76051716 183.55076794 -279.5 181.1875 C-278.5925 180.23875 -277.685 179.29 -276.75 178.3125 C-278.1968965 174.99699122 -280.00071967 172.81252772 -282.55238342 170.26287842 C-283.34461807 169.46644928 -284.13685272 168.67002014 -284.95309448 167.84945679 C-285.82330231 166.98486847 -286.69351013 166.12028015 -287.59008789 165.22949219 C-288.50560928 164.31207245 -289.42113068 163.39465271 -290.36439514 162.44943237 C-292.87209718 159.93688825 -295.38599587 157.43062983 -297.901191 154.92558956 C-300.53054753 152.30501842 -303.1546288 149.67917476 -305.77940369 147.05401611 C-310.18522649 142.64912937 -314.59490319 138.24813102 -319.00708008 133.84960938 C-324.11485003 128.75758868 -329.21735049 123.6603362 -334.31688505 118.56006885 C-339.21811983 113.65822481 -344.12220034 108.75923885 -349.02789116 103.86185455 C-351.11837625 101.77490819 -353.20800247 99.68710732 -355.29698372 97.5986557 C-358.20809423 94.68873161 -361.12343549 91.78308338 -364.03930664 88.87792969 C-364.9115387 88.00524445 -365.78377075 87.1325592 -366.68243408 86.23342896 C-367.47184891 85.44827911 -368.26126373 84.66312927 -369.07460022 83.85418701 C-369.76426911 83.16619396 -370.45393801 82.47820091 -371.16450596 81.76935959 C-373.56061789 79.56764924 -373.35198047 79.93329046 -375.81640625 82.28125 Z " fill="#000000" transform="translate(481.75,239.6875)"/>
<path d="M0 0 C1.64343384 0.01353516 1.64343384 0.01353516 3.32006836 0.02734375 C11.73687726 0.20704877 18.80853922 1.12512226 26.625 4.4375 C27.26195801 4.70062988 27.89891602 4.96375977 28.55517578 5.23486328 C41.90690593 10.87495584 51.58416875 19.13646093 60.625 30.4375 C63.87881474 27.31807323 63.87881474 27.31807323 66.80078125 23.8984375 C76.77249565 10.87037719 93.69817439 2.90735991 109.625 0.4375 C131.32365676 -1.31348997 150.98606913 1.9895215 168.5 15.8125 C183.25775978 28.66882074 193.58787812 45.69502248 195.625 65.4375 C196.88643179 86.52775429 191.77691464 104.79927098 178.625 121.4375 C174.99328844 125.4726028 171.17736831 129.30711527 167.33129883 133.13525391 C166.21448355 134.25778634 165.09829585 135.38094344 163.98268127 136.50466919 C160.98167746 139.52345511 157.97136169 142.53278218 154.95858979 145.53981829 C152.4379561 148.05734332 149.92195384 150.57947223 147.40588683 153.10156 C141.4740871 159.04734936 135.5345967 164.98537599 129.59008789 170.91845703 C123.46155824 177.03546528 117.34599623 183.16522318 111.2366026 189.30133879 C105.97825289 194.58182321 100.71220313 199.85453902 95.43983668 205.1210283 C92.29595848 208.26153593 89.15504826 211.40487127 86.02146339 214.55565262 C83.08117291 217.51137821 80.13138587 220.45728183 77.17395592 223.39585495 C76.09052957 224.47558829 75.01050585 225.55874822 73.93415833 226.64553833 C72.46526882 228.12758798 70.98461561 229.59678806 69.50032043 231.06338501 C68.67464475 231.88885141 67.84896906 232.71431782 66.9982729 233.56479836 C64.41775486 235.60103295 62.88601309 236.24111645 59.625 236.4375 C53.41469547 233.34467421 48.76323212 227.86359309 43.921875 223 C43.00287415 222.0829126 42.08387329 221.1658252 41.13702393 220.22094727 C39.20071433 218.28757305 37.26803505 216.35066135 35.33789062 214.41113281 C32.86770998 211.92952653 30.38861443 209.45705125 27.90674973 206.98713684 C25.53192014 204.62127865 23.16474658 202.24782234 20.796875 199.875 C19.46254425 198.54674194 19.46254425 198.54674194 18.10125732 197.19165039 C17.27990295 196.3639917 16.45854858 195.53633301 15.61230469 194.68359375 C14.88871765 193.95841553 14.16513062 193.2332373 13.4196167 192.48608398 C10.49759896 189.15055348 9.59271117 187.35773179 9.75 182.875 C10.625 179.4375 10.625 179.4375 12.25 177.5 C15.7685579 175.92590831 17.76893628 175.88639098 21.625 176.4375 C24.81230738 178.6644187 27.37832082 181.42459888 30.04296875 184.2421875 C30.82263504 185.03650177 31.60230133 185.83081604 32.40559387 186.64920044 C34.89164604 189.18761792 37.35272089 191.7486376 39.8125 194.3125 C42.28715086 196.86476152 44.76672368 199.41201221 47.25154114 201.95437622 C48.79546515 203.5369216 50.33274413 205.12598308 51.8625946 206.72213745 C52.90937126 207.80303146 52.90937126 207.80303146 53.97729492 208.90576172 C54.58683517 209.54085663 55.19637543 210.17595154 55.8243866 210.83029175 C57.66854562 212.47636835 59.40662559 213.38024008 61.625 214.4375 C75.19559345 201.00752144 88.74862851 187.56005954 102.28140259 174.09197044 C108.56633969 167.83787575 114.85673906 161.58947179 121.16064453 155.35449219 C126.65977426 149.91546017 132.14801456 144.46570432 137.62383175 139.00319922 C140.51943283 136.11537074 143.41994274 133.23292451 146.33358765 130.36329269 C149.08504105 127.65306172 151.82153656 124.92853387 154.54798698 122.1931591 C155.54237225 121.20040257 156.54177385 120.21263642 157.54693794 119.23079491 C170.4648156 106.59769619 178.45928516 91.56360262 179.0625 73.25 C178.38179248 57.02281098 171.93198715 43.01892858 160.625 31.4375 C146.8766022 19.66904946 131.59358092 16.44862507 114.02197266 17.24658203 C100.46556554 18.32634475 88.1668103 25.88008292 78.94921875 35.54296875 C75.48825138 39.85318189 72.90446519 44.46239019 70.31640625 49.3359375 C66.62070415 56.11281386 66.62070415 56.11281386 62.75 57.375 C58.90581922 57.45188362 57.67818573 56.7379743 54.625 54.4375 C52.73828125 51.46875 52.73828125 51.46875 50.9375 47.9375 C43.25334447 33.71544419 32.43817648 24.41814267 17.1328125 19.1640625 C2.97894633 15.06340969 -12.84326607 16.48050363 -26.10546875 22.72265625 C-41.02309162 31.02564324 -50.26942898 43.34018311 -55.375 59.4375 C-59.18405399 73.92636994 -56.10956006 89.34219162 -49.23057556 102.29949951 C-43.82381518 111.44297881 -36.13187542 118.91852726 -28.52734375 126.234375 C-26.68744242 128.03443223 -24.84827006 129.83523482 -23.00976562 131.63671875 C-20.14672198 134.4313654 -17.27972413 137.22152326 -14.39770508 139.99658203 C-11.58885343 142.70273348 -8.80814906 145.43690463 -6.02734375 148.171875 C-4.72445656 149.41115753 -4.72445656 149.41115753 -3.39524841 150.67547607 C2.48001512 156.49891674 2.48001512 156.49891674 3.23217773 161.36816406 C2.5702327 164.71435346 2.24423378 166.24072328 -0.375 168.4375 C-4.10642089 169.4740058 -6.30487619 169.9767149 -9.82058716 168.20521545 C-12.44644499 166.38805834 -14.60654319 164.46669604 -16.87060547 162.21655273 C-17.72854706 161.36814316 -18.58648865 160.51973358 -19.47042847 159.64561462 C-20.84244919 158.27222679 -20.84244919 158.27222679 -22.2421875 156.87109375 C-23.20454604 155.91262921 -24.1671252 154.95438616 -25.12991333 153.99635315 C-27.14553005 151.98818356 -29.15724769 149.97620263 -31.16650391 147.96166992 C-33.71862726 145.40378306 -36.28186503 142.85737675 -38.84847832 140.31404018 C-40.84086638 138.33652743 -42.82613159 136.35197691 -44.80954361 134.36546516 C-46.20252546 132.9732344 -47.60201228 131.58752166 -49.00167847 130.20201111 C-64.67978112 114.41091328 -73.70049356 96.22462795 -73.8125 73.8125 C-73.56944431 55.19923548 -68.07743119 38.38579864 -55.375 24.4375 C-54.69824219 23.68082031 -54.02148438 22.92414062 -53.32421875 22.14453125 C-39.27910636 7.25122379 -20.29443033 -0.20182481 0 0 Z " fill="#000000" transform="translate(251.375,-0.4375)"/>
<path d="M0 0 C1.24033241 -0.00361794 1.24033241 -0.00361794 2.50572205 -0.00730896 C4.24808565 -0.0063323 5.99048098 0.00701814 7.73266602 0.03198242 C10.39771901 0.06634662 13.05946416 0.05262086 15.72460938 0.03320312 C17.42058701 0.04010056 19.1165561 0.04977202 20.8125 0.0625 C21.6073732 0.05754013 22.4022464 0.05258026 23.22120667 0.04747009 C26.66333737 0.12070295 28.93907118 0.36660012 31.84838867 2.27075195 C33.79090007 5.34207583 33.79878985 7.3047628 33.73046875 10.92578125 C33.71757812 12.13105469 33.7046875 13.33632812 33.69140625 14.578125 C33.65789062 15.83238281 33.624375 17.08664063 33.58984375 18.37890625 C33.57179688 19.64863281 33.55375 20.91835937 33.53515625 22.2265625 C33.48801528 25.36143702 33.42222039 28.49479185 33.33984375 31.62890625 C34.10651367 31.61843262 34.87318359 31.60795898 35.66308594 31.59716797 C39.13863849 31.55557926 42.61413866 31.52957074 46.08984375 31.50390625 C47.29640625 31.48714844 48.50296875 31.47039062 49.74609375 31.453125 C50.90625 31.44667969 52.06640625 31.44023438 53.26171875 31.43359375 C54.3300293 31.42312012 55.39833984 31.41264648 56.49902344 31.40185547 C59.42551499 31.63575347 60.99196167 31.87949103 63.33984375 33.62890625 C65.67358297 37.68645641 65.64654952 41.81421289 65.640625 46.37890625 C65.64491013 47.11463867 65.64919525 47.85037109 65.65361023 48.60839844 C65.65933278 50.15819269 65.65986913 51.70801379 65.65551758 53.2578125 C65.65235358 55.62156113 65.67585467 57.98406174 65.70117188 60.34765625 C65.70344479 61.85807135 65.7041484 63.36848979 65.703125 64.87890625 C65.71233475 65.58112305 65.72154449 66.28333984 65.73103333 67.00683594 C65.69001618 71.38058326 65.02267706 74.14935771 62.33984375 77.62890625 C59.57366812 79.01199406 57.32966375 78.74100821 54.23828125 78.7265625 C53.0265625 78.72333984 51.81484375 78.72011719 50.56640625 78.71679688 C49.29539062 78.70841797 48.024375 78.70003906 46.71484375 78.69140625 C45.43609375 78.68689453 44.15734375 78.68238281 42.83984375 78.67773438 C39.67313083 78.66591828 36.50651019 78.6494444 33.33984375 78.62890625 C33.3555542 79.42586914 33.37126465 80.22283203 33.38745117 81.04394531 C33.44981964 84.65552675 33.48884114 88.26699486 33.52734375 91.87890625 C33.55248047 93.13316406 33.57761719 94.38742188 33.60351562 95.6796875 C33.61318359 96.88496094 33.62285156 98.09023437 33.6328125 99.33203125 C33.64852295 100.44223633 33.6642334 101.55244141 33.68041992 102.69628906 C33.29698312 105.99796857 32.71985507 107.33512965 30.33984375 109.62890625 C25.07776763 111.8697088 18.30089008 110.8148324 12.64086914 110.81420898 C10.41337983 110.81639542 8.18638617 110.83457053 5.95898438 110.85351562 C4.53515793 110.85645003 3.11132915 110.85843451 1.6875 110.859375 C-0.2459729 110.86553833 -0.2459729 110.86553833 -2.21850586 110.87182617 C-6.55506972 110.56574112 -9.30746875 109.94459685 -12.4543457 106.88378906 C-14.02268021 103.9509813 -14.00190855 101.8680624 -13.953125 98.55078125 C-13.94345703 97.390625 -13.93378906 96.23046875 -13.92382812 95.03515625 C-13.89869141 93.82859375 -13.87355469 92.62203125 -13.84765625 91.37890625 C-13.83412109 90.156875 -13.82058594 88.93484375 -13.80664062 87.67578125 C-13.77129605 84.65971127 -13.72195185 81.64453138 -13.66015625 78.62890625 C-14.85560059 78.66032715 -14.85560059 78.66032715 -16.07519531 78.69238281 C-19.68672059 78.77553947 -23.29804449 78.82756659 -26.91015625 78.87890625 C-28.16441406 78.91242188 -29.41867187 78.9459375 -30.7109375 78.98046875 C-32.51884766 78.99980469 -32.51884766 78.99980469 -34.36328125 79.01953125 C-35.47348633 79.04047852 -36.58369141 79.06142578 -37.72753906 79.08300781 C-40.66015625 78.62890625 -40.66015625 78.62890625 -43.01831055 77.13745117 C-45.35162954 73.57241732 -45.25230352 70.22684245 -45.2265625 66.1015625 C-45.23276108 65.27563095 -45.23895966 64.4496994 -45.24534607 63.59873962 C-45.25243914 61.85465675 -45.24927908 60.11050609 -45.23657227 58.36645508 C-45.22271821 55.70331624 -45.25676523 53.04370079 -45.29492188 50.38085938 C-45.29587325 48.68359289 -45.29401325 46.98632203 -45.2890625 45.2890625 C-45.30232071 44.49621353 -45.31557892 43.70336456 -45.32923889 42.88648987 C-45.26066171 38.79640788 -44.95527365 37.04153525 -42.50683594 33.61816406 C-39.15863252 31.27844181 -37.52929255 31.04099649 -33.484375 31.140625 C-32.32744141 31.15673828 -31.17050781 31.17285156 -29.97851562 31.18945312 C-28.78033203 31.23134766 -27.58214844 31.27324219 -26.34765625 31.31640625 C-25.13013672 31.33896484 -23.91261719 31.36152344 -22.65820312 31.38476562 C-19.65760143 31.44360095 -16.65950828 31.52576485 -13.66015625 31.62890625 C-13.68634033 30.86747314 -13.71252441 30.10604004 -13.73950195 29.3215332 C-13.8436264 25.8617019 -13.90853354 22.4022004 -13.97265625 18.94140625 C-14.01455078 17.74322266 -14.05644531 16.54503906 -14.09960938 15.31054688 C-14.11572266 14.15361328 -14.13183594 12.99667969 -14.1484375 11.8046875 C-14.17462158 10.74161377 -14.20080566 9.67854004 -14.2277832 8.58325195 C-12.68991327 0.57905238 -6.92021126 -0.11572142 0 0 Z M2.33984375 16.62890625 C2.30246094 18.54316406 2.26507813 20.45742187 2.2265625 22.4296875 C2.16091649 24.9336138 2.09446869 27.43751916 2.02734375 29.94140625 C2.00478516 31.20404297 1.98222656 32.46667969 1.95898438 33.76757812 C1.92353516 34.97607422 1.88808594 36.18457031 1.8515625 37.4296875 C1.82537842 38.54512939 1.79919434 39.66057129 1.7722168 40.80981445 C1.33984375 43.62890625 1.33984375 43.62890625 0.1953125 45.484375 C-2.50009608 47.1470165 -4.70825539 47.06665506 -7.859375 47.140625 C-9.06787109 47.17607422 -10.27636719 47.21152344 -11.52148438 47.24804688 C-13.41543945 47.28188477 -13.41543945 47.28188477 -15.34765625 47.31640625 C-16.62189453 47.35056641 -17.89613281 47.38472656 -19.20898438 47.41992188 C-22.35906268 47.5025082 -25.50959624 47.56738016 -28.66015625 47.62890625 C-28.66015625 52.57890625 -28.66015625 57.52890625 -28.66015625 62.62890625 C-26.901875 62.67789063 -25.14359375 62.726875 -23.33203125 62.77734375 C-21.02472371 62.85237814 -18.71743282 62.92792568 -16.41015625 63.00390625 C-15.25128906 63.03484375 -14.09242188 63.06578125 -12.8984375 63.09765625 C-11.22587891 63.15566406 -11.22587891 63.15566406 -9.51953125 63.21484375 C-8.49311523 63.24626465 -7.46669922 63.27768555 -6.40917969 63.31005859 C-3.65988458 63.62893776 -1.97073178 64.1317544 0.33984375 65.62890625 C1.70823738 68.3656935 1.55619193 70.67155049 1.65625 73.73046875 C1.69814453 74.9421875 1.74003906 76.15390625 1.78320312 77.40234375 C1.82251953 78.67335937 1.86183594 79.944375 1.90234375 81.25390625 C1.94552734 82.53265625 1.98871094 83.81140625 2.03320312 85.12890625 C2.13954185 88.29543707 2.24022045 91.46215704 2.33984375 94.62890625 C7.28984375 94.62890625 12.23984375 94.62890625 17.33984375 94.62890625 C17.35402344 92.81003906 17.36820312 90.99117188 17.3828125 89.1171875 C17.42971353 86.72523506 17.4779609 84.33330874 17.52734375 81.94140625 C17.53314453 80.74322266 17.53894531 79.54503906 17.54492188 78.31054688 C17.66717022 73.43419618 17.77612077 69.70510466 20.05859375 65.34765625 C25.37496251 62.56289166 30.74021397 62.84502872 36.65234375 62.81640625 C37.86986328 62.79126953 39.08738281 62.76613281 40.34179688 62.74023438 C43.34079894 62.68143041 46.34035638 62.65228992 49.33984375 62.62890625 C49.33984375 57.67890625 49.33984375 52.72890625 49.33984375 47.62890625 C47.42558594 47.57992187 45.51132812 47.5309375 43.5390625 47.48046875 C41.03514131 47.40544489 38.53123579 47.3298969 36.02734375 47.25390625 C34.76470703 47.22296875 33.50207031 47.19203125 32.20117188 47.16015625 C30.99267578 47.12148437 29.78417969 47.0828125 28.5390625 47.04296875 C27.42362061 47.01154785 26.30817871 46.98012695 25.15893555 46.94775391 C22.33984375 46.62890625 22.33984375 46.62890625 19.33984375 44.62890625 C18.30269853 41.51747058 18.13952514 39.13422529 18.0234375 35.8671875 C17.98154297 34.74892578 17.93964844 33.63066406 17.89648438 32.47851562 C17.85716797 31.31126953 17.81785156 30.14402344 17.77734375 28.94140625 C17.73416016 27.76255859 17.69097656 26.58371094 17.64648438 25.36914062 C17.54033281 22.45586999 17.43957746 19.54240365 17.33984375 16.62890625 C12.38984375 16.62890625 7.43984375 16.62890625 2.33984375 16.62890625 Z " fill="#000000" transform="translate(303.66015625,61.37109375)"/>
</svg>
