<?xml version="1.0" encoding="UTF-8"?>
<svg version="1.1" xmlns="http://www.w3.org/2000/svg" width="512" height="512">
<path d="M0 0 C0.70404968 -0.00099701 1.40809937 -0.00199402 2.13348389 -0.00302124 C3.61954054 0.00164465 5.10561524 0.02101197 6.59130859 0.05419922 C8.83969316 0.10115149 11.08328463 0.09534912 13.33203125 0.08203125 C24.38541039 0.12519771 32.53706057 2.00878489 40.81640625 9.66015625 C46.6226412 16.35187365 49.01103901 24.23482634 48.8828125 32.94140625 C48.01649953 41.76542269 44.15395778 48.84979429 37.609375 54.7265625 C28.72938059 61.83055803 18.93352939 62.07162209 7.921875 62.0390625 C6.26961914 62.06323242 6.26961914 62.06323242 4.58398438 62.08789062 C-5.80673752 62.09416143 -5.80673752 62.09416143 -10.390625 58.7265625 C-12.71694618 55.61593875 -12.60611598 52.77718365 -12.515625 48.9765625 C-12.49757812 47.99171875 -12.47953125 47.006875 -12.4609375 45.9921875 C-12.43773437 45.24453125 -12.41453125 44.496875 -12.390625 43.7265625 C-22.87666219 48.61831186 -28.53438979 54.32631672 -32.765625 65.2890625 C-34.39666964 74.25980804 -32.74719448 82.75491799 -31.203125 91.625 C-30.9782077 92.95004366 -30.754018 94.275211 -30.53051758 95.60049438 C-29.94501011 99.062565 -29.35115102 102.52314583 -28.75500488 105.98339844 C-27.79890202 111.54128681 -26.8554708 117.10133778 -25.91244507 122.66145706 C-25.58273013 124.59795294 -25.24903461 126.5337697 -24.9152832 128.46957397 C-24.71507568 129.64154327 -24.51486816 130.81351257 -24.30859375 132.02099609 C-24.13094482 133.05308197 -23.9532959 134.08516785 -23.77026367 135.14852905 C-23.390625 137.7265625 -23.390625 137.7265625 -23.390625 140.7265625 C-22.43800781 140.69175781 -21.48539063 140.65695313 -20.50390625 140.62109375 C-19.24964844 140.59402344 -17.99539062 140.56695312 -16.703125 140.5390625 C-15.46175781 140.50425781 -14.22039063 140.46945313 -12.94140625 140.43359375 C-9.06871995 140.75312232 -7.35633815 141.24907533 -4.390625 143.7265625 C-0.82539066 148.84427306 -1.00379011 153.7292146 -0.953125 159.7265625 C-0.42490055 177.18362607 4.83754026 191.50746181 17.03125 204.40625 C31.08763545 217.05699691 46.88255801 220.57022245 65.10058594 219.90136719 C79.2673552 218.91427038 93.2105696 211.24508117 102.609375 200.7265625 C110.55232954 190.43519961 116.55129356 178.83038377 116.8203125 165.6015625 C116.84867188 164.64765625 116.87703125 163.69375 116.90625 162.7109375 C116.95832838 160.72154322 117.00260126 158.73192927 117.0390625 156.7421875 C117.34167209 147.41172526 117.34167209 147.41172526 120.609375 143.7265625 C125.55616178 139.7327469 130.42758962 140.46912926 136.50073242 140.6394043 C137.52658447 140.6681665 138.55243652 140.69692871 139.609375 140.7265625 C139.70589355 139.85652588 139.80241211 138.98648926 139.90185547 138.09008789 C141.52525349 124.27005298 143.9323559 110.59202572 146.30126953 96.88354492 C146.84902744 93.70574004 147.38973371 90.52679504 147.9296875 87.34765625 C148.09840363 86.38403671 148.26711975 85.42041718 148.44094849 84.42759705 C150.44546053 72.5757866 149.56276468 62.86180506 142.42578125 52.7734375 C138.66327798 48.53354134 133.97017863 45.51349704 128.609375 43.7265625 C128.69638672 44.81324219 128.69638672 44.81324219 128.78515625 45.921875 C129.19981975 54.80752135 129.19981975 54.80752135 126.359375 58.3515625 C121.01526016 62.96693441 114.67640811 61.90999595 107.921875 61.9140625 C106.3450293 61.93243164 106.3450293 61.93243164 104.73632812 61.95117188 C93.70039176 61.97177412 85.01419899 60.59547265 76.6953125 52.97265625 C70.74116782 46.70180175 67.46340418 39.86134961 67.171875 31.1640625 C67.57297782 21.37162117 71.20515251 13.74527106 78.359375 7.0390625 C85.99446544 0.0616164 94.88034191 0.22241306 104.61010742 0.28051758 C106.80285857 0.28908588 108.99304824 0.26010641 111.18554688 0.22851562 C112.59114506 0.22690458 113.99674782 0.22747929 115.40234375 0.23046875 C116.6658667 0.22861572 117.92938965 0.2267627 119.23120117 0.22485352 C123.17188004 0.81010285 124.80925283 1.95039236 127.609375 4.7265625 C129.14204082 7.79189414 128.71213971 10.99410522 128.671875 14.3515625 C128.66736328 15.05796875 128.66285156 15.764375 128.65820312 16.4921875 C128.64641375 18.23701525 128.62847824 19.9817995 128.609375 21.7265625 C129.62257812 21.82839844 130.63578125 21.93023438 131.6796875 22.03515625 C144.19983063 24.23800449 154.79098248 32.44944723 162.359375 42.3515625 C172.05176418 56.93522715 172.70956381 72.48638893 169.9296875 89.12109375 C169.67044998 90.7240052 169.67044998 90.7240052 169.40597534 92.35929871 C168.85539931 95.75367133 168.29503931 99.14634322 167.734375 102.5390625 C167.36524107 104.80523368 166.99674573 107.07150897 166.62890625 109.33789062 C164.98058145 119.47159274 163.3004016 129.59990666 161.609375 139.7265625 C162.31570068 139.76225342 163.02202637 139.79794434 163.74975586 139.8347168 C169.57968786 140.16754479 173.12841284 140.93497913 177.609375 144.7265625 C184.59404175 158.695896 177.78360927 185.95156549 173.2890625 199.90625 C162.4159776 231.78596807 139.73136421 256.53655297 109.75390625 271.3671875 C103.22465682 274.45440684 96.56567964 276.79247473 89.609375 278.7265625 C89.59535645 279.82943604 89.59535645 279.82943604 89.58105469 280.95458984 C89.52684222 284.33755399 89.44329529 287.71921 89.359375 291.1015625 C89.34519531 292.25785156 89.33101562 293.41414063 89.31640625 294.60546875 C89.06133574 303.63496476 87.66543587 312.13606868 81.359375 319.0390625 C80.83859375 319.63332031 80.3178125 320.22757812 79.78125 320.83984375 C77.609375 322.7265625 77.609375 322.7265625 75.68243408 323.57211304 C73.22368738 324.72177726 71.51677435 325.78270232 69.609375 327.7265625 C68.40952884 331.8081566 68.53829866 335.79795129 68.609375 340.02734375 C68.59849854 341.21885544 68.58762207 342.41036713 68.57641602 343.63798523 C68.55024468 347.43926197 68.5791133 351.23785686 68.609375 355.0390625 C68.60128442 357.61785248 68.58960845 360.19663388 68.57421875 362.77539062 C68.54435284 369.09293799 68.55965695 375.40916724 68.609375 381.7265625 C88.11693514 381.66580029 107.62436007 381.58814179 127.13177299 381.49084759 C136.19118962 381.44604918 145.25056834 381.4065986 154.31005859 381.38012695 C162.21436947 381.35701672 170.11855874 381.32347586 178.02277291 381.27786094 C182.20068428 381.25410267 186.37847653 381.23526085 190.5564537 381.22894859 C220.33003597 381.24238089 220.33003597 381.24238089 249.234375 374.5390625 C250.10843994 374.23718018 250.98250488 373.93529785 251.88305664 373.62426758 C284.73928288 361.92866227 310.56039626 337.95989829 325.91113281 306.71289062 C331.19134841 295.52166128 334.28009199 283.85339216 336.609375 271.7265625 C337.00452677 269.76809153 337.40028167 267.80974206 337.796875 265.8515625 C338.06873989 264.47676609 338.34002086 263.10185303 338.609375 261.7265625 C337.35447266 261.59701172 337.35447266 261.59701172 336.07421875 261.46484375 C315.65021644 258.99948799 296.74441815 250.76890668 281.609375 236.7265625 C280.69800781 235.90671875 279.78664063 235.086875 278.84765625 234.2421875 C260.93480683 217.35364328 249.21632624 192.92336509 248.37109375 168.20703125 C247.86721759 139.65858849 255.00531899 113.20931519 275.1730957 92.15673828 C276.63923591 90.66668478 278.12085379 89.19421415 279.609375 87.7265625 C280.34800781 86.97761719 281.08664062 86.22867188 281.84765625 85.45703125 C300.7408893 67.41772964 327.03944107 60.04925176 352.55981445 60.32421875 C381.022695 61.09283662 405.2580818 73.54764667 424.9453125 93.76171875 C445.93062318 117.1163387 451.17913159 145.16549749 449.609375 175.7265625 C448.9694617 181.63769655 447.51056849 187.10590014 445.609375 192.7265625 C445.40038574 193.36158691 445.19139648 193.99661133 444.97607422 194.65087891 C436.18940996 220.78709146 416.99893313 239.97608999 392.984375 252.8515625 C382.57013031 257.90952249 371.18445882 261.17536803 359.609375 261.7265625 C359.47982422 263.32757813 359.47982422 263.32757813 359.34765625 264.9609375 C356.05219475 301.48079361 340.76219616 332.32345491 315.609375 358.7265625 C314.89265625 359.50773437 314.1759375 360.28890625 313.4375 361.09375 C296.99766928 378.46063885 274.53834237 389.82132892 251.984375 396.9140625 C251.25250977 397.15213623 250.52064453 397.39020996 249.76660156 397.63549805 C229.82563982 403.61904494 209.27026119 403.13899903 188.6863451 403.03074431 C184.45169881 403.01174219 180.21704319 403.01020884 175.98236084 403.00666809 C167.99666591 402.99741568 160.01109705 402.97289609 152.02545714 402.94261962 C142.91998496 402.90886116 133.81450614 402.8925362 124.70898676 402.87753332 C106.00904522 402.84633883 87.30922031 402.79371372 68.609375 402.7265625 C68.61825745 403.35502075 68.62713989 403.983479 68.6362915 404.63098145 C68.72570452 411.2511269 68.78549333 417.87109723 68.82910156 424.49169922 C68.84905224 426.95303327 68.87622264 429.41432095 68.91113281 431.87548828 C69.23760634 455.5064101 67.16190913 474.47373837 51.12109375 493.15625 C40.00940663 504.52715221 25.01028185 512.49597396 8.92578125 513.125 C7.00783933 513.13780488 5.08965415 513.12963937 3.171875 513.1015625 C1.65920044 513.08633545 1.65920044 513.08633545 0.1159668 513.07080078 C-16.67354905 512.72087792 -29.85208133 506.86708039 -42.390625 495.7265625 C-43.02742188 495.17226563 -43.66421875 494.61796875 -44.3203125 494.046875 C-54.54711041 484.54731605 -61.56117865 470.23927783 -62.56762695 456.26977539 C-63.07202445 435.11120459 -60.08333481 418.95476414 -45.9296875 402.36328125 C-33.60323299 389.56273233 -16.87027101 381.82611306 0.95043945 381.38598633 C3.12456958 381.38645103 5.29874451 381.40277511 7.47265625 381.43359375 C8.63065231 381.43783859 9.78864838 381.44208344 10.98173523 381.44645691 C14.62869953 381.46305861 18.27508176 381.5006752 21.921875 381.5390625 C24.41600756 381.55413328 26.91014891 381.56781745 29.40429688 381.58007812 C35.47285007 381.61290115 41.54107093 381.66291148 47.609375 381.7265625 C47.66918289 374.12710689 47.6669352 366.52948256 47.62158203 358.92993164 C47.61347211 356.34497603 47.61955823 353.75993525 47.64013672 351.17504883 C47.66726318 347.4580093 47.64330414 343.74426551 47.609375 340.02734375 C47.6287915 338.87196609 47.64820801 337.71658844 47.66821289 336.52619934 C47.73559108 330.6904408 47.73559108 330.6904408 44.84700012 325.93032837 C42.81485463 324.66406381 40.79223004 323.69997226 38.609375 322.7265625 C36.18359375 320.5859375 36.18359375 320.5859375 34.296875 318.4765625 C33.34361328 317.44789063 33.34361328 317.44789063 32.37109375 316.3984375 C27.22600669 308.59524559 27.09837809 300.27666471 26.921875 291.1640625 C26.88771484 289.96458984 26.85355469 288.76511719 26.81835938 287.52929688 C26.73653046 284.59514566 26.6671687 281.66126886 26.609375 278.7265625 C25.7121875 278.4584375 24.815 278.1903125 23.890625 277.9140625 C-8.10661496 267.86534251 -34.048945 247.07528356 -49.78125 217.2734375 C-58.36565559 200.36187656 -62.57925704 183.24998178 -62.74072266 164.30395508 C-62.75734697 162.87540469 -62.78472216 161.44693964 -62.82275391 160.01879883 C-62.87764099 157.9404875 -62.89939876 155.86409525 -62.9140625 153.78515625 C-62.9437915 151.93361938 -62.9437915 151.93361938 -62.97412109 150.04467773 C-62.23263255 145.82812089 -60.65389454 144.39698527 -57.390625 141.7265625 C-54.95674747 140.50962374 -52.97223654 140.40696354 -50.265625 140.1640625 C-49.35554688 140.08027344 -48.44546875 139.99648437 -47.5078125 139.91015625 C-46.80914062 139.84957031 -46.11046875 139.78898438 -45.390625 139.7265625 C-45.51590576 138.98677658 -45.64118652 138.24699066 -45.77026367 137.48478699 C-46.95653321 130.47009408 -48.13407473 123.45400272 -49.30213928 116.43625927 C-49.90277253 112.82949694 -50.50661902 109.22333777 -51.11816406 105.6184082 C-51.70958955 102.13132772 -52.29211026 98.64286035 -52.86880493 95.15331459 C-53.19517837 93.19227908 -53.53046265 91.23273317 -53.8659668 89.27323914 C-56.55723047 72.86769918 -56.10309038 57.23044994 -46.53125 42.953125 C-44.57990609 40.43452995 -42.55541093 38.06335661 -40.390625 35.7265625 C-39.86984375 35.16324219 -39.3490625 34.59992187 -38.8125 34.01953125 C-31.87414579 27.37903568 -21.85847373 22.6564405 -12.390625 21.7265625 C-12.44863281 20.71335937 -12.50664063 19.70015625 -12.56640625 18.65625 C-12.61333389 17.30473386 -12.65883083 15.95316751 -12.703125 14.6015625 C-12.74501953 13.93640625 -12.78691406 13.27125 -12.83007812 12.5859375 C-12.94239616 8.00336176 -11.97687344 5.39629155 -8.94291687 1.97518921 C-6.16732187 -0.25743348 -3.45892632 -0.01587451 0 0 Z M8.609375 20.7265625 C8.609375 27.3265625 8.609375 33.9265625 8.609375 40.7265625 C16.16277925 41.23119232 16.16277925 41.23119232 23.171875 38.9765625 C26.14879412 36.29318342 26.14879412 36.29318342 27.609375 32.7265625 C27.52353122 28.69190478 26.88108668 27.05702265 24.296875 23.9140625 C19.18548387 19.75362786 15.46820156 20.7265625 8.609375 20.7265625 Z M91.609375 23.7265625 C88.90458316 26.76945332 88.600126 28.19936924 88.671875 32.2890625 C89.68881584 36.01784558 90.57505955 37.40620363 93.609375 39.7265625 C96.75868393 40.77633214 98.99751956 40.82787845 102.296875 40.7890625 C104.9265625 40.758125 104.9265625 40.758125 107.609375 40.7265625 C107.609375 34.1265625 107.609375 27.5265625 107.609375 20.7265625 C98.87664468 20.5194234 98.87664468 20.5194234 91.609375 23.7265625 Z M290.35546875 106.63671875 C275.09957856 124.89600567 267.97635428 145.49701697 269.37744141 169.21826172 C269.97092421 175.63662207 271.58495262 181.6265703 273.609375 187.7265625 C273.94839844 188.76941406 274.28742188 189.81226563 274.63671875 190.88671875 C281.54715403 209.5522717 296.76810776 225.08412474 314.55566406 233.66552734 C332.65762022 241.80916171 353.94985874 244.265442 373.12109375 238.12109375 C383.44810506 233.99260211 393.33582004 229.29052424 401.609375 221.7265625 C402.94742188 220.52580078 402.94742188 220.52580078 404.3125 219.30078125 C418.43396552 205.97027213 428.20338069 187.2546011 429.04296875 167.61328125 C429.06664152 165.54701019 429.06750097 163.48036622 429.046875 161.4140625 C429.03785156 160.32101807 429.02882813 159.22797363 429.01953125 158.10180664 C428.61571717 139.16601092 421.43604163 121.70591237 408.609375 107.7265625 C407.94550781 106.97117187 407.28164063 106.21578125 406.59765625 105.4375 C393.3987774 91.23833643 373.98974083 82.2930607 354.6015625 81.390625 C330.33423458 80.95883036 307.46055622 88.54716581 290.35546875 106.63671875 Z M-41.390625 161.7265625 C-42.61150297 187.97543894 -31.82616758 211.4439159 -14.390625 230.7265625 C-0.30810827 245.20086486 17.51016891 255.42220116 37.38232422 259.30981445 C41.61492108 260.19518795 43.89795791 261.33729114 46.609375 264.7265625 C48.14511248 267.79803745 47.76617379 271.03106376 47.78515625 274.40234375 C47.80835888 275.96811234 47.83247639 277.53386758 47.85742188 279.09960938 C47.89250411 281.5683682 47.9218618 284.03663773 47.93530273 286.50561523 C47.9508145 288.88846174 47.9910455 291.26987715 48.03515625 293.65234375 C48.03324783 294.38584549 48.03133942 295.11934723 48.02937317 295.87507629 C48.14550155 300.7614395 49.12678012 303.29606206 52.609375 306.7265625 C55.70986428 308.27680714 58.18831718 308.01648265 61.609375 307.7265625 C64.36266521 305.93093845 66.13564961 304.67401328 67.609375 301.7265625 C67.72978358 299.16089044 67.79497139 296.61766104 67.8203125 294.05078125 C67.84838731 292.4850157 67.87705182 290.91926063 67.90625 289.35351562 C67.94746392 286.88485069 67.98435022 284.41638014 68.01074219 281.94750977 C68.0384225 279.56485521 68.08429858 277.18309069 68.1328125 274.80078125 C68.13606537 274.06727951 68.13931824 273.33377777 68.14266968 272.57804871 C68.24828107 268.15447231 68.75734728 265.17234476 71.609375 261.7265625 C73.59545898 260.6875 73.59545898 260.6875 75.85546875 260.1015625 C76.6868335 259.87291504 77.51819824 259.64426758 78.37475586 259.40869141 C79.25655518 259.18358887 80.13835449 258.95848633 81.046875 258.7265625 C82.87101689 258.21791536 84.69394791 257.7049052 86.515625 257.1875 C87.39605469 256.93967773 88.27648437 256.69185547 89.18359375 256.43652344 C114.02011218 249.1675424 134.03022093 230.87225881 146.5703125 208.65234375 C154.42968177 193.9939963 158.1632985 178.34426747 157.609375 161.7265625 C151.339375 161.7265625 145.069375 161.7265625 138.609375 161.7265625 C138.2690625 165.47 138.2690625 165.47 137.921875 169.2890625 C135.5845608 190.61499705 125.62651227 209.56016746 109.34765625 223.56640625 C90.00035299 238.82897216 67.33879079 243.08043962 43.13476562 240.45849609 C23.23921788 237.28758711 5.86090573 225.37255404 -6.390625 209.7265625 C-16.88404812 195.00161432 -21.02491554 179.48078547 -22.390625 161.7265625 C-28.660625 161.7265625 -34.930625 161.7265625 -41.390625 161.7265625 Z M-25.390625 412.7265625 C-26.42123047 413.55414063 -26.42123047 413.55414063 -27.47265625 414.3984375 C-35.31221595 421.41356932 -40.92081026 432.07532816 -41.6640625 442.59765625 C-42.11225708 456.80401905 -39.37543504 468.07032271 -29.390625 478.7265625 C-22.45247354 486.05873244 -12.56674351 491.35317972 -2.44921875 491.96484375 C13.08724599 492.33872941 24.15570834 488.72853661 35.796875 478.1015625 C45.84715353 467.60995437 47.94189379 454.82990167 47.8046875 440.91015625 C47.8018576 439.81308853 47.79902771 438.71602081 47.79611206 437.58570862 C47.78499497 434.11171152 47.75990612 430.63798053 47.734375 427.1640625 C47.72433425 424.7962277 47.71521032 422.42838883 47.70703125 420.06054688 C47.68508344 414.28246262 47.65169109 408.50453158 47.609375 402.7265625 C40.58435653 402.62427921 33.55953344 402.55473012 26.53393555 402.50683594 C24.14909692 402.4868481 21.7643065 402.45964855 19.37963867 402.42480469 C-4.55032223 401.96375176 -4.55032223 401.96375176 -25.390625 412.7265625 Z " fill="#000000" transform="translate(62.390625,-0.7265625)"/>
<path d="M0 0 C2.34765467 1.23311154 3.37118054 1.75 6.0625 1.75 C9.21661271 0.51912675 12.29010205 -0.85018971 15.34375 -2.3125 C24.4111695 -6.03883678 34.74464953 -4.90845424 43.625 -1.25 C52.69304943 3.88285817 59.44745007 12.08411744 62.5 22.0625 C65.65039674 35.50794325 62.85784157 47.63285768 56.55078125 59.69921875 C52.9589267 65.3893575 48.39657009 70.0387447 43.625 74.75 C42.8928125 75.48089844 42.160625 76.21179688 41.40625 76.96484375 C35.14490403 82.86405963 27.96264793 87.33589965 20.625 91.75 C20.0460498 92.10578125 19.46709961 92.4615625 18.87060547 92.828125 C17.19882075 93.84668323 15.50582721 94.83017217 13.8125 95.8125 C12.83667969 96.38097656 11.86085938 96.94945312 10.85546875 97.53515625 C5.99772298 99.36195061 1.48324963 99.80708753 -3.46166992 97.97827148 C-5.57696522 96.90003111 -7.56115529 95.71463652 -9.5625 94.4375 C-10.29082031 93.98963135 -11.01914062 93.5417627 -11.76953125 93.08032227 C-29.61064116 81.87329231 -47.06516474 67.3457713 -53.7265625 46.59765625 C-56.70452993 33.51971496 -55.44760725 22.37770253 -49.203125 10.5859375 C-43.83954467 2.2655116 -36.17114225 -2.21115733 -26.875 -5 C-17.24452559 -5.96304744 -8.60171868 -4.66533894 0 0 Z M-30.625 21 C-34.13985783 26.52334802 -34.88262447 31.69281647 -34.03125 38.078125 C-30.69924539 51.64414378 -19.28719898 61.89385675 -8.375 69.75 C-7.41335938 70.49636719 -6.45171875 71.24273437 -5.4609375 72.01171875 C-2.43218745 74.12871329 0.08727697 75.67350171 3.625 76.75 C8.05300081 75.81844303 11.07923929 73.47636223 14.625 70.75 C15.62789062 70.05261719 16.63078125 69.35523438 17.6640625 68.63671875 C28.45568368 60.94598112 40.0059367 51.52120379 42.625 37.75 C43.2618785 30.10745801 41.24276268 25.53121276 36.9375 19.3125 C32.82584934 16.53435766 28.33989565 16.27414191 23.5078125 17.12109375 C18.56759677 18.66851541 15.51280081 21.43181957 12.0703125 25.2265625 C9.74877732 27.67358607 8.44175697 27.7752749 5 28.25 C-0.66319652 28.20896234 -3.54066269 24.49591444 -7.375 20.75 C-15.05336801 14.54195778 -23.35947525 13.73447525 -30.625 21 Z " fill="#000000" transform="translate(407.375,122.25)"/>
</svg>
