<?xml version="1.0" encoding="UTF-8"?>
<!DOCTYPE svg PUBLIC "-//W3C//DTD SVG 1.1//EN" "http://www.w3.org/Graphics/SVG/1.1/DTD/svg11.dtd">
<svg xmlns="http://www.w3.org/2000/svg" version="1.1" width="512px" height="512px" style="shape-rendering:geometricPrecision; text-rendering:geometricPrecision; image-rendering:optimizeQuality; fill-rule:evenodd; clip-rule:evenodd" xmlns:xlink="http://www.w3.org/1999/xlink">
<g><path style="opacity:0.949" fill="#000000" d="M 511.5,49.5 C 511.5,157.833 511.5,266.167 511.5,374.5C 507.584,386.246 499.584,393.746 487.5,397C 434.168,397.5 380.834,397.667 327.5,397.5C 329.618,411.539 331.951,425.539 334.5,439.5C 341.906,439.152 349.239,439.652 356.5,441C 370.671,449.184 374.171,460.684 367,475.5C 363.469,480.705 358.636,483.871 352.5,485C 287.833,485.667 223.167,485.667 158.5,485C 141.182,478.396 136.349,466.563 144,449.5C 146.921,445.908 150.421,443.075 154.5,441C 161.761,439.652 169.094,439.152 176.5,439.5C 179.049,425.539 181.382,411.539 183.5,397.5C 166.83,397.667 150.163,397.5 133.5,397C 129.723,394.045 128.557,390.212 130,385.5C 131.214,383.951 132.714,382.785 134.5,382C 251.167,381.667 367.833,381.333 484.5,381C 488.709,379.813 491.876,377.313 494,373.5C 495.805,368.338 496.638,363.004 496.5,357.5C 335.833,357.5 175.167,357.5 14.5,357.5C 14.083,364.359 15.583,370.692 19,376.5C 20.4095,377.787 21.9095,378.954 23.5,380C 50.4381,381.307 77.4381,381.974 104.5,382C 110.448,384.433 111.948,388.6 109,394.5C 108.167,395.333 107.333,396.167 106.5,397C 78.8333,397.667 51.1667,397.667 23.5,397C 11.4157,393.746 3.41571,386.246 -0.5,374.5C -0.5,266.167 -0.5,157.833 -0.5,49.5C 3.26156,36.4217 11.9282,28.5883 25.5,26C 134.167,25.3333 242.833,25.3333 351.5,26C 356.224,28.4353 357.724,32.2686 356,37.5C 354.786,39.0488 353.286,40.2155 351.5,41C 243.5,41.3333 135.5,41.6667 27.5,42C 20.0274,44.475 15.8608,49.6417 15,57.5C 14.5,152.166 14.3333,246.833 14.5,341.5C 175.167,341.5 335.833,341.5 496.5,341.5C 496.667,246.833 496.5,152.166 496,57.5C 495.172,49.669 491.005,44.5023 483.5,42C 449.167,41.6667 414.833,41.3333 380.5,41C 373.833,36 373.833,31 380.5,26C 415.5,25.3333 450.5,25.3333 485.5,26C 499.072,28.5883 507.738,36.4217 511.5,49.5 Z M 428.5,95.5 C 436.167,95.5 443.833,95.5 451.5,95.5C 451.5,123.167 451.5,150.833 451.5,178.5C 443.833,178.5 436.167,178.5 428.5,178.5C 428.5,150.833 428.5,123.167 428.5,95.5 Z M 285.5,115.5 C 293.167,115.5 300.833,115.5 308.5,115.5C 308.5,136.5 308.5,157.5 308.5,178.5C 300.833,178.5 293.167,178.5 285.5,178.5C 285.5,157.5 285.5,136.5 285.5,115.5 Z M 357.5,136.5 C 365.167,136.5 372.833,136.5 380.5,136.5C 380.5,150.5 380.5,164.5 380.5,178.5C 372.833,178.5 365.167,178.5 357.5,178.5C 357.5,164.5 357.5,150.5 357.5,136.5 Z M 200.5,397.5 C 237.168,397.333 273.835,397.5 310.5,398C 313.167,411.667 315.833,425.333 318.5,439C 310.064,439.06 301.731,439.727 293.5,441C 289.074,446.441 289.741,451.108 295.5,455C 313.5,455.333 331.5,455.667 349.5,456C 356.167,460.333 356.167,464.667 349.5,469C 286.833,469.667 224.167,469.667 161.5,469C 155.254,465.178 154.921,460.845 160.5,456C 195.833,455.667 231.167,455.333 266.5,455C 270.861,452.774 272.361,449.274 271,444.5C 270.167,442.333 268.667,440.833 266.5,440C 241.833,439.667 217.167,439.333 192.5,439C 195.221,425.174 197.888,411.341 200.5,397.5 Z"/></g>
<g><path style="opacity:0.931" fill="#000000" d="M 47.5,79.5 C 106.501,79.3333 165.501,79.5 224.5,80C 229.568,82.9825 230.735,87.1492 228,92.5C 226.829,93.8932 225.329,94.7265 223.5,95C 165.5,95.6667 107.5,95.6667 49.5,95C 44.0945,93.0197 42.2611,89.1864 44,83.5C 45.3756,82.2949 46.5423,80.9616 47.5,79.5 Z"/></g>
<g><path style="opacity:0.936" fill="#000000" d="M 417.5,79.5 C 432.504,79.3334 447.504,79.5001 462.5,80C 464.667,80.8333 466.167,82.3333 467,84.5C 467.667,119.167 467.667,153.833 467,188.5C 466.426,190.492 465.259,191.992 463.5,193C 448.902,194.616 434.235,194.949 419.5,194C 416.107,193.606 413.94,191.773 413,188.5C 412.333,153.833 412.333,119.167 413,84.5C 414.025,82.313 415.525,80.6464 417.5,79.5 Z M 428.5,95.5 C 428.5,123.167 428.5,150.833 428.5,178.5C 436.167,178.5 443.833,178.5 451.5,178.5C 451.5,150.833 451.5,123.167 451.5,95.5C 443.833,95.5 436.167,95.5 428.5,95.5 Z"/></g>
<g><path style="opacity:0.937" fill="#000000" d="M 273.5,99.5 C 289.17,99.3334 304.837,99.5001 320.5,100C 321.416,100.374 322.25,100.874 323,101.5C 324.152,116.41 324.652,131.41 324.5,146.5C 324.333,160.833 324.167,175.167 324,189.5C 322.661,192.094 320.494,193.594 317.5,194C 302.778,194.932 288.112,194.599 273.5,193C 272.667,192.167 271.833,191.333 271,190.5C 269.358,162.228 269.025,133.895 270,105.5C 270.564,103.113 271.73,101.113 273.5,99.5 Z M 285.5,115.5 C 285.5,136.5 285.5,157.5 285.5,178.5C 293.167,178.5 300.833,178.5 308.5,178.5C 308.5,157.5 308.5,136.5 308.5,115.5C 300.833,115.5 293.167,115.5 285.5,115.5 Z"/></g>
<g><path style="opacity:0.929" fill="#000000" d="M 47.5,119.5 C 85.1681,119.333 122.835,119.5 160.5,120C 163.366,121.393 164.699,123.726 164.5,127C 164.666,131.348 162.666,134.015 158.5,135C 122.167,135.667 85.8333,135.667 49.5,135C 44.0758,132.983 42.2425,129.15 44,123.5C 45.3756,122.295 46.5423,120.962 47.5,119.5 Z"/></g>
<g><path style="opacity:0.914" fill="#000000" d="M 187.5,119.5 C 200.171,119.333 212.838,119.5 225.5,120C 231.194,125.862 230.527,130.862 223.5,135C 212.167,135.667 200.833,135.667 189.5,135C 185.334,134.015 183.334,131.348 183.5,127C 183.43,123.634 184.763,121.134 187.5,119.5 Z"/></g>
<g><path style="opacity:0.934" fill="#000000" d="M 346.5,120.5 C 361.504,120.333 376.504,120.5 391.5,121C 392.931,121.465 394.097,122.299 395,123.5C 396.644,145.078 396.977,166.745 396,188.5C 395.215,190.286 394.049,191.786 392.5,193C 377.902,194.616 363.235,194.949 348.5,194C 345.545,193.608 343.378,192.108 342,189.5C 341.333,168.167 341.333,146.833 342,125.5C 343.025,123.313 344.525,121.646 346.5,120.5 Z M 357.5,136.5 C 357.5,150.5 357.5,164.5 357.5,178.5C 365.167,178.5 372.833,178.5 380.5,178.5C 380.5,164.5 380.5,150.5 380.5,136.5C 372.833,136.5 365.167,136.5 357.5,136.5 Z"/></g>
<g><path style="opacity:0.932" fill="#000000" d="M 47.5,164.5 C 106.834,164.333 166.168,164.5 225.5,165C 231.194,170.862 230.527,175.862 223.5,180C 165.5,180.667 107.5,180.667 49.5,180C 44.0758,177.983 42.2425,174.15 44,168.5C 45.3756,167.295 46.5423,165.962 47.5,164.5 Z"/></g>
<g><path style="opacity:0.96" fill="#000000" d="M 47.5,204.5 C 60.1711,204.333 72.8377,204.5 85.5,205C 89.2115,207.513 90.3782,211.013 89,215.5C 88.5,217.333 87.3333,218.5 85.5,219C 72.8333,219.667 60.1667,219.667 47.5,219C 44.6339,217.607 43.3006,215.274 43.5,212C 43.4302,208.634 44.7635,206.134 47.5,204.5 Z"/></g>
<g><path style="opacity:0.987" fill="#000000" d="M 112.5,204.5 C 150.168,204.333 187.835,204.5 225.5,205C 230.833,209.667 230.833,214.333 225.5,219C 187.833,219.667 150.167,219.667 112.5,219C 109.634,217.607 108.301,215.274 108.5,212C 108.43,208.634 109.763,206.134 112.5,204.5 Z"/></g>
<g><path style="opacity:0.925" fill="#000000" d="M 401.5,215.5 C 405.516,214.9 409.016,215.9 412,218.5C 419.117,233.235 426.617,247.735 434.5,262C 444.167,262.333 453.833,262.667 463.5,263C 468.818,267.713 468.818,272.38 463.5,277C 457.244,278.103 450.911,278.603 444.5,278.5C 437.771,278.582 431.104,278.082 424.5,277C 417.619,265.407 411.119,253.574 405,241.5C 393.392,265.885 380.892,289.719 367.5,313C 363.756,313.929 360.256,313.429 357,311.5C 346.744,291.989 336.744,272.323 327,252.5C 322.797,261.079 317.963,269.246 312.5,277C 299.5,279 286.5,279 273.5,277C 268.167,272.333 268.167,267.667 273.5,263C 283.517,262.832 293.517,262.332 303.5,261.5C 308.945,249.438 315.278,237.938 322.5,227C 327.212,225.557 331.045,226.723 334,230.5C 343.411,249.656 353.078,268.656 363,287.5C 374.667,264.833 386.333,242.167 398,219.5C 399.376,218.295 400.542,216.962 401.5,215.5 Z"/></g>
<g><path style="opacity:0.931" fill="#000000" d="M 47.5,243.5 C 106.501,243.333 165.501,243.5 224.5,244C 229.535,247.013 230.702,251.18 228,256.5C 226.829,257.893 225.329,258.727 223.5,259C 165.167,259.667 106.833,259.667 48.5,259C 42.1979,254.319 41.8646,249.152 47.5,243.5 Z"/></g>
<g><path style="opacity:0.982" fill="#000000" d="M 47.5,283.5 C 76.8352,283.333 106.169,283.5 135.5,284C 140.833,288.667 140.833,293.333 135.5,298C 106.167,298.667 76.8333,298.667 47.5,298C 43.251,294.623 42.4177,290.457 45,285.5C 45.9947,284.934 46.828,284.267 47.5,283.5 Z"/></g>
</svg>
