<?xml version="1.0" encoding="UTF-8"?>
<!DOCTYPE svg PUBLIC "-//W3C//DTD SVG 1.1//EN" "http://www.w3.org/Graphics/SVG/1.1/DTD/svg11.dtd">
<svg xmlns="http://www.w3.org/2000/svg" version="1.1" width="512px" height="512px" style="shape-rendering:geometricPrecision; text-rendering:geometricPrecision; image-rendering:optimizeQuality; fill-rule:evenodd; clip-rule:evenodd" xmlns:xlink="http://www.w3.org/1999/xlink">
<g><path style="opacity:0.93" fill="#000000" d="M 133.5,-0.5 C 142.833,-0.5 152.167,-0.5 161.5,-0.5C 213.485,10.6589 241.485,42.8256 245.5,96C 245.178,103.229 244.345,110.395 243,117.5C 240.328,126.182 237.661,134.849 235,143.5C 234.612,146.849 234.779,150.183 235.5,153.5C 239.846,153.334 244.179,153.501 248.5,154C 250.519,154.45 252.352,155.283 254,156.5C 267.984,147.225 283.15,140.558 299.5,136.5C 308.414,139.749 309.748,144.915 303.5,152C 290.807,155.017 279.14,160.183 268.5,167.5C 293.615,195.463 298.782,226.796 284,261.5C 282.167,264.5 280.333,267.5 278.5,270.5C 305.376,277.333 326.21,292.333 341,315.5C 358.846,298.988 376.012,281.821 392.5,264C 386.269,249.094 376.936,236.428 364.5,226C 352.596,217.131 340.429,208.631 328,200.5C 324.988,190.846 328.488,186.68 338.5,188C 349.833,196 361.167,204 372.5,212C 383.005,211.166 393.338,209.166 403.5,206C 429.612,192.939 439.446,172.106 433,143.5C 426.578,132.685 417.744,130.185 406.5,136C 405.333,137.167 404.167,138.333 403,139.5C 400.369,145.243 398.369,151.243 397,157.5C 391.367,164.7 384.201,166.867 375.5,164C 361.449,156.317 346.449,151.65 330.5,150C 326.387,146.491 325.554,142.324 328,137.5C 329.967,135.73 332.3,134.73 335,134.5C 351.745,136.305 367.412,141.305 382,149.5C 386.675,124.584 401.508,114.084 426.5,118C 437.947,121.614 445.614,129.114 449.5,140.5C 459.378,132.782 470.378,130.615 482.5,134C 489.153,137.469 492.653,142.969 493,150.5C 493.667,200.167 493.667,249.833 493,299.5C 492.77,306.523 491.104,313.19 488,319.5C 478.357,331.977 468.523,344.311 458.5,356.5C 448.925,360.1 444.759,356.766 446,346.5C 455,335.167 464,323.833 473,312.5C 475.34,308.479 476.674,304.146 477,299.5C 477.667,250.167 477.667,200.833 477,151.5C 476.626,150.584 476.126,149.75 475.5,149C 461.793,148.36 453.627,154.86 451,168.5C 450.977,209.213 450.311,249.88 449,290.5C 446.829,294.844 444.163,298.844 441,302.5C 420.111,324.719 399.278,346.886 378.5,369C 368.963,370.468 365.463,366.635 368,357.5C 389.333,334.167 410.667,310.833 432,287.5C 437.365,275.226 433.531,267.893 420.5,265.5C 417.567,265.466 414.9,266.299 412.5,268C 391.972,288.862 371.138,309.362 350,329.5C 352.17,337.702 354.17,346.035 356,354.5C 360.757,400.651 343.424,435.651 304,459.5C 303.667,475.167 303.333,490.833 303,506.5C 302.003,508.323 300.836,509.99 299.5,511.5C 296.833,511.5 294.167,511.5 291.5,511.5C 290.199,510.36 289.032,509.027 288,507.5C 287.667,493.833 287.333,480.167 287,466.5C 270.499,471.64 253.665,472.807 236.5,470C 232.154,469.373 227.988,468.206 224,466.5C 223.667,480.167 223.333,493.833 223,507.5C 221.968,509.027 220.801,510.36 219.5,511.5C 216.833,511.5 214.167,511.5 211.5,511.5C 210.164,509.99 208.997,508.323 208,506.5C 207.833,490.823 207.333,475.156 206.5,459.5C 196.996,454.169 188.496,447.502 181,439.5C 178.261,430.806 181.427,426.639 190.5,427C 223.307,458.578 259.974,463.912 300.5,443C 332.408,420.667 345.242,390.167 339,351.5C 326.776,309.781 298.943,287.448 255.5,284.5C 203.457,289.376 174.79,317.876 169.5,370C 170.005,380.859 172.172,391.359 176,401.5C 177.241,411.766 173.075,415.1 163.5,411.5C 159.726,405.349 157.226,398.682 156,391.5C 153.338,379.219 153.004,366.885 155,354.5C 156.83,346.035 158.83,337.702 161,329.5C 139.862,309.362 119.028,288.862 98.5,268C 89.174,263.333 82.0073,265.499 77,274.5C 75.993,279.111 76.6597,283.445 79,287.5C 100.333,310.833 121.667,334.167 143,357.5C 145.549,366.624 142.049,370.457 132.5,369C 111.722,346.886 90.8892,324.719 70,302.5C 66.8372,298.844 64.1705,294.844 62,290.5C 60.6894,249.88 60.0227,209.213 60,168.5C 57.2731,154.408 48.9398,148.075 35,149.5C 33.6852,174.413 33.0186,199.413 33,224.5C 28.3333,229.833 23.6667,229.833 19,224.5C 17.8715,211.553 17.3715,198.553 17.5,185.5C 17.3811,172.122 17.8811,158.789 19,145.5C 22.1438,136.846 28.3105,132.513 37.5,132.5C 32.3316,81.4107 50.9983,41.9107 93.5,14C 106.061,6.6499 119.394,1.81657 133.5,-0.5 Z M 146.5,14.5 C 196.499,18.9995 224.166,46.1662 229.5,96C 229.206,100.854 228.706,105.688 228,110.5C 224.788,121.131 221.788,131.798 219,142.5C 218.331,147.806 218.831,152.973 220.5,158C 208.411,167.334 203.411,179.501 205.5,194.5C 175.571,188.065 145.571,187.898 115.5,194C 111.139,196.226 109.639,199.726 111,204.5C 111.833,206.667 113.333,208.167 115.5,209C 126.521,208.582 137.521,207.582 148.5,206C 167.143,204.32 185.476,205.987 203.5,211C 213.366,214.51 223.199,218.01 233,221.5C 235.261,221.561 237.261,220.894 239,219.5C 240.483,216.298 240.817,212.964 240,209.5C 235.02,205.592 229.52,202.592 223.5,200.5C 218.531,189.511 220.531,180.011 229.5,172C 240.966,166.81 250.466,169.31 258,179.5C 281.453,208.06 282.453,237.394 261,267.5C 232.733,267.587 207.9,276.753 186.5,295C 180.241,301.255 174.741,308.088 170,315.5C 149.195,295.695 128.695,275.529 108.5,255C 98.3704,248.811 87.8704,247.977 77,252.5C 76.6667,224.167 76.3333,195.833 76,167.5C 75.5381,160.985 73.5381,154.985 70,149.5C 65.5928,143.591 60.4261,138.591 54.5,134.5C 47.9751,88.0609 64.3085,52.2276 103.5,27C 117.016,19.5427 131.35,15.376 146.5,14.5 Z M 433.5,204.5 C 434.661,220.328 434.828,236.328 434,252.5C 424.497,248.283 415.164,248.616 406,253.5C 401.285,243.895 395.451,235.062 388.5,227C 401.384,224.704 413.384,220.037 424.5,213C 428,210.666 431,207.832 433.5,204.5 Z M 246.5,327.5 C 252.5,327.5 258.5,327.5 264.5,327.5C 264.051,337.605 264.551,347.605 266,357.5C 266.833,358.333 267.667,359.167 268.5,360C 278.161,360.5 287.828,360.666 297.5,360.5C 297.5,366.833 297.5,373.167 297.5,379.5C 287.828,379.334 278.161,379.5 268.5,380C 266.951,381.214 265.785,382.714 265,384.5C 264.5,393.827 264.334,403.161 264.5,412.5C 258.5,412.5 252.5,412.5 246.5,412.5C 246.949,402.395 246.449,392.395 245,382.5C 244.167,381.667 243.333,380.833 242.5,380C 232.839,379.5 223.172,379.334 213.5,379.5C 213.5,373.167 213.5,366.833 213.5,360.5C 223.172,360.666 232.839,360.5 242.5,360C 244.049,358.786 245.215,357.286 246,355.5C 246.5,346.173 246.666,336.839 246.5,327.5 Z"/></g>
<g><path style="opacity:0.911" fill="#000000" d="M 121.5,97.5 C 127.733,97.1838 133.567,98.5171 139,101.5C 142.696,106.878 141.862,111.378 136.5,115C 118.899,110.938 112.399,117.771 117,135.5C 120.027,140.858 124.36,144.858 130,147.5C 133.129,154.575 130.963,158.909 123.5,160.5C 107.972,155.153 99.9715,144.153 99.5,127.5C 99.5938,111.911 106.927,101.911 121.5,97.5 Z"/></g>
<g><path style="opacity:0.908" fill="#000000" d="M 173.5,131.5 C 182.961,130.483 191.961,131.983 200.5,136C 205.684,140.625 205.684,145.292 200.5,150C 199.167,150.167 197.833,150.333 196.5,150.5C 188.617,148.368 180.617,146.868 172.5,146C 168.326,140.882 168.66,136.049 173.5,131.5 Z"/></g>
<g><path style="opacity:0.924" fill="#000000" d="M 129.5,511.5 C 126.833,511.5 124.167,511.5 121.5,511.5C 118.318,509.46 116.985,506.46 117.5,502.5C 118.891,492.486 120.391,482.486 122,472.5C 124.162,458.98 121.829,446.313 115,434.5C 86.0459,397.877 56.7126,361.544 27,325.5C 21.4222,317.768 18.4222,309.101 18,299.5C 17.3333,284.5 17.3333,269.5 18,254.5C 18.4634,249.706 21.1301,247.372 26,247.5C 29.2738,247.301 31.6071,248.634 33,251.5C 33.3333,267.5 33.6667,283.5 34,299.5C 34.3264,304.146 35.6597,308.479 38,312.5C 68,349.833 98,387.167 128,424.5C 137.483,439.916 140.817,456.583 138,474.5C 136.442,484.85 134.775,495.184 133,505.5C 132.436,507.887 131.27,509.887 129.5,511.5 Z"/></g>
<g><path style="opacity:0.946" fill="#000000" d="M 236.5,311.5 C 250.24,311.054 263.907,311.554 277.5,313C 278.701,313.903 279.535,315.069 280,316.5C 280.5,326.161 280.666,335.828 280.5,345.5C 290.938,345.049 301.271,345.549 311.5,347C 312.126,347.75 312.626,348.584 313,349.5C 313.667,363.5 313.667,377.5 313,391.5C 312.167,392.333 311.333,393.167 310.5,394C 300.605,395.449 290.605,395.949 280.5,395.5C 280.949,405.605 280.449,415.605 279,425.5C 278.097,426.701 276.931,427.535 275.5,428C 262.167,428.667 248.833,428.667 235.5,428C 234.069,427.535 232.903,426.701 232,425.5C 230.551,415.605 230.051,405.605 230.5,395.5C 220.395,395.949 210.395,395.449 200.5,394C 199.667,393.167 198.833,392.333 198,391.5C 197.333,377.5 197.333,363.5 198,349.5C 198.374,348.584 198.874,347.75 199.5,347C 209.729,345.549 220.062,345.049 230.5,345.5C 230.334,335.828 230.5,326.161 231,316.5C 232.107,313.887 233.94,312.22 236.5,311.5 Z M 246.5,327.5 C 246.666,336.839 246.5,346.173 246,355.5C 245.215,357.286 244.049,358.786 242.5,360C 232.839,360.5 223.172,360.666 213.5,360.5C 213.5,366.833 213.5,373.167 213.5,379.5C 223.172,379.334 232.839,379.5 242.5,380C 243.333,380.833 244.167,381.667 245,382.5C 246.449,392.395 246.949,402.395 246.5,412.5C 252.5,412.5 258.5,412.5 264.5,412.5C 264.334,403.161 264.5,393.827 265,384.5C 265.785,382.714 266.951,381.214 268.5,380C 278.161,379.5 287.828,379.334 297.5,379.5C 297.5,373.167 297.5,366.833 297.5,360.5C 287.828,360.666 278.161,360.5 268.5,360C 267.667,359.167 266.833,358.333 266,357.5C 264.551,347.605 264.051,337.605 264.5,327.5C 258.5,327.5 252.5,327.5 246.5,327.5 Z"/></g>
<g><path style="opacity:0.922" fill="#000000" d="M 389.5,511.5 C 386.833,511.5 384.167,511.5 381.5,511.5C 379.73,509.887 378.564,507.887 378,505.5C 375.547,491.324 373.38,477.158 371.5,463C 372.081,449.252 375.914,436.419 383,424.5C 397.5,406.667 412,388.833 426.5,371C 436.964,368.13 440.797,371.964 438,382.5C 424.427,398.65 411.094,414.983 398,431.5C 389.48,443.916 386.48,457.583 389,472.5C 391.322,484.09 392.656,495.757 393,507.5C 392.31,509.35 391.144,510.684 389.5,511.5 Z"/></g>
</svg>
