<?xml version="1.0" encoding="UTF-8"?>
<svg version="1.1" xmlns="http://www.w3.org/2000/svg" width="512" height="512">
<path d="M0 0 C5.71175957 4.40972406 9.51258992 10.659915 11.00390625 17.71484375 C11.1138683 19.21009013 11.1790766 20.70902674 11.20922852 22.20800781 C11.23914635 23.52892426 11.23914635 23.52892426 11.26966858 24.87652588 C11.28638107 25.81832703 11.30309357 26.76012817 11.3203125 27.73046875 C11.3410936 28.70143494 11.36187469 29.67240112 11.38328552 30.67279053 C11.44859487 33.7700706 11.50757948 36.86743443 11.56640625 39.96484375 C11.60960917 42.06641486 11.65322403 44.16797755 11.69726562 46.26953125 C11.80425723 51.41788323 11.90557715 56.56631933 12.00390625 61.71484375 C13.22966873 62.08949265 13.22966873 62.08949265 14.48019409 62.47171021 C22.22191861 64.8405396 29.95953527 67.22226156 37.69293022 69.61815071 C41.66784646 70.84913475 45.64411833 72.075272 49.62402344 73.29003906 C53.47266882 74.46494352 57.317048 75.65296089 61.15893936 76.84975815 C62.61734834 77.30162116 64.07717767 77.74892868 65.53847885 78.19134903 C76.60612277 81.54696734 88.66903655 85.26230875 95.00390625 95.71484375 C97.29008496 100.7444369 99.00390625 105.15715049 99.00390625 110.71484375 C128.37390625 110.71484375 157.74390625 110.71484375 188.00390625 110.71484375 C188.00390625 107.08484375 188.00390625 103.45484375 188.00390625 99.71484375 C190.42813623 88.16410091 197.83107464 77.93479826 207.28515625 71.0546875 C219.1794578 63.39490787 231.19000392 63.25093548 244.875 63.28125 C246.6881581 63.27668162 248.50131448 63.27137411 250.31446838 63.2653656 C254.09244888 63.25647996 257.87021739 63.25880995 261.64819336 63.26879883 C266.48936719 63.28035245 271.32981849 63.25995696 276.17089748 63.23088169 C279.90524424 63.21255576 283.63941604 63.21280372 287.37379646 63.21851921 C289.15958745 63.2186725 290.94539024 63.21262211 292.73113823 63.20022774 C295.22023373 63.185367 297.70796893 63.19595298 300.19702148 63.21313477 C301.29966843 63.19863281 301.29966843 63.19863281 302.42459106 63.18383789 C305.86044176 63.23355903 307.68164336 63.465984 310.43714905 65.59385681 C312.28680307 68.0978134 312.85227085 69.60631796 313.00390625 72.71484375 C312.28556746 75.52289537 311.79907612 77.15756028 309.39358521 78.84341431 C306.09018948 80.04804319 302.92597714 79.99040618 299.45654297 79.97021484 C298.70148972 79.9738353 297.94643646 79.97745575 297.16850281 79.98118591 C295.53106772 79.98807065 293.89360974 79.99058708 292.25616074 79.98923874 C289.65695544 79.98827134 287.0581613 80.00124327 284.45901489 80.01821899 C277.06971469 80.06441031 269.68045524 80.08907002 262.29101562 80.09570312 C257.76692099 80.1007428 253.24325285 80.12512136 248.71930313 80.16102982 C247.0027028 80.17077588 245.28604339 80.17318836 243.56942368 80.16785812 C231.21817389 80.13132453 221.08672302 80.97408217 211.6953125 89.77734375 C207.37936956 94.72124144 204.89750181 100.73883346 204.84568787 107.28959656 C204.83102683 108.69381756 204.83102683 108.69381756 204.8160696 110.12640667 C204.81029935 111.15550057 204.80452909 112.18459448 204.79858398 113.24487305 C204.78855126 114.34548726 204.77851854 115.44610147 204.7681818 116.58006763 C204.73675021 120.14971104 204.71200635 123.71936553 204.6875 127.2890625 C204.66910087 129.49011603 204.65026442 131.69116595 204.63098145 133.89221191 C204.56248328 142.06221309 204.50246287 150.23228357 204.44140625 158.40234375 C204.29703125 176.65546875 204.15265625 194.90859375 204.00390625 213.71484375 C270.33390625 213.71484375 336.66390625 213.71484375 405.00390625 213.71484375 C405.00390625 169.49484375 405.00390625 125.27484375 405.00390625 79.71484375 C382.80512718 79.79399267 382.80512718 79.79399267 360.60644531 79.89501953 C356.30810547 79.90405273 356.30810547 79.90405273 354.29437256 79.9057312 C352.8912021 79.90879766 351.48803684 79.9158221 350.0848999 79.92599487 C347.95657222 79.94065083 345.82856595 79.94265521 343.70019531 79.94189453 C341.90149994 79.94855637 341.90149994 79.94855637 340.06646729 79.95535278 C337.10278069 79.72260856 335.46387778 79.32860493 333.00390625 77.71484375 C330.92231605 75.03851349 331.00803034 73.59730707 331.12890625 70.15234375 C332.00390625 66.71484375 332.00390625 66.71484375 333.62860107 65.02702332 C336.82753547 63.25984982 339.23470493 63.31528621 342.88378906 63.2824707 C343.90879013 63.26718323 343.90879013 63.26718323 344.95449829 63.25158691 C347.20542621 63.22147538 349.45592845 63.21219422 351.70703125 63.203125 C353.27074597 63.18627687 354.83444717 63.16812644 356.39813232 63.14872742 C360.50801363 63.10123553 364.61784006 63.0714211 368.72790527 63.04528809 C372.92418249 63.01547836 377.12027068 62.96894947 381.31640625 62.92382812 C389.54548003 62.83780429 397.77457102 62.77045511 406.00390625 62.71484375 C406.27380371 62.16779785 406.54370117 61.62075195 406.82177734 61.05712891 C407.17836426 60.33831543 407.53495117 59.61950195 407.90234375 58.87890625 C408.25474121 58.16686035 408.60713867 57.45481445 408.97021484 56.72119141 C412.67539295 49.52961047 419.4278768 45.2401869 427.00390625 42.71484375 C437.83990835 41.92228245 445.92515039 42.69941199 454.75390625 49.33984375 C460.3438365 54.43578016 463.79108852 62.13932478 464.14092064 69.66061306 C464.14649294 70.81557813 464.15206524 71.97054319 464.1578064 73.1605072 C464.16218865 73.80559835 464.1665709 74.45068949 464.17108595 75.11532885 C464.18442985 77.27472422 464.19064272 79.43407884 464.19677734 81.59350586 C464.2046815 83.14261559 464.21295064 84.69172349 464.22155762 86.24082947 C464.24773123 91.3245977 464.26307591 96.408374 464.27734375 101.4921875 C464.28270446 103.24293078 464.28808197 104.99367401 464.2934761 106.74441719 C464.31509379 114.02501557 464.33383209 121.30561176 464.3450985 128.58623409 C464.36135133 139.01994082 464.39457395 149.45327601 464.45149934 159.88684267 C464.49017034 167.22452044 464.50972753 174.56209869 464.51501906 181.8998757 C464.51867508 186.28258569 464.53072353 190.66489897 464.5631218 195.0474987 C464.59315443 199.16886666 464.59953179 203.28959682 464.58773804 207.4110508 C464.58751693 208.92316946 464.59585303 210.43531733 464.61339188 211.94733429 C464.63604902 214.0130579 464.62780925 216.07646146 464.61190796 218.14219666 C464.61687318 219.87520979 464.61687318 219.87520979 464.62193871 221.6432333 C464.00390625 224.71484375 464.00390625 224.71484375 459.00390625 229.71484375 C451.41390625 229.71484375 443.82390625 229.71484375 436.00390625 229.71484375 C436.00390625 249.84484375 436.00390625 269.97484375 436.00390625 290.71484375 C438.64390625 291.37484375 441.28390625 292.03484375 444.00390625 292.71484375 C452.5362353 296.83250255 459.73970078 304.01094408 463.50390625 312.71484375 C466.54938617 322.38152332 466.73688043 334.36179552 462.26171875 343.578125 C456.89993343 352.68649944 450.10323655 359.30144988 440.04296875 363.0234375 C429.79553557 365.35479441 418.03371309 364.98056775 408.9375 359.4609375 C399.72644767 353.04640959 393.98023054 345.17351171 391.41796875 334.20703125 C389.51582923 322.75830471 392.36527822 313.06354461 399.00390625 303.71484375 C399.56078125 302.84859375 400.11765625 301.98234375 400.69140625 301.08984375 C406.18568588 295.44707007 412.51295512 292.8551155 420.00390625 290.71484375 C420.00390625 283.12484375 420.00390625 275.53484375 420.00390625 267.71484375 C282.72390625 267.71484375 145.44390625 267.71484375 4.00390625 267.71484375 C4.00390625 275.30484375 4.00390625 282.89484375 4.00390625 290.71484375 C8.45890625 292.19984375 8.45890625 292.19984375 13.00390625 293.71484375 C21.49592684 297.74758412 27.25035903 304.77346501 31.16796875 313.2265625 C34.4940115 322.87830337 34.06719752 333.37235207 30.00390625 342.71484375 C25.56844033 351.23036968 18.89824048 358.36828039 10.00390625 362.21484375 C-0.61819755 365.53704452 -12.39725412 365.15953881 -22.4140625 360.25390625 C-31.86149813 354.62260574 -38.13062964 346.40823482 -40.99609375 335.71484375 C-42.07990245 322.96118792 -40.89254555 312.76319809 -32.6171875 302.52734375 C-27.22610374 296.49972239 -21.76191523 293.12835317 -13.99609375 290.71484375 C-13.33609375 290.71484375 -12.67609375 290.71484375 -11.99609375 290.71484375 C-11.99609375 270.58484375 -11.99609375 250.45484375 -11.99609375 229.71484375 C-22.01850238 229.87289543 -22.01850238 229.87289543 -32.04003906 230.07519531 C-33.91320801 230.09018066 -33.91320801 230.09018066 -35.82421875 230.10546875 C-37.10200195 230.12641602 -38.37978516 230.14736328 -39.69628906 230.16894531 C-42.99609375 229.71484375 -42.99609375 229.71484375 -45.16899109 228.29034424 C-47.94682326 224.3746868 -47.56269288 220.74548799 -47.52954102 216.05273438 C-47.54246437 214.58383003 -47.54246437 214.58383003 -47.5556488 213.08525085 C-47.57835941 209.84692995 -47.5715607 206.60947079 -47.5625 203.37109375 C-47.56773308 201.12194562 -47.5740084 198.87279968 -47.58128357 196.62365723 C-47.59169705 191.90931879 -47.58711216 187.19528203 -47.57250977 182.48095703 C-47.55531564 176.43442443 -47.57882085 170.38884148 -47.61399937 164.34241486 C-47.63594039 159.69787274 -47.6345399 155.05355904 -47.62623405 150.40898132 C-47.62541283 148.17940733 -47.63230872 145.94981685 -47.64700508 143.72029114 C-47.66439073 140.6052479 -47.64995768 137.49192649 -47.62719727 134.37695312 C-47.63888947 133.45319382 -47.65058167 132.52943451 -47.66262817 131.5776825 C-47.57004562 125.36197802 -47.57004562 125.36197802 -44.68321228 122.10705566 C-41.01458528 120.20631844 -38.9244227 120.62364126 -34.99609375 121.71484375 C-34.00609375 122.70484375 -33.01609375 123.69484375 -31.99609375 124.71484375 C-31.99609375 154.08484375 -31.99609375 183.45484375 -31.99609375 213.71484375 C40.60390625 213.71484375 113.20390625 213.71484375 188.00390625 213.71484375 C188.00390625 205.13484375 188.00390625 196.55484375 188.00390625 187.71484375 C185.68478714 187.72150558 183.36566803 187.72816742 180.97627258 187.73503113 C159.15380065 187.79628789 137.33134003 187.84095914 115.50880146 187.87028027 C104.28879212 187.88575601 93.06884583 187.9068591 81.84887695 187.94116211 C72.07074367 187.97104275 62.29265605 187.9904136 52.51447839 187.99710923 C47.3359275 188.00102374 42.15750724 188.01023817 36.97899818 188.03203392 C32.10598779 188.05237793 27.23316198 188.05868175 22.36011314 188.05416679 C20.57065198 188.05499293 18.78118472 188.06097097 16.99176025 188.07246017 C14.54976545 188.08737176 12.10846887 188.08380243 9.66645813 188.0756073 C8.95730595 188.08434582 8.24815378 188.09308435 7.51751214 188.10208768 C3.17390135 188.06264957 0.44926946 187.38778103 -2.99609375 184.71484375 C-5.38855473 181.12615229 -5.24845618 179.54694955 -5.25437927 175.28227234 C-5.25805498 174.62649053 -5.26173068 173.97070872 -5.26551777 173.29505473 C-5.27551334 171.09335298 -5.27134393 168.89190303 -5.26733398 166.69018555 C-5.27172021 165.11328868 -5.27702199 163.53639414 -5.28317261 161.95950317 C-5.29468285 158.56115489 -5.30013278 155.16286904 -5.301054 151.76450157 C-5.30299278 146.38996572 -5.32103597 141.01555914 -5.34181213 135.6410675 C-5.39103011 122.28923081 -5.42187823 108.93735889 -5.44311523 95.58544922 C-5.45963818 85.21412783 -5.48245824 74.8429169 -5.52613598 64.4716695 C-5.5479143 59.13023006 -5.55596996 53.78900044 -5.55374324 48.44751966 C-5.55541119 45.12136521 -5.56946745 41.79534743 -5.58695602 38.4692421 C-5.59255077 36.92855257 -5.59304512 35.38783465 -5.58801842 33.84714317 C-5.58186693 31.74057232 -5.59412571 29.63486216 -5.61082458 27.52836609 C-5.61283591 26.35052394 -5.61484724 25.17268179 -5.61691952 23.95914745 C-6.04813213 20.26959119 -7.06284439 17.8724172 -8.99609375 14.71484375 C-13.32128351 11.76585073 -16.81571454 11.06729635 -21.99609375 11.71484375 C-25.69999396 13.74150613 -27.64972386 15.19528891 -29.99609375 18.71484375 C-31.12700038 22.8106028 -31.12653629 26.77957572 -31.13793945 31.01196289 C-31.14141388 31.72803207 -31.14488831 32.44410126 -31.14846802 33.18186951 C-31.15579438 34.72981562 -31.1611563 36.27777202 -31.16475868 37.82573128 C-31.17195213 40.27627622 -31.1876376 42.72662418 -31.20610046 45.17710876 C-31.25845253 52.14189046 -31.30658343 59.10655868 -31.32202148 66.0715332 C-31.33209532 70.33744305 -31.36139521 74.60284831 -31.40334129 78.86855888 C-31.41565588 80.49241765 -31.4207717 82.11634761 -31.41854286 83.74025154 C-31.41619305 86.00975751 -31.43832576 88.27780957 -31.46606445 90.54711914 C-31.47193069 91.83775772 -31.47779694 93.1283963 -31.48384094 94.45814514 C-31.99609375 97.71484375 -31.99609375 97.71484375 -33.81047058 100.13157654 C-37.00567285 102.44618367 -39.15190037 102.26401423 -42.99609375 101.71484375 C-45.1815033 100.17251587 -45.1815033 100.17251587 -46.99609375 97.71484375 C-47.39609383 94.97381918 -47.55381504 92.63224545 -47.52954102 89.89208984 C-47.53815659 89.10777588 -47.54677216 88.32346191 -47.5556488 87.51538086 C-47.57834655 84.92267817 -47.57155917 82.33105397 -47.5625 79.73828125 C-47.56773684 77.92949097 -47.57401355 76.12070342 -47.58128357 74.31192017 C-47.591697 70.51722386 -47.58711726 66.72290225 -47.57250977 62.92822266 C-47.55538886 58.08614794 -47.57872864 53.24526733 -47.61399937 48.40332603 C-47.63606812 44.66440088 -47.63450794 40.92575671 -47.62623405 37.18678665 C-47.62541838 35.40316083 -47.63220773 33.61951357 -47.64700508 31.83594894 C-47.72593978 20.59152817 -47.30285247 12.10772544 -39.8203125 3.09375 C-27.85743068 -7.07579304 -13.64335163 -8.78407571 0 0 Z M425.00390625 61.71484375 C421.47569369 66.62913981 420.87843012 70.67205155 420.88365173 76.62469482 C420.88227707 77.83341751 420.8809024 79.0421402 420.87948608 80.28749084 C420.88302496 81.62362696 420.88665976 82.95976282 420.89038086 84.29589844 C420.89066299 85.7053375 420.8905045 87.11477672 420.88993835 88.5242157 C420.88965137 92.34824992 420.89553212 96.17225279 420.90251231 99.99627972 C420.90876231 103.99346953 420.90935095 107.99066006 420.91053772 111.987854 C420.91364617 119.55611994 420.92185303 127.12437143 420.93188721 134.69263101 C420.94306342 143.30924466 420.9485626 151.92585899 420.95358264 160.54247808 C420.96403603 178.26660982 420.98237549 195.99072177 421.00390625 213.71484375 C429.91390625 213.71484375 438.82390625 213.71484375 448.00390625 213.71484375 C448.09424266 194.93008177 448.16790921 176.14549598 448.21115494 157.36057186 C448.23176947 148.6381699 448.2598688 139.91591261 448.30566406 131.19360352 C448.34556587 123.59014858 448.37134713 115.98679844 448.38026023 108.38324171 C448.38546935 104.35815015 448.39768929 100.33335834 448.42682648 96.30836296 C448.45404862 92.51706633 448.46233767 88.72619191 448.45633698 84.93480682 C448.45743419 83.54608679 448.46534792 82.15735211 448.48072815 80.76871681 C448.60800694 70.53222727 448.60800694 70.53222727 444.00390625 61.71484375 C440.33449771 58.46479619 436.87851899 58.24911934 432.15234375 58.4296875 C429.1106411 58.8334044 427.33383593 59.72755079 425.00390625 61.71484375 Z M11.00390625 78.71484375 C11.00390625 89.27484375 11.00390625 99.83484375 11.00390625 110.71484375 C34.76390625 110.71484375 58.52390625 110.71484375 83.00390625 110.71484375 C81.05003272 104.37975504 81.05003272 104.37975504 77.00390625 99.71484375 C69.33752619 96.36805175 61.125932 94.10298459 53.15234375 91.60546875 C51.97169342 91.23379578 50.79104309 90.8621228 49.57461548 90.47918701 C47.10268263 89.70159 44.63037717 88.92517659 42.15771484 88.14990234 C39.62015123 87.35410613 37.08294523 86.55728361 34.54638672 85.75830078 C30.87389365 84.60152451 27.20075801 83.44681602 23.52734375 82.29296875 C22.38582855 81.93366272 21.24431335 81.57435669 20.06820679 81.2041626 C19.02266632 80.87672058 17.97712585 80.54927856 16.89990234 80.21191406 C15.97599701 79.92197571 15.05209167 79.63203735 14.10018921 79.33331299 C12.20832052 78.66768161 12.20832052 78.66768161 11.00390625 78.71484375 Z M11.00390625 126.71484375 C11.00390625 141.56484375 11.00390625 156.41484375 11.00390625 171.71484375 C69.41390625 171.71484375 127.82390625 171.71484375 188.00390625 171.71484375 C188.00390625 156.86484375 188.00390625 142.01484375 188.00390625 126.71484375 C129.59390625 126.71484375 71.18390625 126.71484375 11.00390625 126.71484375 Z M4.00390625 229.71484375 C4.00390625 236.97484375 4.00390625 244.23484375 4.00390625 251.71484375 C141.28390625 251.71484375 278.56390625 251.71484375 420.00390625 251.71484375 C420.00390625 244.45484375 420.00390625 237.19484375 420.00390625 229.71484375 C282.72390625 229.71484375 145.44390625 229.71484375 4.00390625 229.71484375 Z M-20.43359375 313.15234375 C-24.66878292 318.3528182 -25.45933752 323.37993461 -25.30078125 329.93359375 C-24.72288115 335.20878443 -22.96453129 338.90087112 -19.0546875 342.50390625 C-12.3235274 347.73512091 -6.46559791 348.6606767 2.00390625 347.71484375 C8.59174577 345.21749282 13.41585061 340.19344181 16.31640625 333.83984375 C17.93114543 326.5001202 17.25239132 321.64328464 13.69921875 315.0546875 C10.14840854 310.15391488 4.95188337 306.85124588 -0.99609375 305.71484375 C-8.73351934 304.95627261 -15.24144559 307.35233435 -20.43359375 313.15234375 Z M414.25390625 311.02734375 C408.7595804 317.59001074 406.29855419 322.10954857 407.00390625 330.71484375 C409.19086859 338.27699065 413.23587231 342.79993224 419.86328125 346.8515625 C424.91239012 348.88779071 431.15846568 348.46165373 436.35546875 347.09765625 C441.7678325 344.73627747 445.03003824 340.7261715 448.00390625 335.71484375 C449.83159002 330.23179244 450.16749378 323.7843074 448.09765625 318.32421875 C444.88590183 312.93011837 440.84056055 308.98228503 435.06640625 306.40234375 C427.16242145 304.62797982 420.45171685 305.81554847 414.25390625 311.02734375 Z " fill="#000000" transform="translate(46.99609375,148.28515625)"/>
<path d="M0 0 C21.53111381 16.06575438 34.82741516 38.26583288 39.22924805 64.68896484 C42.87829933 89.92653738 36.76676418 116.05818036 21.95703125 136.87109375 C20.0360421 139.31227339 18.04316112 141.66078901 16 144 C15.47148437 144.67160156 14.94296875 145.34320313 14.3984375 146.03515625 C0.53261254 163.21375219 -22.46012785 173.96579467 -44 177 C-64.2587654 178.42337661 -82.59008912 176.90465193 -101 168 C-101.89847656 167.57074219 -102.79695313 167.14148438 -103.72265625 166.69921875 C-127.36619533 154.62230311 -144.21766414 133.3518019 -152.375 108.25 C-152.94695179 106.17477671 -153.49054576 104.09144374 -154 102 C-154.22429687 101.09765625 -154.44859375 100.1953125 -154.6796875 99.265625 C-159.94859636 73.71502586 -154.28406815 46.4644934 -140.16552734 24.69238281 C-124.86300827 2.47263789 -101.73860927 -12.5114692 -75.18261719 -17.53271484 C-48.33191384 -21.47504732 -21.9916557 -15.93646457 0 0 Z M-118.17578125 23.11328125 C-133.32256417 39.20122349 -140.5550755 60.27978315 -140.42382812 82.15356445 C-139.70203447 104.96565788 -129.27302569 125.26211118 -113 141 C-94.51095367 157.02384015 -72.78810234 162.47053337 -48.78515625 161.21875 C-31.84010778 159.8878626 -16.61544675 152.09972764 -4 141 C-3.1646875 140.35289062 -2.329375 139.70578125 -1.46875 139.0390625 C12.84679734 127.21514523 21.21718774 107.00763051 23.71875 89.015625 C25.91269351 65.49167516 18.79431482 43.50073537 3.8125 25.3125 C-10.58313217 8.5566853 -30.75487044 -0.47480842 -52.4375 -2.875 C-77.67698224 -4.12293484 -100.18887514 5.64305467 -118.17578125 23.11328125 Z " fill="#000000" transform="translate(295,18)"/>
<path d="M0 0 C0.95970703 -0.02449219 1.91941406 -0.04898438 2.90820312 -0.07421875 C9.20373889 -0.10000251 13.94376683 0.76474572 19.1875 4.375 C23.66739751 8.85489751 25.2852018 13.63183071 25.3828125 19.8984375 C25.36966369 21.51574138 25.34602652 23.1329902 25.3125 24.75 C25.30347656 25.58144531 25.29445313 26.41289063 25.28515625 27.26953125 C25.2617622 29.30481337 25.22589725 31.33994564 25.1875 33.375 C25.75670166 33.35405273 26.32590332 33.33310547 26.91235352 33.31152344 C29.52471816 33.22769006 32.13679884 33.17613182 34.75 33.125 C35.64525391 33.09148437 36.54050781 33.05796875 37.46289062 33.0234375 C43.63149763 32.93305498 47.14641853 33.76671613 52.1875 37.375 C57.99904479 43.64535095 57.43065793 49.47961812 57.5 57.625 C57.54350586 59.30529297 57.54350586 59.30529297 57.58789062 61.01953125 C57.63938992 67.73028548 57.25677572 71.95424949 53.1875 77.375 C49.08478463 81.17751669 46.06720781 82.50799177 40.51953125 82.47265625 C39.62685547 82.46943359 38.73417969 82.46621094 37.81445312 82.46289062 C36.42129883 82.45032227 36.42129883 82.45032227 35 82.4375 C34.05962891 82.43298828 33.11925781 82.42847656 32.15039062 82.42382812 C29.82936288 82.41204626 27.50846356 82.39559558 25.1875 82.375 C25.22230469 83.5815625 25.25710938 84.788125 25.29296875 86.03125 C25.32112984 87.64581928 25.34842749 89.26040379 25.375 90.875 C25.40013672 91.66648437 25.42527344 92.45796875 25.45117188 93.2734375 C25.52449312 99.23689903 24.97152714 105.21387979 20.84106445 109.90380859 C14.46423556 115.51981794 8.46033264 115.73926963 0.375 115.75 C-0.58470703 115.77449219 -1.54441406 115.79898438 -2.53320312 115.82421875 C-8.82079258 115.84996997 -13.58124133 114.9967643 -18.8125 111.375 C-23.9507556 106.10152714 -25.04302965 101.32630665 -24.98828125 94.18164062 C-24.97152344 93.31732422 -24.95476562 92.45300781 -24.9375 91.5625 C-24.92847656 90.67884766 -24.91945312 89.79519531 -24.91015625 88.88476562 C-24.88669637 86.71472641 -24.85082865 84.54482753 -24.8125 82.375 C-25.38693848 82.39071045 -25.96137695 82.4064209 -26.55322266 82.42260742 C-29.18121309 82.48535513 -31.80904537 82.52411506 -34.4375 82.5625 C-35.34113281 82.58763672 -36.24476563 82.61277344 -37.17578125 82.63867188 C-43.27890723 82.70549442 -47.79223306 82.19439408 -52.45703125 77.83984375 C-57.55097374 71.17853434 -57.06085808 66.37792673 -57.125 58.125 C-57.15400391 56.89652344 -57.18300781 55.66804688 -57.21289062 54.40234375 C-57.29208293 43.15703652 -57.29208293 43.15703652 -52.8125 38.375 C-48.65517152 34.62326454 -45.71350822 33.24187256 -40.14453125 33.27734375 C-39.25185547 33.28056641 -38.35917969 33.28378906 -37.43945312 33.28710938 C-36.04629883 33.29967773 -36.04629883 33.29967773 -34.625 33.3125 C-33.68462891 33.31701172 -32.74425781 33.32152344 -31.77539062 33.32617188 C-29.45436288 33.33795374 -27.13346356 33.35440442 -24.8125 33.375 C-24.85890625 32.09625 -24.9053125 30.8175 -24.953125 29.5 C-24.99067027 27.79169021 -25.02706745 26.08335492 -25.0625 24.375 C-25.11277344 23.11623047 -25.11277344 23.11623047 -25.1640625 21.83203125 C-25.25733514 15.81594576 -24.21313094 11.39587408 -20.8125 6.375 C-14.54533977 0.26853619 -8.31966697 0.01104136 0 0 Z M-8.8125 17.375 C-8.93421441 19.3386341 -8.99222191 21.30628248 -9.0234375 23.2734375 C-9.06597656 25.07554688 -9.06597656 25.07554688 -9.109375 26.9140625 C-9.16129628 29.46339734 -9.20561535 32.01289878 -9.2421875 34.5625 C-9.273125 35.76648438 -9.3040625 36.97046875 -9.3359375 38.2109375 C-9.35575684 39.32001465 -9.37557617 40.4290918 -9.39599609 41.57177734 C-9.8125 44.375 -9.8125 44.375 -11.21728516 46.19775391 C-14.40625699 48.55117022 -16.77346182 48.55813948 -20.6953125 48.69140625 C-21.86191406 48.73330078 -23.02851563 48.77519531 -24.23046875 48.81835938 C-25.45378906 48.85767578 -26.67710937 48.89699219 -27.9375 48.9375 C-29.16855469 48.98068359 -30.39960938 49.02386719 -31.66796875 49.06835938 C-34.71600512 49.17468623 -37.76423739 49.27536972 -40.8125 49.375 C-40.8125 54.985 -40.8125 60.595 -40.8125 66.375 C-38.06679687 66.44847656 -38.06679687 66.44847656 -35.265625 66.5234375 C-32.86456804 66.59847053 -30.46352712 66.67401813 -28.0625 66.75 C-26.8559375 66.7809375 -25.649375 66.811875 -24.40625 66.84375 C-23.24609375 66.88242188 -22.0859375 66.92109375 -20.890625 66.9609375 C-19.82231445 66.9923584 -18.75400391 67.0237793 -17.65332031 67.05615234 C-14.85403943 67.3703377 -13.15661351 67.84377553 -10.8125 69.375 C-9.44633421 72.10733158 -9.61428757 74.38690444 -9.53125 77.44140625 C-9.49386719 78.64861328 -9.45648438 79.85582031 -9.41796875 81.09960938 C-9.34754898 83.66210643 -9.27723681 86.22460644 -9.20703125 88.78710938 C-9.16964844 89.99302734 -9.13226563 91.19894531 -9.09375 92.44140625 C-9.06345703 93.55459229 -9.03316406 94.66777832 -9.00195312 95.81469727 C-9.09766595 98.3075001 -9.09766595 98.3075001 -7.8125 99.375 C-5.1351862 99.47481214 -2.48945825 99.51379875 0.1875 99.5 C1.31285156 99.50580078 1.31285156 99.50580078 2.4609375 99.51171875 C6.12356117 99.85175541 6.12356117 99.85175541 9.1875 98.375 C9.32143795 96.41170705 9.39106086 94.44395913 9.43359375 92.4765625 C9.46646484 91.27515625 9.49933594 90.07375 9.53320312 88.8359375 C9.59421202 86.28654458 9.65152691 83.73706048 9.70507812 81.1875 C9.73923828 79.98351562 9.77339844 78.77953125 9.80859375 77.5390625 C9.84617798 75.87544678 9.84617798 75.87544678 9.88452148 74.17822266 C10.1875 71.375 10.1875 71.375 12.1875 68.375 C15.36259982 67.31663339 17.83032383 67.17256211 21.16796875 67.05859375 C22.33134766 67.01669922 23.49472656 66.97480469 24.69335938 66.93164062 C25.90830078 66.89232422 27.12324219 66.85300781 28.375 66.8125 C29.60154297 66.76931641 30.82808594 66.72613281 32.09179688 66.68164062 C35.12356192 66.57546986 38.155516 66.47472236 41.1875 66.375 C41.1875 60.765 41.1875 55.155 41.1875 49.375 C39.35703125 49.32601562 37.5265625 49.27703125 35.640625 49.2265625 C33.23956804 49.15152947 30.83852712 49.07598187 28.4375 49 C27.2309375 48.9690625 26.024375 48.938125 24.78125 48.90625 C23.62109375 48.86757812 22.4609375 48.82890625 21.265625 48.7890625 C20.19731445 48.7576416 19.12900391 48.7262207 18.02832031 48.69384766 C15.22903943 48.3796623 13.53161351 47.90622447 11.1875 46.375 C9.82133421 43.64266842 9.98928757 41.36309556 9.90625 38.30859375 C9.85017578 36.4977832 9.85017578 36.4977832 9.79296875 34.65039062 C9.72254898 32.08789357 9.65223681 29.52539356 9.58203125 26.96289062 C9.52595703 25.15401367 9.52595703 25.15401367 9.46875 23.30859375 C9.43845703 22.19540771 9.40816406 21.08222168 9.37695312 19.93530273 C9.47266595 17.4424999 9.47266595 17.4424999 8.1875 16.375 C5.5101862 16.27518786 2.86445825 16.23620125 0.1875 16.25 C-0.56273437 16.24613281 -1.31296875 16.24226563 -2.0859375 16.23828125 C-5.74856117 15.89824459 -5.74856117 15.89824459 -8.8125 17.375 Z " fill="#000000" transform="translate(236.8125,39.625)"/>
</svg>
