<?xml version="1.0" encoding="UTF-8"?>
<svg version="1.1" xmlns="http://www.w3.org/2000/svg" width="512" height="512">
<path d="M0 0 C0.86333741 -0.00367669 1.72667483 -0.00735338 2.61617398 -0.01114148 C5.52026534 -0.02218854 8.42432094 -0.02602389 11.32843018 -0.02983093 C13.40615961 -0.03609478 15.48388792 -0.04274151 17.56161499 -0.04974365 C23.21461573 -0.06715986 28.86760801 -0.07770698 34.52062893 -0.08594918 C38.05130345 -0.09109773 41.58197534 -0.09717351 45.11264801 -0.10346031 C56.15604777 -0.12251361 67.19944084 -0.13674479 78.24285388 -0.14507228 C90.99676646 -0.15484802 103.75050564 -0.18117589 116.5043571 -0.22157317 C126.35837476 -0.25171593 136.21234266 -0.26653939 146.06640553 -0.26985329 C151.95369864 -0.27220574 157.84080652 -0.28119178 163.72805023 -0.30631447 C169.26679757 -0.32956805 174.80523737 -0.33383922 180.34402084 -0.32355309 C182.37614082 -0.32305697 184.40827579 -0.32939969 186.44034958 -0.34310913 C189.21662436 -0.36079034 191.99179096 -0.35374041 194.76806641 -0.34057617 C195.97173359 -0.35703004 195.97173359 -0.35703004 197.19971728 -0.37381631 C202.78691427 -0.30994043 206.03900124 0.93519141 210.63800049 4.14717102 C214.95239406 9.71046799 215.83779566 14.01911017 215.88800049 20.89717102 C215.91893799 21.93357727 215.91893799 21.93357727 215.95050049 22.99092102 C215.99951422 29.50974709 214.56520447 34.17616695 209.88800049 38.95967102 C206.63800049 41.14717102 206.63800049 41.14717102 199.63800049 43.14717102 C199.63800049 48.42717102 199.63800049 53.70717102 199.63800049 59.14717102 C201.1508815 59.13828857 202.66376251 59.12940613 204.2224884 59.12025452 C218.48022648 59.03916638 232.73788286 58.97896394 246.99578953 58.93992233 C254.325921 58.91931622 261.65588007 58.89123324 268.98590088 58.84541321 C275.37638862 58.80548532 281.76675148 58.77972402 288.15736049 58.77081704 C291.53972681 58.76561226 294.92173592 58.75342068 298.3039875 58.72425079 C302.08424176 58.69521289 305.86375615 58.69121538 309.644104 58.69306946 C311.31753876 58.6714978 311.31753876 58.6714978 313.02478027 58.64949036 C319.45876654 58.68363435 323.42853641 59.26702149 328.63800049 63.14717102 C334.69048253 70.79241149 334.17011725 78.78994793 333.63800049 88.14717102 C332.69908059 93.28108167 329.66068168 96.52407956 325.94268799 99.98310852 C323.63800049 101.14717102 323.63800049 101.14717102 314.63800049 102.14717102 C314.63800049 217.31717102 314.63800049 332.48717102 314.63800049 451.14717102 C320.24800049 451.14717102 325.85800049 451.14717102 331.63800049 451.14717102 C337.18365323 453.09175055 340.45896307 455.18787265 343.63800049 460.14717102 C345.05898934 464.41013759 344.90261111 468.49318802 344.95050049 472.95967102 C344.99400635 474.2948175 344.99400635 474.2948175 345.03839111 475.65693665 C345.09332072 481.35693975 344.48505497 484.64842972 340.63800049 489.14717102 C335.58808792 493.59590352 332.61749248 494.29440398 326.03726578 494.2813921 C325.23984329 494.28374433 324.4424208 494.28609656 323.62083399 494.28852007 C320.9201829 494.29523362 318.21957966 494.29475114 315.5189209 494.29434204 C313.57456442 494.2976392 311.63020863 494.30136445 309.68585372 494.30548352 C304.32041223 494.31552844 298.95498194 494.31922431 293.58953238 494.32187283 C287.81161616 494.3257685 282.03370887 494.3353473 276.25579834 494.34408569 C262.29133683 494.36387067 248.32687458 494.37391873 234.36240256 494.38281348 C227.79225786 494.38719292 221.22211397 494.3925606 214.65196991 494.39780235 C192.82169377 494.41481641 170.99141836 494.42933671 149.16113663 494.43655109 C147.74888118 494.43702585 146.33662572 494.43750174 144.92437027 494.43797876 C143.87382398 494.43833332 143.87382398 494.43833332 142.80205453 494.43869505 C139.25355474 494.43989627 135.70505496 494.44111171 132.15655518 494.44233704 C131.45233975 494.44257719 130.74812433 494.44281734 130.02256904 494.44306476 C107.18499491 494.45095948 84.34747268 494.47439428 61.50992121 494.50689298 C37.37486075 494.54117549 13.23983086 494.56089961 -10.89525437 494.56419533 C-24.05562726 494.56636378 -37.21592387 494.57516123 -50.37627411 494.60065651 C-61.58159452 494.62231373 -72.78682013 494.63043851 -83.9921591 494.62068973 C-89.7123431 494.61613061 -95.43233129 494.61812462 -101.15248871 494.63745117 C-106.38583118 494.65498072 -111.61883351 494.65416855 -116.85217908 494.63855388 C-118.74858369 494.63616222 -120.64501122 494.64058134 -122.54138061 494.65238253 C-125.11397101 494.6674042 -127.68534098 494.65789704 -130.25790024 494.64215565 C-130.99881751 494.65237785 -131.73973478 494.66260006 -132.50310409 494.67313203 C-137.58706752 494.60496633 -140.43498177 493.32258572 -144.36199951 490.14717102 C-149.42188263 484.40351991 -149.59543426 480.86544959 -149.67449951 473.45967102 C-149.70350342 472.57344055 -149.73250732 471.68721008 -149.76239014 470.77412415 C-149.82115502 464.66709678 -148.9597605 461.12321095 -145.36199951 456.14717102 C-136.41618454 449.20960022 -132.63702233 451.14717102 -119.36199951 451.14717102 C-119.36199951 335.97717102 -119.36199951 220.80717102 -119.36199951 102.14717102 C-122.33199951 101.81717102 -125.30199951 101.48717102 -128.36199951 101.14717102 C-130.92059326 99.72920227 -130.92059326 99.72920227 -132.79949951 97.95967102 C-133.43758545 97.38861633 -134.07567139 96.81756165 -134.73309326 96.22920227 C-139.85284868 89.6852463 -138.91101198 80.99633364 -138.36199951 73.14717102 C-137.25914849 67.95170879 -134.36509235 64.5644454 -130.36199951 61.14717102 C-127.2276766 59.23709038 -124.89888359 58.89915274 -121.24938965 58.90666199 C-120.2173642 58.90391266 -119.18533875 58.90116333 -118.12203979 58.89833069 C-116.9956308 58.90552124 -115.8692218 58.91271179 -114.7086792 58.92012024 C-112.92289963 58.91968216 -112.92289963 58.91968216 -111.1010437 58.91923523 C-107.84098521 58.92038932 -104.58109871 58.93041562 -101.32107449 58.94438314 C-97.91246222 58.95689083 -94.50384652 58.95806103 -91.09521484 58.96043396 C-84.64252626 58.96664862 -78.18990549 58.98305923 -71.73724675 59.00313294 C-64.39026585 59.02549238 -57.0432817 59.03648548 -49.69627523 59.04652381 C-34.58481125 59.06742549 -19.4734147 59.10300434 -4.36199951 59.14717102 C-4.36199951 53.86717102 -4.36199951 48.58717102 -4.36199951 43.14717102 C-5.72324951 42.79654602 -7.08449951 42.44592102 -8.48699951 42.08467102 C-13.57288459 40.40007186 -16.60553911 37.7248642 -19.36199951 33.14717102 C-21.69810893 26.76944898 -21.37522646 16.93575875 -19.64324951 10.45967102 C-17.71459834 6.35351047 -15.15351077 3.57762696 -11.36199951 1.14717102 C-7.55053609 -0.12331679 -3.97150713 -0.00090242 0 0 Z M-5.36199951 16.14717102 C-5.80217652 18.51216606 -5.80217652 18.51216606 -5.67449951 21.14717102 C-5.67063232 22.03404602 -5.66676514 22.92092102 -5.66278076 23.83467102 C-5.57602358 26.33981157 -5.57602358 26.33981157 -3.36199951 28.14717102 C-0.69589127 28.34480552 1.8664402 28.41641866 4.53375244 28.40113831 C5.77151538 28.40581828 5.77151538 28.40581828 7.03428364 28.41059279 C9.81502112 28.41860628 12.59554241 28.41223618 15.37628174 28.40596008 C17.36345549 28.40866846 19.35062824 28.41222852 21.33779907 28.4165802 C26.74675822 28.42572472 32.15564136 28.42215147 37.5646019 28.41582203 C43.21447714 28.41077268 48.8643457 28.4154505 54.51422119 28.41859436 C64.00373508 28.42223712 73.49321788 28.41742678 82.98272705 28.40791321 C93.96745832 28.39702807 104.95211536 28.40055343 115.93684483 28.41156602 C125.35340544 28.42063007 134.76994366 28.4219285 144.18650723 28.41668868 C149.8170487 28.41356412 155.44755523 28.41317293 161.07809448 28.41976166 C166.37052526 28.42552169 171.66285995 28.42156294 176.9552803 28.40997314 C178.90240952 28.40731935 180.84954676 28.40810383 182.79667282 28.41249847 C185.44530876 28.4179271 188.09363272 28.4111527 190.74224854 28.40113831 C191.91042099 28.40783047 191.91042099 28.40783047 193.10219288 28.41465783 C197.32979065 28.53077288 197.32979065 28.53077288 200.63800049 26.14717102 C200.99486034 23.77915101 200.99486034 23.77915101 200.95050049 21.14717102 C200.97563721 19.81685852 200.97563721 19.81685852 201.00128174 18.45967102 C200.88139893 17.69654602 200.76151611 16.93342102 200.63800049 16.14717102 C196.90446825 13.65814953 194.02535299 13.86808457 189.70465088 13.89320374 C188.88749383 13.89008375 188.07033678 13.88696377 187.2284174 13.88374925 C184.48075789 13.87574984 181.73331803 13.88210043 178.98565674 13.88838196 C177.01966217 13.88567296 175.05366862 13.88211254 173.087677 13.87776184 C167.74069111 13.86862474 162.39378218 13.87218754 157.04679489 13.87852001 C151.4587864 13.88357317 145.87078462 13.87889047 140.28277588 13.87574768 C130.89759128 13.87210604 121.51243813 13.87691233 112.1272583 13.88642883 C101.26692593 13.89731375 90.40666864 13.89378832 79.54633808 13.88277602 C70.23250084 13.87370879 60.91868623 13.8724151 51.604846 13.87765336 C46.03744462 13.88077617 40.47007857 13.88117389 34.90267944 13.87458038 C29.66932779 13.86881575 24.43607322 13.87278762 19.20273209 13.8843689 C17.27859788 13.88702022 15.35445555 13.88624239 13.43032455 13.88184357 C10.81055496 13.87640526 8.1910995 13.88320129 5.5713501 13.89320374 C4.80394532 13.88874229 4.03654055 13.88428085 3.24588108 13.87968421 C-0.50504826 13.90759929 -2.15876885 14.01168391 -5.36199951 16.14717102 Z M10.63800049 43.14717102 C10.63800049 177.78717102 10.63800049 312.42717102 10.63800049 451.14717102 C16.57800049 451.14717102 22.51800049 451.14717102 28.63800049 451.14717102 C28.64164612 449.75290894 28.64529175 448.35864685 28.64904785 446.9221344 C28.68595426 433.79643791 28.74367933 420.67097697 28.82190323 407.54545975 C28.86171424 400.79713288 28.89409613 394.04892297 28.90899658 387.30049133 C28.92339135 380.79052834 28.95847892 374.28086918 29.00630951 367.77106476 C29.02117168 365.28475338 29.02904426 362.79839027 29.02988434 360.31203461 C29.03224112 356.83513535 29.05921844 353.35924817 29.09210205 349.88252258 C29.08707169 348.84962097 29.08204132 347.81671936 29.07685852 346.7525177 C29.09772774 345.33069183 29.09772774 345.33069183 29.11901855 343.88014221 C29.12270573 343.05790287 29.1263929 342.23566353 29.1301918 341.38850784 C29.84112556 338.25062926 31.09117438 337.06968695 33.63800049 335.14717102 C36.11804199 334.64380646 36.11804199 334.64380646 38.95147705 334.63923645 C40.56657166 334.6223175 40.56657166 334.6223175 42.21429443 334.60505676 C43.97863831 334.61720215 43.97863831 334.61720215 45.77862549 334.6295929 C47.64254944 334.61907898 47.64254944 334.61907898 49.54412842 334.60835266 C52.94935235 334.59376229 56.35360431 334.59718354 59.7587738 334.609869 C63.32302147 334.61999986 66.88722775 334.6106031 70.45147705 334.60432434 C76.43690443 334.59704814 82.42213435 334.60663475 88.40753174 334.62568665 C95.32639006 334.64745556 102.24477691 334.64040415 109.16362381 334.61838102 C115.10516011 334.60022607 121.04655451 334.59766909 126.98810959 334.6081357 C130.5362394 334.6143702 134.08414763 334.61520773 137.63226318 334.60198975 C141.5874869 334.58828424 145.54218297 334.60728267 149.49737549 334.6295929 C150.67360474 334.62149597 151.84983398 334.61339905 153.06170654 334.60505676 C154.13843628 334.61633606 155.21516602 334.62761536 156.32452393 334.63923645 C157.2595575 334.64074455 158.19459106 334.64225266 159.15795898 334.64380646 C162.45562231 335.3131206 163.63368687 336.47836068 165.63800049 339.14717102 C166.14580917 341.38850784 166.14580917 341.38850784 166.15698242 343.88014221 C166.17089523 344.82802612 166.18480804 345.77591003 166.19914246 346.7525177 C166.19411209 347.78541931 166.18908173 348.81832092 166.18389893 349.88252258 C166.1942366 350.97550659 166.20457428 352.0684906 166.21522522 353.19459534 C166.24473504 356.8091445 166.24615418 360.42313568 166.24737549 364.03779602 C166.26235153 366.54315769 166.27907745 369.04850946 166.29748535 371.55384827 C166.33676299 377.47526531 166.35838461 383.39658028 166.37145925 389.31809783 C166.38888871 396.72216904 166.43371905 404.1260316 166.47784424 411.52998352 C166.55322929 424.73566822 166.60347065 437.94132073 166.63800049 451.14717102 C172.57800049 451.14717102 178.51800049 451.14717102 184.63800049 451.14717102 C184.63800049 316.50717102 184.63800049 181.86717102 184.63800049 43.14717102 C127.21800049 43.14717102 69.79800049 43.14717102 10.63800049 43.14717102 Z M-123.36199951 75.14717102 C-123.46051122 76.97832985 -123.4917258 78.81337035 -123.48699951 80.64717102 C-123.48957764 81.64748352 -123.49215576 82.64779602 -123.49481201 83.67842102 C-123.64070333 86.09116724 -123.64070333 86.09116724 -122.36199951 87.14717102 C-120.83114112 87.24298924 -119.29586195 87.2690521 -117.76200867 87.26742554 C-116.2706414 87.26948753 -116.2706414 87.26948753 -114.74914551 87.27159119 C-113.0994577 87.26619827 -113.0994577 87.26619827 -111.41644287 87.26069641 C-110.26537552 87.26084244 -109.11430817 87.26098846 -107.92835999 87.26113892 C-104.1028356 87.2604392 -100.2773592 87.25264404 -96.45184326 87.24482727 C-93.80768358 87.2429633 -91.16352355 87.2415393 -88.5193634 87.24053955 C-82.25784534 87.23742651 -75.99634465 87.2292135 -69.73483425 87.21919006 C-62.60798414 87.20802807 -55.48113321 87.20251826 -48.35427654 87.19749463 C-33.69017499 87.18703086 -19.02608808 87.16923146 -4.36199951 87.14717102 C-4.36199951 82.85717102 -4.36199951 78.56717102 -4.36199951 74.14717102 C-19.73001448 74.12405161 -35.09802745 74.10619158 -50.46605587 74.09535885 C-57.60121692 74.09019601 -64.73636699 74.08315354 -71.871521 74.07173157 C-78.75089688 74.06072427 -85.63026133 74.05489485 -92.50964546 74.05229378 C-95.14081566 74.05043896 -97.7719852 74.04681729 -100.40315056 74.04144096 C-104.07426201 74.03423467 -107.74532554 74.0331799 -111.41644287 74.03364563 C-112.51623474 74.03005035 -113.61602661 74.02645508 -114.74914551 74.02275085 C-116.24051277 74.02481285 -116.24051277 74.02481285 -117.76200867 74.0269165 C-118.63125945 74.02599471 -119.50051023 74.02507292 -120.39610195 74.02412319 C-122.36510479 73.92975845 -122.36510479 73.92975845 -123.36199951 75.14717102 Z M199.63800049 74.14717102 C199.63800049 78.43717102 199.63800049 82.72717102 199.63800049 87.14717102 C215.00601546 87.17029044 230.37402843 87.18815046 245.74205685 87.19898319 C252.8772179 87.20414603 260.01236797 87.2111885 267.14752197 87.22261047 C274.02689786 87.23361777 280.9062623 87.23944719 287.78564644 87.24204826 C290.41681664 87.24390308 293.04798618 87.24752475 295.67915154 87.25290108 C299.35026299 87.26010737 303.02132652 87.26116214 306.69244385 87.26069641 C307.79223572 87.26429169 308.89202759 87.26788696 310.02514648 87.27159119 C311.01939133 87.27021652 312.01363617 87.26884186 313.03800964 87.26742554 C313.90726043 87.26834733 314.77651121 87.26926912 315.67210293 87.27021885 C317.64110577 87.36458359 317.64110577 87.36458359 318.63800049 86.14717102 C318.7365122 84.31601219 318.76772678 82.48097169 318.76300049 80.64717102 C318.76557861 79.64685852 318.76815674 78.64654602 318.77081299 77.61592102 C318.91670431 75.2031748 318.91670431 75.2031748 317.63800049 74.14717102 C316.1071421 74.0513528 314.57186293 74.02528994 313.03800964 74.0269165 C312.0437648 74.02554184 311.04951996 74.02416718 310.02514648 74.02275085 C308.37545868 74.02814377 308.37545868 74.02814377 306.69244385 74.03364563 C304.96584282 74.03342659 304.96584282 74.03342659 303.20436096 74.03320312 C299.37883658 74.03390284 295.55336018 74.041698 291.72784424 74.04951477 C289.08368456 74.05137874 286.43952453 74.05280274 283.79536438 74.05380249 C277.53384632 74.05691553 271.27234563 74.06512854 265.01083523 74.07515198 C257.88398512 74.08631397 250.75713419 74.09182378 243.63027751 74.09684741 C228.96617597 74.10731118 214.30208905 74.12511058 199.63800049 74.14717102 Z M-105.36199951 102.14717102 C-105.36199951 202.46717102 -105.36199951 302.78717102 -105.36199951 406.14717102 C-72.03199951 406.14717102 -38.70199951 406.14717102 -4.36199951 406.14717102 C-4.36199951 305.82717102 -4.36199951 205.50717102 -4.36199951 102.14717102 C-37.69199951 102.14717102 -71.02199951 102.14717102 -105.36199951 102.14717102 Z M199.63800049 102.14717102 C199.63800049 202.46717102 199.63800049 302.78717102 199.63800049 406.14717102 C232.96800049 406.14717102 266.29800049 406.14717102 300.63800049 406.14717102 C300.63800049 305.82717102 300.63800049 205.50717102 300.63800049 102.14717102 C267.30800049 102.14717102 233.97800049 102.14717102 199.63800049 102.14717102 Z M43.63800049 349.14717102 C43.63800049 382.80717102 43.63800049 416.46717102 43.63800049 451.14717102 C59.14800049 451.14717102 74.65800049 451.14717102 90.63800049 451.14717102 C90.63800049 417.48717102 90.63800049 383.82717102 90.63800049 349.14717102 C75.12800049 349.14717102 59.61800049 349.14717102 43.63800049 349.14717102 Z M104.63800049 349.14717102 C104.63800049 382.80717102 104.63800049 416.46717102 104.63800049 451.14717102 C120.14800049 451.14717102 135.65800049 451.14717102 151.63800049 451.14717102 C151.63800049 417.48717102 151.63800049 383.82717102 151.63800049 349.14717102 C136.12800049 349.14717102 120.61800049 349.14717102 104.63800049 349.14717102 Z M-105.36199951 420.14717102 C-105.36199951 430.37717102 -105.36199951 440.60717102 -105.36199951 451.14717102 C-72.03199951 451.14717102 -38.70199951 451.14717102 -4.36199951 451.14717102 C-4.36199951 440.91717102 -4.36199951 430.68717102 -4.36199951 420.14717102 C-37.69199951 420.14717102 -71.02199951 420.14717102 -105.36199951 420.14717102 Z M199.63800049 420.14717102 C199.63800049 430.37717102 199.63800049 440.60717102 199.63800049 451.14717102 C232.96800049 451.14717102 266.29800049 451.14717102 300.63800049 451.14717102 C300.63800049 440.91717102 300.63800049 430.68717102 300.63800049 420.14717102 C267.30800049 420.14717102 233.97800049 420.14717102 199.63800049 420.14717102 Z M-133.36199951 466.14717102 C-135.34144887 469.11634505 -135.65550532 469.80419381 -135.67449951 473.14717102 C-135.69125732 473.82779602 -135.70801514 474.50842102 -135.72528076 475.20967102 C-135.22546184 477.87537192 -134.57500147 478.55456453 -132.36199951 480.14717102 C-129.767305 480.44118227 -127.41261533 480.54969042 -124.81724548 480.52469444 C-123.64842353 480.53123493 -123.64842353 480.53123493 -122.455989 480.53790754 C-119.82316756 480.54892842 -117.19086278 480.53841024 -114.55804443 480.52812195 C-112.66018243 480.53157582 -110.76232244 480.53633855 -108.86446667 480.54230368 C-103.63225847 480.55488058 -98.40021346 480.54861302 -93.16800451 480.53934503 C-87.53194389 480.53258215 -81.89591214 480.543022 -76.25985718 480.55128479 C-65.21210506 480.56465392 -54.16441395 480.56173025 -43.1166594 480.55304687 C-34.14125456 480.54628321 -25.16586686 480.54534788 -16.19046021 480.54861832 C-14.91506667 480.54907802 -13.63967314 480.54953771 -12.32563132 480.55001134 C-9.73503311 480.55097048 -7.1444349 480.55194312 -4.5538367 480.55292912 C19.06835373 480.56124801 42.69050321 480.55260783 66.31268676 480.53690133 C87.889567 480.52266388 109.46639414 480.52393773 131.04327393 480.5382843 C155.26972181 480.55433863 179.49613191 480.56066827 203.72258663 480.55144751 C206.30387814 480.55049182 208.88516966 480.54954871 211.46646118 480.54861832 C212.73664481 480.54815549 214.00682843 480.54769266 215.31550246 480.54721581 C224.28446941 480.54462099 233.25341756 480.54900749 242.22238159 480.55605698 C253.14632508 480.56445397 264.07020387 480.56222988 274.99413991 480.54621474 C280.57215262 480.53830771 286.15005729 480.53528168 291.72806931 480.5451622 C296.82794807 480.55405945 301.92761798 480.54925887 307.02747762 480.53322954 C308.87870557 480.52986055 310.72995094 480.53162289 312.58116782 480.53885691 C315.08544971 480.54789708 317.58900349 480.53870766 320.09324646 480.52469444 C320.82250678 480.53171794 321.5517671 480.53874144 322.30312622 480.54597777 C325.23302782 480.51290443 327.1666167 480.48640654 329.58684254 478.74466956 C330.90264111 476.74498313 331.0091199 475.52802093 330.95050049 473.14717102 C330.9466333 472.46654602 330.94276611 471.78592102 330.93878174 471.08467102 C330.72708342 468.82525993 330.72708342 468.82525993 328.63800049 466.14717102 C326.07381312 465.84663485 323.74959156 465.74512754 321.18226624 465.7696476 C320.4005291 465.76528728 319.61879196 465.76092695 318.81336582 465.7564345 C316.16595339 465.74539351 313.51905261 465.755941 310.87164307 465.76622009 C308.96568184 465.76276701 307.0597226 465.75800482 305.15376759 465.75203836 C299.89456663 465.73945058 294.63552782 465.74573389 289.37632608 465.75499701 C283.71300025 465.76175551 278.04970325 465.75132225 272.38638306 465.74305725 C261.28334989 465.72968338 250.18037739 465.73261388 239.07734179 465.74129517 C230.05756807 465.74805698 221.03781141 465.74899497 212.01803589 465.74572372 C210.73666742 465.74526403 209.45529895 465.74480433 208.13510114 465.7443307 C205.53242166 465.74337157 202.92974219 465.74239893 200.32706273 465.74141292 C176.59103316 465.73309271 152.85504043 465.74173639 129.11901672 465.75744071 C107.43489719 465.77167832 85.7508305 465.77040448 64.06671143 465.75605774 C39.72381823 465.74000586 15.38096101 465.7336724 -8.9619379 465.74289453 C-11.55530357 465.74385023 -14.14866924 465.74479334 -16.74203491 465.74572372 C-18.01818246 465.74618655 -19.29433 465.74664938 -20.60914868 465.74712623 C-29.6231575 465.74972178 -38.63714764 465.74533298 -47.65115356 465.73828506 C-58.62894855 465.72989077 -69.60667914 465.73210642 -80.5844667 465.7481273 C-86.19070211 465.75603801 -91.79682999 465.7590542 -97.40306473 465.74917984 C-102.52760306 465.74029008 -107.6519334 465.74507054 -112.77645266 465.7611125 C-114.63778686 465.76448472 -116.49913837 465.76271209 -118.36046159 465.75548513 C-120.87598512 465.74646164 -123.39078084 465.75561689 -125.90626526 465.7696476 C-126.64164713 465.7626241 -127.377029 465.7556006 -128.13469517 465.74836427 C-130.35770581 465.73802173 -130.35770581 465.73802173 -133.36199951 466.14717102 Z " fill="#000000" transform="translate(158.36199951171875,8.852828979492188)"/>
<path d="M0 0 C15.96702363 12.17066836 26.00466037 28.60842773 29.16796875 48.56640625 C31.16724515 66.92166768 27.65582462 85.86746243 16.4765625 100.89892578 C13.47868534 104.55338929 10.19529175 107.8524088 6.79296875 111.12890625 C6.1484375 111.79277344 5.50390625 112.45664063 4.83984375 113.140625 C-8.49439124 126.04004798 -27.09866771 130.83192958 -45.18164062 130.59765625 C-63.88592052 129.86355532 -80.13690091 122.53705721 -93.20703125 109.12890625 C-93.9753125 108.39285156 -94.74359375 107.65679687 -95.53515625 106.8984375 C-108.98606916 93.24164327 -114.16886667 74.94404509 -114.20703125 56.12890625 C-113.22208698 35.70201859 -104.78353269 18.6977506 -90.05859375 4.6015625 C-64.55650603 -17.51189165 -27.72772307 -18.52515986 0 0 Z M-83.20703125 19.12890625 C-93.60054342 31.62921142 -100.0287873 46.02646255 -98.99609375 62.4921875 C-97.05626265 78.94415128 -90.51186653 92.05960378 -77.95703125 103.00390625 C-64.5601651 113.34238419 -50.68135398 116.1462449 -34.20703125 115.12890625 C-20.50820954 113.15656281 -6.53074844 105.41065017 2.02392578 94.56884766 C11.72280848 81.52131415 16.18486864 66.91925154 14.16796875 50.62890625 C11.72979812 37.04016862 4.65174747 23.49420802 -6.1875 14.71484375 C-12.58712449 10.30292236 -18.71391339 6.41987641 -26.20703125 4.12890625 C-27.25890625 3.79439453 -27.25890625 3.79439453 -28.33203125 3.453125 C-47.379908 -1.69400346 -69.75754198 4.62767967 -83.20703125 19.12890625 Z " fill="#000000" transform="translate(298.20703125,98.87109375)"/>
<path d="M0 0 C1.09355804 -0.0112793 2.18711609 -0.02255859 3.31381226 -0.03417969 C5.10620834 -0.0220343 5.10620834 -0.0220343 6.93481445 -0.00964355 C8.19693756 -0.01665283 9.45906067 -0.02366211 10.75942993 -0.03088379 C14.21818541 -0.04911266 17.67646342 -0.04205186 21.1352272 -0.02936745 C24.7555291 -0.01923732 28.37579024 -0.02863315 31.99609375 -0.03491211 C38.07567685 -0.04218852 44.15506556 -0.03260114 50.23461914 -0.0135498 C57.26253812 0.00821913 64.28999293 0.00116774 71.31790066 -0.02085543 C77.35285381 -0.03900977 83.38766726 -0.04156765 89.42263889 -0.03110075 C93.02665884 -0.02486592 96.63046064 -0.02402964 100.23446655 -0.0372467 C104.25204947 -0.05095142 108.26883274 -0.03195523 112.28637695 -0.00964355 C114.07877304 -0.02178894 114.07877304 -0.02178894 115.90737915 -0.03417969 C117.54771622 -0.01726074 117.54771622 -0.01726074 119.22119141 0 C120.17097366 0.0015081 121.12075592 0.0030162 122.09931946 0.00457001 C125.35592409 0.65732948 126.55548712 1.9546341 128.6105957 4.50793457 C129.11853027 6.70837402 129.11853027 6.70837402 129.12817383 9.12121582 C129.14078247 10.02895752 129.15339111 10.93669922 129.16638184 11.87194824 C129.15828491 12.84494873 129.15018799 13.81794922 129.1418457 14.82043457 C129.14567261 15.82630615 129.14949951 16.83217773 129.15344238 17.86853027 C129.15616221 19.99345908 129.14879611 22.11842133 129.13208008 24.24328613 C129.11067211 27.49632389 129.13188002 30.74715302 129.1574707 34.00012207 C129.15482744 36.06523111 129.1497025 38.13033878 129.1418457 40.19543457 C129.14994263 41.16843506 129.15803955 42.14143555 129.16638184 43.1439209 C129.14746887 44.50553345 129.14746887 44.50553345 129.12817383 45.89465332 C129.12499146 46.69089111 129.12180908 47.48712891 129.11853027 48.30749512 C128.40657833 51.39176468 127.03683194 52.51416525 124.6105957 54.50793457 C122.09931946 55.01129913 122.09931946 55.01129913 119.22119141 55.01586914 C118.12763336 55.02714844 117.03407532 55.03842773 115.90737915 55.05004883 C114.71244843 55.0419519 113.5175177 55.03385498 112.28637695 55.0255127 C111.02425385 55.03252197 109.76213074 55.03953125 108.46176147 55.04675293 C105.00300599 55.0649818 101.54472799 55.057921 98.0859642 55.04523659 C94.4656623 55.03510646 90.84540117 55.04450229 87.22509766 55.05078125 C81.14551456 55.05805766 75.06612585 55.04847028 68.98657227 55.02941895 C61.95865329 55.00765001 54.93119848 55.0147014 47.90329075 55.03672457 C41.8683376 55.05487891 35.83352415 55.05743679 29.79855251 55.04696989 C26.19453257 55.04073506 22.59073077 55.03989878 18.98672485 55.05311584 C14.96914193 55.06682056 10.95235867 55.04782437 6.93481445 55.0255127 C5.73988373 55.03360962 4.544953 55.04170654 3.31381226 55.05004883 C2.22025421 55.03876953 1.12669617 55.02749023 0 55.01586914 C-1.42467339 55.01360699 -1.42467339 55.01360699 -2.87812805 55.01129913 C-6.13473269 54.35853966 -7.33429571 53.06123504 -9.3894043 50.50793457 C-9.89733887 48.30749512 -9.89733887 48.30749512 -9.90698242 45.89465332 C-9.91959106 44.98691162 -9.93219971 44.07916992 -9.94519043 43.1439209 C-9.93709351 42.17092041 -9.92899658 41.19791992 -9.9206543 40.19543457 C-9.9244812 39.18956299 -9.92830811 38.18369141 -9.93225098 37.14733887 C-9.93497081 35.02241006 -9.9276047 32.89744781 -9.91088867 30.77258301 C-9.88948071 27.51954525 -9.91068862 24.26871612 -9.9362793 21.01574707 C-9.93363603 18.95063803 -9.92851109 16.88553036 -9.9206543 14.82043457 C-9.92875122 13.84743408 -9.93684814 12.87443359 -9.94519043 11.87194824 C-9.93258179 10.96420654 -9.91997314 10.05646484 -9.90698242 9.12121582 C-9.90380005 8.32497803 -9.90061768 7.52874023 -9.89733887 6.70837402 C-8.67863821 1.4288023 -4.99976344 0.00793883 0 0 Z M5.6105957 15.50793457 C5.6105957 23.42793457 5.6105957 31.34793457 5.6105957 39.50793457 C41.2505957 39.50793457 76.8905957 39.50793457 113.6105957 39.50793457 C113.6105957 31.58793457 113.6105957 23.66793457 113.6105957 15.50793457 C77.9705957 15.50793457 42.3305957 15.50793457 5.6105957 15.50793457 Z " fill="#000000" transform="translate(196.389404296875,268.4920654296875)"/>
<path d="M0 0 C1.31484375 -0.00257812 2.6296875 -0.00515625 3.984375 -0.0078125 C4.66435547 -0.00362305 5.34433594 0.00056641 6.04492188 0.00488281 C8.11878717 0.01559291 10.19178638 0.0049647 12.265625 -0.0078125 C13.58046875 -0.00523438 14.8953125 -0.00265625 16.25 0 C18.04824219 0.00338379 18.04824219 0.00338379 19.8828125 0.00683594 C23.07596862 0.26171135 25.27698204 0.83353791 28.125 2.265625 C31.07572803 5.83476908 30.34455276 10.62983144 30.25 15.015625 C30.24097656 15.80839844 30.23195313 16.60117188 30.22265625 17.41796875 C30.19917012 19.36731781 30.16330137 21.31651075 30.125 23.265625 C31.37796875 23.21921875 32.6309375 23.1728125 33.921875 23.125 C35.57289281 23.08747687 37.22393642 23.05107729 38.875 23.015625 C40.1125 22.96535156 40.1125 22.96535156 41.375 22.9140625 C42.57382812 22.89472656 42.57382812 22.89472656 43.796875 22.875 C44.5300293 22.85405273 45.26318359 22.83310547 46.01855469 22.81152344 C49.18262162 23.4936241 50.25120361 24.64023383 52.125 27.265625 C52.52306287 30.03704383 52.68685389 32.40366924 52.65625 35.171875 C52.66199036 36.31444763 52.66199036 36.31444763 52.66784668 37.48010254 C52.67056313 39.08717168 52.66322044 40.69428524 52.64648438 42.30126953 C52.62506786 44.75784087 52.64629178 47.21148811 52.671875 49.66796875 C52.66923167 51.23177727 52.66410658 52.79558398 52.65625 54.359375 C52.66434692 55.09176392 52.67244385 55.82415283 52.68078613 56.57873535 C52.61861186 59.96892193 52.35288267 61.94633676 50.36230469 64.73535156 C47.87889155 66.43395845 46.76516299 66.74105823 43.796875 66.65625 C42.59804688 66.63691406 42.59804688 66.63691406 41.375 66.6171875 C40.55 66.58367187 39.725 66.55015625 38.875 66.515625 C38.03453125 66.49757813 37.1940625 66.47953125 36.328125 66.4609375 C34.25992605 66.41393298 32.19231559 66.34219224 30.125 66.265625 C30.17720703 68.01939453 30.17720703 68.01939453 30.23046875 69.80859375 C30.25861716 71.35675641 30.28591619 72.90493468 30.3125 74.453125 C30.33763672 75.22205078 30.36277344 75.99097656 30.38867188 76.78320312 C30.44840012 81.42209698 30.22541764 84.54367842 27.125 88.265625 C21.81043029 90.03714824 16.06752388 89.49122789 10.50146484 89.50585938 C8.26492047 89.51556028 6.02929739 89.54659272 3.79296875 89.578125 C2.36458877 89.58465616 0.93620224 89.58990619 -0.4921875 89.59375 C-1.78753418 89.6030957 -3.08288086 89.61244141 -4.41748047 89.62207031 C-8.10514439 89.24189877 -9.98750719 88.55656166 -12.875 86.265625 C-13.77738747 83.55846258 -13.99351302 82.02785732 -13.97265625 79.25390625 C-13.96943359 78.49658203 -13.96621094 77.73925781 -13.96289062 76.95898438 C-13.95451172 76.17330078 -13.94613281 75.38761719 -13.9375 74.578125 C-13.93298828 73.78083984 -13.92847656 72.98355469 -13.92382812 72.16210938 C-13.9120585 70.19658243 -13.89412348 68.23109415 -13.875 66.265625 C-15.12796875 66.31203125 -16.3809375 66.3584375 -17.671875 66.40625 C-19.32289281 66.44377313 -20.97393642 66.48017271 -22.625 66.515625 C-23.45 66.54914063 -24.275 66.58265625 -25.125 66.6171875 C-26.32382813 66.63652344 -26.32382813 66.63652344 -27.546875 66.65625 C-28.2800293 66.67719727 -29.01318359 66.69814453 -29.76855469 66.71972656 C-32.93262162 66.0376259 -34.00120361 64.89101617 -35.875 62.265625 C-36.27306287 59.49420617 -36.43685389 57.12758076 -36.40625 54.359375 C-36.4100769 53.59765991 -36.41390381 52.83594482 -36.41784668 52.05114746 C-36.42056313 50.44407832 -36.41322044 48.83696476 -36.39648438 47.22998047 C-36.37506786 44.77340913 -36.39629178 42.31976189 -36.421875 39.86328125 C-36.41923167 38.29947273 -36.41410658 36.73566602 -36.40625 35.171875 C-36.41434692 34.43948608 -36.42244385 33.70709717 -36.43078613 32.95251465 C-36.36861186 29.56232807 -36.10288267 27.58491324 -34.11230469 24.79589844 C-31.62889155 23.09729155 -30.51516299 22.79019177 -27.546875 22.875 C-26.74765625 22.88789063 -25.9484375 22.90078125 -25.125 22.9140625 C-24.3 22.94757813 -23.475 22.98109375 -22.625 23.015625 C-21.78453125 23.03367188 -20.9440625 23.05171875 -20.078125 23.0703125 C-18.00992605 23.11731702 -15.94231559 23.18905776 -13.875 23.265625 C-13.89820313 22.08484375 -13.92140625 20.9040625 -13.9453125 19.6875 C-13.96407497 18.13021467 -13.98227466 16.57292248 -14 15.015625 C-14.01675781 14.23832031 -14.03351563 13.46101563 -14.05078125 12.66015625 C-14.11645061 4.97684071 -14.11645061 4.97684071 -11.875 2.265625 C-7.85087383 0.24214789 -4.47056574 0.00841235 0 0 Z M1.125 15.265625 C1.09921875 16.60238281 1.0734375 17.93914062 1.046875 19.31640625 C0.99059888 21.07034538 0.93325143 22.82425036 0.875 24.578125 C0.85373047 25.89973633 0.85373047 25.89973633 0.83203125 27.24804688 C0.58948721 33.62695508 0.58948721 33.62695508 -1.375 36.328125 C-5.09616743 37.72356279 -8.67773091 37.8385691 -12.625 37.953125 C-13.41777344 37.98728516 -14.21054688 38.02144531 -15.02734375 38.05664062 C-16.97607504 38.13881604 -18.92551362 38.20390545 -20.875 38.265625 C-20.875 42.555625 -20.875 46.845625 -20.875 51.265625 C-19.10382813 51.32169922 -19.10382813 51.32169922 -17.296875 51.37890625 C-15.73955212 51.44457649 -14.18226186 51.51102347 -12.625 51.578125 C-11.84769531 51.60068359 -11.07039063 51.62324219 -10.26953125 51.64648438 C-7.06847111 51.79696156 -4.38636764 52.07386214 -1.375 53.203125 C1.18387334 56.72157584 0.80682015 60.71667721 0.875 64.953125 C0.90464844 65.84580078 0.93429688 66.73847656 0.96484375 67.65820312 C1.03549576 69.86019083 1.08251762 72.06291376 1.125 74.265625 C5.745 74.265625 10.365 74.265625 15.125 74.265625 C15.15078125 72.92886719 15.1765625 71.59210938 15.203125 70.21484375 C15.25940112 68.46090462 15.31674857 66.70699964 15.375 64.953125 C15.38917969 64.07205078 15.40335937 63.19097656 15.41796875 62.28320312 C15.66051279 55.90429492 15.66051279 55.90429492 17.625 53.203125 C21.34616743 51.80768721 24.92773091 51.6926809 28.875 51.578125 C29.66777344 51.54396484 30.46054687 51.50980469 31.27734375 51.47460938 C33.22607504 51.39243396 35.17551362 51.32734455 37.125 51.265625 C37.125 46.975625 37.125 42.685625 37.125 38.265625 C35.35382813 38.20955078 35.35382813 38.20955078 33.546875 38.15234375 C31.98955212 38.08667351 30.43226186 38.02022653 28.875 37.953125 C28.09769531 37.93056641 27.32039063 37.90800781 26.51953125 37.88476562 C23.31847111 37.73428844 20.63636764 37.45738786 17.625 36.328125 C15.06612666 32.80967416 15.44317985 28.81457279 15.375 24.578125 C15.34535156 23.68544922 15.31570313 22.79277344 15.28515625 21.87304688 C15.21450424 19.67105917 15.16748238 17.46833624 15.125 15.265625 C10.505 15.265625 5.885 15.265625 1.125 15.265625 Z " fill="#000000" transform="translate(247.875,112.734375)"/>
<path d="M0 0 C1.29693535 -0.01925285 1.29693535 -0.01925285 2.62007141 -0.03889465 C3.55650986 -0.04628159 4.4929483 -0.05366852 5.45776367 -0.0612793 C6.41970139 -0.06935104 7.3816391 -0.07742279 8.37272644 -0.08573914 C10.41122635 -0.09958415 12.44974948 -0.11030443 14.48828125 -0.11816406 C17.60290579 -0.13537193 20.7164676 -0.17925381 23.83081055 -0.22338867 C25.81062044 -0.23351596 27.79043937 -0.24203195 29.77026367 -0.2487793 C30.70062943 -0.26628738 31.63099518 -0.28379547 32.58955383 -0.30183411 C36.52729108 -0.2886544 39.27504203 -0.06401504 42.89941406 1.55908203 C45.88730665 5.64623246 45.52869936 9.54771928 45.47729492 14.48950195 C45.48207855 15.49537354 45.48686218 16.50124512 45.49179077 17.53759766 C45.49519057 19.6625322 45.48598263 21.78751899 45.46508789 23.91235352 C45.43832442 27.16581798 45.46483401 30.41583236 45.49682617 33.66918945 C45.49352209 35.73430124 45.48711589 37.79941088 45.47729492 39.86450195 C45.48741608 40.83750244 45.49753723 41.81050293 45.50796509 42.81298828 C45.39384131 49.38593435 45.39384131 49.38593435 42.89501953 52.79052734 C38.49678149 54.76926408 34.61384888 54.73112333 29.84057617 54.6730957 C28.40047935 54.67527855 28.40047935 54.67527855 26.93128967 54.67750549 C24.90647336 54.67584895 22.88164415 54.66431517 20.85693359 54.64355469 C17.75783871 54.61456842 14.66045181 54.62295736 11.5612793 54.63598633 C9.59186994 54.62974955 7.62246599 54.62135909 5.65307617 54.6105957 C4.7269603 54.61353134 3.80084442 54.61646698 2.84666443 54.61949158 C-3.52168606 54.52605048 -3.52168606 54.52605048 -6.73925781 52.83740234 C-9.11402552 50.11336875 -9.31525128 47.52404542 -9.34790039 44.06030273 C-9.35750793 43.2357962 -9.36711548 42.41128967 -9.37701416 41.5617981 C-9.38126404 40.67426849 -9.38551392 39.78673889 -9.38989258 38.87231445 C-9.39559265 37.95618378 -9.40129272 37.0400531 -9.40716553 36.09616089 C-9.41661085 34.15778761 -9.42314765 32.21939831 -9.42700195 30.28100586 C-9.43670769 27.32027093 -9.46773544 24.36023023 -9.49926758 21.3996582 C-9.50579787 19.51554774 -9.51104824 17.63143231 -9.51489258 15.74731445 C-9.52723938 14.86383331 -9.53958618 13.98035217 -9.55230713 13.07009888 C-9.53505152 8.29313169 -9.3384812 5.03559718 -6.18676758 1.17700195 C-3.89248053 0.02985843 -2.55230348 0.03296722 0 0 Z M5.81323242 15.17700195 C5.81323242 23.09700195 5.81323242 31.01700195 5.81323242 39.17700195 C13.73323242 39.17700195 21.65323242 39.17700195 29.81323242 39.17700195 C29.81323242 31.25700195 29.81323242 23.33700195 29.81323242 15.17700195 C21.89323242 15.17700195 13.97323242 15.17700195 5.81323242 15.17700195 Z " fill="#000000" transform="translate(390.186767578125,342.822998046875)"/>
<path d="M0 0 C1.44009682 -0.00218285 1.44009682 -0.00218285 2.9092865 -0.00440979 C4.93410281 -0.00275325 6.95893202 0.00878053 8.98364258 0.02954102 C12.08273746 0.05852728 15.18012436 0.05013834 18.27929688 0.03710938 C20.24870623 0.04334615 22.21811018 0.05173661 24.1875 0.0625 C25.11361588 0.05956436 26.03973175 0.05662872 26.99391174 0.05360413 C33.36226223 0.14704523 33.36226223 0.14704523 36.57983398 1.83569336 C38.95460169 4.55972696 39.15582746 7.14905029 39.18847656 10.61279297 C39.19808411 11.4372995 39.20769165 12.26180603 39.21759033 13.11129761 C39.22184021 13.99882721 39.22609009 14.88635681 39.23046875 15.80078125 C39.23616882 16.71691193 39.2418689 17.6330426 39.2477417 18.57693481 C39.25718702 20.51530809 39.26372382 22.45369739 39.26757812 24.39208984 C39.27728386 27.35282477 39.30831161 30.31286548 39.33984375 33.2734375 C39.34637405 35.15754797 39.35162441 37.04166339 39.35546875 38.92578125 C39.36781555 39.80926239 39.38016235 40.69274353 39.3928833 41.60299683 C39.37562769 46.37996401 39.17905737 49.63749853 36.02734375 53.49609375 C33.7330567 54.64323728 32.39287965 54.64012849 29.84057617 54.6730957 C28.54364082 54.69234856 28.54364082 54.69234856 27.22050476 54.71199036 C26.28406631 54.71937729 25.34762787 54.72676422 24.3828125 54.734375 C23.42087479 54.74244675 22.45893707 54.75051849 21.46784973 54.75883484 C19.42934982 54.77267985 17.39082669 54.78340013 15.35229492 54.79125977 C12.23767039 54.80846764 9.12410857 54.85234952 6.00976562 54.89648438 C4.02995573 54.90661166 2.0501368 54.91512765 0.0703125 54.921875 C-1.32523613 54.94813713 -1.32523613 54.94813713 -2.74897766 54.97492981 C-6.68671491 54.96175011 -9.43446585 54.73711074 -13.05883789 53.11401367 C-16.04673048 49.02686324 -15.68812319 45.12537642 -15.63671875 40.18359375 C-15.64150238 39.17772217 -15.64628601 38.17185059 -15.6512146 37.13549805 C-15.6546144 35.0105635 -15.64540646 32.88557672 -15.62451172 30.76074219 C-15.59774825 27.50727772 -15.62425783 24.25726335 -15.65625 21.00390625 C-15.65294592 18.93879446 -15.64653972 16.87368483 -15.63671875 14.80859375 C-15.6468399 13.83559326 -15.65696106 12.86259277 -15.66738892 11.86010742 C-15.55326514 5.28716136 -15.55326514 5.28716136 -13.05444336 1.88256836 C-8.65620532 -0.09616838 -4.77327271 -0.05802762 0 0 Z M0.02734375 15.49609375 C0.02734375 23.41609375 0.02734375 31.33609375 0.02734375 39.49609375 C7.94734375 39.49609375 15.86734375 39.49609375 24.02734375 39.49609375 C24.02734375 31.57609375 24.02734375 23.65609375 24.02734375 15.49609375 C16.10734375 15.49609375 8.18734375 15.49609375 0.02734375 15.49609375 Z " fill="#000000" transform="translate(91.97265625,342.50390625)"/>
<path d="M0 0 C1.26679092 -0.01925285 1.26679092 -0.01925285 2.55917358 -0.03889465 C3.46857697 -0.04628159 4.37798035 -0.05366852 5.31494141 -0.0612793 C6.25326813 -0.06935104 7.19159485 -0.07742279 8.15835571 -0.08573914 C10.14380043 -0.09956777 12.12926881 -0.11029538 14.11474609 -0.11816406 C17.14808159 -0.13539341 20.18033165 -0.17929222 23.21337891 -0.22338867 C25.1430584 -0.23351452 27.07274715 -0.24203096 29.00244141 -0.2487793 C29.90779633 -0.26628738 30.81315125 -0.28379547 31.74594116 -0.30183411 C35.62473921 -0.28849694 38.29482321 -0.04641556 41.86401367 1.55908203 C44.87249765 5.64520916 44.48785779 9.53961958 44.42041016 14.48950195 C44.42282211 15.49537354 44.42523407 16.50124512 44.42771912 17.53759766 C44.42674038 19.66255641 44.41334044 21.78754058 44.38842773 23.91235352 C44.35412505 27.165513 44.36776638 30.41595578 44.38720703 33.66918945 C44.38030849 35.73430519 44.37063604 37.79941391 44.35791016 39.86450195 C44.36287003 40.83750244 44.3678299 41.81050293 44.37294006 42.81298828 C44.30613528 46.64225122 44.2155207 49.38800495 42.38696289 52.79052734 C38.26898575 54.99031967 34.29515592 54.72739669 29.69775391 54.6730957 C28.71407837 54.67455093 27.73040283 54.67600616 26.71691895 54.67750549 C24.63904862 54.67584694 22.56116596 54.66429057 20.48339844 54.64355469 C17.30301732 54.61460675 14.12430377 54.62294562 10.94384766 54.63598633 C8.9243083 54.62974861 6.90477422 54.62135741 4.88525391 54.6105957 C3.45856384 54.61499916 3.45856384 54.61499916 2.00305176 54.61949158 C0.67147034 54.60046532 0.67147034 54.60046532 -0.68701172 54.58105469 C-1.46548462 54.5756517 -2.24395752 54.57024872 -3.04602051 54.56468201 C-5.80032433 54.07090133 -7.17560969 53.07550468 -9.20849609 51.17700195 C-10.11181734 48.46703822 -10.34334931 46.84830432 -10.36962891 44.06030273 C-10.37923645 43.2357962 -10.38884399 42.41128967 -10.39874268 41.5617981 C-10.40299255 40.67426849 -10.40724243 39.78673889 -10.41162109 38.87231445 C-10.41732117 37.95618378 -10.42302124 37.0400531 -10.42889404 36.09616089 C-10.43833936 34.15778761 -10.44487617 32.21939831 -10.44873047 30.28100586 C-10.45843621 27.32027093 -10.48946396 24.36023023 -10.52099609 21.3996582 C-10.52752639 19.51554774 -10.53277676 17.63143231 -10.53662109 15.74731445 C-10.5489679 14.86383331 -10.5613147 13.98035217 -10.57403564 13.07009888 C-10.55689945 8.3261911 -10.41865593 4.95980014 -7.20849609 1.17700195 C-4.48096038 0.26782338 -2.81233896 0.03730424 0 0 Z M4.79150391 15.17700195 C4.79150391 23.09700195 4.79150391 31.01700195 4.79150391 39.17700195 C12.71150391 39.17700195 20.63150391 39.17700195 28.79150391 39.17700195 C28.79150391 31.25700195 28.79150391 23.33700195 28.79150391 15.17700195 C20.87150391 15.17700195 12.95150391 15.17700195 4.79150391 15.17700195 Z " fill="#000000" transform="translate(391.20849609375,268.822998046875)"/>
<path d="M0 0 C0.93549683 -0.00145523 1.87099365 -0.00291046 2.83483887 -0.00440979 C4.80838136 -0.0027533 6.78193711 0.00877988 8.75537109 0.02954102 C11.7710677 0.05849599 14.78500537 0.05014445 17.80078125 0.03710938 C19.72136269 0.04334724 21.64193858 0.05173855 23.5625 0.0625 C24.46158081 0.05956436 25.36066162 0.05662872 26.2869873 0.05360413 C31.04556779 0.12508726 34.49102406 0.27714687 38.28125 3.49609375 C39.18457125 6.20605749 39.41610322 7.82479138 39.44238281 10.61279297 C39.45199036 11.4372995 39.4615979 12.26180603 39.47149658 13.11129761 C39.47574646 13.99882721 39.47999634 14.88635681 39.484375 15.80078125 C39.49007507 16.71691193 39.49577515 17.6330426 39.50164795 18.57693481 C39.51109327 20.51530809 39.51763007 22.45369739 39.52148438 24.39208984 C39.53119011 27.35282477 39.56221786 30.31286548 39.59375 33.2734375 C39.6002803 35.15754797 39.60553066 37.04166339 39.609375 38.92578125 C39.6217218 39.80926239 39.6340686 40.69274353 39.64678955 41.60299683 C39.62953394 46.37996401 39.43296362 49.63749853 36.28125 53.49609375 C33.96066728 54.65638511 32.57146226 54.64059688 29.98681641 54.6730957 C29.0989444 54.68593094 28.21107239 54.69876617 27.29629517 54.71199036 C26.33484589 54.71937729 25.37339661 54.72676422 24.3828125 54.734375 C23.39630707 54.74244675 22.40980164 54.75051849 21.3934021 54.75883484 C19.30362712 54.77267913 17.21382949 54.78339973 15.12402344 54.79125977 C11.92599784 54.80848737 8.72900195 54.85237235 5.53125 54.89648438 C3.50261178 54.90660984 1.47396476 54.9151264 -0.5546875 54.921875 C-1.99078873 54.94813713 -1.99078873 54.94813713 -3.4559021 54.97492981 C-7.25172472 54.96251063 -9.93671923 54.91182069 -13.31860352 53.11401367 C-15.55435413 48.9337253 -15.30896038 44.85335953 -15.28515625 40.18359375 C-15.29135483 39.17772217 -15.29755341 38.17185059 -15.30393982 37.13549805 C-15.3110381 35.01058927 -15.30786388 32.88562488 -15.29516602 30.76074219 C-15.2812983 27.50742435 -15.31537443 24.2569812 -15.35351562 21.00390625 C-15.3544668 18.93880138 -15.3526081 16.8736929 -15.34765625 14.80859375 C-15.36091446 13.83559326 -15.37417267 12.86259277 -15.38783264 11.86010742 C-15.29695841 5.27831554 -15.29695841 5.27831554 -12.78686523 1.88256836 C-8.46313809 -0.07131454 -4.69577967 -0.05867358 0 0 Z M0.28125 15.49609375 C0.28125 23.41609375 0.28125 31.33609375 0.28125 39.49609375 C8.20125 39.49609375 16.12125 39.49609375 24.28125 39.49609375 C24.28125 31.57609375 24.28125 23.65609375 24.28125 15.49609375 C16.36125 15.49609375 8.44125 15.49609375 0.28125 15.49609375 Z " fill="#000000" transform="translate(91.71875,268.50390625)"/>
<path d="M0 0 C0.84445175 -0.0159874 1.6889035 -0.03197479 2.5589447 -0.04844666 C3.4631868 -0.05380936 4.36742889 -0.05917206 5.29907227 -0.06469727 C6.23598404 -0.07372574 7.17289581 -0.08275421 8.13819885 -0.09205627 C10.11765349 -0.10654876 12.09715592 -0.11544302 14.07666016 -0.11914062 C17.10148819 -0.13104844 20.1242833 -0.18025292 23.14868164 -0.23071289 C25.07380191 -0.24017621 26.99893469 -0.24741168 28.92407227 -0.25219727 C29.82629013 -0.27172958 30.728508 -0.2912619 31.6580658 -0.31138611 C35.84573917 -0.28135847 38.12557158 -0.03508026 41.74829102 2.2043457 C44.51136113 6.64609278 44.37889714 10.35976216 44.30688477 15.49780273 C44.30929672 16.48006332 44.31170868 17.46232391 44.31419373 18.47434998 C44.31321614 20.54625495 44.29984386 22.61818633 44.27490234 24.68994141 C44.24055512 27.86182237 44.25425798 31.03092279 44.27368164 34.20288086 C44.26678412 36.21786668 44.2571126 38.23284531 44.24438477 40.24780273 C44.24934464 41.19579239 44.2543045 42.14378204 44.25941467 43.12049866 C44.19187347 46.89281999 44.08610608 49.55403082 42.27124023 52.8996582 C38.17177286 55.12345137 34.21295936 54.89683626 29.61938477 54.87280273 C28.14742897 54.8821006 28.14742897 54.8821006 26.64573669 54.8915863 C24.57210278 54.89868458 22.49841187 54.89551035 20.42480469 54.8828125 C17.25487108 54.86895938 14.08789659 54.90300281 10.91821289 54.94116211 C8.90193613 54.94211344 6.88565567 54.94025372 4.86938477 54.93530273 C3.92341934 54.94856094 2.97745392 54.96181915 2.00282288 54.97547913 C-2.29889523 54.91474101 -4.71290453 54.68530884 -8.42407227 52.37670898 C-11.10016084 48.04760043 -10.98879491 44.54942085 -10.88061523 39.55249023 C-10.87828384 38.61462173 -10.87595245 37.67675323 -10.87355042 36.71046448 C-10.86382814 34.73266472 -10.84207604 32.75489218 -10.80908203 30.77734375 C-10.75963429 27.75080124 -10.74759746 24.72588482 -10.74194336 21.69897461 C-10.72785802 19.7751292 -10.71165385 17.85129789 -10.69311523 15.92749023 C-10.68775253 15.02324814 -10.68238983 14.11900604 -10.67686462 13.18736267 C-10.65288353 11.92068504 -10.65288353 11.92068504 -10.62841797 10.62841797 C-10.61777817 9.88849106 -10.60713837 9.14856415 -10.59617615 8.38621521 C-10.27116432 5.92057894 -9.69892403 4.3813689 -8.32202148 2.30639648 C-5.54376566 0.46281173 -3.29697414 0.04740894 0 0 Z M4.67797852 15.30639648 C4.67797852 23.22639648 4.67797852 31.14639648 4.67797852 39.30639648 C12.59797852 39.30639648 20.51797852 39.30639648 28.67797852 39.30639648 C28.67797852 31.38639648 28.67797852 23.46639648 28.67797852 15.30639648 C20.75797852 15.30639648 12.83797852 15.30639648 4.67797852 15.30639648 Z " fill="#000000" transform="translate(391.322021484375,194.693603515625)"/>
<path d="M0 0 C0.9378685 0.00233139 1.875737 0.00466278 2.84202576 0.00706482 C4.81982552 0.0167871 6.79759805 0.03853919 8.77514648 0.0715332 C11.801689 0.12098094 14.82660542 0.13301777 17.85351562 0.13867188 C19.77736104 0.15275722 21.70119235 0.16896139 23.625 0.1875 C24.5292421 0.1928627 25.43348419 0.1982254 26.36512756 0.20375061 C27.63180519 0.2277317 27.63180519 0.2277317 28.92407227 0.25219727 C30.03396263 0.26815697 30.03396263 0.26815697 31.16627502 0.28443909 C33.63191129 0.60945091 35.17112133 1.18169121 37.24609375 2.55859375 C39.07306135 5.31588006 39.49987983 7.51732407 39.52075195 10.78881836 C39.53504997 12.02546486 39.53504997 12.02546486 39.54963684 13.28709412 C39.54872543 14.16946243 39.54781403 15.05183075 39.546875 15.9609375 C39.55116013 16.87565323 39.55544525 17.79036896 39.55986023 18.73280334 C39.56559698 20.66520358 39.56610861 22.59762542 39.56176758 24.5300293 C39.55860885 27.48198393 39.58207054 30.43293494 39.60742188 33.38476562 C39.6096951 35.26432165 39.61039826 37.14388037 39.609375 39.0234375 C39.61858475 39.90378159 39.62779449 40.78412567 39.63728333 41.69114685 C39.60142532 46.45539203 39.38282998 49.7087674 36.24609375 53.55859375 C33.92551103 54.71888511 32.53630601 54.70309688 29.95166016 54.7355957 C29.06378815 54.74843094 28.17591614 54.76126617 27.26113892 54.77449036 C26.29968964 54.78187729 25.33824036 54.78926422 24.34765625 54.796875 C23.36115082 54.80494675 22.37464539 54.81301849 21.35824585 54.82133484 C19.26847087 54.83517913 17.17867324 54.84589973 15.08886719 54.85375977 C11.89084159 54.87098737 8.6938457 54.91487235 5.49609375 54.95898438 C3.46745553 54.96910984 1.43880851 54.9776264 -0.58984375 54.984375 C-2.02594498 55.01063713 -2.02594498 55.01063713 -3.49105835 55.03742981 C-7.29651585 55.02497911 -9.97095187 54.97959072 -13.35375977 53.16064453 C-15.56391651 49.05325994 -15.3443546 45.09521353 -15.3203125 40.5 C-15.32651108 39.51869614 -15.33270966 38.53739227 -15.33909607 37.52635193 C-15.34619434 35.45271801 -15.34302012 33.37902711 -15.33032227 31.30541992 C-15.31646915 28.13548631 -15.35051258 24.96851182 -15.38867188 21.79882812 C-15.38962321 19.78255136 -15.38776349 17.76627091 -15.3828125 15.75 C-15.39607071 14.80403458 -15.40932892 13.85806915 -15.42298889 12.88343811 C-15.36225077 8.58172 -15.1328186 6.1677107 -12.82421875 2.45654297 C-8.4951102 -0.2195456 -4.99693062 -0.10817968 0 0 Z M0.24609375 15.55859375 C0.24609375 23.47859375 0.24609375 31.39859375 0.24609375 39.55859375 C8.16609375 39.55859375 16.08609375 39.55859375 24.24609375 39.55859375 C24.24609375 31.63859375 24.24609375 23.71859375 24.24609375 15.55859375 C16.32609375 15.55859375 8.40609375 15.55859375 0.24609375 15.55859375 Z " fill="#000000" transform="translate(91.75390625,194.44140625)"/>
<path d="M0 0 C0.89110474 -0.00428513 1.78220947 -0.00857025 2.70031738 -0.01298523 C4.5796626 -0.01871444 6.45902998 -0.0192392 8.33837891 -0.01489258 C11.20904387 -0.01172945 14.07868083 -0.03522005 16.94921875 -0.06054688 C18.77864454 -0.06281974 20.60807309 -0.06352342 22.4375 -0.0625 C23.29283325 -0.07170975 24.1481665 -0.08091949 25.02941895 -0.09040833 C29.73885373 -0.05393833 32.90487726 0.21821391 36.71875 3.30078125 C37.87904136 5.62136397 37.86325313 7.01056899 37.89575195 9.59521484 C37.91500481 10.92702286 37.91500481 10.92702286 37.93464661 12.28573608 C37.94203354 13.24718536 37.94942047 14.20863464 37.95703125 15.19921875 C37.965103 16.18572418 37.97317474 17.17222961 37.98149109 18.18862915 C37.99533538 20.27840413 38.00605598 22.36820176 38.01391602 24.45800781 C38.03114362 27.65603341 38.0750286 30.8530293 38.11914062 34.05078125 C38.12926609 36.07941947 38.13778265 38.10806649 38.14453125 40.13671875 C38.16203934 41.09411957 38.17954742 42.05152039 38.19758606 43.03793335 C38.18516688 46.83375597 38.13447694 49.51875048 36.33666992 52.90063477 C32.15638155 55.13638538 28.07601578 54.89099163 23.40625 54.8671875 C22.40037842 54.87338608 21.39450684 54.87958466 20.3581543 54.88597107 C18.23324552 54.89306935 16.10828113 54.88989513 13.98339844 54.87719727 C10.7300806 54.86332955 7.47963745 54.89740568 4.2265625 54.93554688 C2.16145763 54.93649805 0.09634915 54.93463935 -1.96875 54.9296875 C-2.94175049 54.94294571 -3.91475098 54.95620392 -4.91723633 54.96986389 C-11.4974496 54.87901145 -11.4974496 54.87901145 -14.89697266 52.37109375 C-16.85279392 48.03310288 -16.81718413 44.25518661 -16.7421875 39.546875 C-16.74127106 38.6090065 -16.74035461 37.671138 -16.7394104 36.70484924 C-16.73338168 34.72709068 -16.71765764 32.74934094 -16.69287109 30.77172852 C-16.65633429 27.74526324 -16.65185213 24.72002233 -16.65234375 21.69335938 C-16.64251308 19.76952068 -16.63085629 17.84569026 -16.6171875 15.921875 C-16.61496185 15.0176329 -16.61273621 14.11339081 -16.61044312 13.18174744 C-16.59768341 12.33729568 -16.58492371 11.49284393 -16.57177734 10.62280273 C-16.56415375 9.88287582 -16.55653015 9.14294891 -16.54867554 8.38059998 C-16.23877296 5.97042931 -15.54965624 4.36610563 -14.28125 2.30078125 C-9.85829086 -0.36218233 -5.00423917 -0.00533231 0 0 Z M-1.28125 15.30078125 C-1.28125 23.22078125 -1.28125 31.14078125 -1.28125 39.30078125 C6.63875 39.30078125 14.55875 39.30078125 22.71875 39.30078125 C22.71875 31.38078125 22.71875 23.46078125 22.71875 15.30078125 C14.79875 15.30078125 6.87875 15.30078125 -1.28125 15.30078125 Z " fill="#000000" transform="translate(397.28125,120.69921875)"/>
<path d="M0 0 C0.80448578 -0.00637985 1.60897156 -0.0127597 2.43783569 -0.01933289 C3.30349152 -0.02044571 4.16914734 -0.02155853 5.06103516 -0.02270508 C5.95496979 -0.02603348 6.84890442 -0.02936188 7.76992798 -0.03279114 C9.66122931 -0.03785372 11.55253956 -0.04019967 13.44384766 -0.04003906 C16.33201899 -0.04222266 19.21980655 -0.06037743 22.10791016 -0.0793457 C23.94645052 -0.08228036 25.78499269 -0.08426467 27.62353516 -0.08520508 C28.9159462 -0.09598335 28.9159462 -0.09598335 30.23446655 -0.10697937 C38.30620822 -0.07635028 38.30620822 -0.07635028 41.97509766 2.14526367 C43.71871792 4.98550558 44.23153113 7.15822024 44.265625 10.46728516 C44.2783847 11.31173691 44.29114441 12.15618866 44.30429077 13.02622986 C44.30651642 13.93047195 44.30874207 14.83471405 44.31103516 15.76635742 C44.31769196 16.7032692 44.32434875 17.64018097 44.33120728 18.60548401 C44.34132221 20.58495116 44.34602465 22.56445234 44.34570312 24.54394531 C44.35007706 27.5685247 44.38641086 30.59164542 44.42431641 33.6159668 C44.43018468 35.54109202 44.434154 37.46622417 44.43603516 39.39135742 C44.45040619 40.29357529 44.46477722 41.19579315 44.47958374 42.12535095 C44.45151445 45.99186171 44.19421455 48.65926472 42.59082031 52.21557617 C38.50718306 55.22818293 34.61249099 54.8416177 29.66259766 54.77416992 C28.15379028 54.77778786 28.15379028 54.77778786 26.61450195 54.78147888 C24.4895432 54.78050014 22.36455903 54.76710021 20.23974609 54.7421875 C16.98658661 54.70788482 13.73614383 54.72152614 10.48291016 54.7409668 C8.41779442 54.73406826 6.3526857 54.72439581 4.28759766 54.71166992 C3.31459717 54.71662979 2.34159668 54.72158966 1.33911133 54.72669983 C-2.49015161 54.65989505 -5.23590534 54.56928046 -8.63842773 52.74072266 C-10.83822006 48.62274551 -10.57529708 44.64891569 -10.52099609 40.05151367 C-10.52245132 39.06783813 -10.52390656 38.0841626 -10.52540588 37.07067871 C-10.52374733 34.99280839 -10.51219096 32.91492572 -10.49145508 30.8371582 C-10.46250714 27.65677708 -10.47084601 24.47806354 -10.48388672 21.29760742 C-10.477649 19.27806807 -10.4692578 17.25853398 -10.45849609 15.23901367 C-10.46143173 14.28788696 -10.46436737 13.33676025 -10.46739197 12.35681152 C-10.45470779 11.46909058 -10.44202362 10.58136963 -10.42895508 9.66674805 C-10.42355209 8.88827515 -10.41814911 8.10980225 -10.4125824 7.30773926 C-9.91880172 4.55343544 -8.92340508 3.17815008 -7.02490234 1.14526367 C-4.33203914 0.2476426 -2.7636783 0.01490846 0 0 Z M4.97509766 15.14526367 C4.97509766 23.06526367 4.97509766 30.98526367 4.97509766 39.14526367 C12.89509766 39.14526367 20.81509766 39.14526367 28.97509766 39.14526367 C28.97509766 31.22526367 28.97509766 23.30526367 28.97509766 15.14526367 C21.05509766 15.14526367 13.13509766 15.14526367 4.97509766 15.14526367 Z " fill="#000000" transform="translate(87.02490234375,120.854736328125)"/>
</svg>
