<?xml version="1.0" encoding="UTF-8"?>
<svg version="1.1" xmlns="http://www.w3.org/2000/svg" width="512" height="512">
<path d="M0 0 C3.13834963 1.02337488 4.43240017 1.90362923 5.95288086 4.84057617 C7.9651426 9.50825762 9.89596989 14.19716763 11.73706055 18.93505859 C20.88324803 42.41489362 32.5519084 64.32853687 47 85 C47.40976074 85.59458008 47.81952148 86.18916016 48.24169922 86.80175781 C55.15321048 96.82983246 62.39816565 106.57352889 69.83203125 116.22045898 C70.48945313 117.07454346 71.146875 117.92862793 71.82421875 118.80859375 C72.41291748 119.56970459 73.00161621 120.33081543 73.6081543 121.11499023 C75 123 75 123 76 125 C76.47308594 123.8140625 76.94617188 122.628125 77.43359375 121.40625 C91.86010638 85.82627615 114.48090268 58.90666103 150 43 C176.67351115 31.92755403 207.185872 30.26955506 235 38 C235.65387695 38.17128418 236.30775391 38.34256836 236.98144531 38.51904297 C268.35652009 46.90667852 295.53364243 69.64998909 311.625 97.47265625 C317.45909542 107.90955214 321.83937638 118.4760467 325 130 C325.33902344 131.17433594 325.67804688 132.34867188 326.02734375 133.55859375 C333.60154231 165.42607434 327.17625447 201.49350189 310.359375 229.3046875 C291.8451543 258.75358385 262.90031962 279.77088071 229.07421875 288 C210.04181356 291.97863345 188.71160774 292.9207624 170 287 C170.19335938 287.80179687 170.38671875 288.60359375 170.5859375 289.4296875 C177.9357763 321.5215579 176.97744126 355.5703886 167 387 C166.75797852 387.76586426 166.51595703 388.53172852 166.26660156 389.32080078 C151.74371538 434.09502711 119.51374518 471.17442026 78 493 C55.74182264 504.18794679 30.90941543 512.04646104 5.828125 512.203125 C5.07215027 512.21018463 4.31617554 512.21724426 3.53729248 512.22451782 C-47.7252195 512.59442367 -93.42720152 497.65508114 -130.7734375 461.23046875 C-165.95523 426.22223704 -184.17730748 379.22833446 -184.3125 329.9375 C-184.36481555 307.29646337 -181.01500622 286.55256432 -174 265 C-173.78150391 264.32130859 -173.56300781 263.64261719 -173.33789062 262.94335938 C-164.79157115 236.98884454 -150.65225563 212.2926065 -135 190 C-133.90365234 188.43572266 -133.90365234 188.43572266 -132.78515625 186.83984375 C-130.21918777 183.20538294 -127.61404485 179.599983 -125 176 C-124.46568359 175.26297852 -123.93136719 174.52595703 -123.38085938 173.76660156 C-116.90415444 164.8509546 -110.33354899 156.0474709 -103.39453125 147.48583984 C-99.34760076 142.47950773 -95.47840408 137.35581184 -91.64013672 132.18847656 C-88.41375389 127.85527825 -85.12251847 123.58074947 -81.78417969 119.33325195 C-57.2940694 88.16432533 -33.9879669 54.06272926 -20.68359375 16.49609375 C-16.69119382 5.41374222 -12.96185893 -1.66835808 0 0 Z M-5 29 C-7.58629819 34.10400717 -10.12469894 39.22413402 -12.54296875 44.41015625 C-26.03554401 73.33043613 -43.70148197 99.63605349 -63 125 C-63.44214844 125.58313965 -63.88429688 126.1662793 -64.33984375 126.76708984 C-67.19970899 130.53235634 -70.09503407 134.26952217 -73 138 C-74.07823238 139.38793742 -75.1563501 140.77596392 -76.234375 142.1640625 C-86.03603278 154.77723028 -86.03603278 154.77723028 -90.55078125 160.51953125 C-108.89671554 183.8902131 -127.50679152 208.42723495 -141 235 C-141.46599609 235.9089502 -141.93199219 236.81790039 -142.41210938 237.75439453 C-162.06915745 276.41450144 -173.53534771 321.80791409 -163 365 C-162.80132324 365.82677246 -162.60264648 366.65354492 -162.39794922 367.50537109 C-151.50956889 411.45854084 -125.46125671 448.85132161 -86.56445312 472.47949219 C-52.37747071 492.41966064 -8.86345207 500.8959099 30 491 C30.81645996 490.80132324 31.63291992 490.60264648 32.47412109 490.39794922 C68.07962856 481.57750898 100.8152205 461.53907454 123 432 C124.17949219 430.48599609 124.17949219 430.48599609 125.3828125 428.94140625 C152.0806844 393.86886673 161.07566102 349.92008203 155.34448242 306.75854492 C154.45148839 300.53291265 153.43925037 294.33880989 152.125 288.1875 C151.98803711 287.49438721 151.85107422 286.80127441 151.70996094 286.0871582 C150.97898781 282.98446937 150.37608716 281.29462424 147.8359375 279.3046875 C146.43214844 278.65886719 146.43214844 278.65886719 145 278 C143.81866116 277.3712119 142.64188647 276.73380553 141.46875 276.08984375 C140.51053345 275.57333252 140.51053345 275.57333252 139.53295898 275.04638672 C108.98049594 258.38140687 87.37027175 231.67165731 77.25 198.39453125 C74.5852376 189.18155405 72.93791408 180.56694626 72.953125 170.97265625 C73.79806195 155.67847845 73.79806195 155.67847845 67.8125 142.375 C66.4131497 141.08559865 65.01198306 139.79758377 63.58007812 138.54443359 C60.27992555 135.31872822 57.73975355 131.42965757 55.0625 127.6875 C53.85920975 126.03562962 52.65479196 124.38457996 51.44921875 122.734375 C50.57402588 121.53071289 50.57402588 121.53071289 49.68115234 120.30273438 C48.15977001 118.21884269 46.62532777 116.14581159 45.08203125 114.078125 C25.64756087 87.99684396 7.17434973 59.6940999 -4 29 C-4.33 29 -4.66 29 -5 29 Z M172 55 C170.79988281 55.32871094 169.59976563 55.65742187 168.36328125 55.99609375 C141.61978686 64.07223782 117.26361004 82.58836133 103.76025391 107.265625 C90.15177102 133.48645626 84.67544664 163.85498477 93.25927734 192.73486328 C97.0127293 204.21295401 101.82852453 215.23085675 109 225 C109.87011719 226.20076172 109.87011719 226.20076172 110.7578125 227.42578125 C127.27958689 249.09764849 148.79384215 262.99270127 175 270 C175.8559375 270.23460937 176.711875 270.46921875 177.59375 270.7109375 C203.97600683 276.94510093 231.77532371 271.12022344 255 258 C255.99644531 257.44441406 256.99289062 256.88882813 258.01953125 256.31640625 C265.56996567 251.81206984 271.7089253 246.07018023 278 240 C278.7321875 239.33097656 279.464375 238.66195312 280.21875 237.97265625 C298.30577708 220.99812488 309.49431574 194.03222818 310.3359375 169.43359375 C310.51078387 155.81006685 310.15455316 143.04058593 306 130 C305.63777344 128.86046875 305.27554688 127.7209375 304.90234375 126.546875 C294.81762511 98.24129184 274.58682219 75.14994503 247.5 62.125 C239.85639569 58.58044869 232.25351275 55.79383779 224 54 C223.2069043 53.82557373 222.41380859 53.65114746 221.59667969 53.47143555 C214.44696914 52.0194328 207.53485407 51.65031313 200.25 51.6875 C198.5342981 51.69487183 198.5342981 51.69487183 196.78393555 51.70239258 C188.15691677 51.82164321 180.32536972 52.60609276 172 55 Z " fill="#000000" transform="translate(184,0)"/>
<path d="M0 0 C0.99 0.33 1.98 0.66 3 1 C3.5775 0.67 4.155 0.34 4.75 0 C8.17056125 -1.52024944 10.4383562 -0.95401173 14 0 C16.58841637 2.19019846 17.85198477 3.68970129 18.23828125 7.109375 C18.24873401 9.07449466 18.1329252 11.03935331 18 13 C18.58523438 13.26296875 19.17046875 13.5259375 19.7734375 13.796875 C33.86751769 21.41262359 43.51068987 41.10830517 48.28125 55.8125 C56.12966879 82.27288335 52.69761987 108.35062107 40.1875 132.625 C37.02926284 138.25137109 33.20910658 143.12764026 29 148 C28.49597656 148.64582031 27.99195313 149.29164063 27.47265625 149.95703125 C25.50856452 152.280209 23.77368021 153.82656556 20.76953125 154.5 C17.02256289 154.69560031 14.70929885 154.44331178 11.5 152.4375 C9.46973466 149.13831882 9 146.87929749 9 143 C10.50960535 140.04368953 12.26173931 137.77554658 14.546875 135.375 C28.75824581 120.25097235 33.59068449 100.48214038 33.26953125 80.2421875 C32.52661817 60.09204251 22.55106633 41.64162469 8 28 C5.74403462 31.085695 3.4961987 34.1771759 1.25366211 37.27264404 C0.40934063 38.43599078 -0.43689038 39.59795375 -1.28491211 40.75860596 C-4.02319791 44.50868455 -6.7162927 48.28619226 -9.36816406 52.09790039 C-10.29739017 53.41901037 -11.24042644 54.7305032 -12.19628906 56.0324707 C-17.98170857 63.2992056 -17.98170857 63.2992056 -19.69921875 71.9465332 C-18.64981019 74.45792021 -17.39998981 76.67132842 -16 79 C-14.60667502 87.61607581 -16.4509997 94.52964437 -21.1328125 101.74609375 C-24.84970747 106.68144105 -29.92969519 109.83901274 -36 111 C-45.18090345 111.68200997 -52.3737568 111.03571618 -59.75 105.3125 C-64.48135761 100.99162547 -67.59284377 94.82145206 -68.2734375 88.43359375 C-68.56733827 79.76352107 -66.99030983 73.50930536 -61.16796875 66.9296875 C-56.98156871 62.98274624 -52.69337951 60.10448272 -47 59 C-45.22323835 59.14626557 -43.44803148 59.31227135 -41.67456055 59.49414062 C-38.32914115 59.5158305 -36.63794173 59.50256981 -33.98501587 57.41259766 C-32.12064478 55.04306637 -30.56170479 52.62213297 -29.01953125 50.03125 C-28.43580246 49.12121216 -27.85207367 48.21117432 -27.25065613 47.27355957 C-25.40050516 44.37080327 -23.60680411 41.43753285 -21.8125 38.5 C-20.56542325 36.52248102 -19.31480834 34.54718857 -18.06054688 32.57421875 C-14.99889006 27.74119864 -11.98282414 22.88202045 -9 18 C-11.78399768 15.21600232 -15.07070398 14.5485419 -18.75 13.4375 C-19.45382812 13.21642578 -20.15765625 12.99535156 -20.8828125 12.76757812 C-40.28911098 6.79779672 -60.60808065 9.52826654 -78.45776367 18.79931641 C-97.29716548 29.12428114 -108.70972506 45.55466054 -115.08984375 65.625 C-120.69578731 86.41270486 -116.38319961 106.82553716 -106.03466797 125.26708984 C-103.10222981 130.178474 -99.44775697 134.39984756 -95.625 138.625 C-93.4455351 141.81037178 -93.06857918 144.15956603 -93 148 C-94.34562399 150.94755732 -95.08554544 152.54277272 -98 154 C-101.16759219 154.7098621 -103.831188 154.73393455 -107 154 C-123.12754664 143.26674426 -131.66020114 119.08438956 -135.58984375 101.3359375 C-138.82473948 75.02545227 -133.81674515 49.47958988 -117.80078125 28.05859375 C-115.5973745 25.30901148 -113.33312868 22.64000867 -111 20 C-110.18982422 19.06414062 -110.18982422 19.06414062 -109.36328125 18.109375 C-97.27738455 5.07974329 -80.92721098 -2.53756669 -64 -7 C-63.17886719 -7.226875 -62.35773438 -7.45375 -61.51171875 -7.6875 C-40.3651647 -12.54412485 -19.63865604 -7.84606593 0 0 Z M-46.6875 78.5625 C-49.24071817 80.90511298 -49.24071817 80.90511298 -50.125 84.4375 C-50.32041984 88.11161091 -50.32041984 88.11161091 -47.9375 90.9375 C-45.16764391 93.17147653 -45.16764391 93.17147653 -42 93.625 C-37.88710733 92.76814736 -36.40313068 91.42264067 -34 88 C-33.6690684 84.39969811 -33.6690684 84.39969811 -35 81 C-37.18498756 78.46808501 -37.18498756 78.46808501 -40 77 C-43.9417798 76.6649197 -43.9417798 76.6649197 -46.6875 78.5625 Z " fill="#000000" transform="translate(426,77)"/>
<path d="M0 0 C2.50463682 0.91950072 3.70640728 1.49784766 5.06732178 3.82551575 C8.57805159 14.05925055 11.05061411 24.57891533 13.640625 35.07421875 C14.17247773 37.21096943 14.70485511 39.34758957 15.23773193 41.48408508 C16.63043028 47.07385582 18.01604998 52.66535725 19.40014648 58.25726318 C20.81713735 63.97661851 22.24089372 69.69428882 23.6640625 75.41210938 C26.44929019 86.60644446 29.2270342 97.8026217 32 109 C35.93412389 97.32427464 39.80858023 85.64698858 43.33203125 73.83984375 C44.07485822 71.37434547 44.81769708 68.90885077 45.56054688 66.44335938 C46.50444971 63.29914111 47.44770482 60.15473025 48.39013672 57.0100708 C49.70012675 52.63962551 51.01543401 48.27080438 52.33203125 43.90234375 C52.67160355 42.76393539 53.01117584 41.62552704 53.36103821 40.45262146 C53.83745003 38.87300377 53.83745003 38.87300377 54.32348633 37.26147461 C54.7381591 35.87755775 54.7381591 35.87755775 55.16120911 34.46568298 C56.56156196 30.34925037 57.29821308 28.46785795 61 26 C63.12109375 25.62890625 63.12109375 25.62890625 65.4375 25.5625 C66.19933594 25.52253906 66.96117187 25.48257812 67.74609375 25.44140625 C71.10798763 26.27459659 72.0209838 28.20941926 74 31 C75.05652637 33.1841423 76.03370427 35.40776251 76.9453125 37.65625 C77.2012619 38.2810022 77.4572113 38.90575439 77.72091675 39.54943848 C78.53013855 41.52986573 79.32771014 43.51474343 80.125 45.5 C80.66720582 46.83234198 81.210168 48.16437643 81.75390625 49.49609375 C83.17932572 52.99337624 84.59262406 56.49541121 86 60 C86.38526855 60.90041016 86.77053711 61.80082031 87.16748047 62.72851562 C88 65 88 65 88 68 C88.5902446 67.99333817 89.1804892 67.98667633 89.78862 67.97981262 C95.93674264 67.91339698 102.08476321 67.8681735 108.2331543 67.83520508 C110.52714172 67.82012692 112.82110037 67.7996613 115.11499023 67.77368164 C118.41397205 67.73725642 121.7125724 67.72026369 125.01171875 67.70703125 C126.03585373 67.69154739 127.05998871 67.67606354 128.11515808 67.66011047 C137.09706023 67.6579918 137.09706023 67.6579918 141 71 C142.74327413 73.93187013 143.0143242 75.64905716 142.875 79.0625 C141.84046781 82.53557234 140.81349509 83.74876589 138 86 C135.27479553 86.52139282 135.27479553 86.52139282 132.11743164 86.54931641 C130.93262711 86.56838043 129.74782257 86.58744446 128.52711487 86.60708618 C127.25101852 86.60526337 125.97492218 86.60344055 124.66015625 86.6015625 C123.34591171 86.61013275 122.03166718 86.618703 120.67759705 86.62753296 C117.89761203 86.64244009 115.11813506 86.64188851 112.33813477 86.63134766 C108.78211168 86.61975889 105.22817244 86.65361681 101.67249393 86.700037 C98.27246159 86.73665501 94.87288462 86.7291401 91.47265625 86.7265625 C89.56154808 86.75419174 89.56154808 86.75419174 87.61183167 86.78237915 C79.04260131 86.69251739 79.04260131 86.69251739 76.12016296 84.75137329 C73.94270447 82.24248696 72.36964196 79.23579496 71.19921875 76.1328125 C70.94462891 75.47539062 70.69003906 74.81796875 70.42773438 74.140625 C70.18345703 73.47546875 69.93917969 72.8103125 69.6875 72.125 C69.29208008 71.09246094 69.29208008 71.09246094 68.88867188 70.0390625 C68.24863853 68.36333884 67.62280086 66.68220438 67 65 C64.77517662 68.33723507 63.7546818 71.61058784 62.61743164 75.40551758 C62.38787277 76.15709641 62.1583139 76.90867523 61.92179871 77.68302917 C61.42419723 79.31438303 60.92886494 80.94643036 60.43553352 82.57908058 C59.65372755 85.16580155 58.86572078 87.75055934 58.07603455 90.33488464 C56.11527878 96.7561317 54.16488397 103.18051514 52.21490479 109.6050415 C50.56779115 115.03062454 48.91638773 120.4548643 47.25912285 125.87735558 C46.48438221 128.41856912 45.71598274 130.9616441 44.94776917 133.50483704 C44.469486 135.07208833 43.99089978 136.63924718 43.51196289 138.20629883 C43.19622818 139.26090805 43.19622818 139.26090805 42.87411499 140.33682251 C41.32712287 145.36380887 39.77314125 150.22685875 36 154 C32.43416736 155.05354146 30.39843571 155.11718697 26.8125 154.0625 C21.02392286 149.81754343 20.02867512 140.6675156 18.38037109 133.94384766 C18.13770004 132.97053497 17.89502899 131.99722229 17.64500427 130.99441528 C16.85013274 127.8020277 16.06184265 124.60805255 15.2734375 121.4140625 C14.7200951 119.18814345 14.16626497 116.9623456 13.61196899 114.73666382 C12.15838224 108.89578632 10.71005268 103.05361942 9.26324463 97.21105957 C6.94164803 87.83820955 4.61361615 78.46696125 2.28261185 69.09644699 C1.46883227 65.82084033 0.65825636 62.54445255 -0.15200806 59.26797485 C-0.64761833 57.27188503 -1.14333008 55.27582039 -1.63916016 53.27978516 C-1.86462021 52.36447021 -2.09008026 51.44915527 -2.32237244 50.50610352 C-2.63346199 49.25719833 -2.63346199 49.25719833 -2.95083618 47.98306274 C-3.13037653 47.25786249 -3.30991688 46.53266224 -3.49489784 45.78548622 C-3.96314191 43.91800519 -3.96314191 43.91800519 -5 42 C-5.64231567 43.78615723 -5.64231567 43.78615723 -6.29760742 45.60839844 C-7.89403679 50.03478068 -9.51092852 54.45345426 -11.1340332 58.87011719 C-11.8329804 60.78084282 -12.52639978 62.69360015 -13.21411133 64.60839844 C-14.20500122 67.36428858 -15.21570064 70.11220181 -16.23046875 72.859375 C-16.53276901 73.71368103 -16.83506927 74.56798706 -17.14653015 75.44818115 C-18.92007138 80.18179292 -20.26378702 83.66326045 -25 86 C-28.75542862 86.5719081 -32.45665098 86.58428742 -36.25 86.56640625 C-37.34086914 86.57260483 -38.43173828 86.57880341 -39.55566406 86.58518982 C-41.85871489 86.59228389 -44.16181704 86.58912126 -46.46484375 86.57641602 C-49.98793868 86.56254748 -53.50837918 86.59663399 -57.03125 86.63476562 C-59.27083398 86.63571681 -61.51042129 86.63385805 -63.75 86.62890625 C-64.80219727 86.64216446 -65.85439453 86.65542267 -66.93847656 86.66908264 C-74.24491761 86.57607051 -74.24491761 86.57607051 -78.15942383 83.58959961 C-79.91845335 81.1147321 -80.70555437 79.98498847 -80.6875 77 C-80.71199219 76.360625 -80.73648438 75.72125 -80.76171875 75.0625 C-79.51659068 71.6910763 -77.02461292 69.75624276 -74 68 C-70.95464933 67.28942045 -68.00058957 67.27805454 -64.8828125 67.29296875 C-64.02565643 67.27784744 -63.16850037 67.26272614 -62.28536987 67.24714661 C-59.56497667 67.20438015 -56.8456954 67.19544258 -54.125 67.1875 C-52.27340817 67.16434701 -50.42184261 67.13898 -48.5703125 67.11132812 C-44.04677719 67.04858526 -39.52393184 67.01616369 -35 67 C-34.38910522 65.36309204 -34.38910522 65.36309204 -33.76586914 63.69311523 C-30.15254413 54.01579837 -26.52691378 44.34321374 -22.88519287 34.67654419 C-21.40993882 30.75855614 -19.93705842 26.83992225 -18.48681641 22.91259766 C-17.29531539 19.68689155 -16.08777222 16.46775201 -14.875 13.25 C-14.54636963 12.34306396 -14.21773926 11.43612793 -13.87915039 10.50170898 C-11.23279416 3.57246099 -8.14518479 -1.03981082 0 0 Z " fill="#000000" transform="translate(148,247)"/>
</svg>
