<?xml version="1.0" encoding="UTF-8"?>
<!DOCTYPE svg PUBLIC "-//W3C//DTD SVG 1.1//EN" "http://www.w3.org/Graphics/SVG/1.1/DTD/svg11.dtd">
<svg xmlns="http://www.w3.org/2000/svg" version="1.1" width="512px" height="512px" style="shape-rendering:geometricPrecision; text-rendering:geometricPrecision; image-rendering:optimizeQuality; fill-rule:evenodd; clip-rule:evenodd" xmlns:xlink="http://www.w3.org/1999/xlink">
<g><path style="opacity:0.936" fill="#000000" d="M 194.5,-0.5 C 206.167,-0.5 217.833,-0.5 229.5,-0.5C 284.881,4.60768 331.714,27.2743 370,67.5C 374.38,72.2114 378.38,77.2114 382,82.5C 386.833,77.6667 391.667,72.8333 396.5,68C 388.085,50.0698 391.419,34.7365 406.5,22C 423.673,12.9389 439.173,15.1056 453,28.5C 455.564,32.4622 457.731,36.6288 459.5,41C 476.83,41.4999 494.163,41.6666 511.5,41.5C 511.5,47.5 511.5,53.5 511.5,59.5C 494.154,59.1672 476.821,59.5005 459.5,60.5C 451.772,80.3649 437.439,88.1982 416.5,84C 413.804,83.2352 411.304,82.0685 409,80.5C 403.5,86 398,91.5 392.5,97C 432.012,162.159 437.179,229.992 408,300.5C 403.541,309.92 398.708,319.086 393.5,328C 428.293,363.793 463.46,399.293 499,434.5C 504.769,441.376 508.935,449.042 511.5,457.5C 511.5,463.833 511.5,470.167 511.5,476.5C 506.059,494.941 494.059,506.608 475.5,511.5C 469.5,511.5 463.5,511.5 457.5,511.5C 449.042,508.935 441.376,504.769 434.5,499C 399,463.5 363.5,428 328,392.5C 274.723,425.731 217.556,434.565 156.5,419C 76.0393,394.205 25.206,341.038 4,259.5C 2.32381,250.05 0.823813,240.717 -0.5,231.5C -0.5,219.167 -0.5,206.833 -0.5,194.5C 7.79945,121.043 43.4661,65.2095 106.5,27C 134.106,11.8508 163.44,2.68411 194.5,-0.5 Z M 202.5,16.5 C 266.378,15.3693 319.544,38.3693 362,85.5C 409.408,145.618 420.408,211.951 395,284.5C 368.124,347.703 321.291,387.536 254.5,404C 175.933,417.917 110.766,394.751 59,334.5C 15.4329,275.418 5.76625,211.084 30,141.5C 63.0914,66.1997 120.591,24.5331 202.5,16.5 Z M 421.5,34.5 C 439.078,34.5627 445.245,42.8961 440,59.5C 429.647,70.5035 419.98,69.8369 411,57.5C 408.026,46.7868 411.526,39.1201 421.5,34.5 Z M 198.5,51.5 C 259.255,48.8852 307.922,71.5519 344.5,119.5C 337.848,126.652 331.015,133.652 324,140.5C 306.076,132.084 290.742,135.418 278,150.5C 272.908,158.847 271.242,167.847 273,177.5C 274.355,181.169 275.355,184.835 276,188.5C 257.972,206.862 239.638,224.862 221,242.5C 215.843,239.726 210.343,238.059 204.5,237.5C 198.233,238.4 192.233,239.9 186.5,242C 174.333,229.833 162.167,217.667 150,205.5C 151.963,199.574 153.13,193.407 153.5,187C 153.295,171.457 145.961,160.791 131.5,155C 109.467,149.35 94.1338,157.016 85.5,178C 75.5056,178.5 65.5056,178.666 55.5,178.5C 70.9902,116.507 109.323,76.0067 170.5,57C 179.909,54.8248 189.242,52.9915 198.5,51.5 Z M 353.5,135.5 C 365.724,156.032 372.557,178.365 374,202.5C 375.575,268.2 348.742,318.366 293.5,353C 239.849,381.568 186.182,381.568 132.5,353C 75.2954,316.763 48.6287,264.596 52.5,196.5C 63.8333,196.5 75.1667,196.5 86.5,196.5C 89.2195,208.073 96.2195,215.907 107.5,220C 113.765,221.484 120.098,221.818 126.5,221C 129.932,219.929 133.265,218.929 136.5,218C 149.167,230.667 161.833,243.333 174.5,256C 165.817,275.282 170.15,290.949 187.5,303C 209.657,311.834 226.157,305.668 237,284.5C 237.881,280.496 238.714,276.496 239.5,272.5C 238.474,266.28 236.974,260.28 235,254.5C 252.833,236.667 270.667,218.833 288.5,201C 292.165,201.645 295.831,202.645 299.5,204C 316.649,206.507 329.482,200.341 338,185.5C 343.02,174.369 342.52,163.535 336.5,153C 342.37,147.298 348.036,141.465 353.5,135.5 Z M 303.5,153.5 C 319.763,154.721 325.596,163.054 321,178.5C 312.095,188.782 302.762,189.116 293,179.5C 287.969,167.243 291.469,158.577 303.5,153.5 Z M 116.5,170.5 C 131.438,171.93 137.271,179.93 134,194.5C 128.572,202.976 121.072,205.476 111.5,202C 100.456,193.373 99.7898,184.04 109.5,174C 111.925,172.787 114.259,171.621 116.5,170.5 Z M 199.5,256.5 C 216.194,256.222 222.694,264.222 219,280.5C 211.842,289.866 203.342,291.366 193.5,285C 186.636,277.492 186.136,269.659 192,261.5C 194.426,259.548 196.926,257.881 199.5,256.5 Z M 381.5,343.5 C 389.479,350.812 397.146,358.479 404.5,366.5C 392.167,379.5 379.5,392.167 366.5,404.5C 358.681,397.181 351.014,389.681 343.5,382C 357.728,370.606 370.394,357.773 381.5,343.5 Z M 417.5,379.5 C 442.16,403.327 466.327,427.66 490,452.5C 497.606,468.368 494.106,481.201 479.5,491C 469.925,495.414 460.591,494.748 451.5,489C 427.195,465.695 403.195,442.028 379.5,418C 392.369,405.298 405.035,392.465 417.5,379.5 Z"/></g>
<g><path style="opacity:0.94" fill="#000000" d="M 197.5,33.5 C 273.267,30.7896 330.767,61.4563 370,125.5C 399.999,183.816 399.999,242.149 370,300.5C 328.93,367.12 269.097,397.286 190.5,391C 117.062,379.05 67.562,338.216 42,268.5C 21.1916,191.863 40.025,127.03 98.5,74C 127.525,50.824 160.525,37.324 197.5,33.5 Z M 198.5,51.5 C 189.242,52.9915 179.909,54.8248 170.5,57C 109.323,76.0067 70.9902,116.507 55.5,178.5C 65.5056,178.666 75.5056,178.5 85.5,178C 94.1338,157.016 109.467,149.35 131.5,155C 145.961,160.791 153.295,171.457 153.5,187C 153.13,193.407 151.963,199.574 150,205.5C 162.167,217.667 174.333,229.833 186.5,242C 192.233,239.9 198.233,238.4 204.5,237.5C 210.343,238.059 215.843,239.726 221,242.5C 239.638,224.862 257.972,206.862 276,188.5C 275.355,184.835 274.355,181.169 273,177.5C 271.242,167.847 272.908,158.847 278,150.5C 290.742,135.418 306.076,132.084 324,140.5C 331.015,133.652 337.848,126.652 344.5,119.5C 307.922,71.5519 259.255,48.8852 198.5,51.5 Z M 353.5,135.5 C 348.036,141.465 342.37,147.298 336.5,153C 342.52,163.535 343.02,174.369 338,185.5C 329.482,200.341 316.649,206.507 299.5,204C 295.831,202.645 292.165,201.645 288.5,201C 270.667,218.833 252.833,236.667 235,254.5C 236.974,260.28 238.474,266.28 239.5,272.5C 238.714,276.496 237.881,280.496 237,284.5C 226.157,305.668 209.657,311.834 187.5,303C 170.15,290.949 165.817,275.282 174.5,256C 161.833,243.333 149.167,230.667 136.5,218C 133.265,218.929 129.932,219.929 126.5,221C 120.098,221.818 113.765,221.484 107.5,220C 96.2195,215.907 89.2195,208.073 86.5,196.5C 75.1667,196.5 63.8333,196.5 52.5,196.5C 48.6287,264.596 75.2954,316.763 132.5,353C 186.182,381.568 239.849,381.568 293.5,353C 348.742,318.366 375.575,268.2 374,202.5C 372.557,178.365 365.724,156.032 353.5,135.5 Z M 303.5,153.5 C 291.469,158.577 287.969,167.243 293,179.5C 302.762,189.116 312.095,188.782 321,178.5C 325.596,163.054 319.763,154.721 303.5,153.5 Z M 116.5,170.5 C 114.259,171.621 111.925,172.787 109.5,174C 99.7898,184.04 100.456,193.373 111.5,202C 121.072,205.476 128.572,202.976 134,194.5C 137.271,179.93 131.438,171.93 116.5,170.5 Z M 199.5,256.5 C 196.926,257.881 194.426,259.548 192,261.5C 186.136,269.659 186.636,277.492 193.5,285C 203.342,291.366 211.842,289.866 219,280.5C 222.694,264.222 216.194,256.222 199.5,256.5 Z"/></g>
</svg>
