<?xml version="1.0" encoding="UTF-8"?>
<!DOCTYPE svg PUBLIC "-//W3C//DTD SVG 1.1//EN" "http://www.w3.org/Graphics/SVG/1.1/DTD/svg11.dtd">
<svg xmlns="http://www.w3.org/2000/svg" version="1.1" width="512px" height="512px" style="shape-rendering:geometricPrecision; text-rendering:geometricPrecision; image-rendering:optimizeQuality; fill-rule:evenodd; clip-rule:evenodd" xmlns:xlink="http://www.w3.org/1999/xlink">
<g><path style="opacity:0.917" fill="#000000" d="M 205.5,-0.5 C 206.167,-0.5 206.833,-0.5 207.5,-0.5C 244.074,55.6427 280.908,111.643 318,167.5C 318.617,168.449 318.451,169.282 317.5,170C 313.633,172.698 309.633,175.198 305.5,177.5C 272.265,128.042 239.265,78.3753 206.5,28.5C 186.667,58.1667 166.833,87.8333 147,117.5C 143,114.833 139,112.167 135,109.5C 134.333,108.5 134.333,107.5 135,106.5C 158.722,70.9511 182.222,35.2844 205.5,-0.5 Z"/></g>
<g><path style="opacity:0.927" fill="#000000" d="M 216.5,104.5 C 239.514,104.668 249.348,116.002 246,138.5C 237.419,155.874 223.586,162.707 204.5,159C 189.872,154.009 184.039,143.842 187,128.5C 192.26,114.728 202.094,106.728 216.5,104.5 Z M 217.5,120.5 C 229.199,120.653 233.032,125.986 229,136.5C 223.225,143.4 216.059,145.567 207.5,143C 202.352,139.666 201.186,135.166 204,129.5C 207.528,124.834 212.028,121.834 217.5,120.5 Z"/></g>
<g><path style="opacity:0.921" fill="#000000" d="M 125.5,120.5 C 130.45,122.98 135.116,125.98 139.5,129.5C 114.248,168.338 88.7485,207.005 63,245.5C 31.6109,295.461 28.1109,347.294 52.5,401C 47.9923,403.754 43.3257,406.254 38.5,408.5C 28.7686,390.126 22.9353,370.459 21,349.5C 17.6536,311.556 25.6536,276.223 45,243.5C 72.0821,202.6 98.9155,161.6 125.5,120.5 Z"/></g>
<g><path style="opacity:0.883" fill="#000000" d="M 145.5,147.5 C 150.833,147.5 156.167,147.5 161.5,147.5C 161.5,152.833 161.5,158.167 161.5,163.5C 156.167,163.5 150.833,163.5 145.5,163.5C 145.5,158.167 145.5,152.833 145.5,147.5 Z"/></g>
<g><path style="opacity:0.925" fill="#000000" d="M 361.5,172.5 C 389.464,170.574 415.13,177.24 438.5,192.5C 435.747,197.008 432.747,201.341 429.5,205.5C 389.931,182.13 350.931,182.963 312.5,208C 276.036,237.393 263.536,274.893 275,320.5C 294.285,371.079 331.119,394.913 385.5,392C 432.464,383.37 461.63,355.87 473,309.5C 477.754,281.186 472.087,255.186 456,231.5C 450.948,225.223 445.781,219.056 440.5,213C 443.486,209.345 446.486,205.678 449.5,202C 450.167,201.333 450.833,201.333 451.5,202C 490.572,241.016 500.405,286.516 481,338.5C 461.846,378.338 430.346,401.505 386.5,408C 336.698,411.781 298.198,392.947 271,351.5C 249.401,311.669 249.068,271.669 270,231.5C 291.003,197.083 321.503,177.416 361.5,172.5 Z M 370.5,237.5 C 373.425,237.46 376.091,238.293 378.5,240C 389.369,246.263 400.036,252.763 410.5,259.5C 398.092,267.233 385.425,274.566 372.5,281.5C 359.668,274.252 347.002,266.752 334.5,259C 346.729,252.059 358.729,244.892 370.5,237.5 Z M 325.5,273.5 C 338.445,280.606 351.278,287.939 364,295.5C 364.667,310.5 364.667,325.5 364,340.5C 351.582,333.041 339.082,325.707 326.5,318.5C 325.501,303.515 325.167,288.515 325.5,273.5 Z M 418.5,273.5 C 419.661,288.328 419.828,303.328 419,318.5C 406.333,325.833 393.667,333.167 381,340.5C 380.167,325.489 380.334,310.489 381.5,295.5C 394.062,288.392 406.395,281.059 418.5,273.5 Z"/></g>
<g><path style="opacity:0.883" fill="#000000" d="M 253.5,175.5 C 258.833,175.5 264.167,175.5 269.5,175.5C 269.5,180.833 269.5,186.167 269.5,191.5C 264.167,191.5 258.833,191.5 253.5,191.5C 253.5,186.167 253.5,180.833 253.5,175.5 Z"/></g>
<g><path style="opacity:0.925" fill="#000000" d="M 183.5,177.5 C 213.874,178.03 234.041,192.697 244,221.5C 249.69,240.305 247.356,257.972 237,274.5C 221.253,291.699 202.753,295.199 181.5,285C 156.629,269.425 145.463,246.925 148,217.5C 150.936,196.074 162.769,182.741 183.5,177.5 Z M 185.5,193.5 C 198.572,193.022 209.405,197.689 218,207.5C 232.111,224.809 234.444,243.476 225,263.5C 212.309,276.865 198.476,278.032 183.5,267C 166.19,252.072 160.357,233.572 166,211.5C 169.536,202.125 176.036,196.125 185.5,193.5 Z"/></g>
<g><path style="opacity:0.901" fill="#000000" d="M 178.5,213.5 C 183.833,214.5 189.167,215.5 194.5,216.5C 192.14,225.26 193.64,233.26 199,240.5C 202.193,242.699 205.026,245.199 207.5,248C 205.557,252.72 203.224,257.22 200.5,261.5C 181.448,251.057 174.115,235.057 178.5,213.5 Z"/></g>
<g><path style="opacity:0.934" fill="#000000" d="M 371.5,218.5 C 392.99,229.8 414.157,241.8 435,254.5C 435.833,279.173 435.666,303.84 434.5,328.5C 413.903,340.047 393.403,351.714 373,363.5C 351.69,352.013 330.69,340.013 310,327.5C 309.333,303.167 309.333,278.833 310,254.5C 330.481,242.347 350.981,230.347 371.5,218.5 Z M 370.5,237.5 C 358.729,244.892 346.729,252.059 334.5,259C 347.002,266.752 359.668,274.252 372.5,281.5C 385.425,274.566 398.092,267.233 410.5,259.5C 400.036,252.763 389.369,246.263 378.5,240C 376.091,238.293 373.425,237.46 370.5,237.5 Z M 325.5,273.5 C 325.167,288.515 325.501,303.515 326.5,318.5C 339.082,325.707 351.582,333.041 364,340.5C 364.667,325.5 364.667,310.5 364,295.5C 351.278,287.939 338.445,280.606 325.5,273.5 Z M 418.5,273.5 C 406.395,281.059 394.062,288.392 381.5,295.5C 380.334,310.489 380.167,325.489 381,340.5C 393.667,333.167 406.333,325.833 419,318.5C 419.828,303.328 419.661,288.328 418.5,273.5 Z"/></g>
<g><path style="opacity:0.882" fill="#000000" d="M 106.5,226.5 C 111.833,226.5 117.167,226.5 122.5,226.5C 122.5,231.833 122.5,237.167 122.5,242.5C 117.167,242.5 111.833,242.5 106.5,242.5C 106.5,237.167 106.5,231.833 106.5,226.5 Z"/></g>
<g><path style="opacity:0.922" fill="#000000" d="M 100.5,271.5 C 132.349,269.01 156.849,281.01 174,307.5C 181.882,322.362 182.382,337.362 175.5,352.5C 170.623,350.544 165.956,348.211 161.5,345.5C 166.822,329.788 163.489,316.121 151.5,304.5C 131.662,285.829 109.662,282.663 85.5,295C 72.367,307.144 69.867,321.31 78,337.5C 92.9989,359.078 113.499,367.578 139.5,363C 145.196,361.07 150.363,358.236 155,354.5C 159.059,358.056 162.559,362.056 165.5,366.5C 151.029,378.454 134.362,382.954 115.5,380C 87.5982,375.425 68.7649,359.925 59,333.5C 53.5916,299.989 67.425,279.323 100.5,271.5 Z"/></g>
<g><path style="opacity:0.882" fill="#000000" d="M 205.5,312.5 C 210.833,312.5 216.167,312.5 221.5,312.5C 221.5,317.833 221.5,323.167 221.5,328.5C 216.167,328.5 210.833,328.5 205.5,328.5C 205.5,323.167 205.5,317.833 205.5,312.5 Z"/></g>
<g><path style="opacity:0.905" fill="#000000" d="M 99.5,318.5 C 108.821,331.487 121.487,336.82 137.5,334.5C 138.057,339.45 139.057,344.283 140.5,349C 117.344,354.173 99.3438,346.84 86.5,327C 90.8984,324.143 95.2317,321.309 99.5,318.5 Z"/></g>
<g><path style="opacity:0.926" fill="#000000" d="M 221.5,350.5 C 246.59,349.297 263.09,360.63 271,384.5C 277.863,413.582 270.03,437.749 247.5,457C 225.619,470.332 205.786,467.832 188,449.5C 176.363,432.3 173.363,413.633 179,393.5C 185.397,371.271 199.564,356.937 221.5,350.5 Z M 222.5,366.5 C 240.561,365.459 251.728,373.792 256,391.5C 260.185,414.3 253.018,432.466 234.5,446C 214.037,453.185 200.537,446.352 194,425.5C 189.669,404.831 195.169,387.331 210.5,373C 214.434,370.536 218.434,368.369 222.5,366.5 Z"/></g>
<g><path style="opacity:0.901" fill="#000000" d="M 235.5,384.5 C 236.978,384.238 238.311,384.571 239.5,385.5C 247.248,405.176 243.081,421.842 227,435.5C 223.435,431.606 220.269,427.44 217.5,423C 219.986,419.844 222.486,416.678 225,413.5C 225.667,411.5 226.333,409.5 227,407.5C 227.439,401.629 226.773,395.962 225,390.5C 228.644,388.599 232.144,386.599 235.5,384.5 Z"/></g>
<g><path style="opacity:0.882" fill="#000000" d="M 70.5,388.5 C 75.8333,388.5 81.1667,388.5 86.5,388.5C 86.5,393.833 86.5,399.167 86.5,404.5C 81.1667,404.5 75.8333,404.5 70.5,404.5C 70.5,399.167 70.5,393.833 70.5,388.5 Z"/></g>
<g><path style="opacity:0.925" fill="#000000" d="M 123.5,393.5 C 131.503,392.708 139.169,393.875 146.5,397C 157.09,404.246 160.59,414.079 157,426.5C 148.193,444.984 133.693,451.817 113.5,447C 100.283,441.068 95.1163,430.901 98,416.5C 102.59,404.406 111.09,396.74 123.5,393.5 Z M 126.5,409.5 C 131.121,408.993 135.454,409.826 139.5,412C 143.311,415.954 143.478,420.121 140,424.5C 134.788,431.349 127.955,433.849 119.5,432C 114.055,429.943 112.222,426.109 114,420.5C 116.505,414.822 120.671,411.155 126.5,409.5 Z"/></g>
<g><path style="opacity:0.923" fill="#000000" d="M 226.5,511.5 C 213.167,511.5 199.833,511.5 186.5,511.5C 125.018,503.804 77.6842,473.971 44.5,422C 49.0002,418.915 53.6669,416.082 58.5,413.5C 97.8574,473.175 153.524,500.342 225.5,495C 260.089,491.196 290.756,478.363 317.5,456.5C 321.21,460.208 324.543,464.208 327.5,468.5C 305.421,487.374 280.088,500.207 251.5,507C 243.051,508.654 234.718,510.154 226.5,511.5 Z"/></g>
<g><path style="opacity:0.882" fill="#000000" d="M 292.5,414.5 C 297.833,414.5 303.167,414.5 308.5,414.5C 308.5,419.833 308.5,425.167 308.5,430.5C 303.167,430.5 297.833,430.5 292.5,430.5C 292.5,425.167 292.5,419.833 292.5,414.5 Z"/></g>
<g><path style="opacity:0.892" fill="#000000" d="M 350.5,419.5 C 355.527,421.683 360.193,424.517 364.5,428C 357.116,439.221 348.449,449.387 338.5,458.5C 334.5,455.167 330.833,451.5 327.5,447.5C 335.946,438.729 343.612,429.396 350.5,419.5 Z"/></g>
</svg>
