<?xml version="1.0" encoding="UTF-8"?>
<!DOCTYPE svg PUBLIC "-//W3C//DTD SVG 1.1//EN" "http://www.w3.org/Graphics/SVG/1.1/DTD/svg11.dtd">
<svg xmlns="http://www.w3.org/2000/svg" version="1.1" width="512px" height="512px" style="shape-rendering:geometricPrecision; text-rendering:geometricPrecision; image-rendering:optimizeQuality; fill-rule:evenodd; clip-rule:evenodd" xmlns:xlink="http://www.w3.org/1999/xlink">
<g><path style="opacity:0.939" fill="#000000" d="M 312.5,-0.5 C 358.5,-0.5 404.5,-0.5 450.5,-0.5C 470.145,5.31492 481.979,18.3149 486,38.5C 486.97,93.1943 486.637,147.861 485,202.5C 475.206,241.163 450.373,262.163 410.5,265.5C 410.5,278.5 410.5,291.5 410.5,304.5C 425.181,305.675 434.681,313.342 439,327.5C 442.335,348.025 434.169,361.191 414.5,367C 401.833,367.333 389.167,367.667 376.5,368C 382.664,381.201 381.498,393.701 373,405.5C 369.778,408.388 366.278,410.888 362.5,413C 368.108,420.962 369.942,429.795 368,439.5C 365.636,449.244 360.136,456.578 351.5,461.5C 358.289,474.251 358.123,486.917 351,499.5C 345.967,505.422 339.801,509.422 332.5,511.5C 282.5,511.5 232.5,511.5 182.5,511.5C 174.191,509.446 166.191,506.279 158.5,502C 150.34,496.086 142.007,490.419 133.5,485C 131.212,484.178 128.878,483.511 126.5,483C 119.174,482.5 111.841,482.334 104.5,482.5C 105.094,489.496 102.094,493.996 95.5,496C 74.8333,496.667 54.1667,496.667 33.5,496C 29.1037,495.27 26.2704,492.77 25,488.5C 24.3333,460.833 24.3333,433.167 25,405.5C 27.5414,400.931 31.3747,399.431 36.5,401C 37.6667,402.167 38.8333,403.333 40,404.5C 40.5,429.831 40.6666,455.164 40.5,480.5C 56.5,480.5 72.5,480.5 88.5,480.5C 88.5,422.167 88.5,363.833 88.5,305.5C 72.5,305.5 56.5,305.5 40.5,305.5C 40.6666,329.502 40.5,353.502 40,377.5C 36.5796,381.753 32.4129,382.587 27.5,380C 26.2986,379.097 25.4652,377.931 25,376.5C 24.3333,350.167 24.3333,323.833 25,297.5C 26.2704,293.23 29.1037,290.73 33.5,290C 54.1667,289.333 74.8333,289.333 95.5,290C 102.085,291.98 105.085,296.48 104.5,303.5C 125.938,305.874 145.938,301.708 164.5,291C 175.312,281.214 181.812,269.047 184,254.5C 184.543,245.464 186.543,236.798 190,228.5C 198.074,218.399 208.241,215.565 220.5,220C 236.465,230.32 246.632,244.82 251,263.5C 254.202,276.816 253.702,289.983 249.5,303C 283.832,303.5 318.165,303.667 352.5,303.5C 352.5,290.833 352.5,278.167 352.5,265.5C 311.743,261.908 286.577,240.241 277,200.5C 276.333,145.5 276.333,90.5 277,35.5C 281.681,16.3193 293.515,4.31928 312.5,-0.5 Z M 321.5,14.5 C 363.53,14.0394 405.53,14.5394 447.5,16C 459.842,19.6771 467.342,27.8437 470,40.5C 470.667,91.8333 470.667,143.167 470,194.5C 463.914,227.086 444.414,245.419 411.5,249.5C 410.668,241.187 410.168,232.853 410,224.5C 409.881,220.094 408.047,216.594 404.5,214C 389.927,212.367 375.26,212.034 360.5,213C 356.502,214.486 354.002,217.32 353,221.5C 352.5,230.827 352.334,240.161 352.5,249.5C 320.836,246.338 301.002,229.338 293,198.5C 292.333,144.833 292.333,91.1667 293,37.5C 297.684,23.755 307.184,16.0883 321.5,14.5 Z M 340.5,158.5 C 351.5,158.65 356,163.983 354,174.5C 350.677,180.908 345.511,183.075 338.5,181C 328.762,172.534 329.429,165.034 340.5,158.5 Z M 416.5,158.5 C 427.3,158.469 431.8,163.803 430,174.5C 426.677,180.908 421.511,183.075 414.5,181C 407.948,177.064 406.114,171.564 409,164.5C 411.109,161.878 413.609,159.878 416.5,158.5 Z M 368.5,228.5 C 377.167,228.5 385.833,228.5 394.5,228.5C 394.667,254.169 394.5,279.835 394,305.5C 391.592,317.621 384.759,321.121 373.5,316C 371.383,314.269 369.883,312.102 369,309.5C 368.5,282.502 368.333,255.502 368.5,228.5 Z M 209.5,233.5 C 217.643,236.471 223.809,241.804 228,249.5C 235.751,262.509 238.418,276.509 236,291.5C 234.43,298.542 232.264,305.375 229.5,312C 229.703,314.406 230.703,316.406 232.5,318C 273.416,319.322 314.416,319.989 355.5,320C 366.586,335.246 380.586,338.579 397.5,330C 401.118,326.577 404.618,323.077 408,319.5C 421.434,322.367 426.101,330.367 422,343.5C 419.913,347.302 416.746,349.802 412.5,351C 360.5,351.333 308.5,351.667 256.5,352C 237.59,354.245 227.59,364.911 226.5,384C 226.692,393.213 230.026,401.047 236.5,407.5C 222.845,424.051 223.179,440.217 237.5,456C 229.084,463.57 225.584,473.07 227,484.5C 227.465,488.393 228.631,492.06 230.5,495.5C 215.137,496.899 199.804,496.732 184.5,495C 172.539,492.188 162.206,486.522 153.5,478C 138.803,467.624 122.47,463.791 104.5,466.5C 104.5,417.5 104.5,368.5 104.5,319.5C 130.122,322.01 153.789,316.51 175.5,303C 187.856,291.795 195.689,277.961 199,261.5C 200.415,253.842 201.749,246.175 203,238.5C 204.603,235.965 206.769,234.298 209.5,233.5 Z M 257.5,367.5 C 288.168,367.333 318.835,367.5 349.5,368C 360.528,369.889 365.362,376.389 364,387.5C 362.598,393.236 359.098,397.069 353.5,399C 320.5,399.667 287.5,399.667 254.5,399C 246.94,396.605 242.94,391.439 242.5,383.5C 243.46,374.211 248.46,368.877 257.5,367.5 Z M 257.5,415.5 C 285.876,415.042 314.209,415.542 342.5,417C 350.811,420.907 353.977,427.407 352,436.5C 350.5,442 347,445.5 341.5,447C 312.167,447.667 282.833,447.667 253.5,447C 241.996,440.485 239.83,431.651 247,420.5C 250.262,418.145 253.762,416.478 257.5,415.5 Z M 258.5,463.5 C 282.544,463.05 306.544,463.55 330.5,465C 339.177,469.19 342.343,476.024 340,485.5C 336.894,492.642 331.394,496.142 323.5,496C 300.13,496.937 276.797,496.604 253.5,495C 243.255,489.857 240.422,482.023 245,471.5C 248.617,467.116 253.117,464.45 258.5,463.5 Z"/></g>
<g><path style="opacity:0.935" fill="#000000" d="M 324.5,38.5 C 363.228,38.018 401.894,38.518 440.5,40C 442.709,41.8734 444.542,44.04 446,46.5C 446.667,66.5 446.667,86.5 446,106.5C 444.833,110.333 442.333,112.833 438.5,114C 424.833,114.667 411.167,114.667 397.5,114C 393.024,110.339 392.357,106.006 395.5,101C 397.087,100.138 398.754,99.4709 400.5,99C 410.494,98.5002 420.494,98.3335 430.5,98.5C 430.5,83.8333 430.5,69.1667 430.5,54.5C 397.5,54.5 364.5,54.5 331.5,54.5C 331.5,69.1667 331.5,83.8333 331.5,98.5C 344.228,98.08 356.894,98.58 369.5,100C 372.902,103.719 373.402,107.886 371,112.5C 370.25,113.126 369.416,113.626 368.5,114C 353.5,114.667 338.5,114.667 323.5,114C 319.942,112.108 317.442,109.275 316,105.5C 315.333,86.5 315.333,67.5 316,48.5C 317.261,43.7452 320.095,40.4118 324.5,38.5 Z"/></g>
<g><path style="opacity:0.926" fill="#000000" d="M 337.5,142.5 C 357.333,141.167 368.666,150.333 371.5,170C 368.399,190.759 356.399,199.759 335.5,197C 321.008,191.528 314.508,181.028 316,165.5C 318.918,153.752 326.085,146.085 337.5,142.5 Z M 340.5,158.5 C 329.429,165.034 328.762,172.534 338.5,181C 345.511,183.075 350.677,180.908 354,174.5C 356,163.983 351.5,158.65 340.5,158.5 Z"/></g>
<g><path style="opacity:0.929" fill="#000000" d="M 413.5,142.5 C 437.341,142.172 448.174,153.839 446,177.5C 439.953,193.445 428.453,199.945 411.5,197C 395.874,191.258 389.374,180.092 392,163.5C 395.225,152.331 402.392,145.331 413.5,142.5 Z M 416.5,158.5 C 413.609,159.878 411.109,161.878 409,164.5C 406.114,171.564 407.948,177.064 414.5,181C 421.511,183.075 426.677,180.908 430,174.5C 431.8,163.803 427.3,158.469 416.5,158.5 Z"/></g>
</svg>
