<?xml version="1.0" encoding="UTF-8"?>
<!DOCTYPE svg PUBLIC "-//W3C//DTD SVG 1.1//EN" "http://www.w3.org/Graphics/SVG/1.1/DTD/svg11.dtd">
<svg xmlns="http://www.w3.org/2000/svg" version="1.1" width="512px" height="512px" style="shape-rendering:geometricPrecision; text-rendering:geometricPrecision; image-rendering:optimizeQuality; fill-rule:evenodd; clip-rule:evenodd" xmlns:xlink="http://www.w3.org/1999/xlink">
<g><path style="opacity:0.934" fill="#000000" d="M 173.5,-0.5 C 180.167,-0.5 186.833,-0.5 193.5,-0.5C 205.616,3.08497 218.116,5.08497 231,5.5C 243.906,4.65633 256.74,3.15633 269.5,1C 290.187,0.458932 310.854,0.958932 331.5,2.5C 343.804,0.538066 355.804,1.70473 367.5,6C 376.274,9.553 384.607,13.8863 392.5,19C 428.824,20.1137 465.157,20.7804 501.5,21C 505.786,20.7367 509.12,22.2367 511.5,25.5C 511.5,28.1667 511.5,30.8333 511.5,33.5C 510.684,35.1436 509.35,36.3103 507.5,37C 467.159,37.7176 426.825,37.3842 386.5,36C 374.125,26.7298 360.292,20.8965 345,18.5C 340.18,19.016 335.347,19.3493 330.5,19.5C 310.187,17.9791 289.853,17.4791 269.5,18C 256.419,20.2497 243.252,21.7497 230,22.5C 213.379,20.8746 196.879,18.5413 180.5,15.5C 174.653,18.2344 173.82,22.2344 178,27.5C 187.564,38.8733 199.731,46.04 214.5,49C 228.521,49.2673 242.521,49.934 256.5,51C 268.826,54.3287 279.493,60.4954 288.5,69.5C 292.578,79.5142 289.245,84.0142 278.5,83C 271.813,76.654 264.146,71.8207 255.5,68.5C 199.392,98.0514 144.059,128.885 89.5,161C 86.0506,163.044 83.0506,165.544 80.5,168.5C 80.6263,172.437 82.4596,175.104 86,176.5C 96.2942,173.068 106.461,169.234 116.5,165C 159.433,146.7 201.1,126.033 241.5,103C 251.62,98.2739 261.954,97.6072 272.5,101C 281.823,105.982 285.823,113.649 284.5,124C 300.004,127.327 308.004,136.827 308.5,152.5C 325.986,155.458 333.819,165.792 332,183.5C 329.996,188.833 327.163,193.666 323.5,198C 345.577,191.858 366.91,183.524 387.5,173C 397.451,166.051 407.117,158.717 416.5,151C 425.5,142.667 434.5,134.333 443.5,126C 464.86,127.002 486.193,128.669 507.5,131C 508.705,132.376 510.038,133.542 511.5,134.5C 511.5,137.5 511.5,140.5 511.5,143.5C 509.077,145.98 506.077,147.314 502.5,147.5C 484.845,145.486 467.179,143.986 449.5,143C 432.578,160.601 413.912,175.934 393.5,189C 382.402,194.55 371.068,199.55 359.5,204C 340.833,210.667 322.167,217.333 303.5,224C 294.591,228.622 285.591,232.955 276.5,237C 266.346,238.949 258.179,235.782 252,227.5C 250.03,224.032 247.864,220.699 245.5,217.5C 238.587,221.415 231.254,224.249 223.5,226C 209.364,227.229 199.864,221.062 195,207.5C 193.438,203.986 192.605,200.319 192.5,196.5C 180.036,198.516 170.536,194.183 164,183.5C 160.879,177.965 158.045,172.298 155.5,166.5C 141.617,172.941 127.617,179.108 113.5,185C 104.294,188.847 94.794,191.68 85,193.5C 70.5834,191.894 63.4167,183.728 63.5,169C 63.9506,165.08 64.7839,161.247 66,157.5C 70.2139,153.618 74.7139,150.118 79.5,147C 126.359,119.066 174.026,92.3994 222.5,67C 200.008,65.8359 181.175,57.0026 166,40.5C 158.149,30.5962 156.816,19.9295 162,8.5C 165.183,4.46219 169.016,1.46219 173.5,-0.5 Z M 259.5,115.5 C 265.891,115.384 268.391,118.384 267,124.5C 262.208,131.626 256.375,137.793 249.5,143C 231.674,155.416 213.341,167.082 194.5,178C 190.572,179.325 186.572,179.658 182.5,179C 176.516,173.206 173.183,166.372 172.5,158.5C 199.254,146.291 225.254,132.791 250.5,118C 253.628,117.159 256.628,116.325 259.5,115.5 Z M 279.5,141.5 C 288.666,142.22 292.166,146.886 290,155.5C 272.356,180.976 249.022,198.976 220,209.5C 215.457,208.626 212.457,205.96 211,201.5C 209.36,197.62 208.693,193.62 209,189.5C 225.585,179.125 242.085,168.625 258.5,158C 263.467,154.034 268.134,149.701 272.5,145C 274.925,143.787 277.259,142.621 279.5,141.5 Z M 302.5,169.5 C 312.378,168.863 316.211,173.197 314,182.5C 301.491,195.675 288.324,208.175 274.5,220C 272.833,220.667 271.167,220.667 269.5,220C 265.273,216.689 262.773,212.522 262,207.5C 277.311,196.687 290.811,184.02 302.5,169.5 Z"/></g>
<g><path style="opacity:0.93" fill="#000000" d="M 74.5,204.5 C 79.3473,203.84 83.1806,205.507 86,209.5C 103.122,232.749 113.288,258.749 116.5,287.5C 114.452,311.548 101.452,324.548 77.5,326.5C 52.8327,324.501 40.1661,311.167 39.5,286.5C 39.966,273.635 42.7993,261.302 48,249.5C 54.0931,235.098 61.4264,221.432 70,208.5C 71.3968,206.93 72.8968,205.596 74.5,204.5 Z M 77.5,228.5 C 89.8375,246 97.1709,265.5 99.5,287C 98.3925,300.607 91.0592,308.107 77.5,309.5C 60.2316,306.337 53.3983,296.004 57,278.5C 58.1283,273.448 59.4616,268.448 61,263.5C 65.9816,251.539 71.4816,239.872 77.5,228.5 Z"/></g>
<g><path style="opacity:0.951" fill="#000000" d="M 426.5,511.5 C 344.833,511.5 263.167,511.5 181.5,511.5C 154.954,505.455 138.454,489.121 132,462.5C 130.662,452.216 130.162,441.883 130.5,431.5C 88.4987,431.667 46.4987,431.5 4.5,431C 2.67694,430.003 1.01027,428.836 -0.5,427.5C -0.5,405.167 -0.5,382.833 -0.5,360.5C 1.11327,358.73 3.11327,357.564 5.5,357C 47.1653,356.5 88.832,356.333 130.5,356.5C 127.341,333.118 133.174,312.451 148,294.5C 156.173,286.826 165.673,281.326 176.5,278C 259.798,276.347 343.131,276.014 426.5,277C 454.448,283.281 471.281,300.448 477,328.5C 477.667,372.167 477.667,415.833 477,459.5C 471.099,487.566 454.266,504.9 426.5,511.5 Z M 183.5,293.5 C 263.834,293.333 344.167,293.5 424.5,294C 443.618,299.061 455.451,311.228 460,330.5C 460.979,374.213 460.645,417.879 459,461.5C 453.647,478.776 442.147,489.609 424.5,494C 347.188,495.64 269.855,495.973 192.5,495C 170.153,493.408 155.653,481.908 149,460.5C 147.676,450.884 147.176,441.217 147.5,431.5C 154.833,431.5 162.167,431.5 169.5,431.5C 168.343,441.85 172.676,446.017 182.5,444C 184.049,442.786 185.215,441.286 186,439.5C 186.667,409.167 186.667,378.833 186,348.5C 185.215,346.714 184.049,345.214 182.5,344C 172.544,342.12 168.211,346.287 169.5,356.5C 162.167,356.5 154.833,356.5 147.5,356.5C 145.608,341.342 148.108,327.008 155,313.5C 162.244,303.474 171.744,296.808 183.5,293.5 Z M 233.5,336.5 C 245.429,338.704 249.263,345.37 245,356.5C 238.641,363.886 231.975,364.219 225,357.5C 220.155,347.207 222.989,340.207 233.5,336.5 Z M 299.5,336.5 C 338.5,336.5 377.5,336.5 416.5,336.5C 416.5,374.833 416.5,413.167 416.5,451.5C 377.5,451.5 338.5,451.5 299.5,451.5C 299.5,413.167 299.5,374.833 299.5,336.5 Z M 15.5,373.5 C 66.8333,373.5 118.167,373.5 169.5,373.5C 169.5,387.167 169.5,400.833 169.5,414.5C 118.167,414.5 66.8333,414.5 15.5,414.5C 15.5,400.833 15.5,387.167 15.5,373.5 Z M 232.5,425.5 C 245.13,427.116 249.297,433.783 245,445.5C 239.416,451.324 233.25,451.991 226.5,447.5C 219.799,437.749 221.799,430.415 232.5,425.5 Z"/></g>
<g><path style="opacity:0.93" fill="#000000" d="M 232.5,319.5 C 251.905,320.24 262.572,330.24 264.5,349.5C 262.918,367.582 253.085,377.582 235,379.5C 213.364,376.532 203.697,364.199 206,342.5C 210.101,329.223 218.935,321.557 232.5,319.5 Z M 233.5,336.5 C 222.989,340.207 220.155,347.207 225,357.5C 231.975,364.219 238.641,363.886 245,356.5C 249.263,345.37 245.429,338.704 233.5,336.5 Z"/></g>
<g><path style="opacity:0.954" fill="#000000" d="M 289.5,319.5 C 334.835,319.333 380.168,319.5 425.5,320C 428.276,320.066 430.442,321.232 432,323.5C 433.656,369.75 433.99,416.083 433,462.5C 432.215,464.286 431.049,465.786 429.5,467C 381.833,467.667 334.167,467.667 286.5,467C 285.333,465.833 284.167,464.667 283,463.5C 282.333,417.167 282.333,370.833 283,324.5C 284.805,322.174 286.972,320.508 289.5,319.5 Z M 299.5,336.5 C 299.5,374.833 299.5,413.167 299.5,451.5C 338.5,451.5 377.5,451.5 416.5,451.5C 416.5,413.167 416.5,374.833 416.5,336.5C 377.5,336.5 338.5,336.5 299.5,336.5 Z"/></g>
<g><path style="opacity:0.924" fill="#000000" d="M 324.5,357.5 C 328.585,357.459 331.752,359.125 334,362.5C 334.667,383.5 334.667,404.5 334,425.5C 328.257,432.421 322.924,432.088 318,424.5C 317.333,404.167 317.333,383.833 318,363.5C 319.436,360.558 321.603,358.558 324.5,357.5 Z"/></g>
<g><path style="opacity:0.914" fill="#000000" d="M 355.5,357.5 C 360.956,357.026 364.456,359.359 366,364.5C 366.667,374.833 366.667,385.167 366,395.5C 361.606,402.698 356.273,403.365 350,397.5C 349.333,385.833 349.333,374.167 350,362.5C 351.352,360.251 353.185,358.584 355.5,357.5 Z"/></g>
<g><path style="opacity:0.924" fill="#000000" d="M 387.5,357.5 C 391.585,357.459 394.752,359.125 397,362.5C 397.667,383.5 397.667,404.5 397,425.5C 391.257,432.421 385.924,432.088 381,424.5C 380.333,404.167 380.333,383.833 381,363.5C 382.436,360.558 384.603,358.558 387.5,357.5 Z"/></g>
<g><path style="opacity:0.905" fill="#000000" d="M 65.5,385.5 C 73.5069,385.334 81.5069,385.5 89.5,386C 95.5491,389.069 96.8825,393.569 93.5,399.5C 92.3349,400.584 91.0016,401.417 89.5,402C 81.5,402.667 73.5,402.667 65.5,402C 60.391,398.634 59.2243,394.134 62,388.5C 63.1451,387.364 64.3117,386.364 65.5,385.5 Z"/></g>
<g><path style="opacity:0.931" fill="#000000" d="M 231.5,408.5 C 253.943,409.441 264.776,421.108 264,443.5C 258.592,462.302 246.092,470.135 226.5,467C 210.023,460.833 203.19,449 206,431.5C 209.978,418.683 218.478,411.016 231.5,408.5 Z M 232.5,425.5 C 221.799,430.415 219.799,437.749 226.5,447.5C 233.25,451.991 239.416,451.324 245,445.5C 249.297,433.783 245.13,427.116 232.5,425.5 Z"/></g>
</svg>
