<?xml version="1.0" encoding="UTF-8"?>
<svg version="1.1" xmlns="http://www.w3.org/2000/svg" width="512" height="512">
<path d="M0 0 C3.58359816 2.78046552 6.81135506 5.77842585 10 9 C11.04607422 9.99580078 11.04607422 9.99580078 12.11328125 11.01171875 C16.50355808 15.48724368 19.48916483 20.32939594 22.3125 25.875 C22.63814941 26.51058838 22.96379883 27.14617676 23.29931641 27.80102539 C27.87961314 37.27006837 29.52184009 46.46738202 29.375 56.9375 C29.3586853 58.52280518 29.3586853 58.52280518 29.34204102 60.14013672 C28.93412143 80.06816305 20.60495753 95.75630642 6.5 109.625 C-7.21127992 121.4703718 -25.21325442 126.84586827 -43.1171875 126.3203125 C-57.39059465 125.14282821 -68.93149687 120.54281446 -81 113 C-86.61 118.61 -92.22 124.22 -98 130 C-94.09993802 137.80012396 -87.25866748 145.13507676 -80 150 C-75.11117675 150.82552498 -71.62044682 149.56615145 -67 148 C-51.66229668 146.327191 -37.01738175 151.57947131 -24.8125 160.625 C-12.22351242 171.29123225 -5.89379322 184.93252875 -4.15625 201.171875 C-3.44225036 218.66486617 -9.4030091 233.28975816 -20.953125 246.1796875 C-31.94429449 256.96110184 -46.29301492 261.8999229 -61.375 262.3125 C-76.44737604 262.04038087 -91.06286248 256.71637242 -102.04296875 246.1640625 C-106.69062414 241.02473897 -110.26259194 235.36935265 -113.60644531 229.32592773 C-114.05513977 228.51574692 -114.50383423 227.7055661 -114.96612549 226.87083435 C-115.47789337 225.94477135 -115.47789337 225.94477135 -116 225 C-116.51315262 225.51683979 -117.02630524 226.03367958 -117.55500793 226.56618118 C-130.05571988 239.15532317 -142.56755884 251.73330694 -155.09179688 264.29904556 C-161.14821889 270.37607163 -167.20085112 276.4567833 -173.24462891 282.54638672 C-178.51387333 287.85556485 -183.79016839 293.15761688 -189.07496357 298.45131755 C-191.87163958 301.25319721 -194.66471665 304.05845993 -197.44937134 306.87229156 C-200.07376739 309.52395988 -202.70753346 312.16595461 -205.34859276 314.80102348 C-206.77083159 316.22487697 -208.18313135 317.65863692 -209.595047 319.09272766 C-215.63202641 325.09114499 -221.38043735 330.22150786 -230.2734375 330.7578125 C-231.73245483 330.85860107 -231.73245483 330.85860107 -233.22094727 330.96142578 C-234.26178467 331.01540527 -235.30262207 331.06938477 -236.375 331.125 C-238.03970337 331.23110596 -238.03970337 331.23110596 -239.73803711 331.33935547 C-242.17205272 331.49180461 -244.60658699 331.63613374 -247.04150391 331.7734375 C-250.5124263 331.97209397 -253.98117917 332.18953527 -257.45025635 332.41726685 C-260.42343321 332.61197372 -263.39698503 332.80041678 -266.3706665 332.98724365 C-267.80362933 333.07730511 -269.23653448 333.1682902 -270.66937256 333.26031494 C-272.00089219 333.34467404 -273.33258148 333.42641567 -274.66445732 333.50495052 C-276.66059155 333.62355448 -278.65629334 333.7493764 -280.65194702 333.87580872 C-283.50492969 334.00887015 -286.21316736 333.92958646 -289.05169678 333.62428284 C-295.99541942 332.97617034 -301.59202857 332.8459261 -307.1877327 337.41850185 C-310.02411328 340.0548994 -312.64729983 342.85289104 -315.26171875 345.70703125 C-316.42970721 346.9144531 -317.6018182 348.11789917 -318.77778625 349.31755066 C-321.84085141 352.46188265 -324.85060752 355.6524266 -327.84991455 358.85748291 C-331.50548436 362.74666338 -335.21601795 366.58328894 -338.92456532 370.42187786 C-341.80862121 373.40734764 -344.68147918 376.40103156 -347.52311707 379.42695618 C-348.55927427 380.5187693 -349.59543246 381.61058148 -350.6315918 382.70239258 C-351.52629684 383.65503494 -352.42100189 384.60767731 -353.34281921 385.58918762 C-356.99431169 388.90212113 -360.11720361 391.03765593 -365.125 390.9375 C-368.50951318 389.8338544 -369.90398421 388.87231794 -372 386 C-373.08389929 382.60378222 -373.43790842 380.88633361 -371.84173584 377.65565491 C-369.71306757 374.58626341 -367.26358549 372.03637739 -364.59472656 369.44702148 C-364.05623581 368.91627014 -363.51774506 368.3855188 -362.9629364 367.83868408 C-361.79957289 366.6929054 -360.63400579 365.54936067 -359.46646881 364.40783501 C-357.62079868 362.60169203 -355.78283882 360.78803109 -353.94696045 358.97193909 C-348.72870362 353.81164974 -343.50073571 348.66136286 -338.25830078 343.52563477 C-335.04769767 340.37932112 -331.84927723 337.22105515 -328.65831757 334.05482674 C-327.43964874 332.85044718 -326.21631887 331.65076551 -324.98834991 330.45586967 C-323.27662696 328.78964949 -321.58075419 327.10873489 -319.88769531 325.42358398 C-319.11793617 324.68550255 -319.11793617 324.68550255 -318.33262634 323.93251038 C-316.77217153 322.41700222 -316.77217153 322.41700222 -315 320 C-315.06247673 317.81221988 -315.06247673 317.81221988 -316 316 C-316.72743397 304.362273 -315.51686351 292.50392813 -314.828125 280.88891602 C-314.62530051 277.4426061 -314.43345415 273.99579646 -314.2421875 270.54882812 C-314.11264686 268.32287771 -313.98246021 266.09696477 -313.8515625 263.87109375 C-313.79626373 262.85824814 -313.74096497 261.84540253 -313.68399048 260.80186462 C-313.50389657 257.86140552 -313.27192901 254.93335862 -313 252 C-312.90499207 250.96843781 -312.80998413 249.93687561 -312.71209717 248.87405396 C-312.58329163 247.84577484 -312.45448608 246.81749573 -312.32177734 245.75805664 C-312.15927994 244.3873275 -312.15927994 244.3873275 -311.99349976 242.98890686 C-309.17697538 234.51549862 -301.49602669 228.21936795 -295.32275391 222.09570312 C-294.3559338 221.12944834 -293.3895562 220.16275062 -292.42358398 219.19564819 C-289.82104143 216.59253585 -287.21241416 213.99560188 -284.60258532 211.39979744 C-281.86836143 208.67814371 -279.13986503 205.95075994 -276.41073608 203.22399902 C-271.2512959 198.07075524 -266.08678246 192.92262753 -260.92039144 187.77635336 C-255.03489136 181.9132698 -249.15512331 176.04445208 -243.27581143 170.17516422 C-231.19020634 158.11041941 -219.09748222 146.0528352 -207 134 C-208.44088989 133.18921997 -208.44088989 133.18921997 -209.91088867 132.36206055 C-211.18416535 131.64126044 -212.45735407 130.92030495 -213.73046875 130.19921875 C-214.36206909 129.84436401 -214.99366943 129.48950928 -215.64440918 129.12390137 C-229.28065129 121.38321095 -237.22773377 109.86620055 -242.125 95.19140625 C-246.25799832 80.11703292 -244.31321845 64.11980795 -236.6875 50.5 C-227.82059387 36.61728044 -215.41000927 27.24042205 -199.1953125 23.39477539 C-187.49568053 21.29087138 -174.88354187 22.29760012 -164 27 C-162.6078125 27.58394531 -162.6078125 27.58394531 -161.1875 28.1796875 C-147.51107147 34.74592733 -137.65235894 47.0648447 -132.6875 61.1875 C-130.15076604 69.46083151 -128.02212982 79.5804929 -131.08203125 87.96484375 C-132.4026194 91.88704003 -132.83183038 93.89283749 -132 98 C-127.06041114 104.89580454 -120.4049846 110.50032998 -114 116 C-110.84795019 114.60652624 -108.73828227 112.97514921 -106.328125 110.5234375 C-105.33232422 109.51796875 -105.33232422 109.51796875 -104.31640625 108.4921875 C-103.63449219 107.79351562 -102.95257813 107.09484375 -102.25 106.375 C-101.55261719 105.66859375 -100.85523438 104.9621875 -100.13671875 104.234375 C-98.41987512 102.49401297 -96.70788168 100.74915019 -95 99 C-95.44730469 98.30777344 -95.89460938 97.61554688 -96.35546875 96.90234375 C-106.99371022 79.68608517 -110.95547782 60.28498722 -106.5 40.375 C-101.94198572 22.07572793 -90.89159631 8.13564491 -75.26953125 -2.09375 C-51.89392569 -15.72253795 -22.58202429 -14.73498883 0 0 Z M-77.30859375 22.8046875 C-86.72457288 35.02588905 -91.59337553 48.42837554 -90 64 C-87.25756735 78.82219551 -79.80324301 90.94475267 -67.51953125 99.78515625 C-55.1143161 107.61294317 -41.27029386 110.06561272 -26.875 106.875 C-13.02348073 102.93825242 -1.73785906 94.3076485 5.52734375 81.85546875 C11.94840891 69.4050745 13.53085134 54.97020918 9.375 41.4375 C3.54922254 26.89328476 -5.53467176 17.06465891 -19.60546875 10.375 C-39.50575441 2.3141248 -62.50151895 6.89154205 -77.30859375 22.8046875 Z M-205 45 C-205.77988281 45.42410156 -206.55976563 45.84820312 -207.36328125 46.28515625 C-216.07550841 51.54177734 -221.74592737 59.41273226 -225 69 C-227.6723511 80.13479627 -225.808419 90.27388044 -220.3125 100.1875 C-214.73453183 108.9607487 -207.30922556 113.47630977 -197.875 117.25 C-185.17074952 119.70888719 -174.59692358 117.78501307 -163.75 110.875 C-155.50380257 104.75262448 -150.19884215 96.10875934 -148.5 86.03515625 C-147.25618061 75.13878013 -148.92537697 65.83309546 -155.45703125 56.8984375 C-157.48912097 54.39819547 -159.60150741 52.15249335 -162 50 C-162.7425 49.319375 -163.485 48.63875 -164.25 47.9375 C-176.18967537 39.52545599 -192.07839627 37.86086954 -205 45 Z M-145.3828125 117.1875 C-146.74019531 118.5796875 -146.74019531 118.5796875 -148.125 120 C-149.03507813 120.928125 -149.94515625 121.85625 -150.8828125 122.8125 C-151.58148438 123.534375 -152.28015625 124.25625 -153 125 C-148.24863726 130.71700538 -143.15385413 135.97689423 -137.8828125 141.21484375 C-137.02565643 142.07058487 -136.16850037 142.92632599 -135.28536987 143.80799866 C-132.56760046 146.52020465 -129.84636109 149.2288983 -127.125 151.9375 C-125.27320658 153.78427369 -123.42164166 155.63127653 -121.5703125 157.47851562 C-117.04951565 161.98833201 -112.52587054 166.49527569 -108 171 C-105.95880212 169.38405168 -103.95927063 167.7143618 -102 166 C-102 165.34 -102 164.68 -102 164 C-100.68 163.34 -99.36 162.68 -98 162 C-97.59458949 158.08551518 -97.59458949 158.08551518 -99.61898804 155.88653564 C-100.37684601 155.13152771 -101.13470398 154.37651978 -101.91552734 153.59863281 C-102.76996429 152.7380426 -103.62440125 151.87745239 -104.50473022 150.99078369 C-105.43902863 150.07085632 -106.37332703 149.15092896 -107.3359375 148.203125 C-108.29594551 147.24550121 -109.25521538 146.28713692 -110.21377563 145.32806396 C-112.22363833 143.32132872 -114.24004064 141.32149018 -116.26171875 139.32666016 C-118.85693102 136.76547344 -121.43873558 134.1912706 -124.01622581 131.61226273 C-125.99558039 129.63345108 -127.98009744 127.65988805 -129.96641922 125.6880722 C-131.38542251 124.278553 -132.80141466 122.8660045 -134.21737671 121.45343018 C-135.07811798 120.60544861 -135.93885925 119.75746704 -136.82568359 118.88378906 C-137.58513275 118.1319635 -138.34458191 117.38013794 -139.12704468 116.60552979 C-142.0469322 114.10255156 -142.55648729 114.59284079 -145.3828125 117.1875 Z M-174.98828125 133.9453125 C-184.86710338 134.70905337 -190.77934065 143.07826938 -197 150 C-195.4152642 153.86328627 -192.94043113 156.28876923 -189.9921875 159.203125 C-189.50670441 159.6857782 -189.02122131 160.1684314 -188.52102661 160.66571045 C-186.97700134 162.19858562 -185.42615176 163.72434004 -183.875 165.25 C-182.82375991 166.29120361 -181.77297343 167.33286541 -180.72265625 168.375 C-178.15366996 170.92199464 -175.57851839 173.46265177 -173 176 C-169.43235715 174.48623919 -167.16293713 172.39486871 -164.453125 169.6484375 C-163.60878906 168.79765625 -162.76445312 167.946875 -161.89453125 167.0703125 C-161.02183594 166.18085938 -160.14914062 165.29140625 -159.25 164.375 C-158.36183594 163.4778125 -157.47367188 162.580625 -156.55859375 161.65625 C-154.36783031 159.44192996 -152.18187237 157.22307565 -150 155 C-154.21291662 149.98708084 -158.57752456 145.21183489 -163.1875 140.5625 C-163.80302734 139.92634766 -164.41855469 139.29019531 -165.05273438 138.63476562 C-165.64763672 138.03470703 -166.24253906 137.43464844 -166.85546875 136.81640625 C-167.38809326 136.27443604 -167.92071777 135.73246582 -168.46948242 135.17407227 C-170.59435681 133.54406414 -172.40332567 134.01641147 -174.98828125 133.9453125 Z M-212.58227539 165.46875 C-213.24735107 166.1390625 -213.91242676 166.809375 -214.59765625 167.5 C-215.31630859 168.221875 -216.03496094 168.94375 -216.77539062 169.6875 C-217.53013672 170.450625 -218.28488281 171.21375 -219.0625 172 C-219.82111328 172.763125 -220.57972656 173.52625 -221.36132812 174.3125 C-223.24312505 176.20613213 -225.12255805 178.10205162 -227 180 C-223.54742418 184.11315834 -220.04084364 188.06418787 -216.1875 191.8125 C-211.09968044 196.76396259 -211.09968044 196.76396259 -210.6875 201.875 C-210.74202931 204.87411209 -210.92163915 205.87462264 -212.5625 208.5 C-216.10616452 210.68071663 -217.89099694 210.75331723 -222 210 C-225.01953383 208.01573491 -227.46562751 205.56222274 -230 203 C-230.82757813 202.1853125 -231.65515625 201.370625 -232.5078125 200.53125 C-234.68915615 198.37042055 -236.85142149 196.19334056 -239 194 C-242.90285767 195.58667578 -245.33520982 198.13350481 -248.25 201.125 C-249.14203125 202.03507812 -250.0340625 202.94515625 -250.953125 203.8828125 C-251.62859375 204.58148438 -252.3040625 205.28015625 -253 206 C-248.68938737 211.21811003 -244.08567044 215.82049682 -239.07421875 220.375 C-236.49999994 223.63276844 -236.18102298 225.89363672 -236 230 C-236.9375 232.875 -236.9375 232.875 -239 235 C-245.53999575 236.82262177 -245.53999575 236.82262177 -249.86328125 234.38671875 C-253.34016366 231.74117061 -256.34123247 228.88114772 -259.375 225.75 C-259.92027344 225.19570312 -260.46554687 224.64140625 -261.02734375 224.0703125 C-262.35622977 222.71811269 -263.67878548 221.3596965 -265 220 C-268.68069887 221.53643852 -270.98775204 223.78150945 -273.75 226.625 C-274.54921875 227.44226563 -275.3484375 228.25953125 -276.171875 229.1015625 C-276.77515625 229.72804688 -277.3784375 230.35453125 -278 231 C-276.68692751 233.91346593 -275.28818412 235.9450979 -272.99609375 238.1640625 C-272.13274414 239.01097656 -272.13274414 239.01097656 -271.25195312 239.875 C-270.35379883 240.74125 -270.35379883 240.74125 -269.4375 241.625 C-268.24650616 242.78160151 -267.05759995 243.94035778 -265.87109375 245.1015625 C-265.34443115 245.61025879 -264.81776855 246.11895508 -264.27514648 246.64306641 C-262.13017478 248.92561527 -261.98412419 250.17145874 -261.6875 253.375 C-262 257 -262 257 -263.5 259.4375 C-266.31692713 261.19807945 -268.53117936 261.7550871 -271.86328125 261.5703125 C-276.20020069 260.41274351 -278.94996402 257.13523251 -282 254 C-282.82628906 253.1853125 -283.65257812 252.370625 -284.50390625 251.53125 C-286.68766093 249.37141752 -288.85071943 247.19405724 -291 245 C-294.19165477 246.64982956 -294.19165477 246.64982956 -294.64038086 249.41088867 C-295.14130783 254.41029624 -295.46682814 259.40993589 -295.75390625 264.42578125 C-295.81907944 265.52794479 -295.88425262 266.63010834 -295.95140076 267.76567078 C-296.08822487 270.09295661 -296.22344863 272.42033701 -296.35717773 274.74780273 C-296.56119386 278.28982352 -296.77142704 281.83143572 -296.98242188 285.37304688 C-297.11495669 287.64060321 -297.24712993 289.90818071 -297.37890625 292.17578125 C-297.44139053 293.2260701 -297.50387482 294.27635895 -297.56825256 295.35847473 C-297.73176909 298.2384488 -297.87201024 301.11825023 -298 304 C-298.04736298 304.86773041 -298.09472595 305.73546082 -298.14352417 306.62948608 C-298.44896746 310.9737982 -298.44896746 310.9737982 -296.62258911 314.72924805 C-294.38474479 316.48184519 -293.03046521 316.29194183 -290.21484375 316.14453125 C-289.22524658 316.10013916 -288.23564941 316.05574707 -287.21606445 316.01000977 C-285.59317505 315.91224243 -285.59317505 315.91224243 -283.9375 315.8125 C-282.81239014 315.75570068 -281.68728027 315.69890137 -280.52807617 315.64038086 C-277.3778644 315.47715635 -274.22886345 315.29875317 -271.07971191 315.11645508 C-268.14350697 314.95204001 -265.20641446 314.80748592 -262.26921082 314.66218567 C-259.20410638 314.50906721 -256.13950678 314.34722547 -253.07498169 314.18295288 C-251.5759631 314.10314622 -250.07683647 314.02534162 -248.5776062 313.94961548 C-246.45353752 313.84050287 -244.33034512 313.72049442 -242.20703125 313.59765625 C-240.37362183 313.49723022 -240.37362183 313.49723022 -238.50317383 313.39477539 C-229.59757876 312.39119694 -225.86376262 309.58133423 -219.67797852 303.24560547 C-218.87716354 302.44552063 -218.07634857 301.64543579 -217.25126648 300.82110596 C-214.61511681 298.18148123 -211.99710616 295.52460723 -209.37890625 292.8671875 C-207.55154413 291.03049712 -205.72307277 289.19490972 -203.89353943 287.36038208 C-199.57787616 283.02759817 -195.27352581 278.68386691 -190.97449392 274.33458912 C-186.07746539 269.38158088 -181.16615019 264.44284376 -176.25360978 259.5052278 C-166.15314941 249.35257198 -156.07066888 239.18220311 -146 229 C-149.82205446 224.43498853 -153.77203005 220.08213255 -157.98950195 215.88110352 C-158.55447891 215.31437424 -159.11945587 214.74764496 -159.70155334 214.16374207 C-161.54464499 212.31629627 -163.39131337 210.47247619 -165.23828125 208.62890625 C-166.52783061 207.33868257 -167.81723155 206.04831053 -169.10649109 204.75779724 C-171.79536604 202.06745455 -174.48602533 199.3789129 -177.17797852 196.69165039 C-180.63610633 193.23925388 -184.08967912 189.78234089 -187.54195881 186.32409763 C-190.19688461 183.66557058 -192.85417221 181.00941459 -195.51219749 178.35398674 C-196.78764529 177.07920764 -198.06234622 175.80368084 -199.33629799 174.52740669 C-201.10762205 172.75355956 -202.8820909 170.98292135 -204.6574707 169.21313477 C-205.18679199 168.68178925 -205.71611328 168.15044373 -206.26147461 167.60299683 C-209.18255014 163.89684868 -209.18255014 163.89684868 -212.58227539 165.46875 Z M-88.8125 177.5625 C-97.30465943 187.02519194 -101.09030722 196.39675562 -100.41015625 209.16796875 C-99.24134851 220.08797254 -94.27606393 228.88856649 -85.7265625 235.8515625 C-75.8222252 242.71361189 -65.44686651 245.68388255 -53.4140625 243.5390625 C-43.46285916 240.87075877 -34.79628099 235.62805185 -29 227 C-23.47024279 216.64427287 -20.94681084 206.58509665 -23.75390625 194.84765625 C-27.7478765 183.42960012 -35.23210222 174.83167133 -45.8359375 168.98828125 C-61.18522936 162.34987443 -76.93745306 166.74301279 -88.8125 177.5625 Z M-139.04125977 169.92773438 C-139.91580811 170.80751953 -140.79035645 171.68730469 -141.69140625 172.59375 C-142.15610825 173.05986694 -142.62081024 173.52598389 -143.09959412 174.00622559 C-144.58958182 175.50183009 -146.07606335 177.00086695 -147.5625 178.5 C-148.56943315 179.51194598 -149.57659166 180.52366777 -150.58398438 181.53515625 C-153.05861405 184.02083721 -155.53010969 186.50960874 -158 189 C-156.4152642 192.86328627 -153.94043113 195.28876923 -150.9921875 198.203125 C-150.50670441 198.6857782 -150.02122131 199.1684314 -149.52102661 199.66571045 C-147.97700134 201.19858562 -146.42615176 202.72434004 -144.875 204.25 C-143.82375991 205.29120361 -142.77297343 206.33286541 -141.72265625 207.375 C-139.15366996 209.92199464 -136.57851839 212.46265177 -134 215 C-130.05139036 213.1467335 -127.03777939 210.65404856 -123.875 207.6875 C-123.33746094 207.23310547 -122.79992187 206.77871094 -122.24609375 206.31054688 C-117.810204 202.10142955 -116.31773195 197.35278913 -115.62695312 191.34155273 C-116.35488168 184.82116127 -121.09414636 181.31409214 -125.8125 177.1875 C-126.76705078 176.29224609 -127.72160156 175.39699219 -128.70507812 174.47460938 C-133.52805831 168.6297857 -133.52805831 168.6297857 -139.04125977 169.92773438 Z " fill="#000000" transform="translate(483,11)"/>
<path d="M0 0 C2.11212504 3.16818756 2.33156464 5.13219252 2.55859375 8.8671875 C1.65383399 12.32172476 -0.27442972 13.75570159 -3 16 C-5.88324597 16.71965226 -8.33227039 17.14619685 -11.25390625 17.40625 C-12.0588855 17.49643906 -12.86386475 17.58662811 -13.6932373 17.67955017 C-15.41853866 17.8712974 -17.14490281 18.0536731 -18.87210083 18.22750854 C-23.42019525 18.68815278 -27.95937428 19.2254429 -32.5 19.75390625 C-33.40436295 19.85743912 -34.30872589 19.96097198 -35.24049377 20.06764221 C-84.89997678 25.2054683 -84.89997678 25.2054683 -127 49 C-127.91765886 51.41078227 -127.91765886 51.41078227 -127 54 C-123.62865339 57.81395357 -119.8949442 60.53147285 -115 62 C-112.23864445 61.54029896 -112.23864445 61.54029896 -109.4140625 60.40234375 C-108.32891357 60.0148999 -107.24376465 59.62745605 -106.12573242 59.22827148 C-104.97049072 58.80231689 -103.81524902 58.3763623 -102.625 57.9375 C-93.56256743 54.74949087 -84.58846427 51.93905996 -75.1875 49.9375 C-73.77621826 49.63283813 -73.77621826 49.63283813 -72.33642578 49.32202148 C-67.86468285 48.40926225 -63.58267109 47.56993394 -59 48 C-56.30009338 49.79993774 -54.4581135 51.083773 -53 54 C-52.54934498 60.91004367 -52.54934498 60.91004367 -55 64 C-60.83388162 66.91694081 -66.84101428 68.29539478 -73.1875 69.6875 C-74.17169922 69.91244141 -75.15589844 70.13738281 -76.16992188 70.36914062 C-80.25828641 71.28353351 -83.78687537 72 -88 72 C-88 72.66 -88 73.32 -88 74 C-87.36980957 74.11102051 -86.73961914 74.22204102 -86.09033203 74.33642578 C-80.81332644 75.27952994 -75.55483547 76.28410976 -70.3046875 77.3671875 C7.08338899 93.18647432 90.16230486 94.01093158 167.9375 80 C168.60533508 79.88047974 169.27317017 79.76095947 169.96124268 79.63781738 C179.16650416 77.96705339 188.05820238 75.71658276 197 73 C157.28615135 62.42971168 116.1045939 58.41457045 75.09985352 57.49731445 C72.43690954 57.43748673 69.77413102 57.37242205 67.11132812 57.30664062 C65.36459025 57.26533134 63.6178455 57.22431205 61.87109375 57.18359375 C61.02606293 57.16299896 60.1810321 57.14240417 59.31039429 57.1211853 C55.38925336 57.03471518 51.48048375 56.99099589 47.55908203 57.07861328 C46.87540054 57.09126724 46.19171906 57.1039212 45.48731995 57.11695862 C43.67487458 57.15706455 41.86288559 57.21651966 40.05102539 57.27758789 C35.61967081 56.87441512 33.09410878 55.09410878 30 52 C29.6640625 49.9765625 29.6640625 49.9765625 29.625 47.625 C29.59664062 46.85414063 29.56828125 46.08328125 29.5390625 45.2890625 C30.2229482 41.89281656 31.09872493 40.94135765 34 39 C37.48700183 38.29690325 40.95064009 38.24913542 44.5 38.1875 C46.13642456 38.14351074 46.13642456 38.14351074 47.8059082 38.09863281 C103.13166799 36.98008944 167.28379385 39.05369621 219.0625 60.25390625 C222.72537348 61.67773664 224.77813324 62.43651423 228.55859375 61.0859375 C231.76843403 59.21311337 234.37617393 57.57204169 235.78125 54.03125 C236.14495816 51.93072506 236.14495816 51.93072506 236 49 C217.47364721 31.6654009 187.93806782 27.41684924 163.98046875 23.140625 C161.98583844 22.76644719 159.99234973 22.38613681 158 22 C156.35572021 21.68772461 156.35572021 21.68772461 154.67822266 21.36914062 C153.60491699 21.13904297 152.53161133 20.90894531 151.42578125 20.671875 C150.45680908 20.47174805 149.48783691 20.27162109 148.48950195 20.06542969 C145.26478596 18.68535118 144.45979792 17.12913187 143 14 C142.71484375 11.90234375 142.71484375 11.90234375 142.9375 9.9375 C142.98777344 9.28652344 143.03804688 8.63554687 143.08984375 7.96484375 C144.61428356 4.6738857 146.82726685 3.6137492 150 2 C153.4609375 1.87109375 153.4609375 1.87109375 157.375 2.4375 C158.10050049 2.54094727 158.82600098 2.64439453 159.57348633 2.75097656 C190.04472717 7.35831195 231.53171163 13.64365092 252.375 38.875 C257.18843761 48.1316108 256.31029476 58.66389829 256.30078125 68.80859375 C256.30467529 70.54297487 256.30901141 72.27735504 256.31376648 74.01173401 C256.32119933 77.63521424 256.32095857 81.25859698 256.31567383 84.88208008 C256.30987952 89.5028867 256.32682354 94.12329245 256.3500185 98.74403286 C256.36481869 102.32247715 256.36561909 105.90082625 256.36250877 109.47929573 C256.36301871 111.18197486 256.36819425 112.88465979 256.37832069 114.58730888 C256.44552461 127.46409501 256.14868853 137.93853028 246.7734375 147.6171875 C241.66701882 152.00439228 236.00565652 155.05051523 230 158 C228.95457031 158.52207031 227.90914063 159.04414063 226.83203125 159.58203125 C200.12481761 171.91093986 169.87514332 176.05345759 140.9375 179.75 C140.16164551 179.85105042 139.38579102 179.95210083 138.58642578 180.05621338 C111.60041174 183.52537342 84.59813963 184.38191216 57.42787933 184.31785583 C55.02233219 184.31240905 52.6167949 184.31004642 50.21124268 184.3079834 C27.04800984 184.27704249 4.02726011 183.88407011 -19.00842285 181.22784424 C-21.02783367 180.99681572 -23.04827395 180.77808298 -25.06933594 180.56201172 C-118.20319945 170.50058274 -118.20319945 170.50058274 -142 143 C-145.57578533 137.35703987 -146.59038831 132.59608624 -146.54931641 125.98876953 C-146.55953827 125.1258429 -146.56976013 124.26291626 -146.58029175 123.37384033 C-146.60791564 120.54320937 -146.60618346 117.71356158 -146.6015625 114.8828125 C-146.60934589 112.90037683 -146.61801717 110.91794447 -146.62753296 108.93551636 C-146.64242128 104.78811819 -146.6419016 100.64106064 -146.63134766 96.49365234 C-146.61976445 91.19870588 -146.65361922 85.90516006 -146.700037 80.61044502 C-146.72961098 76.51809646 -146.73124181 72.42608138 -146.72501755 68.33364487 C-146.72603908 66.38253888 -146.73642228 64.43141302 -146.75664139 62.48041153 C-146.86848582 50.17939754 -146.35389544 42.02745326 -137.7890625 32.5546875 C-107.3534875 8.93140726 -63.65460211 4.05449011 -26.6875 -0.3125 C-25.95162659 -0.39985413 -25.21575317 -0.48720825 -24.45758057 -0.57720947 C-22.35125583 -0.82436245 -20.2442679 -1.06431662 -18.13671875 -1.30078125 C-16.32240356 -1.50441284 -16.32240356 -1.50441284 -14.47143555 -1.7121582 C-3.70202388 -2.60512792 -3.70202388 -2.60512792 0 0 Z M-128 77 C-128.12679156 84.59869571 -128.21434844 92.19711858 -128.2746582 99.79663086 C-128.29980001 102.3816955 -128.33391815 104.96668907 -128.37719727 107.55151367 C-128.43785922 111.26759374 -128.46621419 114.98273386 -128.48828125 118.69921875 C-128.51408768 119.85459641 -128.5398941 121.00997406 -128.56648254 122.20036316 C-128.65062175 128.655478 -128.65062175 128.655478 -125.60375977 134.16943359 C-124.74451904 134.77352051 -123.88527832 135.37760742 -123 136 C-122.29101562 136.52464844 -121.58203125 137.04929687 -120.8515625 137.58984375 C-93.79277984 153.96752799 -59.74229333 158.58377331 -28.8125 162.25 C-27.54639893 162.40098145 -26.28029785 162.55196289 -24.97583008 162.70751953 C-20.65403297 163.18823105 -16.33067368 163.60874981 -12 164 C-11.0563559 164.08720306 -10.11271179 164.17440613 -9.14047241 164.26425171 C11.01151766 166.07117646 31.07264984 166.3632737 51.28903961 166.31805801 C53.84933027 166.31241888 56.40961431 166.30959762 58.96990967 166.30697632 C83.41430511 166.27058849 107.70740102 165.98036499 132 163 C132.73367798 162.91278687 133.46735596 162.82557373 134.2232666 162.73571777 C188.77069783 157.39942409 188.77069783 157.39942409 236 133 C237.72845991 129.47340267 238.24643716 126.65708692 238.22705078 122.75073242 C238.22689972 121.73005173 238.22674866 120.70937103 238.22659302 119.65776062 C238.21627045 118.5680043 238.20594788 117.47824799 238.1953125 116.35546875 C238.1924826 115.2305452 238.18965271 114.10562164 238.18673706 112.9466095 C238.17555836 109.36013064 238.15045763 105.77390315 238.125 102.1875 C238.11496723 99.75325882 238.1058419 97.31901372 238.09765625 94.88476562 C238.07562656 88.92309158 238.04217174 82.96156375 238 77 C235.13630229 78.13762493 232.29397412 79.30235987 229.4609375 80.515625 C179.76650339 101.74306337 122.55539535 106.0325685 69 107 C67.86127441 107.02191406 66.72254883 107.04382813 65.54931641 107.06640625 C9.1799934 107.98584607 -49.8526519 104.6432825 -103.6875 87 C-105.10216553 86.53835449 -105.10216553 86.53835449 -106.54541016 86.06738281 C-113.94386099 83.55833166 -120.95856684 80.37347831 -128 77 Z " fill="#000000" transform="translate(146,328)"/>
</svg>
