<?xml version="1.0" encoding="UTF-8"?>
<!DOCTYPE svg PUBLIC "-//W3C//DTD SVG 1.1//EN" "http://www.w3.org/Graphics/SVG/1.1/DTD/svg11.dtd">
<svg xmlns="http://www.w3.org/2000/svg" version="1.1" width="512px" height="512px" style="shape-rendering:geometricPrecision; text-rendering:geometricPrecision; image-rendering:optimizeQuality; fill-rule:evenodd; clip-rule:evenodd" xmlns:xlink="http://www.w3.org/1999/xlink">
<g><path style="opacity:0.927" fill="#000000" d="M 381.5,-0.5 C 391.5,-0.5 401.5,-0.5 411.5,-0.5C 467.179,10.5122 500.512,43.8455 511.5,99.5C 511.5,109.833 511.5,120.167 511.5,130.5C 500.688,186.145 467.355,219.311 411.5,230C 400.786,230.81 390.12,230.643 379.5,229.5C 368.674,242.497 358.007,255.664 347.5,269C 338.885,272.194 333.551,269.36 331.5,260.5C 333.555,244.85 334.555,229.183 334.5,213.5C 292.777,185.231 275.277,145.898 282,95.5C 293.853,41.1435 327.019,9.14353 381.5,-0.5 Z M 394.5,14.5 C 442.739,17.2453 475.239,41.2453 492,86.5C 503.46,140.067 485.293,179.901 437.5,206C 416.143,214.461 394.143,217.128 371.5,214C 369.714,214.785 368.214,215.951 367,217.5C 361.716,225.119 356.049,232.452 350,239.5C 350.412,231.372 350.912,223.205 351.5,215C 351.584,211.38 351.084,207.88 350,204.5C 302.571,174.566 286.905,132.566 303,78.5C 321.036,39.2407 351.536,17.9073 394.5,14.5 Z M 377.5,54.5 C 386.482,56.5969 388.148,61.0969 382.5,68C 374.667,69.5 371.5,66.3333 373,58.5C 374.397,56.9297 375.897,55.5964 377.5,54.5 Z M 432.5,68.5 C 438.67,69.1617 441.17,72.495 440,78.5C 436.478,83.3977 432.478,83.731 428,79.5C 426.391,74.3912 427.891,70.7245 432.5,68.5 Z M 340.5,93.5 C 346.295,92.1369 349.961,94.3035 351.5,100C 349.144,106.665 344.977,108.165 339,104.5C 336.842,100.461 337.342,96.7942 340.5,93.5 Z M 390.5,105.5 C 396.295,104.137 399.961,106.304 401.5,112C 399.144,118.665 394.977,120.165 389,116.5C 386.689,112.374 387.189,108.707 390.5,105.5 Z M 445.5,118.5 C 452.39,120.13 454.223,124.13 451,130.5C 444.944,134.187 440.778,132.687 438.5,126C 439.699,122.305 442.032,119.805 445.5,118.5 Z M 356.5,145.5 C 364.008,145.16 366.841,148.493 365,155.5C 360.597,160.643 356.597,160.31 353,154.5C 351.98,150.553 353.147,147.553 356.5,145.5 Z M 408.5,159.5 C 414.295,158.137 417.961,160.304 419.5,166C 417.144,172.665 412.977,174.165 407,170.5C 404.842,166.461 405.342,162.794 408.5,159.5 Z"/></g>
<g><path style="opacity:0.926" fill="#000000" d="M 371.5,39.5 C 394.064,37.2288 403.897,47.2288 401,69.5C 394.512,83.1133 384.012,87.6133 369.5,83C 357.411,76.0773 353.577,65.9106 358,52.5C 361.076,46.5887 365.576,42.2554 371.5,39.5 Z M 377.5,54.5 C 375.897,55.5964 374.397,56.9297 373,58.5C 371.5,66.3333 374.667,69.5 382.5,68C 388.148,61.0969 386.482,56.5969 377.5,54.5 Z"/></g>
<g><path style="opacity:0.924" fill="#000000" d="M 430.5,52.5 C 449.964,53.0646 458.464,63.0646 456,82.5C 450.967,94.7715 441.8,99.9381 428.5,98C 413.014,92.1929 407.848,81.3596 413,65.5C 416.993,58.5965 422.827,54.2632 430.5,52.5 Z M 432.5,68.5 C 427.891,70.7245 426.391,74.3912 428,79.5C 432.478,83.731 436.478,83.3977 440,78.5C 441.17,72.495 438.67,69.1617 432.5,68.5 Z"/></g>
<g><path style="opacity:0.93" fill="#000000" d="M 337.5,77.5 C 354.84,75.351 364.84,82.851 367.5,100C 364.857,117.305 354.857,124.638 337.5,122C 324.758,117.228 319.592,108.061 322,94.5C 324.256,86.0814 329.423,80.4147 337.5,77.5 Z M 340.5,93.5 C 337.342,96.7942 336.842,100.461 339,104.5C 344.977,108.165 349.144,106.665 351.5,100C 349.961,94.3035 346.295,92.1369 340.5,93.5 Z"/></g>
<g><path style="opacity:0.933" fill="#000000" d="M 387.5,89.5 C 409.438,87.7173 418.938,97.7173 416,119.5C 407.996,134.723 396.163,138.556 380.5,131C 370.719,121.601 368.886,110.768 375,98.5C 378.299,94.1179 382.466,91.1179 387.5,89.5 Z M 390.5,105.5 C 387.189,108.707 386.689,112.374 389,116.5C 394.977,120.165 399.144,118.665 401.5,112C 399.961,106.304 396.295,104.137 390.5,105.5 Z"/></g>
<g><path style="opacity:0.942" fill="#000000" d="M 383.5,511.5 C 367.833,511.5 352.167,511.5 336.5,511.5C 331.214,506.665 331.214,501.831 336.5,497C 348.5,496.667 360.5,496.333 372.5,496C 389.827,495.003 403.827,487.67 414.5,474C 282.167,473.333 149.833,473.333 17.5,474C 28.1727,487.67 42.1727,495.003 59.5,496C 142.833,496.333 226.167,496.667 309.5,497C 313.453,501.831 313.453,506.665 309.5,511.5C 222.5,511.5 135.5,511.5 48.5,511.5C 27.4922,506.509 11.1589,494.842 -0.5,476.5C -0.5,473.167 -0.5,469.833 -0.5,466.5C 1.28983,462.547 4.28983,459.714 8.5,458C 19.848,457.832 31.1813,457.332 42.5,456.5C 16.2117,389.959 21.3784,325.959 58,264.5C 70.333,245.496 85.4997,228.996 103.5,215C 112.825,212.662 116.659,216.162 115,225.5C 52.2034,279.227 30.2034,346.56 49,427.5C 52.1479,437.445 55.9812,447.111 60.5,456.5C 65.8023,457.663 71.1357,457.829 76.5,457C 58.0878,423.363 51.9211,387.529 58,349.5C 68.3997,290.467 99.8997,246.967 152.5,219C 157.42,216.804 162.42,214.804 167.5,213C 168.469,208.263 168.803,203.43 168.5,198.5C 157.543,202.043 146.876,206.377 136.5,211.5C 129.701,210.243 127.201,206.243 129,199.5C 140.945,190.903 154.112,184.903 168.5,181.5C 165.113,162.889 172.78,154.556 191.5,156.5C 191.029,139.405 191.529,122.405 193,105.5C 194.171,104.107 195.671,103.273 197.5,103C 212.167,102.333 226.833,102.333 241.5,103C 244.333,103.833 246.167,105.667 247,108.5C 247.5,124.497 247.667,140.497 247.5,156.5C 255.461,155.046 262.294,157.046 268,162.5C 268.667,163.833 269.333,165.167 270,166.5C 270.167,215.17 270.667,263.837 271.5,312.5C 274.47,313.637 276.636,315.637 278,318.5C 278.667,330.5 278.667,342.5 278,354.5C 277,358.167 274.667,360.5 271,361.5C 270.667,372.5 270.333,383.5 270,394.5C 267.633,400.698 263.133,404.032 256.5,404.5C 256.666,413.173 256.5,421.84 256,430.5C 255.626,431.416 255.126,432.25 254.5,433C 242.926,434.147 231.259,434.647 219.5,434.5C 207.741,434.647 196.074,434.147 184.5,433C 183.107,431.829 182.273,430.329 182,428.5C 181.5,420.507 181.334,412.507 181.5,404.5C 175.31,404.321 171.143,401.321 169,395.5C 168.5,384.172 168.333,372.838 168.5,361.5C 164.732,360.863 161.899,358.863 160,355.5C 158,343.167 158,330.833 160,318.5C 161.605,314.724 164.438,312.724 168.5,312.5C 168.833,285.159 168.5,257.825 167.5,230.5C 115.229,254.31 84.0625,294.644 74,351.5C 68.0711,389.022 74.9044,424.022 94.5,456.5C 204.165,457.333 313.832,457.833 423.5,458C 431.496,461.61 434.329,467.777 432,476.5C 420.643,495.05 404.477,506.717 383.5,511.5 Z M 207.5,118.5 C 215.5,118.5 223.5,118.5 231.5,118.5C 231.5,131.167 231.5,143.833 231.5,156.5C 223.5,156.5 215.5,156.5 207.5,156.5C 207.5,143.833 207.5,131.167 207.5,118.5 Z M 184.5,172.5 C 207.833,172.5 231.167,172.5 254.5,172.5C 254.5,218.833 254.5,265.167 254.5,311.5C 231.167,311.5 207.833,311.5 184.5,311.5C 184.5,265.167 184.5,218.833 184.5,172.5 Z M 174.5,327.5 C 203.833,327.5 233.167,327.5 262.5,327.5C 262.5,333.5 262.5,339.5 262.5,345.5C 233.167,345.5 203.833,345.5 174.5,345.5C 174.5,339.5 174.5,333.5 174.5,327.5 Z M 184.5,361.5 C 207.833,361.5 231.167,361.5 254.5,361.5C 254.5,370.5 254.5,379.5 254.5,388.5C 231.167,388.5 207.833,388.5 184.5,388.5C 184.5,379.5 184.5,370.5 184.5,361.5 Z M 197.5,404.5 C 211.833,404.5 226.167,404.5 240.5,404.5C 240.5,409.167 240.5,413.833 240.5,418.5C 226.167,418.5 211.833,418.5 197.5,418.5C 197.5,413.833 197.5,409.167 197.5,404.5 Z"/></g>
<g><path style="opacity:0.927" fill="#000000" d="M 443.5,102.5 C 465.109,105.046 472.609,116.713 466,137.5C 459.659,146.973 450.826,150.473 439.5,148C 427.586,143.676 422.086,135.176 423,122.5C 425.796,111.536 432.629,104.869 443.5,102.5 Z M 445.5,118.5 C 442.032,119.805 439.699,122.305 438.5,126C 440.778,132.687 444.944,134.187 451,130.5C 454.223,124.13 452.39,120.13 445.5,118.5 Z"/></g>
<g><path style="opacity:0.926" fill="#000000" d="M 352.5,129.5 C 369.859,127.374 379.859,134.874 382.5,152C 379.37,171.103 368.37,178.103 349.5,173C 340.597,168.865 336.263,161.865 336.5,152C 336.825,140.824 342.158,133.324 352.5,129.5 Z M 356.5,145.5 C 353.147,147.553 351.98,150.553 353,154.5C 356.597,160.31 360.597,160.643 365,155.5C 366.841,148.493 364.008,145.16 356.5,145.5 Z"/></g>
<g><path style="opacity:0.927" fill="#000000" d="M 405.5,143.5 C 422.84,141.351 432.84,148.851 435.5,166C 432.251,184.806 421.251,191.806 402.5,187C 390.541,180.049 386.708,169.882 391,156.5C 394.162,150.164 398.996,145.831 405.5,143.5 Z M 408.5,159.5 C 405.342,162.794 404.842,166.461 407,170.5C 412.977,174.165 417.144,172.665 419.5,166C 417.961,160.304 414.295,158.137 408.5,159.5 Z"/></g>
</svg>
