<?xml version="1.0" encoding="UTF-8"?>
<!DOCTYPE svg PUBLIC "-//W3C//DTD SVG 1.1//EN" "http://www.w3.org/Graphics/SVG/1.1/DTD/svg11.dtd">
<svg xmlns="http://www.w3.org/2000/svg" version="1.1" width="512px" height="512px" style="shape-rendering:geometricPrecision; text-rendering:geometricPrecision; image-rendering:optimizeQuality; fill-rule:evenodd; clip-rule:evenodd" xmlns:xlink="http://www.w3.org/1999/xlink">
<g><path style="opacity:0.931" fill="#000000" d="M 54.5,-0.5 C 115.167,-0.5 175.833,-0.5 236.5,-0.5C 246.692,2.86383 252.859,9.86383 255,20.5C 255.667,33.5 255.667,46.5 255,59.5C 253.082,71.9184 245.915,79.2517 233.5,81.5C 232.167,102.5 232.167,123.5 233.5,144.5C 251.356,158.857 269.356,173.024 287.5,187C 289.049,188.214 290.215,189.714 291,191.5C 291.167,223.505 291.667,255.505 292.5,287.5C 326.385,281.58 348.551,294.914 359,327.5C 361.515,339.141 360.515,350.475 356,361.5C 348.367,375.296 340.533,388.962 332.5,402.5C 376.83,403.333 421.163,403.833 465.5,404C 490.154,408.824 505.487,423.324 511.5,447.5C 511.5,454.5 511.5,461.5 511.5,468.5C 505.282,492.052 490.282,506.385 466.5,511.5C 417.5,511.5 368.5,511.5 319.5,511.5C 304.048,508.557 291.881,500.557 283,487.5C 277.277,493.888 270.443,498.721 262.5,502C 253.025,505.119 243.358,507.452 233.5,509C 172.139,509.973 110.806,509.64 49.5,508C 22.5677,501.235 5.90102,484.401 -0.5,457.5C -0.5,368.5 -0.5,279.5 -0.5,190.5C 18.479,175.031 37.6457,159.697 57,144.5C 57.6667,123.5 57.6667,102.5 57,81.5C 46.6246,79.4593 39.6246,73.4593 36,63.5C 35.8333,55.8333 35.6667,48.1667 35.5,40.5C 35.3771,31.7614 35.8771,23.0947 37,14.5C 40.4242,6.5584 46.2575,1.5584 54.5,-0.5 Z M 56.5,14.5 C 115.501,14.3333 174.501,14.5 233.5,15C 236.756,16.587 238.923,19.087 240,22.5C 240.667,34.5 240.667,46.5 240,58.5C 238.833,62.3333 236.333,64.8333 232.5,66C 174.5,66.6667 116.5,66.6667 58.5,66C 55.3749,65.0206 52.8749,63.1873 51,60.5C 50.3333,47.1667 50.3333,33.8333 51,20.5C 52.3597,17.9774 54.193,15.9774 56.5,14.5 Z M 72.5,81.5 C 120.833,81.5 169.167,81.5 217.5,81.5C 217.5,87.8333 217.5,94.1667 217.5,100.5C 169.167,100.5 120.833,100.5 72.5,100.5C 72.5,94.1667 72.5,87.8333 72.5,81.5 Z M 72.5,115.5 C 120.833,115.5 169.167,115.5 217.5,115.5C 217.04,127.934 217.54,140.267 219,152.5C 237.833,167.333 256.667,182.167 275.5,197C 276.406,198.699 276.739,200.533 276.5,202.5C 189.167,202.5 101.833,202.5 14.5,202.5C 13.9586,199.348 14.9586,196.848 17.5,195C 35.9551,180.88 54.1217,166.38 72,151.5C 72.4999,139.505 72.6665,127.505 72.5,115.5 Z M 14.5,217.5 C 101.833,217.5 189.167,217.5 276.5,217.5C 276.667,243.169 276.5,268.835 276,294.5C 270.333,298.833 265.333,303.833 261,309.5C 238.96,347.749 216.793,385.915 194.5,424C 134.501,424.5 74.5009,424.667 14.5,424.5C 14.5,355.5 14.5,286.5 14.5,217.5 Z M 130.5,250.5 C 140.5,250.5 150.5,250.5 160.5,250.5C 160.333,267.837 160.5,285.17 161,302.5C 161.833,303.333 162.667,304.167 163.5,305C 180.83,305.5 198.163,305.667 215.5,305.5C 215.5,315.5 215.5,325.5 215.5,335.5C 198.072,335.028 180.739,335.528 163.5,337C 162.667,337.833 161.833,338.667 161,339.5C 160.5,356.497 160.333,373.497 160.5,390.5C 150.5,390.5 140.5,390.5 130.5,390.5C 130.972,373.072 130.472,355.739 129,338.5C 127.829,337.107 126.329,336.273 124.5,336C 108.17,335.5 91.8367,335.333 75.5,335.5C 75.5,325.5 75.5,315.5 75.5,305.5C 93.2607,305.973 110.927,305.473 128.5,304C 129.191,302.933 129.691,301.766 130,300.5C 130.5,283.837 130.667,267.17 130.5,250.5 Z M 300.5,300.5 C 324.757,299.599 339.591,310.933 345,334.5C 346.035,341.78 345.035,348.78 342,355.5C 331.919,373.331 321.586,390.998 311,408.5C 288.554,395.703 266.388,382.537 244.5,369C 254.918,350.25 265.752,331.75 277,313.5C 283.678,306.915 291.511,302.581 300.5,300.5 Z M 235.5,383.5 C 258.67,395.681 281.337,408.681 303.5,422.5C 293.252,440.664 282.752,458.664 272,476.5C 250.979,496.793 230.312,496.459 210,475.5C 201.692,462.885 200.358,449.552 206,435.5C 216.11,418.274 225.944,400.941 235.5,383.5 Z M 323.5,418.5 C 344.167,418.5 364.833,418.5 385.5,418.5C 385.5,444.5 385.5,470.5 385.5,496.5C 364.164,496.667 342.831,496.5 321.5,496C 306.927,493.409 297.427,485.242 293,471.5C 303.178,453.806 313.345,436.139 323.5,418.5 Z M 400.5,418.5 C 421.836,418.333 443.169,418.5 464.5,419C 488.057,425.604 498.557,441.104 496,465.5C 491.731,482.103 481.231,492.269 464.5,496C 443.169,496.5 421.836,496.667 400.5,496.5C 400.5,470.5 400.5,444.5 400.5,418.5 Z M 14.5,439.5 C 72.5,439.5 130.5,439.5 188.5,439.5C 184.409,461.061 190.409,479.227 206.5,494C 156.833,494.667 107.167,494.667 57.5,494C 27.99,487.815 13.6566,469.649 14.5,439.5 Z"/></g>
<g><path style="opacity:0.914" fill="#000000" d="M 57.5,27.5 C 62.5,27.5 67.5,27.5 72.5,27.5C 72.5,36.1667 72.5,44.8333 72.5,53.5C 67.5,53.5 62.5,53.5 57.5,53.5C 57.5,44.8333 57.5,36.1667 57.5,27.5 Z"/></g>
<g><path style="opacity:0.914" fill="#000000" d="M 89.5,27.5 C 94.5,27.5 99.5,27.5 104.5,27.5C 104.5,36.1667 104.5,44.8333 104.5,53.5C 99.5,53.5 94.5,53.5 89.5,53.5C 89.5,44.8333 89.5,36.1667 89.5,27.5 Z"/></g>
<g><path style="opacity:0.914" fill="#000000" d="M 121.5,27.5 C 126.5,27.5 131.5,27.5 136.5,27.5C 136.5,36.1667 136.5,44.8333 136.5,53.5C 131.5,53.5 126.5,53.5 121.5,53.5C 121.5,44.8333 121.5,36.1667 121.5,27.5 Z"/></g>
<g><path style="opacity:0.914" fill="#000000" d="M 153.5,27.5 C 158.5,27.5 163.5,27.5 168.5,27.5C 168.5,36.1667 168.5,44.8333 168.5,53.5C 163.5,53.5 158.5,53.5 153.5,53.5C 153.5,44.8333 153.5,36.1667 153.5,27.5 Z"/></g>
<g><path style="opacity:0.914" fill="#000000" d="M 185.5,27.5 C 190.5,27.5 195.5,27.5 200.5,27.5C 200.5,36.1667 200.5,44.8333 200.5,53.5C 195.5,53.5 190.5,53.5 185.5,53.5C 185.5,44.8333 185.5,36.1667 185.5,27.5 Z"/></g>
<g><path style="opacity:0.914" fill="#000000" d="M 217.5,27.5 C 222.5,27.5 227.5,27.5 232.5,27.5C 232.5,36.1667 232.5,44.8333 232.5,53.5C 227.5,53.5 222.5,53.5 217.5,53.5C 217.5,44.8333 217.5,36.1667 217.5,27.5 Z"/></g>
<g><path style="opacity:0.943" fill="#000000" d="M 122.5,235.5 C 137.837,235.333 153.17,235.5 168.5,236C 170.848,236.346 172.681,237.513 174,239.5C 175.458,256.764 175.958,274.097 175.5,291.5C 192.503,291.333 209.503,291.5 226.5,292C 228.487,293.319 229.654,295.152 230,297.5C 230.667,313.167 230.667,328.833 230,344.5C 229.654,346.848 228.487,348.681 226.5,350C 209.503,350.5 192.503,350.667 175.5,350.5C 175.958,367.903 175.458,385.236 174,402.5C 173.167,403.333 172.333,404.167 171.5,405C 154.167,405.667 136.833,405.667 119.5,405C 118.584,404.626 117.75,404.126 117,403.5C 115.527,385.927 115.027,368.261 115.5,350.5C 97.7393,350.973 80.0726,350.473 62.5,349C 61.8742,348.25 61.3742,347.416 61,346.5C 60.3333,329.5 60.3333,312.5 61,295.5C 61.4652,294.069 62.2986,292.903 63.5,292C 80.8301,291.5 98.1635,291.333 115.5,291.5C 115.333,274.497 115.5,257.497 116,240.5C 117.272,237.508 119.438,235.841 122.5,235.5 Z M 130.5,250.5 C 130.667,267.17 130.5,283.837 130,300.5C 129.691,301.766 129.191,302.933 128.5,304C 110.927,305.473 93.2607,305.973 75.5,305.5C 75.5,315.5 75.5,325.5 75.5,335.5C 91.8367,335.333 108.17,335.5 124.5,336C 126.329,336.273 127.829,337.107 129,338.5C 130.472,355.739 130.972,373.072 130.5,390.5C 140.5,390.5 150.5,390.5 160.5,390.5C 160.333,373.497 160.5,356.497 161,339.5C 161.833,338.667 162.667,337.833 163.5,337C 180.739,335.528 198.072,335.028 215.5,335.5C 215.5,325.5 215.5,315.5 215.5,305.5C 198.163,305.667 180.83,305.5 163.5,305C 162.667,304.167 161.833,303.333 161,302.5C 160.5,285.17 160.333,267.837 160.5,250.5C 150.5,250.5 140.5,250.5 130.5,250.5 Z"/></g>
</svg>
