<?xml version="1.0" encoding="UTF-8"?>
<!DOCTYPE svg PUBLIC "-//W3C//DTD SVG 1.1//EN" "http://www.w3.org/Graphics/SVG/1.1/DTD/svg11.dtd">
<svg xmlns="http://www.w3.org/2000/svg" version="1.1" width="512px" height="512px" style="shape-rendering:geometricPrecision; text-rendering:geometricPrecision; image-rendering:optimizeQuality; fill-rule:evenodd; clip-rule:evenodd" xmlns:xlink="http://www.w3.org/1999/xlink">
<g><path style="opacity:0.932" fill="#000000" d="M 246.5,-0.5 C 252.5,-0.5 258.5,-0.5 264.5,-0.5C 288.959,7.72705 299.126,24.727 295,50.5C 292.369,60.2868 286.869,67.9535 278.5,73.5C 277.338,78.1313 277.172,82.798 278,87.5C 300.211,73.1911 324.378,68.3578 350.5,73C 361.833,75.6667 373.167,78.3333 384.5,81C 388.666,81.985 390.666,84.6516 390.5,89C 390.474,94.6055 387.64,97.1055 382,96.5C 368.782,93.9039 355.616,91.0706 342.5,88C 318.133,85.2964 296.633,91.7964 278,107.5C 277.5,132.164 277.333,156.831 277.5,181.5C 283.167,181.5 288.833,181.5 294.5,181.5C 296.03,166.464 304.03,156.631 318.5,152C 329.749,149.283 340.582,150.45 351,155.5C 353.774,154.464 356.607,153.631 359.5,153C 371.874,152.87 384.208,152.203 396.5,151C 400.049,150.226 403.382,148.893 406.5,147C 412.62,140.773 419.62,135.773 427.5,132C 431.057,130.592 434.724,129.592 438.5,129C 460.015,132.235 477.015,125.069 489.5,107.5C 463.073,106.953 436.74,105.119 410.5,102C 403.328,97.9576 402.661,92.9576 408.5,87C 436.426,89.3057 464.426,90.639 492.5,91C 502.699,94.5557 506.866,101.722 505,112.5C 498.569,122.599 490.403,131.099 480.5,138C 476.469,140.455 472.136,142.121 467.5,143C 457.149,143.937 446.816,144.937 436.5,146C 428.749,149.08 422.082,153.746 416.5,160C 406.326,165.961 395.326,168.961 383.5,169C 407.813,188.555 412.979,212.388 399,240.5C 393.107,249.534 385.274,256.367 375.5,261C 354.8,268.344 334.133,275.677 313.5,283C 331.108,302.393 335.608,324.56 327,349.5C 320.447,364.717 310.28,376.884 296.5,386C 315.224,398.944 325.557,416.778 327.5,439.5C 326.472,460.001 316.472,473.835 297.5,481C 290.071,483.563 285.737,481.063 284.5,473.5C 287.821,463.75 289.321,453.75 289,443.5C 287.941,435.38 284.274,428.713 278,423.5C 277.667,447.5 277.333,471.5 277,495.5C 274.4,502.93 269.567,508.263 262.5,511.5C 257.833,511.5 253.167,511.5 248.5,511.5C 241.881,508.378 237.047,503.378 234,496.5C 233.667,471.833 233.333,447.167 233,422.5C 223.147,430.04 219.147,440.04 221,452.5C 222.116,459.747 223.616,466.914 225.5,474C 223.718,480.729 219.385,483.062 212.5,481C 189.411,471.167 179.911,453.667 184,428.5C 188.389,411.393 197.556,397.393 211.5,386.5C 177.114,361.287 169.614,329.621 189,291.5C 191.312,288.354 193.812,285.354 196.5,282.5C 190.755,280.316 185.088,277.983 179.5,275.5C 175.329,268.066 177.329,263.4 185.5,261.5C 194.956,264.096 204.29,267.096 213.5,270.5C 218.713,267.727 224.046,265.227 229.5,263C 202.363,254.399 175.363,245.399 148.5,236C 133.769,229.835 128.603,219.001 133,203.5C 137.21,193.64 144.71,188.64 155.5,188.5C 162.66,189.206 169.66,190.706 176.5,193C 187.972,195.601 195.638,191.434 199.5,180.5C 197.298,173.465 192.631,168.965 185.5,167C 180.109,166.308 174.775,166.641 169.5,168C 157.68,171.58 146.347,176.246 135.5,182C 119.29,195.286 115.456,211.453 124,230.5C 132.932,242.393 144.766,249.893 159.5,253C 164.635,258.061 164.302,262.728 158.5,267C 135.061,264.864 117.894,253.364 107,232.5C 98.4428,206.515 104.943,185.349 126.5,169C 108.666,168.58 93.6656,161.914 81.5,149C 79.2827,147.725 76.9494,146.725 74.5,146C 64.184,144.937 53.8506,143.937 43.5,143C 36.5096,141.338 30.1763,138.338 24.5,134C 19.3333,128.833 14.1667,123.667 9,118.5C 4.34023,111.204 4.34023,103.871 9,96.5C 11.6259,93.7692 14.7926,91.9358 18.5,91C 42.9119,91.0506 67.2452,89.7173 91.5,87C 116.76,83.2813 141.76,78.2813 166.5,72C 190.538,69.3854 212.705,74.5521 233,87.5C 233.828,82.798 233.662,78.1313 232.5,73.5C 215.658,60.4599 210.824,43.7932 218,23.5C 223.763,10.8939 233.263,2.89387 246.5,-0.5 Z M 248.5,15.5 C 266.849,13.3348 277.516,21.3348 280.5,39.5C 279.726,50.4402 274.393,58.2736 264.5,63C 263.107,64.1711 262.273,65.6711 262,67.5C 261.667,129.167 261.333,190.833 261,252.5C 257.556,253.927 254.056,255.26 250.5,256.5C 249.667,193.503 249.167,130.503 249,67.5C 248.667,66.5 248.333,65.5 248,64.5C 240.948,60.4477 235.614,54.781 232,47.5C 228.795,32.2412 234.295,21.5745 248.5,15.5 Z M 168.5,87.5 C 192.764,85.6022 214.264,92.2688 233,107.5C 233.5,132.164 233.667,156.831 233.5,181.5C 227.5,181.5 221.5,181.5 215.5,181.5C 212.316,161.493 200.483,151.16 180,150.5C 172.488,150.863 165.155,152.196 158,154.5C 155.815,154.079 153.649,153.579 151.5,153C 141.167,152.667 130.833,152.333 120.5,152C 113.425,151.627 107.092,149.294 101.5,145C 87.4445,130.981 70.4445,125.315 50.5,128C 44.5293,127.014 39.196,124.681 34.5,121C 29.9847,116.652 25.6513,112.152 21.5,107.5C 71.5593,107.538 120.559,100.872 168.5,87.5 Z M 324.5,166.5 C 328.182,166.335 331.848,166.501 335.5,167C 348.611,172.942 361.945,178.275 375.5,183C 394.374,201.029 395.374,220.029 378.5,240C 374.159,243.172 369.492,245.839 364.5,248C 321.511,262.33 278.511,276.663 235.5,291C 212.681,299.476 203.514,315.643 208,339.5C 210.133,347.586 214.633,354.086 221.5,359C 225.333,361.5 229.167,364 233,366.5C 233.808,368.579 233.641,370.579 232.5,372.5C 230.417,373.959 228.25,375.292 226,376.5C 213.178,368.679 203.511,358.012 197,344.5C 190.037,314.593 200.537,293.427 228.5,281C 272.478,266.341 316.478,251.674 360.5,237C 378.355,228.437 382.855,215.27 374,197.5C 368.946,191.807 362.613,188.807 355,188.5C 346.247,190.083 337.581,192.083 329,194.5C 319.601,194.234 313.434,189.734 310.5,181C 312.671,173.664 317.337,168.831 324.5,166.5 Z M 208.5,197.5 C 216.833,197.5 225.167,197.5 233.5,197.5C 233.667,214.17 233.5,230.837 233,247.5C 205.303,238.601 177.803,229.101 150.5,219C 146.235,213.653 146.902,208.986 152.5,205C 159.954,205.36 167.287,206.693 174.5,209C 184.457,210.716 193.79,209.049 202.5,204C 204.706,201.963 206.706,199.797 208.5,197.5 Z M 277.5,197.5 C 285.528,197.169 293.528,197.502 301.5,198.5C 308.606,206.549 317.606,210.549 328.5,210.5C 336.481,210.007 344.147,208.174 351.5,205C 359.667,203.833 363.167,207.333 362,215.5C 360.437,218.728 357.937,220.895 354.5,222C 328.962,230.513 303.462,239.013 278,247.5C 277.5,230.837 277.333,214.17 277.5,197.5 Z M 292.5,288.5 C 304.187,294.14 311.354,303.473 314,316.5C 316.472,329.702 314.139,342.035 307,353.5C 297.514,365.486 286.014,374.986 272.5,382C 256.358,389.569 240.691,397.903 225.5,407C 208.916,419.408 202.083,435.908 205,456.5C 198.836,446.411 197.836,435.744 202,424.5C 208.679,410.82 218.512,399.987 231.5,392C 248.494,382.838 265.161,373.172 281.5,363C 290.958,356.549 297.791,348.049 302,337.5C 305.686,317.372 298.519,302.539 280.5,293C 284.715,291.766 288.715,290.266 292.5,288.5 Z M 253.5,301.5 C 255.937,301.756 258.271,302.423 260.5,303.5C 261.666,321.157 261.833,338.824 261,356.5C 257.333,358.833 253.667,361.167 250,363.5C 249.333,343.5 249.333,323.5 250,303.5C 251.302,302.915 252.469,302.249 253.5,301.5 Z M 231.5,310.5 C 232.829,316.128 233.496,322.128 233.5,328.5C 233.167,334.5 232.833,340.5 232.5,346.5C 223.361,339.917 220.528,331.25 224,320.5C 225.947,316.724 228.447,313.39 231.5,310.5 Z M 277.5,310.5 C 290.356,321.597 290.523,332.93 278,344.5C 277.5,333.172 277.333,321.838 277.5,310.5 Z M 280.5,395.5 C 297.846,405.186 308.179,419.853 311.5,439.5C 311.012,446.131 308.846,452.131 305,457.5C 307.667,433.834 298.834,415.834 278.5,403.5C 276.836,400.09 277.503,397.423 280.5,395.5 Z M 260.5,405.5 C 261.664,434.33 261.83,463.33 261,492.5C 257.333,496.5 253.667,496.5 250,492.5C 249.333,465.5 249.333,438.5 250,411.5C 253.644,409.599 257.144,407.599 260.5,405.5 Z"/></g>
</svg>
