<?xml version="1.0" encoding="UTF-8"?>
<svg version="1.1" xmlns="http://www.w3.org/2000/svg" width="512" height="512">
<path d="M0 0 C1.25067261 0.01135986 1.25067261 0.01135986 2.52661133 0.02294922 C14.18519809 0.3333615 22.53468997 4.45403337 30.81640625 12.5078125 C40.5172036 22.7624307 42.2665734 32.95889913 42.02734375 46.5859375 C41.22706243 63.74051543 27.01293751 75.41459636 15.6809082 86.75048828 C14.26055183 88.17847699 12.84059498 89.60686317 11.42100525 91.03561401 C7.58270882 94.89575148 3.73795592 98.74939278 -0.10872626 102.60117197 C-2.5161432 105.01224366 -4.92225954 107.42460572 -7.32795143 109.83739853 C-15.73303297 118.26693476 -24.14378458 126.69077025 -32.55932617 135.10986328 C-40.38451372 142.93868685 -48.19646589 150.78054984 -56.00251263 158.62845433 C-62.72254565 165.38324611 -69.45223263 172.12831912 -76.18931895 178.8661021 C-80.20522185 182.88279564 -84.21709894 186.90331488 -88.21909142 190.93387222 C-91.98458653 194.72564467 -95.76201091 198.50512313 -99.54865074 202.27577591 C-100.92995492 203.65527355 -102.30706153 205.03899022 -103.67943192 206.42737579 C-121.28984478 224.23057388 -136.42180481 228.66228143 -161.0625 229.875 C-163.27821366 229.99366717 -165.49386983 230.11341186 -167.70947266 230.23413086 C-180.70279811 230.93235375 -193.69991209 231.5554632 -206.69677734 232.18351746 C-210.29807554 232.35766907 -213.89930963 232.53306478 -217.50048828 232.70967102 C-218.83860691 232.77528622 -218.83860691 232.77528622 -220.20375824 232.84222698 C-222.00556542 232.93061989 -223.80736901 233.01908586 -225.60916901 233.10762501 C-230.97625822 233.37045657 -236.34369099 233.62399072 -241.71154976 233.87058258 C-245.09714334 234.02767024 -248.48237887 234.19166979 -251.86756516 234.35728073 C-253.45525411 234.43341962 -255.04308931 234.50657494 -256.63106155 234.57655716 C-258.82269318 234.67349743 -261.01357518 234.78097087 -263.20458984 234.89086914 C-264.43785004 234.94843887 -265.67111023 235.00600861 -266.94174194 235.06532288 C-270.34833799 235.441457 -273.15093691 236.12264432 -276.3125 237.4375 C-277.73305068 239.43886244 -277.73305068 239.43886244 -278.3125 241.4375 C-277.75820313 241.96859375 -277.20390625 242.4996875 -276.6328125 243.046875 C-275.90835938 243.75328125 -275.18390625 244.4596875 -274.4375 245.1875 C-273.71820313 245.88359375 -272.99890625 246.5796875 -272.2578125 247.296875 C-268.61177028 251.30898572 -267.5786602 255.02557586 -267.3125 260.4375 C-269.25328284 272.04045977 -279.49080714 279.78968911 -287.375 287.73828125 C-287.84527618 288.21263296 -288.31555237 288.68698467 -288.80007935 289.17571068 C-291.28209974 291.67840177 -293.76724669 294.17794021 -296.25488281 296.67504883 C-298.80851833 299.23981018 -301.35024067 301.81605744 -303.88960266 304.39494038 C-305.86129534 306.3928375 -307.84187986 308.38174028 -309.82492065 310.36836815 C-311.21994676 311.77057335 -312.60533054 313.18235057 -313.99047852 314.59431458 C-319.53232471 320.11725983 -324.49845949 324.812713 -332.75 324.9375 C-343.19405393 324.28933936 -350.55268456 314.61873763 -357.47998047 307.64233398 C-358.68909526 306.43565027 -359.8988552 305.22961272 -361.10920715 304.02416992 C-364.37809235 300.76465039 -367.63754727 297.49585163 -370.89506674 294.22497821 C-374.30993844 290.79875444 -377.73255654 287.38028409 -381.15408325 283.96070862 C-386.89375101 278.22192223 -392.62742375 272.47720006 -398.35742188 266.72875977 C-404.98243667 260.0825445 -411.61627415 253.44523844 -418.25501144 246.81273216 C-424.64667729 240.42675827 -431.03266207 234.03513377 -437.41586685 227.6407032 C-440.13098199 224.92094348 -442.84797215 222.20307742 -445.56646347 219.48669243 C-448.76402951 216.29100844 -451.95656206 213.09037921 -455.14525414 209.88584137 C-456.31662295 208.71022712 -457.48969583 207.536308 -458.66457939 206.36420631 C-460.26648172 204.76552246 -461.86210764 203.16082644 -463.45626831 201.5544281 C-464.35107847 200.65756507 -465.24588863 199.76070204 -466.16781425 198.83666134 C-469.76242374 194.81553697 -470.6186342 191.98964577 -470.6875 186.625 C-470.71585937 185.62855469 -470.74421875 184.63210938 -470.7734375 183.60546875 C-469.45412559 174.53799455 -461.88328242 168.55120611 -455.703125 162.39453125 C-454.65147134 161.33830866 -453.6001878 160.28171743 -452.54925537 159.22477722 C-450.35195637 157.0185771 -448.14911809 154.81809792 -445.94238281 152.62133789 C-443.12859648 149.81904013 -440.33098113 147.00120028 -437.53757095 144.17860889 C-435.37234856 141.99495676 -433.19779891 139.82078074 -431.02050018 137.64917564 C-429.98569877 136.6145266 -428.95395517 135.57680911 -427.9254837 134.53586769 C-415.18739295 121.66517065 -415.18739295 121.66517065 -406.3125 120.9375 C-396.07466053 121.6332755 -389.88792379 129.42693787 -383.3125 136.4375 C-377.37026797 131.52385664 -371.97852302 126.18591369 -366.57421875 120.69140625 C-365.16679233 119.27094204 -363.75935633 117.85048719 -362.35138416 116.43056393 C-358.9130698 112.96198109 -355.47973855 109.48852842 -352.05395508 106.00756836 C-350.12295718 104.04596187 -348.18784364 102.08858565 -346.24824524 100.13548279 C-344.43320017 98.30743615 -342.62404761 96.47351258 -340.82194519 94.63270569 C-329.19657819 82.95939212 -317.47887953 75.35288956 -300.64219666 75.29032898 C-299.99695764 75.28665229 -299.35171862 75.2829756 -298.6869269 75.2791875 C-296.53859077 75.26823084 -294.39030314 75.26432054 -292.24194336 75.26049805 C-290.69566701 75.25422723 -289.14939214 75.24757989 -287.6031189 75.24058533 C-282.53620438 75.21961244 -277.46928981 75.20918786 -272.40234375 75.19921875 C-270.65239509 75.19516837 -268.90244659 75.19105137 -267.15249825 75.18686867 C-258.92721121 75.16783024 -250.70193306 75.15359755 -242.47662824 75.1452567 C-233.00889791 75.13549529 -223.54140204 75.1091988 -214.07375425 75.06875581 C-206.73845701 75.03850623 -199.40322665 75.02377939 -192.06786829 75.02047569 C-187.69505641 75.01813492 -183.32249539 75.00930237 -178.9497509 74.98401451 C-174.83003578 74.9605739 -170.71073385 74.95656402 -166.59096909 74.96677589 C-165.08866938 74.96726754 -163.58634821 74.96105824 -162.08411217 74.94721985 C-149.30980445 74.83623945 -136.90517566 76.24539761 -127.3125 85.4375 C-122.98372637 89.80999862 -120.02467382 93.89709831 -117.3125 99.4375 C-116.85788202 98.97919485 -116.40326405 98.5208897 -115.93486977 98.04869652 C-104.84385271 86.8691277 -93.7416316 75.70082465 -82.62699318 64.54474449 C-77.25218087 59.14935574 -71.88115233 53.75030114 -66.51904297 48.34228516 C-61.8423886 43.62561191 -57.15861342 38.91614493 -52.46635091 34.21499693 C-49.98482495 31.72828159 -47.50687303 29.23823656 -45.03743362 26.7395134 C-42.27248585 23.94204878 -39.49165271 21.16070295 -36.70947266 18.38037109 C-35.50105209 17.15037888 -35.50105209 17.15037888 -34.26821899 15.89553833 C-24.53789553 6.23460823 -13.89094532 -0.17720554 0 0 Z M-24.80761719 30.15625 C-25.81289173 31.15337759 -26.8194345 32.14922794 -27.82713318 33.14390564 C-30.54135506 35.83094493 -33.2364562 38.53641163 -35.9275465 41.24659348 C-38.75975429 44.0940887 -41.60668401 46.92680621 -44.45123291 49.76196289 C-49.22621268 54.5260512 -53.98846038 59.30259217 -58.74365234 64.08642578 C-64.22091593 69.59630072 -69.71940771 75.08427856 -75.22949672 80.56131172 C-79.97889596 85.28336838 -84.71635928 90.01716107 -89.444278 94.76072502 C-92.25958706 97.58533038 -95.07865439 100.40586454 -97.90859222 103.21582031 C-100.5720085 105.86173747 -103.22000551 108.52222341 -105.85743904 111.19403267 C-107.27523277 112.62337891 -108.70759919 114.03822549 -110.14054871 115.45237732 C-115.39165539 120.8067355 -118.96786896 125.87687266 -121.99066544 132.75721741 C-125.49279537 139.85848269 -131.66431153 144.52185283 -138.92626953 147.39672852 C-142.62588466 148.53382003 -146.21017082 149.06077609 -150.04296875 149.4375 C-150.81189957 149.51773407 -151.58083038 149.59796814 -152.37306213 149.68063354 C-162.65714405 150.72124913 -172.96423165 151.51723763 -183.27075195 152.29736328 C-186.74167253 152.5618654 -190.21160806 152.83740349 -193.68164062 153.11328125 C-203.87133042 153.90458845 -214.06393887 154.62290914 -224.28515625 154.8046875 C-225.06410751 154.83112335 -225.84305878 154.8575592 -226.64561462 154.88479614 C-231.80748627 154.90698105 -231.80748627 154.90698105 -234.28686523 152.60205078 C-235.69453883 149.63122619 -235.78629587 147.68638599 -235.3125 144.4375 C-233.05419614 141.37281925 -231.73780319 140.52612347 -227.97555542 139.74215698 C-226.63471137 139.63073787 -225.29209694 139.53947881 -223.94873047 139.46435547 C-223.21318436 139.40846252 -222.47763824 139.35256958 -221.71980286 139.29498291 C-219.29066191 139.11448193 -216.86057163 138.95977692 -214.4296875 138.8046875 C-212.7328723 138.68245767 -211.03618668 138.5584166 -209.33963013 138.43264771 C-204.8695787 138.10532844 -200.3983502 137.79896035 -195.92645264 137.49804688 C-188.79065914 137.01464159 -181.65703144 136.50057693 -174.52353287 135.98459244 C-172.04368137 135.80834721 -169.56333531 135.64158691 -167.08273315 135.47628784 C-150.22166556 134.83772657 -150.22166556 134.83772657 -136.3125 126.4375 C-132.43659628 121.43386158 -131.66152176 116.3486645 -131.9375 110.11328125 C-132.82735063 103.76382625 -135.34292601 99.91074627 -140.375 96 C-144.85909051 92.84134123 -148.2727342 92.31019543 -153.72488403 92.29032898 C-154.37854915 92.28665229 -155.03221426 92.2829756 -155.7056874 92.2791875 C-157.90031646 92.26815741 -160.09489816 92.26430794 -162.28955078 92.26049805 C-163.86157888 92.25423276 -165.4336055 92.2475859 -167.00563049 92.24058533 C-172.17301401 92.21954595 -177.34039781 92.20918138 -182.5078125 92.19921875 C-184.2878712 92.1951708 -186.06792975 92.19105387 -187.84798813 92.18686867 C-196.21316846 92.16781533 -204.57833997 92.15358598 -212.94353783 92.1452567 C-222.59188787 92.13549074 -232.24000809 92.10918863 -241.88827717 92.06875581 C-249.34998966 92.03856223 -256.8116364 92.02378465 -264.27340877 92.02047569 C-268.72773679 92.01812841 -273.18181935 92.00921044 -277.6360817 91.98401451 C-281.83043326 91.96067269 -286.02437883 91.95652494 -290.21877861 91.96677589 C-291.75339422 91.96726993 -293.28803023 91.96098875 -294.82258415 91.94721985 C-304.82059224 91.86257383 -313.57456035 92.37093386 -321.2109375 99.52954102 C-321.86416992 100.13653839 -322.51740234 100.74353577 -323.19042969 101.368927 C-323.89071289 102.05155609 -324.59099609 102.73418518 -325.3125 103.4375 C-326.11333008 104.21527802 -326.91416016 104.99305603 -327.73925781 105.79440308 C-330.49053329 108.49968468 -333.21678676 111.22893238 -335.9375 113.96484375 C-336.93475677 114.96397028 -337.93223802 115.9628728 -338.92993164 116.96156311 C-341.52955679 119.5649695 -344.12616231 122.1713667 -346.72210693 124.77844238 C-349.38189763 127.44854274 -352.0445934 130.11574277 -354.70703125 132.78320312 C-359.91166888 137.99850038 -365.1131134 143.21696716 -370.3125 148.4375 C-368.97222043 151.41843009 -367.49718111 153.50095315 -365.18673706 155.80377197 C-364.54451202 156.44874634 -363.90228699 157.0937207 -363.24060059 157.75823975 C-362.18540222 158.80265228 -362.18540222 158.80265228 -361.10888672 159.86816406 C-359.9965416 160.98094727 -359.9965416 160.98094727 -358.86172485 162.11621094 C-356.40992329 164.56661939 -353.95111395 167.009868 -351.4921875 169.453125 C-349.79067175 171.15091057 -348.08959708 172.84913829 -346.38894653 174.54779053 C-341.91185194 179.01724916 -337.42878362 183.48066914 -332.94445801 187.94287109 C-328.36951531 192.49735468 -323.80022952 197.05750567 -319.23046875 201.6171875 C-310.26335005 210.56285692 -301.29010292 219.5023529 -292.3125 228.4375 C-291.8278125 228.03917969 -291.343125 227.64085937 -290.84375 227.23046875 C-281.93948798 220.19267704 -274.65219693 218.97148737 -263.4140625 218.48608398 C-262.13827332 218.4205835 -260.86248413 218.35508301 -259.54803467 218.28759766 C-256.78743925 218.14593195 -254.02661706 218.01231611 -251.26531982 217.88506889 C-246.89313532 217.6834333 -242.52201999 217.4629746 -238.15087891 217.24000549 C-230.44757073 216.84943241 -222.74356215 216.47449885 -215.03930664 216.10314941 C-203.44295472 215.54411582 -191.84719176 214.97337766 -180.25219536 214.38689667 C-175.91274948 214.16800353 -171.57300335 213.95751296 -167.2328186 213.75381649 C-165.18071131 213.65637665 -163.12881958 213.55531845 -161.07696533 213.45269775 C-158.58356984 213.32810868 -156.08988099 213.20919801 -153.59588623 213.09724426 C-140.71005954 212.43196948 -130.89983429 209.68526284 -121.72076416 200.3469696 C-121.10830172 199.74004156 -120.49583929 199.13311352 -119.86481738 198.50779372 C-117.83030809 196.48681632 -115.81030389 194.45195723 -113.79003906 192.41674805 C-112.32822203 190.95871685 -110.86554771 189.50154475 -109.40208435 188.04516602 C-105.44064447 184.09766254 -101.49185127 180.13773037 -97.54563999 176.17501044 C-93.40982557 172.0253234 -89.26383869 167.8858212 -85.11932373 163.74482727 C-78.16220375 156.7904075 -71.2132061 149.82795177 -64.26904297 142.8605957 C-56.24515359 134.81009269 -48.20889994 126.77209829 -40.16582513 118.74076623 C-32.42209529 111.00782201 -24.68688472 103.26641065 -16.95561981 95.52100563 C-13.66815758 92.22779098 -10.37780353 88.93750639 -7.08509064 85.64954185 C-3.20728042 81.77651003 0.66298851 77.89609465 4.52760124 74.00989532 C5.94559721 72.58634333 7.36613476 71.16531773 8.78940773 69.7470417 C10.73453987 67.80788272 12.67016324 65.85969389 14.60369873 63.90898132 C15.1663417 63.3523484 15.72898468 62.79571547 16.30867743 62.22221488 C22.11942612 56.31752546 25.70668374 50.21523786 26.0625 41.8125 C25.98810115 34.61706789 22.83287953 29.19584511 18.5 23.625 C12.40585479 18.88510928 6.23142117 15.44072363 -1.6764946 16.06018066 C-11.73378181 17.49978656 -17.88165014 23.1386253 -24.80761719 30.15625 Z M-409.33731079 140.22180176 C-410.16781952 141.05675171 -410.99832825 141.89170166 -411.85400391 142.75195312 C-412.31271378 143.21037094 -412.77142365 143.66878876 -413.24403381 144.14109802 C-414.76382976 145.66229083 -416.2764137 147.19045269 -417.7890625 148.71875 C-418.83951977 149.77293614 -419.89041856 150.8266825 -420.94174194 151.88000488 C-423.71134489 154.65725425 -426.47489034 157.44045683 -429.23724365 160.22491455 C-432.0555907 163.06369833 -434.87958833 165.89684833 -437.703125 168.73046875 C-443.24514949 174.29396093 -448.78079137 179.86375088 -454.3125 185.4375 C-448.95609121 191.94300144 -443.03727031 197.84710469 -437.07470703 203.78881836 C-435.94061652 204.92262639 -434.80674696 206.05665547 -433.67308044 207.19088745 C-430.61171828 210.25253523 -427.54729399 213.31110108 -424.48229074 216.36910319 C-421.27341325 219.57170772 -418.06738825 222.77716524 -414.86105347 225.98231506 C-408.7965033 232.04376351 -402.72940967 238.10265943 -396.66138732 244.16063172 C-389.75008678 251.06073505 -382.84164289 257.96369548 -375.93343186 264.86689174 C-361.72962026 279.06026523 -347.52224333 293.25006524 -333.3125 307.4375 C-329.78185763 305.77334511 -327.49314318 303.86073107 -324.72753906 301.07958984 C-323.82690735 300.17880707 -322.92627563 299.27802429 -321.99835205 298.34994507 C-321.02483519 297.36621592 -320.05142875 296.3823775 -319.078125 295.3984375 C-318.07536839 294.39194872 -317.07216778 293.38590211 -316.06854248 292.38027954 C-313.43376187 289.73787853 -310.80504389 287.08952572 -308.17755127 284.43988037 C-305.49310312 281.73493948 -302.80295378 279.03568179 -300.11328125 276.3359375 C-294.84076382 271.04199826 -289.57463943 265.74175717 -284.3125 260.4375 C-289.66623712 253.94085219 -295.57059203 248.03099211 -301.51855469 242.08618164 C-302.64938354 240.95235641 -303.78000852 239.81832781 -304.91044617 238.68411255 C-307.96348975 235.62228146 -311.019726 232.56365706 -314.07684612 229.50589681 C-315.98673047 227.5952999 -317.89590032 225.68399202 -319.8048172 223.77242851 C-326.46354696 217.10446849 -333.12483346 210.43907517 -339.78857422 203.77612305 C-346.00417973 197.56112034 -352.21416363 191.34053912 -358.42158771 185.1173659 C-363.75402089 179.77188504 -369.0902739 174.43023818 -374.42955518 169.0915975 C-377.6176687 165.90373943 -380.80419605 162.71433367 -383.98690033 159.5210743 C-386.97350111 156.52483718 -389.96480481 153.5333787 -392.95987892 150.54561234 C-394.06056074 149.44598138 -395.15952076 148.344624 -396.25666618 147.24146461 C-397.74873242 145.74174718 -399.24675605 144.24825332 -400.746521 142.75624084 C-401.58493404 141.91728303 -402.42334709 141.07832521 -403.2871666 140.21394444 C-406.04203848 137.79761297 -406.58773531 137.79882357 -409.33731079 140.22180176 Z " fill="#000000" transform="translate(470.3125,141.5625)"/>
<path d="M0 0 C0.69114899 -0.00067474 1.38229797 -0.00134949 2.09439087 -0.00204468 C35.13759345 0.04857776 77.08928407 3.82766037 101.81640625 28.4296875 C107.65784877 36.19676208 108.52839504 43.33032132 108.43359375 52.87890625 C108.43504898 54.0679808 108.43650421 55.25705536 108.43800354 56.48216248 C108.43635081 58.98414574 108.42486021 61.48613983 108.40405273 63.98803711 C108.37506218 67.80431534 108.38346603 71.61920541 108.39648438 75.43554688 C108.39024714 77.87500671 108.38185632 80.31446218 108.37109375 82.75390625 C108.37402939 83.88744034 108.37696503 85.02097443 108.37998962 86.18885803 C108.25692016 96.58507676 105.90055476 103.18709975 98.625 110.80078125 C70.88523164 136.08106433 22.31896553 137.73209204 -12.87890625 136.12109375 C-42.29031076 134.54331552 -79.18346385 129.4313668 -100.4375 106.875 C-106.191353 99.54053013 -106.51240247 91.31912591 -106.4609375 82.3125 C-106.46380768 81.19238525 -106.46667786 80.07227051 -106.46963501 78.91821289 C-106.47166679 76.56168102 -106.46619935 74.20513195 -106.45361328 71.84863281 C-106.43754782 68.2606807 -106.45349317 64.67385497 -106.47265625 61.0859375 C-106.47067366 58.78645587 -106.46682967 56.48697494 -106.4609375 54.1875 C-106.46701019 53.12474854 -106.47308289 52.06199707 -106.4793396 50.96704102 C-106.3797032 40.31114507 -104.06650413 33.33045357 -96.63671875 25.6015625 C-72.33202898 3.39909931 -31.23292563 0.02777348 0 0 Z M-85.0625 38 C-86.0525 39.11375 -86.0525 39.11375 -87.0625 40.25 C-87.7225 40.91 -88.3825 41.57 -89.0625 42.25 C-89.74578137 45.43864639 -89.57946875 47.41553597 -87.84765625 50.2109375 C-78.05853556 62.23428102 -61.74550987 66.97159498 -47.0625 70.25 C-43.18636721 70.58437695 -40.89359353 70.75867548 -37.53515625 68.703125 C-36.73980469 67.97609375 -35.94445312 67.2490625 -35.125 66.5 C-34.17882812 65.67371094 -33.23265625 64.84742188 -32.2578125 63.99609375 C-31.74637695 63.54862793 -31.23494141 63.10116211 -30.70800781 62.64013672 C-27.74699965 60.13865594 -24.61717097 57.86405889 -21.5 55.5625 C-14.86031571 50.62821135 -8.31767267 45.58073503 -1.80371094 40.48193359 C3.96920918 35.97395111 9.81131992 31.56651541 15.72460938 27.24414062 C19.45428247 24.4870847 22.74261436 21.61527954 25.9375 18.25 C22.9574794 16.7599897 19.83806535 16.87354235 16.5625 16.6875 C15.90894531 16.64431641 15.25539063 16.60113281 14.58203125 16.55664062 C-15.48159251 14.74592524 -61.85989078 15.19858864 -85.0625 38 Z M43.6875 25.9375 C42.62378193 26.76963866 41.5599746 27.60166321 40.49609375 28.43359375 C39.92487793 28.88718262 39.35366211 29.34077148 38.76513672 29.80810547 C36.1631228 31.86093665 33.52478028 33.86485668 30.88769531 35.87231445 C28.70977286 37.53062978 26.53600013 39.19424903 24.36328125 40.859375 C20.75990727 43.62035035 17.15478338 46.37902183 13.54833984 49.13598633 C12.14597063 50.20828136 10.74394981 51.2810322 9.34228516 52.35424805 C5.64530403 55.18425321 1.94234228 58.00595498 -1.76953125 60.81640625 C-2.54039062 61.40164062 -3.31125 61.986875 -4.10546875 62.58984375 C-5.57885762 63.70819915 -7.05401906 64.82422451 -8.53125 65.9375 C-9.19769531 66.44410156 -9.86414063 66.95070312 -10.55078125 67.47265625 C-11.42536987 68.13406616 -11.42536987 68.13406616 -12.31762695 68.80883789 C-14.36692863 70.50144007 -16.20812305 72.34782066 -18.0625 74.25 C15.64040871 74.93358899 15.64040871 74.93358899 48.9375 70.25 C49.78231934 70.06808105 50.62713867 69.88616211 51.49755859 69.69873047 C64.62737487 66.77256747 81.85342359 61.75703588 90.28515625 50.44140625 C91.64520848 47.34227083 92.00992874 45.53971496 91.1875 42.25 C82.64117412 30.85489883 67.39200521 25.35769821 53.9375 22.25 C49.27351932 21.64196571 47.30974394 23.05522875 43.6875 25.9375 Z M-89.0625 71.25 C-89.26787903 74.74911695 -89.39079941 78.24666666 -89.5 81.75 C-89.55865234 82.73226562 -89.61730469 83.71453125 -89.67773438 84.7265625 C-89.80153961 90.03250116 -89.4860008 93.48505023 -86.03515625 97.65625 C-80.01509731 103.57060048 -73.11205626 106.97696361 -65.25 109.8125 C-64.02047607 110.25855591 -64.02047607 110.25855591 -62.76611328 110.71362305 C-57.06342785 112.70972616 -51.34596298 114.30489515 -45.4375 115.5625 C-44.40338989 115.78305054 -44.40338989 115.78305054 -43.34838867 116.00805664 C-28.70389152 118.87004803 -14.07243657 119.6578774 0.8125 119.625 C2.14812988 119.62468277 2.14812988 119.62468277 3.51074219 119.62435913 C31.32998733 119.55877703 64.36509803 116.94510517 87.16796875 99.15625 C92.37195977 93.55018462 92.32622646 88.10883312 92.125 80.875 C92.11146484 79.94816406 92.09792969 79.02132812 92.08398438 78.06640625 C92.04883881 75.79366002 91.99964132 73.52214153 91.9375 71.25 C88.30514798 72.64756557 84.86088216 74.27330471 81.375 76 C37.04185871 96.35452176 -24.1503691 96.17179684 -69.76879883 80.01147461 C-76.41777706 77.5340928 -82.80612303 74.59577249 -89.0625 71.25 Z " fill="#000000" transform="translate(216.0625,45.75)"/>
</svg>
