<?xml version="1.0" encoding="UTF-8"?>
<svg version="1.1" xmlns="http://www.w3.org/2000/svg" width="512" height="512">
<path d="M0 0 C0.6581369 0.00021149 1.3162738 0.00042297 1.99435425 0.00064087 C33.38702899 0.10104946 59.91674764 12.91367154 82.00390625 34.93359375 C101.30524143 55.2368303 110.8494989 82.21475296 110.8125 109.9375 C110.81228851 110.5956369 110.81207703 111.2537738 110.81185913 111.93185425 C110.73519755 135.90004302 103.45987466 159.12279633 88.43887329 178.04362488 C87.96283051 178.64506921 87.48678773 179.24651354 86.99631941 179.86618346 C81.74513907 186.38991696 75.95254372 192.31962397 70.04052734 198.23950195 C68.8411324 199.45118989 67.64232314 200.66345782 66.44404602 201.87625122 C63.23044827 205.12445517 60.00741134 208.36311835 56.78127241 211.59886193 C54.76137321 213.6253851 52.74335548 215.6537638 50.72591019 217.68272972 C43.675694 224.7724863 36.61683261 231.85351745 29.55078125 238.92749023 C22.97913014 245.50704576 16.42854482 252.10708983 9.88688505 258.71645194 C4.24807529 264.4115601 -1.40601323 270.09119659 -7.07202375 275.75924271 C-10.44704289 279.13609992 -13.81538876 282.51901547 -17.16804886 285.9180851 C-20.31404505 289.10672005 -23.47860776 292.27567995 -26.65838051 295.4306221 C-27.81944408 296.5891011 -28.97373178 297.75441827 -30.12051582 298.92703438 C-39.85768077 308.87020229 -39.85768077 308.87020229 -45.60238647 309.68717957 C-50.1186493 309.33115821 -52.17617166 308.3380373 -55.5625 305.375 C-57.35979438 301.78041125 -57.23827929 298.283355 -56.5625 294.375 C-55.38236713 292.55063057 -55.38236713 292.55063057 -53.74226379 290.78445435 C-53.10202082 290.09234989 -52.46177784 289.40024544 -51.80213356 288.68716812 C-47.3149733 284.0546831 -42.76800058 279.48720496 -38.1862793 274.94873047 C-37.04852747 273.81782225 -35.91103262 272.68665546 -34.77377319 271.55525208 C-32.3371788 269.13191554 -29.89916294 266.71002152 -27.46011925 264.28915024 C-23.59234287 260.44941329 -19.73015195 256.60409092 -15.86909485 252.75759888 C-14.54191404 251.4355611 -13.21472645 250.11353013 -11.88753223 248.79150581 C-11.22317052 248.12972965 -10.5588088 247.4679535 -9.8743149 246.78612351 C-0.89620655 237.84392236 8.08660773 228.9064899 17.07983398 219.97949219 C23.16224495 213.94178408 29.23733494 207.89680975 35.30445164 201.843732 C38.50632383 198.6498775 41.71171627 195.45975332 44.92623329 192.27862167 C47.95475731 189.28149945 50.97350849 186.2748548 53.98550797 183.26112938 C55.08238505 182.16691396 56.18261861 181.07604928 57.28672981 179.98913383 C69.34873728 168.10665096 78.66462904 155.42082289 84.4375 139.375 C84.87191406 138.1684375 85.30632812 136.961875 85.75390625 135.71875 C90.97312387 118.40622327 90.40099845 98.4023574 84.4375 81.375 C84.086875 80.33859375 83.73625 79.3021875 83.375 78.234375 C75.35906934 56.96989229 59.23976617 39.82618392 38.875 30 C36.7426176 29.09271229 34.59670764 28.21645592 32.4375 27.375 C31.4475 26.98570313 30.4575 26.59640625 29.4375 26.1953125 C6.27367813 18.09979312 -17.61810375 21.01857459 -39.6796875 30.75 C-52.66141264 37.37256123 -63.20066831 47.56821969 -73.37174988 57.79656982 C-74.60440614 59.02504269 -75.83771122 60.2528648 -77.07159978 61.48009992 C-80.42730901 64.82146806 -83.77373786 68.17199233 -87.11857355 71.52424049 C-90.74032447 75.15074901 -94.37072048 78.76858654 -97.99995422 82.38760376 C-105.09533373 89.46584121 -112.1825678 96.55217968 -119.26675483 103.64161727 C-125.02760758 109.40652109 -130.79121135 115.16866083 -136.55675697 120.92887115 C-137.37916602 121.75053178 -138.20157508 122.57219241 -139.04890561 123.41875185 C-140.71993098 125.08824565 -142.39095974 126.75773606 -144.06199185 128.42722312 C-159.70992445 144.0614476 -175.34828588 159.7052182 -190.98362205 175.35203853 C-205.27055323 189.64890298 -219.56889181 203.93429531 -233.87274524 218.21422753 C-248.5823186 232.89938749 -263.28446026 247.59194904 -277.97850877 262.29264379 C-286.21928442 270.53690632 -294.46287454 278.77830461 -302.71416283 287.01204681 C-309.7370949 294.02022903 -316.7528951 301.03545827 -323.75975557 308.05971047 C-327.33068721 311.63913092 -330.90467636 315.21534247 -334.48752975 318.7828331 C-337.77458264 322.05596628 -341.05207116 325.3383838 -344.32254127 328.62808385 C-345.49987434 329.80915493 -346.68050558 330.98695067 -347.86495449 332.16088542 C-360.10398199 344.29906199 -369.67892145 357.0214629 -375.5625 373.375 C-375.99691406 374.5815625 -376.43132812 375.788125 -376.87890625 377.03125 C-383.79708136 399.97934304 -380.10096842 424.45945988 -369.52441406 445.58544922 C-367.02506767 450.23524847 -363.92263769 454.32269912 -360.5625 458.375 C-359.87414062 459.22578125 -359.18578125 460.0765625 -358.4765625 460.953125 C-343.23068981 478.89592101 -321.39438894 488.79536046 -298.22119141 490.99609375 C-281.9377624 492.20022583 -266.19607064 488.81756245 -251.5 481.75 C-250.89986084 481.46817871 -250.29972168 481.18635742 -249.68139648 480.89599609 C-237.46406064 474.6925762 -227.53985969 464.78829739 -218.01098633 455.14819336 C-216.82086681 453.95558277 -215.63007043 452.7636473 -214.43865967 451.57232666 C-211.24470791 448.37500274 -208.0599715 445.16864513 -204.87682176 441.960572 C-201.53234163 438.59341999 -198.17878056 435.23533699 -194.82609558 431.87635803 C-188.49422296 425.53007191 -182.16962236 419.17659444 -175.84804219 412.82005745 C-164.4995625 401.40931485 -153.13853916 390.01106631 -141.77495021 378.61537272 C-137.78924201 374.61782694 -133.80673283 370.61712842 -129.82686293 366.61377037 C-127.36119189 364.13430968 -124.89355978 361.6568074 -122.42547607 359.17974854 C-121.27888215 358.02807173 -120.13316661 356.87551967 -118.98837852 355.72204781 C-117.43090844 354.15294929 -115.8704266 352.58690911 -114.30915833 351.02159119 C-113.43559094 350.14320556 -112.56202356 349.26481993 -111.66198444 348.35981655 C-108.17129933 345.05978277 -105.47884584 344.98564351 -100.82421875 345.015625 C-97.23729071 345.58556866 -95.69411106 347.57726049 -93.5625 350.375 C-92.16148377 353.17703247 -92.2109645 355.62125332 -92.61176682 358.68376541 C-94.7747982 364.80664506 -100.36534667 369.24197004 -104.91259766 373.69677734 C-106.12161032 374.91008544 -107.32888822 376.12512424 -108.53456116 377.3417511 C-111.80861608 380.63516354 -115.1070807 383.90307548 -118.411057 387.16643476 C-121.87791924 390.59804477 -125.32355836 394.05084688 -128.77206421 397.50088501 C-134.57440324 403.29947885 -140.39200653 409.08238981 -146.21972656 414.85546875 C-152.92709955 421.50017811 -159.61357902 428.1653209 -166.28821719 434.84290159 C-173.42408195 441.9814859 -180.57516391 449.10467892 -187.73067045 456.22356844 C-189.77506502 458.25949798 -191.8166585 460.29819988 -193.85762405 462.33756638 C-197.09042271 465.56629485 -200.33341727 468.78445313 -203.58399773 471.9952755 C-204.76468027 473.16444087 -205.94218696 474.33682524 -207.11594963 475.51293755 C-217.73889312 486.14907371 -229.30369005 496.2030717 -243.1875 502.3125 C-243.98671875 502.67674072 -244.7859375 503.04098145 -245.609375 503.41625977 C-260.47947349 510.04893332 -274.88894104 512.77166872 -291.125 512.75 C-291.7831369 512.74978851 -292.4412738 512.74957703 -293.11935425 512.74935913 C-323.16955293 512.65324441 -349.67620066 500.73055028 -371.25 480.125 C-391.45620509 459.12696974 -401.97624943 431.84689757 -401.9375 402.8125 C-401.93728851 402.1543631 -401.93707703 401.4962262 -401.93685913 400.81814575 C-401.86022004 376.85698736 -394.58727435 353.63956524 -379.57962418 334.71713543 C-378.86574548 333.81494384 -378.86574548 333.81494384 -378.13744499 332.89452616 C-372.81683066 326.28809333 -366.92194207 320.31335926 -360.91351318 314.33833313 C-359.67251621 313.09315148 -358.43216969 311.84732129 -357.1924088 310.60090894 C-353.82101764 307.21519349 -350.44048939 303.83873846 -347.05822396 300.46389091 C-343.39762836 296.80805715 -339.74570966 293.14357203 -336.09260559 289.48025513 C-328.94932788 282.31984363 -321.7979581 275.16756824 -314.64348355 268.01834599 C-308.82521714 262.20413217 -303.00971716 256.38716485 -297.1961441 250.56825829 C-296.3665816 249.73794736 -295.5370191 248.90763644 -294.68231834 248.05216458 C-292.99672081 246.36503547 -291.31112667 244.67790298 -289.62553588 242.99076714 C-273.84391527 227.19544143 -258.0527525 211.40968271 -242.25853649 195.62695297 C-227.82984755 181.2081972 -213.41263052 166.77803366 -199.00087354 152.34235583 C-184.17668817 137.4937519 -169.3450953 122.65258532 -154.50537324 107.81950825 C-146.18452323 99.50214395 -137.86653216 91.18197001 -129.55620575 82.85408974 C-122.48293566 75.76606331 -115.40260746 68.68517904 -108.31326833 61.61322323 C-104.70131569 58.00975406 -101.09255928 54.40323859 -97.49254036 50.7878437 C-94.18856292 47.46993047 -90.87527352 44.16160639 -87.55473116 40.86027374 C-86.36358047 39.67285619 -85.17569309 38.48215263 -83.99168345 37.28761438 C-73.3940555 26.60257632 -61.83784435 16.55420409 -47.9375 10.4375 C-47.13828125 10.07325928 -46.3390625 9.70901855 -45.515625 9.33374023 C-30.64552651 2.70106668 -16.23605896 -0.02166872 0 0 Z " fill="#000000" transform="translate(401.5625,-0.375)"/>
<path d="M0 0 C0.97582031 -0.02835938 1.95164062 -0.05671875 2.95703125 -0.0859375 C10.91599304 1.0496822 16.25678771 5.85823119 21.73339844 11.40332031 C22.44015213 12.10306473 23.14690582 12.80280914 23.87507629 13.52375793 C26.19245914 15.8236353 28.49501754 18.13771676 30.796875 20.453125 C32.41195294 22.06550593 34.02762407 23.67729288 35.64385986 25.28851318 C39.0225336 28.6613019 42.39389797 32.04118776 45.76025391 35.42626953 C50.06628539 39.75508909 54.39002635 44.06570175 58.71941757 48.37114334 C62.05702893 51.69427029 65.38501718 55.02690327 68.71021271 58.36244965 C70.3004256 59.95532248 71.89359208 61.54525251 73.4897995 63.13211823 C75.72277323 65.35488362 77.942442 67.59015901 80.15917969 69.82910156 C80.81483414 70.47665909 81.47048859 71.12421661 82.14601135 71.79139709 C86.945873 76.68027828 90.61402325 81.68126788 91.68359375 88.5703125 C91.66425781 89.53710938 91.64492188 90.50390625 91.625 91.5 C91.62306641 92.95792969 91.62306641 92.95792969 91.62109375 94.4453125 C90.77555562 100.15840794 87.87644458 104.06108923 83.87417603 108.0692749 C82.99379166 108.95811874 82.11340729 109.84696259 81.2063446 110.76274109 C80.23357959 111.72967427 79.26065873 112.69645069 78.28759766 113.66308594 C77.26017598 114.69457619 76.23339285 115.7267028 75.2071991 116.75941467 C72.42692381 119.55333358 69.63728223 122.3377191 66.84542131 125.1200552 C63.92177469 128.03609199 61.00547117 130.95945784 58.08798218 133.88165283 C53.18903845 138.78604938 48.28381456 143.68409788 43.375 148.57861328 C37.70202948 154.23524913 32.03995953 159.90262364 26.38341296 165.57567954 C21.52259358 170.45011638 16.65594785 175.31867816 11.78439176 180.18238473 C8.87648462 183.08561798 5.97063495 185.99083262 3.0700264 188.90135956 C0.34353185 191.63652554 -2.39020761 194.36423792 -5.12969017 197.08639336 C-6.13321446 198.08595417 -7.13420067 199.08807067 -8.13242912 200.0929203 C-9.4964074 201.46510859 -10.87057274 202.82714825 -12.24520874 204.18865967 C-13.01100943 204.95332928 -13.77681011 205.71799889 -14.56581688 206.5058403 C-18.63527817 209.891486 -22.41665964 210.68173866 -27.625 210.75 C-28.60082031 210.77835938 -29.57664062 210.80671875 -30.58203125 210.8359375 C-38.54099304 209.7003178 -43.88178771 204.89176881 -49.35839844 199.34667969 C-50.06515213 198.64693527 -50.77190582 197.94719086 -51.50007629 197.22624207 C-53.81745914 194.9263647 -56.12001754 192.61228324 -58.421875 190.296875 C-60.03695294 188.68449407 -61.65262407 187.07270712 -63.26885986 185.46148682 C-66.6475336 182.0886981 -70.01889797 178.70881224 -73.38525391 175.32373047 C-77.69128539 170.99491091 -82.01502635 166.68429825 -86.34441757 162.37885666 C-89.68202893 159.05572971 -93.01001718 155.72309673 -96.33521271 152.38755035 C-97.9254256 150.79467752 -99.51859208 149.20474749 -101.1147995 147.61788177 C-103.34777323 145.39511638 -105.567442 143.15984099 -107.78417969 140.92089844 C-108.76766136 139.94956215 -108.76766136 139.94956215 -109.77101135 138.95860291 C-114.570873 134.06972172 -118.23902325 129.06873212 -119.30859375 122.1796875 C-119.28925781 121.21289062 -119.26992187 120.24609375 -119.25 119.25 C-119.24871094 118.27804687 -119.24742187 117.30609375 -119.24609375 116.3046875 C-118.40055562 110.59159206 -115.50144458 106.68891077 -111.49917603 102.6807251 C-110.61879166 101.79188126 -109.73840729 100.90303741 -108.8313446 99.98725891 C-107.85857959 99.02032573 -106.88565873 98.05354931 -105.91259766 97.08691406 C-104.88517598 96.05542381 -103.85839285 95.0232972 -102.8321991 93.99058533 C-100.05192381 91.19666642 -97.26228223 88.4122809 -94.47042131 85.6299448 C-91.54677469 82.71390801 -88.63047117 79.79054216 -85.71298218 76.86834717 C-80.81403845 71.96395062 -75.90881456 67.06590212 -71 62.17138672 C-65.32702948 56.51475087 -59.66495953 50.84737636 -54.00841296 45.17432046 C-49.14759358 40.29988362 -44.28094785 35.43132184 -39.40939176 30.56761527 C-36.50148462 27.66438202 -33.59563495 24.75916738 -30.6950264 21.84864044 C-27.96853185 19.11347446 -25.23479239 16.38576208 -22.49530983 13.66360664 C-21.49178554 12.66404583 -20.49079933 11.66192933 -19.49257088 10.6570797 C-18.1285926 9.28489141 -16.75442726 7.92285175 -15.37979126 6.56134033 C-14.61399057 5.79667072 -13.84818989 5.03200111 -13.05918312 4.2441597 C-8.98972183 0.858514 -5.20834036 0.06826134 0 0 Z M-1.46605015 22.90550232 C-2.54869601 23.98953087 -2.54869601 23.98953087 -3.6532135 25.09545898 C-4.47917526 25.92004608 -5.30513702 26.74463318 -6.15612793 27.59420776 C-7.06890503 28.51058014 -7.98168213 29.42695251 -8.92211914 30.37109375 C-9.88755693 31.33681338 -10.85321451 32.30231331 -11.81907654 33.26760864 C-14.44927703 35.89752106 -17.07637299 38.53051542 -19.70294499 41.16405106 C-22.44515817 43.91249605 -25.19018479 46.65812805 -27.93492126 49.40405273 C-33.13595581 54.6082011 -38.334435 59.81489437 -43.53201336 65.02249432 C-49.44773448 70.94937498 -55.3662798 76.87343194 -61.28507054 82.79724693 C-73.46403788 94.98667982 -85.63943269 107.17967506 -97.8125 119.375 C-93.85395382 124.11690735 -89.7288086 128.59996834 -85.34814453 132.95288086 C-84.73279343 133.56837799 -84.11744232 134.18387512 -83.48344421 134.81802368 C-81.4730979 136.82767998 -79.45924589 138.83378274 -77.4453125 140.83984375 C-76.04119339 142.24209544 -74.63729664 143.64456981 -73.23361206 145.04725647 C-69.55665621 148.72041268 -65.87670609 152.39055454 -62.19610596 156.06005859 C-58.43359763 159.81229767 -54.67395421 163.56740493 -50.9140625 167.32226562 C-43.54966251 174.67597336 -36.18209333 182.02649708 -28.8125 189.375 C-23.09035704 184.61794527 -17.82111532 179.519737 -12.57250977 174.24853516 C-11.67415909 173.35033051 -10.77580841 172.45212585 -9.85023499 171.52670288 C-7.40633539 169.08308822 -4.96551438 166.63641992 -2.52526593 164.18915987 C0.03270673 161.62490276 2.59354351 159.06350909 5.15406799 156.50180054 C9.9936678 151.65910235 14.83071453 146.8138625 19.66683203 141.96768701 C25.17638809 136.44692327 30.68881047 130.92902528 36.20146644 125.41135716 C47.53331961 114.06907344 58.86159718 102.72322555 70.1875 91.375 C66.23082422 86.63776851 62.11029563 82.15276646 57.73901367 77.79711914 C57.12526886 77.18162201 56.51152405 76.56612488 55.87918091 75.93197632 C53.87376473 73.92220024 51.86476288 71.91605473 49.85546875 69.91015625 C48.4538181 68.50783139 47.05231587 67.10535817 45.6509552 65.70274353 C42.72668866 62.77700843 39.80063502 59.85307577 36.87329102 56.93041992 C33.11249431 53.17535177 29.35624723 49.41576947 25.60129833 45.65485477 C22.71475701 42.76471207 19.82585334 39.87694024 16.93621254 36.98989677 C15.54912122 35.60347426 14.1627771 34.21630378 12.77718163 32.82838631 C10.85019336 30.89887507 8.92005782 28.97257007 6.98901367 27.04711914 C6.41293869 26.46901993 5.83686371 25.89092072 5.24333191 25.29530334 C2.15106791 21.3178575 2.15106791 21.3178575 -1.46605015 22.90550232 Z " fill="#000000" transform="translate(269.8125,150.625)"/>
<path d="M0 0 C2.75569447 2.18159145 4.43588747 3.87177494 6 7 C6.12370115 11.57694247 5.87838473 14.99613174 2.8125 18.5 C-1.18845747 20.63384398 -4.16539463 21.4368108 -8.625 20.375 C-11.71355858 18.58688714 -13.18482784 17.09251553 -15 14 C-15.87656309 9.62603871 -15.537455 6.84201283 -13.125 3.0625 C-9.24699241 -0.70144855 -5.21240222 -0.82822281 0 0 Z " fill="#000000" transform="translate(131,432)"/>
<path d="M0 0 C5.57894737 3.15789474 5.57894737 3.15789474 7 6 C7.55112923 10.59876684 7.61753151 13.97787887 5.1875 18 C2.37384417 20.57248533 0.45347543 20.94866316 -3.3125 21.375 C-8.09513003 20.88863084 -9.81828627 19.56048917 -13 16 C-14.26372224 11.91148688 -14.2741007 9.79184647 -12.875 5.75 C-9.50675356 0.80990522 -5.94701974 -0.84957425 0 0 Z " fill="#000000" transform="translate(73,375)"/>
<path d="M0 0 C2.8100346 1.79363911 4.50940468 3.01880935 6 6 C6.43598616 15.01038062 6.43598616 15.01038062 4 18 C0.57873083 20.36230491 -2.0301481 21.25836526 -6.125 20.9375 C-10.25445976 19.93843715 -11.72708411 19.54574879 -14 16 C-15.12376774 11.35509333 -15.39710361 9.12861027 -13.8125 4.625 C-10.34322562 -0.39946635 -5.9287268 -0.98812113 0 0 Z " fill="#000000" transform="translate(159,347)"/>
<path d="M0 0 C3.54574879 2.27291589 3.93843715 3.74554024 4.9375 7.875 C5.25836526 11.9698519 4.36230491 14.57873083 2 18 C-0.95118888 20.40467242 -4.29107729 20.41186021 -8.03125 20.328125 C-11.14316604 19.80947233 -12.85067869 18.21445226 -15 16 C-16.87174644 12.25650712 -16.44771687 7.6565524 -15.375 3.6875 C-11.05819293 -1.61039958 -6.07133097 -1.4688704 0 0 Z " fill="#000000" transform="translate(363,145)"/>
<path d="M0 0 C4.00535091 2.44771444 5.66804391 3.92602443 7.0625 8.4375 C6.99013712 12.56218418 6.31762915 14.60081057 4 18 C1.28916453 20.1979747 -0.48957172 20.92397877 -3.9375 21.4375 C-7.8124426 20.88393677 -9.95425348 19.40826469 -13 17 C-14.73007568 13.53984865 -14.4835273 9.78327445 -14 6 C-10.46487045 0.14875108 -6.63949897 -0.67520329 0 0 Z " fill="#000000" transform="translate(446,116)"/>
<path d="M0 0 C3.47919003 3.10906343 4.84826979 4.91892228 5.5 9.5625 C4.97300076 13.18561975 4.22264703 15.11879089 2 18 C-2.00254616 20.66836411 -5.29313299 20.8340238 -10 20 C-12.75569447 17.81840855 -14.43588747 16.12822506 -16 13 C-16.08363487 9.90550996 -15.78865237 6.9947475 -15 4 C-10.40811718 -0.83356087 -6.39387309 -1.65358787 0 0 Z " fill="#000000" transform="translate(391,60)"/>
<path d="M0 0 C2.96042112 2.58249502 4.59480753 4.1801882 5.4453125 8 C5.65509607 11.69219084 5.10795755 13.83086651 3.125 16.9375 C-0.36158203 20.3215355 -3.03592714 20.38966392 -7.73828125 20.359375 C-11.32520929 19.78943134 -12.86838894 17.79773951 -15 15 C-16.43304064 12.13391871 -16.30644155 10.18699217 -16 7 C-14.26177772 3.65231265 -12.90483578 1.56246548 -9.6875 -0.4375 C-6.01974492 -1.20516967 -3.61582995 -1.03309427 0 0 Z " fill="#000000" transform="translate(160,404)"/>
<path d="M0 0 C2.80703896 1.34040619 3.86054551 2.54745461 6 5 C7.26372224 9.08851312 7.2741007 11.20815353 5.875 15.25 C3.78453688 18.31601258 2.41210581 19.57167664 -1 21 C-5.07439213 21.60682436 -6.69008894 21.17542136 -10.3125 19.125 C-13.00443751 16.99649127 -13.8407112 16.32914752 -14.23828125 13.01171875 C-14.3713075 8.84589668 -14.38831668 6.62130669 -12.125 3 C-8.46623217 -0.44354619 -4.87578937 -0.78700125 0 0 Z " fill="#000000" transform="translate(102,347)"/>
<path d="M0 0 C5.57894737 3.15789474 5.57894737 3.15789474 7 6 C7.55512815 10.63213493 7.6364242 13.98172127 5.125 18 C1.8999355 21.03535482 -0.44453425 21.41279452 -4.89453125 21.33984375 C-8.83141771 20.70439083 -10.38448674 18.99827129 -13 16 C-14.26372224 11.91148688 -14.2741007 9.79184647 -12.875 5.75 C-9.50675356 0.80990522 -5.94701974 -0.84957425 0 0 Z " fill="#000000" transform="translate(417,144)"/>
<path d="M0 0 C2.75569447 2.18159145 4.43588747 3.87177494 6 7 C6.43964729 10.86889612 6.12635224 12.75665494 4.3125 16.25 C1.83757095 19.19315887 0.72781164 20.21976035 -3 21 C-7.6054095 21 -9.43901415 20.48937063 -12.9375 17.4375 C-15.73971448 13.57749595 -15.66588072 10.66116501 -15 6 C-11.10085179 -0.10866553 -6.96919421 -1.10736765 0 0 Z " fill="#000000" transform="translate(362,88)"/>
<path d="M0 0 C2.62766354 2.14105918 3.54888489 4.19886312 4.6875 7.375 C4.6875 11.71139416 4.14677758 13.75362445 1.5625 17.25 C-1.93387555 19.83427758 -3.97610584 20.375 -8.3125 20.375 C-11.48863688 19.23638489 -13.54644082 18.31516354 -15.6875 15.6875 C-16.6265585 12.21298354 -16.90227379 8.91364272 -16.3125 5.375 C-12.23111209 -1.01917439 -7.13643953 -1.92876744 0 0 Z " fill="#000000" transform="translate(332.3125,317.625)"/>
<path d="M0 0 C2.8268603 1.69611618 3.67246262 2.92990894 4.62890625 6.0546875 C5.24370219 9.34467661 5.6030459 11.85563731 4.0078125 14.8828125 C2.2360828 17.05291929 0.51706601 18.74146699 -2 20 C-6.97067782 20.3751455 -10.05151502 20.15878799 -14 17 C-16.56446145 13.58071806 -16.29641484 10.1498078 -16 6 C-15.13494256 3.16890291 -14.16743495 2.1471398 -11.9375 0.1875 C-7.74411142 -1.50769964 -4.32821917 -1.15688849 0 0 Z " fill="#000000" transform="translate(132,376)"/>
<path d="M0 0 C3.51152485 2.80921988 4.04921307 4.68321511 4.625 9.125 C4.04444294 13.9353299 2.57357407 15.36392593 -0.8125 18.75 C-4.31663828 20.50206914 -8.08544081 19.57897224 -11.8125 18.75 C-14.65307875 17.04565275 -15.5207042 15.84168358 -16.37109375 12.66015625 C-16.98336816 8.86657977 -17.08084022 6.41378897 -15.625 2.8125 C-11.34989777 -2.0522715 -5.93079054 -2.63590691 0 0 Z " fill="#000000" transform="translate(391.8125,117.25)"/>
<path d="M0 0 C5.57894737 3.15789474 5.57894737 3.15789474 7 6 C7.55512815 10.63213493 7.6364242 13.98172127 5.125 18 C1.85484323 21.0777946 -0.46385754 21.35512509 -4.96484375 21.2734375 C-8.31522623 20.82329014 -9.81086861 19.51106247 -12 17 C-13.92358449 12.75208426 -14.21592126 10.76207503 -12.9375 6.25 C-9.72956005 0.86893943 -6.24355978 -0.89193711 0 0 Z " fill="#000000" transform="translate(186,375)"/>
<path d="M0 0 C3.67552256 1.99756661 4.77375004 3.50036467 6.5 7.3125 C7.12392742 11.91396471 6.36380554 14.03490684 4 18 C1.29013532 20.27042717 -0.45183064 20.91835776 -3.9375 21.4375 C-7.8124426 20.88393677 -9.95425348 19.40826469 -13 17 C-14.72869779 13.54260443 -14.48966895 9.78024432 -14 6 C-10.36346592 0.18154547 -6.71004518 -0.90154158 0 0 Z " fill="#000000" transform="translate(333,116)"/>
<path d="M0 0 C2.3919837 2.16050141 2.9196754 3.7418138 3.875 6.8125 C4.03620989 10.92335231 2.93674529 13.40318733 1 17 C-3.01858595 19.6790573 -6.27641721 19.69610694 -11 19 C-13.87029869 17.20606332 -15.49131638 16.01736724 -17 13 C-17.66739635 8.14707508 -17.75085716 5.00114288 -14.75 1 C-9.67471879 -2.69111361 -5.67095306 -2.23218365 0 0 Z " fill="#000000" transform="translate(105,405)"/>
<path d="M0 0 C2.75569447 2.18159145 4.43588747 3.87177494 6 7 C6.59873168 12.26883876 5.25400021 14.8846468 2 19 C-1.45739557 20.72869779 -5.21975568 20.48966895 -9 20 C-11.87029869 18.20606332 -13.49131638 17.01736724 -15 14 C-15.5811138 6.91041162 -15.5811138 6.91041162 -13.125 3.0625 C-9.24699241 -0.70144855 -5.21240222 -0.82822281 0 0 Z " fill="#000000" transform="translate(131,319)"/>
<path d="M0 0 C2.87029869 1.79393668 4.49131638 2.98263276 6 6 C6.5811138 13.08958838 6.5811138 13.08958838 4.125 16.9375 C0.63841797 20.3215355 -2.03592714 20.38966392 -6.73828125 20.359375 C-10.32520929 19.78943134 -11.86838894 17.79773951 -14 15 C-15.43304064 12.13391871 -15.30644155 10.18699217 -15 7 C-11.06142639 0.04185329 -7.71503326 -0.99935664 0 0 Z " fill="#000000" transform="translate(390,173)"/>
<path d="M0 0 C3.18637361 0.64073817 4.95955678 2.09960721 7.15625 4.43359375 C8.89794538 7.9169845 8.7338762 11.63307591 8.15625 15.43359375 C5.78463879 18.78175075 4.14091279 20.09110234 0.28125 21.43359375 C-3.8476802 21.43359375 -6.28322884 20.51616273 -9.84375 18.43359375 C-12.32189609 15.02614288 -12.84375 13.08302468 -12.84375 8.87109375 C-10.79298323 1.82158298 -7.02870459 -0.38657875 0 0 Z " fill="#000000" transform="translate(415.84375,87.56640625)"/>
</svg>
