<?xml version="1.0" encoding="UTF-8"?>
<!DOCTYPE svg PUBLIC "-//W3C//DTD SVG 1.1//EN" "http://www.w3.org/Graphics/SVG/1.1/DTD/svg11.dtd">
<svg xmlns="http://www.w3.org/2000/svg" version="1.1" width="512px" height="512px" style="shape-rendering:geometricPrecision; text-rendering:geometricPrecision; image-rendering:optimizeQuality; fill-rule:evenodd; clip-rule:evenodd" xmlns:xlink="http://www.w3.org/1999/xlink">
<g><path style="opacity:0.949" fill="#000000" d="M 233.5,-0.5 C 248.167,-0.5 262.833,-0.5 277.5,-0.5C 377.763,12.04 449.263,64.04 492,155.5C 502.297,180.687 508.797,206.687 511.5,233.5C 511.5,248.167 511.5,262.833 511.5,277.5C 498.96,377.763 446.96,449.263 355.5,492C 330.313,502.297 304.313,508.797 277.5,511.5C 262.833,511.5 248.167,511.5 233.5,511.5C 133.237,498.96 61.7366,446.96 19,355.5C 8.70332,330.313 2.20332,304.313 -0.5,277.5C -0.5,262.833 -0.5,248.167 -0.5,233.5C 12.04,133.237 64.04,61.7366 155.5,19C 180.687,8.70332 206.687,2.20332 233.5,-0.5 Z M 237.5,22.5 C 323.695,19.1891 392.861,51.5224 445,119.5C 493.5,191.827 501.5,268.494 469,349.5C 429.398,431.413 364.231,477.58 273.5,488C 194.022,491.857 128.188,464.024 76,404.5C 24.5749,338.98 10.2416,265.98 33,185.5C 62.7098,100.79 121.21,47.957 208.5,27C 218.273,25.241 227.939,23.741 237.5,22.5 Z M 222.5,133.5 C 244.5,133.5 266.5,133.5 288.5,133.5C 288.333,159.502 288.5,185.502 289,211.5C 289.408,216.478 291.908,219.978 296.5,222C 323.498,222.5 350.498,222.667 377.5,222.5C 377.5,244.5 377.5,266.5 377.5,288.5C 349.436,288.025 321.436,288.525 293.5,290C 291.19,291.637 289.69,293.804 289,296.5C 288.5,323.498 288.333,350.498 288.5,377.5C 266.5,377.5 244.5,377.5 222.5,377.5C 222.975,349.436 222.475,321.436 221,293.5C 219.363,291.19 217.196,289.69 214.5,289C 187.502,288.5 160.502,288.333 133.5,288.5C 133.5,266.5 133.5,244.5 133.5,222.5C 161.564,222.975 189.564,222.475 217.5,221C 219.81,219.363 221.31,217.196 222,214.5C 222.5,187.502 222.667,160.502 222.5,133.5 Z"/></g>
<g><path style="opacity:0.96" fill="#000000" d="M 209.5,110.5 C 240.168,110.333 270.835,110.5 301.5,111C 306.551,111.717 309.718,114.551 311,119.5C 311.5,146.165 311.667,172.831 311.5,199.5C 339.231,199.026 366.897,199.526 394.5,201C 397.467,203.1 399.3,205.934 400,209.5C 400.667,240.167 400.667,270.833 400,301.5C 399.386,305.115 397.553,307.949 394.5,310C 366.897,311.474 339.231,311.974 311.5,311.5C 311.974,339.231 311.474,366.897 310,394.5C 307.949,397.553 305.115,399.386 301.5,400C 270.833,400.667 240.167,400.667 209.5,400C 205.885,399.386 203.051,397.553 201,394.5C 199.526,366.897 199.026,339.231 199.5,311.5C 171.769,311.974 144.103,311.474 116.5,310C 113.447,307.949 111.614,305.115 111,301.5C 110.333,270.833 110.333,240.167 111,209.5C 111.614,205.885 113.447,203.051 116.5,201C 144.103,199.526 171.769,199.026 199.5,199.5C 199.333,172.831 199.5,146.165 200,119.5C 201.462,114.548 204.629,111.548 209.5,110.5 Z M 222.5,133.5 C 222.667,160.502 222.5,187.502 222,214.5C 221.31,217.196 219.81,219.363 217.5,221C 189.564,222.475 161.564,222.975 133.5,222.5C 133.5,244.5 133.5,266.5 133.5,288.5C 160.502,288.333 187.502,288.5 214.5,289C 217.196,289.69 219.363,291.19 221,293.5C 222.475,321.436 222.975,349.436 222.5,377.5C 244.5,377.5 266.5,377.5 288.5,377.5C 288.333,350.498 288.5,323.498 289,296.5C 289.69,293.804 291.19,291.637 293.5,290C 321.436,288.525 349.436,288.025 377.5,288.5C 377.5,266.5 377.5,244.5 377.5,222.5C 350.498,222.667 323.498,222.5 296.5,222C 291.908,219.978 289.408,216.478 289,211.5C 288.5,185.502 288.333,159.502 288.5,133.5C 266.5,133.5 244.5,133.5 222.5,133.5 Z"/></g>
</svg>
