<?xml version="1.0" encoding="UTF-8"?>
<!DOCTYPE svg PUBLIC "-//W3C//DTD SVG 1.1//EN" "http://www.w3.org/Graphics/SVG/1.1/DTD/svg11.dtd">
<svg xmlns="http://www.w3.org/2000/svg" version="1.1" width="512px" height="512px" style="shape-rendering:geometricPrecision; text-rendering:geometricPrecision; image-rendering:optimizeQuality; fill-rule:evenodd; clip-rule:evenodd" xmlns:xlink="http://www.w3.org/1999/xlink">
<g><path style="opacity:0.946" fill="#000000" d="M 247.5,-0.5 C 252.833,-0.5 258.167,-0.5 263.5,-0.5C 275.881,3.37946 284.214,11.5461 288.5,24C 306.833,24.3333 325.167,24.6667 343.5,25C 346.362,25.9305 348.695,27.5971 350.5,30C 375.167,30.3333 399.833,30.6667 424.5,31C 429.974,32.4735 433.474,35.9735 435,41.5C 435.667,194.5 435.667,347.5 435,500.5C 433.401,505.594 430.234,509.261 425.5,511.5C 312.167,511.5 198.833,511.5 85.5,511.5C 80.7658,509.261 77.5992,505.594 76,500.5C 75.3333,460.833 75.3333,421.167 76,381.5C 79.0133,376.465 83.1799,375.298 88.5,378C 89.7014,378.903 90.5348,380.069 91,381.5C 91.5,419.832 91.6667,458.165 91.5,496.5C 200.833,496.5 310.167,496.5 419.5,496.5C 419.5,346.5 419.5,196.5 419.5,46.5C 397.5,46.5 375.5,46.5 353.5,46.5C 353.5,49.5 353.5,52.5 353.5,55.5C 368.837,55.3334 384.17,55.5001 399.5,56C 403.612,57.7786 406.778,60.6119 409,64.5C 410.646,99.1063 410.98,133.773 410,168.5C 407.565,173.224 403.731,174.724 398.5,173C 396.667,172.5 395.5,171.333 395,169.5C 394.5,136.835 394.333,104.168 394.5,71.5C 380.833,71.5 367.167,71.5 353.5,71.5C 353.912,83.2293 353.412,94.8959 352,106.5C 349.768,111.731 345.935,115.231 340.5,117C 312.213,118.15 283.88,118.65 255.5,118.5C 227.12,118.65 198.787,118.15 170.5,117C 165.065,115.231 161.232,111.731 159,106.5C 157.588,94.8959 157.088,83.2293 157.5,71.5C 143.833,71.5 130.167,71.5 116.5,71.5C 116.333,204.5 116.5,337.5 117,470.5C 147.429,471.165 177.929,471.498 208.5,471.5C 241.526,471.637 274.526,471.137 307.5,470C 327.084,463.218 336.084,449.385 334.5,428.5C 293.165,428.667 251.832,428.5 210.5,428C 204.347,426.535 202.18,422.702 204,416.5C 205.167,415.333 206.333,414.167 207.5,413C 253.167,412.667 298.833,412.333 344.5,412C 352.105,410.81 359.771,410.143 367.5,410C 381.849,405.65 390.683,396.15 394,381.5C 394.333,320.167 394.667,258.833 395,197.5C 395.5,195.667 396.667,194.5 398.5,194C 403.731,192.276 407.565,193.776 410,198.5C 410.667,260.833 410.667,323.167 410,385.5C 405.29,427.525 384.123,458.025 346.5,477C 336.284,481.554 325.617,484.554 314.5,486C 246.5,486.667 178.5,486.667 110.5,486C 106.333,484.5 103.5,481.667 102,477.5C 100.338,340.889 100.005,204.222 101,67.5C 102.743,62.0896 106.243,58.2563 111.5,56C 126.83,55.5001 142.163,55.3334 157.5,55.5C 157.5,52.5 157.5,49.5 157.5,46.5C 135.5,46.5 113.5,46.5 91.5,46.5C 91.6667,148.501 91.5,250.501 91,352.5C 88.7742,356.861 85.2742,358.361 80.5,357C 78.3333,356.167 76.8333,354.667 76,352.5C 75.0066,247.777 75.3399,143.11 77,38.5C 79.1241,34.687 82.2908,32.187 86.5,31C 111.167,30.6667 135.833,30.3333 160.5,30C 162.305,27.5971 164.638,25.9305 167.5,25C 185.833,24.6667 204.167,24.3333 222.5,24C 226.786,11.5461 235.119,3.37946 247.5,-0.5 Z M 249.5,15.5 C 264.221,14.0397 272.721,20.7064 275,35.5C 276.731,37.6166 278.898,39.1166 281.5,40C 300.164,40.4999 318.83,40.6666 337.5,40.5C 337.5,52.1667 337.5,63.8333 337.5,75.5C 298.499,75.3333 259.499,75.5 220.5,76C 213.136,80.6918 212.803,85.6918 219.5,91C 258.832,91.5 298.165,91.6667 337.5,91.5C 337.664,94.1873 337.497,96.854 337,99.5C 336.5,100.667 335.667,101.5 334.5,102C 281.833,102.667 229.167,102.667 176.5,102C 175.333,101.5 174.5,100.667 174,99.5C 173.503,96.854 173.336,94.1873 173.5,91.5C 179.509,91.6662 185.509,91.4995 191.5,91C 194.516,89.4714 195.849,86.9714 195.5,83.5C 195.881,80.6753 194.881,78.5087 192.5,77C 186.258,75.6304 179.925,75.1304 173.5,75.5C 173.5,63.8333 173.5,52.1667 173.5,40.5C 192.17,40.6666 210.836,40.4999 229.5,40C 232.102,39.1166 234.269,37.6166 236,35.5C 237.307,26.5168 241.807,19.8502 249.5,15.5 Z M 246.5,143.5 C 252.5,143.5 258.5,143.5 264.5,143.5C 264.086,152.582 264.586,161.582 266,170.5C 267.952,172.894 270.452,174.394 273.5,175C 281.159,175.5 288.826,175.666 296.5,175.5C 296.5,181.5 296.5,187.5 296.5,193.5C 287.827,193.334 279.16,193.5 270.5,194C 267.619,195.251 265.786,197.417 265,200.5C 264.5,208.827 264.334,217.16 264.5,225.5C 258.5,225.5 252.5,225.5 246.5,225.5C 246.666,217.16 246.5,208.827 246,200.5C 245.214,197.417 243.381,195.251 240.5,194C 231.84,193.5 223.173,193.334 214.5,193.5C 214.5,187.5 214.5,181.5 214.5,175.5C 222.174,175.666 229.841,175.5 237.5,175C 241.922,174.242 244.755,171.742 246,167.5C 246.5,159.507 246.666,151.507 246.5,143.5 Z M 160.5,274.5 C 165.833,274.5 171.167,274.5 176.5,274.5C 176.5,279.5 176.5,284.5 176.5,289.5C 171.167,289.5 165.833,289.5 160.5,289.5C 160.5,284.5 160.5,279.5 160.5,274.5 Z M 160.5,342.5 C 165.833,342.5 171.167,342.5 176.5,342.5C 176.5,347.5 176.5,352.5 176.5,357.5C 171.167,357.5 165.833,357.5 160.5,357.5C 160.5,352.5 160.5,347.5 160.5,342.5 Z M 160.5,410.5 C 165.833,410.5 171.167,410.5 176.5,410.5C 176.5,415.833 176.5,421.167 176.5,426.5C 171.167,426.5 165.833,426.5 160.5,426.5C 160.5,421.167 160.5,415.833 160.5,410.5 Z M 381.5,422.5 C 373.261,437.741 361.594,449.741 346.5,458.5C 346.167,458.167 345.833,457.833 345.5,457.5C 349.651,447.595 351.317,437.262 350.5,426.5C 361.165,427.398 371.499,426.065 381.5,422.5 Z"/></g>
<g><path style="opacity:0.844" fill="#000000" d="M 252.5,24.5 C 260.658,23.8229 264.158,27.4895 263,35.5C 260.774,39.8608 257.274,41.3608 252.5,40C 248.139,37.7742 246.639,34.2742 248,29.5C 249.025,27.313 250.525,25.6464 252.5,24.5 Z"/></g>
<g><path style="opacity:0.935" fill="#000000" d="M 236.5,127.5 C 249.932,127.037 263.265,127.537 276.5,129C 278.041,130.579 279.208,132.413 280,134.5C 280.5,142.827 280.666,151.16 280.5,159.5C 289.94,159.055 299.274,159.555 308.5,161C 310.041,162.579 311.208,164.413 312,166.5C 312.667,178.5 312.667,190.5 312,202.5C 310.437,205.728 307.937,207.895 304.5,209C 296.507,209.5 288.507,209.666 280.5,209.5C 280.914,218.582 280.414,227.582 279,236.5C 277.363,238.81 275.196,240.31 272.5,241C 261.167,241.667 249.833,241.667 238.5,241C 235.804,240.31 233.637,238.81 232,236.5C 230.586,227.582 230.086,218.582 230.5,209.5C 222.493,209.666 214.493,209.5 206.5,209C 203.063,207.895 200.563,205.728 199,202.5C 198.333,190.5 198.333,178.5 199,166.5C 199.792,164.413 200.959,162.579 202.5,161C 211.726,159.555 221.06,159.055 230.5,159.5C 230.334,151.16 230.5,142.827 231,134.5C 231.967,131.379 233.8,129.046 236.5,127.5 Z M 246.5,143.5 C 246.666,151.507 246.5,159.507 246,167.5C 244.755,171.742 241.922,174.242 237.5,175C 229.841,175.5 222.174,175.666 214.5,175.5C 214.5,181.5 214.5,187.5 214.5,193.5C 223.173,193.334 231.84,193.5 240.5,194C 243.381,195.251 245.214,197.417 246,200.5C 246.5,208.827 246.666,217.16 246.5,225.5C 252.5,225.5 258.5,225.5 264.5,225.5C 264.334,217.16 264.5,208.827 265,200.5C 265.786,197.417 267.619,195.251 270.5,194C 279.16,193.5 287.827,193.334 296.5,193.5C 296.5,187.5 296.5,181.5 296.5,175.5C 288.826,175.666 281.159,175.5 273.5,175C 270.452,174.394 267.952,172.894 266,170.5C 264.586,161.582 264.086,152.582 264.5,143.5C 258.5,143.5 252.5,143.5 246.5,143.5 Z"/></g>
<g><path style="opacity:0.937" fill="#000000" d="M 151.5,258.5 C 162.838,258.333 174.172,258.5 185.5,259C 189.165,260.668 191.332,263.501 192,267.5C 192.667,277.167 192.667,286.833 192,296.5C 191.394,299.548 189.894,302.048 187.5,304C 175.263,305.626 162.929,305.959 150.5,305C 148.083,303.337 146.25,301.171 145,298.5C 144.333,287.5 144.333,276.5 145,265.5C 146.694,262.642 148.861,260.309 151.5,258.5 Z M 160.5,274.5 C 160.5,279.5 160.5,284.5 160.5,289.5C 165.833,289.5 171.167,289.5 176.5,289.5C 176.5,284.5 176.5,279.5 176.5,274.5C 171.167,274.5 165.833,274.5 160.5,274.5 Z"/></g>
<g><path style="opacity:0.931" fill="#000000" d="M 207.5,273.5 C 259.168,273.333 310.834,273.5 362.5,274C 366.613,277.509 367.446,281.676 365,286.5C 363.352,287.717 361.519,288.55 359.5,289C 309.5,289.667 259.5,289.667 209.5,289C 204.076,286.983 202.242,283.15 204,277.5C 205.376,276.295 206.542,274.962 207.5,273.5 Z"/></g>
<g><path style="opacity:0.937" fill="#000000" d="M 151.5,326.5 C 162.838,326.333 174.172,326.5 185.5,327C 189.165,328.668 191.332,331.501 192,335.5C 192.667,345.167 192.667,354.833 192,364.5C 191.394,367.548 189.894,370.048 187.5,372C 175.263,373.626 162.929,373.959 150.5,373C 147.619,371.749 145.786,369.583 145,366.5C 144.333,355.5 144.333,344.5 145,333.5C 146.694,330.642 148.861,328.309 151.5,326.5 Z M 160.5,342.5 C 160.5,347.5 160.5,352.5 160.5,357.5C 165.833,357.5 171.167,357.5 176.5,357.5C 176.5,352.5 176.5,347.5 176.5,342.5C 171.167,342.5 165.833,342.5 160.5,342.5 Z"/></g>
<g><path style="opacity:0.931" fill="#000000" d="M 208.5,342.5 C 259.501,342.333 310.501,342.5 361.5,343C 366.535,346.013 367.702,350.18 365,355.5C 364.097,356.701 362.931,357.535 361.5,358C 310.5,358.667 259.5,358.667 208.5,358C 203.465,354.987 202.298,350.82 205,345.5C 206.145,344.364 207.312,343.364 208.5,342.5 Z"/></g>
<g><path style="opacity:0.945" fill="#000000" d="M 151.5,394.5 C 162.505,394.333 173.505,394.5 184.5,395C 188.742,396.245 191.242,399.078 192,403.5C 192.667,413.167 192.667,422.833 192,432.5C 191.394,435.548 189.894,438.048 187.5,440C 175.263,441.626 162.929,441.959 150.5,441C 147.619,439.749 145.786,437.583 145,434.5C 144.333,423.5 144.333,412.5 145,401.5C 146.694,398.642 148.861,396.309 151.5,394.5 Z M 160.5,410.5 C 160.5,415.833 160.5,421.167 160.5,426.5C 165.833,426.5 171.167,426.5 176.5,426.5C 176.5,421.167 176.5,415.833 176.5,410.5C 171.167,410.5 165.833,410.5 160.5,410.5 Z"/></g>
</svg>
