<?xml version="1.0" encoding="UTF-8"?>
<!DOCTYPE svg PUBLIC "-//W3C//DTD SVG 1.1//EN" "http://www.w3.org/Graphics/SVG/1.1/DTD/svg11.dtd">
<svg xmlns="http://www.w3.org/2000/svg" version="1.1" width="512px" height="512px" style="shape-rendering:geometricPrecision; text-rendering:geometricPrecision; image-rendering:optimizeQuality; fill-rule:evenodd; clip-rule:evenodd" xmlns:xlink="http://www.w3.org/1999/xlink">
<g><path style="opacity:0.976" fill="#000000" d="M 189.5,15.5 C 219.629,12.6528 238.963,25.6528 247.5,54.5C 260.154,55.3326 272.82,55.8326 285.5,56C 290,57.8333 293.167,61 295,65.5C 295.667,90.8333 295.667,116.167 295,141.5C 293.167,146 290,149.167 285.5,151C 228.167,151.667 170.833,151.667 113.5,151C 109,149.167 105.833,146 104,141.5C 103.333,116.167 103.333,90.8333 104,65.5C 105.833,61 109,57.8333 113.5,56C 126.18,55.8326 138.846,55.3326 151.5,54.5C 156.813,34.1889 169.479,21.1889 189.5,15.5 Z M 192.5,32.5 C 217.043,31.2052 230.21,42.8719 232,67.5C 232.5,69.3333 233.667,70.5 235.5,71C 250.163,71.4999 264.83,71.6666 279.5,71.5C 279.5,92.8333 279.5,114.167 279.5,135.5C 226.167,135.5 172.833,135.5 119.5,135.5C 119.5,114.167 119.5,92.8333 119.5,71.5C 134.93,71.9682 150.263,71.4682 165.5,70C 167.733,64.4004 169.233,58.5671 170,52.5C 174.276,42.0492 181.776,35.3825 192.5,32.5 Z"/></g>
<g><path style="opacity:0.986" fill="#000000" d="M 46.5,79.5 C 58.8378,79.3335 71.1712,79.5001 83.5,80C 86.516,81.5286 87.8494,84.0286 87.5,87.5C 87.8494,90.9714 86.516,93.4714 83.5,95C 74.1667,95.3333 64.8333,95.6667 55.5,96C 41.6667,97.8333 33.8333,105.667 32,119.5C 31.3333,226.167 31.3333,332.833 32,439.5C 33.8333,453.333 41.6667,461.167 55.5,463C 139.167,463.333 222.833,463.667 306.5,464C 312.142,467.914 312.809,472.58 308.5,478C 221.248,479.661 133.915,479.995 46.5,479C 30.3333,474.833 20.1667,464.667 16,448.5C 15.3333,335.833 15.3333,223.167 16,110.5C 20.3489,94.3186 30.5156,83.9852 46.5,79.5 Z"/></g>
<g><path style="opacity:0.977" fill="#000000" d="M 315.5,79.5 C 327.838,79.3335 340.171,79.5001 352.5,80C 367.061,83.5604 376.894,92.3937 382,106.5C 383.65,161.122 383.983,215.788 383,270.5C 382.5,272.333 381.333,273.5 379.5,274C 376.833,274.667 374.167,274.667 371.5,274C 369.667,273.5 368.5,272.333 368,270.5C 367.973,218.135 367.307,165.802 366,113.5C 362.295,102.796 354.795,96.9629 343.5,96C 333.401,95.9506 323.401,95.284 313.5,94C 311.571,90.7441 311.071,87.2441 312,83.5C 312.69,81.6498 313.856,80.3164 315.5,79.5 Z"/></g>
<g><path style="opacity:0.994" fill="#000000" d="M 57.5,111.5 C 66.1731,111.334 74.8397,111.5 83.5,112C 85.3333,112.5 86.5,113.667 87,115.5C 87.9285,119.244 87.4285,122.744 85.5,126C 78.2806,127.429 70.9472,127.929 63.5,127.5C 63.5,228.833 63.5,330.167 63.5,431.5C 134.501,431.333 205.501,431.5 276.5,432C 281.518,435.722 282.351,440.222 279,445.5C 278.25,446.126 277.416,446.626 276.5,447C 203.5,447.667 130.5,447.667 57.5,447C 53,445.167 49.8333,442 48,437.5C 47.3333,332.167 47.3333,226.833 48,121.5C 50.0223,116.98 53.189,113.647 57.5,111.5 Z"/></g>
<g><path style="opacity:0.986" fill="#000000" d="M 315.5,111.5 C 324.173,111.334 332.84,111.5 341.5,112C 346,113.833 349.167,117 351,121.5C 351.667,165.833 351.667,210.167 351,254.5C 346,259.833 341,259.833 336,254.5C 335.5,212.168 335.333,169.835 335.5,127.5C 328.053,127.929 320.719,127.429 313.5,126C 311.571,122.744 311.071,119.244 312,115.5C 312.69,113.65 313.856,112.316 315.5,111.5 Z"/></g>
<g><path style="opacity:0.918" fill="#000000" d="M 179.5,183.5 C 190.485,182.457 193.985,187.124 190,197.5C 176.5,213.667 163,229.833 149.5,246C 145.619,248.881 141.619,248.881 137.5,246C 132,240.5 126.5,235 121,229.5C 117.649,224.222 118.482,219.722 123.5,216C 126.167,215.333 128.833,215.333 131.5,216C 135.633,219.131 139.466,222.631 143,226.5C 155.195,212.055 167.362,197.722 179.5,183.5 Z"/></g>
<g><path style="opacity:0.985" fill="#000000" d="M 99.5,191.5 C 112.837,191.333 126.171,191.5 139.5,192C 144.833,197 144.833,202 139.5,207C 130.173,207.5 120.839,207.666 111.5,207.5C 111.5,223.5 111.5,239.5 111.5,255.5C 127.837,255.667 144.17,255.5 160.5,255C 165.823,251.27 170.656,251.77 175,256.5C 175.667,260.167 175.667,263.833 175,267.5C 174.5,269.333 173.333,270.5 171.5,271C 146.746,271.98 122.079,271.647 97.5,270C 96.8742,269.25 96.3742,268.416 96,267.5C 95.3333,243.5 95.3333,219.5 96,195.5C 96.6897,193.65 97.8564,192.316 99.5,191.5 Z"/></g>
<g><path style="opacity:0.985" fill="#000000" d="M 203.5,207.5 C 235.502,207.333 267.502,207.5 299.5,208C 302.516,209.529 303.849,212.029 303.5,215.5C 303.849,218.971 302.516,221.471 299.5,223C 267.5,223.667 235.5,223.667 203.5,223C 200.484,221.471 199.151,218.971 199.5,215.5C 199.282,211.934 200.616,209.268 203.5,207.5 Z"/></g>
<g><path style="opacity:0.967" fill="#000000" d="M 203.5,239.5 C 216.837,239.333 230.171,239.5 243.5,240C 245.333,240.5 246.5,241.667 247,243.5C 247.667,246.167 247.667,248.833 247,251.5C 246.5,253.333 245.333,254.5 243.5,255C 230.167,255.667 216.833,255.667 203.5,255C 200.484,253.471 199.151,250.971 199.5,247.5C 199.282,243.934 200.616,241.268 203.5,239.5 Z"/></g>
<g><path style="opacity:0.929" fill="#000000" d="M 311.5,271.5 C 337.781,268.979 359.114,277.979 375.5,298.5C 400.065,269.196 429.398,263.363 463.5,281C 490.73,300.331 500.897,326.498 494,359.5C 490.248,376.428 483.581,392.095 474,406.5C 448.267,442.235 416.767,471.735 379.5,495C 376.833,495.667 374.167,495.667 371.5,495C 330.731,469.564 297.231,436.73 271,396.5C 258.465,375.494 253.465,352.827 256,328.5C 262.899,298.102 281.399,279.102 311.5,271.5 Z M 323.5,287.5 C 339.149,289.745 351.982,297.079 362,309.5C 371,326.833 380,326.833 389,309.5C 410.593,284.717 434.76,281.884 461.5,301C 477.17,316.838 482.337,335.672 477,357.5C 470.624,380.167 459.624,400.167 444,417.5C 424.257,439.92 402.09,459.42 377.5,476C 376.167,476.667 374.833,476.667 373.5,476C 346.877,457.716 323.043,436.216 302,411.5C 287.819,394.138 278.153,374.471 273,352.5C 269.179,323.631 280.345,303.131 306.5,291C 312.199,289.311 317.865,288.144 323.5,287.5 Z"/></g>
<g><path style="opacity:0.918" fill="#000000" d="M 179.5,303.5 C 190.485,302.457 193.985,307.124 190,317.5C 176.5,333.667 163,349.833 149.5,366C 145.619,368.881 141.619,368.881 137.5,366C 132,360.5 126.5,355 121,349.5C 117.649,344.222 118.482,339.722 123.5,336C 126.167,335.333 128.833,335.333 131.5,336C 135.633,339.131 139.466,342.631 143,346.5C 155.195,332.055 167.362,317.722 179.5,303.5 Z"/></g>
<g><path style="opacity:0.985" fill="#000000" d="M 99.5,311.5 C 112.837,311.333 126.171,311.5 139.5,312C 144.833,317 144.833,322 139.5,327C 130.173,327.5 120.839,327.666 111.5,327.5C 111.5,343.5 111.5,359.5 111.5,375.5C 127.837,375.667 144.17,375.5 160.5,375C 165.823,371.27 170.656,371.77 175,376.5C 175.667,380.167 175.667,383.833 175,387.5C 174.5,389.333 173.333,390.5 171.5,391C 146.746,391.98 122.079,391.647 97.5,390C 96.8742,389.25 96.3742,388.416 96,387.5C 95.3333,363.5 95.3333,339.5 96,315.5C 96.6897,313.65 97.8564,312.316 99.5,311.5 Z"/></g>
<g><path style="opacity:0.96" fill="#000000" d="M 203.5,327.5 C 214.172,327.333 224.839,327.5 235.5,328C 237.333,328.5 238.5,329.667 239,331.5C 239.667,334.167 239.667,336.833 239,339.5C 238.5,341.333 237.333,342.5 235.5,343C 224.833,343.667 214.167,343.667 203.5,343C 200.484,341.471 199.151,338.971 199.5,335.5C 199.282,331.934 200.616,329.268 203.5,327.5 Z"/></g>
<g><path style="opacity:0.938" fill="#000000" d="M 360.5,340.5 C 364.401,339.857 367.734,340.857 370.5,343.5C 378.431,361.459 386.264,379.459 394,397.5C 397.283,389.76 401.45,382.593 406.5,376C 417.167,375.333 427.833,375.333 438.5,376C 440.333,376.5 441.5,377.667 442,379.5C 444.13,386.077 441.964,390.244 435.5,392C 428.809,392.169 422.142,392.669 415.5,393.5C 410.469,404.399 404.802,414.899 398.5,425C 394.549,427.101 390.716,426.934 387,424.5C 378.725,406.284 370.725,387.95 363,369.5C 359.212,376.912 355.045,384.079 350.5,391C 337.072,391.962 323.739,391.629 310.5,390C 307.833,385.667 307.833,381.333 310.5,377C 320.401,375.716 330.401,375.049 340.5,375C 345.794,364.911 350.961,354.745 356,344.5C 357.397,342.93 358.897,341.596 360.5,340.5 Z"/></g>
<g><path style="opacity:0.96" fill="#000000" d="M 203.5,359.5 C 214.172,359.333 224.839,359.5 235.5,360C 237.333,360.5 238.5,361.667 239,363.5C 239.667,366.167 239.667,368.833 239,371.5C 238.5,373.333 237.333,374.5 235.5,375C 224.833,375.667 214.167,375.667 203.5,375C 200.484,373.471 199.151,370.971 199.5,367.5C 199.282,363.934 200.616,361.268 203.5,359.5 Z"/></g>
</svg>
