<?xml version="1.0" encoding="UTF-8"?>
<svg version="1.1" xmlns="http://www.w3.org/2000/svg" width="512" height="512">
<path d="M0 0 C6.69877158 5.55677726 12.1278458 11.7920122 14.6875 20.25 C14.6875 21.57 14.6875 22.89 14.6875 24.25 C15.61498047 24.22905273 16.54246094 24.20810547 17.49804688 24.18652344 C20.97210829 24.11794501 24.44544011 24.06800673 27.91992188 24.03027344 C29.4174339 24.01028081 30.91486908 23.98307701 32.41210938 23.94824219 C49.58263567 23.55904359 49.58263567 23.55904359 56.7109375 30.109375 C60.92656066 36.00637387 62.6875 40.87488154 62.6875 48.25 C63.80717163 48.23667633 63.80717163 48.23667633 64.94946289 48.2230835 C72.01066532 48.14267782 79.07170711 48.08190447 86.13323975 48.04275131 C89.76301731 48.02194485 93.39241415 47.99375646 97.02197266 47.94824219 C100.52981263 47.90453341 104.0372882 47.88081079 107.54537964 47.87049103 C109.52394644 47.85958746 111.50236821 47.82840165 113.48071289 47.79681396 C121.83487811 47.79474624 127.46956535 48.55379594 133.9296875 54.21484375 C134.46851563 54.86582031 135.00734375 55.51679687 135.5625 56.1875 C136.11679687 56.83589844 136.67109375 57.48429687 137.2421875 58.15234375 C139.88074848 61.9818228 140.93480837 65.47529357 140.9659729 70.10322571 C140.98271812 71.52711357 140.98271812 71.52711357 140.99980164 72.97976685 C141.00196182 74.00907318 141.00412201 75.03837952 141.00634766 76.09887695 C141.01639328 77.19200699 141.0264389 78.28513702 141.03678894 79.41139221 C141.06765082 83.02034994 141.08466469 86.62923336 141.1015625 90.23828125 C141.1202717 92.74220927 141.13984492 95.24613098 141.1602478 97.75004578 C141.20635374 103.66431336 141.24375264 109.5785953 141.27692068 115.49294585 C141.31893417 122.88924436 141.37448893 130.2854308 141.4296875 137.68164062 C141.52648467 150.87103278 141.6112538 164.06047385 141.6875 177.25 C142.16367264 176.83341629 142.63984528 176.41683258 143.13044739 175.98762512 C143.75747055 175.44361557 144.38449371 174.89960602 145.03051758 174.33911133 C145.96133904 173.52861076 145.96133904 173.52861076 146.91096497 172.70173645 C148.95113953 171.0345609 150.93743586 169.93090585 153.375 168.9375 C154.10074219 168.63199219 154.82648438 168.32648438 155.57421875 168.01171875 C165.28017072 164.51327026 176.41145927 165.32395448 185.96484375 168.8984375 C189.63387684 170.71979396 192.61526356 173.02893175 195.65234375 175.76171875 C198.04599889 177.51216521 199.75014562 177.97182358 202.6875 178.25 C203.6775 177.92 204.6675 177.59 205.6875 177.25 C216.14912899 176.2229116 223.23435804 178.00866736 231.5 184.4375 C237.11861467 191.66143314 239.49411465 197.89097604 239.11328125 207.12890625 C238.21499075 213.71362287 235.40097607 219.53652393 230.6875 224.25 C222.31196576 230.34129763 215.03586784 231.22225486 204.6875 230.25 C197.73659391 228.18326392 192.62461842 224.31211942 188.6875 218.25 C183.6015479 208.60422877 184.77785078 200.60313956 186.6875 190.25 C185.25292672 189.2665504 183.81472594 188.28839079 182.375 187.3125 C181.57449219 186.76722656 180.77398437 186.22195312 179.94921875 185.66015625 C174.43829866 182.22415944 167.79983029 182.39864881 161.57421875 183.6875 C154.18266262 186.62575834 149.37032996 194.13664102 144.6875 200.25 C144.16994141 200.92401855 143.65238281 201.59803711 143.11914062 202.29248047 C134.4124697 213.74848688 126.78466089 225.74100681 119.6875 238.25 C119.24277344 239.02956055 118.79804688 239.80912109 118.33984375 240.61230469 C107.93866932 259.03169792 100.21105329 278.57304852 95.6875 299.25 C95.44257813 300.33667969 95.19765625 301.42335938 94.9453125 302.54296875 C91.43525491 321.12704079 91.86997004 343.21040588 101.94140625 359.76171875 C111.36910854 373.19672179 122.72828037 379.76185094 138.6875 383.25 C165.2574679 387.73817025 192.51440152 379.91672564 216.6875 369.25 C217.40196289 368.93724121 218.11642578 368.62448242 218.85253906 368.30224609 C241.54817072 358.25687765 262.18418756 344.83366141 281.5 329.3125 C282.16418945 328.78084229 282.82837891 328.24918457 283.51269531 327.70141602 C288.88537808 323.30108567 293.04822802 319.21690592 294.6875 312.25 C295.29784094 304.68177233 293.89692065 298.67638693 289 292.75 C288.236875 291.925 287.47375 291.1 286.6875 290.25 C285.78 290.58 284.8725 290.91 283.9375 291.25 C276.0306951 293.45878356 267.9706174 293.24397619 260.6484375 289.4375 C254.25732267 285.56718345 250.60902282 281.04748735 247.6875 274.25 C245.81096968 266.55504547 246.08607027 259.35650013 249.6875 252.25 C254.44529307 245.44690278 259.70375005 240.70521324 267.83984375 238.7265625 C275.40785156 237.52951381 282.69961473 238.48788198 289 243 C295.42222466 248.3604859 300.06621426 254.15363366 300.9375 262.703125 C301.04231936 266.9745141 300.72832057 270.36466228 299.25 274.375 C298.27287484 278.07925703 298.27287484 278.07925703 299.9375 280.13671875 C301.1807418 281.45766316 302.44652153 282.75764772 303.73046875 284.0390625 C310.4629171 291.64498219 312.01843868 301.33290381 311.8984375 311.125 C311.06772732 323.43181754 304.43202591 332.10666025 295.6875 340.25 C293.21242145 342.36291241 290.65865732 344.35096584 288.0625 346.3125 C287.33667725 346.86268799 286.61085449 347.41287598 285.86303711 347.97973633 C271.22534796 358.93907048 255.94936504 368.87876057 239.6875 377.25 C238.38522461 377.92458252 238.38522461 377.92458252 237.05664062 378.61279297 C211.17704764 391.87768697 183.23246687 401.5146866 153.875 401.375 C153.04291016 401.37886719 152.21082031 401.38273437 151.35351562 401.38671875 C150.54978516 401.38542969 149.74605469 401.38414062 148.91796875 401.3828125 C148.20020264 401.38168457 147.48243652 401.38055664 146.74291992 401.37939453 C144.61544979 401.24546423 142.74432973 400.79061521 140.6875 400.25 C140.69638245 401.15931274 140.70526489 402.06862549 140.7144165 403.00549316 C140.79474144 411.59717726 140.85555522 420.18873427 140.89474869 428.78070831 C140.91557628 433.19739368 140.94380492 437.6137674 140.98925781 442.03027344 C141.03288889 446.29671774 141.05667339 450.56286327 141.06700897 454.82951355 C141.07436951 456.45294392 141.08874281 458.07635893 141.11042023 459.69966125 C141.33029373 476.85533684 141.33029373 476.85533684 134.7578125 484.4921875 C134.11585938 485.03101563 133.47390625 485.56984375 132.8125 486.125 C132.17570312 486.67929687 131.53890625 487.23359375 130.8828125 487.8046875 C124.66061639 491.90115113 118.18661983 491.53523114 111.01028442 491.51069641 C109.82657222 491.51452196 108.64286001 491.51834751 107.42327774 491.52228898 C104.14577585 491.53081377 100.86841732 491.53038852 97.59091163 491.52610838 C94.05298672 491.5236402 90.51508811 491.53265649 86.97717285 491.54014587 C80.04903284 491.55289248 73.12093158 491.5546866 66.19278182 491.55234561 C60.56083774 491.55056219 54.92890542 491.5523126 49.29696274 491.55657005 C48.09436468 491.55746284 48.09436468 491.55746284 46.86747172 491.55837366 C45.23871677 491.55958542 43.60996182 491.56079955 41.98120688 491.56201603 C26.70795567 491.57289149 11.43472655 491.57072909 -3.83852591 491.56463119 C-17.80693145 491.55946243 -31.77526725 491.57071637 -45.743659 491.58972941 C-60.09053163 491.60910772 -74.43737126 491.61736379 -88.78425705 491.61360615 C-96.83727255 491.61169405 -104.89022868 491.61418257 -112.94323349 491.62832069 C-119.79912306 491.64023541 -126.65491673 491.64163842 -133.51080762 491.62953053 C-137.00751285 491.62364235 -140.50404269 491.62254055 -144.00073624 491.63453293 C-147.7944262 491.64496687 -151.58764427 491.63692587 -155.38131714 491.6242218 C-156.48229669 491.63159609 -157.58327625 491.63897037 -158.71761882 491.64656812 C-167.86311197 491.58210552 -174.6117922 489.9507078 -181.3125 483.25 C-185.46670588 477.34386065 -186.43600389 472.55435973 -186.44951439 465.44508934 C-186.45216622 464.75799021 -186.45481804 464.07089108 -186.45755023 463.36297077 C-186.46523876 461.04961449 -186.46580223 458.73631132 -186.46640015 456.42294312 C-186.47041506 454.75194783 -186.47485333 453.08095352 -186.4796797 451.40996039 C-186.49164775 446.80926565 -186.49729419 442.20858141 -186.50186086 437.60787416 C-186.50781602 432.64928133 -186.51942603 427.69070106 -186.53015137 422.7321167 C-186.55467653 410.75291714 -186.56930227 398.77371342 -186.58221143 386.79449648 C-186.58592315 383.41151794 -186.58989639 380.02853982 -186.5939641 376.6455617 C-186.61919933 355.64108406 -186.64125405 334.63660577 -186.65369225 313.63211632 C-186.65662198 308.7666257 -186.65958363 303.9011351 -186.66259766 299.03564453 C-186.66334371 297.82634004 -186.66408976 296.61703556 -186.66485842 295.37108548 C-186.67751395 275.77800937 -186.71073976 256.18502397 -186.75239949 236.59199028 C-186.79481272 216.47985404 -186.81838654 196.36776425 -186.82361281 176.25558341 C-186.8270275 164.96185508 -186.83878978 153.66826853 -186.87171555 142.3745842 C-186.89970869 132.75702029 -186.91071854 123.13962723 -186.89952008 113.52202575 C-186.8943317 108.61542692 -186.89723214 103.70918591 -186.92198563 98.80263901 C-186.94447161 94.30801346 -186.94374333 89.81400293 -186.92478175 85.31936665 C-186.92198085 83.6961612 -186.92758539 82.0729141 -186.94259469 80.44977562 C-187.02863437 70.53659455 -186.57338724 61.9313861 -179.52776563 54.32261312 C-174.41926528 49.46185457 -169.042078 47.99386067 -162.03173828 48.02294922 C-160.20051926 48.02317581 -160.20051926 48.02317581 -158.33230591 48.02340698 C-156.37730667 48.03889084 -156.37730667 48.03889084 -154.3828125 48.0546875 C-153.02375497 48.05842198 -151.66469474 48.0612669 -150.30563354 48.06326294 C-146.74475551 48.07086517 -143.18404303 48.0904839 -139.62322998 48.1126709 C-135.98321776 48.13320321 -132.34317855 48.14228038 -128.703125 48.15234375 C-121.57284932 48.17373338 -114.44268552 48.20782766 -107.3125 48.25 C-107.32547119 46.97785645 -107.33844238 45.70571289 -107.35180664 44.39501953 C-107.41004679 38.68314374 -105.58581923 34.63408421 -101.62890625 30.484375 C-96.10840408 25.59309136 -92.45415514 23.9949075 -84.921875 24.0546875 C-83.86495453 24.05893234 -83.86495453 24.05893234 -82.78668213 24.06326294 C-80.5451124 24.07442199 -78.30394814 24.09951807 -76.0625 24.125 C-74.53906829 24.13503536 -73.01563029 24.14416024 -71.4921875 24.15234375 C-67.76549414 24.17434709 -64.03903667 24.20884728 -60.3125 24.25 C-60.09883789 22.84886963 -60.09883789 22.84886963 -59.88085938 21.41943359 C-58.17801782 11.92360498 -51.94189161 4.74784097 -44.3125 -0.75 C-30.75057552 -9.30601639 -13.23295204 -9.33190838 0 0 Z M-40.3125 17.25 C-44.24295682 22.64034078 -45.26350014 27.92381004 -46.40625 34.45703125 C-47.3125 37.25 -47.3125 37.25 -48.84545898 38.40527344 C-52.42559742 39.63112985 -55.9498775 39.54831874 -59.69140625 39.55859375 C-61.35091517 39.5837408 -63.01042029 39.609139 -64.66992188 39.63476562 C-67.27920658 39.66356894 -69.88842582 39.68759623 -72.49780273 39.70629883 C-75.02100402 39.72790931 -77.54346123 39.76732839 -80.06640625 39.80859375 C-80.84770401 39.80870956 -81.62900177 39.80882538 -82.43397522 39.8089447 C-86.55410673 39.88152721 -86.55410673 39.88152721 -90.30078125 41.42626953 C-92.63156822 45.62776053 -91.77882204 51.01570994 -91.75 55.6875 C-91.76998047 56.83283203 -91.78996094 57.97816406 -91.81054688 59.15820312 C-91.80990234 60.25970703 -91.80925781 61.36121094 -91.80859375 62.49609375 C-91.81044678 63.50341553 -91.8122998 64.5107373 -91.81420898 65.54858398 C-91.16796613 69.02823224 -90.04275121 70.04476405 -87.3125 72.25 C-84.75457027 72.84427633 -84.75457027 72.84427633 -81.91636658 72.75120544 C-80.82136337 72.76103958 -79.72636017 72.77087372 -78.59817505 72.78100586 C-77.40167328 72.77133789 -76.20517151 72.76166992 -74.97241211 72.75170898 C-73.70868271 72.75711197 -72.44495331 72.76251495 -71.14292908 72.76808167 C-67.68009027 72.78203949 -64.21774814 72.77086539 -60.75493693 72.75437045 C-57.13150693 72.74051883 -53.50810573 72.74698004 -49.88465881 72.75050354 C-43.80087275 72.75320524 -37.71728403 72.73973248 -31.63354492 72.71655273 C-24.59771313 72.68993115 -17.56221105 72.68819975 -10.52634615 72.6999411 C-3.75920065 72.71071533 3.00782546 72.70453542 9.77496147 72.69038582 C12.65570329 72.68462409 15.5363578 72.68471009 18.41710091 72.68945122 C22.43718591 72.69510396 26.45677722 72.67591563 30.47680664 72.65405273 C31.67533264 72.65855438 32.87385864 72.66305603 34.10870361 72.66769409 C35.74697868 72.65283714 35.74697868 72.65283714 37.41835022 72.63768005 C38.84440629 72.63403521 38.84440629 72.63403521 40.29927158 72.63031673 C43.13799648 72.17826007 43.99381576 71.53438544 45.6875 69.25 C47.11531477 64.96655569 46.87180901 60.86152757 46.875 56.375 C46.88724609 55.47652344 46.89949219 54.57804687 46.91210938 53.65234375 C46.96246391 47.20643752 46.96246391 47.20643752 44.6875 41.25 C41.56566987 39.68908494 38.22370889 40.02991477 34.79296875 39.96875 C34.0085994 39.95034058 33.22423004 39.93193115 32.41609192 39.91296387 C29.90247176 39.85414638 27.38878222 39.8013948 24.875 39.75 C21.57668613 39.68213737 18.27857747 39.60837555 14.98046875 39.53125 C14.22509323 39.51767456 13.46971771 39.50409912 12.69145203 39.4901123 C8.91442355 39.40166666 5.36336879 39.14485238 1.6875 38.25 C1.54054688 37.26 1.39359375 36.27 1.2421875 35.25 C-0.21067236 26.36178377 -1.87516227 19.33830128 -9.375 13.69921875 C-20.19573044 6.6378965 -31.22104643 8.15854643 -40.3125 17.25 Z M-170.3125 69.25 C-171.05375909 72.49114356 -171.05375909 72.49114356 -170.93332577 76.10101414 C-170.93969418 76.78093445 -170.9460626 77.46085476 -170.95262399 78.16137871 C-170.96789139 80.44481382 -170.94745085 82.72652648 -170.92723083 85.00990295 C-170.93084289 86.66129363 -170.93664543 88.31268074 -170.94445282 89.96405691 C-170.95953561 94.50586939 -170.94336326 99.04711951 -170.9221462 103.58888781 C-170.90469132 108.485324 -170.91602903 113.38170318 -170.92381287 118.27815247 C-170.93449666 127.8715277 -170.9185183 137.46468383 -170.8936746 147.05802567 C-170.86577923 158.22333724 -170.86440173 169.38860412 -170.86423159 180.55394476 C-170.86304362 200.47131291 -170.83805271 220.38858023 -170.79956055 240.3059082 C-170.76220907 259.64543874 -170.74096477 278.98489594 -170.73803711 298.32446289 C-170.7378543 299.51568589 -170.73767149 300.70690889 -170.73748314 301.93422956 C-170.73730417 303.12336623 -170.7371252 304.3125029 -170.7369408 305.53767401 C-170.73657539 307.93177068 -170.73620302 310.32586736 -170.73582363 312.71996403 C-170.73563812 313.90056703 -170.7354526 315.08117004 -170.73526147 316.29754889 C-170.73169328 334.71058772 -170.71324347 353.12361518 -170.69333039 371.53664248 C-170.68630204 378.21685035 -170.68152265 384.89705552 -170.67836904 391.57726628 C-170.67332509 402.17202899 -170.66192741 412.76674059 -170.63706874 423.36147697 C-170.62582806 428.20443152 -170.61773341 433.04733573 -170.61820221 437.89030457 C-170.61850957 442.31966012 -170.60962287 446.74889643 -170.59323419 451.1782208 C-170.58890092 452.78445199 -170.58795676 454.39069645 -170.59066027 455.9969312 C-170.59380723 458.17303825 -170.58476826 460.34875992 -170.57256222 462.524827 C-170.5706113 463.73570282 -170.56866037 464.94657863 -170.56665033 466.19414765 C-170.31764891 469.18809054 -170.06248052 470.83203818 -168.3125 473.25 C-165.3550709 475.25710236 -162.9237574 475.50205211 -159.39894199 475.51006222 C-158.40477695 475.51712781 -157.41061191 475.5241934 -156.38632065 475.5314731 C-155.2963533 475.52905802 -154.20638595 475.52664293 -153.08338928 475.52415466 C-151.92377054 475.52939134 -150.7641518 475.53462802 -149.5693931 475.54002339 C-146.34999805 475.55244321 -143.13073813 475.55586658 -139.91132367 475.55542648 C-136.4395346 475.55707415 -132.96778535 475.57013955 -129.49601746 475.58161926 C-121.90525217 475.60447031 -114.31451485 475.61238965 -106.72371984 475.61744571 C-101.98514022 475.62070194 -97.24656872 475.62722388 -92.5079937 475.6344471 C-79.39067502 475.65401145 -66.27336391 475.67041719 -53.1560297 475.67332363 C-51.89692475 475.67360499 -51.89692475 475.67360499 -50.61238333 475.67389202 C-48.91068963 475.67425828 -47.20899593 475.67462198 -45.50730223 475.67498314 C-44.24020496 475.67525735 -44.24020496 475.67525735 -42.94750977 475.67553711 C-42.10174873 475.67571766 -41.25598769 475.67589821 -40.38459753 475.67608423 C-26.67265662 475.67962776 -12.96087256 475.70666198 0.75101393 475.744035 C14.82547758 475.78208972 28.89986333 475.80148089 42.9743796 475.80178314 C50.8781544 475.80236828 58.78174198 475.81089641 66.68546867 475.83978081 C73.41380901 475.86425662 80.14189382 475.87160335 86.87026661 475.85653328 C90.30392767 475.84934914 93.73708374 475.85028535 97.17068863 475.87294388 C100.89137365 475.89325089 104.61073923 475.88294121 108.33140564 475.86473083 C109.96301058 475.88453079 109.96301058 475.88453079 111.62757725 475.90473074 C117.66849284 475.84393932 117.66849284 475.84393932 122.85967636 472.92474174 C125.27177314 469.39500517 125.2914051 467.14845929 125.25512695 462.8894043 C125.25585709 462.16690994 125.25658722 461.44441559 125.25733948 460.70002747 C125.25387001 458.32398053 125.21504413 455.94992096 125.17578125 453.57421875 C125.16645072 451.92227754 125.15933574 450.27032245 125.15434265 448.61836243 C125.13529141 444.2795462 125.08620766 439.94157265 125.03082275 435.60308838 C124.97958929 431.17235716 124.95681992 426.7414892 124.93164062 422.31054688 C124.87808628 413.62331207 124.79279726 404.93676099 124.6875 396.25 C121.87301275 397.60290698 119.89967447 398.81902612 117.76953125 401.11328125 C117.24157959 401.66854492 116.71362793 402.22380859 116.16967773 402.79589844 C115.61868408 403.37887695 115.06769043 403.96185547 114.5 404.5625 C107.96916053 411.2891819 101.49439102 416.85817093 91.76953125 417.41796875 C81.91587873 417.47683167 81.91587873 417.47683167 77.0625 415.625 C74.9083072 414.95895012 74.9083072 414.95895012 72.6875 415.25 C69.79110069 417.29902298 67.45067394 419.67599594 64.94921875 422.19140625 C43.57264671 443.10986076 8.39388179 457.20687514 -21.3125 458.25 C-22.24964844 458.28996094 -23.18679687 458.32992188 -24.15234375 458.37109375 C-43.24614129 458.79763062 -63.43115306 454.30349348 -78 441.3125 C-78.60199219 440.72597656 -79.20398438 440.13945312 -79.82421875 439.53515625 C-81.23706103 438.03214395 -81.23706103 438.03214395 -83.3125 438.25 C-83.57546875 437.67121094 -83.8384375 437.09242188 -84.109375 436.49609375 C-85.37310061 434.13686574 -86.82866016 432.34702828 -88.5625 430.3125 C-97.59967742 418.79526557 -102.7369477 402.86402354 -103.3125 388.25 C-103.35246094 387.2909375 -103.39242187 386.331875 -103.43359375 385.34375 C-103.91442404 362.03762277 -97.60798679 336.19465776 -84.91015625 316.453125 C-82.98792754 313.43794095 -82.98792754 313.43794095 -83.87890625 310.6640625 C-84.35199219 309.86742187 -84.82507813 309.07078125 -85.3125 308.25 C-85.77527344 307.35023438 -86.23804687 306.45046875 -86.71484375 305.5234375 C-87.22144531 304.56695312 -87.72804688 303.61046875 -88.25 302.625 C-94.98401934 289.04170915 -97.30973221 272.63566734 -92.4140625 257.92578125 C-85.46529817 241.0466906 -76.07528069 229.05917371 -58.953125 221.83203125 C-43.02338928 216.34380141 -26.30418596 216.74858774 -10.94921875 223.79296875 C2.69151352 231.36730166 12.67803078 242.29281701 17.6875 257.25 C19.38641587 263.40500006 20.04563895 269.2505423 20 275.625 C19.99154053 276.87325562 19.99154053 276.87325562 19.98291016 278.14672852 C19.68356555 293.3555093 13.31769226 307.335578 2.6875 318.25 C-10.5057351 329.48949479 -26.5859291 334.09135622 -43.75390625 333.0390625 C-53.81683587 331.75546378 -62.33980459 327.78259871 -71.3125 323.25 C-80.09885272 340.51030178 -86.8326821 357.77747555 -88.3125 377.25 C-88.38339844 378.10207031 -88.45429687 378.95414062 -88.52734375 379.83203125 C-89.19411559 395.91456808 -84.00424998 412.25946911 -73.3125 424.25 C-72.52939453 425.17232422 -72.52939453 425.17232422 -71.73046875 426.11328125 C-61.29735969 437.56177805 -45.90916885 442.4560642 -30.83203125 443.48828125 C3.57956478 444.17723839 36.36667529 428.00531637 61.09765625 404.796875 C61.62230469 404.28640625 62.14695313 403.7759375 62.6875 403.25 C62.36652344 402.24582031 62.04554688 401.24164063 61.71484375 400.20703125 C59.51116571 392.44048128 59.21784085 383.36275719 62.625 375.9375 C66.24437905 369.75782156 71.22100305 364.2371617 76.63671875 359.5703125 C78.54825207 358.00342836 78.54825207 358.00342836 80.6875 355.25 C80.6875 352.1796491 80.42148231 350.15549196 79.6875 347.25 C77.95134381 339.34794211 77.33270508 331.77126848 77.375 323.6875 C77.38063965 322.54708252 77.3862793 321.40666504 77.39208984 320.23168945 C77.81851372 290.26169032 88.67296739 261.42759195 102.6875 235.25 C103.21512939 234.2607251 103.21512939 234.2607251 103.75341797 233.25146484 C115.54825378 211.31041972 115.54825378 211.31041972 123.2985239 202.39724731 C125.0537538 199.68380055 125.06707448 198.00212002 125.07518005 194.78466797 C125.08508469 193.67428162 125.09498932 192.56389526 125.10519409 191.41986084 C125.09844162 189.59941254 125.09844162 189.59941254 125.09155273 187.7421875 C125.09841599 186.46055725 125.10527924 185.178927 125.11235046 183.85845947 C125.13029331 180.34607056 125.12911164 176.8339313 125.12340808 173.32151031 C125.12031825 170.38898099 125.12640627 167.45649976 125.13244683 164.52397728 C125.14649372 157.60643896 125.14492905 150.68902414 125.13354492 143.77148438 C125.12205925 136.63451903 125.13614622 129.49792927 125.1629414 122.36101341 C125.18508866 116.23265625 125.19173813 110.10441707 125.18586498 103.97602272 C125.18249233 100.31609731 125.18493078 96.65641276 125.20211601 92.996521 C125.22043712 88.91670892 125.20640832 84.83762935 125.18920898 80.7578125 C125.19887695 79.5441803 125.20854492 78.3305481 125.21850586 77.08013916 C125.20867172 75.96975281 125.19883759 74.85936646 125.18870544 73.71533203 C125.18839152 72.26853561 125.18839152 72.26853561 125.18807125 70.79251099 C124.5399223 67.50042053 123.28799709 66.30531551 120.6875 64.25 C117.95102223 63.67398499 117.95102223 63.67398499 114.90917969 63.79589844 C113.16782745 63.79635162 113.16782745 63.79635162 111.39129639 63.79681396 C110.14326233 63.81745911 108.89522827 63.83810425 107.609375 63.859375 C106.32766418 63.86503479 105.04595337 63.87069458 103.72540283 63.87652588 C100.32536372 63.89176532 96.92601306 63.93103084 93.52624512 63.9753418 C90.05404981 64.01633201 86.58174276 64.03454479 83.109375 64.0546875 C76.30180134 64.097528 69.49468376 64.16575788 62.6875 64.25 C62.50864258 65.06331787 62.32978516 65.87663574 62.14550781 66.71459961 C61.89639648 67.78718018 61.64728516 68.85976074 61.390625 69.96484375 C61.14989258 71.02566162 60.90916016 72.08647949 60.66113281 73.17944336 C58.79707776 79.05813454 55.18719403 82.84651577 49.87866211 85.82705688 C44.32833465 88.12529022 38.42868343 87.66722723 32.51953125 87.63818359 C30.54513565 87.64606903 30.54513565 87.64606903 28.53085327 87.65411377 C24.93578604 87.66773953 21.34097835 87.66250851 17.74590683 87.65297651 C13.9748848 87.64535522 10.20388427 87.65243236 6.43286133 87.65713501 C0.10135936 87.66258539 -6.23003745 87.65541984 -12.56152344 87.64111328 C-19.87055101 87.62478809 -27.17932747 87.63007711 -34.48834896 87.6465925 C-40.77561809 87.66022787 -47.06281184 87.66211703 -53.35009098 87.65427649 C-57.1000028 87.64961122 -60.84979678 87.64894343 -64.59970093 87.65888596 C-68.78146111 87.66920001 -72.96279172 87.65488483 -77.14453125 87.63818359 C-78.38006744 87.64425629 -79.61560364 87.65032898 -80.88858032 87.65658569 C-90.32646153 87.58678564 -96.40246603 86.16003397 -103.3125 79.25 C-106.06458969 74.22031883 -106.68220376 69.83014564 -107.3125 64.25 C-114.78823274 64.13399643 -122.26377049 64.04523016 -129.74022198 63.99093914 C-133.21214849 63.96487773 -136.68345792 63.92954613 -140.1550293 63.87280273 C-144.14898499 63.80793166 -148.14229558 63.78379138 -152.13671875 63.76171875 C-154.00102791 63.72300911 -154.00102791 63.72300911 -155.90299988 63.68351746 C-157.06382584 63.6831398 -158.22465179 63.68276215 -159.4206543 63.68237305 C-160.43991501 63.67126999 -161.45917572 63.66016693 -162.50932312 63.64872742 C-166.4274537 64.48915405 -167.79674736 66.17331722 -170.3125 69.25 Z M203.6875 196.25 C201.02210969 200.24808546 200.84600296 203.54751653 201.6875 208.25 C203.95877334 211.27409364 203.95877334 211.27409364 206.6875 213.25 C207.0175 213.58 207.3475 213.91 207.6875 214.25 C212.80945137 214.8566518 212.80945137 214.8566518 217.515625 213.203125 C221.04674708 210.28909222 222.53941206 208.53342882 223.0625 204 C222.56822704 199.05727042 221.14921699 197.71171699 217.6875 194.25 C212.71485622 191.76367811 207.90649606 192.9953459 203.6875 196.25 Z M-70.09375 248.3671875 C-78.13076102 259.02644364 -80.71748533 269.98865887 -79.3125 283.25 C-76.96192398 293.66912628 -70.7885553 303.67673262 -62.3125 310.25 C-51.3056544 317.0066775 -41.07469955 319.5118646 -28.3125 317.25 C-16.14573564 314.11490585 -6.67647445 306.81966331 0.0078125 296.140625 C5.56317991 285.52370062 6.57872662 273.50916292 3.1875 262 C-1.40995287 249.98834495 -9.71437354 241.46111179 -21.25390625 236.0625 C-38.26534032 229.3483097 -58.28398571 234.3301431 -70.09375 248.3671875 Z M264.6875 259.25 C263.00149777 262.16218567 262.67982592 263.88164419 262.75 267.25 C263.9282389 271.02036448 265.71195419 272.70989992 268.6875 275.25 C271.55358129 276.68304064 273.50050783 276.55644155 276.6875 276.25 C279.70083109 274.62743711 281.94882782 273.14925309 284.125 270.5 C285.02125314 266.91498744 284.84753788 263.71638537 283.6875 260.25 C281.23924675 257.38375229 279.43872265 255.63650031 275.6875 254.80859375 C270.74952238 254.51867461 267.98442644 255.66216829 264.6875 259.25 Z M88.6875 370.25 C86.7052733 372.20531865 84.72664884 374.16405666 82.75 376.125 C82.18603516 376.68058594 81.62207031 377.23617188 81.04101562 377.80859375 C77.35783408 381.46972032 75.54231694 383.32198106 75.375 388.5 C75.43477505 393.14750989 76.5616231 395.7017073 79.6875 399.25 C82.58738368 401.60125704 84.34690197 402.2058484 88.0625 402.6875 C96.84288963 401.6277978 101.89344035 395.398798 107.6875 389.25 C106.96691406 388.69183594 106.24632812 388.13367188 105.50390625 387.55859375 C102.71199368 385.27007734 100.17291508 382.86829117 97.625 380.3125 C96.37009766 379.06146484 96.37009766 379.06146484 95.08984375 377.78515625 C92.80183742 375.37065851 90.72350075 372.87846286 88.6875 370.25 Z " fill="#000000" transform="translate(193.3125,13.75)"/>
<path d="M0 0 C1.45259602 -0.00935994 1.45259602 -0.00935994 2.93453741 -0.01890898 C6.18825273 -0.03489821 9.44122505 -0.02221125 12.69494629 -0.00964355 C15.02399636 -0.01506202 17.35304301 -0.02218312 19.68208313 -0.03088379 C26.01464264 -0.04915267 32.34694212 -0.04203475 38.6795063 -0.02936745 C44.6282295 -0.0202823 50.57692023 -0.02720836 56.52564424 -0.03307623 C69.02567116 -0.04448512 81.52558077 -0.03136353 94.02558845 -0.00987476 C104.75348653 0.00799655 115.48121149 0.00489253 126.20910645 -0.0135498 C138.66409294 -0.03495112 151.11897659 -0.04338645 163.5739789 -0.03110075 C170.16815124 -0.02485641 176.76220429 -0.02405611 183.35636902 -0.0372467 C189.55505464 -0.04877951 195.75341249 -0.04082617 201.95206261 -0.01766968 C204.23053632 -0.01236888 206.5090375 -0.01391964 208.78750038 -0.02272034 C211.8910172 -0.03360497 214.99347501 -0.01999737 218.09692383 0 C219.00469873 -0.00892289 219.91247363 -0.01784577 220.84775686 -0.02703905 C226.91992198 0.04917509 226.91992198 0.04917509 230.08058929 2.35608673 C232.00387099 5.1755477 232.4788204 7.09550034 232.54846191 10.50793457 C230.41802713 15.07315196 230.41802713 15.07315196 227.54846191 16.50793457 C224.48573056 16.61286083 221.44538697 16.65572686 218.38212585 16.65510559 C217.42022648 16.65878228 216.4583271 16.66245897 215.46727926 16.66624707 C212.22374565 16.67731574 208.98024404 16.68113311 205.73669434 16.68493652 C203.41941729 16.69119871 201.10214126 16.69784529 198.78486633 16.70484924 C192.47493642 16.72228035 186.1650141 16.73281648 179.85506606 16.74105477 C175.9161915 16.7461998 171.97731931 16.75227572 168.03844643 16.7585659 C157.13614127 16.7754378 146.23383904 16.79007329 135.33152294 16.79731464 C132.50173631 16.79922458 129.67194969 16.80114491 126.84216309 16.80310059 C125.78714929 16.8038262 125.78714929 16.8038262 124.71082208 16.80456647 C113.31379069 16.8128691 101.91686417 16.83820976 90.51987859 16.87068126 C78.82302875 16.90373588 67.12623765 16.92142902 55.42934114 16.92495888 C48.86023062 16.92731415 42.29128586 16.93633664 35.72221947 16.96142006 C29.54411655 16.98462914 23.36628936 16.98896282 17.18815422 16.97865868 C14.91815018 16.97816148 12.64813289 16.98453568 10.37817001 16.99821472 C7.2836956 17.01582189 4.19022276 17.00888227 1.0957489 16.99568176 C0.19341355 17.00665101 -0.7089218 17.01762025 -1.63860065 17.0289219 C-5.78589272 16.98608689 -7.91293396 16.84361262 -11.50893688 14.60245037 C-13.60488863 12.34259176 -14.11459041 11.53633396 -14.01403809 8.50793457 C-14.01532715 7.84793457 -14.01661621 7.18793457 -14.01794434 6.50793457 C-12.00893845 -0.5859345 -6.13000389 -0.06025429 0 0 Z " fill="#000000" transform="translate(61.4515380859375,193.4920654296875)"/>
<path d="M0 0 C0.81800422 -0.00445784 1.63600843 -0.00891569 2.47880065 -0.01350862 C3.82629982 -0.01323207 3.82629982 -0.01323207 5.20102119 -0.01294994 C6.63290124 -0.01846498 6.63290124 -0.01846498 8.09370816 -0.02409142 C11.30649668 -0.03514344 14.51925287 -0.03897464 17.73205757 -0.04278088 C20.02977794 -0.04904425 22.32749729 -0.05569094 24.62521553 -0.0626936 C30.8772368 -0.08011204 37.12925043 -0.09065713 43.38128996 -0.09889913 C47.28449035 -0.10404625 51.18768836 -0.11012204 55.09088707 -0.11641026 C65.8962973 -0.13327888 76.70170459 -0.14791496 87.50712585 -0.155159 C90.31061873 -0.15706889 93.1141116 -0.15898923 95.91760445 -0.16094494 C96.61440025 -0.16142868 97.31119605 -0.16191242 98.02910687 -0.16241082 C109.3226107 -0.1707153 120.61600875 -0.19606047 131.90946637 -0.22852562 C143.50238676 -0.26158024 155.09524789 -0.2792733 166.68821537 -0.28280324 C173.19806682 -0.28515828 179.70775099 -0.29417811 186.21755791 -0.31926441 C192.3390413 -0.34247341 198.4602464 -0.34680722 204.58176231 -0.33650303 C206.83080404 -0.33600585 209.07985915 -0.3423795 211.32885933 -0.35605907 C214.3948194 -0.37366735 217.4597687 -0.36672615 220.52572823 -0.35352612 C221.86653523 -0.36997998 221.86653523 -0.36997998 223.23442924 -0.38676625 C227.31572734 -0.34422454 229.46367656 -0.18691162 233.01939774 1.98111153 C235.55816492 4.75450224 235.99035835 6.38864676 235.99035835 10.13422108 C233.85992357 14.69943847 233.85992357 14.69943847 230.99035835 16.13422108 C227.91276534 16.23916334 224.85745123 16.28201326 221.7793293 16.2813921 C220.8126408 16.28506879 219.84595231 16.28874547 218.84997022 16.29253358 C215.59028312 16.30360231 212.33062787 16.30741962 209.07092476 16.31122303 C206.74217311 16.31748517 204.41342246 16.32413174 202.08467293 16.33113575 C195.74381939 16.34856634 189.40297341 16.35910266 183.06210184 16.36734128 C179.10447399 16.37248601 175.14684851 16.37856191 171.18922234 16.38485241 C160.23630312 16.40172359 149.283386 16.41635953 138.33045578 16.42360115 C135.48759777 16.42551111 132.64473977 16.42743143 129.80188179 16.42938709 C129.09528633 16.42987083 128.38869088 16.43035457 127.66068344 16.43085297 C116.20801128 16.43915765 104.75544341 16.46450212 93.30281682 16.49696777 C81.55060311 16.53001175 69.79844246 16.54804744 58.04618204 16.55124539 C51.4452457 16.5536016 44.84447424 16.56263628 38.24358177 16.58770657 C32.03675517 16.61089918 25.83020303 16.61525605 19.62334442 16.60494518 C17.34163249 16.6044476 15.05990744 16.61083315 12.77823639 16.62450123 C9.67027554 16.64208175 6.56331457 16.63518216 3.45535469 16.62196827 C2.54621555 16.63293752 1.63707641 16.64390676 0.7003876 16.65520841 C-5.36071151 16.59271902 -5.36071151 16.59271902 -8.57386017 14.32248688 C-10.67155126 11.12540867 -10.47700578 8.87313412 -10.00964165 5.13422108 C-7.57971237 0.73720619 -4.82144996 0.01219754 0 0 Z " fill="#000000" transform="translate(58.00964164733887,159.86577892303467)"/>
<path d="M0 0 C1.55415619 -0.01475121 1.55415619 -0.01475121 3.13970947 -0.02980042 C4.27075607 -0.02013245 5.40180267 -0.01046448 6.56712341 -0.00050354 C8.36030502 -0.00860802 8.36030502 -0.00860802 10.18971252 -0.01687622 C13.46459911 -0.02723916 16.73882941 -0.01966302 20.01367307 -0.00316501 C23.44091274 0.01069011 26.86812206 0.00422502 30.29537964 0.0007019 C36.04962123 -0.00199951 41.80365413 0.01147046 47.55784607 0.03465271 C54.21196251 0.06127484 60.86573032 0.06300539 67.51988178 0.05126435 C73.92074965 0.04048908 80.32149132 0.04667078 86.72234917 0.06081963 C89.44679177 0.0665804 92.17114205 0.06649611 94.89558601 0.06175423 C98.697773 0.05885407 102.49938407 0.07529226 106.30149841 0.09715271 C107.43456924 0.09265106 108.56764008 0.08814941 109.73504639 0.08351135 C110.76833069 0.09341599 111.80161499 0.10332062 112.86621094 0.11352539 C114.2148364 0.11717023 114.2148364 0.11717023 115.59070683 0.12088871 C118.35999028 0.58304224 119.21644271 1.26309793 120.86961365 3.50120544 C121.80711365 6.87620544 121.80711365 6.87620544 121.86961365 10.50120544 C119.78336025 13.92862173 118.69518254 15.22601581 114.86961365 16.50120544 C113.26950302 16.5968817 111.66571832 16.63610873 110.0627594 16.64164734 C109.07299103 16.64735748 108.08322266 16.65306763 107.0634613 16.65895081 C105.43634216 16.66062759 105.43634216 16.66062759 103.77635193 16.66233826 C102.63302399 16.66730316 101.48969604 16.67226807 100.3117218 16.67738342 C96.52111718 16.69201516 92.73055439 16.69880839 88.93992615 16.70433044 C86.31060281 16.7100806 83.68127948 16.71583835 81.05195618 16.72160339 C76.24097932 16.73117339 71.43001151 16.73707117 66.6190263 16.74010015 C59.54079894 16.74458125 52.46276465 16.76213314 45.38459599 16.79110074 C39.25127297 16.81532927 33.11802964 16.82304478 26.9846611 16.8247757 C24.37632572 16.82780659 21.76799123 16.83584974 19.15968704 16.84896088 C15.51352993 16.86598212 11.86784496 16.86415053 8.22166443 16.85765076 C6.60061798 16.87147293 6.60061798 16.87147293 4.94682312 16.88557434 C-4.27719367 16.8339674 -4.27719367 16.8339674 -8.13038635 13.50120544 C-9.67625511 10.40946793 -9.42398157 7.90690992 -9.13038635 4.50120544 C-6.34370961 0.90035738 -4.50686803 0.00104864 0 0 Z " fill="#000000" transform="translate(57.13038635253906,126.49879455566406)"/>
<path d="M0 0 C6.48263367 4.7920906 10.04465673 11.15937867 11.34375 19.1015625 C11.68961948 26.33599919 9.34113041 32.72724643 4.875 38.3125 C-0.54716431 43.983699 -6.14086442 46.17266822 -13.9375 46.5625 C-21.73771678 46.26440254 -28.05230003 43.42629186 -33.4375 37.75 C-37.86349884 31.98240945 -39.77386208 25.22271275 -39 18 C-37.4176375 10.14520957 -33.63080466 4.15534674 -26.96484375 -0.38671875 C-18.81379738 -4.60277722 -7.96438205 -4.81647294 0 0 Z M-22 17 C-23.25329784 19.85289698 -23.25329784 19.85289698 -23 23 C-20.75278859 27.2420814 -20.75278859 27.2420814 -17 30 C-13.28711536 30.41254274 -11.45378496 30.26218686 -8.1875 28.375 C-5.51002044 25.4680222 -5 23.93559391 -5 20 C-6.60411848 16.47093933 -7.74159362 15.17227092 -11 13 C-16.04236748 12.34229989 -18.54744918 13.25151625 -22 17 Z " fill="#000000" transform="translate(170,268)"/>
</svg>
