<?xml version="1.0" encoding="UTF-8"?>
<!DOCTYPE svg PUBLIC "-//W3C//DTD SVG 1.1//EN" "http://www.w3.org/Graphics/SVG/1.1/DTD/svg11.dtd">
<svg xmlns="http://www.w3.org/2000/svg" version="1.1" width="512px" height="512px" style="shape-rendering:geometricPrecision; text-rendering:geometricPrecision; image-rendering:optimizeQuality; fill-rule:evenodd; clip-rule:evenodd" xmlns:xlink="http://www.w3.org/1999/xlink">
<g><path style="opacity:0.925" fill="#000000" d="M 344.5,31.5 C 381.333,27.7775 412.999,38.6109 439.5,64C 435.333,68.1667 431.167,72.3333 427,76.5C 396.999,48.3797 362.499,41.213 323.5,55C 311.354,59.8217 300.854,66.9883 292,76.5C 287.833,72.3333 283.667,68.1667 279.5,64C 297.712,46.2274 319.378,35.3941 344.5,31.5 Z"/></g>
<g><path style="opacity:0.962" fill="#000000" d="M 64.5,55.5 C 117.168,55.3333 169.834,55.5 222.5,56C 230.667,58.8333 236.167,64.3333 239,72.5C 239.5,106.832 239.667,141.165 239.5,175.5C 266.474,175.49 290.474,183.824 311.5,200.5C 348.131,172.98 387.798,167.813 430.5,185C 477.516,209.427 499.016,248.261 495,301.5C 490.177,328.974 479.01,353.474 461.5,375C 470.16,375.5 478.827,375.666 487.5,375.5C 487.5,380.833 487.5,386.167 487.5,391.5C 474.163,391.333 460.829,391.5 447.5,392C 412.631,431.263 370.965,460.93 322.5,481C 310.193,484 298.527,482.334 287.5,476C 245.076,454.925 207.742,426.925 175.5,392C 162.171,391.5 148.837,391.333 135.5,391.5C 135.5,386.167 135.5,380.833 135.5,375.5C 144.173,375.666 152.84,375.5 161.5,375C 155.912,367.908 150.912,360.408 146.5,352.5C 137.167,351.167 127.833,351.167 118.5,352.5C 115.884,355.624 113.884,359.124 112.5,363C 117.537,401.464 122.371,439.964 127,478.5C 127.888,483.618 127.555,488.618 126,493.5C 125.25,494.126 124.416,494.626 123.5,495C 91.5,495.667 59.5,495.667 27.5,495C 25.6667,494.5 24.5,493.333 24,491.5C 23.3333,486.833 23.3333,482.167 24,477.5C 28.0935,439.659 32.2601,401.825 36.5,364C 35.2408,350.984 30.0741,339.817 21,330.5C 18.7813,326.729 17.1146,322.729 16,318.5C 15.3333,285.5 15.3333,252.5 16,219.5C 26.3333,193.5 36.6667,167.5 47,141.5C 47.3333,118.5 47.6667,95.5 48,72.5C 51.0191,64.3156 56.5191,58.649 64.5,55.5 Z M 71.5,71.5 C 119.501,71.3333 167.501,71.5 215.5,72C 220,72.5 222.5,75 223,79.5C 223.992,163.223 223.658,246.89 222,330.5C 220.661,333.094 218.494,334.594 215.5,335C 185.828,335.833 156.161,335.667 126.5,334.5C 127.99,324.11 127.657,313.777 125.5,303.5C 151.502,303.667 177.502,303.5 203.5,303C 205.333,302.5 206.5,301.333 207,299.5C 207.667,230.167 207.667,160.833 207,91.5C 206.5,89.6667 205.333,88.5 203.5,88C 163.5,87.3333 123.5,87.3333 83.5,88C 82.5838,88.3742 81.7504,88.8742 81,89.5C 79.6757,139.75 79.009,190.084 79,240.5C 77.172,242.081 75.172,243.415 73,244.5C 70,241.5 67,238.5 64,235.5C 63.3333,183.5 63.3333,131.5 64,79.5C 64.6804,74.9895 67.1804,72.3228 71.5,71.5 Z M 95.5,103.5 C 127.5,103.5 159.5,103.5 191.5,103.5C 191.5,164.833 191.5,226.167 191.5,287.5C 165.684,287.99 140.018,287.49 114.5,286C 120.126,276.582 125.626,267.082 131,257.5C 134.312,246.026 131.146,236.86 121.5,230C 113.056,225.207 104.722,225.374 96.5,230.5C 95.5001,188.172 95.1667,145.839 95.5,103.5 Z M 138.5,152.5 C 155.765,152.257 161.598,160.257 156,176.5C 149.749,183.011 142.582,184.177 134.5,180C 127.989,173.749 126.823,166.582 131,158.5C 133.114,155.879 135.614,153.879 138.5,152.5 Z M 46.5,187.5 C 47.3317,205.662 47.8317,223.995 48,242.5C 52.9067,250.408 59.4067,256.575 67.5,261C 71.1667,261.667 74.8333,261.667 78.5,261C 88.8653,255.153 99.1986,249.319 109.5,243.5C 112.716,244.549 114.716,246.716 115.5,250C 109.799,259.9 103.966,269.733 98,279.5C 95.1859,284.006 94.8526,288.673 97,293.5C 110.118,304.518 114.118,318.185 109,334.5C 105.73,340.764 102.064,346.764 98,352.5C 96.9127,355.936 96.0793,359.436 95.5,363C 100.619,401.786 105.286,440.619 109.5,479.5C 86.8333,479.5 64.1667,479.5 41.5,479.5C 45.2428,440.981 49.2428,402.481 53.5,364C 53.0056,355.523 51.1723,347.357 48,339.5C 42.573,331.745 37.573,323.745 33,315.5C 31.3906,285.864 31.0573,256.197 32,226.5C 36.8472,213.478 41.6806,200.478 46.5,187.5 Z M 239.5,191.5 C 265.09,192.193 287.09,201.359 305.5,219C 309.5,221 313.5,221 317.5,219C 346.315,192.883 379.315,185.883 416.5,198C 450.901,212.292 471.401,237.792 478,274.5C 480.334,294.826 477.001,314.159 468,332.5C 460.111,347.787 450.611,361.954 439.5,375C 420.503,375.5 401.503,375.667 382.5,375.5C 377.995,340.466 373.162,305.466 368,270.5C 367.403,265.452 364.57,263.118 359.5,263.5C 354.43,263.118 351.597,265.452 351,270.5C 340.454,313.684 329.454,356.684 318,399.5C 308,369.5 298,339.5 288,309.5C 285.646,303.905 281.479,302.072 275.5,304C 274.584,304.374 273.75,304.874 273,305.5C 262.355,328.623 251.855,351.789 241.5,375C 222.167,375.667 202.833,375.667 183.5,375C 177.345,367.689 171.679,360.023 166.5,352C 185.167,351.667 203.833,351.333 222.5,351C 229.519,348.649 234.686,344.149 238,337.5C 239.486,288.893 239.986,240.226 239.5,191.5 Z M 356.5,316.5 C 360.494,338.946 363.994,361.613 367,384.5C 367.406,387.494 368.906,389.661 371.5,391C 388.833,391.333 406.167,391.667 423.5,392C 392.705,423.459 357.039,447.793 316.5,465C 313.167,465.667 309.833,465.667 306.5,465C 265.961,447.793 230.295,423.459 199.5,392C 217.59,391.974 235.59,391.307 253.5,390C 262.05,372.353 270.217,354.519 278,336.5C 289.384,368.651 300.384,400.985 311,433.5C 313.354,439.095 317.521,440.928 323.5,439C 326.094,437.661 327.594,435.494 328,432.5C 337.819,393.892 347.319,355.225 356.5,316.5 Z"/></g>
<g><path style="opacity:0.929" fill="#000000" d="M 346.5,63.5 C 373.51,60.3927 396.843,68.0594 416.5,86.5C 412.833,90.8333 408.833,94.8333 404.5,98.5C 374.5,73.1667 344.5,73.1667 314.5,98.5C 310.167,94.8333 306.167,90.8333 302.5,86.5C 314.995,74.5867 329.662,66.92 346.5,63.5 Z"/></g>
<g><path style="opacity:0.922" fill="#000000" d="M 349.5,95.5 C 361.396,94.1563 372.73,95.9897 383.5,101C 387.431,103.132 390.764,105.965 393.5,109.5C 389.849,113.652 386.016,117.652 382,121.5C 372.338,112.645 361.172,110.145 348.5,114C 344.127,115.713 340.293,118.213 337,121.5C 332.984,117.652 329.151,113.652 325.5,109.5C 332.027,102.239 340.027,97.572 349.5,95.5 Z"/></g>
<g><path style="opacity:0.936" fill="#000000" d="M 353.5,127.5 C 372.778,126.61 379.278,135.276 373,153.5C 366.055,160.069 358.222,161.236 349.5,157C 342.931,150.055 341.764,142.222 346,133.5C 348.114,130.879 350.614,128.879 353.5,127.5 Z"/></g>
<g><path style="opacity:0.93" fill="#000000" d="M 135.5,135.5 C 163.978,133.811 177.145,147.144 175,175.5C 168.645,194.438 155.478,202.272 135.5,199C 116.562,192.645 108.728,179.478 112,159.5C 115.349,146.985 123.182,138.985 135.5,135.5 Z M 138.5,152.5 C 135.614,153.879 133.114,155.879 131,158.5C 126.823,166.582 127.989,173.749 134.5,180C 142.582,184.177 149.749,183.011 156,176.5C 161.598,160.257 155.765,152.257 138.5,152.5 Z"/></g>
</svg>
