<?xml version="1.0" encoding="UTF-8"?>
<!DOCTYPE svg PUBLIC "-//W3C//DTD SVG 1.1//EN" "http://www.w3.org/Graphics/SVG/1.1/DTD/svg11.dtd">
<svg xmlns="http://www.w3.org/2000/svg" version="1.1" width="512px" height="512px" style="shape-rendering:geometricPrecision; text-rendering:geometricPrecision; image-rendering:optimizeQuality; fill-rule:evenodd; clip-rule:evenodd" xmlns:xlink="http://www.w3.org/1999/xlink">
<g><path style="opacity:0.964" fill="#000000" d="M 70.5,31.5 C 94.9458,28.6909 116.612,35.0242 135.5,50.5C 157.277,32.477 181.944,26.977 209.5,34C 239.414,44.0231 257.081,64.5231 262.5,95.5C 318.834,95.3333 375.168,95.5 431.5,96C 444,99.1667 451.833,107 455,119.5C 455.5,170.166 455.667,220.832 455.5,271.5C 465.839,271.334 476.172,271.5 486.5,272C 500.482,277.457 505.982,287.624 503,302.5C 496.95,316.781 486.117,322.614 470.5,320C 472.719,328.448 471.386,336.281 466.5,343.5C 473.167,354.167 473.167,364.833 466.5,375.5C 472.947,385.745 473.113,396.079 467,406.5C 464.129,410.016 460.629,412.683 456.5,414.5C 455.668,422.813 455.168,431.147 455,439.5C 451.833,452 444,459.833 431.5,463C 372.833,463.667 314.167,463.667 255.5,463C 243,459.833 235.167,452 232,439.5C 231.5,431.507 231.334,423.507 231.5,415.5C 200.412,413.311 170.745,405.645 142.5,392.5C 113.606,401.576 84.6064,410.243 55.5,418.5C 55.5,365.833 55.5,313.167 55.5,260.5C 84.6064,268.757 113.606,277.424 142.5,286.5C 160.833,277.333 179.167,268.167 197.5,259C 208.301,255.494 219.301,254.66 230.5,256.5C 231.666,236.508 231.833,216.508 231,196.5C 224.5,204.333 217.333,211.5 209.5,218C 195.5,227.667 181.5,237.333 167.5,247C 146.167,258.333 124.833,258.333 103.5,247C 87.8333,236 72.1667,225 56.5,214C 15.7522,177.685 0.918868,132.852 12,79.5C 23.5213,53.6707 43.0213,37.6707 70.5,31.5 Z M 82.5,47.5 C 96.5604,48.1309 109.227,52.6309 120.5,61C 125.348,66.0151 130.348,70.8485 135.5,75.5C 141.683,69.4826 148.017,63.6493 154.5,58C 186.625,40.7423 214.125,46.2423 237,74.5C 241.689,82.0491 244.855,90.2157 246.5,99C 232.488,110.533 227.488,125.366 231.5,143.5C 217.588,143.823 203.754,143.49 190,142.5C 183,118.167 176,93.8333 169,69.5C 154.951,104.309 141.284,139.309 128,174.5C 122.676,161.2 117.342,147.867 112,134.5C 109.713,131.538 106.88,129.371 103.5,128C 97.8042,127.83 92.1376,127.33 86.5,126.5C 77.887,111.131 65.5537,107.297 49.5,115C 38.7566,124.791 36.59,136.291 43,149.5C 51.1343,159.366 61.301,162.199 73.5,158C 79.361,154.972 83.6943,150.472 86.5,144.5C 90.1667,143.167 93.8333,143.167 97.5,144.5C 107.306,170.588 117.306,196.588 127.5,222.5C 140.429,189.549 153.262,156.549 166,123.5C 169.051,131.991 171.718,140.658 174,149.5C 175.833,154 179,157.167 183.5,159C 199.497,159.5 215.497,159.667 231.5,159.5C 231.911,163.463 231.078,167.13 229,170.5C 222.635,180.538 215.135,189.705 206.5,198C 190.343,209.912 174.009,221.579 157.5,233C 144.467,239.481 131.134,240.148 117.5,235C 101.559,224.724 85.8927,214.058 70.5,203C 37.1235,175.401 21.9569,139.901 25,96.5C 33.0588,66.9291 52.2255,50.5958 82.5,47.5 Z M 263.5,111.5 C 274.167,111.5 284.833,111.5 295.5,111.5C 295.334,118.841 295.5,126.174 296,133.5C 297.833,138 301,141.167 305.5,143C 325.5,143.667 345.5,143.667 365.5,143C 370,141.167 373.167,138 375,133.5C 375.5,126.174 375.666,118.841 375.5,111.5C 391.503,111.333 407.503,111.5 423.5,112C 432.667,113.167 437.833,118.333 439,127.5C 439.5,138.161 439.667,148.828 439.5,159.5C 375.5,159.5 311.5,159.5 247.5,159.5C 247.106,147.114 247.606,134.78 249,122.5C 251.821,116.023 256.655,112.356 263.5,111.5 Z M 311.5,111.5 C 327.5,111.5 343.5,111.5 359.5,111.5C 359.5,116.833 359.5,122.167 359.5,127.5C 343.5,127.5 327.5,127.5 311.5,127.5C 311.5,122.167 311.5,116.833 311.5,111.5 Z M 60.5,128.5 C 69.8504,128.365 72.517,132.532 68.5,141C 59.9562,144.322 56.1229,141.489 57,132.5C 57.6897,130.65 58.8564,129.316 60.5,128.5 Z M 247.5,175.5 C 311.5,175.5 375.5,175.5 439.5,175.5C 439.5,218.167 439.5,260.833 439.5,303.5C 425.792,300.779 415.625,305.446 409,317.5C 406.159,326.769 407.325,335.436 412.5,343.5C 405.833,354.167 405.833,364.833 412.5,375.5C 411.167,377.833 409.833,380.167 408.5,382.5C 354.837,383.5 301.171,383.833 247.5,383.5C 247.168,371.482 247.501,359.482 248.5,347.5C 266.127,355.802 280.627,352.135 292,336.5C 296.827,325.741 296.66,315.075 291.5,304.5C 298.134,303.503 304.8,303.17 311.5,303.5C 306.498,329.832 317.165,340.498 343.5,335.5C 369.835,340.498 380.502,329.832 375.5,303.5C 401.832,308.502 412.498,297.835 407.5,271.5C 412.498,245.165 401.832,234.498 375.5,239.5C 380.502,213.168 369.835,202.502 343.5,207.5C 317.165,202.502 306.498,213.168 311.5,239.5C 304.159,239.334 296.826,239.5 289.5,240C 285,241.833 281.833,245 280,249.5C 279.667,263.167 279.333,276.833 279,290.5C 269.729,280.223 259.562,271.057 248.5,263C 247.505,233.907 247.171,204.74 247.5,175.5 Z M 327.5,223.5 C 338.167,223.5 348.833,223.5 359.5,223.5C 359.5,234.167 359.5,244.833 359.5,255.5C 370.167,255.5 380.833,255.5 391.5,255.5C 391.5,266.167 391.5,276.833 391.5,287.5C 380.833,287.5 370.167,287.5 359.5,287.5C 359.5,298.167 359.5,308.833 359.5,319.5C 348.833,319.5 338.167,319.5 327.5,319.5C 327.5,308.833 327.5,298.167 327.5,287.5C 316.833,287.5 306.167,287.5 295.5,287.5C 295.5,276.833 295.5,266.167 295.5,255.5C 306.167,255.5 316.833,255.5 327.5,255.5C 327.5,244.833 327.5,234.167 327.5,223.5 Z M 210.5,272.5 C 222.442,271.07 233.442,273.57 243.5,280C 255.731,291.562 267.231,303.729 278,316.5C 278.582,332.298 271.415,337.465 256.5,332C 248.137,323.303 239.47,314.969 230.5,307C 228.5,306 226.5,305 224.5,304C 216.173,303.5 207.84,303.334 199.5,303.5C 199.5,308.833 199.5,314.167 199.5,319.5C 206.574,319.161 213.574,319.661 220.5,321C 224,324.5 227.5,328 231,331.5C 231.5,353.831 231.667,376.164 231.5,398.5C 203.712,396.262 177.212,389.262 152,377.5C 151.167,351.827 151.334,326.16 152.5,300.5C 171.691,290.569 191.024,281.236 210.5,272.5 Z M 71.5,282.5 C 92.6416,289.452 113.975,295.786 135.5,301.5C 135.5,326.833 135.5,352.167 135.5,377.5C 114.167,383.5 92.8333,389.5 71.5,395.5C 71.5,357.833 71.5,320.167 71.5,282.5 Z M 455.5,287.5 C 463.507,287.334 471.507,287.5 479.5,288C 486.347,289.866 488.18,294.032 485,300.5C 483.352,301.717 481.519,302.55 479.5,303C 471.507,303.5 463.507,303.666 455.5,303.5C 455.5,298.167 455.5,292.833 455.5,287.5 Z M 431.5,319.5 C 436.844,319.334 442.177,319.501 447.5,320C 454.347,321.866 456.18,326.032 453,332.5C 448.858,334.921 444.358,335.921 439.5,335.5C 434.93,335.78 430.596,334.946 426.5,333C 422.785,326.362 424.452,321.862 431.5,319.5 Z M 431.5,351.5 C 436.844,351.334 442.177,351.501 447.5,352C 454.347,353.866 456.18,358.032 453,364.5C 448.858,366.921 444.358,367.921 439.5,367.5C 434.93,367.78 430.596,366.946 426.5,365C 422.785,358.362 424.452,353.862 431.5,351.5 Z M 431.5,383.5 C 436.844,383.334 442.177,383.501 447.5,384C 454.347,385.866 456.18,390.032 453,396.5C 448.858,398.921 444.358,399.921 439.5,399.5C 434.93,399.78 430.596,398.946 426.5,397C 422.785,390.362 424.452,385.862 431.5,383.5 Z M 247.5,399.5 C 301.171,399.167 354.837,399.5 408.5,400.5C 414.95,413.224 425.284,418.224 439.5,415.5C 439.666,420.844 439.499,426.177 439,431.5C 437.833,440.667 432.667,445.833 423.5,447C 370.167,447.667 316.833,447.667 263.5,447C 256.434,446.553 251.601,443.053 249,436.5C 247.606,424.22 247.106,411.886 247.5,399.5 Z"/></g>
<g><path style="opacity:1" fill="#000000" d="M 311.5,415.5 C 332.833,415.5 354.167,415.5 375.5,415.5C 375.5,420.833 375.5,426.167 375.5,431.5C 354.167,431.5 332.833,431.5 311.5,431.5C 311.5,426.167 311.5,420.833 311.5,415.5 Z"/></g>
</svg>
