<?xml version="1.0" encoding="UTF-8"?>
<!DOCTYPE svg PUBLIC "-//W3C//DTD SVG 1.1//EN" "http://www.w3.org/Graphics/SVG/1.1/DTD/svg11.dtd">
<svg xmlns="http://www.w3.org/2000/svg" version="1.1" width="512px" height="512px" style="shape-rendering:geometricPrecision; text-rendering:geometricPrecision; image-rendering:optimizeQuality; fill-rule:evenodd; clip-rule:evenodd" xmlns:xlink="http://www.w3.org/1999/xlink">
<g><path style="opacity:0.951" fill="#000000" d="M 511.5,171.5 C 511.5,174.167 511.5,176.833 511.5,179.5C 502.733,193.519 494.067,207.686 485.5,222C 482.298,223.483 478.964,223.817 475.5,223C 469.167,219.167 462.833,215.333 456.5,211.5C 455.667,291.165 455.167,370.831 455,450.5C 449.556,472.589 436.056,487.089 414.5,494C 392.048,495.146 369.548,495.646 347,495.5C 325.833,495.333 304.667,495.167 283.5,495C 280.484,493.471 279.151,490.971 279.5,487.5C 279.151,484.029 280.484,481.529 283.5,480C 324.859,479.954 366.192,479.287 407.5,478C 427.099,472.647 437.599,459.813 439,439.5C 439.667,360.167 439.667,280.833 439,201.5C 377.917,164.041 316.75,126.708 255.5,89.5C 194.25,126.708 133.083,164.041 72,201.5C 71.3333,280.833 71.3333,360.167 72,439.5C 73.4013,459.813 83.9013,472.647 103.5,478C 144.808,479.287 186.141,479.954 227.5,480C 230.516,481.529 231.849,484.029 231.5,487.5C 231.849,490.971 230.516,493.471 227.5,495C 185.167,495.667 142.833,495.667 100.5,495C 76.3333,489.5 61.5,474.667 56,450.5C 55.8333,370.831 55.3333,291.165 54.5,211.5C 48.2981,215.532 41.9648,219.365 35.5,223C 32.0357,223.817 28.7024,223.483 25.5,222C 16.9334,207.686 8.26671,193.519 -0.5,179.5C -0.5,176.833 -0.5,174.167 -0.5,171.5C 0.674125,169.559 2.34079,168.059 4.5,167C 85.667,117.584 166.667,67.9176 247.5,18C 252.833,14.6667 258.167,14.6667 263.5,18C 341.666,66.2509 420,114.251 498.5,162C 503.294,164.711 507.627,167.878 511.5,171.5 Z M 254.5,33.5 C 333.611,81.5601 412.611,129.893 491.5,178.5C 486.834,187.169 481.668,195.502 476,203.5C 405.25,160.208 334.417,117.041 263.5,74C 258.167,70.6667 252.833,70.6667 247.5,74C 176.583,117.041 105.75,160.208 35,203.5C 29.3322,195.502 24.1656,187.169 19.5,178.5C 98.0647,130.392 176.398,82.0588 254.5,33.5 Z M 182.5,191.5 C 194.337,192.279 205.337,195.779 215.5,202C 226.465,211.811 237.798,221.144 249.5,230C 253.5,232 257.5,232 261.5,230C 272.176,221.65 282.509,212.984 292.5,204C 326.988,183.899 356.155,190.066 380,222.5C 387.73,235.087 391.23,248.754 390.5,263.5C 389.614,306.767 372.948,342.6 340.5,371C 312.314,395.354 283.98,419.521 255.5,443.5C 227.02,419.521 198.686,395.354 170.5,371C 129.309,334.094 114.143,288.594 125,234.5C 135.878,208.836 155.044,194.503 182.5,191.5 Z M 239.5,263.5 C 250.167,263.5 260.833,263.5 271.5,263.5C 271.039,276.266 271.539,288.933 273,301.5C 273.75,302.126 274.584,302.626 275.5,303C 287.495,303.5 299.495,303.667 311.5,303.5C 311.5,314.167 311.5,324.833 311.5,335.5C 298.734,335.039 286.067,335.539 273.5,337C 272.874,337.75 272.374,338.584 272,339.5C 271.5,351.495 271.333,363.495 271.5,375.5C 260.833,375.5 250.167,375.5 239.5,375.5C 239.961,362.734 239.461,350.067 238,337.5C 237.25,336.874 236.416,336.374 235.5,336C 223.505,335.5 211.505,335.333 199.5,335.5C 199.5,324.833 199.5,314.167 199.5,303.5C 212.266,303.961 224.933,303.461 237.5,302C 238.126,301.25 238.626,300.416 239,299.5C 239.5,287.505 239.667,275.505 239.5,263.5 Z"/></g>
<g><path style="opacity:0.927" fill="#000000" d="M 171.5,175.5 C 192.437,172.984 211.437,177.817 228.5,190C 236.77,198.442 245.77,205.942 255.5,212.5C 265.23,205.942 274.23,198.442 282.5,190C 302.636,175.973 324.636,171.973 348.5,178C 381.309,189.82 400.809,212.987 407,247.5C 410.821,299.724 393.988,343.89 356.5,380C 324.167,407.667 291.833,435.333 259.5,463C 256.036,463.817 252.702,463.483 249.5,462C 214.037,431.539 178.87,400.706 144,369.5C 111.884,332.809 98.8843,290.142 105,241.5C 113.831,205.834 135.998,183.834 171.5,175.5 Z M 182.5,191.5 C 155.044,194.503 135.878,208.836 125,234.5C 114.143,288.594 129.309,334.094 170.5,371C 198.686,395.354 227.02,419.521 255.5,443.5C 283.98,419.521 312.314,395.354 340.5,371C 372.948,342.6 389.614,306.767 390.5,263.5C 391.23,248.754 387.73,235.087 380,222.5C 356.155,190.066 326.988,183.899 292.5,204C 282.509,212.984 272.176,221.65 261.5,230C 257.5,232 253.5,232 249.5,230C 237.798,221.144 226.465,211.811 215.5,202C 205.337,195.779 194.337,192.279 182.5,191.5 Z M 239.5,263.5 C 239.667,275.505 239.5,287.505 239,299.5C 238.626,300.416 238.126,301.25 237.5,302C 224.933,303.461 212.266,303.961 199.5,303.5C 199.5,314.167 199.5,324.833 199.5,335.5C 211.505,335.333 223.505,335.5 235.5,336C 236.416,336.374 237.25,336.874 238,337.5C 239.461,350.067 239.961,362.734 239.5,375.5C 250.167,375.5 260.833,375.5 271.5,375.5C 271.333,363.495 271.5,351.495 272,339.5C 272.374,338.584 272.874,337.75 273.5,337C 286.067,335.539 298.734,335.039 311.5,335.5C 311.5,324.833 311.5,314.167 311.5,303.5C 299.495,303.667 287.495,303.5 275.5,303C 274.584,302.626 273.75,302.126 273,301.5C 271.539,288.933 271.039,276.266 271.5,263.5C 260.833,263.5 250.167,263.5 239.5,263.5 Z"/></g>
<g><path style="opacity:0.985" fill="#000000" d="M 230.5,246.5 C 247.17,246.333 263.837,246.5 280.5,247C 283.494,247.406 285.661,248.906 287,251.5C 287.5,263.495 287.667,275.495 287.5,287.5C 300.266,287.039 312.933,287.539 325.5,289C 326.126,289.75 326.626,290.584 327,291.5C 327.667,310.167 327.667,328.833 327,347.5C 326.626,348.416 326.126,349.25 325.5,350C 312.933,351.461 300.266,351.961 287.5,351.5C 287.961,364.266 287.461,376.933 286,389.5C 285.25,390.126 284.416,390.626 283.5,391C 264.833,391.667 246.167,391.667 227.5,391C 226.584,390.626 225.75,390.126 225,389.5C 223.539,376.933 223.039,364.266 223.5,351.5C 210.734,351.961 198.067,351.461 185.5,350C 184.874,349.25 184.374,348.416 184,347.5C 183.333,328.833 183.333,310.167 184,291.5C 184.374,290.584 184.874,289.75 185.5,289C 198.067,287.539 210.734,287.039 223.5,287.5C 223.333,275.495 223.5,263.495 224,251.5C 225.563,248.977 227.73,247.31 230.5,246.5 Z M 239.5,263.5 C 239.667,275.505 239.5,287.505 239,299.5C 238.626,300.416 238.126,301.25 237.5,302C 224.933,303.461 212.266,303.961 199.5,303.5C 199.5,314.167 199.5,324.833 199.5,335.5C 211.505,335.333 223.505,335.5 235.5,336C 236.416,336.374 237.25,336.874 238,337.5C 239.461,350.067 239.961,362.734 239.5,375.5C 250.167,375.5 260.833,375.5 271.5,375.5C 271.333,363.495 271.5,351.495 272,339.5C 272.374,338.584 272.874,337.75 273.5,337C 286.067,335.539 298.734,335.039 311.5,335.5C 311.5,324.833 311.5,314.167 311.5,303.5C 299.495,303.667 287.495,303.5 275.5,303C 274.584,302.626 273.75,302.126 273,301.5C 271.539,288.933 271.039,276.266 271.5,263.5C 260.833,263.5 250.167,263.5 239.5,263.5 Z"/></g>
</svg>
