<?xml version="1.0" encoding="UTF-8"?>
<svg version="1.1" xmlns="http://www.w3.org/2000/svg" width="512" height="512">
<path d="M0 0 C1.16638 -0.0066568 2.33276001 -0.0133136 3.53448486 -0.02017212 C5.99888537 -0.03028073 8.46331316 -0.03498969 10.92773438 -0.03466797 C14.67624664 -0.03903121 18.4235716 -0.07534495 22.171875 -0.11328125 C24.57291267 -0.1191519 26.97395589 -0.12311963 29.375 -0.125 C30.4857489 -0.13937103 31.5964978 -0.15374207 32.74090576 -0.16854858 C42.16035678 -0.11392052 50.3959621 2.00837498 57.421875 8.5703125 C65.06598884 17.38444377 66.26332718 26.97055952 66.25390625 38.19140625 C66.25819138 39.32943192 66.2624765 40.46745758 66.26689148 41.63996887 C66.27262009 44.04293149 66.2731459 46.44591144 66.26879883 48.84887695 C66.26565046 52.49395977 66.28907745 56.13822117 66.31445312 59.78320312 C66.31672766 62.12760315 66.3174289 64.47200534 66.31640625 66.81640625 C66.325616 67.89182175 66.33482574 68.96723724 66.34431458 70.07524109 C66.28757801 79.52648919 64.86050025 88.91287018 60.078125 97.2109375 C59.60632813 98.05398437 59.13453125 98.89703125 58.6484375 99.765625 C56.62051376 102.84021905 54.35440246 105.54394371 51.953125 108.3359375 C53.38591797 108.75552734 53.38591797 108.75552734 54.84765625 109.18359375 C68.83465956 113.44706042 80.82116598 119.64655892 88 133.0234375 C89.74451298 136.41958826 91.37148302 139.86126778 92.953125 143.3359375 C96.60170681 141.96509969 99.89616304 140.31529485 103.26953125 138.3671875 C104.28208984 137.79613281 105.29464844 137.22507813 106.33789062 136.63671875 C108.43571582 135.44790816 110.52706166 134.24758129 112.61132812 133.03515625 C113.63291016 132.46410156 114.65449219 131.89304688 115.70703125 131.3046875 C116.61783447 130.78326172 117.5286377 130.26183594 118.46704102 129.72460938 C127.96381611 125.94159539 138.90341017 125.6920492 148.9921875 124.609375 C150.40841243 124.45543913 151.82462101 124.30135279 153.24081421 124.14712524 C156.18698499 123.8271582 159.13342755 123.50985259 162.08007812 123.19433594 C165.83030324 122.7924351 169.57959934 122.38248429 173.32871437 121.97037315 C176.24533446 121.650916 179.16247603 121.33643797 182.07978439 121.0233345 C183.46166407 120.87430868 184.84336715 120.72363458 186.22487259 120.57117844 C210.3819568 117.91303583 210.3819568 117.91303583 220.203125 124.5234375 C225.60889808 130.05206906 227.20786562 134.55877484 227.515625 142.3359375 C227.28973224 149.61903155 225.52787895 153.77946873 220.42578125 158.85546875 C215.51602719 163.19054422 211.35969496 164.60239545 204.95703125 165.625 C204.28647202 165.73315033 203.61591278 165.84130066 202.92503357 165.95272827 C201.51098989 166.17932314 200.09642697 166.40269836 198.68139648 166.62304688 C196.52517349 166.9594478 194.37097463 167.30701694 192.21679688 167.65625 C180.73208986 169.48472999 180.73208986 169.48472999 175.953125 169.3359375 C175.6128125 170.604375 175.6128125 170.604375 175.265625 171.8984375 C172.62018663 178.82696657 169.09389336 183.03242369 162.4140625 186.39453125 C153.48677559 189.80957275 145.49086254 188.07119768 136.953125 184.3359375 C135.303125 185.6559375 133.653125 186.9759375 131.953125 188.3359375 C132.65179688 188.51769531 133.35046875 188.69945312 134.0703125 188.88671875 C135.43542969 189.26376953 135.43542969 189.26376953 136.828125 189.6484375 C137.73304688 189.89207031 138.63796875 190.13570312 139.5703125 190.38671875 C141.953125 191.3359375 141.953125 191.3359375 143.953125 194.3359375 C144.61633022 200.41531872 144.61633022 200.41531872 142.36865234 203.53540039 C139.06513567 205.99784586 137.034161 205.79962306 132.9296875 205.70703125 C132.20133698 205.69248398 131.47298645 205.67793671 130.7225647 205.66294861 C120.12805746 205.37177493 109.54766532 204.50154967 98.98388672 203.68188477 C95.30094094 203.3963298 91.61737381 203.12026604 87.93359375 202.84570312 C85.57287539 202.66721174 83.21219673 202.4881944 80.8515625 202.30859375 C79.75983734 202.22625992 78.66811218 202.14392609 77.54330444 202.05909729 C76.51758331 201.97908981 75.49186218 201.89908234 74.43505859 201.81665039 C73.54257416 201.74781143 72.65008972 201.67897247 71.7305603 201.60804749 C68.45960651 201.28758667 65.20670721 200.80073496 61.953125 200.3359375 C61.953125 209.2459375 61.953125 218.1559375 61.953125 227.3359375 C82.85852658 227.42850917 103.76387885 227.4999035 124.66944408 227.54318619 C134.37613589 227.56381672 144.08269805 227.59194672 153.78930664 227.63769531 C162.24899755 227.67754802 170.70859457 227.70336674 179.16837674 227.71229148 C183.64834642 227.71750889 188.1280475 227.72978184 192.60793114 227.75885773 C196.82437224 227.78600214 201.04043402 227.79438452 205.25695419 227.78836823 C206.80454253 227.7894689 208.35214351 227.79742881 209.8996563 227.8127594 C212.01345984 227.8326733 214.1258329 227.8278732 216.2396698 227.81695557 C217.4223302 227.82064274 218.6049906 227.82432991 219.82348919 227.82812881 C223.6162716 227.23164581 225.28519429 226.05667164 227.953125 223.3359375 C228.703125 220.3359375 228.703125 220.3359375 227.953125 217.3359375 C225.71205411 214.346699 224.41361722 213.43553541 220.72705078 212.63818359 C219.4636084 212.54617676 218.20016602 212.45416992 216.8984375 212.359375 C216.2082251 212.3039151 215.5180127 212.2484552 214.80688477 212.1913147 C212.56488169 212.01475852 210.32189637 211.86319107 208.078125 211.7109375 C206.53744133 211.59184926 204.9969121 211.47074613 203.45654297 211.34765625 C199.65396015 211.04683945 195.85036903 210.76348237 192.04589844 210.4876709 C187.05471859 210.12579289 182.06596009 209.74101017 177.078125 209.3359375 C176.19527832 209.27712402 175.31243164 209.21831055 174.40283203 209.15771484 C166.83882553 208.54817783 166.83882553 208.54817783 163.953125 205.3359375 C163.08031351 201.90703524 162.62389671 199.44334173 163.640625 196.0234375 C165.33215433 193.84861407 166.33450257 193.28131876 168.953125 192.3359375 C171.81720719 192.27215624 174.53995324 192.33950521 177.390625 192.5234375 C178.71090698 192.60126465 178.71090698 192.60126465 180.05786133 192.68066406 C182.12169162 192.80876505 184.18506515 192.94434028 186.24804688 193.08544922 C188.96523895 193.26914974 191.6819855 193.44251412 194.40039062 193.60595703 C198.48865812 193.85352651 202.57459197 194.1272179 206.66018677 194.41543579 C208.30008433 194.52815996 209.94046724 194.63405305 211.58126831 194.73275757 C232.40575406 196.00778015 232.40575406 196.00778015 239.890625 204.2109375 C244.7578302 211.58549083 246.04629161 217.48481428 244.953125 226.3359375 C243.9449603 229.25630192 242.58008364 231.72330318 240.953125 234.3359375 C240.27526214 235.66361373 239.60564579 236.99562453 238.953125 238.3359375 C239.64277344 238.86960938 240.33242188 239.40328125 241.04296875 239.953125 C255.83718562 251.68297048 268.48237261 266.90779902 270.953125 286.3359375 C272.15958824 300.68306787 271.76757939 314.06058882 265.953125 327.3359375 C265.4684375 328.45871094 264.98375 329.58148438 264.484375 330.73828125 C255.94703269 348.33608734 241.19295579 359.60929117 223.18359375 366.4609375 C219.953125 367.3359375 219.953125 367.3359375 210.953125 368.3359375 C210.953125 410.5759375 210.953125 452.8159375 210.953125 496.3359375 C229.103125 496.3359375 247.253125 496.3359375 265.953125 496.3359375 C270.953125 500.3359375 270.953125 500.3359375 271.58203125 502.3359375 C271.56011719 502.9959375 271.53820312 503.6559375 271.515625 504.3359375 C271.51691406 504.9959375 271.51820313 505.6559375 271.51953125 506.3359375 C270.66797923 509.34279705 269.4374344 510.43124138 266.953125 512.3359375 C264.04242019 512.72784804 261.51095486 512.87349691 258.60095215 512.83930206 C257.74659482 512.84511583 256.89223749 512.85092959 256.01199055 512.85691953 C253.12945635 512.87159722 250.24776333 512.85759816 247.36523438 512.84387207 C245.28572909 512.84847791 243.20622705 512.85482868 241.12673187 512.86278105 C235.39701056 512.87954097 229.66755437 512.87119775 223.93783188 512.85883617 C217.7646069 512.84981521 211.59142869 512.8637407 205.41821289 512.87475586 C194.01873815 512.89154636 182.61937197 512.89004651 171.21989989 512.87910999 C160.68980371 512.86905685 150.15973867 512.86641671 139.62963867 512.87120056 C138.93177535 512.8715061 138.23391203 512.87181164 137.51490134 512.87212644 C134.6822101 512.87337175 131.84951888 512.87464534 129.01682767 512.8759655 C102.4315456 512.88820782 75.84631763 512.87709764 49.26104391 512.85557791 C25.62972945 512.83659477 1.9985012 512.83829326 -21.6328125 512.85742188 C-48.16875278 512.87882976 -74.70464524 512.88733968 -101.24059296 512.87497282 C-104.06819152 512.87368991 -106.89579009 512.87243855 -109.72338867 512.87120056 C-110.41964082 512.87088425 -111.11589297 512.87056794 -111.83324367 512.87024205 C-122.35799911 512.86568775 -132.88272004 512.87102145 -143.4074707 512.88111877 C-155.3718481 512.89253987 -167.33612363 512.8893444 -179.30049706 512.8679958 C-185.40928302 512.85745621 -191.51789365 512.85341302 -197.62667847 512.86659241 C-203.21266134 512.87846194 -208.79830543 512.87204389 -214.38425732 512.8506822 C-216.41110999 512.84619298 -218.43799096 512.84853393 -220.46482563 512.85818535 C-223.20853151 512.87025389 -225.95105905 512.85797211 -228.69470215 512.83930206 C-229.89011014 512.85334906 -229.89011014 512.85334906 -231.10966778 512.86767983 C-234.68142231 512.8187101 -236.65761588 512.63437872 -239.53348541 510.42947721 C-241.16338267 508.17476721 -241.61475142 507.08866447 -241.609375 504.3359375 C-241.63128906 503.6759375 -241.65320313 503.0159375 -241.67578125 502.3359375 C-240.61247315 498.95448564 -239.11856341 498.13492393 -236.046875 496.3359375 C-231.87290805 495.77002275 -227.73257402 495.87156651 -223.52734375 495.9453125 C-221.70678215 495.95380219 -221.70678215 495.95380219 -219.84944153 495.96246338 C-215.97734956 495.98483308 -212.10618676 496.03503368 -208.234375 496.0859375 C-205.60743525 496.10600159 -202.98048098 496.12425251 -200.35351562 496.140625 C-193.91765234 496.18470004 -187.48233006 496.25161958 -181.046875 496.3359375 C-181.05575745 495.71841614 -181.06463989 495.10089478 -181.0737915 494.46466064 C-181.16224419 488.04098766 -181.22260069 481.61748748 -181.26660156 475.19335938 C-181.28672436 472.79550144 -181.31402559 470.39769262 -181.34863281 468 C-181.3971199 464.55456427 -181.41983741 461.10977698 -181.4375 457.6640625 C-181.45814514 456.59101868 -181.47879028 455.51797485 -181.50006104 454.41241455 C-181.50036316 453.41167908 -181.50066528 452.4109436 -181.50097656 451.37988281 C-181.50985901 450.50052063 -181.51874146 449.62115845 -181.52789307 448.71514893 C-180.88064553 445.51373335 -179.58750849 444.32634936 -177.046875 442.3359375 C-173.546875 441.8359375 -173.546875 441.8359375 -170.046875 442.3359375 C-157.28408185 455.09873065 -166.046875 478.28662234 -166.046875 496.3359375 C-46.586875 496.3359375 72.873125 496.3359375 195.953125 496.3359375 C195.953125 454.4259375 195.953125 412.5159375 195.953125 369.3359375 C76.493125 369.3359375 -42.966875 369.3359375 -166.046875 369.3359375 C-166.046875 385.8359375 -166.046875 402.3359375 -166.046875 419.3359375 C-169.37857251 422.66763501 -170.46124941 423.15251248 -175.046875 423.3359375 C-177.37419056 422.19813878 -179.21528214 421.16753036 -181.046875 419.3359375 C-181.14021205 417.73982768 -181.16432872 416.13960322 -181.16040039 414.54077148 C-181.16032486 413.51978867 -181.16024933 412.49880585 -181.16017151 411.44688416 C-181.15501022 410.3364827 -181.14984894 409.22608124 -181.14453125 408.08203125 C-181.1431163 406.95144791 -181.14170135 405.82086456 -181.14024353 404.65602112 C-181.13462519 401.02846685 -181.12206958 397.40097326 -181.109375 393.7734375 C-181.10436236 391.32096443 -181.09979905 388.8684904 -181.09570312 386.41601562 C-181.0846498 380.38930205 -181.06789384 374.36262411 -181.046875 368.3359375 C-181.96335312 368.2441069 -181.96335312 368.2441069 -182.89834595 368.15042114 C-183.70355682 368.06613861 -184.5087677 367.98185608 -185.33837891 367.89501953 C-186.53329453 367.77225143 -186.53329453 367.77225143 -187.75234985 367.64700317 C-202.24678397 365.68201233 -217.44756352 355.0096399 -226.32226562 343.71240234 C-239.36616485 325.74366086 -243.6844731 306.05451944 -240.7421875 284.05810547 C-238.2573166 271.23122723 -231.62288052 259.98814763 -223.046875 250.3359375 C-222.49257812 249.69914063 -221.93828125 249.06234375 -221.3671875 248.40625 C-211.57964674 237.86942383 -197.70614112 231.98038378 -184.046875 228.3359375 C-184.39621094 227.66046875 -184.74554688 226.985 -185.10546875 226.2890625 C-185.78802734 224.95101562 -185.78802734 224.95101562 -186.484375 223.5859375 C-187.16306641 222.26335937 -187.16306641 222.26335937 -187.85546875 220.9140625 C-189.87560073 216.54262937 -190.18769232 212.83787908 -190.25561523 208.02612305 C-190.27490585 206.74767014 -190.29419647 205.46921722 -190.31407166 204.15202332 C-190.3288788 202.75891131 -190.34265223 201.36578799 -190.35546875 199.97265625 C-190.36204058 199.26794504 -190.3686124 198.56323383 -190.37538338 197.83716774 C-190.40791636 194.10736726 -190.43238286 190.37759463 -190.4519043 186.64770508 C-190.46971489 183.56980691 -190.50453683 180.4928254 -190.55444336 177.4152832 C-190.61478902 173.688779 -190.64539805 169.96312405 -190.65507698 166.23615456 C-190.66360707 164.82117627 -190.68236517 163.40621922 -190.7118206 161.99152184 C-190.95664732 149.56478671 -190.95664732 149.56478671 -187.19555664 144.97583008 C-184.14666611 141.99530898 -181.59148582 141.3902167 -177.31860352 140.96435547 C-173.12577949 141.01862109 -170.94738806 142.40324244 -167.645401 144.84860229 C-155.88493399 153.50586246 -143.64555984 152.56073672 -129.609375 152.2109375 C-126.11716584 152.15676097 -122.62587359 152.1174174 -119.13328552 152.09988403 C-116.97924379 152.08581958 -114.82518266 152.04964405 -112.67201233 151.98678589 C-102.99160085 151.86342192 -95.52143807 154.43198139 -88.32421875 160.96875 C-87.046875 162.3359375 -87.046875 162.3359375 -86.046875 164.3359375 C-79.116875 164.0059375 -72.186875 163.6759375 -65.046875 163.3359375 C-65.046875 160.0359375 -65.046875 156.7359375 -65.046875 153.3359375 C-63.28089978 139.71933907 -57.1568477 127.90232023 -46.4609375 119.2421875 C-38.81170594 113.74622487 -31.00046105 110.88012588 -22.046875 108.3359375 C-22.49417969 107.81386719 -22.94148437 107.29179688 -23.40234375 106.75390625 C-33.35067546 94.64197148 -36.36062713 82.60626606 -36.34765625 67.21484375 C-36.35194138 66.07490463 -36.3562265 64.93496552 -36.36064148 63.76048279 C-36.36635837 61.36108054 -36.36690464 58.96166097 -36.36254883 56.56225586 C-36.35938757 52.91294521 -36.38288699 49.26444515 -36.40820312 45.61523438 C-36.41047641 43.27343851 -36.41117948 40.93164049 -36.41015625 38.58984375 C-36.419366 37.51037979 -36.42857574 36.43091583 -36.43806458 35.31874084 C-36.37078023 24.17853157 -34.02199937 15.37460868 -26.046875 7.3359375 C-17.93126591 0.9123859 -10.09485735 0.02008104 0 0 Z M-17.60546875 22.23046875 C-19.72646342 26.85895046 -20.47142602 30.24132523 -20.046875 35.3359375 C-13.3099486 38.87963867 -6.46023419 42.16648498 0.515625 45.2109375 C1.18650146 45.5210376 1.85737793 45.8311377 2.54858398 46.15063477 C12.38172558 50.33346832 23.0945543 48.16121856 33.390625 46.8984375 C34.54755859 46.76373047 35.70449219 46.62902344 36.89648438 46.49023438 C43.48494366 45.74209611 43.48494366 45.74209611 49.953125 44.3359375 C50.73443947 32.78644839 50.73443947 32.78644839 47.51171875 21.9140625 C42.57190719 16.91234854 37.80364582 15.87133309 31.02124023 15.78015137 C30.02938721 15.78824829 29.03753418 15.79634521 28.015625 15.8046875 C26.97672119 15.8008606 25.93781738 15.79703369 24.86743164 15.79309082 C22.67886379 15.79037833 20.49026316 15.79769285 18.30175781 15.81445312 C14.9634532 15.83587124 11.62730065 15.8146278 8.2890625 15.7890625 C6.15624528 15.79170589 4.02342939 15.79683111 1.890625 15.8046875 C0.40284546 15.79254211 0.40284546 15.79254211 -1.11499023 15.78015137 C-7.82233877 15.87032404 -13.10508639 16.76007916 -17.60546875 22.23046875 Z M-20.046875 53.3359375 C-20.13516561 57.12745333 -20.18769446 60.91869915 -20.234375 64.7109375 C-20.25951172 65.77183594 -20.28464844 66.83273438 -20.31054688 67.92578125 C-20.41955474 79.77130294 -17.65548864 89.37052078 -9.3828125 98.08984375 C-0.98677923 105.73828502 7.77454504 107.82947141 18.87109375 107.6015625 C27.93440328 107.17779098 34.20132337 103.14237558 40.68359375 96.9765625 C48.0671969 88.38565763 50.13489999 79.4692118 50.015625 68.5234375 C50.01111328 67.73517578 50.00660156 66.94691406 50.00195312 66.13476562 C49.99023812 64.20178989 49.97230498 62.26885357 49.953125 60.3359375 C48.745354 60.47225586 48.745354 60.47225586 47.51318359 60.61132812 C44.45343927 60.95290542 41.39302166 61.2874662 38.33203125 61.61767578 C36.38484314 61.82975987 34.43849709 62.04953088 32.4921875 62.26953125 C13.87587772 64.26413587 1.40776029 62.66408217 -15.4296875 54.5078125 C-17.87317475 53.19971592 -17.87317475 53.19971592 -20.046875 53.3359375 Z M3.953125 122.3359375 C3.25966876 128.9935799 3.25966876 128.9935799 6.078125 132.2109375 C9.28228227 134.57922766 10.98103084 135.3359375 14.953125 135.3359375 C18.59312865 133.72756379 21.00453076 131.82289561 22.953125 128.3359375 C22.953125 126.6859375 22.953125 125.0359375 22.953125 123.3359375 C16.683125 123.0059375 10.413125 122.6759375 3.953125 122.3359375 Z M38.953125 123.3359375 C38.82357422 124.3878125 38.82357422 124.3878125 38.69140625 125.4609375 C37.80197258 131.46665475 36.53595456 135.82917155 32.9765625 140.77734375 C31.77016326 142.30380763 31.77016326 142.30380763 31.953125 144.3359375 C22.51822207 149.12895455 14.84384144 152.1823836 4.328125 149.2109375 C-2.09536425 146.78951747 -6.43087688 143.17878305 -9.421875 136.9609375 C-11.09256909 132.75564341 -11.71959453 128.83604401 -12.046875 124.3359375 C-22.39405925 124.58774951 -32.76879532 127.7112826 -40.046875 135.3359375 C-46.76814336 143.53422532 -49.13473675 151.83414605 -49.046875 162.3359375 C-47.20633545 162.40325073 -47.20633545 162.40325073 -45.32861328 162.47192383 C-18.60440026 163.46794307 7.91731321 164.48591349 34.26635742 169.42163086 C41.48745253 170.74759098 46.62485308 171.00523657 53.1484375 167.37890625 C54.27636719 166.76080078 55.40429688 166.14269531 56.56640625 165.50585938 C57.73712361 164.84530801 58.90769534 164.1844985 60.078125 163.5234375 C61.25577825 162.87302152 62.43415899 162.22392091 63.61328125 161.57617188 C68.44248772 158.90710874 73.23389436 156.19550342 77.953125 153.3359375 C76.71013088 144.77308914 73.45093425 138.17277837 66.7734375 132.4765625 C58.03083768 126.36581799 49.42333197 124.69259542 38.953125 123.3359375 Z M192.9140625 135.86401367 C191.9145607 135.94973381 191.9145607 135.94973381 190.89486694 136.03718567 C184.72779738 136.57482126 178.56651137 137.17401465 172.40698242 137.79159069 C168.29513586 138.20307669 164.18365831 138.59491301 160.06542969 138.93725586 C140.01013057 140.6190623 124.28952843 143.11647822 107.28790283 154.77767944 C103.87017242 157.05871273 100.28648971 158.94601937 96.63671875 160.82421875 C95.40769699 161.47365244 94.17916655 162.12401694 92.95117188 162.77539062 C91.76448174 163.40004141 90.57763297 164.02439091 89.390625 164.6484375 C79.80154984 169.69727453 70.33078449 174.90469104 60.953125 180.3359375 C60.953125 181.6559375 60.953125 182.9759375 60.953125 184.3359375 C65.87815398 184.76924478 70.80367894 185.19622049 75.72973633 185.61767578 C77.40078043 185.76150108 79.07168407 185.90696922 80.74243164 186.05419922 C96.36185288 188.49503726 96.36185288 188.49503726 111.1171875 185.6484375 C111.92929687 184.8853125 112.74140625 184.1221875 113.578125 183.3359375 C114.47402344 182.50835937 115.36992187 181.68078125 116.29296875 180.828125 C117.17082031 180.00570312 118.04867187 179.18328125 118.953125 178.3359375 C119.84128906 177.67851562 120.72945313 177.02109375 121.64453125 176.34375 C126.40148901 172.86541575 126.40148901 172.86541575 128.40234375 167.56640625 C128.35360134 165.65005996 128.24972352 163.73417505 128.0859375 161.82421875 C127.90747707 158.48071013 128.76907418 156.83199558 130.953125 154.3359375 C135.35594862 150.58597918 140.04366522 149.86484267 145.578125 148.6484375 C146.52558594 148.42349609 147.47304688 148.19855469 148.44921875 147.96679688 C163.54326919 144.57011931 163.54326919 144.57011931 170.453125 148.1484375 C172.953125 150.3359375 172.953125 150.3359375 174.953125 153.3359375 C183.61502208 152.42472308 192.24773608 151.40916754 200.828125 149.8984375 C202.12492188 149.67285156 203.42171875 149.44726562 204.7578125 149.21484375 C207.85619921 148.36259802 209.16636663 147.95479633 210.953125 145.3359375 C211.48832813 141.74243075 211.40127271 140.01712202 209.390625 136.9609375 C204.7078678 133.83909937 198.3310861 135.39719192 192.9140625 135.86401367 Z M-174.046875 160.3359375 C-174.14862364 167.59492976 -174.21848687 174.85373684 -174.26660156 182.11328125 C-174.28666795 184.58079908 -174.31392744 187.04826965 -174.34863281 189.515625 C-174.39736806 193.07043143 -174.41989439 196.62460694 -174.4375 200.1796875 C-174.45814514 201.27583374 -174.47879028 202.37197998 -174.50006104 203.50134277 C-174.50244843 211.72321545 -173.10656079 217.2067134 -167.296875 223.1484375 C-159.60426417 228.32615633 -153.08576446 228.74403618 -144.046875 228.5234375 C-142.98597656 228.50990234 -141.92507812 228.49636719 -140.83203125 228.48242188 C-138.23643813 228.44734629 -135.64193433 228.39819594 -133.046875 228.3359375 C-133.046875 226.0259375 -133.046875 223.7159375 -133.046875 221.3359375 C-136.33808129 219.80004123 -139.36266023 219.11764946 -142.921875 218.5859375 C-148.33382299 217.52129199 -151.63013839 215.67662423 -155.046875 211.3359375 C-157.66600251 205.47967758 -158.52677685 198.94308074 -159.58984375 192.66015625 C-159.72392136 191.88185455 -159.85799896 191.10355286 -159.99613953 190.30166626 C-161.12071483 183.75893255 -161.12071483 183.75893255 -161.61743164 180.54467773 C-162.72648033 171.16435014 -162.72648033 171.16435014 -167.03369141 163.11962891 C-170.29937231 161.03594918 -170.29937231 161.03594918 -174.046875 160.3359375 Z M151.953125 162.6484375 C150.674375 162.89207031 149.395625 163.13570312 148.078125 163.38671875 C147.046875 163.69996094 146.015625 164.01320312 144.953125 164.3359375 C144.623125 165.3259375 144.293125 166.3159375 143.953125 167.3359375 C145.98049194 169.6636551 147.4862989 171.156389 150.390625 172.2734375 C153.83383095 172.35741813 155.2655826 171.4576815 157.953125 169.3359375 C159.8885398 166.94536808 159.8885398 166.94536808 160.953125 164.3359375 C160.623125 163.3459375 160.293125 162.3559375 159.953125 161.3359375 C157.30641923 161.3359375 154.52820455 162.14224747 151.953125 162.6484375 Z M-148.046875 168.3359375 C-147.34104087 175.93654016 -146.27489883 183.34483535 -144.796875 190.8359375 C-144.60480469 191.91875 -144.41273438 193.0015625 -144.21484375 194.1171875 C-144.00988281 195.1484375 -143.80492187 196.1796875 -143.59375 197.2421875 C-143.41682617 198.17353516 -143.23990234 199.10488281 -143.05761719 200.06445312 C-142.2261368 202.56306666 -142.2261368 202.56306666 -139.60424805 203.62573242 C-137.10154536 204.32075506 -134.67883101 204.77905283 -132.109375 205.1484375 C-126.97871049 206.14861168 -124.54311122 207.41333101 -121.046875 211.3359375 C-118.509417 216.09117376 -117.60029021 221.02315149 -117.046875 226.3359375 C-110.88022361 225.95052179 -106.22037801 221.7817255 -102.26953125 217.3359375 C-95.9645695 209.19652477 -94.8638003 201.47906048 -94.796875 191.3984375 C-94.77625 190.62564453 -94.755625 189.85285156 -94.734375 189.05664062 C-94.68910011 182.36161612 -95.99408281 177.70454387 -100.484375 172.5234375 C-104.02265066 169.50295828 -106.58829869 168.08002036 -111.26464844 168.10888672 C-112.08519714 168.10903778 -112.90574585 168.10918884 -113.75115967 168.10934448 C-114.62733948 168.11966705 -115.50351929 168.12998962 -116.40625 168.140625 C-117.31062805 168.1434549 -118.2150061 168.14628479 -119.14678955 168.14920044 C-122.03028695 168.16037968 -124.91347175 168.18548017 -127.796875 168.2109375 C-129.75390176 168.22097022 -131.71093339 168.23009556 -133.66796875 168.23828125 C-138.46105762 168.26031165 -143.25391334 168.29482606 -148.046875 168.3359375 Z M-80.046875 180.3359375 C-80.02330933 181.23348755 -80.02330933 181.23348755 -79.99926758 182.14916992 C-79.35073537 210.64354093 -79.35073537 210.64354093 -87.15625 222.53125 C-88.38618632 224.49036086 -88.38618632 224.49036086 -87.046875 227.3359375 C-83.11471845 228.80864938 -78.93743546 228.44598811 -74.796875 228.3984375 C-74.05179688 228.39392578 -73.30671875 228.38941406 -72.5390625 228.38476562 C-70.7082986 228.37302996 -68.87757627 228.355096 -67.046875 228.3359375 C-67.28470703 227.29373047 -67.28470703 227.29373047 -67.52734375 226.23046875 C-68.86206095 218.79418723 -69.36736544 210.71700456 -65.37890625 204.05078125 C-61.57210097 199.14993809 -57.233442 195.54898985 -51.046875 194.3359375 C-40.16884526 193.14382465 -32.63600368 197.41877923 -24.296875 204.0234375 C-22.34312589 205.5482648 -20.38287116 207.06092232 -18.40356445 208.55249023 C-16.67357449 209.86167667 -14.96687216 211.20178463 -13.27416992 212.55883789 C-5.06834349 218.78076728 2.76704647 221.59908402 12.76538086 223.86010742 C15.15590319 224.40190018 17.53326018 224.98542473 19.91210938 225.57617188 C32.48092143 229.31245783 32.48092143 229.31245783 44.68286133 227.31274414 C46.69463597 224.1819851 46.38026295 220.87741481 46.3515625 217.2734375 C46.35443268 216.48573975 46.35730286 215.69804199 46.36026001 214.88647461 C46.36230022 213.22216065 46.35677332 211.55782269 46.34423828 209.89355469 C46.32818309 207.34515803 46.34408744 204.79834729 46.36328125 202.25 C46.36129881 200.632809 46.35745511 199.01561898 46.3515625 197.3984375 C46.36067154 196.25459595 46.36067154 196.25459595 46.3699646 195.08764648 C46.31729979 191.06960794 46.31729979 191.06960794 44.81713867 187.41430664 C42.17418173 185.88530326 39.74400348 185.5037916 36.73046875 185.01953125 C35.4782251 184.81360352 34.22598145 184.60767578 32.93579102 184.39550781 C31.58751021 184.18745082 30.23911905 183.98010788 28.890625 183.7734375 C27.51676849 183.55484672 26.14298931 183.33576935 24.76928711 183.11621094 C14.8665327 181.55218928 4.95083587 180.13077762 -5.046875 179.3359375 C-6.11059326 179.24981201 -7.17431152 179.16368652 -8.27026367 179.07495117 C-18.01883052 178.35075718 -27.71270885 178.13904618 -37.484375 178.1484375 C-38.64870056 178.14734985 -38.64870056 178.14734985 -39.83654785 178.14624023 C-53.3135915 178.14762313 -66.64686997 178.82833669 -80.046875 180.3359375 Z M-50.796875 210.8984375 C-53.2929884 213.22099006 -53.2929884 213.22099006 -53.921875 216.6484375 C-52.05010508 224.53661072 -42.87092551 228.13995379 -36.359375 232.2109375 C-34.96139284 233.0658492 -33.5629526 233.92001227 -32.1640625 234.7734375 C-29.52935674 236.38988169 -26.96075173 238.06181398 -24.4296875 239.8359375 C-15.8679204 245.78174285 -6.77524524 250.3359375 3.953125 250.3359375 C4.48706679 248.9241592 5.00477604 247.50623506 5.515625 246.0859375 C5.80566406 245.29703125 6.09570312 244.508125 6.39453125 243.6953125 C6.99835337 241.14490298 6.8005182 239.78271521 5.953125 237.3359375 C4.98632812 237.11679688 4.01953125 236.89765625 3.0234375 236.671875 C1.70811975 236.35244069 0.39302743 236.03207713 -0.921875 235.7109375 C-2.19804687 235.40929687 -3.47421875 235.10765625 -4.7890625 234.796875 C-14.32408073 231.92534249 -22.20513831 225.12223869 -29.921875 219.0859375 C-31.75024717 217.66103293 -33.58088642 216.23903138 -35.4140625 214.8203125 C-36.20925293 214.19866211 -37.00444336 213.57701172 -37.82373047 212.93652344 C-42.26708994 209.73746077 -45.55877606 207.92224492 -50.796875 210.8984375 Z M22.953125 242.3359375 C22.44752592 243.77147775 21.9488501 245.2094577 21.453125 246.6484375 C21.1746875 247.44894531 20.89625 248.24945313 20.609375 249.07421875 C19.81379393 251.42363172 19.81379393 251.42363172 19.953125 254.3359375 C22.9778459 254.98870846 25.85297955 255.45845184 28.953125 255.3359375 C31.74809684 253.38453863 31.74809684 253.38453863 32.953125 250.3359375 C33.20465759 247.67689281 33.20465759 247.67689281 31.953125 245.3359375 C28.63348174 242.73405494 27.25996459 242.3359375 22.953125 242.3359375 Z M-213.046875 263.3359375 C-223.75036079 277.33437781 -226.29327112 291.15468956 -225.046875 308.3359375 C-222.39137754 323.31294316 -213.60058306 335.99369163 -201.234375 344.6484375 C-192.21624267 350.37894691 -183.09414697 353.45381597 -172.41120243 353.47015858 C-171.75453857 353.47251081 -171.09787471 353.47486304 -170.42131194 353.47728655 C-168.21746784 353.48395179 -166.01368303 353.48351907 -163.80982971 353.48310852 C-162.21506868 353.4864087 -160.62030849 353.49013459 -159.02554935 353.49425 C-154.64006279 353.5042608 -150.25458991 353.50798532 -145.86909354 353.51063931 C-141.14016554 353.51454514 -136.41124836 353.52412335 -131.68232727 353.53285217 C-120.25969983 353.55260965 -108.8370715 353.5626823 -97.41443124 353.57157996 C-92.03329006 353.57596441 -86.65214985 353.58133085 -81.27100945 353.58656883 C-63.37895315 353.60358109 -45.48689747 353.6180745 -27.59483433 353.62531757 C-22.95230165 353.62722742 -18.30976898 353.62914776 -13.66723633 353.63110352 C-12.51337765 353.63158726 -11.35951897 353.632071 -10.17069488 353.6325694 C8.514288 353.64086682 27.1992068 353.6661989 45.8841617 353.69868419 C65.07425947 353.73177525 84.2643247 353.74976822 103.45445114 353.75296181 C114.22624533 353.75512511 124.9979461 353.7638473 135.76971245 353.78942299 C144.94502296 353.811158 154.12021736 353.81916665 163.2955507 353.80945621 C167.9737512 353.80491952 172.65171228 353.8067609 177.32987976 353.82621765 C181.6204461 353.84390754 185.91059937 353.84280471 190.20117045 353.82732036 C191.74567946 353.82495308 193.29021751 353.82922172 194.83468228 353.84114901 C212.97591262 353.97246347 227.24145899 349.34608733 240.62890625 336.8203125 C252.4184458 324.21838451 255.46118063 310.22164786 255.23046875 293.62890625 C254.70805694 278.87402141 246.51216424 266.22984041 235.953125 256.3359375 C229.22784646 251.12509205 222.07240448 247.7835647 213.953125 245.3359375 C213.3801833 245.1584324 212.80724159 244.9809273 212.21693802 244.79804325 C209.21956061 244.18619707 206.38200588 244.21331453 203.32196045 244.21568298 C202.65700727 244.21482856 201.99205409 244.21397413 201.30695081 244.21309382 C199.08058296 244.21144774 196.85429059 244.2169461 194.62792969 244.22241211 C193.03130088 244.2226942 191.43467194 244.22253583 189.83804321 244.2219696 C185.50369622 244.22168247 181.16937685 244.22756576 176.83503628 244.23454356 C172.30532915 244.24079094 167.77562141 244.241382 163.24591064 244.24256897 C154.66829046 244.24567819 146.09068301 244.25388609 137.51306844 244.26391846 C127.74774604 244.27509227 117.98242305 244.28059325 108.21709585 244.28561389 C88.12909846 244.29606903 68.04111253 244.31366058 47.953125 244.3359375 C47.95992279 244.95675705 47.96672058 245.5775766 47.97372437 246.21720886 C47.97901154 247.03006851 47.98429871 247.84292816 47.98974609 248.68041992 C47.99654388 249.48686447 48.00334167 250.29330902 48.01034546 251.12419128 C47.94750955 253.55299203 47.54230339 255.41937162 46.578125 257.6484375 C46.30097656 258.29683594 46.02382813 258.94523437 45.73828125 259.61328125 C45.34962891 260.46599609 45.34962891 260.46599609 44.953125 261.3359375 C44.64375 262.1196875 44.334375 262.9034375 44.015625 263.7109375 C42.59060373 265.8903818 41.36775131 266.35703494 38.953125 267.3359375 C37.9425 267.8721875 36.931875 268.4084375 35.890625 268.9609375 C25.84130443 273.07006273 14.1420278 269.18648443 4.06494141 266.8203125 C1.46297214 266.21323498 -1.14455432 265.63690108 -3.75390625 265.0625 C-14.40029474 262.65102336 -23.7696609 259.91707634 -32.21466064 252.64204407 C-45.02297852 242.23575143 -58.61873714 242.80662693 -74.40095997 243.08887792 C-78.0702398 243.14356527 -81.73950139 243.13749966 -85.40911865 243.13951111 C-91.56217245 243.15145 -97.71370723 243.20459632 -103.86621094 243.28637695 C-110.94484434 243.3802595 -118.02221625 243.42234504 -125.10143495 243.4337073 C-132.69505419 243.44592178 -140.28824633 243.48867336 -147.88166332 243.54417491 C-150.04635249 243.55848699 -152.21102204 243.56803733 -154.37574005 243.57679939 C-158.4310168 243.5956294 -162.48512997 243.64952155 -166.54003906 243.70727539 C-167.71959167 243.71017578 -168.89914429 243.71307617 -170.11444092 243.71606445 C-187.26070473 244.04337673 -201.38039166 250.86554523 -213.046875 263.3359375 Z " fill="#000000" transform="translate(241.046875,-0.3359375)"/>
</svg>
