<?xml version="1.0" encoding="UTF-8"?>
<!DOCTYPE svg PUBLIC "-//W3C//DTD SVG 1.1//EN" "http://www.w3.org/Graphics/SVG/1.1/DTD/svg11.dtd">
<svg xmlns="http://www.w3.org/2000/svg" version="1.1" width="512px" height="512px" style="shape-rendering:geometricPrecision; text-rendering:geometricPrecision; image-rendering:optimizeQuality; fill-rule:evenodd; clip-rule:evenodd" xmlns:xlink="http://www.w3.org/1999/xlink">
<g><path style="opacity:0.939" fill="#000000" d="M 241.5,-0.5 C 250.833,-0.5 260.167,-0.5 269.5,-0.5C 306.131,5.95103 332.631,25.951 349,59.5C 352.264,67.222 354.597,75.222 356,83.5C 357.022,98.4817 357.856,113.482 358.5,128.5C 370.921,139.586 374.087,152.919 368,168.5C 364.5,174.667 359.667,179.5 353.5,183C 355.028,189.249 357.528,195.083 361,200.5C 366.063,204.949 371.563,208.783 377.5,212C 385.528,221.241 389.528,232.075 389.5,244.5C 389.314,259.567 384.314,272.734 374.5,284C 382.304,287.715 390.304,291.048 398.5,294C 422.46,305.717 436.293,324.884 440,351.5C 440.667,370.167 440.667,388.833 440,407.5C 436.987,412.535 432.82,413.702 427.5,411C 426.299,410.097 425.465,408.931 425,407.5C 424.667,389.167 424.333,370.833 424,352.5C 420.715,332.759 410.215,318.259 392.5,309C 375.722,302.777 359.055,296.277 342.5,289.5C 318.68,312.819 295.014,336.319 271.5,360C 260.833,367.333 250.167,367.333 239.5,360C 215.986,336.319 192.32,312.819 168.5,289.5C 151.945,296.277 135.278,302.777 118.5,309C 100.785,318.259 90.2851,332.759 87,352.5C 86.3333,399.5 86.3333,446.5 87,493.5C 88.1711,494.893 89.6711,495.727 91.5,496C 103.829,496.5 116.162,496.667 128.5,496.5C 128.333,447.166 128.5,397.832 129,348.5C 131.911,344.723 135.744,343.556 140.5,345C 142.049,346.214 143.215,347.714 144,349.5C 144.5,398.499 144.667,447.499 144.5,496.5C 218.5,496.5 292.5,496.5 366.5,496.5C 366.5,485.833 366.5,475.167 366.5,464.5C 344.831,464.667 323.164,464.5 301.5,464C 294.427,461.928 289.594,457.428 287,450.5C 286.333,427.5 286.333,404.5 287,381.5C 289.167,375.333 293.333,371.167 299.5,369C 305.765,367.516 312.098,367.182 318.5,368C 324.158,369.829 325.992,373.663 324,379.5C 323.626,380.416 323.126,381.25 322.5,382C 316.944,383.239 311.278,383.906 305.5,384C 304.584,384.374 303.75,384.874 303,385.5C 302.333,405.833 302.333,426.167 303,446.5C 303.5,447 304,447.5 304.5,448C 324.167,448.667 343.833,448.667 363.5,448C 364.416,447.626 365.25,447.126 366,446.5C 366.667,426.5 366.667,406.5 366,386.5C 365.5,385.333 364.667,384.5 363.5,384C 358.5,383.667 353.5,383.333 348.5,383C 344.162,380.149 342.995,376.315 345,371.5C 346.319,369.513 348.152,368.346 350.5,368C 355.554,367.219 360.554,367.386 365.5,368.5C 366.331,362.193 366.831,355.859 367,349.5C 369.435,344.776 373.269,343.276 378.5,345C 380,345.833 381.167,347 382,348.5C 382.5,397.832 382.667,447.166 382.5,496.5C 394.838,496.667 407.171,496.5 419.5,496C 421.329,495.727 422.829,494.893 424,493.5C 424.333,474.5 424.667,455.5 425,436.5C 427.226,432.139 430.726,430.639 435.5,432C 437.667,432.833 439.167,434.333 440,436.5C 440.667,456.5 440.667,476.5 440,496.5C 437.71,503.617 433.21,508.617 426.5,511.5C 312.5,511.5 198.5,511.5 84.5,511.5C 77.7903,508.617 73.2903,503.617 71,496.5C 70.3333,448.167 70.3333,399.833 71,351.5C 74.0789,328.457 85.2455,310.623 104.5,298C 114.671,293.277 125.004,288.943 135.5,285C 123.175,270.744 118.675,254.244 122,235.5C 123.308,226.385 127.141,218.552 133.5,212C 139.437,208.783 144.937,204.949 150,200.5C 153.472,195.083 155.972,189.249 157.5,183C 142.098,173.466 136.931,159.966 142,142.5C 144.445,136.612 148.112,131.612 153,127.5C 153.153,113.135 153.82,98.8017 155,84.5C 165.584,37.4142 194.418,9.08087 241.5,-0.5 Z M 254.5,14.5 C 297.581,17.4518 325.747,39.4518 339,80.5C 341.221,94.0671 342.054,107.734 341.5,121.5C 325.83,121.667 310.163,121.5 294.5,121C 277.841,119.014 267.341,109.848 263,93.5C 258,88.1667 253,88.1667 248,93.5C 243.685,109.819 233.185,118.985 216.5,121C 200.837,121.5 185.17,121.667 169.5,121.5C 165.359,87.8287 175.359,59.3287 199.5,36C 215.539,22.823 233.872,15.6563 254.5,14.5 Z M 254.5,116.5 C 258.584,120.081 262.584,123.914 266.5,128C 274.695,133.301 283.695,136.301 293.5,137C 300.826,137.5 308.159,137.666 315.5,137.5C 315.667,153.503 315.5,169.503 315,185.5C 306.62,222.54 283.453,239.706 245.5,237C 217.881,231.048 201.381,214.214 196,186.5C 195.5,170.17 195.333,153.837 195.5,137.5C 209.139,138.443 222.472,136.943 235.5,133C 243.575,129.42 249.908,123.92 254.5,116.5 Z M 169.5,137.5 C 172.833,137.5 176.167,137.5 179.5,137.5C 179.5,148.5 179.5,159.5 179.5,170.5C 166.489,172.169 158.489,166.669 155.5,154C 156.816,145.526 161.483,140.026 169.5,137.5 Z M 331.5,137.5 C 344.577,135.856 352.577,141.356 355.5,154C 352.511,166.669 344.511,172.169 331.5,170.5C 331.5,159.5 331.5,148.5 331.5,137.5 Z M 172.5,186.5 C 174.924,186.192 177.257,186.526 179.5,187.5C 182.632,208.438 192.465,225.438 209,238.5C 209.667,244.5 209.667,250.5 209,256.5C 192.459,262.852 175.959,269.352 159.5,276C 153.455,278.658 148.621,277.158 145,271.5C 137.975,261.192 135.642,249.859 138,237.5C 139.087,233.234 140.754,229.234 143,225.5C 155,220.167 163.667,211.5 169,199.5C 170.684,195.284 171.851,190.951 172.5,186.5 Z M 331.5,186.5 C 333.833,186.5 336.167,186.5 338.5,186.5C 340.279,198.559 345.612,208.726 354.5,217C 358.833,219.833 363.167,222.667 367.5,225.5C 375.9,241.472 374.734,256.806 364,271.5C 361.852,274.236 359.186,276.236 356,277.5C 337.904,270.691 319.904,263.691 302,256.5C 301.333,250.5 301.333,244.5 302,238.5C 318.788,225.189 328.622,207.855 331.5,186.5 Z M 225.5,248.5 C 245.172,255.109 264.839,255.109 284.5,248.5C 285.169,253.544 286.002,258.544 287,263.5C 288.5,267 291,269.5 294.5,271C 281.653,284.014 268.653,296.847 255.5,309.5C 242.347,296.847 229.347,284.014 216.5,271C 219.667,269.167 222.167,266.667 224,263.5C 225.25,258.58 225.75,253.58 225.5,248.5 Z M 198.5,277.5 C 215.915,293.412 232.915,309.912 249.5,327C 251.459,327.931 253.459,328.764 255.5,329.5C 257.541,328.764 259.541,327.931 261.5,327C 277.833,310.667 294.167,294.333 310.5,278C 315.496,279.313 320.496,280.979 325.5,283C 303.833,304.667 282.167,326.333 260.5,348C 257.167,350 253.833,350 250.5,348C 228.833,326.333 207.167,304.667 185.5,283C 190.154,281.666 194.487,279.833 198.5,277.5 Z"/></g>
<g><path style="opacity:0.918" fill="#000000" d="M 171.5,378.5 C 186.17,378.333 200.837,378.5 215.5,379C 219.212,381.602 220.378,385.102 219,389.5C 217.891,391.815 216.057,393.315 213.5,394C 200.167,394.667 186.833,394.667 173.5,394C 167.532,391.609 165.698,387.442 168,381.5C 169.145,380.364 170.312,379.364 171.5,378.5 Z"/></g>
<g><path style="opacity:0.916" fill="#000000" d="M 331.5,396.5 C 339.992,395.994 343.659,399.994 342.5,408.5C 349.026,407.251 353.026,409.751 354.5,416C 353.186,422.465 349.186,425.299 342.5,424.5C 342.963,433.207 338.963,436.707 330.5,435C 326.952,432.409 325.618,428.909 326.5,424.5C 317.121,424.639 313.621,420.306 316,411.5C 318.897,408.769 322.397,407.769 326.5,408.5C 325.475,403.233 327.142,399.233 331.5,396.5 Z"/></g>
</svg>
