<?xml version="1.0" encoding="UTF-8"?>
<!DOCTYPE svg PUBLIC "-//W3C//DTD SVG 1.1//EN" "http://www.w3.org/Graphics/SVG/1.1/DTD/svg11.dtd">
<svg xmlns="http://www.w3.org/2000/svg" version="1.1" width="512px" height="512px" style="shape-rendering:geometricPrecision; text-rendering:geometricPrecision; image-rendering:optimizeQuality; fill-rule:evenodd; clip-rule:evenodd" xmlns:xlink="http://www.w3.org/1999/xlink">
<g><path style="opacity:0.947" fill="#000000" d="M 68.5,-0.5 C 73.5,-0.5 78.5,-0.5 83.5,-0.5C 98.5785,5.63401 104.912,16.9673 102.5,33.5C 124.833,33.5 147.167,33.5 169.5,33.5C 167.608,17.2612 173.941,5.9279 188.5,-0.5C 193.5,-0.5 198.5,-0.5 203.5,-0.5C 218.329,5.8903 224.329,17.2236 221.5,33.5C 244.167,33.5 266.833,33.5 289.5,33.5C 286.671,17.2236 292.671,5.8903 307.5,-0.5C 312.5,-0.5 317.5,-0.5 322.5,-0.5C 337.059,5.9279 343.392,17.2612 341.5,33.5C 363.833,33.5 386.167,33.5 408.5,33.5C 406.088,16.9673 412.422,5.63401 427.5,-0.5C 432.5,-0.5 437.5,-0.5 442.5,-0.5C 456.718,6.41991 463.051,17.9199 461.5,34C 488.261,39.9296 504.928,56.0963 511.5,82.5C 511.5,209.167 511.5,335.833 511.5,462.5C 504.833,488.5 488.5,504.833 462.5,511.5C 324.5,511.5 186.5,511.5 48.5,511.5C 22.5,504.833 6.16667,488.5 -0.5,462.5C -0.5,335.833 -0.5,209.167 -0.5,82.5C 6.06362,56.1053 22.7303,39.9386 49.5,34C 47.9488,17.9199 54.2822,6.41991 68.5,-0.5 Z M 72.5,17.5 C 78.1924,16.2601 82.0257,18.2601 84,23.5C 84.6667,36.1667 84.6667,48.8333 84,61.5C 79.3997,68.8202 74.3997,69.1535 69,62.5C 68.3333,49.1667 68.3333,35.8333 69,22.5C 69.9973,20.6769 71.1639,19.0103 72.5,17.5 Z M 192.5,17.5 C 196.909,16.6185 200.409,17.9518 203,21.5C 203.667,35.1667 203.667,48.8333 203,62.5C 197.034,69.292 192.034,68.6253 188,60.5C 187.333,48.1667 187.333,35.8333 188,23.5C 188.804,20.8541 190.304,18.8541 192.5,17.5 Z M 311.5,17.5 C 317.156,16.2428 320.989,18.2428 323,23.5C 323.667,35.8333 323.667,48.1667 323,60.5C 318.966,68.6253 313.966,69.292 308,62.5C 307.333,48.8333 307.333,35.1667 308,21.5C 309.376,20.2949 310.542,18.9616 311.5,17.5 Z M 431.5,17.5 C 436.439,16.3519 439.939,18.0186 442,22.5C 442.667,35.8333 442.667,49.1667 442,62.5C 436.6,69.1535 431.6,68.8202 427,61.5C 426.333,48.8333 426.333,36.1667 427,23.5C 427.599,20.7458 429.099,18.7458 431.5,17.5 Z M 102.5,51.5 C 124.833,51.5 147.167,51.5 169.5,51.5C 168.621,76.1269 180.287,86.9602 204.5,84C 218.417,77.6728 224.083,66.8394 221.5,51.5C 244.167,51.5 266.833,51.5 289.5,51.5C 286.917,66.8394 292.583,77.6728 306.5,84C 330.713,86.9602 342.379,76.1269 341.5,51.5C 363.833,51.5 386.167,51.5 408.5,51.5C 407.621,76.1269 419.287,86.9602 443.5,84C 457.118,77.9376 462.785,67.4376 460.5,52.5C 477.878,57.0447 488.711,68.0447 493,85.5C 493.5,96.495 493.667,107.495 493.5,118.5C 334.833,118.5 176.167,118.5 17.5,118.5C 17.3335,107.162 17.5001,95.8284 18,84.5C 22.7313,67.6018 33.5646,56.9352 50.5,52.5C 48.7938,71.7839 57.4605,82.7839 76.5,85.5C 95.7199,82.4413 104.387,71.1079 102.5,51.5 Z M 17.5,136.5 C 176.167,136.5 334.833,136.5 493.5,136.5C 493.667,244.501 493.5,352.501 493,460.5C 488.167,477.333 477.333,488.167 460.5,493C 323.833,493.667 187.167,493.667 50.5,493C 33.6667,488.167 22.8333,477.333 18,460.5C 17.5,352.501 17.3333,244.501 17.5,136.5 Z M 240.5,179.5 C 298.754,176.54 343.254,199.54 374,248.5C 401.378,303.422 396.378,355.088 359,403.5C 314.6,450.183 262.1,462.349 201.5,440C 145.01,412.21 117.843,366.71 120,303.5C 127.239,248.276 156.405,209.776 207.5,188C 218.356,184.07 229.356,181.236 240.5,179.5 Z M 238.5,247.5 C 249.833,247.5 261.167,247.5 272.5,247.5C 272.03,263.596 272.53,279.596 274,295.5C 274.903,296.701 276.069,297.535 277.5,298C 292.83,298.5 308.163,298.667 323.5,298.5C 323.5,309.5 323.5,320.5 323.5,331.5C 308.496,331.333 293.496,331.5 278.5,332C 276.061,332.774 274.227,334.274 273,336.5C 272.5,352.163 272.333,367.83 272.5,383.5C 261.167,383.5 249.833,383.5 238.5,383.5C 238.667,367.83 238.5,352.163 238,336.5C 236.773,334.274 234.939,332.774 232.5,332C 217.504,331.5 202.504,331.333 187.5,331.5C 187.5,320.5 187.5,309.5 187.5,298.5C 203.596,298.97 219.596,298.47 235.5,297C 236.701,296.097 237.535,294.931 238,293.5C 238.5,278.17 238.667,262.837 238.5,247.5 Z"/></g>
<g><path style="opacity:0.934" fill="#000000" d="M 238.5,161.5 C 304.664,157.828 355.164,183.828 390,239.5C 414.47,286.852 415.803,334.852 394,383.5C 361.941,441.819 312.441,470.319 245.5,469C 181.054,462.206 136.221,429.04 111,369.5C 90.3491,304.942 103.849,248.776 151.5,201C 176.564,179.134 205.564,165.968 238.5,161.5 Z M 240.5,179.5 C 229.356,181.236 218.356,184.07 207.5,188C 156.405,209.776 127.239,248.276 120,303.5C 117.843,366.71 145.01,412.21 201.5,440C 262.1,462.349 314.6,450.183 359,403.5C 396.378,355.088 401.378,303.422 374,248.5C 343.254,199.54 298.754,176.54 240.5,179.5 Z M 238.5,247.5 C 238.667,262.837 238.5,278.17 238,293.5C 237.535,294.931 236.701,296.097 235.5,297C 219.596,298.47 203.596,298.97 187.5,298.5C 187.5,309.5 187.5,320.5 187.5,331.5C 202.504,331.333 217.504,331.5 232.5,332C 234.939,332.774 236.773,334.274 238,336.5C 238.5,352.163 238.667,367.83 238.5,383.5C 249.833,383.5 261.167,383.5 272.5,383.5C 272.333,367.83 272.5,352.163 273,336.5C 274.227,334.274 276.061,332.774 278.5,332C 293.496,331.5 308.496,331.333 323.5,331.5C 323.5,320.5 323.5,309.5 323.5,298.5C 308.163,298.667 292.83,298.5 277.5,298C 276.069,297.535 274.903,296.701 274,295.5C 272.53,279.596 272.03,263.596 272.5,247.5C 261.167,247.5 249.833,247.5 238.5,247.5 Z"/></g>
<g><path style="opacity:0.946" fill="#000000" d="M 233.5,229.5 C 248.17,229.333 262.837,229.5 277.5,230C 284.517,232.352 288.684,237.185 290,244.5C 290.5,256.495 290.667,268.495 290.5,280.5C 302.838,280.333 315.171,280.5 327.5,281C 334.667,282.833 339.167,287.333 341,294.5C 341.667,308.167 341.667,321.833 341,335.5C 339.854,342.294 336.021,346.794 329.5,349C 316.504,349.5 303.504,349.667 290.5,349.5C 290.667,361.505 290.5,373.505 290,385.5C 288.703,395.13 283.203,400.297 273.5,401C 261.5,401.667 249.5,401.667 237.5,401C 227.797,400.297 222.297,395.13 221,385.5C 220.5,373.505 220.333,361.505 220.5,349.5C 207.496,349.667 194.496,349.5 181.5,349C 174.979,346.794 171.146,342.294 170,335.5C 169.333,321.833 169.333,308.167 170,294.5C 171.833,287.333 176.333,282.833 183.5,281C 195.829,280.5 208.162,280.333 220.5,280.5C 220.075,267.106 220.575,253.773 222,240.5C 224.437,235.226 228.271,231.56 233.5,229.5 Z M 238.5,247.5 C 238.667,262.837 238.5,278.17 238,293.5C 237.535,294.931 236.701,296.097 235.5,297C 219.596,298.47 203.596,298.97 187.5,298.5C 187.5,309.5 187.5,320.5 187.5,331.5C 202.504,331.333 217.504,331.5 232.5,332C 234.939,332.774 236.773,334.274 238,336.5C 238.5,352.163 238.667,367.83 238.5,383.5C 249.833,383.5 261.167,383.5 272.5,383.5C 272.333,367.83 272.5,352.163 273,336.5C 274.227,334.274 276.061,332.774 278.5,332C 293.496,331.5 308.496,331.333 323.5,331.5C 323.5,320.5 323.5,309.5 323.5,298.5C 308.163,298.667 292.83,298.5 277.5,298C 276.069,297.535 274.903,296.701 274,295.5C 272.53,279.596 272.03,263.596 272.5,247.5C 261.167,247.5 249.833,247.5 238.5,247.5 Z"/></g>
</svg>
