<?xml version="1.0" encoding="UTF-8"?>
<!DOCTYPE svg PUBLIC "-//W3C//DTD SVG 1.1//EN" "http://www.w3.org/Graphics/SVG/1.1/DTD/svg11.dtd">
<svg xmlns="http://www.w3.org/2000/svg" version="1.1" width="512px" height="512px" style="shape-rendering:geometricPrecision; text-rendering:geometricPrecision; image-rendering:optimizeQuality; fill-rule:evenodd; clip-rule:evenodd" xmlns:xlink="http://www.w3.org/1999/xlink">
<g><path style="opacity:0.936" fill="#000000" d="M 93.5,-0.5 C 99.5,-0.5 105.5,-0.5 111.5,-0.5C 126.116,4.11559 135.782,13.7823 140.5,28.5C 143.768,29.487 147.102,29.8204 150.5,29.5C 154.083,13.584 163.75,3.584 179.5,-0.5C 185.5,-0.5 191.5,-0.5 197.5,-0.5C 212.15,3.98451 221.65,13.6512 226,28.5C 229.333,29.8333 232.667,29.8333 236,28.5C 240.35,13.6512 249.85,3.98451 264.5,-0.5C 270.5,-0.5 276.5,-0.5 282.5,-0.5C 298.209,3.54398 307.876,13.544 311.5,29.5C 314.898,29.8204 318.232,29.487 321.5,28.5C 326.226,13.7736 335.893,4.10691 350.5,-0.5C 356.5,-0.5 362.5,-0.5 368.5,-0.5C 383.107,4.10691 392.774,13.7736 397.5,28.5C 406.178,29.2461 414.845,30.0794 423.5,31C 438.298,35.1315 447.798,44.6315 452,59.5C 452.667,132.167 452.667,204.833 452,277.5C 445.994,283.33 440.994,282.663 437,275.5C 436.5,224.834 436.333,174.168 436.5,123.5C 324.166,123.667 211.833,123.5 99.5,123C 93.4075,120.726 91.5742,116.559 94,110.5C 94.9025,109.299 96.0692,108.465 97.5,108C 210.5,107.5 323.5,107.333 436.5,107.5C 436.667,92.4963 436.5,77.4963 436,62.5C 432.864,53.0308 426.364,47.5308 416.5,46C 390.494,45.1668 364.494,45.3335 338.5,46.5C 343.181,56.0049 350.847,60.8383 361.5,61C 368.663,64.9935 369.33,69.9935 363.5,76C 341.115,77.3129 327.115,67.1463 321.5,45.5C 298.49,45.1669 275.49,45.5003 252.5,46.5C 254.692,50.7327 257.692,54.2327 261.5,57C 267.713,59.2542 273.88,61.4209 280,63.5C 283.64,72.2389 280.806,76.5723 271.5,76.5C 252.565,74.9038 240.565,64.9038 235.5,46.5C 212.507,45.3335 189.507,45.1669 166.5,46C 171.305,56.0712 179.305,61.0712 190.5,61C 197.864,65.6918 198.197,70.6918 191.5,76C 169.748,76.9214 155.748,66.9214 149.5,46C 126.836,45.5 104.169,45.3334 81.5,45.5C 83.4904,51.6641 87.4904,56.1641 93.5,59C 97.0836,60.0734 100.75,60.7401 104.5,61C 111.527,65.1377 112.194,70.1377 106.5,76C 84.1151,77.3129 70.1151,67.1463 64.5,45.5C 56.4393,45.1785 48.4393,45.6785 40.5,47C 33.2417,49.9241 28.4084,55.0908 26,62.5C 25.5001,77.4963 25.3334,92.4963 25.5,107.5C 39.1707,107.333 52.8374,107.5 66.5,108C 72.421,114.395 71.421,119.395 63.5,123C 50.8377,123.5 38.1711,123.667 25.5,123.5C 25.3333,218.167 25.5,312.834 26,407.5C 28.5,415.333 33.6667,420.5 41.5,423C 115.5,423.333 189.5,423.667 263.5,424C 269.158,425.829 270.992,429.663 269,435.5C 268.5,437.333 267.333,438.5 265.5,439C 190.167,439.667 114.833,439.667 39.5,439C 24.1093,435.276 14.276,425.776 10,410.5C 9.33333,293.5 9.33333,176.5 10,59.5C 14.0609,45.1052 23.2276,35.6052 37.5,31C 46.4587,29.7829 55.4587,29.2829 64.5,29.5C 68.7953,14.2062 78.4619,4.20622 93.5,-0.5 Z M 101.5,14.5 C 111.349,15.5149 118.682,20.3483 123.5,29C 109.488,29.8328 95.4881,29.6661 81.5,28.5C 85.8404,20.3435 92.5071,15.6768 101.5,14.5 Z M 187.5,14.5 C 197.349,15.5149 204.682,20.3483 209.5,29C 195.488,29.8328 181.488,29.6661 167.5,28.5C 171.782,20.3643 178.448,15.6977 187.5,14.5 Z M 273.5,14.5 C 283.021,15.4244 290.021,20.091 294.5,28.5C 280.512,29.6661 266.512,29.8328 252.5,29C 257.2,20.6637 264.2,15.8304 273.5,14.5 Z M 353.5,15.5 C 365.541,13.688 374.541,18.0213 380.5,28.5C 366.512,29.6661 352.512,29.8328 338.5,29C 341.827,22.4993 346.827,17.9993 353.5,15.5 Z"/></g>
<g><path style="opacity:0.901" fill="#000000" d="M 79.5,165.5 C 87.1739,165.334 94.8406,165.5 102.5,166C 110.084,170.63 110.418,175.63 103.5,181C 94.8333,181.667 86.1667,181.667 77.5,181C 71.7232,174.844 72.3899,169.677 79.5,165.5 Z"/></g>
<g><path style="opacity:0.905" fill="#000000" d="M 149.5,165.5 C 157.174,165.334 164.841,165.5 172.5,166C 180.084,170.63 180.418,175.63 173.5,181C 164.833,181.667 156.167,181.667 147.5,181C 141.87,174.988 142.537,169.821 149.5,165.5 Z"/></g>
<g><path style="opacity:0.901" fill="#000000" d="M 219.5,165.5 C 227.174,165.334 234.841,165.5 242.5,166C 247.102,168.038 248.936,171.538 248,176.5C 247.167,178.667 245.667,180.167 243.5,181C 234.833,181.667 226.167,181.667 217.5,181C 211.87,174.988 212.537,169.821 219.5,165.5 Z"/></g>
<g><path style="opacity:0.901" fill="#000000" d="M 289.5,165.5 C 297.174,165.334 304.841,165.5 312.5,166C 317.102,168.038 318.936,171.538 318,176.5C 317.167,178.667 315.667,180.167 313.5,181C 304.833,181.667 296.167,181.667 287.5,181C 281.87,174.988 282.537,169.821 289.5,165.5 Z"/></g>
<g><path style="opacity:0.901" fill="#000000" d="M 359.5,165.5 C 367.174,165.334 374.841,165.5 382.5,166C 389.527,170.138 390.194,175.138 384.5,181C 375.833,181.667 367.167,181.667 358.5,181C 353.248,177.914 352.248,173.747 355.5,168.5C 356.901,167.479 358.235,166.479 359.5,165.5 Z"/></g>
<g><path style="opacity:0.901" fill="#000000" d="M 77.5,232.5 C 86.1731,232.334 94.8397,232.5 103.5,233C 110.418,238.37 110.084,243.37 102.5,248C 94.8333,248.667 87.1667,248.667 79.5,248C 72.2807,243.834 71.614,238.668 77.5,232.5 Z"/></g>
<g><path style="opacity:0.901" fill="#000000" d="M 147.5,232.5 C 156.173,232.334 164.84,232.5 173.5,233C 180.401,238.42 180.067,243.42 172.5,248C 164.833,248.667 157.167,248.667 149.5,248C 142.428,243.784 141.761,238.618 147.5,232.5 Z"/></g>
<g><path style="opacity:0.901" fill="#000000" d="M 217.5,232.5 C 226.173,232.334 234.84,232.5 243.5,233C 248.752,236.086 249.752,240.253 246.5,245.5C 245.335,246.584 244.002,247.417 242.5,248C 234.833,248.667 227.167,248.667 219.5,248C 212.406,243.693 211.74,238.526 217.5,232.5 Z"/></g>
<g><path style="opacity:0.903" fill="#000000" d="M 288.5,232.5 C 296.84,232.334 305.173,232.5 313.5,233C 318.752,236.086 319.752,240.253 316.5,245.5C 315.335,246.584 314.002,247.417 312.5,248C 304.833,248.667 297.167,248.667 289.5,248C 281.97,243.215 281.637,238.048 288.5,232.5 Z"/></g>
<g><path style="opacity:0.903" fill="#000000" d="M 358.5,232.5 C 366.84,232.334 375.173,232.5 383.5,233C 388.752,236.086 389.752,240.253 386.5,245.5C 385.335,246.584 384.002,247.417 382.5,248C 374.833,248.667 367.167,248.667 359.5,248C 351.97,243.215 351.637,238.048 358.5,232.5 Z"/></g>
<g><path style="opacity:0.928" fill="#000000" d="M 405.5,511.5 C 395.833,511.5 386.167,511.5 376.5,511.5C 322.849,501.349 291.016,469.349 281,415.5C 279.445,399.241 280.778,383.241 285,367.5C 288.179,359.146 291.346,350.813 294.5,342.5C 290.495,332.155 285.661,322.155 280,312.5C 278.167,295.667 285.667,288.167 302.5,290C 310.752,293.931 318.752,298.265 326.5,303C 328.649,303.579 330.815,304.079 333,304.5C 341.099,301.202 349.266,298.035 357.5,295C 407.569,282.135 448.736,295.635 481,335.5C 499.937,363.184 505.937,393.518 499,426.5C 489.879,461.958 468.712,487.458 435.5,503C 425.64,506.794 415.64,509.628 405.5,511.5 Z M 295.5,305.5 C 304.048,309.107 312.381,313.274 320.5,318C 327.397,320.738 334.397,321.071 341.5,319C 383.407,297.897 422.074,302.564 457.5,333C 489.27,368.735 494.103,407.902 472,450.5C 445.39,489.046 409.224,502.88 363.5,492C 316.28,473.752 294.114,439.252 297,388.5C 298.509,376.462 302.176,365.128 308,354.5C 311.333,346.5 311.333,338.5 308,330.5C 303.274,322.381 299.107,314.048 295.5,305.5 Z M 385.5,360.5 C 389.182,360.335 392.848,360.501 396.5,361C 397.308,361.308 397.975,361.808 398.5,362.5C 399.303,370.451 399.803,378.451 400,386.5C 400.785,388.286 401.951,389.786 403.5,391C 412.113,392.137 420.78,392.97 429.5,393.5C 430.494,398.456 430.827,403.456 430.5,408.5C 421.431,408.971 412.431,409.805 403.5,411C 401.951,412.214 400.785,413.714 400,415.5C 399.741,423.867 399.241,432.2 398.5,440.5C 393.456,440.827 388.456,440.494 383.5,439.5C 382.697,431.549 382.197,423.549 382,415.5C 381.215,413.714 380.049,412.214 378.5,411C 369.569,409.805 360.569,408.971 351.5,408.5C 351.173,403.456 351.506,398.456 352.5,393.5C 360.451,392.697 368.451,392.197 376.5,392C 378.286,391.215 379.786,390.049 381,388.5C 382.273,380.269 382.94,371.936 383,363.5C 383.698,362.309 384.531,361.309 385.5,360.5 Z"/></g>
<g><path style="opacity:0.899" fill="#000000" d="M 79.5,298.5 C 87.1739,298.334 94.8406,298.5 102.5,299C 110.067,303.58 110.401,308.58 103.5,314C 95.1667,314.667 86.8333,314.667 78.5,314C 73.4648,310.987 72.2981,306.82 75,301.5C 76.4087,300.219 77.9087,299.219 79.5,298.5 Z"/></g>
<g><path style="opacity:0.899" fill="#000000" d="M 149.5,298.5 C 157.174,298.334 164.841,298.5 172.5,299C 180.067,303.58 180.401,308.58 173.5,314C 165.167,314.667 156.833,314.667 148.5,314C 143.465,310.987 142.298,306.82 145,301.5C 146.409,300.219 147.909,299.219 149.5,298.5 Z"/></g>
<g><path style="opacity:0.901" fill="#000000" d="M 219.5,298.5 C 227.174,298.334 234.841,298.5 242.5,299C 250.067,303.58 250.401,308.58 243.5,314C 235.167,314.667 226.833,314.667 218.5,314C 213.432,311.017 212.265,306.851 215,301.5C 216.409,300.219 217.909,299.219 219.5,298.5 Z"/></g>
<g><path style="opacity:0.945" fill="#000000" d="M 379.5,345.5 C 405.833,339.626 417.833,349.959 415.5,376.5C 442.176,374.099 452.343,386.099 446,412.5C 444.167,418.333 440.333,422.167 434.5,424C 428.175,424.5 421.842,424.666 415.5,424.5C 418.104,451.393 406.104,461.893 379.5,456C 372.127,453.42 367.96,448.254 367,440.5C 366.501,435.177 366.334,429.844 366.5,424.5C 360.158,424.666 353.825,424.5 347.5,424C 337.741,419.487 333.741,411.82 335.5,401C 333.633,388.041 338.966,380.041 351.5,377C 356.489,376.501 361.489,376.334 366.5,376.5C 365.988,368.995 366.822,361.661 369,354.5C 371.505,350.189 375.005,347.189 379.5,345.5 Z M 385.5,360.5 C 384.531,361.309 383.698,362.309 383,363.5C 382.94,371.936 382.273,380.269 381,388.5C 379.786,390.049 378.286,391.215 376.5,392C 368.451,392.197 360.451,392.697 352.5,393.5C 351.506,398.456 351.173,403.456 351.5,408.5C 360.569,408.971 369.569,409.805 378.5,411C 380.049,412.214 381.215,413.714 382,415.5C 382.197,423.549 382.697,431.549 383.5,439.5C 388.456,440.494 393.456,440.827 398.5,440.5C 399.241,432.2 399.741,423.867 400,415.5C 400.785,413.714 401.951,412.214 403.5,411C 412.431,409.805 421.431,408.971 430.5,408.5C 430.827,403.456 430.494,398.456 429.5,393.5C 420.78,392.97 412.113,392.137 403.5,391C 401.951,389.786 400.785,388.286 400,386.5C 399.803,378.451 399.303,370.451 398.5,362.5C 397.975,361.808 397.308,361.308 396.5,361C 392.848,360.501 389.182,360.335 385.5,360.5 Z"/></g>
<g><path style="opacity:0.906" fill="#000000" d="M 77.5,365.5 C 86.5062,365.334 95.5062,365.5 104.5,366C 110.475,372.429 109.475,377.429 101.5,381C 94.5,381.667 87.5,381.667 80.5,381C 72.5211,377.271 71.5211,372.105 77.5,365.5 Z"/></g>
<g><path style="opacity:0.905" fill="#000000" d="M 147.5,365.5 C 156.506,365.334 165.506,365.5 174.5,366C 180.421,372.395 179.421,377.395 171.5,381C 164.5,381.667 157.5,381.667 150.5,381C 142.521,377.271 141.521,372.105 147.5,365.5 Z"/></g>
<g><path style="opacity:0.904" fill="#000000" d="M 217.5,365.5 C 226.506,365.334 235.506,365.5 244.5,366C 250.421,372.395 249.421,377.395 241.5,381C 234.5,381.667 227.5,381.667 220.5,381C 212.521,377.271 211.521,372.105 217.5,365.5 Z"/></g>
</svg>
