<?xml version="1.0" encoding="UTF-8"?>
<!DOCTYPE svg PUBLIC "-//W3C//DTD SVG 1.1//EN" "http://www.w3.org/Graphics/SVG/1.1/DTD/svg11.dtd">
<svg xmlns="http://www.w3.org/2000/svg" version="1.1" width="512px" height="512px" style="shape-rendering:geometricPrecision; text-rendering:geometricPrecision; image-rendering:optimizeQuality; fill-rule:evenodd; clip-rule:evenodd" xmlns:xlink="http://www.w3.org/1999/xlink">
<g><path style="opacity:0.939" fill="#000000" d="M 511.5,213.5 C 511.5,222.5 511.5,231.5 511.5,240.5C 508.545,255.847 502.378,269.847 493,282.5C 479.833,295.667 466.667,308.833 453.5,322C 442.958,324.113 439.458,319.946 443,309.5C 456.696,296.138 470.029,282.471 483,268.5C 496.087,248.308 499.087,226.641 492,203.5C 473.973,164.239 443.806,149.739 401.5,160C 393.054,163.054 385.388,167.387 378.5,173C 372.167,179.333 365.833,185.667 359.5,192C 355.258,194.202 351.258,193.869 347.5,191C 340.833,184.333 334.167,177.667 327.5,171C 305.966,155.621 282.632,152.287 257.5,161C 221.631,178.571 207.465,207.071 215,246.5C 217.921,257.011 222.921,266.345 230,274.5C 271.333,315.833 312.667,357.167 354,398.5C 375.833,376.667 397.667,354.833 419.5,333C 429.946,329.458 434.113,332.958 432,343.5C 407.5,368 383,392.5 358.5,417C 355.55,418.714 352.55,418.714 349.5,417C 339.333,406.833 329.167,396.667 319,386.5C 318.956,413.541 318.289,440.541 317,467.5C 314.219,477.913 307.719,484.746 297.5,488C 206.535,489.654 115.535,489.987 24.5,489C 12.2724,486.267 3.93903,479.1 -0.5,467.5C -0.5,409.167 -0.5,350.833 -0.5,292.5C 3.01799,288.3 7.35132,287.467 12.5,290C 13.1258,290.75 13.6258,291.584 14,292.5C 14.3333,348.167 14.6667,403.833 15,459.5C 15.934,466.436 19.7673,470.936 26.5,473C 114.5,473.667 202.5,473.667 290.5,473C 296.776,471.058 300.61,466.891 302,460.5C 302.667,430.167 302.667,399.833 302,369.5C 272.305,340.139 242.972,310.472 214,280.5C 196.358,255.349 192.025,228.016 201,198.5C 216.091,161.536 243.591,142.203 283.5,140.5C 289.806,140.35 295.973,141.016 302,142.5C 302.667,127.5 302.667,112.5 302,97.5C 300.5,90.6667 296.333,86.5 289.5,85C 278.172,84.5001 266.838,84.3335 255.5,84.5C 252.611,95.2293 245.945,102.729 235.5,107C 214.543,108.608 193.543,108.942 172.5,108C 166.741,104.108 166.074,99.4414 170.5,94C 189.744,92.691 209.077,92.0243 228.5,92C 241.136,86.572 243.803,78.072 236.5,66.5C 234.549,64.3776 232.215,62.8776 229.5,62C 218.5,61.6667 207.5,61.3333 196.5,61C 195.167,60.3333 193.833,59.6667 192.5,59C 191.3,53.6476 189.466,48.4809 187,43.5C 185.269,41.3834 183.102,39.8834 180.5,39C 173.241,37.8866 165.908,37.3866 158.5,37.5C 151.092,37.3866 143.759,37.8866 136.5,39C 129.582,42.6524 126.082,48.4857 126,56.5C 125.535,57.9308 124.701,59.0975 123.5,60C 111.57,61.2715 99.5705,61.9382 87.5,62C 76.9001,67.0319 74.0668,74.8652 79,85.5C 81.3649,88.8691 84.5315,91.0357 88.5,92C 107.923,92.0243 127.256,92.691 146.5,94C 150.926,99.4414 150.259,104.108 144.5,108C 123.782,108.953 103.115,108.62 82.5,107C 71.5068,103.175 64.5068,95.6751 61.5,84.5C 50.1618,84.3335 38.8284,84.5001 27.5,85C 21.8733,85.9572 18.04,89.1239 16,94.5C 14.6867,151.797 14.02,209.13 14,266.5C 9.17715,271.728 4.34382,271.728 -0.5,266.5C -0.5,208.167 -0.5,149.833 -0.5,91.5C 3.73997,78.4368 12.74,70.9368 26.5,69C 38.1809,68.8325 49.8476,68.3325 61.5,67.5C 65.3145,56.2519 72.9812,49.0852 84.5,46C 93.5184,45.832 102.518,45.332 111.5,44.5C 114.993,33.8414 121.993,26.6747 132.5,23C 149.833,21 167.167,21 184.5,23C 195.034,26.7004 202.034,33.8671 205.5,44.5C 214.482,45.332 223.482,45.832 232.5,46C 244.198,48.8651 251.865,56.0318 255.5,67.5C 267.152,68.3325 278.819,68.8325 290.5,69C 303.806,70.6379 312.639,77.8046 317,90.5C 318.088,109.472 318.921,128.472 319.5,147.5C 333.084,153.724 344.584,162.724 354,174.5C 386.893,138.434 425.393,130.934 469.5,152C 492.07,166.638 506.07,187.138 511.5,213.5 Z M 53.5,160.5 C 65.1667,160.5 76.8333,160.5 88.5,160.5C 88.5,172.167 88.5,183.833 88.5,195.5C 76.8333,195.5 65.1667,195.5 53.5,195.5C 53.5,183.833 53.5,172.167 53.5,160.5 Z M 53.5,361.5 C 65.1667,361.5 76.8333,361.5 88.5,361.5C 88.5,373.167 88.5,384.833 88.5,396.5C 76.8333,396.5 65.1667,396.5 53.5,396.5C 53.5,384.833 53.5,373.167 53.5,361.5 Z"/></g>
<g><path style="opacity:0.949" fill="#000000" d="M 41.5,145.5 C 61.1695,145.333 80.8362,145.5 100.5,146C 101.333,146.833 102.167,147.667 103,148.5C 104.641,167.743 104.975,187.077 104,206.5C 103.535,207.931 102.701,209.097 101.5,210C 81.9231,211.642 62.2564,211.975 42.5,211C 41.0692,210.535 39.9025,209.701 39,208.5C 37.3588,189.257 37.0255,169.923 38,150.5C 38.9973,148.677 40.1639,147.01 41.5,145.5 Z M 53.5,160.5 C 53.5,172.167 53.5,183.833 53.5,195.5C 65.1667,195.5 76.8333,195.5 88.5,195.5C 88.5,183.833 88.5,172.167 88.5,160.5C 76.8333,160.5 65.1667,160.5 53.5,160.5 Z"/></g>
<g><path style="opacity:0.924" fill="#000000" d="M 127.5,153.5 C 150.502,153.333 173.502,153.5 196.5,154C 203.527,158.138 204.194,163.138 198.5,169C 174.167,169.667 149.833,169.667 125.5,169C 121.247,165.58 120.413,161.413 123,156.5C 124.409,155.219 125.909,154.219 127.5,153.5 Z"/></g>
<g><path style="opacity:0.923" fill="#000000" d="M 128.5,186.5 C 145.503,186.333 162.503,186.5 179.5,187C 184.906,188.98 186.739,192.814 185,198.5C 184.5,200.333 183.333,201.5 181.5,202C 162.833,202.667 144.167,202.667 125.5,202C 121.018,198.295 120.351,193.962 123.5,189C 125.315,188.243 126.981,187.41 128.5,186.5 Z"/></g>
<g><path style="opacity:0.928" fill="#000000" d="M 333.5,212.5 C 337.803,211.796 341.303,213.13 344,216.5C 352.469,241.575 361.136,266.575 370,291.5C 373.592,283.309 376.925,274.976 380,266.5C 380.774,264.061 382.274,262.227 384.5,261C 405.833,260.333 427.167,260.333 448.5,261C 453.224,263.435 454.724,267.269 453,272.5C 451.786,274.049 450.286,275.215 448.5,276C 430.158,276.167 411.824,276.667 393.5,277.5C 387.569,292.127 381.735,306.794 376,321.5C 371.409,324.367 367.076,324.034 363,320.5C 353.803,294.575 344.803,268.575 336,242.5C 330.744,252.68 325.744,263.014 321,273.5C 320.097,274.701 318.931,275.535 317.5,276C 297.41,276.975 277.41,276.642 257.5,275C 253.191,269.58 253.858,264.914 259.5,261C 276.177,260.833 292.843,260.333 309.5,259.5C 316.607,244.954 323.44,230.287 330,215.5C 331.145,214.364 332.312,213.364 333.5,212.5 Z"/></g>
<g><path style="opacity:0.95" fill="#000000" d="M 42.5,245.5 C 61.5029,245.333 80.5029,245.5 99.5,246C 100.931,246.465 102.097,247.299 103,248.5C 104.641,267.743 104.975,287.077 104,306.5C 103.215,308.286 102.049,309.786 100.5,311C 80.8333,311.667 61.1667,311.667 41.5,311C 40.6667,310.167 39.8333,309.333 39,308.5C 37.3588,289.257 37.0255,269.923 38,250.5C 39.025,248.313 40.525,246.646 42.5,245.5 Z M 53.5,261.5 C 65.1667,261.5 76.8333,261.5 88.5,261.5C 88.5,273.167 88.5,284.833 88.5,296.5C 76.8333,296.5 65.1667,296.5 53.5,296.5C 53.5,284.833 53.5,273.167 53.5,261.5 Z"/></g>
<g><path style="opacity:0.923" fill="#000000" d="M 125.5,254.5 C 144.17,254.333 162.836,254.5 181.5,255C 185.212,257.513 186.378,261.013 185,265.5C 184.065,268.102 182.232,269.602 179.5,270C 162.5,270.667 145.5,270.667 128.5,270C 122.347,268.535 120.18,264.702 122,258.5C 123.376,257.295 124.542,255.962 125.5,254.5 Z"/></g>
<g><path style="opacity:0.921" fill="#000000" d="M 125.5,287.5 C 144.17,287.333 162.836,287.5 181.5,288C 185.212,290.513 186.378,294.013 185,298.5C 184.065,301.102 182.232,302.602 179.5,303C 162.167,303.667 144.833,303.667 127.5,303C 122.094,301.02 120.261,297.186 122,291.5C 123.376,290.295 124.542,288.962 125.5,287.5 Z"/></g>
<g><path style="opacity:0.933" fill="#000000" d="M 42.5,345.5 C 61.1696,345.333 79.8363,345.5 98.5,346C 101.542,346.555 103.375,348.388 104,351.5C 104.667,369.833 104.667,388.167 104,406.5C 103.167,409.333 101.333,411.167 98.5,412C 80.1667,412.667 61.8333,412.667 43.5,412C 41.6711,411.727 40.1711,410.893 39,409.5C 37.3583,389.923 37.025,370.256 38,350.5C 39.025,348.313 40.525,346.646 42.5,345.5 Z M 53.5,361.5 C 53.5,373.167 53.5,384.833 53.5,396.5C 65.1667,396.5 76.8333,396.5 88.5,396.5C 88.5,384.833 88.5,373.167 88.5,361.5C 76.8333,361.5 65.1667,361.5 53.5,361.5 Z"/></g>
<g><path style="opacity:0.924" fill="#000000" d="M 126.5,354.5 C 153.835,354.333 181.169,354.5 208.5,355C 213.535,358.013 214.702,362.18 212,367.5C 211.097,368.701 209.931,369.535 208.5,370C 181.167,370.667 153.833,370.667 126.5,370C 121.931,367.459 120.431,363.625 122,358.5C 123.397,356.93 124.897,355.596 126.5,354.5 Z"/></g>
<g><path style="opacity:0.923" fill="#000000" d="M 126.5,387.5 C 144.503,387.333 162.503,387.5 180.5,388C 185.224,390.435 186.724,394.269 185,399.5C 183.786,401.049 182.286,402.215 180.5,403C 162.5,403.667 144.5,403.667 126.5,403C 121.465,399.987 120.298,395.82 123,390.5C 124.145,389.364 125.312,388.364 126.5,387.5 Z"/></g>
</svg>
