<?xml version="1.0" encoding="UTF-8"?>
<!DOCTYPE svg PUBLIC "-//W3C//DTD SVG 1.1//EN" "http://www.w3.org/Graphics/SVG/1.1/DTD/svg11.dtd">
<svg xmlns="http://www.w3.org/2000/svg" version="1.1" width="512px" height="512px" style="shape-rendering:geometricPrecision; text-rendering:geometricPrecision; image-rendering:optimizeQuality; fill-rule:evenodd; clip-rule:evenodd" xmlns:xlink="http://www.w3.org/1999/xlink">
<g><path style="opacity:0.936" fill="#000000" d="M 177.5,15.5 C 224.571,11.776 258.738,30.776 280,72.5C 287.112,90.5207 289.446,109.187 287,128.5C 286.339,134.471 285.172,140.305 283.5,146C 294.458,153.773 298.291,164.273 295,177.5C 289.698,195.307 277.865,205.307 259.5,207.5C 256.025,218.823 249.858,228.49 241,236.5C 240.667,251.167 240.333,265.833 240,280.5C 233.507,297.346 221.341,307.512 203.5,311C 185.803,314.241 169.803,310.574 155.5,300C 150.498,295.329 146.665,289.829 144,283.5C 143.667,268.167 143.333,252.833 143,237.5C 133.723,229.273 127.223,219.273 123.5,207.5C 104.767,205.564 92.9332,195.564 88,177.5C 83.994,156.859 92.3273,145.192 113,142.5C 115.187,142.788 117.354,143.122 119.5,143.5C 119.334,139.486 119.501,135.486 120,131.5C 120.5,129.667 121.667,128.5 123.5,128C 142.769,126.704 162.102,126.037 181.5,126C 191.203,121.962 197.87,114.962 201.5,105C 205.5,103 209.5,103 213.5,105C 221.517,124.178 235.851,131.511 256.5,127C 259.494,127.406 261.661,128.906 263,131.5C 263.499,135.486 263.666,139.486 263.5,143.5C 264.822,143.67 265.989,143.337 267,142.5C 276.937,107.75 269.437,77.5834 244.5,52C 209.167,24.6667 173.833,24.6667 138.5,52C 118.277,72.005 109.111,96.1716 111,124.5C 105.643,128.787 100.643,128.453 96,123.5C 92.4042,82.1946 107.904,50.3613 142.5,28C 153.611,21.91 165.278,17.7433 177.5,15.5 Z M 206.5,129.5 C 211.447,134.26 217.114,138.094 223.5,141C 230.997,143.199 238.663,144.032 246.5,143.5C 246.667,160.17 246.5,176.837 246,193.5C 237.009,226.259 215.509,241.092 181.5,238C 157.333,232.5 142.5,217.667 137,193.5C 136.5,176.837 136.333,160.17 136.5,143.5C 152.503,143.667 168.503,143.5 184.5,143C 193.628,141.276 200.962,136.776 206.5,129.5 Z M 111.5,159.5 C 114.374,159.623 116.874,160.623 119,162.5C 118.709,171.48 118.709,180.48 119,189.5C 107.931,184.762 103.264,176.428 105,164.5C 106.805,162.174 108.972,160.508 111.5,159.5 Z M 268.5,159.5 C 277.495,160.681 280.662,165.681 278,174.5C 275.733,181.766 271.066,186.766 264,189.5C 264.502,180.979 264.335,172.479 263.5,164C 264.43,161.565 266.097,160.065 268.5,159.5 Z M 159.5,248.5 C 175.167,255.561 191.5,257.394 208.5,254C 213.651,252.951 218.484,251.117 223,248.5C 223.667,258.167 223.667,267.833 223,277.5C 216.045,289.563 205.545,295.23 191.5,294.5C 177.455,295.23 166.955,289.563 160,277.5C 159.5,267.839 159.334,258.172 159.5,248.5 Z"/></g>
<g><path style="opacity:0.941" fill="#000000" d="M 358.5,46.5 C 362.221,46.7833 365.054,48.45 367,51.5C 367.667,64.8333 367.667,78.1667 367,91.5C 366.5,93.3333 365.333,94.5 363.5,95C 359.171,96.1515 355.338,95.3181 352,92.5C 350.925,88.23 350.425,83.8967 350.5,79.5C 345.34,78.9114 340.84,80.2447 337,83.5C 336.667,84.8333 336.333,86.1667 336,87.5C 335.333,106.5 335.333,125.5 336,144.5C 338.619,179.778 356.785,202.611 390.5,213C 427.975,219.345 455.475,205.845 473,172.5C 476.79,163.549 478.79,154.216 479,144.5C 479.667,125.5 479.667,106.5 479,87.5C 478.934,84.7244 477.768,82.5577 475.5,81C 471.914,79.8924 468.247,79.3924 464.5,79.5C 464.807,84.3825 463.974,89.0492 462,93.5C 458.744,95.4285 455.244,95.9285 451.5,95C 449.667,94.5 448.5,93.3333 448,91.5C 447.333,77.8333 447.333,64.1667 448,50.5C 453,45.1667 458,45.1667 463,50.5C 464.075,54.77 464.575,59.1033 464.5,63.5C 479.367,61.0115 489.534,66.6782 495,80.5C 496.597,101.796 496.93,123.129 496,144.5C 491.958,194.041 465.458,223.041 416.5,231.5C 416.667,269.168 416.5,306.835 416,344.5C 414.599,364.813 404.099,377.647 384.5,383C 346.501,383.5 308.501,383.667 270.5,383.5C 264.245,402.215 251.245,410.049 231.5,407C 210.01,398.846 202.843,383.68 210,361.5C 220.888,343.872 236.055,339.039 255.5,347C 263.421,351.746 268.421,358.58 270.5,367.5C 297.167,367.5 323.833,367.5 350.5,367.5C 344.722,326.886 322.055,301.053 282.5,290C 274.509,288.94 266.509,287.94 258.5,287C 253.167,282 253.167,277 258.5,272C 301.08,270.537 333.246,288.037 355,324.5C 362.309,337.925 366.475,352.258 367.5,367.5C 381.823,368.929 391.99,363.262 398,350.5C 399.458,310.864 399.958,271.197 399.5,231.5C 361.702,226.53 336.202,206.197 323,170.5C 320.373,162.033 319.04,153.366 319,144.5C 318.07,123.129 318.403,101.796 320,80.5C 325.466,66.6782 335.633,61.0115 350.5,63.5C 350.425,59.1033 350.925,54.77 352,50.5C 353.792,48.372 355.958,47.0387 358.5,46.5 Z M 238.5,359.5 C 252.967,362.433 257.467,370.766 252,384.5C 245.749,391.011 238.582,392.177 230.5,388C 222.5,379.667 222.5,371.333 230.5,363C 233.158,361.522 235.825,360.355 238.5,359.5 Z"/></g>
<g><path style="opacity:0.975" fill="#000000" d="M 104.5,271.5 C 111.175,271.334 117.842,271.5 124.5,272C 129.833,277 129.833,282 124.5,287C 86.1223,287.758 57.9557,304.924 40,338.5C 36.6545,346.203 34.3211,354.203 33,362.5C 31.6552,385.477 31.1552,408.477 31.5,431.5C 44.8333,431.5 58.1667,431.5 71.5,431.5C 71.3335,421.828 71.5002,412.161 72,402.5C 77,397.167 82,397.167 87,402.5C 88.4532,428.123 88.9532,453.79 88.5,479.5C 157.5,479.5 226.5,479.5 295.5,479.5C 295.333,454.164 295.5,428.831 296,403.5C 300.52,397.296 305.52,396.963 311,402.5C 312.359,412.109 312.859,421.776 312.5,431.5C 325.5,431.5 338.5,431.5 351.5,431.5C 351.334,421.828 351.5,412.161 352,402.5C 357,397.167 362,397.167 367,402.5C 367.667,432.167 367.667,461.833 367,491.5C 366.5,493.333 365.333,494.5 363.5,495C 248.086,495.996 132.753,495.663 17.5,494C 16.8742,493.25 16.3742,492.416 16,491.5C 15.3333,447.833 15.3333,404.167 16,360.5C 25.6797,310.987 55.1797,281.321 104.5,271.5 Z M 31.5,447.5 C 44.8333,447.5 58.1667,447.5 71.5,447.5C 71.5,458.167 71.5,468.833 71.5,479.5C 58.1667,479.5 44.8333,479.5 31.5,479.5C 31.5,468.833 31.5,458.167 31.5,447.5 Z M 312.5,447.5 C 325.5,447.5 338.5,447.5 351.5,447.5C 351.5,458.167 351.5,468.833 351.5,479.5C 338.5,479.5 325.5,479.5 312.5,479.5C 312.5,468.833 312.5,458.167 312.5,447.5 Z"/></g>
</svg>
