<?xml version="1.0" encoding="UTF-8"?>
<!DOCTYPE svg PUBLIC "-//W3C//DTD SVG 1.1//EN" "http://www.w3.org/Graphics/SVG/1.1/DTD/svg11.dtd">
<svg xmlns="http://www.w3.org/2000/svg" version="1.1" width="512px" height="512px" style="shape-rendering:geometricPrecision; text-rendering:geometricPrecision; image-rendering:optimizeQuality; fill-rule:evenodd; clip-rule:evenodd" xmlns:xlink="http://www.w3.org/1999/xlink">
<g><path style="opacity:0.937" fill="#000000" d="M 360.5,-0.5 C 370.833,-0.5 381.167,-0.5 391.5,-0.5C 396.792,4.66822 396.792,9.83489 391.5,15C 385.509,15.4995 379.509,15.6662 373.5,15.5C 373.333,40.1689 373.5,64.8356 374,89.5C 380.969,121.799 400.969,139.132 434,141.5C 466.108,139.394 486.108,122.727 494,91.5C 495.387,66.1914 495.887,40.8581 495.5,15.5C 490.821,15.6658 486.155,15.4992 481.5,15C 474.914,9.83975 474.914,4.67308 481.5,-0.5C 490.167,-0.5 498.833,-0.5 507.5,-0.5C 509.167,0.5 510.5,1.83333 511.5,3.5C 511.5,33.5 511.5,63.5 511.5,93.5C 503.079,130.163 480.246,151.829 443,158.5C 446.681,217.436 431.014,270.436 396,317.5C 377.345,340.83 354.179,357.997 326.5,369C 301.032,378.548 275.032,380.548 248.5,375C 215.319,363.493 196.152,340.326 191,305.5C 188.663,254.977 212.163,224.477 261.5,214C 286.607,210.777 309.94,215.777 331.5,229C 352.768,242.596 371.935,258.762 389,277.5C 391.841,287.662 388.008,291.828 377.5,290C 360.498,270.981 341.165,254.981 319.5,242C 288.587,224.485 258.587,225.819 229.5,246C 207.33,268.155 201.83,293.989 213,323.5C 225.491,348.173 245.658,360.84 273.5,361.5C 316.831,358.918 352.664,341.251 381,308.5C 407.548,276.377 422.214,239.377 425,197.5C 425.5,184.171 425.667,170.837 425.5,157.5C 395.713,153.554 374.546,137.888 362,110.5C 359.551,104.37 357.884,98.037 357,91.5C 356.333,62.1667 356.333,32.8333 357,3.5C 358.376,2.29493 359.542,0.961599 360.5,-0.5 Z"/></g>
<g><path style="opacity:0.938" fill="#000000" d="M 114.5,66.5 C 146.896,66.0217 179.229,66.5217 211.5,68C 213.894,69.9522 215.394,72.4522 216,75.5C 217.842,83.8699 219.842,92.2033 222,100.5C 223.379,106.916 220.879,110.749 214.5,112C 178.107,112.981 141.773,112.647 105.5,111C 103.667,110.5 102.5,109.333 102,107.5C 102.726,95.2508 105.059,83.2508 109,71.5C 110.352,69.251 112.185,67.5844 114.5,66.5 Z M 123.5,83.5 C 149.167,83.5 174.833,83.5 200.5,83.5C 201.112,87.45 202.112,91.2834 203.5,95C 175.827,95.8332 148.161,95.6665 120.5,94.5C 121.377,90.7721 122.377,87.1055 123.5,83.5 Z"/></g>
<g><path style="opacity:0.985" fill="#000000" d="M 320.5,511.5 C 214.833,511.5 109.167,511.5 3.5,511.5C 1.83333,510.5 0.5,509.167 -0.5,507.5C -0.5,371.5 -0.5,235.5 -0.5,99.5C 0.316435,97.8564 1.64977,96.6897 3.5,96C 31.5,95.3333 59.5,95.3333 87.5,96C 92.0076,100.053 92.6743,104.72 89.5,110C 87.913,110.862 86.2464,111.529 84.5,112C 61.5024,112.5 38.5024,112.667 15.5,112.5C 15.5,240.167 15.5,367.833 15.5,495.5C 112.833,495.5 210.167,495.5 307.5,495.5C 307.333,459.832 307.5,424.165 308,388.5C 312.825,380.939 318.159,380.606 324,387.5C 324.667,427.167 324.667,466.833 324,506.5C 323.003,508.323 321.836,509.99 320.5,511.5 Z"/></g>
<g><path style="opacity:0.937" fill="#000000" d="M 236.5,95.5 C 264.502,95.3334 292.502,95.5 320.5,96C 321.333,96.8333 322.167,97.6667 323,98.5C 324.652,131.748 324.986,165.081 324,198.5C 323.215,200.286 322.049,201.786 320.5,203C 317.5,203.667 314.5,203.667 311.5,203C 309.951,201.786 308.785,200.286 308,198.5C 307.5,169.835 307.333,141.169 307.5,112.5C 284.831,112.667 262.164,112.5 239.5,112C 233.839,110.18 231.672,106.347 233,100.5C 233.997,98.6769 235.164,97.0103 236.5,95.5 Z"/></g>
<g><path style="opacity:0.94" fill="#000000" d="M 34.5,122.5 C 120.544,122.011 206.544,122.511 292.5,124C 294.049,125.214 295.215,126.714 296,128.5C 296.667,151.833 296.667,175.167 296,198.5C 294.601,202.238 291.934,203.904 288,203.5C 284.066,203.904 281.399,202.238 280,198.5C 279.5,178.836 279.333,159.169 279.5,139.5C 200.833,139.5 122.167,139.5 43.5,139.5C 43.5,248.833 43.5,358.167 43.5,467.5C 122.167,467.5 200.833,467.5 279.5,467.5C 279.333,443.164 279.5,418.831 280,394.5C 282.97,388.633 287.47,387.133 293.5,390C 294.701,390.903 295.535,392.069 296,393.5C 296.667,422.167 296.667,450.833 296,479.5C 294.833,480.667 293.667,481.833 292.5,483C 206.557,484.659 120.557,484.992 34.5,484C 30,483.5 27.5,481 27,476.5C 26.3333,361.167 26.3333,245.833 27,130.5C 27.6804,125.989 30.1804,123.323 34.5,122.5 Z"/></g>
<g><path style="opacity:0.933" fill="#000000" d="M 76.5,184.5 C 121.835,184.333 167.168,184.5 212.5,185C 217.609,188.366 218.776,192.866 216,198.5C 215.097,199.701 213.931,200.535 212.5,201C 167.167,201.667 121.833,201.667 76.5,201C 72.7623,199.601 71.0956,196.934 71.5,193C 71.3082,189.035 72.9749,186.201 76.5,184.5 Z"/></g>
<g><path style="opacity:0.932" fill="#000000" d="M 77.5,240.5 C 108.835,240.333 140.168,240.5 171.5,241C 178.16,243.49 179.993,247.99 177,254.5C 176.097,255.701 174.931,256.535 173.5,257C 140.833,257.667 108.167,257.667 75.5,257C 71.2119,253.229 70.3786,248.729 73,243.5C 74.4087,242.219 75.9087,241.219 77.5,240.5 Z"/></g>
<g><path style="opacity:0.93" fill="#000000" d="M 286.5,240.5 C 290.585,240.459 293.752,242.125 296,245.5C 296.667,279.833 296.667,314.167 296,348.5C 292.501,353.634 288.001,354.634 282.5,351.5C 281.416,350.335 280.583,349.002 280,347.5C 279.333,313.833 279.333,280.167 280,246.5C 281.436,243.558 283.603,241.558 286.5,240.5 Z"/></g>
<g><path style="opacity:0.929" fill="#000000" d="M 312.5,251.5 C 317.635,250.426 321.468,252.093 324,256.5C 324.667,284.167 324.667,311.833 324,339.5C 318.159,346.394 312.825,346.061 308,338.5C 307.333,311.167 307.333,283.833 308,256.5C 309.025,254.313 310.525,252.646 312.5,251.5 Z"/></g>
<g><path style="opacity:0.932" fill="#000000" d="M 75.5,297.5 C 108.168,297.333 140.835,297.5 173.5,298C 178.535,301.013 179.702,305.18 177,310.5C 175.681,312.487 173.848,313.654 171.5,314C 140.167,314.667 108.833,314.667 77.5,314C 73.1809,312.877 71.1809,310.044 71.5,305.5C 71.6667,304.167 71.8333,302.833 72,301.5C 73.3756,300.295 74.5423,298.962 75.5,297.5 Z"/></g>
<g><path style="opacity:0.927" fill="#000000" d="M 410.5,311.5 C 414.803,310.796 418.303,312.13 421,315.5C 434.48,333.486 446.98,352.152 458.5,371.5C 476.601,369.028 491.101,375.028 502,389.5C 512.381,410.806 508.214,428.64 489.5,443C 467.834,453.205 450,448.705 436,429.5C 428.667,416.5 428.667,403.5 436,390.5C 438.501,386.969 441.334,383.802 444.5,381C 432.449,361.619 419.615,342.785 406,324.5C 403.819,318.877 405.319,314.544 410.5,311.5 Z M 466.5,388.5 C 483.451,389.615 491.284,398.615 490,415.5C 483.963,430.266 473.463,434.766 458.5,429C 447.394,421.006 444.894,410.84 451,398.5C 455.239,393.479 460.406,390.146 466.5,388.5 Z"/></g>
<g><path style="opacity:0.932" fill="#000000" d="M 76.5,353.5 C 108.502,353.333 140.502,353.5 172.5,354C 180.074,358.874 180.408,364.208 173.5,370C 141.167,370.667 108.833,370.667 76.5,370C 72.7623,368.601 71.0956,365.934 71.5,362C 71.3082,358.035 72.9749,355.201 76.5,353.5 Z"/></g>
<g><path style="opacity:0.937" fill="#000000" d="M 78.5,409.5 C 134.168,409.333 189.834,409.5 245.5,410C 251.964,411.756 254.13,415.923 252,422.5C 250.833,423.667 249.667,424.833 248.5,426C 190.833,426.667 133.167,426.667 75.5,426C 73.6667,425.5 72.5,424.333 72,422.5C 69.998,415.835 72.1647,411.501 78.5,409.5 Z"/></g>
</svg>
