<?xml version="1.0" encoding="UTF-8"?>
<!DOCTYPE svg PUBLIC "-//W3C//DTD SVG 1.1//EN" "http://www.w3.org/Graphics/SVG/1.1/DTD/svg11.dtd">
<svg xmlns="http://www.w3.org/2000/svg" version="1.1" width="512px" height="512px" style="shape-rendering:geometricPrecision; text-rendering:geometricPrecision; image-rendering:optimizeQuality; fill-rule:evenodd; clip-rule:evenodd" xmlns:xlink="http://www.w3.org/1999/xlink">
<g><path style="opacity:0.92" fill="#000000" d="M 230.5,5.5 C 248.765,2.63735 263.598,8.30402 275,22.5C 278.71,29.004 280.71,36.004 281,43.5C 282.539,59.4369 281.206,75.1036 277,90.5C 274.307,97.3893 270.473,103.556 265.5,109C 266.337,110.011 266.67,111.178 266.5,112.5C 313.835,112.333 361.168,112.5 408.5,113C 426.698,117.88 434.532,129.714 432,148.5C 427.904,161.469 419.071,168.636 405.5,170C 377.5,170.333 349.5,170.667 321.5,171C 313.601,173.729 309.267,179.229 308.5,187.5C 359.386,182.862 398.553,201.862 426,244.5C 446.942,284.671 446.609,324.671 425,364.5C 421.667,369.167 418.333,373.833 415,378.5C 410.453,382.711 406.286,387.211 402.5,392C 405.202,396.568 408.035,401.068 411,405.5C 413.52,406.207 416.02,407.04 418.5,408C 434.155,430.987 448.988,454.487 463,478.5C 464.672,498.494 455.505,507.327 435.5,505C 432.048,504.108 429.048,502.442 426.5,500C 410.663,476.837 395.663,453.17 381.5,429C 381.903,427.527 382.57,426.194 383.5,425C 380.749,420.163 377.749,415.497 374.5,411C 364.04,414.033 353.373,416.7 342.5,419C 330.854,420.832 319.188,420.999 307.5,419.5C 307.667,441.169 307.5,462.836 307,484.5C 301.235,501.475 289.402,508.308 271.5,505C 260.904,501.404 254.071,494.238 251,483.5C 250.667,453.5 250.333,423.5 250,393.5C 242.595,386.765 235.928,379.432 230,371.5C 229.667,408.5 229.333,445.5 229,482.5C 223.922,500.464 212.089,507.964 193.5,505C 182.667,502.167 175.833,495.333 173,484.5C 172.989,383.798 172.322,283.131 171,182.5C 168.414,176.912 164.247,173.079 158.5,171C 128.466,170.952 98.4657,170.286 68.5,169C 52.3499,163.219 45.5166,151.719 48,134.5C 50.6426,124.522 56.8092,117.689 66.5,114C 115.466,112.857 164.466,112.023 213.5,111.5C 213.833,110.833 214.167,110.167 214.5,109.5C 202.44,94.1474 197.107,76.6474 198.5,57C 195.213,30.6742 205.88,13.5075 230.5,5.5 Z M 233.5,18.5 C 246.136,16.579 256.303,20.579 264,30.5C 269.145,46.9288 269.811,63.5955 266,80.5C 263.709,89.0878 259.376,96.4212 253,102.5C 251.112,111.503 253.612,119.003 260.5,125C 308.833,125.333 357.167,125.667 405.5,126C 415.819,128.47 420.319,134.97 419,145.5C 417.167,150.667 413.667,154.167 408.5,156C 380.167,156.333 351.833,156.667 323.5,157C 305.057,160.782 295.057,172.115 293.5,191C 244.801,206.701 216.634,239.868 209,290.5C 206.848,309.432 209.181,327.766 216,345.5C 216.667,390.167 216.667,434.833 216,479.5C 212.378,490.894 204.878,494.728 193.5,491C 190.168,488.509 187.668,485.342 186,481.5C 185.667,382.5 185.333,283.5 185,184.5C 182.529,171.365 175.029,162.532 162.5,158C 132.201,156.714 101.868,156.047 71.5,156C 60.5364,150.442 58.0364,142.275 64,131.5C 66.8634,128.485 70.3634,126.651 74.5,126C 122.833,125.667 171.167,125.333 219.5,125C 229.8,114.805 229.967,104.639 220,94.5C 213.944,83.1077 211.111,70.9411 211.5,58C 211.263,48.5063 212.763,39.3396 216,30.5C 220.429,24.3752 226.262,20.3752 233.5,18.5 Z M 311.5,200.5 C 366.758,197.858 404.258,222.191 424,273.5C 434.949,316.549 424.116,353.049 391.5,383C 347.756,415.2 303.756,415.533 259.5,384C 222.575,350.133 212.742,309.633 230,262.5C 246.462,227.693 273.628,207.027 311.5,200.5 Z M 313.5,225.5 C 357.752,223.185 386.919,242.851 401,284.5C 408.064,325.202 393.564,355.368 357.5,375C 322.109,388.61 291.275,381.777 265,354.5C 241.493,322.541 240.493,289.874 262,256.5C 275.443,239.867 292.609,229.533 313.5,225.5 Z M 390.5,399.5 C 393.855,403.693 396.855,408.193 399.5,413C 398.396,414.82 396.896,416.32 395,417.5C 391.756,413.256 388.922,408.756 386.5,404C 387.604,402.285 388.938,400.785 390.5,399.5 Z M 263.5,403.5 C 273.119,409.058 283.286,413.391 294,416.5C 294.667,438.167 294.667,459.833 294,481.5C 289.074,492.254 281.24,495.087 270.5,490C 266.675,487.512 264.508,484.012 264,479.5C 263.5,454.169 263.333,428.836 263.5,403.5 Z M 410.5,422.5 C 412.074,422.937 413.241,423.937 414,425.5C 425.667,443.5 437.333,461.5 449,479.5C 451.721,488.242 448.554,492.408 439.5,492C 437.376,490.878 435.543,489.378 434,487.5C 422.727,469.231 411.061,451.231 399,433.5C 398.251,432.365 398.417,431.365 399.5,430.5C 403.411,428.057 407.078,425.39 410.5,422.5 Z"/></g>
<g><path style="opacity:0.929" fill="#000000" d="M 103.5,60.5 C 116.171,60.3334 128.838,60.5001 141.5,61C 144.349,63.5594 145.183,66.7261 144,70.5C 143.097,71.7014 141.931,72.5348 140.5,73C 131.506,73.4998 122.506,73.6664 113.5,73.5C 113.666,82.5062 113.5,91.5062 113,100.5C 110.947,104.292 107.781,105.458 103.5,104C 102.667,103.167 101.833,102.333 101,101.5C 100.333,88.8333 100.333,76.1667 101,63.5C 102.045,62.6266 102.878,61.6266 103.5,60.5 Z"/></g>
<g><path style="opacity:0.928" fill="#000000" d="M 338.5,60.5 C 351.171,60.3334 363.838,60.5001 376.5,61C 377.333,61.8333 378.167,62.6667 379,63.5C 379.667,76.1667 379.667,88.8333 379,101.5C 376.441,104.349 373.274,105.183 369.5,104C 368.299,103.097 367.465,101.931 367,100.5C 366.5,91.5062 366.334,82.5062 366.5,73.5C 357.494,73.6664 348.494,73.4998 339.5,73C 335.708,70.9473 334.542,67.7806 336,63.5C 337.045,62.6266 337.878,61.6266 338.5,60.5 Z"/></g>
<g><path style="opacity:0.91" fill="#000000" d="M 319.5,211.5 C 360.877,211.422 390.71,229.756 409,266.5C 424.754,309.988 415.254,346.821 380.5,377C 344.07,401.272 307.403,401.606 270.5,378C 235.361,348.625 225.194,312.125 240,268.5C 255.81,234.514 282.31,215.514 319.5,211.5 Z M 313.5,225.5 C 292.609,229.533 275.443,239.867 262,256.5C 240.493,289.874 241.493,322.541 265,354.5C 291.275,381.777 322.109,388.61 357.5,375C 393.564,355.368 408.064,325.202 401,284.5C 386.919,242.851 357.752,223.185 313.5,225.5 Z"/></g>
<g><path style="opacity:0.9" fill="#000000" d="M 367.5,261.5 C 376.115,260.736 378.949,264.403 376,272.5C 354.284,296.761 332.45,320.928 310.5,345C 307.833,345.667 305.167,345.667 302.5,345C 293.304,335.47 283.804,326.303 274,317.5C 270.667,310.319 272.834,306.485 280.5,306C 289.6,313.097 298.1,320.931 306,329.5C 326.707,306.963 347.207,284.296 367.5,261.5 Z"/></g>
<g><path style="opacity:0.93" fill="#000000" d="M 103.5,295.5 C 105.857,295.337 108.19,295.503 110.5,296C 111.701,296.903 112.535,298.069 113,299.5C 113.5,308.494 113.666,317.494 113.5,326.5C 122.506,326.334 131.506,326.5 140.5,327C 144.292,329.053 145.458,332.219 144,336.5C 143.167,337.333 142.333,338.167 141.5,339C 128.833,339.667 116.167,339.667 103.5,339C 102.667,338.167 101.833,337.333 101,336.5C 100.333,323.833 100.333,311.167 101,298.5C 102.045,297.627 102.878,296.627 103.5,295.5 Z"/></g>
</svg>
