<?xml version="1.0" encoding="UTF-8"?>
<!DOCTYPE svg PUBLIC "-//W3C//DTD SVG 1.1//EN" "http://www.w3.org/Graphics/SVG/1.1/DTD/svg11.dtd">
<svg xmlns="http://www.w3.org/2000/svg" version="1.1" width="512px" height="512px" style="shape-rendering:geometricPrecision; text-rendering:geometricPrecision; image-rendering:optimizeQuality; fill-rule:evenodd; clip-rule:evenodd" xmlns:xlink="http://www.w3.org/1999/xlink">
<g><path style="opacity:0.928" fill="#000000" d="M 511.5,431.5 C 511.5,438.167 511.5,444.833 511.5,451.5C 504.56,474.093 489.227,486.426 465.5,488.5C 448.819,487.912 435.652,480.912 426,467.5C 412.333,441.833 398.667,416.167 385,390.5C 381.547,379.071 385.38,371.071 396.5,366.5C 389.325,352.144 381.659,338.144 373.5,324.5C 362.44,327.915 351.107,329.581 339.5,329.5C 339.749,355.261 335.582,380.261 327,404.5C 311.147,437.682 285.647,448.515 250.5,437C 233.85,428.563 222.683,415.396 217,397.5C 213.39,386.391 210.723,375.058 209,363.5C 206.395,338.779 203.395,314.113 200,289.5C 198.678,284.023 196.178,279.189 192.5,275C 191.5,274.333 190.5,274.333 189.5,275C 184.531,280.896 181.698,287.729 181,295.5C 178.334,318.165 175.667,340.831 173,363.5C 170.889,384.169 164.222,403.169 153,420.5C 139.164,436.559 121.664,443.393 100.5,441C 79.305,437.815 64.4717,426.315 56,406.5C 49.3275,390.139 45.3275,373.139 44,355.5C 42.3837,329.526 41.3837,303.526 41,277.5C 39.4486,263.077 36.1153,249.077 31,235.5C 22.3903,215.281 14.057,194.947 6,174.5C 3.10572,164.518 0.939051,154.518 -0.5,144.5C -0.5,133.5 -0.5,122.5 -0.5,111.5C 2.53633,85.5927 13.8697,64.0927 33.5,47C 44.6667,43.5 48.5,47.3333 45,58.5C 28.5454,72.736 18.8788,90.736 16,112.5C 13.7434,133.7 16.0767,154.367 23,174.5C 30.3333,191.833 37.6667,209.167 45,226.5C 51.2028,242.644 55.2028,259.311 57,276.5C 57.4169,298.175 58.0835,319.841 59,341.5C 59.5811,362.66 63.9144,382.994 72,402.5C 82.429,421.463 98.2624,428.629 119.5,424C 130.313,420.857 138.479,414.357 144,404.5C 150.001,392.832 154.001,380.499 156,367.5C 159.404,339.453 163.071,311.453 167,283.5C 169,273.514 174.167,265.68 182.5,260C 192.881,256.239 201.381,258.739 208,267.5C 213.527,277.082 216.86,287.415 218,298.5C 219.868,317.181 221.868,335.848 224,354.5C 225.696,374.638 231.696,393.305 242,410.5C 257.954,427.014 276.121,429.847 296.5,419C 308.219,408.402 315.385,395.235 318,379.5C 321.54,362.684 323.374,345.684 323.5,328.5C 270.956,319.788 236.456,290.121 220,239.5C 207.808,188.753 220.642,145.586 258.5,110C 286.903,87.3148 319.237,77.4815 355.5,80.5C 340.502,56.735 318.835,43.235 290.5,40C 268.488,37.8825 246.821,39.8825 225.5,46C 214.169,50.1109 202.669,53.6109 191,56.5C 179.331,53.6109 167.831,50.1109 156.5,46C 126.986,36.7883 97.4865,36.6216 68,45.5C 60.8986,43.9044 58.5653,39.5711 61,32.5C 67.902,28.4215 75.402,25.9215 83.5,25C 104.578,22.0232 125.578,22.6898 146.5,27C 161.627,30.6549 176.46,35.1549 191,40.5C 217.459,29.8443 244.959,23.8443 273.5,22.5C 306.348,22.0244 334.514,33.0244 358,55.5C 365.562,64.784 371.728,74.9507 376.5,86C 409.548,96.3891 434.048,116.889 450,147.5C 450.747,157.048 446.58,160.215 437.5,157C 408.077,107.463 365.077,88.796 308.5,101C 259.591,118.632 233.925,153.465 231.5,205.5C 234.68,258.841 261.68,293.675 312.5,310C 358.979,319.731 397.145,306.231 427,269.5C 445.643,242.251 452.31,212.251 447,179.5C 453.006,173.67 458.006,174.337 462,181.5C 469.175,229.146 455.008,269.146 419.5,301.5C 426.452,315.24 433.785,328.74 441.5,342C 445.441,340.471 449.608,339.304 454,338.5C 458.586,338.805 462.586,340.472 466,343.5C 482.389,372.337 497.556,401.671 511.5,431.5 Z M 405.5,310.5 C 412.86,323.383 419.86,336.55 426.5,350C 422.194,353.618 417.361,356.452 412,358.5C 404.386,345.443 396.886,332.276 389.5,319C 395.339,316.916 400.673,314.083 405.5,310.5 Z M 453.5,354.5 C 456.806,360.438 460.139,366.438 463.5,372.5C 445.906,382.548 428.073,392.215 410,401.5C 406.374,395.75 402.874,389.916 399.5,384C 417.722,374.392 435.722,364.559 453.5,354.5 Z M 469.5,387.5 C 470.496,387.414 471.329,387.748 472,388.5C 479.333,402.5 486.667,416.5 494,430.5C 498.719,454.388 489.052,468.388 465,472.5C 455.508,471.421 447.508,467.421 441,460.5C 432.912,445.992 425.079,431.325 417.5,416.5C 434.896,406.806 452.229,397.139 469.5,387.5 Z"/></g>
<g><path style="opacity:0.926" fill="#000000" d="M 334.5,113.5 C 375.306,113.306 404.806,131.306 423,167.5C 439.161,211.695 429.328,248.862 393.5,279C 361.975,299.419 329.308,301.419 295.5,285C 259.78,262.72 244.614,230.554 250,188.5C 260.843,143.816 289.01,118.816 334.5,113.5 Z M 334.5,129.5 C 374.896,130.413 401.063,150.08 413,188.5C 418.743,233.535 400.243,263.369 357.5,278C 325.588,284.142 299.421,274.642 279,249.5C 258.586,217.212 259.919,185.879 283,155.5C 296.93,140.285 314.096,131.619 334.5,129.5 Z M 332.5,167.5 C 337.43,167.197 342.263,167.531 347,168.5C 347.333,176.833 347.667,185.167 348,193.5C 348.833,194.333 349.667,195.167 350.5,196C 359.392,197.443 368.392,197.943 377.5,197.5C 377.666,202.179 377.499,206.845 377,211.5C 368.144,212.043 359.31,212.876 350.5,214C 349.667,214.833 348.833,215.667 348,216.5C 347.667,224.833 347.333,233.167 347,241.5C 342.263,242.469 337.43,242.803 332.5,242.5C 332.666,234.826 332.5,227.159 332,219.5C 331.608,216.545 330.108,214.378 327.5,213C 319.173,212.5 310.84,212.334 302.5,212.5C 302.5,207.5 302.5,202.5 302.5,197.5C 310.507,197.666 318.507,197.5 326.5,197C 329.773,196.06 331.606,193.893 332,190.5C 332.5,182.841 332.666,175.174 332.5,167.5 Z"/></g>
<g><path style="opacity:0.933" fill="#000000" d="M 328.5,151.5 C 336.174,151.334 343.841,151.5 351.5,152C 358.021,154.206 361.854,158.706 363,165.5C 363.499,170.823 363.666,176.156 363.5,181.5C 369.509,181.334 375.509,181.501 381.5,182C 391.241,186.476 395.241,194.142 393.5,205C 395.315,216.389 390.982,224.056 380.5,228C 374.843,228.499 369.176,228.666 363.5,228.5C 363.666,233.844 363.499,239.177 363,244.5C 359.457,255.871 351.624,260.538 339.5,258.5C 329.118,260.442 321.618,256.775 317,247.5C 316.5,241.175 316.334,234.842 316.5,228.5C 310.491,228.666 304.491,228.499 298.5,228C 288.223,223.785 284.223,216.118 286.5,205C 284.223,193.882 288.223,186.215 298.5,182C 304.491,181.501 310.491,181.334 316.5,181.5C 316.334,175.158 316.5,168.825 317,162.5C 319.437,157.226 323.271,153.56 328.5,151.5 Z M 332.5,167.5 C 332.666,175.174 332.5,182.841 332,190.5C 331.606,193.893 329.773,196.06 326.5,197C 318.507,197.5 310.507,197.666 302.5,197.5C 302.5,202.5 302.5,207.5 302.5,212.5C 310.84,212.334 319.173,212.5 327.5,213C 330.108,214.378 331.608,216.545 332,219.5C 332.5,227.159 332.666,234.826 332.5,242.5C 337.43,242.803 342.263,242.469 347,241.5C 347.333,233.167 347.667,224.833 348,216.5C 348.833,215.667 349.667,214.833 350.5,214C 359.31,212.876 368.144,212.043 377,211.5C 377.499,206.845 377.666,202.179 377.5,197.5C 368.392,197.943 359.392,197.443 350.5,196C 349.667,195.167 348.833,194.333 348,193.5C 347.667,185.167 347.333,176.833 347,168.5C 342.263,167.531 337.43,167.197 332.5,167.5 Z"/></g>
</svg>
