<?xml version="1.0" encoding="UTF-8"?>
<svg version="1.1" xmlns="http://www.w3.org/2000/svg" width="512" height="512">
<path d="M0 0 C5.788485 5.35755151 9.59306415 11.01522518 10.40405273 18.95654297 C10.43026532 20.38488458 10.43939351 21.81361716 10.43359375 23.2421875 C10.4388356 24.00999542 10.44407745 24.77780334 10.44947815 25.56887817 C10.45586583 27.18409015 10.45460378 28.79934885 10.44604492 30.41455078 C10.43754563 32.86186176 10.46632091 35.30682578 10.49804688 37.75390625 C10.54135291 47.23423892 9.9540098 54.2853739 4.4296875 62.26953125 C-1.33464592 67.99041492 -7.82405228 71.10211243 -16 71.5 C-24.31420126 71.09538424 -31.04603226 67.93249897 -36.66015625 61.81640625 C-38.46637007 59.36774903 -39.35083068 56.95732691 -40 54 C-47.49384133 58.27439979 -52.27018301 62.53326582 -55 71 C-55.27927299 73.80841547 -55.42135412 76.39004581 -55.40405273 79.19165039 C-55.41434761 80.37377106 -55.41434761 80.37377106 -55.42485046 81.57977295 C-55.44305641 84.1692541 -55.43928706 86.75812517 -55.43359375 89.34765625 C-55.43816127 91.16499526 -55.44346853 92.98233255 -55.44947815 94.79966736 C-55.45839921 98.60666928 -55.45600082 102.41346136 -55.44604492 106.22045898 C-55.43460615 111.06300882 -55.45469328 115.90482389 -55.48396206 120.74727726 C-55.50245531 124.50262447 -55.50200485 128.25780028 -55.49632454 132.01318169 C-55.49617266 133.79628969 -55.50210516 135.57941032 -55.51461601 137.36247444 C-55.59196376 150.20183044 -54.35666365 161.14330032 -48.75 172.9375 C-46.95349844 176.77288825 -46.32864354 179.72010256 -47 184 C-48.5 186.4375 -48.5 186.4375 -51 188 C-53.80880243 188.61010873 -56.1940365 188.63903931 -59 188 C-67.99268196 180.54892067 -71.13455119 163.81527296 -72.23411942 152.61531067 C-72.60103706 146.66892767 -72.58683961 140.72101768 -72.56640625 134.765625 C-72.57165953 132.87050068 -72.57794213 130.97537897 -72.58518982 129.08026123 C-72.5955071 125.1404576 -72.59115484 121.20101717 -72.57641602 117.26123047 C-72.55917625 112.24608971 -72.58283342 107.23208929 -72.61790562 102.21707535 C-72.63999101 98.31506964 -72.6384124 94.41333269 -72.6301403 90.51128387 C-72.62932814 88.66315198 -72.63604875 86.81499888 -72.65091133 84.96692657 C-72.75214638 70.11649901 -71.30941922 58.32130668 -60.40234375 47.16015625 C-54.90251036 42.21477761 -50.04568929 39.3485631 -43 37 C-42.67 32.38 -42.34 27.76 -42 23 C-59.64690287 29.38292231 -72.04795828 37.00005498 -80.48876953 54.20263672 C-86.19666436 66.42950031 -86.15514437 78.65185342 -86.1328125 91.921875 C-86.13348829 93.35378028 -86.1344606 94.78568544 -86.13571167 96.21759033 C-86.1371776 99.20626934 -86.13507116 102.19491827 -86.13037109 105.18359375 C-86.12469532 108.97318313 -86.12794623 112.76270132 -86.13394356 116.55228806 C-86.13759703 119.50722772 -86.13638854 122.46215116 -86.13381577 125.41709137 C-86.13315857 126.81222797 -86.13393156 128.20736616 -86.13629532 129.60250092 C-86.17887356 161.80427437 -79.50372337 189.8011742 -56.61328125 213.38671875 C-55.75089844 214.24910156 -54.88851562 215.11148438 -54 216 C-53.33355469 216.66644531 -52.66710938 217.33289063 -51.98046875 218.01953125 C-37.86349974 231.18546235 -18.80526065 238.86578989 0 242 C-0.33 237.38 -0.66 232.76 -1 228 C-2.5675 227.773125 -4.135 227.54625 -5.75 227.3125 C-17.43677781 225.15770358 -32.22867822 219.35071281 -40 210 C-40.78328316 207.23420014 -40.65099763 204.79243718 -40 202 C-37.9375 199.4375 -37.9375 199.4375 -35 198 C-29.4720151 198.29094657 -25.96314524 199.90112046 -21.3125 202.8125 C-15.13602341 206.55886002 -8.98246657 209.05616315 -2 211 C-1.76216797 210.12988281 -1.76216797 210.12988281 -1.51953125 209.2421875 C0.28739006 203.19249516 2.347599 198.31145865 7.92578125 194.78125 C13.52287474 191.8298636 18.52474167 190.87856514 24.85668945 190.85473633 C26.01171463 190.84835648 27.16673981 190.84197662 28.35676575 190.83540344 C29.59641586 190.83429062 30.83606598 190.8331778 32.11328125 190.83203125 C33.39679977 190.82870285 34.6803183 190.82537445 36.00273132 190.82194519 C38.71691732 190.81596954 41.43107156 190.81410363 44.14526367 190.81469727 C47.60495257 190.81479869 51.06443535 190.80115968 54.52407551 190.78392506 C57.84548013 190.77005893 61.16684811 190.77071437 64.48828125 190.76953125 C65.72185867 190.76234573 66.9554361 190.75516022 68.22639465 190.74775696 C77.24461478 190.77158363 84.68928816 191.15143052 92 197 C96.06038849 201.08288372 99 205.10063702 99 211 C118.00351115 205.36196004 133.63609826 195.14519292 143.58984375 177.6796875 C151.64595771 162.37083936 153.4776626 147.0298814 153.3984375 130.0390625 C153.40046676 128.47162746 153.4033852 126.90419335 153.40713501 125.33676147 C153.4115106 122.08460315 153.40527854 118.8326952 153.39111328 115.58056641 C153.37393766 111.43858473 153.38394538 107.29718295 153.40183067 103.15522194 C153.41272557 99.93105782 153.40919764 96.70702899 153.4014473 93.48286057 C153.39946547 91.95602726 153.40183246 90.42918112 153.40888596 88.90236282 C153.45036215 77.41815219 153.13815267 67.30479333 144.91796875 58.62890625 C142.11403806 56.24756389 139.48457318 55.13781982 136 54 C135.814375 54.845625 135.62875 55.69125 135.4375 56.5625 C132.80208685 62.86457492 128.38959253 66.67341782 122.1875 69.4375 C113.99885375 72.29919029 107.07804813 71.70829917 99.19140625 68.203125 C96.1977419 66.55954457 94.17353622 64.62102897 92 62 C91.278125 61.195625 90.55625 60.39125 89.8125 59.5625 C86.13863754 54.36841859 85.67483195 49.10046948 85.62890625 42.890625 C85.61987778 42.1237738 85.6108493 41.35692261 85.60154724 40.5668335 C85.58709942 38.94986844 85.57817166 37.33284566 85.57446289 35.71582031 C85.56259924 33.27045499 85.51339349 30.82764397 85.46289062 28.3828125 C85.35902415 18.44151504 85.99127644 10.64666993 92.88232422 2.87792969 C98.20796462 -2.47796185 104.29407218 -4.84904276 111.80078125 -5.08984375 C119.13703631 -4.69411215 125.28627458 -3.01936684 130.2890625 2.546875 C133.58245992 5.52706748 135.64311006 5.87231247 140 6.5 C159.48326915 9.78068793 176.16741242 20.07259554 187.75 36.1875 C190.27130554 39.81559911 191.04336216 41.28302908 190.7734375 45.74609375 C190 49 190 49 188.875 50.875 C185.84264294 52.69441423 183.52133145 53 180 53 C177.14651477 50.87817765 175.44397179 48.5992577 173.3359375 45.75390625 C164.05289997 33.51022918 152.84509095 26.71127274 138 23 C138 27.62 138 32.24 138 37 C139.65 37.33 141.3 37.66 143 38 C154.44728047 42.24534905 161.48300636 49.92711544 166.80859375 60.71484375 C170.36528367 70.52197892 170.29628391 80.38132903 170.265625 90.671875 C170.26697592 92.28314268 170.26891999 93.89440997 170.27142334 95.50567627 C170.27435791 98.87101143 170.27013324 102.23623984 170.26074219 105.6015625 C170.24938561 109.87548778 170.25589366 114.14916072 170.26788712 118.42307663 C170.27518263 121.74861483 170.27278227 125.07409519 170.26763153 128.39963531 C170.26631426 129.9734017 170.26787379 131.54717366 170.27259064 133.12093353 C170.30290829 146.08262293 169.63013727 158.76594261 165.3125 171.125 C165.05194824 171.88361328 164.79139648 172.64222656 164.52294922 173.42382812 C160.63856239 184.28261194 154.55320171 193.34182089 147 202 C146.47019531 202.61359375 145.94039062 203.2271875 145.39453125 203.859375 C133.79752205 216.34405651 117.38658807 224.2906525 101 228 C100.01 228 99.02 228 98 228 C97.67 232.62 97.34 237.24 97 242 C118.99798725 237.42269543 136.69529731 229.81842208 153 214 C153.67289063 213.40058594 154.34578125 212.80117187 155.0390625 212.18359375 C172.73776309 195.85989181 181.74507827 170.54888266 183.1191597 146.95384979 C183.27715717 142.55431247 183.29957106 138.15437728 183.30496025 133.75234604 C183.30868816 131.30521133 183.32557662 128.85845926 183.34571838 126.41140747 C183.40058408 119.46640095 183.43198088 112.52134608 183.45629883 105.57617188 C183.47216015 101.29997552 183.50233394 97.02406732 183.54106331 92.74802017 C183.55269421 91.12694472 183.55864349 89.50581795 183.55874443 87.88470078 C183.55893625 85.62839127 183.57717561 83.37288412 183.59936523 81.11669922 C183.60443588 79.83544159 183.60950653 78.55418396 183.61473083 77.23410034 C184.02449175 73.79440665 184.54356953 72.39578933 187 70 C190.60050078 68.82592366 192.27928713 68.67240324 195.75 70.25 C198 72 198 72 200 75 C200.25396729 78.10038757 200.25396729 78.10038757 200.25878906 81.97143555 C200.26404602 83.03081833 200.26404602 83.03081833 200.26940918 84.11160278 C200.27822816 86.45340751 200.2723687 88.79491076 200.265625 91.13671875 C200.26697355 92.77562009 200.26891567 94.41452104 200.27142334 96.05342102 C200.27437642 99.49927556 200.27007827 102.94502662 200.26074219 106.39086914 C200.24946413 110.76232461 200.25583091 115.13353131 200.26788712 119.50497723 C200.27520127 122.89837937 200.27277263 126.29172509 200.26763153 129.68512917 C200.26631512 131.29352664 200.26787061 132.90192957 200.27259064 134.51032066 C200.33456299 161.61312589 195.16250355 187.64606971 179 210 C178.43152344 210.79019531 177.86304688 211.58039063 177.27734375 212.39453125 C158.57687303 236.97115837 131.80525197 253.81248302 101.1640625 258.7734375 C99 259 99 259 95 259 C94.92523438 259.556875 94.85046875 260.11375 94.7734375 260.6875 C93.68947294 266.97874527 91.60370501 271.50808474 87 276 C82.21396259 279.35896338 77.78049835 280.28352427 72 281 C73.74172675 303.22651305 79.16653484 322.78258508 94 340 C94.556875 340.7115625 95.11375 341.423125 95.6875 342.15625 C108.12158941 357.37729048 126.96766947 367.04107853 146 371 C148.76605099 371.13189967 148.76605099 371.13189967 151 371 C150.49339844 369.38544922 150.49339844 369.38544922 149.9765625 367.73828125 C142.06352394 342.07485173 139.93991818 314.19104785 152.58618164 289.63745117 C160.81397437 274.87215065 173.92403321 265.24704582 189.8984375 260.05859375 C209.55160375 254.48570962 227.84955433 256.63660369 245.703125 266.4921875 C257.66140749 273.63299047 267.8385835 283.75096796 276 295 C276 295.66 276 296.32 276 297 C279.34567589 293.753585 282.32378512 290.42501121 285.1875 286.75 C297.80941139 271.25852721 315.7206842 259.15673669 336 257 C355.67238963 255.67110516 374.48737016 261.09207431 389.40625 274.09765625 C402.25629944 286.24095297 409.77036966 304.23440787 410.43359375 321.84765625 C410.45739086 324.25248678 410.45802148 326.65763929 410.4375 329.0625 C410.42847656 330.33673828 410.41945313 331.61097656 410.41015625 332.92382812 C409.74879047 369.24383243 391.6960264 401.44511428 368 428 C367.53029785 428.53141602 367.0605957 429.06283203 366.57666016 429.61035156 C361.05727383 435.83918509 355.40744715 441.67194359 349 447 C348.11570312 447.78375 347.23140625 448.5675 346.3203125 449.375 C329.89152544 463.85579462 303.26071005 487.10446879 280.5625 488.875 C279.73878906 488.95492188 278.91507812 489.03484375 278.06640625 489.1171875 C269.3655619 488.78467116 262.59855751 486.20376183 255.125 481.875 C253.82671265 481.14120117 253.82671265 481.14120117 252.50219727 480.39257812 C233.9092169 469.77099315 233.9092169 469.77099315 230 465 C229.34911443 460.60652243 229.52561133 458.69001989 232.0625 455 C235 453 235 453 238.2421875 453.12109375 C242.40105137 454.093801 245.52499806 455.77517103 249.0625 458.0625 C250.37703329 458.8772239 251.69215197 459.69100394 253.0078125 460.50390625 C254.00022949 461.12483154 254.00022949 461.12483154 255.01269531 461.75830078 C258.1336271 463.70830804 261.27254193 465.62236488 264.4375 467.5 C265.50871094 468.1496875 266.57992188 468.799375 267.68359375 469.46875 C272.44956198 471.66929128 276.30794941 472.7212176 281.3894043 471.35986328 C287.5402494 469.03400931 293.15813526 465.80446347 298.75 462.375 C299.61979492 461.84575928 300.48958984 461.31651855 301.38574219 460.77124023 C308.85448563 456.17874876 316.03542844 451.32317651 323 446 C323.60166992 445.54641113 324.20333984 445.09282227 324.82324219 444.62548828 C342.42735296 431.25164624 358.80595168 415.52114886 371 397 C371.43989258 396.33468262 371.87978516 395.66936523 372.33300781 394.98388672 C379.47417917 383.98396796 384.76196598 372.39866615 389 360 C389.24008789 359.2997168 389.48017578 358.59943359 389.72753906 357.87792969 C396.11358113 338.28201221 395.41612066 315.58246156 386.25 297.125 C379.08097103 285.02282733 368.14434197 278.77253145 354.8125 275.0625 C340.19422458 271.94522538 326.65510719 275.24895256 314 283 C301.17779596 291.96069086 292.36555437 303.9724523 284.75390625 317.453125 C282.9511755 320.07089883 281.98186171 321.02584597 279 322 C276.0625 322 276.0625 322 273 321 C269.38691272 317.06794033 266.64233749 312.95215516 263.875 308.375 C253.97509874 292.63599806 240.05519836 279.53664162 221.625 274.75 C208.80512978 272.32283008 194.10700536 274.60544331 182.94921875 281.59765625 C170.34496114 290.6656492 164.613139 301.79432542 161.3828125 316.8828125 C160.0303509 327.89571408 160.41644735 339.08469184 162.6875 349.9375 C162.83598389 350.65639404 162.98446777 351.37528809 163.13745117 352.1159668 C164.75582604 359.12206591 167.35650296 365.12690769 170 372 C190.79 372.33 211.58 372.66 233 373 C233.66 371.02 234.32 369.04 235 367 C242.5040851 355.44441356 253.06349239 348.1802442 266.375 344.6875 C279.98939581 342.15911221 293.29628716 344.61595404 305 352 C316.55155235 360.60295791 323.62018225 371.82547146 326 386 C326.99718149 401.36043031 324.00181311 413.84385259 314.375 426.0625 C305.46124871 435.66192447 293.38597848 441.36349011 280.38671875 442.16015625 C265.99497071 442.58948207 253.58769881 438.16276835 242.6328125 428.78515625 C241 427 241 427 240.0254364 425.31845093 C238.8212556 423.3110339 237.65931707 421.65572937 236 420 C232.98312482 419.35006098 231.06097857 419.16609516 228.07421875 419.31640625 C226.95283257 419.3312632 226.95283257 419.3312632 225.80879211 419.34642029 C223.43298753 419.38544938 221.06189437 419.47322258 218.6875 419.5625 C217.07233262 419.59762993 215.45709241 419.62956603 213.84179688 419.65820312 C209.89273022 419.73517012 205.94716223 419.85585048 202 420 C202.67373657 420.66588135 202.67373657 420.66588135 203.36108398 421.34521484 C205.38915607 423.35253603 207.41336416 425.36370999 209.4375 427.375 C210.14455078 428.07367188 210.85160156 428.77234375 211.58007812 429.4921875 C212.25361328 430.1625 212.92714844 430.8328125 213.62109375 431.5234375 C214.2442749 432.14138184 214.86745605 432.75932617 215.50952148 433.39599609 C217.60330403 435.64925593 217.97989263 436.76876522 218.25 439.875 C217.96621485 443.42231438 217.67676107 444.66862746 215 447 C211.26826196 448.0365939 209.06961226 448.53811399 205.55273438 446.76879883 C202.92728304 444.94961416 200.78237829 443.02538061 198.53125 440.76171875 C197.71269531 439.94123047 196.89414062 439.12074219 196.05078125 438.27539062 C195.20902344 437.42138672 194.36726563 436.56738281 193.5 435.6875 C192.65824219 434.84509766 191.81648438 434.00269531 190.94921875 433.13476562 C189.72138672 431.89823242 189.72138672 431.89823242 188.46875 430.63671875 C187.67315674 429.84096436 186.87756348 429.04520996 186.05786133 428.2253418 C184.31370372 426.33923471 183.11336052 424.61061117 181.79296875 422.4375 C176.95930225 418.21902742 170.98601099 419.24837726 164.8125 419.3125 C162.080355 419.28750057 159.34891744 419.23655321 156.6171875 419.18359375 C155.29944336 419.16022949 153.98169922 419.13686523 152.62402344 419.11279297 C117.20476602 418.01041511 84.55797425 398.81389017 60.49609375 373.8671875 C39.97862044 351.75573852 25.57616008 318.94284852 25.9375 288.5625 C25.94201172 287.83095703 25.94652344 287.09941406 25.95117188 286.34570312 C25.96281852 284.56376581 25.98074809 282.78187137 26 281 C24.93072266 280.87044922 24.93072266 280.87044922 23.83984375 280.73828125 C15.70852085 279.54539539 10.9814273 277.54548111 5.6875 271.25 C3.60625512 267.24167654 2.78574708 263.4117072 2 259 C1.39559082 258.9575415 0.79118164 258.91508301 0.16845703 258.87133789 C-26.76096271 256.62851601 -49.86579075 243.43588044 -69 225 C-69.64582031 224.41734375 -70.29164062 223.8346875 -70.95703125 223.234375 C-84.86383306 210.33720048 -94.37794559 191.19816452 -99 173 C-99.24756546 172.03048401 -99.49513092 171.06096802 -99.75019836 170.06207275 C-102.29502901 158.88623878 -102.4389792 148.03775834 -102.3984375 136.61328125 C-102.40046411 134.57838334 -102.4033804 132.54348615 -102.40713501 130.5085907 C-102.41152774 126.27022296 -102.40522454 122.03204647 -102.39111328 117.79370117 C-102.37399035 112.39080561 -102.38390188 106.98835627 -102.40183067 101.58547688 C-102.41272337 97.3927429 -102.40919766 93.200113 -102.4014473 89.00737572 C-102.39946214 87.01608412 -102.40184455 85.02478272 -102.40888596 83.03350258 C-102.44643187 69.44115119 -101.76729614 57.24046997 -95.375 44.9375 C-95.02800049 44.26195068 -94.68100098 43.58640137 -94.32348633 42.89038086 C-85.86139964 26.9849845 -71.93234667 15.1191339 -55 9 C-51.09425478 7.96973477 -47.13867571 7.2387158 -43.16772461 6.50878906 C-37.69142931 5.41293052 -34.66902637 3.71424325 -30.76953125 -0.37890625 C-22.72110598 -7.75218767 -8.28255967 -6.09372255 0 0 Z M-24 15 C-27.20159846 19.80239769 -26.41027529 25.06259509 -26.42553711 30.71411133 C-26.43740389 32.79564193 -26.48656014 34.87417589 -26.53710938 36.95507812 C-26.86344565 44.88837929 -26.86344565 44.88837929 -23.69140625 51.8828125 C-20.31529629 54.53862033 -18.28419824 55.07650354 -14 55 C-10.2673375 53.38816846 -8.08084709 51.46734566 -6 48 C-5.44812596 43.72672757 -5.52707615 39.46172418 -5.55395508 35.15551758 C-5.56246092 33.07207283 -5.53369907 30.99137689 -5.50195312 28.90820312 C-5.50259766 27.58884766 -5.50324219 26.26949219 -5.50390625 24.91015625 C-5.50205322 23.70496338 -5.5002002 22.49977051 -5.49829102 21.25805664 C-6.09283619 17.39712947 -7.30302126 15.76930066 -10 13 C-15.4657892 9.41307584 -19.14898142 11.30900761 -24 15 Z M104 15 C100.79840154 19.80239769 101.58972471 25.06259509 101.57446289 30.71411133 C101.56259611 32.79564193 101.51343986 34.87417589 101.46289062 36.95507812 C101.13655435 44.88837929 101.13655435 44.88837929 104.30859375 51.8828125 C107.68470371 54.53862033 109.71580176 55.07650354 114 55 C117.7326625 53.38816846 119.91915291 51.46734566 122 48 C122.55187404 43.72672757 122.47292385 39.46172418 122.44604492 35.15551758 C122.43753908 33.07207283 122.46630093 30.99137689 122.49804688 28.90820312 C122.49740234 27.58884766 122.49675781 26.26949219 122.49609375 24.91015625 C122.49794678 23.70496338 122.4997998 22.49977051 122.50170898 21.25805664 C121.90561089 17.38704492 120.72991828 15.7568387 118 13 C112.0293698 9.94187234 109.25431872 11.08720947 104 15 Z M15 210 C12.22688887 215.54622226 14.14749265 223.99333828 14.734375 230.015625 C14.85332123 231.24391022 14.85332123 231.24391022 14.97467041 232.49700928 C15.14352031 234.21148831 15.31507896 235.92570259 15.48925781 237.63964844 C15.75059089 240.25591551 15.98851931 242.87371236 16.2265625 245.4921875 C16.39438918 247.16681202 16.56361138 248.84129741 16.734375 250.515625 C16.80122498 251.2927887 16.86807495 252.06995239 16.93695068 252.8706665 C17.46615722 257.72197137 18.5252012 260.54842181 22 264 C24.41005184 265.20502592 25.95362781 265.13953146 28.64575195 265.16113281 C29.61047928 265.17074036 30.5752066 265.1803479 31.56916809 265.19024658 C32.61497543 265.19449646 33.66078278 265.19874634 34.73828125 265.203125 C35.81119919 265.20882507 36.88411713 265.21452515 37.98954773 265.22039795 C40.26344819 265.22985683 42.53736242 265.23638544 44.8112793 265.24023438 C48.28784175 265.24993122 51.76381098 265.28094322 55.24023438 265.3125 C57.44791315 265.31903079 59.65559616 265.32428097 61.86328125 265.328125 C63.42288322 265.3466452 63.42288322 265.3466452 65.01399231 265.36553955 C72.07309065 265.46914732 72.07309065 265.46914732 78 262 C78.97298191 260.02377597 78.97298191 260.02377597 79.2109375 257.7109375 C79.34854492 256.82245117 79.48615234 255.93396484 79.62792969 255.01855469 C79.75071289 254.02243164 79.87349609 253.02630859 80 252 C80.14083008 250.89817383 80.28166016 249.79634766 80.42675781 248.66113281 C80.86539676 244.98564094 81.25139857 241.30764265 81.625 237.625 C81.7590625 236.3875 81.893125 235.15 82.03125 233.875 C84.31761002 221.07074608 84.31761002 221.07074608 81.67041016 209.23291016 C78.42219772 206.83544263 75.39720427 206.86567914 71.50634766 206.83886719 C70.38152985 206.82925964 69.25671204 206.8196521 68.09780884 206.80975342 C66.88217255 206.80550354 65.66653625 206.80125366 64.4140625 206.796875 C63.16499115 206.79117493 61.9159198 206.78547485 60.6289978 206.77960205 C57.98439897 206.77014902 55.3399137 206.76325362 52.6953125 206.75976562 C49.31364914 206.754283 45.93238885 206.73025544 42.55085182 206.70179367 C39.31778604 206.67864308 36.08469957 206.67671616 32.8515625 206.671875 C31.03418076 206.6533548 31.03418076 206.6533548 29.18008423 206.63446045 C28.0489621 206.63746155 26.91783997 206.64046265 25.75244141 206.64355469 C24.7599942 206.63990906 23.767547 206.63626343 22.74502563 206.63250732 C19.50873495 207.06576853 17.62587933 208.08960158 15 210 Z M42 281 C40.68892183 311.15479787 52.65724891 339.79207939 72.5 362.1875 C73.99353985 363.79768303 75.49320784 365.40221151 77 367 C77.61230469 367.67675781 78.22460938 368.35351562 78.85546875 369.05078125 C91.19165357 382.17606104 108.13449252 391.59956216 125.0625 397.375 C125.72088867 397.60155273 126.37927734 397.82810547 127.05761719 398.06152344 C140.92082313 402.47465506 154.42959678 403.43142548 168.84375 403.29296875 C170.59207795 403.28735545 172.34041071 403.28309359 174.08874512 403.28010559 C178.63264598 403.26879299 183.17624718 403.23944742 187.72003174 403.20599365 C192.37971954 403.17499522 197.03945699 403.16153744 201.69921875 403.14648438 C210.79963027 403.11456083 219.89974304 403.06190867 229 403 C228.67 398.38 228.34 393.76 228 389 C225.75123047 388.98541748 223.50246094 388.97083496 221.18554688 388.95581055 C213.69367691 388.90511212 206.20200717 388.83845904 198.71033478 388.76428509 C194.1752353 388.71986046 189.64021993 388.68054583 185.10498047 388.65356445 C180.71515876 388.62724925 176.32566574 388.58665621 171.93605042 388.53681374 C170.27466471 388.52033321 168.61322241 388.50870343 166.95176697 388.50238609 C140.05592639 388.38993592 114.4921287 381.04684948 94 363 C93.18144531 362.32453125 92.36289063 361.6490625 91.51953125 360.953125 C71.24248827 343.72549779 59.00050366 317.54055868 56.6640625 291.21484375 C56.41200231 287.81203114 56.20234438 284.40613046 56 281 C51.38 281 46.76 281 42 281 Z M251.28125 372.03515625 C246.23341015 379.05016898 242.96459924 387.27305075 244 396 C246.34407669 406.30334274 249.56644818 414.03338845 258.25 420.3125 C265.43918672 424.73939853 273.53825925 427.25098825 282 426 C292.01636211 423.46003425 299.82664557 418.65348636 305.74609375 410.12109375 C310.41971219 402.21525322 311.58902953 393.22145459 309.30859375 384.29296875 C305.42266449 373.70828278 298.99022479 366.71475363 288.7734375 361.96484375 C275.33053989 356.85844271 260.53418721 361.07883742 251.28125 372.03515625 Z " fill="#000000" transform="translate(102,14)"/>
</svg>
