<?xml version="1.0" encoding="UTF-8"?>
<svg version="1.1" xmlns="http://www.w3.org/2000/svg" width="512" height="512">
<path d="M0 0 C26.31897593 23.48675017 43.06270291 51.48302388 51.9765625 85.65625 C52.24992432 86.68202148 52.24992432 86.68202148 52.52880859 87.72851562 C58.51212009 111.42361986 56.56492206 140.12563418 50.9765625 163.65625 C50.77289063 164.53168457 50.56921875 165.40711914 50.359375 166.30908203 C41.89327314 201.52571406 23.47257127 233.57348409 0.9765625 261.65625 C0.23921875 262.58695312 -0.498125 263.51765625 -1.2578125 264.4765625 C-6.09955867 270.50299125 -11.21232686 276.22133938 -16.46875 281.8828125 C-18.53594991 284.12702035 -20.5437883 286.39810859 -22.5234375 288.71875 C-28.74912105 295.88500445 -35.58335204 302.56285747 -42.8046875 308.71875 C-45.15158471 310.76815319 -47.42685871 312.88166636 -49.70239258 315.00952148 C-55.6044034 320.52242608 -61.63092374 325.7130511 -68.0234375 330.65625 C-69.3534969 331.70362461 -70.68286287 332.7518801 -72.01171875 333.80078125 C-101.29308433 356.84525156 -132.30664459 377.78890293 -165.0234375 395.65625 C-165.97250977 396.17783691 -166.92158203 396.69942383 -167.89941406 397.23681641 C-171.08381981 398.98590612 -174.27172955 400.72843326 -177.4609375 402.46875 C-178.46809814 403.02046875 -179.47525879 403.5721875 -180.51293945 404.140625 C-183.33643002 405.67283516 -186.17501974 407.17099256 -189.0234375 408.65625 C-189.81766113 409.08856934 -190.61188477 409.52088867 -191.43017578 409.96630859 C-196.92364199 412.74339563 -201.07501792 413.46210394 -207.0234375 411.65625 C-211.41986653 409.81108206 -215.58390136 407.61476094 -219.7734375 405.34375 C-220.97588826 404.70353724 -222.17877581 404.06414423 -223.38208008 403.42553711 C-226.94299452 401.52718747 -230.48481505 399.59584884 -234.0234375 397.65625 C-235.46565674 396.86686035 -235.46565674 396.86686035 -236.93701172 396.06152344 C-264.9513293 380.61557056 -291.47264411 362.8686709 -317.0234375 343.65625 C-317.60609375 343.22376953 -318.18875 342.79128906 -318.7890625 342.34570312 C-320.2303249 341.27367503 -321.65884667 340.1845723 -323.0859375 339.09375 C-323.81941406 338.53558594 -324.55289063 337.97742188 -325.30859375 337.40234375 C-327.38142518 335.29173862 -328.17279735 333.47538727 -329.0234375 330.65625 C-328.87656257 327.13125165 -328.1834856 324.95634019 -326.5234375 321.84375 C-323.49292925 319.19205528 -321.5527183 318.4919413 -317.56640625 318.27734375 C-310.11296619 319.38791777 -303.90268831 325.7341882 -298.16796875 330.23828125 C-290.68156635 336.0442178 -282.85896878 341.306161 -274.9609375 346.53125 C-274.23600098 347.01247314 -273.51106445 347.49369629 -272.76416016 347.98950195 C-261.37416993 355.54485379 -249.90397246 362.89025601 -238.0234375 369.65625 C-237.00217773 370.23874512 -235.98091797 370.82124023 -234.92871094 371.42138672 C-227.65740145 375.55548663 -220.37124404 379.65956173 -213.0234375 383.65625 C-212.1149707 384.16945801 -211.20650391 384.68266602 -210.27050781 385.21142578 C-205.40879105 387.86402338 -205.40879105 387.86402338 -200.03515625 388.78515625 C-195.44262066 387.06369998 -191.16075717 384.89987715 -186.8359375 382.59375 C-185.82837402 382.05991699 -184.82081055 381.52608398 -183.78271484 380.97607422 C-152.76904217 364.35905966 -122.92520409 345.0996011 -95.0234375 323.65625 C-94.40065918 323.18219727 -93.77788086 322.70814453 -93.13623047 322.21972656 C-83.7675469 315.07669727 -74.85029313 307.45463425 -66.0234375 299.65625 C-65.09402344 298.84027344 -64.16460937 298.02429688 -63.20703125 297.18359375 C-57.24847416 291.89642337 -51.61259492 286.3299493 -46.0234375 280.65625 C-43.51435271 278.13523612 -40.99491781 275.62850812 -38.4453125 273.1484375 C-32.15181439 266.98375368 -26.49777154 260.57119826 -21.0234375 253.65625 C-20.0669337 252.4880829 -19.10849841 251.32149544 -18.1484375 250.15625 C-11.19282111 241.67171777 -4.84558765 232.95587298 0.9765625 223.65625 C1.39147949 222.99399414 1.80639648 222.33173828 2.23388672 221.64941406 C11.63444186 206.4914255 19.4832145 190.64682821 24.9765625 173.65625 C25.51216797 172.0784375 25.51216797 172.0784375 26.05859375 170.46875 C31.1946555 154.77202196 33.21272052 138.74711055 33.2265625 122.28125 C33.22723724 121.56316162 33.22791199 120.84507324 33.22860718 120.10522461 C33.21250435 109.32866876 32.75379423 99.12686156 29.9765625 88.65625 C29.81027344 88.01445801 29.64398438 87.37266602 29.47265625 86.71142578 C20.51371344 52.92459796 -0.82255339 22.64931925 -31.0234375 4.65625 C-62.64500018 -12.84605799 -98.08286776 -18.72025973 -133.22314453 -8.70141602 C-136.53125763 -7.69012966 -139.78232944 -6.55144473 -143.0234375 -5.34375 C-143.67376953 -5.10172852 -144.32410156 -4.85970703 -144.99414062 -4.61035156 C-161.38942355 1.66508432 -178.97920863 10.95956328 -187.5234375 26.96875 C-188.77807189 30.05305953 -189.70366369 32.37856841 -190.0234375 35.65625 C-190.09820312 36.27757813 -190.17296875 36.89890625 -190.25 37.5390625 C-191.12962535 50.45566636 -182.42942742 60.84556522 -175.33642578 70.79345703 C-164.0475087 86.80952942 -157.81392847 102.27638298 -157.8984375 122.09375 C-157.89457031 122.99673828 -157.89070312 123.89972656 -157.88671875 124.83007812 C-157.89449158 130.19721577 -158.24087233 135.34598635 -159.0234375 140.65625 C-157.88261719 140.33398438 -156.74179687 140.01171875 -155.56640625 139.6796875 C-141.44902877 136.1728428 -126.75683188 138.47768731 -114.2734375 145.78125 C-100.16587418 155.45324756 -94.35643055 169.21313777 -89.7109375 185.15625 C-89.36482422 186.30867187 -89.01871094 187.46109375 -88.66210938 188.6484375 C-85.25893607 200.03215172 -82.31632505 211.42481518 -88.0234375 222.65625 C-92.9301371 230.75429893 -99.0509881 235.32076518 -108.0859375 238.03125 C-112.49614992 238.73128372 -115.65672032 238.43602093 -120.0234375 237.65625 C-120.06082031 238.52765625 -120.09820312 239.3990625 -120.13671875 240.296875 C-121.17747855 259.1529937 -126.97300892 276.639123 -140.0234375 290.65625 C-140.8071875 291.501875 -141.5909375 292.3475 -142.3984375 293.21875 C-143.2646875 294.023125 -144.1309375 294.8275 -145.0234375 295.65625 C-145.66023437 296.30980469 -146.29703125 296.96335937 -146.953125 297.63671875 C-167.40082895 317.63691403 -199.22810394 324.10042628 -226.8515625 323.80859375 C-258.96104155 323.09281502 -288.32728854 310.76768081 -313.0234375 290.65625 C-313.85617187 289.98464844 -314.68890625 289.31304687 -315.546875 288.62109375 C-320.2032425 284.70510652 -324.1719667 280.35567836 -328.0234375 275.65625 C-328.77367187 274.77839844 -329.52390625 273.90054687 -330.296875 272.99609375 C-342.10936745 258.55653278 -350.1490229 241.60772311 -355.0234375 223.65625 C-355.33796875 222.53476562 -355.6525 221.41328125 -355.9765625 220.2578125 C-358.393863 210.09093098 -358.7107123 199.67201009 -359.11425781 189.26464844 C-359.61287392 179.12786127 -361.41712502 173.15380033 -368.2734375 165.65625 C-381.05831114 150.46630112 -386.15172287 131.71668713 -384.7734375 112.09765625 C-382.21079081 93.03797147 -373.33973669 76.09139055 -358.625 63.6015625 C-349.49602416 56.77539138 -340.08614794 52.44556588 -329.0234375 49.65625 C-328.41612793 49.4819043 -327.80881836 49.30755859 -327.18310547 49.12792969 C-308.09397162 44.95879035 -287.03789425 49.34736251 -270.68505859 59.54003906 C-266.35254485 62.45044941 -262.6444205 65.91934099 -259.0234375 69.65625 C-258.45238281 70.21828125 -257.88132812 70.7803125 -257.29296875 71.359375 C-244.65005299 84.74981535 -243.57662026 102.29911881 -244.0234375 119.65625 C-244.25641471 123.00630156 -244.57544671 126.32831841 -245.0234375 129.65625 C-244.41757813 129.68203125 -243.81171875 129.7078125 -243.1875 129.734375 C-234.04966069 130.35293643 -227.12188991 132.8484253 -220.0234375 138.65625 C-216.87409549 137.9173985 -216.87409549 137.9173985 -215.2109375 135.296875 C-212.71141421 132.27959331 -210.54379952 131.07842196 -207.0234375 129.40625 C-205.9921875 128.90609375 -204.9609375 128.4059375 -203.8984375 127.890625 C-195.1384169 124.1295292 -187.76024652 125.64849608 -179.0234375 128.65625 C-179.54435275 108.60101273 -185.33279477 94.51463552 -197.0234375 78.28125 C-207.43063621 63.80707432 -213.32466782 50.83281106 -212.0234375 32.65625 C-209.2195883 15.87696493 -198.55195716 1.61525899 -185.0234375 -8.34375 C-128.121197 -46.31398048 -52.94689855 -44.55473884 0 0 Z M-345.0234375 80.65625 C-345.67054688 81.1409375 -346.31765625 81.625625 -346.984375 82.125 C-355.7153392 88.98776662 -361.38769397 99.71528617 -363.0234375 110.65625 C-364.23261993 127.72780298 -361.4157669 139.92866372 -350.77734375 153.52734375 C-346.01007531 159.67234494 -342.39192356 165.22653479 -340.0234375 172.65625 C-339.6934375 173.64625 -339.3634375 174.63625 -339.0234375 175.65625 C-338.91031778 177.13276001 -338.84562209 178.61328359 -338.8125 180.09375 C-337.73986937 216.58311642 -328.30012442 246.9632999 -301.43359375 272.5859375 C-278.44359338 293.723288 -247.35673972 303.79812458 -216.40039062 302.79248047 C-195.34463475 301.58571057 -171.95052571 293.85891523 -157.0234375 278.65625 C-146.05040085 265.55399157 -140.22740349 250.31529551 -140.66796875 233.0703125 C-141.61265322 223.99718915 -144.47289814 215.29791433 -147.2734375 206.65625 C-149.06713055 200.95739058 -150.20406215 196.10730668 -148.2109375 190.28125 C-147.0234375 188.65625 -147.0234375 188.65625 -144.0234375 186.65625 C-140.46290537 186.3265711 -137.74205734 186.42228075 -134.3359375 187.53125 C-130.0013265 191.51440605 -128.74446103 197.2938721 -127.0625 202.8046875 C-124.6928869 210.84543132 -124.6928869 210.84543132 -119.0234375 216.65625 C-116.02359643 217.7811904 -114.50871777 217.77179292 -111.3984375 217.03125 C-108.23983956 215.20258804 -107.31524012 214.10105699 -106.0234375 210.65625 C-105.92785508 202.86489055 -108.33376907 195.6902394 -110.8359375 188.40625 C-111.17947266 187.35695313 -111.52300781 186.30765625 -111.87695312 185.2265625 C-115.42041208 174.72250031 -120.22958684 167.45261059 -130.0234375 161.65625 C-137.3737876 158.82447395 -144.78024344 158.24519967 -152.32421875 160.75390625 C-161.37064412 164.97857563 -166.5448012 170.18014043 -170.26953125 179.40625 C-174.44898925 191.87965833 -168.67022915 204.38930593 -164.76953125 216.28710938 C-162.6015777 223.09670706 -160.93294256 228.47601939 -162.7734375 235.53125 C-164.0234375 237.65625 -164.0234375 237.65625 -165.7109375 238.46875 C-170.92429869 238.89145496 -175.32126881 239.19712534 -180.0234375 236.65625 C-180.9921875 234.58203125 -180.9921875 234.58203125 -181.5234375 231.96875 C-182.66219803 227.01876204 -184.07563079 222.2713215 -185.7109375 217.46875 C-185.9378125 216.79690674 -186.1646875 216.12506348 -186.3984375 215.43286133 C-186.93739978 213.83974008 -187.4800149 212.24785533 -188.0234375 210.65625 C-188.9515625 211.501875 -189.8796875 212.3475 -190.8359375 213.21875 C-204.41211006 224.72720891 -218.6564998 228.86041627 -236.2109375 228.78125 C-237.29286377 228.77786621 -238.37479004 228.77448242 -239.48950195 228.77099609 C-247.89973428 228.71919634 -256.30481645 228.5461813 -264.7109375 228.28125 C-265.85006592 228.25047363 -266.98919434 228.21969727 -268.1628418 228.18798828 C-278.39265561 227.81728155 -278.39265561 227.81728155 -283.0234375 225.65625 C-283.8984375 223.96875 -283.8984375 223.96875 -284.0234375 221.65625 C-284.1265625 220.521875 -284.2296875 219.3875 -284.3359375 218.21875 C-283.96855952 214.03064107 -283.00408232 212.55173354 -280.0234375 209.65625 C-277.06745427 208.67092226 -275.23519215 208.5504602 -272.15991211 208.59033203 C-271.17135727 208.60009064 -270.18280243 208.60984924 -269.16429138 208.61990356 C-268.09558304 208.63447601 -267.02687469 208.64904846 -265.92578125 208.6640625 C-263.65690562 208.6815922 -261.3880251 208.69849918 -259.11914062 208.71484375 C-255.54681849 208.7456924 -251.9747416 208.78107005 -248.40258789 208.82763672 C-244.95195573 208.87026372 -241.50160642 208.89350632 -238.05078125 208.9140625 C-236.99624252 208.93268341 -235.9417038 208.95130432 -234.85520935 208.9704895 C-226.49396455 208.99906812 -218.38030873 207.79878057 -211.3359375 202.96875 C-210.67207031 202.53175781 -210.00820312 202.09476563 -209.32421875 201.64453125 C-202.30554989 195.57916206 -198.02208325 188.57480667 -193.8984375 180.34375 C-193.15013672 178.8906543 -193.15013672 178.8906543 -192.38671875 177.40820312 C-190.90287291 174.50443692 -189.45523716 171.58600024 -188.0234375 168.65625 C-187.5294043 167.65287598 -187.03537109 166.64950195 -186.52636719 165.61572266 C-186.06391602 164.64554199 -185.60146484 163.67536133 -185.125 162.67578125 C-184.70814941 161.80671143 -184.29129883 160.9376416 -183.86181641 160.04223633 C-182.96936924 157.50237431 -182.86867591 156.23862162 -183.5234375 153.65625 C-185.4007146 149.9016958 -186.35713608 148.24170726 -190.3359375 146.84375 C-194.03877428 146.58541255 -195.72274415 146.8375006 -199.0234375 148.65625 C-204.37930503 156.06068368 -208.09991222 164.68409966 -212.0546875 172.88476562 C-218.30571126 185.6428579 -218.30571126 185.6428579 -224.94384766 188.14648438 C-229.15842395 189.17959488 -233.39837602 189.00292147 -237.7109375 188.90625 C-238.7124585 188.89311768 -239.71397949 188.87998535 -240.74584961 188.86645508 C-243.83917647 188.81648014 -246.93084291 188.73950079 -250.0234375 188.65625 C-250.98862305 188.63546387 -251.95380859 188.61467773 -252.94824219 188.59326172 C-255.66186451 188.52977142 -258.37339204 188.44256397 -261.0859375 188.34375 C-261.89957764 188.32151367 -262.71321777 188.29927734 -263.55151367 188.27636719 C-269.9388962 187.97787252 -274.18421965 186.53726826 -278.7734375 181.84375 C-282.50395192 176.55885457 -283.58903234 172.10403114 -283.0234375 165.65625 C-280.37158872 157.96588853 -275.9908864 153.45013179 -269.92578125 148.3046875 C-269.29800781 147.76070313 -268.67023438 147.21671875 -268.0234375 146.65625 C-267.49720795 146.20673477 -266.97097839 145.75721954 -266.42880249 145.29408264 C-263.95483041 142.41087988 -264.59838795 138.59377026 -264.625 134.96484375 C-264.62212982 134.10496353 -264.61925964 133.24508331 -264.61630249 132.35914612 C-264.61426007 130.53589217 -264.61980238 128.71261639 -264.63232422 126.8894043 C-264.64823877 124.12822918 -264.63255354 121.36854862 -264.61328125 118.60742188 C-264.59543217 104.50528541 -265.89026623 93.53541685 -275.76953125 82.75 C-287.53639249 71.59472199 -301.47786934 69.02638612 -317.02734375 69.34765625 C-328.12534047 69.85182538 -336.46973388 73.76492694 -345.0234375 80.65625 Z M-246.0234375 150.65625 C-247.36981241 152.44342088 -247.36981241 152.44342088 -248.7109375 154.71875 C-251.31801189 158.79351071 -254.17763415 162.04718713 -257.703125 165.34375 C-258.13882813 165.776875 -258.57453125 166.21 -259.0234375 166.65625 C-259.0234375 166.98625 -259.0234375 167.31625 -259.0234375 167.65625 C-253.13943095 168.51320967 -247.46434458 168.78164234 -241.5234375 168.71875 C-240.70101562 168.71423828 -239.87859375 168.70972656 -239.03125 168.70507812 C-237.02861354 168.69343489 -235.02601523 168.67550556 -233.0234375 168.65625 C-231.7034375 166.01625 -230.3834375 163.37625 -229.0234375 160.65625 C-233.36664152 154.7539471 -236.81442442 152.17014275 -244.0234375 150.65625 C-244.6834375 150.65625 -245.3434375 150.65625 -246.0234375 150.65625 Z " fill="#000000" transform="translate(457.0234375,67.34375)"/>
<path d="M0 0 C2.71211425 2.9058367 4.56553603 4.93676589 4.5 9 C4.30170354 13.03457024 2.92149301 15.16443325 0 18 C-3.3126378 19.6563189 -6.43166324 19.60649948 -10 19 C-12.66034294 17.77804587 -15.1219043 16.31997521 -17.65234375 14.84765625 C-47.64670589 -1.7069917 -83.02750449 -5.48863274 -116.01904297 3.49023438 C-137.03544243 9.75931561 -155.22760738 20.92059475 -171 36 C-171.66128906 36.598125 -172.32257813 37.19625 -173.00390625 37.8125 C-190.72000022 54.41910121 -201.94506392 77.80286709 -208 101 C-208.30035156 102.13179688 -208.60070312 103.26359375 -208.91015625 104.4296875 C-213.74373967 126.4168716 -212.46591203 151.31281757 -207 173 C-206.73509766 174.10239014 -206.73509766 174.10239014 -206.46484375 175.22705078 C-197.75666255 210.76126797 -176.69661443 245.04237598 -152.04296875 271.76171875 C-141.86173415 282.91630273 -141.86173415 282.91630273 -142 289 C-142.77952684 292.27401274 -143.84383352 293.83005412 -146.125 296.3125 C-149.13912583 298.08166081 -151.3925881 298.78004547 -154.91015625 298.55078125 C-174.72443887 293.32869929 -194.65834509 253.47454313 -204.43359375 236.91015625 C-215.31147308 218.14558797 -223.78649443 198.18467216 -228.875 177.0625 C-229.06594238 176.27214355 -229.25688477 175.48178711 -229.45361328 174.66748047 C-232.47369937 161.30845958 -233.41403514 148.07883404 -233.375 134.4375 C-233.3737915 133.65008423 -233.37258301 132.86266846 -233.37133789 132.0513916 C-233.31729882 119.02072658 -232.47914023 106.622161 -229 94 C-228.73687012 93.04270996 -228.47374023 92.08541992 -228.20263672 91.09912109 C-220.72441684 64.88091387 -207.83699916 42.6531603 -189 23 C-188.18402344 22.12085938 -187.36804688 21.24171875 -186.52734375 20.3359375 C-140.78968539 -27.48989082 -54.91830166 -39.70208432 0 0 Z " fill="#000000" transform="translate(233,55)"/>
<path d="M0 0 C4.84856547 0.06909557 8.48444885 1.63649161 12.76953125 3.78125 C13.88146851 4.3237439 13.88146851 4.3237439 15.01586914 4.87719727 C40.68818884 17.75661409 59.47487628 41.26968074 68.54711914 68.22729492 C72.25727685 79.77504069 77.69812136 97.69333623 72.046875 109.13671875 C70.24671107 111.5649497 69.33860603 112.40076882 66.45703125 113.28125 C63.15244826 113.70962187 60.66312449 113.98121482 57.70703125 112.265625 C55.00117142 110.10614071 53.56078484 108.59251077 52.45703125 105.28125 C52.24745935 103.1793061 52.0413969 101.07688633 51.86181641 98.97216797 C49.70909373 74.16990017 39.81464911 51.68225027 20.76953125 35.09375 C13.50318989 29.25090445 5.57604487 24.76727815 -2.80859375 20.6953125 C-6.15853693 18.96291331 -7.65281152 17.55267598 -9.54296875 14.28125 C-10.15274144 11.47173659 -10.22184794 9.08162668 -9.54296875 6.28125 C-7.10546875 3.34375 -7.10546875 3.34375 -4.54296875 1.28125 C-3.54296875 0.28125 -3.54296875 0.28125 0 0 Z " fill="#000000" transform="translate(392.54296875,85.71875)"/>
<path d="M0 0 C3.20613573 1.89993229 5.39902918 3.33474007 6.69921875 6.9375 C7.31497271 10.43339345 7.20710911 12.50947841 5.8125 15.8125 C2.83038672 19.41160223 1.33699707 20.85414577 -3.4375 21.375 C-7.20656993 20.9782558 -9.02618388 20.29408672 -12 18 C-14.66836411 13.99745384 -14.8340238 10.70686701 -14 6 C-9.78502349 0.67581915 -6.7408423 -0.67408423 0 0 Z " fill="#000000" transform="translate(114,362)"/>
<path d="M0 0 C2.75569447 2.18159145 4.43588747 3.87177494 6 7 C6.59873168 12.26883876 5.25400021 14.8846468 2 19 C-1.47263273 20.73631636 -5.21193013 20.60190402 -9 20 C-11.75569447 17.81840855 -13.43588747 16.12822506 -15 13 C-15.59873168 7.73116124 -14.25400021 5.1153532 -11 1 C-7.52736727 -0.73631636 -3.78806987 -0.60190402 0 0 Z " fill="#000000" transform="translate(364,80)"/>
</svg>
