<?xml version="1.0" encoding="UTF-8"?>
<svg version="1.1" xmlns="http://www.w3.org/2000/svg" width="512" height="512">
<path d="M0 0 C2.94901908 2.49524917 5.76934528 5.12352585 8.5870533 7.76515579 C9.56205331 8.6777299 9.56205331 8.6777299 10.5567503 9.60873985 C17.89973116 16.51837293 25.02480606 23.64111332 32.13954353 30.78419876 C33.55277926 32.19930649 34.96624105 33.61418847 36.37991524 35.02885818 C40.04639603 38.69910269 43.70986059 42.37234266 47.3726368 46.04628372 C51.13226208 49.81625763 54.8948267 53.58329566 58.65712166 57.35060501 C65.99914263 64.70325446 73.33797048 72.05908184 80.67469978 79.41701126 C83.52600946 78.1220112 85.57584535 76.76225256 87.77713203 74.54162979 C88.36413887 73.95448196 88.95114571 73.36733414 89.55594063 72.76239395 C90.18818047 72.11982147 90.8204203 71.47724899 91.47181892 70.81520462 C92.14723732 70.13686569 92.82265572 69.45852676 93.51854134 68.75963211 C94.98469028 67.28587442 96.44852414 65.8098108 97.91031265 64.33172798 C100.23186555 61.98460306 102.55964728 59.64382104 104.88916206 57.30459976 C110.67979001 51.48724787 116.45965285 45.65923785 122.23964119 39.8313179 C127.11573555 34.91554941 131.99604233 30.0040354 136.88188171 25.09795189 C139.16076089 22.8062269 141.43346242 20.50849854 143.70596504 18.21045303 C166.86789744 -5.11665283 192.59370869 -22.45846366 226.48524666 -22.82419968 C237.93148426 -22.85146705 248.61409592 -22.81307659 259.67469978 -19.58298874 C260.66341072 -19.3161528 261.65212166 -19.04931686 262.67079353 -18.77439499 C276.38255013 -14.67725656 288.69781858 -7.69113051 299.67469978 1.41701126 C300.94893806 2.44568314 300.94893806 2.44568314 302.24891853 3.49513626 C316.94470357 15.9531016 327.89813587 33.1005755 333.67469978 51.41701126 C334.06786385 52.65837845 334.46102791 53.89974564 334.86610603 55.17873001 C342.13407578 80.88643632 339.10433407 110.77800358 326.67469978 134.41701126 C316.96549999 151.61119177 303.10352349 165.28326692 289.19032478 179.09669876 C287.63761758 180.64566502 286.08535933 182.19508143 284.53352547 183.74492264 C280.49392012 187.77697661 276.44834123 191.80298238 272.40138435 195.82765579 C268.25440981 199.95398642 264.11325653 204.08615063 259.97157478 208.21779251 C251.87822653 216.28984123 243.77854035 224.35549717 235.67469978 232.41701126 C236.96969984 235.26832094 238.32945848 237.31815683 240.55008125 239.51944351 C241.13722908 240.10645035 241.72437691 240.69345718 242.32931709 241.29825211 C242.97188957 241.93049194 243.61446205 242.56273178 244.27650642 243.2141304 C244.95484535 243.8895488 245.63318428 244.56496719 246.33207893 245.26085281 C247.80583663 246.72700176 249.28190024 248.19083562 250.75998306 249.65262413 C253.10710798 251.97417702 255.44789001 254.30195876 257.78711128 256.63147354 C263.60446317 262.42210149 269.43247319 268.20196433 275.26039314 273.98195267 C280.17616164 278.85804703 285.08767565 283.73835381 289.99375916 288.62419319 C292.28548414 290.90307237 294.58321251 293.1757739 296.88125801 295.44827652 C315.02544135 313.46360236 329.1871146 332.28279338 335.67469978 357.41701126 C335.86306404 358.14565384 336.0514283 358.87429642 336.24550056 359.62501907 C337.94641318 367.02756104 338.06069146 374.34565607 338.04969978 381.91701126 C338.04838554 382.90995697 338.04838554 382.90995697 338.04704475 383.92296219 C337.91878006 413.35948777 326.75666663 438.8517214 306.19032478 459.96779251 C291.12620945 474.29652944 272.26954615 484.73065562 251.67469978 488.41701126 C250.19743416 488.68964798 250.19743416 488.68964798 248.69032478 488.96779251 C220.23948378 492.85761617 191.64419645 486.90172139 167.97157478 470.54982376 C155.10194898 460.54472757 143.66838395 448.55300519 132.18641853 437.02638626 C130.74790344 435.58600045 129.30916322 434.14583943 127.87021065 432.70589066 C124.12808193 428.95998819 120.38896882 425.21109028 116.65052986 421.46150589 C112.81734598 417.61799576 108.98124288 413.77740152 105.14540291 409.93654251 C97.65234931 402.43284258 90.16248626 394.9259669 82.67469978 387.41701126 C79.8233901 388.71201132 77.77355422 390.07176996 75.57226753 392.29239273 C74.9852607 392.87954056 74.39825386 393.46668839 73.79345894 394.07162857 C73.1612191 394.71420105 72.52897926 395.35677353 71.87758064 396.0188179 C71.20216225 396.69715683 70.52674385 397.37549576 69.83085823 398.07439041 C68.36470928 399.5481481 66.90087542 401.02421172 65.43908691 402.50229454 C63.11753402 404.84941946 60.78975229 407.19020148 58.4602375 409.52942276 C52.66960956 415.34677465 46.88974671 421.17478467 41.10975838 427.00270462 C36.23366402 431.91847311 31.35335724 436.82998713 26.46751785 441.73607063 C24.18863868 444.02779562 21.91593715 446.32552399 19.64343452 448.62356949 C-3.44660113 471.87876032 -29.64419226 489.4671696 -63.48618889 489.7466011 C-64.67059563 489.74096146 -65.85500237 489.73532181 -67.07530022 489.72951126 C-68.31449211 489.72387161 -69.55368401 489.71823196 -70.83042717 489.71242142 C-79.70917601 489.59463674 -87.78222551 488.99550192 -96.32530022 486.41701126 C-97.33028557 486.11899612 -97.33028557 486.11899612 -98.35557365 485.81496048 C-125.17989159 477.67991631 -147.91873673 459.98734773 -161.63389397 435.41310501 C-170.50947876 418.66107852 -174.7280489 401.84305847 -174.70030022 382.85451126 C-174.69942406 382.19504501 -174.6985479 381.53557877 -174.69764519 380.85612869 C-174.52237824 340.75395899 -153.05450446 314.7557636 -125.84092522 287.73732376 C-124.28821801 286.18835751 -122.73595976 284.6389411 -121.1841259 283.08909988 C-117.14452056 279.05704591 -113.09894166 275.03104015 -109.05198479 271.00636673 C-104.90501025 266.88003611 -100.76385696 262.74787189 -96.62217522 258.61623001 C-88.52882697 250.54418129 -80.42914078 242.47852535 -72.32530022 234.41701126 C-73.62030027 231.56570158 -74.98005892 229.5158657 -77.20068169 227.31457901 C-77.78782951 226.72757217 -78.37497734 226.14056534 -78.97991753 225.53577042 C-79.62249001 224.90353058 -80.26506248 224.27129074 -80.92710686 223.61989212 C-81.60544579 222.94447372 -82.28378471 222.26905533 -82.98267937 221.57316971 C-84.45643706 220.10702076 -85.93250067 218.6431869 -87.4105835 217.18139839 C-89.75770842 214.8598455 -92.09849044 212.53206376 -94.43771172 210.20254898 C-100.25506361 204.41192104 -106.08307363 198.63205819 -111.91099358 192.85206985 C-116.82676207 187.97597549 -121.73827608 183.09566872 -126.64435959 178.20982933 C-128.93608458 175.93095016 -131.23381294 173.65824862 -133.53185844 171.385746 C-156.68260483 148.39941305 -174.30311393 122.36760177 -174.70567131 88.69655228 C-174.70389885 87.42867874 -174.70212639 86.16080521 -174.70030022 84.85451126 C-174.69975639 84.19570969 -174.69921257 83.53690811 -174.69865227 82.85814285 C-174.65716885 71.89872065 -173.76744639 61.83049256 -170.32530022 51.41701126 C-170.01181633 50.45118118 -170.01181633 50.45118118 -169.69199944 49.46583939 C-160.94487703 23.44069319 -141.60598316 0.5759665 -116.98740959 -11.75388718 C-107.78086964 -16.05348206 -98.36422941 -19.78607982 -88.32530022 -21.58298874 C-87.34045647 -21.76474655 -86.35561272 -21.94650436 -85.34092522 -22.13376999 C-55.14577869 -26.26207661 -23.80716162 -19.51924278 0 0 Z M-125.32530022 13.41701126 C-126.1747924 14.10408157 -127.02428459 14.79115189 -127.89951897 15.49904251 C-144.39581127 29.51962785 -155.20243573 50.04469934 -158.32530022 71.41701126 C-159.87989865 96.13191002 -156.31306155 120.30432452 -140.12217522 140.11232376 C-138.6793338 141.71711677 -137.2181931 143.30583293 -135.73155022 144.87013626 C-133.79313279 146.92183783 -131.94411809 149.0034802 -130.10323906 151.14076614 C-126.6986367 155.03944917 -123.14204315 158.73608278 -119.47202873 162.38380814 C-118.82727089 163.02871201 -118.18251305 163.67361588 -117.51821709 164.33806229 C-115.41591204 166.43967839 -113.31010244 168.53774396 -111.20420647 170.63576126 C-109.73425566 172.10384426 -108.2645275 173.57215023 -106.79501152 175.04066849 C-102.94874076 178.88314262 -99.09947516 182.72260266 -95.24955559 186.56142044 C-91.31268681 190.48801337 -87.3786889 194.41748032 -83.44444084 198.34669876 C-75.740851 206.0396017 -68.03409087 213.72932013 -60.32530022 221.41701126 C-56.44847326 219.82541331 -54.00087901 217.33895575 -51.06083488 214.39305496 C-50.54288959 213.87681852 -50.02494429 213.36058207 -49.49130368 212.82870209 C-47.75767861 211.09837021 -46.03129674 209.36098899 -44.3047924 207.62355423 C-43.06326847 206.38146615 -41.82130396 205.13981831 -40.57893181 203.89857864 C-37.20701439 200.52723559 -33.84130363 197.14975688 -30.47665882 193.77115774 C-26.95950344 190.24150901 -23.43669229 186.71751445 -19.91447258 183.19292068 C-13.24530582 176.51753506 -6.58125417 169.83706707 0.08098292 163.1547662 C7.66586313 155.54753967 15.25641582 147.94598406 22.84745455 140.34490371 C38.46286436 124.70858269 54.07112309 109.06514005 69.67469978 93.41701126 C68.38753172 90.59161248 67.04136289 88.53301028 64.85074043 86.33908463 C64.27489708 85.75760162 63.69905373 85.17611862 63.10576057 84.57701492 C62.47568092 83.95098373 61.84560127 83.32495255 61.1964283 82.67995071 C60.53105553 82.0110733 59.86568275 81.34219589 59.18014717 80.65304947 C56.97630893 78.44040221 54.76522483 76.2351609 52.55360603 74.03029251 C51.01310658 72.48844506 49.47290405 70.94630088 47.93298531 69.40387344 C44.69884979 66.16678686 41.46111988 62.93334983 38.22084236 59.70241165 C34.09205786 55.58495468 29.97222766 51.45867455 25.85512066 47.32954502 C22.67149395 44.13864197 19.48305765 40.95257883 16.29321289 37.76789284 C14.77409145 36.25009547 13.25642622 34.73083905 11.74031448 33.21003532 C-10.59802999 10.81780322 -33.56562179 -6.70749313 -66.57530022 -6.89548874 C-88.76036422 -6.89548874 -108.02126764 -0.88947236 -125.32530022 13.41701126 Z M170.22157478 16.01076126 C168.27200481 17.85268626 166.30435593 19.59036236 164.2647028 21.32657623 C158.48321285 26.37835936 153.10959033 31.84038398 147.68777657 37.27022171 C146.4830534 38.47307429 145.27811483 39.67571117 144.07298082 40.87815213 C140.77692395 44.1681153 137.48397351 47.46117216 134.19155324 50.75477409 C130.63430215 54.31222979 127.07418819 57.86681858 123.51446724 61.42180252 C116.54663169 68.3813445 109.5815647 75.34365081 102.61759574 82.30706164 C96.95543661 87.96874504 91.29248723 93.62963681 85.62898254 99.28997421 C69.56099029 115.34916376 53.49509244 131.41044439 37.43187613 147.4744111 C36.56656116 148.33976603 35.70124619 149.20512096 34.80970955 150.09669876 C33.51014749 151.39632214 33.51014749 151.39632214 32.18433165 152.72220054 C18.14323574 166.76370291 4.09715805 180.80021011 -9.95118826 194.8344582 C-24.38665886 209.25555667 -38.81838892 223.68038913 -53.24624354 238.10910726 C-61.34215051 246.20534589 -69.43958305 254.3000449 -77.54104233 262.390728 C-84.4383317 269.27890141 -91.3321305 276.17054496 -98.22147243 283.06666753 C-101.73396569 286.58242031 -105.24802773 290.09656514 -108.76649666 293.6063385 C-111.99257276 296.82452378 -115.21392662 300.0473612 -118.43171079 303.27383676 C-119.59139034 304.43504561 -120.75273156 305.59459808 -121.91597294 306.75223884 C-143.58424685 328.32315029 -158.57781749 351.13069485 -158.82530022 382.41701126 C-158.6220314 404.21055513 -152.34796935 423.45625908 -138.32530022 440.41701126 C-137.29469475 441.69124954 -137.29469475 441.69124954 -136.24326897 442.99123001 C-122.22268363 459.48752231 -101.69761214 470.29414677 -80.32530022 473.41701126 C-55.61040146 474.9716097 -31.43798696 471.4047726 -11.62998772 455.21388626 C-10.02519471 453.77104484 -8.43647855 452.30990414 -6.87217522 450.82326126 C-4.92260525 448.98133626 -2.95495636 447.24366016 -0.91530323 445.50744629 C4.86618672 440.45566316 10.23980924 434.99363854 15.661623 429.56380081 C16.86634617 428.36094823 18.07128474 427.15831135 19.27641875 425.95587039 C22.57247562 422.66590723 25.86542605 419.37285036 29.15784633 416.07924843 C32.71509741 412.52179273 36.27521138 408.96720394 39.83493233 405.41222 C46.80276787 398.45267802 53.76783486 391.49037171 60.73180383 384.52696088 C66.39396296 378.86527748 72.05691233 373.20438571 77.72041702 367.54404831 C93.78840928 351.48485876 109.85430713 335.42357813 125.91752344 319.35961142 C126.78283841 318.49425649 127.64815338 317.62890157 128.53969002 316.73732376 C129.40606472 315.87090817 130.27243943 315.00449259 131.16506792 314.11182198 C145.20616383 300.07031961 159.25224152 286.03381242 173.30058783 271.99956432 C187.73605842 257.57846585 202.16778849 243.15363339 216.5956431 228.72491527 C224.69155008 220.62867663 232.78898262 212.53397763 240.89044189 204.44329453 C247.78773126 197.55512111 254.68153006 190.66347756 261.570872 183.767355 C265.08336526 180.25160221 268.59742729 176.73745738 272.11589622 173.22768402 C275.34197233 170.00949874 278.56332619 166.78666132 281.78111035 163.56018576 C282.9407899 162.39897691 284.10213113 161.23942444 285.26537251 160.08178368 C306.61092434 138.83214421 321.80946482 116.08149349 321.98719978 85.10451126 C321.98719978 62.94779927 315.96066539 43.6962268 301.67469978 26.41701126 C300.98762947 25.56751907 300.30055916 24.71802689 299.59266853 23.84279251 C285.5720832 7.34650021 265.04701171 -3.46012425 243.67469978 -6.58298874 C216.49143507 -8.29285052 190.62406124 -3.3788358 170.22157478 16.01076126 Z M218.06637847 248.76716995 C217.57416278 249.26521133 217.08194708 249.76325272 216.57481575 250.27638626 C216.0504122 250.79908096 215.52600865 251.32177567 214.98571408 251.8603096 C213.21822981 253.62448244 211.4580186 255.39574107 209.697649 257.16701126 C208.43671569 258.42850833 207.17534259 259.68956593 205.91356087 260.95021439 C202.47954309 264.38365626 199.05174423 267.82324775 195.62498808 271.26393509 C192.04641522 274.85497587 188.46221109 278.44038682 184.87858772 282.02638626 C178.08894399 288.82225637 171.30441631 295.6232105 164.52168953 302.42598343 C156.80141732 310.16857867 149.07549301 317.90552332 141.34907699 325.64198685 C125.4512986 341.56069346 109.56066955 357.48652092 93.67469978 373.41701126 C94.96186785 376.24241005 96.30803667 378.30101224 98.49865913 380.4949379 C99.07450249 381.0764209 99.65034584 381.6579039 100.24363899 382.2570076 C101.18875847 383.19605438 101.18875847 383.19605438 102.15297127 384.15407181 C102.81834404 384.82294922 103.48371681 385.49182663 104.1692524 386.18097305 C106.37309064 388.39362031 108.58417474 390.59886162 110.79579353 392.80373001 C112.33629299 394.34557746 113.87649551 395.88772164 115.41641426 397.43014908 C118.65054978 400.66723566 121.88827969 403.90067269 125.12855721 407.13161087 C129.25734171 411.24906784 133.3771719 415.37534797 137.49427891 419.5044775 C140.67790562 422.69538055 143.86634192 425.88144369 147.05618668 429.06612968 C148.57530811 430.58392705 150.09297334 432.10318347 151.60908508 433.6239872 C173.94742955 456.0162193 196.91502136 473.54151566 229.92469978 473.72951126 C252.10976379 473.72951126 271.37066721 467.72349488 288.67469978 453.41701126 C289.94893806 452.38640579 289.94893806 452.38640579 291.24891853 451.33498001 C307.74521083 437.31439467 318.55183529 416.78932319 321.67469978 395.41701126 C323.22929822 370.7021125 319.66246112 346.529698 303.47157478 326.72169876 C302.02873336 325.11690575 300.56759266 323.52818959 299.08094978 321.96388626 C297.14235515 319.91199714 295.29226102 317.83029335 293.45065498 315.69325638 C290.05204597 311.80138121 286.5071374 308.10137302 282.85316658 304.45021439 C282.21162132 303.80531052 281.57007607 303.16040665 280.90909004 302.49596024 C278.81663773 300.39411223 276.72053299 298.29595694 274.62391853 296.19826126 C273.15890542 294.73003141 271.69396622 293.26172782 270.22909737 291.79335403 C267.17391656 288.7322133 264.11670424 285.67311815 261.05824471 282.61525345 C257.13105545 278.68816651 253.21083047 274.75420428 249.29227161 270.81850815 C246.27691482 267.79207161 243.25706344 264.77015161 240.23589706 261.74951553 C238.78734385 260.29977939 237.34041851 258.84841487 235.89513397 257.39542007 C233.88452759 255.37508032 231.86776255 253.36109861 229.84926033 251.34865189 C229.25029945 250.7440715 228.65133858 250.13949112 228.03422737 249.51659012 C223.59908803 245.11540013 222.62647484 244.24743921 218.06637847 248.76716995 Z " fill="#000000" transform="translate(174.3253002166748,22.582988739013672)"/>
<path d="M0 0 C1.8871875 -0.09087891 1.8871875 -0.09087891 3.8125 -0.18359375 C16.39716407 0.86149882 26.26130487 14.11760982 34.55078125 22.45703125 C36.13818576 24.04173692 37.72618328 25.62584876 39.31474304 27.20939636 C42.63018515 30.51896373 45.93834206 33.83559957 49.24145508 37.1574707 C53.46212688 41.40094869 57.7005305 45.62618789 61.94456196 49.84628773 C65.22302543 53.11025479 68.49185025 56.38374149 71.75789452 59.66013145 C73.31658109 61.22147368 74.87820947 62.77988514 76.44289589 64.33521461 C78.63235388 66.51444214 80.80846415 68.70621074 82.98168945 70.90161133 C83.6212558 71.53308075 84.26082214 72.16455017 84.91976929 72.81515503 C90.50062 78.50122771 95.5422114 85.19935183 96.0625 93.41015625 C95.63432558 107.29906388 85.91601523 115.96726924 76.62963867 125.21191406 C75.48019784 126.36706744 74.33138597 127.52284695 73.18315125 128.67919922 C70.08262265 131.79757359 66.97270895 134.9064211 63.86038756 138.01302052 C61.25573292 140.6145718 58.65570157 143.22071961 56.05561334 145.82683349 C49.91945801 151.97700336 43.77557726 158.11937823 37.62670898 164.25683594 C31.2972339 170.57482418 24.9806572 176.9054989 18.67033213 183.24260926 C13.23704348 188.69808958 7.79598974 194.14573846 2.34866315 199.58720183 C-0.89820701 202.83071059 -4.14215197 206.07700862 -7.37870216 209.33081818 C-10.42235023 212.38998924 -13.47563773 215.43920778 -16.53642082 218.48123169 C-17.65363039 219.59477067 -18.76749233 220.71168076 -19.87760162 221.83229828 C-33.32313756 235.39528628 -33.32313756 235.39528628 -42.80859375 237.13671875 C-44.60490234 237.13091797 -44.60490234 237.13091797 -46.4375 237.125 C-47.63246094 237.14949219 -48.82742187 237.17398438 -50.05859375 237.19921875 C-62.57480175 235.59197852 -72.20140432 222.81765163 -80.55078125 214.41796875 C-82.13818576 212.83326308 -83.72618328 211.24915124 -85.31474304 209.66560364 C-88.63018515 206.35603627 -91.93834206 203.03940043 -95.24145508 199.7175293 C-99.46212688 195.47405131 -103.7005305 191.24881211 -107.94456196 187.02871227 C-111.22302543 183.76474521 -114.49185025 180.49125851 -117.75789452 177.21486855 C-119.31658109 175.65352632 -120.87820947 174.09511486 -122.44289589 172.53978539 C-124.63235388 170.36055786 -126.80846415 168.16878926 -128.98168945 165.97338867 C-129.94103897 165.02618454 -129.94103897 165.02618454 -130.91976929 164.05984497 C-136.50062 158.37377229 -141.5422114 151.67564817 -142.0625 143.46484375 C-141.63386807 129.56109553 -131.89972265 120.89377509 -122.59790039 111.6472168 C-121.44520611 110.49045015 -120.29314941 109.33304787 -119.14167786 108.17506409 C-116.03292356 105.0527126 -112.91485078 101.93982974 -109.79452443 98.82904792 C-106.52081276 95.56296872 -103.25446898 92.28953387 -99.98692322 89.01728821 C-94.5022788 83.5271982 -89.01136705 78.04343626 -83.5168457 72.56323242 C-77.17300046 66.23572761 -70.84005653 59.89746623 -64.51263434 53.55354184 C-59.06744611 48.09472405 -53.61641396 42.64179365 -48.16048616 37.19370967 C-44.90715655 33.94504637 -41.65586239 30.69441559 -38.40983772 27.43845177 C-35.35910386 24.37902857 -32.30107956 21.32708193 -29.23736382 18.28066063 C-28.11696512 17.16421554 -26.99908705 16.04523405 -25.88398743 14.92349625 C-15.52127409 4.50481322 -15.52127409 4.50481322 -9 1.4375 C-6.02925232 -0.04787384 -3.3086228 0.11006507 0 0 Z M-22.26538086 34.57348633 C-23.3780186 35.68476653 -24.4908684 36.79583442 -25.60391235 37.90670776 C-28.60367465 40.90194088 -31.60030124 43.90029233 -34.59620738 46.89938188 C-37.73724215 50.04295989 -40.88072898 53.18408443 -44.02381897 56.3256073 C-49.29347547 61.59344944 -54.56103057 66.86338593 -59.82739258 72.13452148 C-65.91954847 78.23213555 -72.0153213 84.32611598 -78.11295217 90.41825467 C-83.35399129 95.65476195 -88.59308698 100.89320764 -93.83055025 106.13329142 C-96.95654963 109.260851 -100.08322369 112.38772805 -103.21165276 115.51285744 C-106.14665378 118.44497816 -109.07921372 121.37951831 -112.00987625 124.31597519 C-113.0873902 125.39481514 -114.16576298 126.47279808 -115.24503899 127.54987526 C-116.71356426 129.01568327 -118.17899887 130.48451172 -119.6436615 131.95417786 C-120.46565001 132.7765434 -121.28763853 133.59890894 -122.13453579 134.44619465 C-124.71718331 137.20306331 -125.67185522 139.51026826 -125.57839966 143.35424805 C-122.94436911 152.84137205 -108.3405592 163.24159806 -101.4453125 170.125 C-100.05274122 171.51824627 -98.66031829 172.91164083 -97.26803589 174.30517578 C-94.37008864 177.20458743 -91.47036521 180.10220736 -88.56933594 182.99853516 C-84.85029687 186.71184018 -81.13581613 190.4296677 -77.42262459 194.14881897 C-74.55745742 197.01759405 -71.68991991 199.88399025 -68.82165146 202.74966431 C-67.45016966 204.12047941 -66.07942926 205.49203669 -64.70944595 206.86434937 C-62.80235637 208.77397326 -60.89210022 210.68037162 -58.98095703 212.5859375 C-58.41678574 213.15213303 -57.85261444 213.71832855 -57.27134705 214.30168152 C-52.74691587 218.88662605 -52.74691587 218.88662605 -46.8125 221 C-37.6028404 219.64119776 -30.1447607 208.72490365 -23.73461914 202.30151367 C-22.6219814 201.19023347 -21.5091316 200.07916558 -20.39608765 198.96829224 C-17.39632535 195.97305912 -14.39969876 192.97470767 -11.40379262 189.97561812 C-8.26275785 186.83204011 -5.11927102 183.69091557 -1.97618103 180.5493927 C3.29347547 175.28155056 8.56103057 170.01161407 13.82739258 164.74047852 C19.91954847 158.64286445 26.0153213 152.54888402 32.11295217 146.45674533 C37.35399129 141.22023805 42.59308698 135.98179236 47.83055025 130.74170858 C50.95654963 127.614149 54.08322369 124.48727195 57.21165276 121.36214256 C60.14665378 118.43002184 63.07921372 115.49548169 66.00987625 112.55902481 C67.0873902 111.48018486 68.16576298 110.40220192 69.24503899 109.32512474 C70.71356426 107.85931673 72.17899887 106.39048828 73.6436615 104.92082214 C74.46565001 104.0984566 75.28763853 103.27609106 76.13453579 102.42880535 C78.71718331 99.67193669 79.67185522 97.36473174 79.57839966 93.52075195 C76.94436911 84.03362795 62.3405592 73.63340194 55.4453125 66.75 C54.05274122 65.35675373 52.66031829 63.96335917 51.26803589 62.56982422 C48.37008864 59.67041257 45.47036521 56.77279264 42.56933594 53.87646484 C38.85029687 50.16315982 35.13581613 46.4453323 31.42262459 42.72618103 C28.55745742 39.85740595 25.68991991 36.99100975 22.82165146 34.12533569 C21.45016966 32.75452059 20.07942926 31.38296331 18.70944595 30.01065063 C16.80235637 28.10102674 14.89210022 26.19462838 12.98095703 24.2890625 C12.41678574 23.72286697 11.85261444 23.15667145 11.27134705 22.57331848 C6.74691587 17.98837395 6.74691587 17.98837395 0.8125 15.875 C-8.3971596 17.23380224 -15.8552393 28.15009635 -22.26538086 34.57348633 Z " fill="#000000" transform="translate(279,137.5625)"/>
<path d="M0 0 C4.48747514 0.98724453 7.26510954 3.11459575 10.125 6.6875 C11.41710147 10.77915466 11.59639704 12.654916 9.8125 16.5625 C7.71170722 19.20794276 6.75757222 19.58452313 3.4375 20.125 C-1.2202915 19.50981999 -3.71661622 17.04600176 -6.875 13.6875 C-8.31930855 10.79888291 -8.25188506 8.89102299 -7.875 5.6875 C-5.47321949 2.43803225 -3.95469918 0.94568893 0 0 Z " fill="#000000" transform="translate(343.875,370.3125)"/>
<path d="M0 0 C3.24946775 2.40178051 4.74181107 3.92030082 5.6875 7.875 C4.71575012 12.29204489 2.25229591 14.94149374 -1 18 C-3.80915474 19.40457737 -5.88810534 19.24895157 -9 19 C-11.3125 17.9375 -11.3125 17.9375 -13 16 C-14.05433631 12.20438929 -14.40968788 9.97869882 -12.875 6.3125 C-9.13561269 1.70058899 -6.18406103 -1.15951144 0 0 Z " fill="#000000" transform="translate(171,371)"/>
<path d="M0 0 C4.41704489 0.97174988 7.06649374 3.43520409 10.125 6.6875 C11.52957737 9.49665474 11.37395157 11.57560534 11.125 14.6875 C10.0625 17 10.0625 17 8.125 18.6875 C4.32938929 19.74183631 2.10369882 20.09718788 -1.5625 18.5625 C-5.18840686 15.62257552 -7.55756116 13.38050713 -8.4375 8.6875 C-7.50404478 3.70907218 -4.90821634 1.17370391 0 0 Z " fill="#000000" transform="translate(378.875,335.3125)"/>
<path d="M0 0 C3.24946775 2.40178051 4.74181107 3.92030082 5.6875 7.875 C4.70025547 12.36247514 2.57290425 15.14010954 -1 18 C-5.09165466 19.29210147 -6.967416 19.47139704 -10.875 17.6875 C-13.52044276 15.58670722 -13.89702313 14.63257222 -14.4375 11.3125 C-13.82231999 6.6547085 -11.35850176 4.15838378 -8 1 C-5.11138291 -0.44430855 -3.20352299 -0.37688506 0 0 Z " fill="#000000" transform="translate(136,336)"/>
<path d="M0 0 C2.48906185 2.16789258 2.9175833 3.58791648 3.5625 6.8125 C2.76558075 11.32837572 0.28813713 13.90778814 -3 17 C-5.88861709 18.44430855 -7.79647701 18.37688506 -11 18 C-14.24946775 15.59821949 -15.74181107 14.07969918 -16.6875 10.125 C-15.72195081 5.73614003 -13.34084837 2.9506763 -10 0 C-6.20519658 -1.26493447 -3.87641726 -0.89988258 0 0 Z " fill="#000000" transform="translate(387,158)"/>
<path d="M0 0 C3.58084963 2.83809698 5.70297074 5.64986701 6.6875 10.125 C5.74181107 14.07969918 4.24946775 15.59821949 1 18 C-1.875 18.6875 -1.875 18.6875 -5 18 C-8.21329386 15.82921216 -11.24677898 13.50644205 -13 10 C-13.29123466 6.65080137 -13.36462337 4.64243165 -11.6875 1.6875 C-8.13051497 -1.86948503 -4.55234881 -1.23453527 0 0 Z " fill="#000000" transform="translate(135,158)"/>
<path d="M0 0 C2.3125 1.0625 2.3125 1.0625 4 3 C5.05433631 6.79561071 5.40968788 9.02130118 3.875 12.6875 C0.93507552 16.31340686 -1.30699287 18.68256116 -6 19.5625 C-10.10389613 18.79301948 -11.53959272 17.32878632 -14 14 C-14.6875 11.125 -14.6875 11.125 -14 8 C-10.11100385 2.24334004 -7.18551787 -0.57484143 0 0 Z " fill="#000000" transform="translate(350,122)"/>
<path d="M0 0 C3.22254402 2.13740165 6.25333994 4.50667988 8 8 C8.54035146 12.05263598 8.34199395 13.53730231 5.875 16.875 C3 19 3 19 0.125 19.6875 C-4.36247514 18.70025547 -7.14010954 16.57290425 -10 13 C-11.29210147 8.90834534 -11.47139704 7.032584 -9.6875 3.125 C-6.84855607 -0.44996642 -4.43554802 -0.5858271 0 0 Z " fill="#000000" transform="translate(168,122)"/>
<path d="M0 0 C4.36316477 2.44510026 6.64732036 4.79674006 8.0625 9.625 C7.97289973 14.46341463 7.97289973 14.46341463 6 17 C3.44760733 18.9851943 1.89259747 19.00198894 -1.375 19.0625 C-6.20325994 17.64732036 -8.55489974 15.36316477 -11 11 C-11.69064221 6.92521094 -11.67003794 5.04525918 -9.4375 1.5625 C-5.95474082 -0.67003794 -4.07478906 -0.69064221 0 0 Z " fill="#000000" transform="translate(139,93)"/>
<path d="M0 0 C3.57840853 2.85019848 5.72351458 5.61757288 6.625 10.125 C5.82166332 13.82034874 4.85931901 15.50726035 2 18 C-1.56507268 18.73992074 -3.76041242 18.6971146 -6.97265625 16.890625 C-10.40943721 14.26540423 -11.8242308 12.59968314 -13.0625 8.375 C-12.97289973 3.53658537 -12.97289973 3.53658537 -11 1 C-7.41413307 -1.78900761 -4.20033513 -1.23113271 0 0 Z " fill="#000000" transform="translate(378,401)"/>
<path d="M0 0 C2.75608678 1.71067455 3.03920672 3.11992643 4.0625 6.25 C3.98467223 10.91966595 2.64396119 12.33205061 -0.45703125 15.6171875 C-2.85900446 17.76984197 -4.07745856 18.00860651 -7.375 18.375 C-11 18 -11 18 -13.4375 15.875 C-15.32932441 12.39404309 -15.77989801 10.89949005 -15 7 C-10.93442708 0.7933103 -7.59317713 -1.89829428 0 0 Z " fill="#000000" transform="translate(143,401)"/>
<path d="M0 0 C3.89722248 3.02738289 5.78168465 5.82903586 6.6875 10.6875 C6 14 6 14 3.875 16.4375 C0.39404309 18.32932441 -1.10050995 18.77989801 -5 18 C-9.31062207 15.49505945 -11.64764241 13.20216119 -13.0625 8.375 C-12.97289973 3.53658537 -12.97289973 3.53658537 -11 1 C-7.41413307 -1.78900761 -4.20033513 -1.23113271 0 0 Z " fill="#000000" transform="translate(413,366)"/>
<path d="M0 0 C2.64764845 1.67684402 2.95477045 2.85138861 3.875 5.875 C4.02796552 9.69913795 3.35349332 11.01890846 1 14 C-1.68901832 16.68901832 -3.22974527 17.87162421 -7 18.5 C-10.83417929 17.86097012 -12.44296344 16.93307135 -15 14 C-15.75283441 10.37270694 -15.77176141 8.18461859 -13.71484375 5.02734375 C-9.22046275 -0.35045366 -7.15098744 -1.50547104 0 0 Z " fill="#000000" transform="translate(108,366)"/>
<path d="M0 0 C2.875 1.5625 2.875 1.5625 5 4 C5.73992074 7.56507268 5.6971146 9.76041242 3.890625 12.97265625 C1.26540423 16.40943721 -0.40031686 17.8242308 -4.625 19.0625 C-9.46341463 18.97289973 -9.46341463 18.97289973 -12 17 C-13.9851943 14.44760733 -14.00198894 12.89259747 -14.0625 9.625 C-12.16658454 3.15658253 -7.03702875 -1.52978886 0 0 Z " fill="#000000" transform="translate(414,128)"/>
<path d="M0 0 C4.31062207 2.50494055 6.64764241 4.79783881 8.0625 9.625 C7.97289973 14.46341463 7.97289973 14.46341463 6 17 C3.44760733 18.9851943 1.89259747 19.00198894 -1.375 19.0625 C-6.20818985 17.64587539 -8.54709958 15.36167152 -11 11 C-11.6875 7.3125 -11.6875 7.3125 -11 4 C-7.69629186 0.21045242 -4.94938831 -0.98987766 0 0 Z " fill="#000000" transform="translate(104,128)"/>
<path d="M0 0 C2.85931901 2.49273965 3.82166332 4.17965126 4.625 7.875 C3.72351458 12.38242712 1.57840853 15.14980152 -2 18 C-5.57748785 19.04857402 -7.74342374 19.37357673 -11.3125 18.3125 C-13.47719891 16.62884529 -14.21270916 15.64816011 -15 13 C-15.06562684 9.45615082 -14.8278698 7.06573662 -12.61328125 4.21484375 C-8.65504637 0.45229688 -5.59710077 -1.16166242 0 0 Z " fill="#000000" transform="translate(380,93)"/>
<path d="M0 0 C3.37495058 0.02428022 5.14420406 0.59958588 7.75 2.75 C10.77072585 5.84440209 11.22948496 6.47843758 11.625 10.75 C11.3125 14.375 11.3125 14.375 9.8125 16.8125 C6.96635294 18.59134191 4.70826257 19.0665072 1.34765625 18.890625 C-2.42089801 17.93582814 -4.59093326 15.54876827 -6.6875 12.375 C-7.75 9.3125 -7.75 9.3125 -7.6875 6.375 C-4.80997325 0.48914982 -4.80997325 0.48914982 0 0 Z " fill="#000000" transform="translate(401.6875,429.625)"/>
<path d="M0 0 C2.73883355 1.59029045 2.94967699 2.83465297 3.875 5.875 C4.02705042 9.67626056 3.28498382 11.00588327 1 14 C0.443125 14.763125 -0.11375 15.52625 -0.6875 16.3125 C-3.61130404 18.44608673 -5.53772764 18.58457172 -9.09375 18.37890625 C-11 18 -11 18 -13.5 16.4375 C-15.62011145 12.99231889 -15.61814926 10.98362857 -15 7 C-11.20031656 0.7186045 -7.17595094 -0.79406014 0 0 Z " fill="#000000" transform="translate(114,430)"/>
<path d="M0 0 C1.90625 0.37890625 1.90625 0.37890625 4.40625 1.94140625 C6.52636145 5.38658736 6.52439926 7.39527768 5.90625 11.37890625 C4.11055258 14.34743925 2.05822928 16.80291661 -1.09375 18.37890625 C-8.30519674 18.83677588 -8.30519674 18.83677588 -11.03125 17.25390625 C-12.56224826 14.55214461 -12.9695242 12.4845512 -13.09375 9.37890625 C-11.90625 6.75390625 -11.90625 6.75390625 -10.09375 4.37890625 C-9.536875 3.61578125 -8.98 2.85265625 -8.40625 2.06640625 C-5.48244596 -0.06718048 -3.55602236 -0.20566547 0 0 Z " fill="#000000" transform="translate(407.09375,63.62109375)"/>
<path d="M0 0 C3.74565285 0.95618393 5.90176182 3.40433246 8.03515625 6.51953125 C9.26516362 9.67142513 9.200049 10.97411676 8.22265625 14.20703125 C7.03515625 16.51953125 7.03515625 16.51953125 5.03515625 18.51953125 C-1.6174276 19.29566603 -1.6174276 19.29566603 -4.7890625 17.46875 C-6.95552822 15.69046458 -8.70307441 14.04306992 -9.96484375 11.51953125 C-10.31658227 7.72075526 -10.49185819 5.37592972 -8.46484375 2.08203125 C-5.61906694 0.30342074 -3.35991462 -0.16956578 0 0 Z " fill="#000000" transform="translate(108.96484375,63.48046875)"/>
<path d="M0 0 C2.98766669 4.04213729 2.83251091 5.92242364 2.125 10.875 C0.5625 13.375 0.5625 13.375 -1.875 14.875 C-5.26564503 15.44010751 -7.60991416 15.64026398 -10.625 13.81640625 C-12.81721288 12.04050303 -14.60378607 10.41742786 -15.875 7.875 C-16.33742775 0.59176301 -16.33742775 0.59176301 -14.625 -2.0625 C-9.14972443 -5.38677445 -4.9725465 -3.67536046 0 0 Z " fill="#000000" transform="translate(445.875,398.125)"/>
<path d="M0 0 C2 2 2 2 2.4375 5.75 C2.33987512 10.62236883 0.41756711 12.66380354 -3 16 C-6.09173752 17.54586876 -8.59429552 17.29359521 -12 17 C-14.4375 15.5 -14.4375 15.5 -16 13 C-17.03896104 6.55844156 -17.03896104 6.55844156 -14.7890625 3.18359375 C-9.95665928 -1.90637411 -6.62254324 -2.7353983 0 0 Z " fill="#000000" transform="translate(80,396)"/>
<path d="M0 0 C2.4375 1.5 2.4375 1.5 4 4 C5.03294441 10.40425532 5.03294441 10.40425532 2.82421875 13.81640625 C0.53484057 16.2714242 -1.42433257 17.7753493 -4.5625 19 C-7.50922529 19 -9.3874872 18.34156063 -12 17 C-14 15 -14 15 -14.4375 11.25 C-14.33987512 6.37763117 -12.41756711 4.33619646 -9 1 C-5.90826248 -0.54586876 -3.40570448 -0.29359521 0 0 Z " fill="#000000" transform="translate(444,99)"/>
<path d="M0 0 C2.968533 1.79569742 5.42401036 3.84802072 7 7 C7.46025738 14.24905375 7.46025738 14.24905375 5.8125 16.9375 C2.5767476 18.83432037 0.15599198 19.28899799 -3.5 18.375 C-6.75505778 16.58471822 -8.73813941 14.97273106 -11 12 C-11.90320659 8.08350936 -11.60456494 4.9673039 -9.4375 1.5 C-5.99231889 -0.62011145 -3.98362857 -0.61814926 0 0 Z " fill="#000000" transform="translate(75,99)"/>
</svg>
