<?xml version="1.0" encoding="UTF-8"?>
<svg version="1.1" xmlns="http://www.w3.org/2000/svg" width="512" height="512">
<path d="M0 0 C0.81357468 -0.0065712 1.62714935 -0.0131424 2.46537781 -0.01991272 C5.15514222 -0.03960485 7.84485081 -0.05130104 10.53466797 -0.0612793 C11.45628597 -0.06535482 12.37790398 -0.06943035 13.3274498 -0.07362938 C18.20836918 -0.09447566 23.0892606 -0.10878196 27.97021484 -0.11816406 C32.99365037 -0.1292077 38.01664041 -0.16358811 43.0399189 -0.20333576 C46.91774273 -0.22957557 50.79546176 -0.23786256 54.67336655 -0.24144554 C56.5239957 -0.24629478 58.3746207 -0.25786096 60.22516251 -0.27648354 C78.79164171 -0.45166685 78.79164171 -0.45166685 86.90185547 4.17700195 C88.10432419 4.84483955 88.10432419 4.84483955 89.33108521 5.52616882 C98.27320403 10.72190885 104.73789762 19.38538503 107.90185547 29.17700195 C109.22248089 34.24698919 109.94316557 38.93931583 109.90185547 44.17700195 C110.87523361 44.16811951 111.84861176 44.15923706 112.85148621 44.15008545 C122.07439275 44.06860813 131.29722522 44.00885009 140.52041149 43.96975327 C145.26091327 43.94897667 150.00112193 43.92084303 154.74145508 43.87524414 C159.32562915 43.83142892 163.90952327 43.80779042 168.49389076 43.79749298 C170.23320223 43.79016506 171.97250031 43.77585744 173.7116909 43.75408173 C190.83159262 43.54847119 203.74479215 46.5406049 216.65185547 58.48950195 C228.81175872 71.36638063 229.34326248 85.89737202 229.19482422 102.6262207 C229.18921889 104.49379636 229.18495323 106.36137646 229.18196106 108.22895813 C229.17058595 113.10993947 229.14118309 117.99064683 229.10784912 122.871521 C229.07698889 127.86588842 229.06342184 132.86030074 229.04833984 137.85473633 C229.0163054 147.62894429 228.96519929 157.40295021 228.90185547 167.17700195 C229.98724609 167.14219727 231.07263672 167.10739258 232.19091797 167.0715332 C233.63621489 167.04337807 235.08152868 167.01607977 236.52685547 166.98950195 C237.23970703 166.96436523 237.95255859 166.93922852 238.68701172 166.91333008 C244.18165441 166.83771573 248.38119727 167.82398848 252.54638672 171.7121582 C256.41609281 176.77254309 257.07788425 179.62882887 257.14013672 185.88793945 C257.14820847 186.65248444 257.15628021 187.41702942 257.16459656 188.20474243 C257.1784336 189.82372776 257.18915746 191.44274222 257.19702148 193.06176758 C257.21424156 195.53563761 257.25812898 198.00817341 257.30224609 200.48168945 C257.31237262 202.05459629 257.32088885 203.62751449 257.32763672 205.20043945 C257.34514481 205.93910248 257.36265289 206.6777655 257.38069153 207.43881226 C257.36593287 210.93968874 257.16860565 212.82579417 255.02270508 215.65112305 C252.49057324 217.47290548 251.23178361 217.6081742 248.15185547 217.42700195 C247.35263672 217.3909082 246.55341797 217.35481445 245.72998047 217.31762695 C245.12669922 217.2712207 244.52341797 217.22481445 243.90185547 217.17700195 C246.28045351 228.52108494 254.91343695 233.76384611 263.52685547 240.73950195 C272.7424677 248.22801089 280.80069871 255.06645385 282.90185547 267.17700195 C283.01137232 268.98593638 283.07690576 270.79786954 283.10717773 272.60986328 C283.12712296 273.67058548 283.14706818 274.73130768 283.1676178 275.82417297 C283.19268654 277.52442879 283.19268654 277.52442879 283.21826172 279.2590332 C283.23904282 280.42834885 283.25982391 281.59766449 283.28123474 282.80241394 C283.34652961 286.53138448 283.40552206 290.26042442 283.46435547 293.98950195 C283.50755975 296.52010804 283.55117466 299.05070715 283.59521484 301.58129883 C283.70219047 307.77979353 283.80399395 313.97835702 283.90185547 320.17700195 C285.87125651 320.14241536 287.84065755 320.10782878 289.81005859 320.07324219 C300.77074288 320.61692692 309.6222629 332.72925724 316.76513672 339.8371582 C317.678936 340.74525742 318.59273529 341.65335663 319.53422546 342.588974 C321.45302363 344.49735756 323.3695578 346.40798468 325.28491211 348.31982422 C327.73029739 350.7596929 330.18485488 353.19011518 332.6415987 355.61853886 C335.00186222 357.95565568 337.35149708 360.30336346 339.70263672 362.6496582 C340.58075516 363.51542984 341.4588736 364.38120148 342.36360168 365.27320862 C348.28840876 371.21983751 352.31727721 375.81929706 352.40185547 384.55200195 C352.43279297 385.61161133 352.46373047 386.6712207 352.49560547 387.76293945 C351.23217598 395.02765902 346.06948472 400.45473171 340.94995117 405.48535156 C340.37697296 406.06037415 339.80399475 406.63539673 339.21365356 407.22784424 C337.34213799 409.10233702 335.46018747 410.96594139 333.57763672 412.8293457 C332.26619538 414.13772544 330.95534749 415.44670026 329.64506531 416.75624084 C326.9102537 419.48646952 324.17063041 422.21173749 321.42700195 424.93310547 C317.90605762 428.4256287 314.39397862 431.92690095 310.88499165 435.43143368 C308.18411212 438.12816491 305.48041338 440.82205336 302.77565575 443.51489449 C301.47898066 444.80586651 300.18277668 446.0973119 298.88704872 447.38923454 C297.08249469 449.18693884 295.27460076 450.98120997 293.46557617 452.77441406 C292.92892838 453.309944 292.39228058 453.84547394 291.83937073 454.39723206 C288.37099172 457.82535373 286.97207124 459.07343268 282.02685547 459.55200195 C278.69768959 459.49742546 278.0690913 459.3116064 275.33935547 457.11450195 C273.42910306 453.21094267 273.83715347 451.36866301 274.90185547 447.17700195 C276.7227239 444.83382474 278.39511981 442.96959323 280.52319336 440.95385742 C281.10855362 440.37565247 281.69391388 439.79744751 282.29701233 439.20172119 C283.56447431 437.95368114 284.83885942 436.71264101 286.1193409 435.47796249 C288.14551489 433.52393413 290.15261347 431.551994 292.15586853 429.57449341 C296.40877629 425.38322626 300.68559272 421.21684485 304.96435547 417.05200195 C309.92604452 412.21785597 314.87761207 407.37391561 319.80987358 402.50973892 C321.78951236 400.56627764 323.78393903 398.63891488 325.77955627 396.71188354 C326.99037464 395.52242007 328.20052976 394.33228093 329.40991211 393.14135742 C329.96938538 392.6092868 330.52885864 392.07721619 331.10528564 391.52902222 C333.33520498 389.30706584 334.7828767 387.69694462 335.49357605 384.59115601 C334.69782435 381.34457772 333.28972249 379.9433253 330.92626953 377.58618164 C330.05826721 376.7088739 329.19026489 375.83156616 328.29595947 374.92767334 C327.33694948 373.98424997 326.37744426 373.04132978 325.41748047 372.09887695 C324.43969643 371.12280432 323.46280009 370.14584169 322.48675537 369.16802979 C320.43979656 367.12272372 318.38459326 365.08621027 316.32275391 363.0559082 C313.68166873 360.45450034 311.05859732 357.83579655 308.44104385 355.21073532 C306.4256775 353.19229774 304.40279228 351.18154005 302.37737274 349.17319489 C301.40742426 348.21027197 300.43941469 347.2453919 299.4733963 346.27852631 C298.12136105 344.92829091 296.75841669 343.58900592 295.39501953 342.25024414 C294.6222467 341.4858905 293.84947388 340.72153687 293.05328369 339.934021 C290.81096334 338.10277257 289.74671614 337.46374798 286.90185547 337.17700195 C284.98494879 338.26747301 284.98494879 338.26747301 283.2364502 340.04196167 C282.53752151 340.69462887 281.83859283 341.34729607 281.1184845 342.01974106 C280.38699692 342.73163715 279.65550934 343.44353325 278.90185547 344.17700195 C278.17846481 344.87168705 277.45507416 345.56637215 276.70976257 346.28210831 C274.30451875 348.61622061 271.92435969 350.9737994 269.54833984 353.33764648 C268.64984314 354.2279657 267.75134644 355.11828491 266.82562256 356.0355835 C263.87863448 358.95666336 260.93681539 361.88291836 257.99560547 364.80981445 C256.97777259 365.8222792 255.95993504 366.83473924 254.9420929 367.84719467 C250.71217893 372.05554694 246.48367591 376.26530845 242.25887299 380.47879219 C236.22133349 386.50003984 230.17540918 392.51258353 224.11771154 398.51355278 C219.84557891 402.74703823 215.58302419 406.99001589 211.32752466 411.24021995 C208.78958639 413.77450448 206.247632 416.30442991 203.69535828 418.8242836 C200.85652779 421.6275523 198.037601 424.45031795 195.22021484 427.27514648 C193.94866547 428.52208786 193.94866547 428.52208786 192.65142822 429.79421997 C191.88888733 430.56507935 191.12634644 431.33593872 190.34069824 432.13015747 C189.67264915 432.79489641 189.00460007 433.45963535 188.31630707 434.1445179 C186.54005892 436.69688239 186.49627875 438.12714967 186.90185547 441.17700195 C188.53750701 443.55690296 188.53750701 443.55690296 190.87744141 445.76782227 C191.74544373 446.64513 192.61344604 447.52243774 193.50775146 448.42633057 C194.46676146 449.36975394 195.42626667 450.31267413 196.38623047 451.25512695 C197.36401451 452.23119958 198.34091085 453.20816222 199.31695557 454.18597412 C201.36391438 456.23128019 203.41911767 458.26779364 205.48095703 460.2980957 C208.12204221 462.89950356 210.74511362 465.51820736 213.36266708 468.14326859 C215.37803344 470.16170617 217.40091866 472.17246386 219.4263382 474.18080902 C220.39628668 475.14373194 221.36429625 476.10861201 222.33031464 477.0754776 C223.68234988 478.42571299 225.04529424 479.76499799 226.40869141 481.10375977 C227.18146423 481.8681134 227.95423706 482.63246704 228.75042725 483.41998291 C230.90557277 485.18003778 232.15037773 485.9206531 234.90185547 486.17700195 C236.89819797 485.01187209 236.89819797 485.01187209 238.71435547 483.17700195 C239.75849609 482.21407227 239.75849609 482.21407227 240.82373047 481.23168945 C242.15695536 479.91350093 243.46235392 478.56620235 244.72998047 477.18481445 C247.64900906 474.01595909 249.34526334 472.35933386 253.52685547 470.98950195 C256.90185547 471.17700195 256.90185547 471.17700195 259.77685547 472.73950195 C262.35433615 475.69602391 262.90185547 477.26668083 262.90185547 481.17700195 C258.70872985 489.73918854 249.01617198 499.6048602 239.94482422 502.7277832 C232.71695127 504.31708605 227.24464772 502.96846631 220.90185547 499.17700195 C216.89480504 495.86104342 213.26941749 492.20184823 209.62841797 488.49731445 C208.57317409 487.44035607 207.51703563 486.38429014 206.46005249 485.32907104 C204.25873338 483.12610707 202.06612383 480.9149477 199.87988281 478.69702148 C197.08602898 475.86339531 194.27475127 473.04786151 191.45720863 470.23781013 C189.27914017 468.06281889 187.10876122 465.88028668 184.94077682 463.69524765 C183.90692416 462.65439768 182.87114505 461.61545734 181.83336258 460.57852554 C180.38326372 459.12661725 178.9433903 457.66526732 177.50585938 456.20092773 C176.68695221 455.37360138 175.86804504 454.54627502 175.02432251 453.69387817 C170.56133156 448.40154827 169.30566738 443.83330721 169.47216797 437.0715332 C170.30583509 431.45564832 172.8835519 426.19530552 176.90185547 422.17700195 C176.17740234 422.12801758 175.45294922 422.0790332 174.70654297 422.02856445 C173.73974609 421.95379883 172.77294922 421.8790332 171.77685547 421.80200195 C170.82552734 421.73239258 169.87419922 421.6627832 168.89404297 421.59106445 C165.70964205 421.15040323 162.91608838 420.27715224 159.90185547 419.17700195 C159.83716064 419.73983887 159.77246582 420.30267578 159.70581055 420.88256836 C156.43944392 448.39855297 146.37492099 471.00600087 124.13818359 488.57006836 C102.60482576 504.53465416 76.66208829 512.4815304 49.96435547 512.61450195 C48.77261719 512.64737305 47.58087891 512.68024414 46.35302734 512.71411133 C45.20511719 512.72120117 44.05720703 512.72829102 42.87451172 512.7355957 C41.84592041 512.74905029 40.8173291 512.76250488 39.75756836 512.77636719 C35.78965184 511.94356946 34.43657295 510.30143819 31.90185547 507.17700195 C31.30058289 503.8802948 31.30058289 503.8802948 31.33422852 500.09179688 C31.33313332 499.05194641 31.33313332 499.05194641 31.33201599 497.99108887 C31.33548409 495.71240453 31.37430226 493.43579533 31.41357422 491.1574707 C31.42290526 489.5727907 31.43002 487.98809622 31.43501282 486.40339661 C31.4540601 482.2421147 31.50314007 478.08171202 31.55853271 473.92077637 C31.60977495 469.67101942 31.6325374 465.42111973 31.65771484 461.17114258 C31.71126214 452.83935987 31.79654605 444.50829043 31.90185547 436.17700195 C30.95696762 436.33835129 30.01207977 436.49970062 29.03855896 436.66593933 C9.61592086 439.8304668 -9.20351418 435.18451008 -25.32470703 423.9230957 C-40.45349559 411.99241814 -49.22161627 396.11630588 -52.09814453 377.17700195 C-53.13853165 366.72370061 -52.87340827 354.72752944 -48.09814453 345.17700195 C-48.90865768 345.18144318 -49.71917084 345.1858844 -50.554245 345.19046021 C-58.24673188 345.23077535 -65.93916648 345.26110632 -73.63173199 345.2806263 C-77.58518217 345.29099951 -81.538544 345.30503836 -85.49194336 345.32788086 C-89.3174862 345.34984264 -93.14294483 345.36161896 -96.96854591 345.36675644 C-98.41755305 345.37041083 -99.86655634 345.37754483 -101.31552696 345.38846207 C-119.4196144 345.51926201 -134.28695605 343.63032936 -147.84033203 330.6652832 C-158.32103694 319.11474855 -160.55396715 307.99574689 -160.48632812 292.88256836 C-160.49039925 291.34917834 -160.49574416 289.81579126 -160.5022583 288.28240967 C-160.51586654 284.14230336 -160.51066213 280.00242276 -160.50112104 275.86231279 C-160.4934989 271.52354885 -160.50057637 267.18480356 -160.50527954 262.84603882 C-160.51072617 255.56814111 -160.50357057 248.29033496 -160.48925781 241.01245117 C-160.47289654 232.59564114 -160.47824931 224.17904873 -160.49473703 215.76224387 C-160.50833921 208.52893541 -160.5102789 201.29569253 -160.50242102 194.06237543 C-160.49774224 189.74477019 -160.49712602 185.42726741 -160.50703049 181.10966873 C-160.51568074 177.05644493 -160.50971413 173.00350303 -160.49234772 168.95030975 C-160.48837402 167.46156406 -160.48953198 165.97279473 -160.49613571 164.48405838 C-160.50430468 162.45590297 -160.49225536 160.42769582 -160.47909546 158.39956665 C-160.47796438 157.26362375 -160.47683331 156.12768085 -160.47566795 154.95731544 C-160.09814453 152.17700195 -160.09814453 152.17700195 -158.78917885 150.33887291 C-156.01935222 148.43578846 -153.39773478 148.3506646 -150.09814453 148.17700195 C-147.78564453 148.73950195 -147.78564453 148.73950195 -146.09814453 150.17700195 C-144.39145345 154.39773026 -143.84799431 157.96124115 -143.84658813 162.49458313 C-143.83851387 164.36800888 -143.83851387 164.36800888 -143.83027649 166.27928162 C-143.83429011 167.65054367 -143.83846101 169.02180526 -143.84277344 170.39306641 C-143.84002128 171.84731238 -143.83634002 173.30155684 -143.83180237 174.75579834 C-143.82370773 177.88071538 -143.82151755 181.00556095 -143.82374954 184.13048744 C-143.82658985 189.07762588 -143.81220345 194.02462234 -143.79476929 198.97172546 C-143.74781228 213.03711824 -143.7238078 227.10250104 -143.71728516 241.16796875 C-143.71352821 248.94149494 -143.69544862 256.71486004 -143.66219079 264.48831719 C-143.64203368 269.39998271 -143.63957842 274.31123118 -143.65047097 279.22292101 C-143.65308852 282.28704085 -143.63902347 285.35092069 -143.62038994 288.41497803 C-143.61509294 289.82863169 -143.61652187 291.24233025 -143.62542534 292.65596581 C-143.69133761 304.04574702 -141.88292952 312.03099802 -134.01220703 320.4543457 C-124.05467952 329.41612046 -110.12919267 328.50299421 -97.59423828 328.59106445 C-95.90315329 328.6098008 -94.21207741 328.629376 -92.52101135 328.64974976 C-88.09721271 328.70081669 -83.67338384 328.7405776 -79.24945068 328.77789307 C-74.72433146 328.81809328 -70.1993352 328.8691121 -65.67431641 328.91918945 C-56.81567915 329.01564703 -47.95697204 329.10014719 -39.09814453 329.17700195 C-38.81712891 328.58274414 -38.53611328 327.98848633 -38.24658203 327.3762207 C-31.44817589 314.35750418 -16.37579545 306.66005695 -3.05517578 302.14575195 C14.21446498 297.41794156 32.87949669 299.31117743 48.77685547 307.42700195 C56.30249059 311.77410795 62.79481864 317.02365735 68.90185547 323.17700195 C68.91587402 321.86880493 68.91587402 321.86880493 68.93017578 320.53417969 C68.97442698 317.27022026 69.03614221 314.00752982 69.109375 310.74414062 C69.13744291 309.33703491 69.1587275 307.92977569 69.17285156 306.52246094 C69.32874879 291.862925 69.32874879 291.862925 73.90185547 286.17700195 C85.95535275 274.42051077 105.0224665 274.82040384 120.62841797 274.9465332 C128.76597377 275.13750424 136.17581779 276.60165606 143.90185547 279.17700195 C143.86705078 278.34297852 143.83224609 277.50895508 143.79638672 276.6496582 C143.55424726 266.58357511 144.18747984 259.97484704 150.90185547 252.23950195 C157.73926326 245.09230869 165.06632461 238.59614404 172.83935547 232.48950195 C178.34906557 228.04086298 181.29772127 224.15347239 182.90185547 217.17700195 C182.29857422 217.2234082 181.69529297 217.26981445 181.07373047 217.31762695 C180.27451172 217.3537207 179.47529297 217.38981445 178.65185547 217.42700195 C177.86294922 217.4734082 177.07404297 217.51981445 176.26123047 217.56762695 C172.91336219 217.01334413 171.95605847 215.86257186 169.90185547 213.17700195 C169.50348774 210.42788878 169.33998605 208.0869485 169.37060547 205.34106445 C169.36677856 204.58409271 169.36295166 203.82712097 169.35900879 203.04721069 C169.35629174 201.44853381 169.36363865 199.84981233 169.38037109 198.2512207 C169.40172737 195.81660569 169.38059664 193.38496116 169.35498047 190.95043945 C169.35762495 189.39314132 169.36275242 187.83584503 169.37060547 186.27856445 C169.36250854 185.55649811 169.35441162 184.83443176 169.34606934 184.09048462 C169.43964532 178.98917363 170.71833113 176.11847354 173.90185547 172.17700195 C178.82775309 167.83752072 181.67510937 167.03128272 188.09716797 167.0793457 C188.80461151 167.08076065 189.51205505 167.0821756 190.24093628 167.08363342 C192.50295215 167.08923595 194.76486945 167.10178878 197.02685547 167.11450195 C198.55940612 167.11951663 200.09195833 167.12407959 201.62451172 167.12817383 C205.38366435 167.13920619 209.14274319 167.15647244 212.90185547 167.17700195 C212.86370161 156.6580264 212.80419933 146.13940408 212.71795273 135.62070656 C212.67855827 130.73565006 212.64633053 125.85077166 212.63085938 120.96557617 C212.61563972 116.24504749 212.58110062 111.52500869 212.53354645 106.80469894 C212.51878719 105.00996551 212.51081761 103.21516212 212.50997162 101.42036819 C212.49808398 88.83852091 211.96018972 78.57881687 202.90185547 68.93481445 C196.88417529 63.64583774 190.58275293 61.05810203 182.62744713 61.04278088 C181.55276409 61.03832303 180.47808104 61.03386519 179.37083185 61.02927226 C178.19089234 61.02945662 177.01095282 61.02964098 175.79525757 61.02983093 C174.5411614 61.02615424 173.28706523 61.02247756 171.99496615 61.01868945 C168.51162334 61.00867909 165.02829777 61.00495421 161.54494262 61.00230014 C157.78881458 60.99839423 154.03270015 60.98881608 150.27658081 60.98008728 C141.20433887 60.96033095 132.13209583 60.95025769 123.05983776 60.94135949 C118.78644897 60.93697521 114.51306142 60.93160876 110.23967361 60.92637062 C96.03205561 60.90935914 81.82443838 60.89486526 67.61681175 60.88762188 C63.93041355 60.88571202 60.24401536 60.88379168 56.55761719 60.88183594 C55.64139295 60.8813522 54.72516871 60.88086846 53.7811801 60.88037006 C38.9410067 60.87207085 24.10091393 60.84673542 9.26077573 60.81425526 C-5.97874805 60.78117318 -21.21823086 60.76317208 -36.45779073 60.75997764 C-45.01283161 60.7578136 -53.56775491 60.74908052 -62.12276077 60.72351646 C-69.40903941 60.70179377 -76.6951719 60.69376674 -83.98147924 60.70348325 C-87.69719911 60.70802344 -91.41261752 60.70615845 -95.1282959 60.6867218 C-99.16229014 60.66580287 -103.19561788 60.67608979 -107.22964478 60.68925476 C-108.39619996 60.67828551 -109.56275514 60.66731627 -110.76466048 60.65601462 C-120.00480547 60.72873456 -128.62932383 62.70501736 -135.51025391 69.26049805 C-143.38189444 78.7611712 -143.95462004 88.35008407 -143.84814453 100.05200195 C-143.84959578 102.26370428 -143.85959216 104.47494046 -143.87945557 106.68655396 C-143.8941515 108.6766432 -143.88507737 110.66686696 -143.87451172 112.65698242 C-144.09958211 116.19962969 -144.73909246 118.90811129 -146.09814453 122.17700195 C-148.72462694 124.41437586 -150.17647268 124.17287942 -153.66064453 123.98950195 C-158.29409291 122.89432325 -158.29409291 122.89432325 -160.09814453 120.17700195 C-160.40938034 117.29144165 -160.54229198 114.6266179 -160.53173828 111.73950195 C-160.53698013 110.90418945 -160.54222198 110.06887695 -160.54762268 109.20825195 C-160.55404926 107.43629058 -160.55269765 105.66428658 -160.54418945 103.89233398 C-160.53576186 101.21428481 -160.56429477 98.5384295 -160.59619141 95.8605957 C-160.63444872 86.62633748 -160.37061538 78.59086915 -156.09814453 70.17700195 C-155.64286377 69.27755859 -155.18758301 68.37811523 -154.71850586 67.45141602 C-149.08511992 56.847148 -140.10919852 50.54801453 -129.09814453 46.17700195 C-123.52408557 44.56653836 -118.62847014 43.89214781 -112.84619141 43.94995117 C-112.06473755 43.94965912 -111.28328369 43.94936707 -110.47814941 43.94906616 C-107.92428032 43.9504469 -105.37071195 43.96594815 -102.81689453 43.98168945 C-101.03471028 43.98542406 -99.25252396 43.98826892 -97.47033691 43.99026489 C-92.80145504 43.99786611 -88.13269949 44.0174841 -83.46386719 44.03967285 C-78.69093535 44.06020727 -73.9179829 44.0692828 -69.14501953 44.0793457 C-59.79600599 44.10073358 -50.4470858 44.13482671 -41.09814453 44.17700195 C-41.11111572 42.9245166 -41.12408691 41.67203125 -41.13745117 40.3815918 C-41.25679326 28.85803831 -35.68898719 19.07447218 -27.96142578 10.9230957 C-19.63669082 3.03421074 -11.32003647 0.03980338 0 0 Z M-19.91064453 26.05200195 C-24.28891258 32.3066706 -25.09814453 36.41353937 -25.09814453 44.17700195 C14.17185547 44.17700195 53.44185547 44.17700195 93.90185547 44.17700195 C91.49648086 30.56011097 91.49648086 30.56011097 82.90185547 20.73950195 C76.01491856 16.07082937 69.47973287 15.05916342 61.22900391 15.03173828 C59.92034363 15.02535843 58.61168335 15.01897858 57.2633667 15.0124054 C55.84598834 15.01087612 54.42860947 15.00976248 53.01123047 15.0090332 C51.54160531 15.00581512 50.07198046 15.00245064 48.60235596 14.99894714 C45.52591205 14.99297279 42.44949617 14.99110543 39.37304688 14.99169922 C35.45510348 14.99180059 31.53734231 14.97816659 27.61944199 14.96092701 C24.58401688 14.94973785 21.54863483 14.94778214 18.51319122 14.94830894 C17.07008488 14.94713853 15.62697707 14.94277025 14.1838913 14.93497658 C0.24241957 14.86674592 -10.11803437 15.3850516 -19.91064453 26.05200195 Z M185.90185547 183.17700195 C185.90185547 189.11700195 185.90185547 195.05700195 185.90185547 201.17700195 C204.05185547 201.17700195 222.20185547 201.17700195 240.90185547 201.17700195 C240.90185547 195.23700195 240.90185547 189.29700195 240.90185547 183.17700195 C222.75185547 183.17700195 204.60185547 183.17700195 185.90185547 183.17700195 Z M198.90185547 217.17700195 C198.24185547 220.47700195 197.58185547 223.77700195 196.90185547 227.17700195 C193.00913735 239.64422079 181.1076613 247.25759016 171.38623047 255.1105957 C163.34280253 261.49178789 163.34280253 261.49178789 159.64458656 270.63304615 C159.64123487 271.55680892 159.63788319 272.48057169 159.63442993 273.43232727 C159.62589996 274.49630737 159.61737 275.56028748 159.60858154 276.6565094 C159.60948792 277.81867477 159.61039429 278.98084015 159.61132812 280.17822266 C159.6046109 281.40626617 159.59789368 282.63430969 159.5909729 283.89956665 C159.57522739 287.26547057 159.56861768 290.63112773 159.56734133 293.99705148 C159.56591868 296.10173042 159.56164689 298.2063836 159.55634689 300.31105614 C159.5378467 307.65888482 159.52967609 315.00664098 159.53125 322.35449219 C159.53245076 329.19487263 159.51136155 336.03493722 159.47976267 342.87523776 C159.45357361 348.75479972 159.44288383 354.63425871 159.44416082 360.51387852 C159.44466977 364.02245546 159.43902425 367.53075176 159.41780472 371.0392704 C159.39476596 374.95550386 159.4039594 378.87130754 159.41601562 382.78759766 C159.40477661 383.94369034 159.3935376 385.09978302 159.38195801 386.29090881 C159.43292792 392.80685863 159.9642373 396.90171034 163.90185547 402.17700195 C171.0896111 407.70604474 182.62580339 407.783253 191.33178711 406.81292725 C199.19575041 404.86710618 204.52074966 397.56698179 209.65185547 391.73950195 C210.95305105 390.34633705 212.25902332 388.9576176 213.56982422 387.57348633 C219.38343833 382.31603672 219.38343833 382.31603672 222.90185547 376.17700195 C221.78738037 376.16765625 220.67290527 376.15831055 219.5246582 376.14868164 C215.36638285 376.10863086 211.20883566 376.04283108 207.05102539 375.96948242 C205.25587358 375.94135994 203.46059994 375.9201022 201.6652832 375.90600586 C199.07554146 375.88445461 196.4872509 375.83774472 193.89794922 375.78637695 C193.1028746 375.78514832 192.30779999 375.78391968 191.4886322 375.78265381 C185.86716794 375.63685161 182.4441503 374.57352145 177.90185547 371.17700195 C175.13977995 366.70647737 174.5207683 363.30420908 174.49780273 358.08935547 C174.49093948 357.40721985 174.48407623 356.72508423 174.477005 356.02227783 C174.45880977 353.78327194 174.4625638 351.54497166 174.46826172 349.3059082 C174.46369633 347.73941319 174.45838969 346.17292018 174.45237732 344.60643005 C174.44346048 341.32900843 174.44585284 338.05183067 174.45581055 334.77441406 C174.46729742 330.58689124 174.44708657 326.40021206 174.41789341 322.21280003 C174.39949391 318.97929084 174.39983129 315.74598243 174.40553093 312.51243401 C174.40568369 310.9691544 174.39967664 309.4258608 174.38723946 307.8826313 C174.28055212 292.47506319 174.28055212 292.47506319 178.90185547 287.17700195 C184.35659394 282.9101601 191.1749371 283.74513941 197.78076172 283.77856445 C199.64800148 283.77425919 199.64800148 283.77425919 201.55296326 283.76986694 C204.85061507 283.76730827 208.14783945 283.77934158 211.44543457 283.79614258 C213.46416733 283.80200141 215.48250938 283.79615641 217.5012207 283.78588867 C221.38625208 283.76735798 225.27070624 283.76959985 229.15576172 283.77856445 C230.95902672 283.76945541 230.95902672 283.76945541 232.79872131 283.76016235 C233.92016037 283.76961884 235.04159943 283.77907532 236.19702148 283.78881836 C237.18042007 283.79120514 238.16381866 283.79359192 239.17701721 283.79605103 C242.35957641 284.24099445 244.23260752 285.44052298 246.90185547 287.17700195 C247.56185547 287.17700195 248.22185547 287.17700195 248.90185547 287.17700195 C249.21123047 287.96075195 249.52060547 288.74450195 249.83935547 289.55200195 C250.83060585 292.10030323 250.83060585 292.10030323 251.90185547 294.17700195 C252.02073503 295.84099478 252.07897491 297.50949471 252.10717773 299.17749023 C252.13709557 300.73888229 252.13709557 300.73888229 252.1676178 302.33181763 C252.18433029 303.45893158 252.20104279 304.58604553 252.21826172 305.74731445 C252.23904282 306.89867889 252.25982391 308.05004333 252.28123474 309.23629761 C252.34677212 312.92480336 252.40563475 316.61338199 252.46435547 320.30200195 C252.5075367 322.79810333 252.55115085 325.29419726 252.59521484 327.7902832 C252.70245778 333.91911176 252.80421636 340.04801328 252.90185547 346.17700195 C254.57644719 344.77581297 256.24494451 343.36668128 257.88150024 341.92124939 C259.90185547 340.17700195 259.90185547 340.17700195 261.89755249 338.72877502 C265.12207872 336.13510949 266.68373723 334.25020349 267.52081299 330.13156128 C267.76260622 326.3107459 267.7701321 322.52830982 267.69091797 318.7043457 C267.68546676 317.29383605 267.68269404 315.88331375 267.6824646 314.47279358 C267.67476146 311.52614826 267.64393139 308.58100518 267.59472656 305.63476562 C267.5324063 301.86978657 267.51388358 298.10624213 267.51093483 294.34079647 C267.50622067 291.43150466 267.48539874 288.52251396 267.45905685 285.61334419 C267.44704989 284.22557574 267.43831734 282.83777474 267.43300247 281.44996452 C267.42171433 279.50718523 267.38804567 277.56457552 267.35351562 275.62207031 C267.33906403 274.51955429 267.32461243 273.41703827 267.3097229 272.28111267 C265.9233617 261.73008962 256.48497437 255.78558602 248.81591797 249.5637207 C236.35869322 239.36081947 230.89461729 233.637192 227.90185547 217.17700195 C218.33185547 217.17700195 208.76185547 217.17700195 198.90185547 217.17700195 Z M86.90185547 297.17700195 C88.60341797 298.10512695 88.60341797 298.10512695 90.33935547 299.05200195 C91.29648438 299.57407227 91.29648438 299.57407227 92.27294922 300.10668945 C99.53002718 303.06127988 106.88674221 303.56489292 114.65185547 303.55200195 C116.09395386 303.55067261 116.09395386 303.55067261 117.56518555 303.54931641 C125.37757735 303.41988733 134.61675988 303.00526432 140.73388672 297.5402832 C141.31203125 296.86545898 141.31203125 296.86545898 141.90185547 296.17700195 C140.17441531 295.52656476 138.44481857 294.88185351 136.71435547 294.23950195 C135.75142578 293.87985352 134.78849609 293.52020508 133.79638672 293.1496582 C120.7241922 288.75697745 98.06545353 288.01515251 86.90185547 297.17700195 Z M189.90185547 299.17700195 C189.90185547 319.30700195 189.90185547 339.43700195 189.90185547 360.17700195 C205.41185547 360.17700195 220.92185547 360.17700195 236.90185547 360.17700195 C236.90185547 340.04700195 236.90185547 319.91700195 236.90185547 299.17700195 C221.39185547 299.17700195 205.88185547 299.17700195 189.90185547 299.17700195 Z M85.90185547 314.17700195 C85.57185547 332.98700195 85.24185547 351.79700195 84.90185547 371.17700195 C108.73921169 363.23121655 125.92263704 343.17738606 137.52685547 321.48950195 C139.29294059 318.25730844 139.29294059 318.25730844 137.90185547 315.17700195 C137.04853638 315.38812622 137.04853638 315.38812622 136.17797852 315.60351562 C128.98296143 317.2290751 122.07274832 317.51037091 114.71435547 317.48950195 C113.59738281 317.50561523 112.48041016 317.52172852 111.32958984 317.53833008 C102.20216233 317.5435607 95.21536998 316.03970486 85.90185547 314.17700195 Z M-23.37939453 333.7355957 C-33.14941941 346.412547 -37.0981396 359.15889914 -36.09814453 375.17700195 C-33.82171666 389.67802676 -26.94211825 401.78506638 -15.47314453 410.92700195 C-5.66344148 417.98505245 4.77563312 421.35328586 16.77685547 421.36450195 C17.45876953 421.37674805 18.14068359 421.38899414 18.84326172 421.40161133 C19.85839844 421.40451172 19.85839844 421.40451172 20.89404297 421.4074707 C21.49587402 421.41157959 22.09770508 421.41568848 22.71777344 421.41992188 C25.84979282 421.07156962 28.87177408 420.04273949 31.90185547 419.17700195 C31.90185547 412.57700195 31.90185547 405.97700195 31.90185547 399.17700195 C29.76716797 399.67200195 29.76716797 399.67200195 27.58935547 400.17700195 C16.33104633 402.38731971 7.09831196 401.49227631 -2.78564453 395.55200195 C-9.98301151 390.46485775 -14.38777697 382.77124557 -16.09814453 374.17700195 C-17.27125139 364.44455989 -14.9004823 355.82534921 -9.28564453 347.80200195 C-3.13084789 340.29652675 4.20701132 336.91092872 13.82373047 335.85668945 C23.39525098 335.48473917 31.30957116 337.70474832 38.77685547 343.80200195 C44.96789969 349.7267647 48.77126285 357.26671939 48.99951172 365.84887695 C48.99291264 367.20828645 48.98105792 368.56767905 48.96435547 369.92700195 C48.95984375 370.62438477 48.95533203 371.32176758 48.95068359 372.0402832 C48.93895567 373.75255998 48.92102199 375.46479229 48.90185547 377.17700195 C51.11011925 377.20422712 53.31848185 377.22349925 55.52685547 377.23950195 C56.75662109 377.25110352 57.98638672 377.26270508 59.25341797 377.2746582 C62.57909338 377.1856412 65.64233135 376.81386282 68.90185547 376.17700195 C69.68872078 359.15011086 66.26107754 345.88562913 55.21435547 332.48950195 C46.29811237 322.89521756 33.6908267 316.888715 20.62451172 315.9387207 C3.69124376 315.59535668 -11.81986817 320.77071596 -23.37939453 333.7355957 Z M141.90185547 344.17700195 C140.87245906 345.44536539 139.8797957 346.74355414 138.90185547 348.05200195 C119.62054692 373.10592223 96.33192801 387.68699159 64.90185547 392.17700195 C56.48685547 392.67200195 56.48685547 392.67200195 47.90185547 393.17700195 C47.90185547 427.16700195 47.90185547 461.15700195 47.90185547 496.17700195 C76.50608311 496.17700195 102.42137196 487.71313658 123.40087891 467.6940918 C137.95112756 452.98764334 143.44142354 433.77526509 143.3550415 413.67042542 C143.33462845 411.89266456 143.31376471 410.11490884 143.29248047 408.3371582 C143.28499966 406.47530227 143.27931546 404.61343835 143.27532959 402.75157166 C143.26021786 397.90342621 143.22106486 393.05577704 143.17651367 388.20782471 C143.13524484 383.23993641 143.11725177 378.27196619 143.09716797 373.30395508 C143.05455323 363.59475529 142.98648234 353.88592024 142.90185547 344.17700195 C142.57185547 344.17700195 142.24185547 344.17700195 141.90185547 344.17700195 Z M2.52685547 357.61450195 C-0.60853967 362.5587789 -1.69937613 366.26489127 -1.09814453 372.17700195 C1.10009108 378.52217934 4.29088816 382.27649285 10.27685547 385.42700195 C16.23111094 387.1282178 20.71982066 386.35642289 26.03857422 383.4543457 C29.89078157 380.81352431 32.41308172 377.64332319 33.90185547 373.17700195 C34.67699848 366.62005452 33.77898464 362.52115297 29.90185547 357.17700195 C27.50326503 354.84069447 27.50326503 354.84069447 24.90185547 353.17700195 C24.00466797 352.55825195 24.00466797 352.55825195 23.08935547 351.92700195 C15.23651468 349.2345994 8.11996193 351.87420848 2.52685547 357.61450195 Z " fill="#000000" transform="translate(160.09814453125,-0.177001953125)"/>
<path d="M0 0 C1.26811523 -0.00938095 2.53623047 -0.0187619 3.84277344 -0.02842712 C5.22331416 -0.01794878 6.60384837 -0.00657976 7.984375 0.00561523 C9.40397211 0.00546021 10.82356964 0.00397067 12.24316406 0.00120544 C15.21568556 -0.00017791 18.18772417 0.01236792 21.16015625 0.03515625 C24.96682067 0.06354142 28.77268296 0.06080307 32.57940674 0.04806614 C35.50999785 0.04110491 38.44040417 0.04890317 41.37097168 0.06132317 C42.77436616 0.0658334 44.17778051 0.06617819 45.58117676 0.06225777 C47.54373448 0.05934157 49.50628828 0.07802696 51.46875 0.09765625 C52.58475586 0.10305923 53.70076172 0.10846222 54.85058594 0.11402893 C58.07626126 0.54767021 59.44336824 1.22256482 61.734375 3.50170898 C63.02924516 7.38631945 62.8576354 11.06054854 62.83203125 15.10717773 C62.8306163 15.9463826 62.82920135 16.78558746 62.82774353 17.65022278 C62.82214715 20.32992114 62.80959535 23.00953588 62.796875 25.68920898 C62.79185953 27.50626507 62.78729671 29.32332246 62.78320312 31.14038086 C62.77217891 35.59418911 62.75491678 40.04793487 62.734375 44.50170898 C63.8896167 44.4755249 65.0448584 44.44934082 66.23510742 44.42236328 C70.53064526 44.33170551 74.82609894 44.27440348 79.12231445 44.22705078 C80.97988109 44.20194196 82.83734927 44.16784765 84.69458008 44.12451172 C87.36824858 44.06369774 90.04060865 44.03546378 92.71484375 44.01342773 C93.9557502 43.97471809 93.9557502 43.97471809 95.22172546 43.93522644 C99.09094324 43.93335411 101.31989 44.27375562 104.75878906 46.16503906 C107.98525105 51.61437865 107.42593329 57.16413949 107.36328125 63.37670898 C107.36411058 64.74764189 107.36657236 66.11857469 107.37059021 67.48950195 C107.37344372 70.357809 107.35879291 73.22533324 107.33129883 76.09350586 C107.29721495 79.76235605 107.30323745 83.42980718 107.3219614 87.09872437 C107.33255155 89.92817763 107.32357569 92.75730771 107.30857658 95.58673096 C107.30090367 97.59467266 107.30823585 99.60265363 107.31581116 101.6105957 C107.29997482 102.83536621 107.28413849 104.06013672 107.26782227 105.32202148 C107.2585244 106.93488037 107.2585244 106.93488037 107.2490387 108.58032227 C106.60779172 112.22023393 105.31367533 113.89593509 102.734375 116.50170898 C98.9128212 117.77556025 95.3275303 117.62524087 91.34765625 117.59936523 C90.53064743 117.59795029 89.71363861 117.59653534 88.87187195 117.59507751 C86.26350232 117.58948193 83.65521866 117.57693027 81.046875 117.56420898 C79.27799603 117.55919341 77.50911572 117.55463061 75.74023438 117.55053711 C71.40491481 117.53951395 67.06965948 117.52225236 62.734375 117.50170898 C62.74484863 118.63189453 62.75532227 119.76208008 62.76611328 120.92651367 C62.80233932 125.1234215 62.82528498 129.32031552 62.84423828 133.51733398 C62.85428991 135.33311284 62.86793328 137.14887554 62.88525391 138.96459961 C62.90953906 141.57596833 62.92086648 144.18712286 62.9296875 146.79858398 C62.94001007 147.60914246 62.95033264 148.41970093 62.96096802 149.25482178 C62.96243813 156.65576484 62.96243813 156.65576484 60.734375 159.50170898 C57.39388253 161.62220123 54.67241692 161.75935664 50.76000977 161.77636719 C48.95277184 161.79066521 48.95277184 161.79066521 47.10902405 161.80525208 C45.81105392 161.80434067 44.5130838 161.80342926 43.17578125 161.80249023 C41.82583993 161.80637937 40.47589983 161.81071449 39.1259613 161.81547546 C36.29902171 161.82292914 33.47220702 161.82265265 30.64526367 161.81738281 C27.02931686 161.81158933 23.41388247 161.82851971 19.79802036 161.85172749 C17.01068654 161.86648639 14.22347552 161.86733363 11.43610954 161.86421776 C9.45694091 161.86497826 7.47779129 161.87883379 5.49867249 161.89289856 C4.29069504 161.88666977 3.08271759 161.88044098 1.83813477 161.87402344 C0.24739891 161.87496758 0.24739891 161.87496758 -1.37547302 161.87593079 C-4.69610158 161.44597014 -6.58175208 160.47273655 -9.265625 158.50170898 C-10.93140125 155.17015648 -10.38570356 151.4363484 -10.36328125 147.77514648 C-10.3618663 146.91233063 -10.36045135 146.04951477 -10.35899353 145.16055298 C-10.35338688 142.39923668 -10.34083327 139.63800086 -10.328125 136.87670898 C-10.32311086 135.00691849 -10.3185478 133.13712672 -10.31445312 131.26733398 C-10.30341529 126.67876121 -10.2861462 122.09024875 -10.265625 117.50170898 C-11.36028076 117.51218262 -12.45493652 117.52265625 -13.58276367 117.53344727 C-17.6548331 117.56972342 -21.72688831 117.59263716 -25.79907227 117.61157227 C-27.55951339 117.6216125 -29.31993791 117.63524743 -31.08032227 117.65258789 C-33.61478785 117.67692334 -36.14903239 117.68821194 -38.68359375 117.69702148 C-39.46711716 117.70734406 -40.25064056 117.71766663 -41.0579071 117.728302 C-45.21762408 117.72915071 -48.60053511 117.56409855 -52.265625 115.50170898 C-54.61025603 111.98476244 -54.52775978 110.51422087 -54.55615234 106.34960938 C-54.5752919 104.44732323 -54.5752919 104.44732323 -54.59481812 102.50660706 C-54.59787543 101.12086133 -54.60010337 99.73511356 -54.6015625 98.34936523 C-54.60798952 96.92833827 -54.61471781 95.50731263 -54.62173462 94.08628845 C-54.6337089 91.10795015 -54.63741526 88.12972786 -54.63623047 85.15136719 C-54.63602717 81.33676775 -54.66333873 77.52291244 -54.69777489 73.70848942 C-54.72002228 70.77364186 -54.72406871 67.83897408 -54.72301102 64.90405083 C-54.72536989 63.49783194 -54.73420964 62.0916083 -54.74967575 60.68547249 C-54.76928967 58.71814705 -54.760987 56.75060329 -54.75146484 54.78320312 C-54.75431488 53.66418106 -54.75716492 52.545159 -54.76010132 51.39222717 C-54.1476877 47.81229294 -53.16903637 46.63385137 -50.265625 44.50170898 C-48.26605225 44.02069092 -48.26605225 44.02069092 -46.13964844 44.04760742 C-45.33912048 44.04790955 -44.53859253 44.04821167 -43.71380615 44.04852295 C-42.85950012 44.06916809 -42.00519409 44.08981323 -41.125 44.11108398 C-40.24281799 44.11674377 -39.36063599 44.12240356 -38.45172119 44.12823486 C-35.63913287 44.15059308 -32.82782705 44.20078766 -30.015625 44.25170898 C-28.10678926 44.27177474 -26.19793351 44.29002538 -24.2890625 44.30639648 C-19.61409055 44.35045598 -14.94007508 44.41947915 -10.265625 44.50170898 C-10.28657227 43.3109375 -10.30751953 42.12016602 -10.32910156 40.89331055 C-10.40153462 36.47286009 -10.44743672 32.05246203 -10.48535156 27.6315918 C-10.50545952 25.71874163 -10.53275007 23.80595287 -10.56738281 21.89331055 C-10.61593749 19.14283087 -10.63860158 16.39316422 -10.65625 13.64233398 C-10.67689514 12.78802795 -10.69754028 11.93372192 -10.71881104 11.05352783 C-10.71911316 10.25299988 -10.71941528 9.45247192 -10.71972656 8.62768555 C-10.72860901 7.92597229 -10.73749146 7.22425903 -10.74664307 6.50128174 C-9.37105662 0.7830242 -5.2484958 0.00078148 0 0 Z M5.734375 16.50170898 C5.48481488 29.20134644 5.48481488 29.20134644 5.25634766 41.90136719 C5.22114225 43.4934253 5.18522105 45.08546781 5.1484375 46.67749023 C5.13707764 47.50422241 5.12571777 48.33095459 5.11401367 49.18273926 C5.01464338 53.10307667 4.95577895 55.16960307 2.734375 58.50170898 C-1.12864176 59.78938124 -4.84052273 59.73563645 -8.87109375 59.81811523 C-9.61508423 59.83676636 -10.35907471 59.85541748 -11.12561035 59.87463379 C-13.90132927 59.94286486 -16.67724112 60.0030561 -19.453125 60.06420898 C-25.66125 60.20858398 -31.869375 60.35295898 -38.265625 60.50170898 C-38.265625 74.03170898 -38.265625 87.56170898 -38.265625 101.50170898 C-25.23691258 101.67215814 -25.23691258 101.67215814 -12.20776367 101.79956055 C-10.57467822 101.82892435 -8.9416181 101.85974908 -7.30859375 101.89233398 C-6.46026978 101.89346191 -5.6119458 101.89458984 -4.73791504 101.89575195 C1.09786446 102.03823637 1.09786446 102.03823637 3.76757812 103.98217773 C5.22508923 107.78054001 5.21540005 111.38468886 5.24609375 115.42358398 C5.26273071 116.18622559 5.27936768 116.94886719 5.29650879 117.73461914 C5.35418063 120.57337086 5.38652902 123.41259151 5.421875 126.25170898 C5.5765625 135.78045898 5.5765625 135.78045898 5.734375 145.50170898 C19.264375 145.50170898 32.794375 145.50170898 46.734375 145.50170898 C46.944383 132.47300167 46.944383 132.47300167 47.12231445 119.44384766 C47.15459875 117.81076761 47.18797167 116.17770856 47.22265625 114.54467773 C47.23202209 113.27219177 47.23202209 113.27219177 47.24157715 111.97399902 C47.26151733 111.1622522 47.28145752 110.35050537 47.30200195 109.51416016 C47.31310501 108.81022629 47.32420807 108.10629242 47.33564758 107.38102722 C47.86375142 104.89192031 48.70187999 104.00654117 50.734375 102.50170898 C52.61369324 102.10298157 52.61369324 102.10298157 54.74682617 102.06933594 C55.96444641 102.03942566 55.96444641 102.03942566 57.20666504 102.00891113 C58.05498901 102.00266724 58.90331299 101.99642334 59.77734375 101.98999023 C60.56065063 101.97335327 61.34395752 101.95671631 62.15100098 101.9395752 C65.0743531 101.88178357 67.99816498 101.84952529 70.921875 101.81420898 C77.46 101.71108398 83.998125 101.60795898 90.734375 101.50170898 C90.734375 87.97170898 90.734375 74.44170898 90.734375 60.50170898 C78.07981873 60.29177989 78.07981873 60.29177989 65.42480469 60.11376953 C63.83526259 60.08147653 62.24574193 60.04810237 60.65625 60.01342773 C59.83463379 60.00718384 59.01301758 60.00093994 58.16650391 59.99450684 C54.90044864 59.91220703 52.27796256 59.71029491 49.21484375 58.53491211 C46.74995774 55.14975863 47.13042546 51.53927104 47.125 47.45874023 C47.10937012 46.67543335 47.09374023 45.89212646 47.07763672 45.08508301 C47.02507381 42.16176558 47.00677624 39.23791311 46.984375 36.31420898 C46.860625 26.50702148 46.860625 26.50702148 46.734375 16.50170898 C33.204375 16.50170898 19.674375 16.50170898 5.734375 16.50170898 Z " fill="#000000" transform="translate(168.265625,113.498291015625)"/>
<path d="M0 0 C2.0625 2.125 2.0625 2.125 3 5 C2.88214109 8.41790842 2.58916681 10.92563699 0.9375 13.9375 C-2.2816415 15.70283566 -5.49115615 15.7327706 -9 15 C-11.5625 13 -11.5625 13 -13 10 C-13.2961597 6.09676698 -12.81786303 3.0795792 -10.4375 -0.0625 C-6.79038995 -1.46523464 -3.68613974 -1.26515813 0 0 Z " fill="#000000" transform="translate(400,449)"/>
<path d="M0 0 C2.562964 2.23225897 2.93752331 3.58051369 3.4375 6.9375 C2.88008526 10.83940315 1.97118368 12.40973731 -1 15 C-4.69401119 15.52771588 -6.99250368 15.4772351 -10.375 13.875 C-12.66488311 11.23282718 -12.931736 9.48146393 -13 6 C-11.75 2.6875 -11.75 2.6875 -10 0 C-6.20519658 -1.26493447 -3.87641726 -0.89988258 0 0 Z " fill="#000000" transform="translate(403,405)"/>
<path d="M0 0 C3.32274404 2.45594125 4.77618008 3.9256644 5.625 8 C4.77618008 12.0743356 3.32274404 13.54405875 0 16 C-3.0625 16.5625 -3.0625 16.5625 -6 16 C-8.66026374 14.05872646 -9.76393878 12.65759911 -10.875 9.5625 C-11.02583739 6.47033348 -10.46741381 4.71471554 -9 2 C-5.48175489 -0.34549674 -4.14224306 -0.57991403 0 0 Z " fill="#000000" transform="translate(445,401)"/>
<path d="M0 0 C2.4375 1.5 2.4375 1.5 4 4 C4.60984064 6.80756825 4.66017005 9.19858274 4 12 C1.42627616 15.02791041 -0.15246594 15.86162709 -4.0625 16.5 C-7 16 -7 16 -9.375 14.5 C-11.65700312 10.98922596 -11.81004807 8.07529338 -11 4 C-8.16250305 -0.53999512 -5.10870514 -0.72981502 0 0 Z " fill="#000000" transform="translate(449,357)"/>
<path d="M0 0 C2.4375 1.5 2.4375 1.5 4 4 C4.61014545 6.8089715 4.65360928 9.19636021 4 12 C1.9375 14.5625 1.9375 14.5625 -1 16 C-4.46758942 15.94021398 -6.88826749 15.60965977 -9.9375 13.9375 C-11.69366901 10.73507415 -11.62026592 7.50309274 -11 4 C-8.16250305 -0.53999512 -5.10870514 -0.72981502 0 0 Z " fill="#000000" transform="translate(378,428)"/>
<path d="M0 0 C2.49518108 1.52930453 2.87047343 2.62138387 3.8125 5.375 C4.04244451 8.5942232 3.61716739 10.20671087 2 13 C-0.1875 14.9375 -0.1875 14.9375 -3 16 C-6.6875 15.375 -6.6875 15.375 -10 14 C-12.48038907 10.2794164 -12.46337203 8.40203429 -12 4 C-8.93537785 -0.980011 -5.34000819 -0.59333424 0 0 Z " fill="#000000" transform="translate(426,381)"/>
<path d="M0 0 C2.33030405 1.60710624 2.89531369 2.69399385 3.8125 5.375 C4.03578841 8.50103781 3.42252752 10.22981483 2 13 C0 15 0 15 -3.9375 15.3125 C-6.65453948 15.24851175 -7.68491841 15.22360629 -9.9375 13.625 C-12.12659072 10.27697889 -12.32041427 8.00517835 -12 4 C-9.00369823 -1.27919836 -5.60614617 -1.40153654 0 0 Z " fill="#000000" transform="translate(470,378)"/>
<path d="M0 0 C2 1.5 2 1.5 3 4 C3.49828301 7.53780935 3.74407164 10.78598838 1.8125 13.9375 C-0.54513379 15.31956119 -2.26425721 15.8045898 -5 16 C-8.81263347 14.93600927 -9.75011007 14.3748349 -12 11 C-12.41857482 7.16306413 -12.54644269 4.88796936 -10.5 1.5625 C-6.72171101 -0.79893062 -4.42209561 -0.56153595 0 0 Z " fill="#000000" transform="translate(423,425)"/>
</svg>
