<?xml version="1.0" encoding="UTF-8"?>
<!DOCTYPE svg PUBLIC "-//W3C//DTD SVG 1.1//EN" "http://www.w3.org/Graphics/SVG/1.1/DTD/svg11.dtd">
<svg xmlns="http://www.w3.org/2000/svg" version="1.1" width="512px" height="512px" style="shape-rendering:geometricPrecision; text-rendering:geometricPrecision; image-rendering:optimizeQuality; fill-rule:evenodd; clip-rule:evenodd" xmlns:xlink="http://www.w3.org/1999/xlink">
<g><path style="opacity:0.936" fill="#000000" d="M 194.5,-0.5 C 203.833,-0.5 213.167,-0.5 222.5,-0.5C 230.983,1.04585 239.317,3.54585 247.5,7C 252.279,14.2816 250.446,19.1149 242,21.5C 225.217,15.065 208.05,13.565 190.5,17C 177.698,19.8804 168.032,26.8804 161.5,38C 157.877,39.1053 154.21,40.1053 150.5,41C 148.714,41.7845 147.214,42.9512 146,44.5C 141.789,55.3296 141.456,66.3296 145,77.5C 147.454,88.5312 151.287,99.0312 156.5,109C 164.617,108.784 171.283,111.784 176.5,118C 181.56,119.775 186.56,119.442 191.5,117C 208.788,109.046 222.288,96.8791 232,80.5C 240.572,72.1948 250.406,70.3615 261.5,75C 266.727,79.6327 268.893,85.466 268,92.5C 273.413,77.9085 273.747,63.2419 269,48.5C 267.503,44.8351 265.503,41.5017 263,38.5C 260.606,29.2287 264.106,25.3953 273.5,27C 276,28.1667 277.833,30 279,32.5C 290.606,54.9543 291.606,77.9543 282,101.5C 279.168,109.169 275.668,116.502 271.5,123.5C 290.677,133.589 310.011,143.422 329.5,153C 353.543,169.143 359.709,190.643 348,217.5C 330.295,257.075 312.462,296.575 294.5,336C 305.789,351.412 316.956,366.912 328,382.5C 336.884,375.282 346.051,368.448 355.5,362C 363.167,357.333 370.833,357.333 378.5,362C 381.843,365.708 385.176,369.375 388.5,373C 403.833,373.667 419.167,373.667 434.5,373C 460.147,359.442 478.313,366.275 489,393.5C 492.253,405.637 493.253,417.97 492,430.5C 489.774,434.861 486.274,436.361 481.5,435C 479.333,434.167 477.833,432.667 477,430.5C 476.808,421.457 476.141,412.457 475,403.5C 473.23,392.073 466.897,384.74 456,381.5C 449.863,382.068 444.863,384.735 441,389.5C 438,398.167 435,406.833 432,415.5C 427.412,420.7 421.579,423.2 414.5,423C 411.424,423.911 409.091,425.744 407.5,428.5C 413.975,432.143 418.475,437.477 421,444.5C 423.21,459.929 416.71,469.096 401.5,472C 389.317,472.909 379.65,468.409 372.5,458.5C 363.945,462.945 360.112,469.945 361,479.5C 367.307,486.411 375.14,490.911 384.5,493C 399.588,496.303 414.588,496.637 429.5,494C 442.059,490.764 452.559,484.264 461,474.5C 464.973,468.05 468.806,461.55 472.5,455C 479.13,452.491 483.464,454.658 485.5,461.5C 478.647,482.523 464.98,497.356 444.5,506C 438.172,508.327 431.838,510.16 425.5,511.5C 415.167,511.5 404.833,511.5 394.5,511.5C 379.107,509.645 365.107,504.145 352.5,495C 349.803,491.642 347.136,488.309 344.5,485C 335.228,483.447 325.895,483.114 316.5,484C 311.054,498.285 301.054,507.452 286.5,511.5C 198.5,511.5 110.5,511.5 22.5,511.5C 18.3001,507.982 17.4668,503.649 20,498.5C 20.7504,497.874 21.5838,497.374 22.5,497C 64.4987,496.5 106.499,496.333 148.5,496.5C 148.5,487.833 148.5,479.167 148.5,470.5C 106.499,470.667 64.4987,470.5 22.5,470C 18.2468,466.58 17.4135,462.413 20,457.5C 21.1711,456.107 22.6711,455.273 24.5,455C 65.832,454.5 107.165,454.333 148.5,454.5C 148.036,446.812 151.369,441.645 158.5,439C 183.5,438.333 208.5,438.333 233.5,439C 256.768,445.354 266.601,460.52 263,484.5C 262.097,488.805 260.263,492.639 257.5,496C 291.674,501.49 306.174,487.324 301,453.5C 296.267,434.434 284.434,422.267 265.5,417C 184.53,415.684 103.53,415.017 22.5,415C 17.5541,410.7 17.2207,406.033 21.5,401C 22.5,400.667 23.5,400.333 24.5,400C 42.5,399.667 60.5,399.333 78.5,399C 92.3855,378.061 106.885,357.561 122,337.5C 122.667,336.5 122.667,335.5 122,334.5C 103.392,293.618 85.0589,252.618 67,211.5C 59.5531,188.51 65.3864,169.676 84.5,155C 105.167,144.667 125.833,134.333 146.5,124C 134.509,104.193 127.843,82.6926 126.5,59.5C 126.104,47.5089 130.104,37.3422 138.5,29C 142.601,26.6864 146.934,24.8531 151.5,23.5C 157.595,14.9106 165.595,8.74396 175.5,5C 181.828,2.6729 188.162,0.839566 194.5,-0.5 Z M 247.5,88.5 C 248.833,88.5 250.167,88.5 251.5,88.5C 251.667,102.837 251.5,117.171 251,131.5C 248.394,143.895 241.228,152.395 229.5,157C 217.215,158.561 204.882,158.894 192.5,158C 177.682,154.521 169.182,145.354 167,130.5C 170.824,133.996 175.324,135.662 180.5,135.5C 195.906,133.646 209.573,127.812 221.5,118C 226.333,113.167 231.167,108.333 236,103.5C 239.728,98.2909 243.561,93.2909 247.5,88.5 Z M 150.5,139.5 C 157.446,158.272 170.78,169.772 190.5,174C 202.5,174.667 214.5,174.667 226.5,174C 246.48,170.266 259.647,158.766 266,139.5C 285.422,149.461 304.922,159.295 324.5,169C 335.158,176.83 339.325,187.33 337,200.5C 329.937,218.284 322.104,235.618 313.5,252.5C 305.833,249 298.167,245.5 290.5,242C 295.147,233.543 298.814,224.71 301.5,215.5C 301.035,208.586 297.368,206.086 290.5,208C 289.069,208.465 287.903,209.299 287,210.5C 271.903,245.193 256.403,279.693 240.5,314C 219.159,314.833 197.826,314.666 176.5,313.5C 161.059,279.618 145.892,245.618 131,211.5C 126.625,206.619 121.958,206.285 117,210.5C 116.077,212.034 115.577,213.701 115.5,215.5C 118.603,224.377 122.27,233.044 126.5,241.5C 118.986,245.423 111.319,249.09 103.5,252.5C 94.8529,234.871 87.0196,216.871 80,198.5C 78.7405,186.945 82.5739,177.445 91.5,170C 111.228,159.804 130.895,149.637 150.5,139.5 Z M 131.5,257.5 C 133.411,257.574 134.578,258.574 135,260.5C 152.43,300.526 170.263,340.359 188.5,380C 183.342,385.452 181.009,391.952 181.5,399.5C 176.901,399.8 172.401,399.467 168,398.5C 148.69,354.899 129.19,311.399 109.5,268C 116.858,264.39 124.192,260.89 131.5,257.5 Z M 283.5,257.5 C 289.356,259.092 295.023,261.258 300.5,264C 303.21,265.015 305.543,266.515 307.5,268.5C 290,307.5 272.5,346.5 255,385.5C 253.775,390.085 253.275,394.752 253.5,399.5C 234.833,399.5 216.167,399.5 197.5,399.5C 197.047,395.574 198.38,392.408 201.5,390C 208.091,387.469 214.758,385.136 221.5,383C 225.241,381.262 228.408,378.762 231,375.5C 248.787,336.263 266.287,296.93 283.5,257.5 Z M 184.5,330.5 C 200.837,330.333 217.17,330.5 233.5,331C 228.205,342.426 223.038,353.926 218,365.5C 217.167,366.333 216.333,367.167 215.5,368C 211.24,369.308 207.074,370.808 203,372.5C 196.347,358.705 190.18,344.705 184.5,330.5 Z M 286.5,353.5 C 297.164,367.512 307.497,381.846 317.5,396.5C 313.109,405.327 311.443,414.66 312.5,424.5C 309.753,424.813 307.086,424.48 304.5,423.5C 295.544,412.553 284.211,405.22 270.5,401.5C 269.345,398.554 269.179,395.554 270,392.5C 275.801,379.586 281.301,366.586 286.5,353.5 Z M 129.5,354.5 C 130.497,354.47 131.164,354.97 131.5,356C 137.696,370.226 144.029,384.392 150.5,398.5C 132.843,399.666 115.176,399.833 97.5,399C 108.385,384.288 119.052,369.455 129.5,354.5 Z M 365.5,374.5 C 366.552,374.351 367.552,374.517 368.5,375C 371.558,381.058 376.225,385.391 382.5,388C 396.112,389.26 409.778,389.927 423.5,390C 421.618,395.025 420.118,400.192 419,405.5C 404.879,407.051 395.213,414.384 390,427.5C 389.163,431.295 389.496,434.961 391,438.5C 395.577,440.739 399.911,443.405 404,446.5C 406.676,452.469 404.676,455.803 398,456.5C 388.34,454.498 383.34,448.498 383,438.5C 380.091,435.606 376.591,434.773 372.5,436C 370.06,437.774 368.394,440.108 367.5,443C 355.991,448.002 348.657,456.502 345.5,468.5C 336.54,467.585 327.54,467.252 318.5,467.5C 318.151,458.335 316.818,449.335 314.5,440.5C 323.24,441.745 328.24,438.078 329.5,429.5C 325.963,413.945 330.296,401.111 342.5,391C 350.586,385.969 358.253,380.469 365.5,374.5 Z M 164.5,454.5 C 186.836,454.333 209.169,454.5 231.5,455C 247.578,461.315 251.745,472.148 244,487.5C 241.292,491.104 237.792,493.604 233.5,495C 210.539,496.436 187.539,496.936 164.5,496.5C 164.5,482.5 164.5,468.5 164.5,454.5 Z"/></g>
</svg>
