<?xml version="1.0" encoding="UTF-8"?>
<!DOCTYPE svg PUBLIC "-//W3C//DTD SVG 1.1//EN" "http://www.w3.org/Graphics/SVG/1.1/DTD/svg11.dtd">
<svg xmlns="http://www.w3.org/2000/svg" version="1.1" width="512px" height="512px" style="shape-rendering:geometricPrecision; text-rendering:geometricPrecision; image-rendering:optimizeQuality; fill-rule:evenodd; clip-rule:evenodd" xmlns:xlink="http://www.w3.org/1999/xlink">
<g><path style="opacity:0.954" fill="#000000" d="M 311.5,31.5 C 315.516,30.8999 319.016,31.8999 322,34.5C 322.667,44.8333 322.667,55.1667 322,65.5C 320.607,68.3661 318.274,69.6994 315,69.5C 311.726,69.6994 309.393,68.3661 308,65.5C 307.333,55.1667 307.333,44.8333 308,34.5C 309.145,33.3636 310.312,32.3636 311.5,31.5 Z"/></g>
<g><path style="opacity:0.903" fill="#000000" d="M 271.5,42.5 C 275.603,41.7691 279.103,42.7691 282,45.5C 285.333,51.5 288.667,57.5 292,63.5C 293.622,72.7901 289.789,76.2901 280.5,74C 275.706,67.5835 271.539,60.7501 268,53.5C 266.663,48.8721 267.83,45.2054 271.5,42.5 Z"/></g>
<g><path style="opacity:0.903" fill="#000000" d="M 350.5,42.5 C 359.791,40.7017 363.624,44.3684 362,53.5C 358.461,60.7501 354.294,67.5835 349.5,74C 340.211,76.2901 336.378,72.7901 338,63.5C 341.675,56.1418 345.841,49.1418 350.5,42.5 Z"/></g>
<g><path style="opacity:0.939" fill="#000000" d="M 511.5,306.5 C 511.5,336.167 511.5,365.833 511.5,395.5C 506.683,411.48 496.016,420.98 479.5,424C 467.505,424.5 455.505,424.667 443.5,424.5C 438.676,451.826 423.009,469.659 396.5,478C 362.561,484.113 337.727,471.946 322,441.5C 319.779,436.008 318.279,430.341 317.5,424.5C 272.167,424.5 226.833,424.5 181.5,424.5C 178.138,448.359 165.471,465.192 143.5,475C 108.488,486.333 81.321,476.5 62,445.5C 58.9303,439.124 56.7636,432.458 55.5,425.5C 47.5207,424.668 39.5207,424.168 31.5,424C 14.984,420.98 4.31728,411.48 -0.5,395.5C -0.5,351.833 -0.5,308.167 -0.5,264.5C 4.33539,259.214 9.16873,259.214 14,264.5C 14.5,283.83 14.6666,303.164 14.5,322.5C 83.8333,322.5 153.167,322.5 222.5,322.5C 222.5,268.833 222.5,215.167 222.5,161.5C 158.463,161.018 94.4627,161.518 30.5,163C 23.6667,165.833 18.8333,170.667 16,177.5C 14.7551,197.467 14.0885,217.467 14,237.5C 9.17064,242.768 4.33731,242.768 -0.5,237.5C -0.5,216.833 -0.5,196.167 -0.5,175.5C 4.96649,157.88 16.9665,148.047 35.5,146C 117.499,145.5 199.499,145.333 281.5,145.5C 278.457,130.594 282.124,117.76 292.5,107C 309.547,95.3376 325.714,96.5043 341,110.5C 344.388,114.609 346.721,119.275 348,124.5C 348.169,131.524 348.669,138.524 349.5,145.5C 364.401,146.571 375.567,153.571 383,166.5C 394.966,196.427 407.466,226.094 420.5,255.5C 421.5,256.333 422.5,257.167 423.5,258C 446.241,265.469 468.908,273.136 491.5,281C 501.818,286.798 508.485,295.298 511.5,306.5 Z M 313.5,114.5 C 321.183,114.699 327.016,118.033 331,124.5C 332.988,131.353 333.821,138.353 333.5,145.5C 321.167,145.5 308.833,145.5 296.5,145.5C 295.744,137.034 297.244,129.034 301,121.5C 304.473,117.748 308.64,115.414 313.5,114.5 Z M 238.5,161.5 C 275.502,161.333 312.502,161.5 349.5,162C 359.479,162.975 366.312,168.142 370,177.5C 381.875,207.575 394.542,237.242 408,266.5C 410.892,269.057 414.059,271.224 417.5,273C 440.725,280.408 463.725,288.408 486.5,297C 494.404,303.65 497.737,312.15 496.5,322.5C 458.165,322.333 419.832,322.5 381.5,323C 376.706,323.463 374.372,326.13 374.5,331C 374.301,334.274 375.634,336.607 378.5,338C 417.832,338.5 457.165,338.667 496.5,338.5C 496.667,354.503 496.5,370.503 496,386.5C 495.26,397.814 489.427,404.98 478.5,408C 466.838,408.5 455.171,408.667 443.5,408.5C 439.768,383.929 426.435,366.762 403.5,357C 371.197,347.1 345.364,355.934 326,383.5C 321.447,391.267 318.614,399.601 317.5,408.5C 291.167,408.5 264.833,408.5 238.5,408.5C 238.5,385.167 238.5,361.833 238.5,338.5C 276.168,338.667 313.835,338.5 351.5,338C 356.833,333.333 356.833,328.667 351.5,324C 350.167,323.667 348.833,323.333 347.5,323C 311.168,322.5 274.835,322.333 238.5,322.5C 238.5,268.833 238.5,215.167 238.5,161.5 Z M 268.5,191.5 C 293.167,191.5 317.833,191.5 342.5,191.5C 350.338,212.846 358.672,234.012 367.5,255C 334.502,255.5 301.502,255.667 268.5,255.5C 268.5,234.167 268.5,212.833 268.5,191.5 Z M 14.5,338.5 C 83.8333,338.5 153.167,338.5 222.5,338.5C 222.5,361.833 222.5,385.167 222.5,408.5C 208.833,408.5 195.167,408.5 181.5,408.5C 174.899,374.094 154.066,355.427 119,352.5C 84.3586,355.31 63.1919,373.643 55.5,407.5C 46.7757,408.91 38.109,408.743 29.5,407C 22.5724,404.406 18.0724,399.573 16,392.5C 14.5841,374.542 14.0841,356.542 14.5,338.5 Z M 117.5,368.5 C 146.79,370.956 163.123,386.789 166.5,416C 164.346,440.809 151.346,456.475 127.5,463C 98.3182,465.475 79.8182,452.642 72,424.5C 70.522,392.157 85.6887,373.49 117.5,368.5 Z M 378.5,368.5 C 404.041,369.877 420.208,382.877 427,407.5C 429.577,436.246 417.077,454.746 389.5,463C 360.754,465.577 342.254,453.077 334,425.5C 330.865,398.929 341.698,380.762 366.5,371C 370.637,370.161 374.637,369.327 378.5,368.5 Z M 116.5,409.5 C 123.141,409.639 125.974,412.972 125,419.5C 118.672,425.46 114.172,424.293 111.5,416C 112.283,413.062 113.95,410.896 116.5,409.5 Z M 378.5,409.5 C 386.018,409.887 388.518,413.554 386,420.5C 380.023,425.102 375.856,423.769 373.5,416.5C 374.06,413.288 375.727,410.955 378.5,409.5 Z"/></g>
<g><path style="opacity:0.935" fill="#000000" d="M 108.5,175.5 C 115.175,175.334 121.842,175.5 128.5,176C 134.666,176.496 138.833,179.662 141,185.5C 141.5,196.828 141.667,208.162 141.5,219.5C 152.838,219.333 164.172,219.5 175.5,220C 180.428,221.927 183.594,225.427 185,230.5C 185.667,238.5 185.667,246.5 185,254.5C 183.5,260 180,263.5 174.5,265C 163.505,265.5 152.505,265.667 141.5,265.5C 141.667,276.838 141.5,288.172 141,299.5C 139.5,303.667 136.667,306.5 132.5,308C 123.167,308.667 113.833,308.667 104.5,308C 99.6643,306.181 96.831,302.681 96,297.5C 95.5002,286.839 95.3335,276.172 95.5,265.5C 83.4242,265.938 71.4242,265.438 59.5,264C 56.527,262.235 54.3604,259.735 53,256.5C 52.3333,247.167 52.3333,237.833 53,228.5C 54.5981,223.901 57.7647,221.068 62.5,220C 73.495,219.5 84.495,219.333 95.5,219.5C 95.085,207.438 95.585,195.438 97,183.5C 99.7716,179.206 103.605,176.539 108.5,175.5 Z M 111.5,191.5 C 116.167,191.5 120.833,191.5 125.5,191.5C 125.333,203.505 125.5,215.505 126,227.5C 127.167,231.333 129.667,233.833 133.5,235C 145.495,235.5 157.495,235.667 169.5,235.5C 169.5,240.167 169.5,244.833 169.5,249.5C 156.426,249.057 143.426,249.557 130.5,251C 128.383,252.731 126.883,254.898 126,257.5C 125.5,269.162 125.333,280.829 125.5,292.5C 120.833,292.5 116.167,292.5 111.5,292.5C 111.667,280.495 111.5,268.495 111,256.5C 109.833,253.333 107.667,251.167 104.5,250C 92.5046,249.5 80.5046,249.333 68.5,249.5C 68.5,244.833 68.5,240.167 68.5,235.5C 80.1714,235.667 91.8381,235.5 103.5,235C 106.196,234.31 108.363,232.81 110,230.5C 111.462,217.599 111.962,204.599 111.5,191.5 Z"/></g>
<g><path style="opacity:0.934" fill="#000000" d="M 264.5,175.5 C 291.502,175.333 318.502,175.5 345.5,176C 351.127,176.957 354.96,180.124 357,185.5C 366.699,209.599 376.199,233.765 385.5,258C 384.773,264.388 381.439,268.721 375.5,271C 337.833,271.667 300.167,271.667 262.5,271C 257.765,269.932 254.598,267.099 253,262.5C 252.333,236.833 252.333,211.167 253,185.5C 254.75,179.716 258.584,176.383 264.5,175.5 Z M 268.5,191.5 C 268.5,212.833 268.5,234.167 268.5,255.5C 301.502,255.667 334.502,255.5 367.5,255C 358.672,234.012 350.338,212.846 342.5,191.5C 317.833,191.5 293.167,191.5 268.5,191.5 Z"/></g>
<g><path style="opacity:0.926" fill="#000000" d="M 113.5,393.5 C 133.467,392.967 142.634,402.633 141,422.5C 136.689,435.24 127.855,440.74 114.5,439C 102.52,436.057 96.1863,428.391 95.5,416C 96.5998,404.416 102.6,396.916 113.5,393.5 Z M 116.5,409.5 C 113.95,410.896 112.283,413.062 111.5,416C 114.172,424.293 118.672,425.46 125,419.5C 125.974,412.972 123.141,409.639 116.5,409.5 Z"/></g>
<g><path style="opacity:0.924" fill="#000000" d="M 375.5,393.5 C 394.634,393.133 403.8,402.466 403,421.5C 398.651,434.765 389.484,440.598 375.5,439C 362.22,434.613 356.387,425.447 358,411.5C 360.692,402.309 366.525,396.309 375.5,393.5 Z M 378.5,409.5 C 375.727,410.955 374.06,413.288 373.5,416.5C 375.856,423.769 380.023,425.102 386,420.5C 388.518,413.554 386.018,409.887 378.5,409.5 Z"/></g>
</svg>
